<svg id="Camada_1" data-name="Camada 1" xmlns="http://www.w3.org/2000/svg" viewBox="0 0 532 532"><defs><style>.cls-1{fill:#f1eee9;}.cls-2{fill:#efcc3e;}.cls-3{fill:#b25aa7;}.cls-4{fill:#50a545;}.cls-5{fill:#f49725;}.cls-6{fill:#e94941;}.cls-7{fill:#83c8e8;}.cls-8{fill:#4b8ed2;}</style></defs><rect class="cls-1" x="-15" y="-9" width="562" height="550"/><path id="Caminho_260" data-name="Caminho 260" class="cls-2" d="M216.46,374.9c-13.82-10.07-27.81-20.29-38.71-33.47-8.94-10.81-28.1-36.22-28.78-38a12.78,12.78,0,0,1-.64-4.25c-1.05-28.88-.11-90.88.6-92.84a19.63,19.63,0,0,1,3.35-5.33c18.42-23.19,69-66.87,69-66.87a63.19,63.19,0,0,1,7.22-1.32c17.86-1.34,35.8-.08,53.67,1.19L323.27,137l7.53,4.48c23.77,20.88,37.88,41,57.92,65.5a7.64,7.64,0,0,1,2.18,6.67q-1,36.54-2.09,73.08c-.22,7.85-3.54,17.73-2.13,26.29l-2.49,3.17c-24.92,23.1-41.73,40.18-66.65,63.29,0,0-16.08.88-23.23-1.08-6.89-1.89-14.88-2.18-22.51-2.24C253.64,376,216.46,374.9,216.46,374.9Z"/><path id="Caminho_261" data-name="Caminho 261" class="cls-3" d="M221.8,25.31c5.27,8.65,21,15.25,30.34,17.86,5.82,1.63,10.76,3.44,16.8,4.56s21.71,2,21.71,2a50.27,50.27,0,0,1,2,10.09c.34,3.87,1,7.81,1.59,11.46-12.72-.77-23.1,3.23-35.17,6,8.5,6.49,17.52,12,25.53,19.2,6.68,6,12.63,13.31,19.12,19.52-3.16,2.43-5.18,6.61-7.63,9.85-5.7-3.41-15.77-8.08-21.54-10.72-10.64-4.88-20.2-11.76-30.81-16.13,18.94,14.6,36.66,30.8,50.77,49.8-3.59,3.58-6.92,7.35-10.39,11.21-11.25-8.33-22.4-16.33-32.85-25.6-7.71-6.84-17.58-9.83-25.15-16.26,2.14,2.31,2.22,5.55,3.69,8.33,1.57,3,4.09,5.45,5.94,8.3,3.43,5.25,5.79,11.25,9.05,16.65,3.56,5.92,7.9,11.29,11.48,17-3.18,2.1-12.45,7.76-14.77,10.91-6-4.29-37.07-46.69-42-50.06,2.75,8,7.63,38.72,7.63,38.72a75.12,75.12,0,0,0-15.87,4.3c.3-1.28-18-41-19.54-48.65C168.91,109.68,164.92,98,159.54,85c-2.3-5.58-3.9-18.78-9.9-21,5.67-2.84,10.38-11.21,14.64-16,4.84-5.39,10-10.16,15.05-15.27,5.72-5.81,10.69-11.47,17.1-16.66C199.89,13.27,204.61,7.79,209,7,211.48,13,217.1,21.52,221.8,25.31Z"/><path id="Caminho_262" data-name="Caminho 262" class="cls-4" d="M485,266.33s6.14-22.32,10.26-29.77c2.34-4.24,12.66-17.61,11.42-21.52-.41-1.28-7.87-5.47-9.44-6.09-4.85-1.89-3.41-3.77-8-.26-8.13,6.28-19,15.65-26.1,22.6-3.34-8.24-2.75-18.06-4.13-27-1.55-9.92-2.29-19.68-3.57-29.5-6.61-1.45-13.51,2.07-13.51,2.07s-1.75,13.54-1.2,19.38c1.12,12-.45,25.45-1.56,37.31-6.49-10.59-9.22-25.77-13.86-37.35-2.72-6.8-5.94-14.74-7.2-21.72-4.5,1.88-10.05,2.33-16.34,5.52,4.51,9.64,4.55,24,6.61,34.66,1.57,8.14,3.31,18.2,3.54,26.48-5.65-7.09-26.39-32.54-30.53-39.27-6.53,3.55-8.27,3.48-13.71,8.54,3.8,6.1,10.77,22.11,14.1,28.14,3.68,6.68,6.84,13.7,10.67,20.25-6.32-3.46-12.36-4.19-19.13-5.38-4.21-.75-16.73-6.49-16.73-6.49l-6.49,16.72a119.59,119.59,0,0,1,15.21,7.45,340.7,340.7,0,0,1,29.26,19.83c6.76,5.32,27.71,37.71,29,43.23,8-2.32,24.47-10.37,31.79-13.46,11.54-4.87,21.3-6.47,31.79-13.45C486.38,303.73,485,266.33,485,266.33Z"/><path id="Caminho_263" data-name="Caminho 263" class="cls-5" d="M168.11,437.75s24.27-5.89,33.45-5.91c5.23,0,23.24,2.72,26.28-.5,1-1,1-10.28.8-12.09-.76-5.57,1.77-5.2-3.92-7.65-10.18-4.38-24.69-9.67-35-12.78,6-7.47,15.6-12.05,23.32-18.06C221.6,374.11,230.41,368.3,239,362c-2.09-7-9-11.66-9-11.66s-13.69,5.45-18.9,9c-10.71,7.33-24.24,12.9-36,18.07,6.59-11.66,19.47-22.19,28-32.63,5-6.13,10.79-13.32,16.71-18.17-4.13-3.25-7.46-8.26-13.77-12.52-6.73,9.3-20.22,16.84-29.23,24.39-6.85,5.74-15.43,12.65-23.12,17.2,3.73-9,16.88-41.94,21-49.36-6.78-4.3-7.62-6-15.24-8.46-3.76,6.77-15.21,21.74-19.16,28-4.36,7-9.34,13.63-13.51,20.67,0-7.78-2.51-13.85-4.94-20.87-1.5-4.36-2.63-19.18-2.63-19.18L100,309.13a127.77,127.77,0,0,1,1,18.24,369.1,369.1,0,0,1-3.38,38c-1.48,9.17-21.06,45.9-25.57,50,6.4,6.35,22.6,17.66,29.35,22.94,10.64,8.33,17.26,16.71,29.34,22.93C133.54,458.64,168.11,437.75,168.11,437.75Z"/><path id="Caminho_264" data-name="Caminho 264" class="cls-4" d="M53.86,193C52,198.6,58.63,208.13,62,213c3.5,5.08,5.42,10,10.6,14,6.13,4.8,13.78,10.48,21.69,11.8s16.27-1.41,24-2.22c7.59-.78,15.08-.56,22.56-.91-7.83-6.84-10.68-17.32-16.59-25.49a88.38,88.38,0,0,0-15.75-17.41,45,45,0,0,0-15.27-8.43c-7.8-2.72-15.79,1.54-23.52,3.21a47.62,47.62,0,0,0-10.36,3.33C57,192,55.35,192.9,53.86,193Z"/><path id="Caminho_265" data-name="Caminho 265" class="cls-4" d="M71.43,284.57c.63-21.89,20.24-30,36.84-37.45-.7,4.3.78,8.85,1,13.07A54.34,54.34,0,0,1,108,274.85c-2.68,11.88-12.42,15.89-23.78,18.66-5.13,1.25-11.09,1.13-16.13,3.21A40.12,40.12,0,0,1,71.43,284.57Z"/><path id="Caminho_267" data-name="Caminho 267" class="cls-6" d="M129.1,200c4.17-.18,8.84-7,11.22-10.42,2.5-3.61,5.26-6.11,6.66-10.59,1.66-5.28,3.51-11.8,2.4-17.39s-5-10.47-7.53-15.44-4.17-9.88-6.29-14.78c-2.57,6.93-8.82,11.47-12.78,17.46a62.85,62.85,0,0,0-7.61,14.86A32,32,0,0,0,113.41,176c.15,5.87,5,10.12,8.06,14.84a34.26,34.26,0,0,0,4.82,6A14.17,14.17,0,0,1,129.1,200Z"/><path id="Caminho_259" data-name="Caminho 259" class="cls-7" d="M361.36,352.2c-4.05,2.39-7.6,6.73-11.23,9.76-4.8,4-8.74,8.87-12.79,13.76-3.52,4.26-7.35,8.48-10.63,12.84s-8,8.58-10.5,13.17c5.69,3,13.52,2.83,19.65,5.34,5.43,2.23,11.29,3.05,16.8,5.07,9.77,3.59,20.53,7.14,30.88,8.57-6.1-23.51-14.07-47.07-20.85-70-.46.26,0,.3.28.63"/><path id="Caminho_266" data-name="Caminho 266" class="cls-4" d="M255.32,481.61c3.95,4,14.95,2.55,20.54,1.82,5.85-.77,10.85-.26,16.58-2.9,6.77-3.11,14.95-7.14,19.54-13.29s5.91-14.46,8.63-21.43c2.65-6.81,6.11-13.09,9.1-19.61-9.25,3.67-19.42,1.52-29,3A84.5,84.5,0,0,0,279,435a43.21,43.21,0,0,0-13.85,9.31c-5.74,5.45-5.6,14.12-7.56,21.44a45.17,45.17,0,0,0-1.7,10.27C255.79,478.53,255.87,480.29,255.32,481.61Z"/><path id="Caminho_268" data-name="Caminho 268" class="cls-4" d="M341,506.72c-18.36-10.12-16.72-30.37-15.76-47.75,3.35,2.48,7.87,3.21,11.55,4.89a51.47,51.47,0,0,1,11.91,7.51c8.94,7.48,8.1,17.53,5.48,28.41-1.18,4.91-3.88,9.93-4.32,15.13A38.13,38.13,0,0,1,341,506.72Z"/><path id="Caminho_269" data-name="Caminho 269" class="cls-2" d="M293.57,519.93c-5.92-20.1,9.5-33.34,22.41-45,.64,4.12,3.33,7.83,4.77,11.61a52.14,52.14,0,0,1,3.17,13.72c1.09,11.6-6.58,18.14-16.09,24-4.3,2.66-9.76,4.32-13.73,7.71A38.51,38.51,0,0,1,293.57,519.93Z"/><path id="Caminho_270" data-name="Caminho 270" class="cls-8" d="M76.52,250.69c-15.5,15.06-35,7.35-51.83,1.18,3.46-2.56,5.54-6.8,8.3-9.92a53.27,53.27,0,0,1,11-9.49c10.07-6.57,19.72-2.71,29.66,3.14,4.49,2.64,8.63,6.82,13.63,8.82A39.7,39.7,0,0,1,76.52,250.69Z"/><path id="Caminho_280" data-name="Caminho 280" class="cls-6" d="M409.17,150.08c-2.44-4-6.82-7.53-9.9-11.12-4.07-4.76-9-8.65-13.9-12.64-4.29-3.47-8.56-7.26-13-10.48s-8.66-7.88-13.28-10.36c-3,5.73-2.68,13.56-5.13,19.72-2.17,5.45-2.92,11.33-4.87,16.85-3.48,9.82-6.91,20.61-8.22,31,23.43-6.37,46.91-14.6,69.75-21.64-.27-.45-.31,0-.63.29"/><g id="Grupo_254" data-name="Grupo 254"><path id="Caminho_281" data-name="Caminho 281" class="cls-4" d="M406.6,94.26c4.82-5,9.21-9.52,13-15.48,1.44-2.3,7.37-14.28.48-9.76-5.64,3.7-10,10.19-12.8,16.35-.82,1.82-2.13,3.72-2.6,5.64-.58,2.34.79,4.31,3.1,2.21"/><path id="Caminho_282" data-name="Caminho 282" class="cls-4" d="M392.26,113.88c-5.12,4.71-9.77,8.91-13.92,14.6-1.6,2.19-8.37,13.71-1.29,9.61,5.81-3.37,10.64-9.55,13.85-15.48.94-1.75,2.38-3.56,3-5.44.76-2.28-.42-4.29-2.84-2.34"/><path id="Caminho_283" data-name="Caminho 283" class="cls-4" d="M444.88,96.2c-6.82,1.41-13,2.6-19.46,5.34-2.49,1-14.24,7.43-6.05,7.57,6.71.11,14-2.69,19.84-6.13,1.71-1,3.87-1.82,5.38-3.11,1.82-1.56,1.85-3.89-1.23-3.46"/><path id="Caminho_284" data-name="Caminho 284" class="cls-4" d="M452.64,116.19c-6.75-1.69-12.81-3.28-19.84-3.62-2.71-.13-16.05.52-8.74,4.19,6,3,13.82,3.66,20.54,3.08,2-.17,4.28,0,6.19-.47,2.32-.61,3.35-2.7.4-3.66"/><path id="Caminho_285" data-name="Caminho 285" class="cls-4" d="M412.13,99.58c6.18-4.24,13.24-6.63,19.15-11.36,1.48-1.19,10.79-8.79,4-7.77-3.12.47-7.38,3.79-10.1,5.57a59.34,59.34,0,0,0-8,6c-1.32,1.22-2.65,2.3-3.91,3.57-.74.73-3.71,4-.64,3.28"/><path id="Caminho_286" data-name="Caminho 286" class="cls-4" d="M370.37,78.31c2.28,2.17,7.71,3.35,10.79,4.74s6.34,2.62,9.53,3.83c2.49,1,9.75,2.68,5.25-1.47-5.06-4.68-12.11-7.15-18.88-8.25a41.4,41.4,0,0,0-4.71-.82c-3.41-.12-1.81,1.3.09,3.09"/><path id="Caminho_287" data-name="Caminho 287" class="cls-4" d="M421.57,125.34c1.71,2.44,6.55,4.37,9.15,6.15s5.41,3.45,8.15,5.09c2.14,1.28,8.56,4,5.17-.69-3.84-5.29-9.93-8.7-16-10.73a37.11,37.11,0,0,0-4.23-1.47c-3.15-.6-1.93,1-.49,3"/><path id="Caminho_288" data-name="Caminho 288" class="cls-4" d="M371.3,102.59c7.27-1.82,14.69-2.69,21.8-5.27A17.81,17.81,0,0,0,397.94,95c1.62-1.34,1.38-1.66-.37-2-6.93-1.37-17.15,2.53-23.75,5.41a17.42,17.42,0,0,0-3.85,2c-1.28,1.21-.71,2.11,1.41,1.71"/></g><path id="Caminho_129" data-name="Caminho 129" class="cls-3" d="M484.65,338.87c.35,5.35,1.5,10.61,1.91,16.12.31,4.27,3,17.8,0,21.27-4.46,5.25-32.11,3.53-39.5,5.49-5.56-11.68-.35-27.21-1-39.4,12.81-2.86,26.58-2.05,39.37-3.53"/><path id="Caminho_135" data-name="Caminho 135" class="cls-4" d="M529,415.47c-5.36.22-10.65,1.23-16.16,1.48-4.28.19-17.88,2.49-21.27-.54-5.13-4.6-2.67-32.19-4.43-39.63,11.82-5.24,27.21.37,39.41,0,2.52,12.88,1.34,26.63,2.48,39.45"/><path id="Caminho_128" data-name="Caminho 128" class="cls-2" d="M38.85,36c0,4.74-.68,9.45-.69,14.35,0,3.81-1.52,15.9,1.27,18.78,4.26,4.36,28.57,1.14,35.21,2.41,4.19-10.66-1.37-24.11-1.52-34.84-11.5-1.75-23.6-.17-35-.69"/><path id="Caminho_130" data-name="Caminho 130" class="cls-5" d="M1.1,71.9c0,4.74-.67,9.45-.69,14.33C.41,90-1.11,102.15,1.68,105c4.27,4.36,28.58,1.12,35.21,2.41,4.19-10.66-1.37-24.11-1.52-34.86-11.5-1.74-23.6-.16-35-.68"/><path id="Caminho_131" data-name="Caminho 131" class="cls-3" d="M110.65,71.9c0,4.74-.67,9.45-.69,14.33,0,3.81-1.52,15.92,1.27,18.8,4.27,4.36,28.58,1.12,35.21,2.41,4.19-10.66-1.37-24.11-1.52-34.86-11.5-1.74-23.6-.16-35-.68"/><path id="Caminho_132" data-name="Caminho 132" class="cls-6" d="M75.67.15c0,4.74-.68,9.46-.69,14.35,0,3.8-1.52,15.91,1.27,18.79,4.26,4.36,28.57,1.13,35.22,2.4,4.18-10.66-1.38-24-1.53-34.85C98.46-.89,86.34.68,75,.16"/><path id="Caminho_133" data-name="Caminho 133" class="cls-8" d="M112.42,35.55c-4.74,0-9.45-.68-14.35-.69-3.8,0-15.89-1.53-18.79,1.27-4.35,4.26-1.13,28.57-2.39,35.22C87.54,75.53,101,70,111.73,69.82c1.74-11.49.16-23.6.68-35"/><g id="Grupo_261" data-name="Grupo 261"><path id="Caminho_327" data-name="Caminho 327" class="cls-4" d="M97.11,495.65c-5.44-5.5-10.27-10.51-16.78-14.85-2.51-1.67-15.62-8.61-10.81-.83,3.94,6.36,11,11.45,17.76,14.7,2,1,4.06,2.48,6.18,3.06,2.58.71,4.81-.75,2.55-3.38"/><path id="Caminho_328" data-name="Caminho 328" class="cls-4" d="M80.43,467.85c-2.16-7.42-4-14.11-7.63-21.06-1.39-2.67-9.49-15.1-8.92-6,.47,7.44,4.23,15.3,8.54,21.42,1.27,1.81,2.36,4.13,3.92,5.67,1.89,1.88,4.48,1.71,3.73-1.67"/><path id="Caminho_329" data-name="Caminho 329" class="cls-4" d="M31.88,471c-6.5-4.19-12.3-8-19.57-10.9-2.8-1.1-17.07-5.18-10.68,1.29,5.23,5.31,13.21,8.78,20.48,10.57,2.15.53,4.49,1.57,6.68,1.72,2.67.18,4.5-1.64,1.73-3.71"/><path id="Caminho_330" data-name="Caminho 330" class="cls-4" d="M81.49,430.35c-.54,6.32-1.09,12-.11,18.29.38,2.41,3.68,14,6.26,6.8,2.12-5.94,1.31-13-.61-18.78-.57-1.71-.79-3.78-1.72-5.36-1.12-1.91-3.59-2.37-4.06.45"/><path id="Caminho_331" data-name="Caminho 331" class="cls-4" d="M29.68,479.37c-5.93,2.88-11.29,5.41-16.7,9.36-2.08,1.52-11.63,9.87-4.2,8C14.86,495.15,21,491,25.69,486.57a38.16,38.16,0,0,0,4.34-4c1.39-1.79,1-3.79-1.69-2.67"/><path id="Caminho_332" data-name="Caminho 332" class="cls-4" d="M100.11,451.35c1-6.87,4.12-13.1,4.48-20.12.1-1.75.55-12.88-3.55-7.72-1.88,2.38-2.23,7.37-2.73,10.33a46.42,46.42,0,0,0-.83,9.19c0,1.67,0,3.26.12,4.92.08,1,.63,5.07,2.27,2.56"/><path id="Caminho_333" data-name="Caminho 333" class="cls-4" d="M24.59,500.71c-.93,3.37.75,9.32,1,13.05s.75,7.58,1.23,11.34c.37,2.93,2.46,10.95,4.18,4.38,1.94-7.41.67-15.61-1.79-22.8a44.45,44.45,0,0,0-1.65-5.05c-1.66-3.41-2.22-1.09-3,1.7"/><path id="Caminho_334" data-name="Caminho 334" class="cls-4" d="M41.24,500.31c2.76-1.83,5-7.14,7.11-10s4-5.9,5.9-8.88c1.48-2.34,4.7-9.39-.61-5.76-6,4.09-10,10.75-12.39,17.45a40,40,0,0,0-1.76,4.65c-.77,3.48,1.06,2.17,3.35.64"/><path id="Caminho_335" data-name="Caminho 335" class="cls-4" d="M60.8,480.33c.13,8.31-.8,16.55.19,24.9a20.3,20.3,0,0,0,1.28,5.8c1,2.09,1.45,1.9,2.26.11,3.23-7.14,1.59-19.19.14-27a19.62,19.62,0,0,0-1.13-4.65c-1-1.7-2.11-1.31-2.21,1.09"/></g></svg>