<?xml version="1.0" encoding="utf-8"?>
<!-- Generator: Adobe Illustrator 24.2.0, SVG Export Plug-In . SVG Version: 6.00 Build 0)  -->
<svg version="1.1" id="Camada_1" xmlns="http://www.w3.org/2000/svg" xmlns:xlink="http://www.w3.org/1999/xlink" x="0px" y="0px"
	 viewBox="0 0 1280 1280" style="enable-background:new 0 0 1280 1280;" xml:space="preserve">
<style type="text/css">
	.st0{fill:#83C8E8;}
	.st1{fill:#B25AA7;}
	.st2{fill:#F1EEE9;}
	.st3{fill:#50A545;}
	.st4{fill:#F49725;}
	.st5{fill:#EFCC3E;}
	.st6{fill:#E94941;}
	.st7{fill:#4B8ED2;}
</style>
<rect x="-12.1" y="-12.1" class="st0" width="1304.2" height="1304.2"/>
<g>
	<g>
		<path class="st1" d="M927.4,826.3c-7.2,8.6-11.7,21.3-17.6,31.1c-7.7,12.9-12.6,27-17.9,41.4c-4.5,12.5-9.8,25.1-13.7,37.5
			c-3.8,12.2-11.1,25.8-13.1,38.1c15.3,2.3,32.9-4.5,48.7-3.8c14,0.6,28-2.2,42-2c25,0.2,52.2-0.3,76.6-5.5
			c-32.7-48.2-69.6-95-103.3-141.4c-0.9,1,0.3,0.6,1.2,1.2"/>
	</g>
	<g>
		<path class="st2" d="M545.8,891.5c-30.5-22.2-61.3-44.7-85.3-73.8c-19.7-23.8-62-79.8-63.5-83.7c-1.2-2.9-1.3-6.2-1.4-9.4
			c-2.3-63.7-0.2-200.4,1.3-204.7c1.6-4.4,4.5-8.1,7.3-11.7c40.6-51.2,152.3-147.5,152.3-147.5s10.6-2.5,15.9-2.9
			c39.4-2.9,79-0.1,118.4,2.6c30.2,2.2,60.3,4.3,90.5,6.5l16.6,9.9c52.5,46,83.5,90.4,127.7,144.5c1.5,1.8,3.1,3.8,4,6
			c1.1,2.7,1,5.7,0.9,8.7c-1.5,53.8-3.1,107.4-4.6,161.2c-0.5,17.3-7.8,39.1-4.7,58l-5.5,7c-55,51-92,88.6-147,139.5
			c0,0-35.5,1.9-51.2-2.4c-15.2-4.2-32.9-4.8-49.7-5C627.7,893.9,545.8,891.5,545.8,891.5z"/>
	</g>
	<g>
		<path class="st3" d="M231,762.4c-3.6,0-7,0.1-10.5-0.8c-2.8-0.6-9.1-2.5-9.4-2.7c-0.2-0.1-0.4-0.4-0.6-0.6
			c-3.7-4.6-11.2-14.9-11.3-15.3c-0.1-0.4-0.1-0.9-0.1-1.3c0.2-6,3.1-19.4,3.1-19.4s0.6-0.8,1-1.1c2.8-2.4,5.8-4.4,8.9-6.4
			c2.4-1.5,4.7-3,7.1-4.5l1.8-0.2c6.5,0.5,11.2,2,17.6,3.7c0.2,0.1,0.4,0.1,0.6,0.2c0.2,0.1,0.4,0.3,0.5,0.6
			c2.9,4.1,5.7,8.2,8.6,12.3c1,1.3,1.6,3.3,2.9,4.5v0.9c-1.3,6.9-1.9,11.7-3.2,18.5c0,0-2.5,2.2-4,2.7c-1.4,0.5-2.7,1.5-4,2.4
			C237.3,758.1,231,762.4,231,762.4z"/>
	</g>
	<g>
		<path class="st4" d="M769.2,194.9c-3,3.2-6,6.5-9.8,8.8c-3,1.9-10.1,6-10.6,6.1c-0.3,0.1-0.8,0.1-1.1,0
			c-7.4-0.6-23.2-2.9-23.7-3.1c-0.4-0.2-0.9-0.6-1.3-1.1c-5.3-5.5-14.9-19.7-14.9-19.7s-0.1-1.3-0.1-1.8c0.2-4.6,1.2-9.2,2-13.7
			c0.6-3.4,1.4-6.9,2-10.3l1.4-1.7c6.1-5.4,11.6-8.3,18.5-12.7c0.2-0.1,0.4-0.3,0.8-0.3c0.3-0.1,0.6,0,1,0c6.1,1,12.4,1.9,18.5,2.9
			c2,0.3,4.4,1.5,6.7,1.4l0.8,0.8c5.1,7.1,8.9,12,14,19.1c0,0-0.3,4.1-1,5.9c-0.8,1.7-1.1,3.8-1.3,5.7
			C770.7,185.4,769.2,194.9,769.2,194.9z"/>
	</g>
	<g>
		<path class="st2" d="M836.6,295.1c-3.4,3.7-7,7.4-11.2,10.1c-3.4,2.3-11.6,6.9-12.2,7c-0.4,0.1-0.9,0.1-1.3,0
			c-8.5-0.8-26.6-3.3-27.2-3.6c-0.5-0.3-1-0.8-1.4-1.2c-6.1-6.3-17-22.6-17-22.6s-0.1-1.4-0.1-2.2c0.2-5.3,1.3-10.5,2.4-15.6
			c0.8-4,1.6-8,2.4-12l1.6-2c7-6.1,13.4-9.6,21.3-14.5c0.3-0.2,0.5-0.3,0.9-0.4c0.4-0.1,0.8,0,1.2,0c7.1,1.1,14.2,2.2,21.3,3.3
			c2.3,0.3,5.1,1.7,7.7,1.6l0.9,0.9c5.8,8.2,10.2,13.7,16.1,21.9c0,0-0.3,4.7-1.2,6.8c-0.8,1.9-1.2,4.3-1.5,6.5
			C838.2,284.3,836.6,295.1,836.6,295.1z"/>
	</g>
	<path class="st3" d="M488.9,102.2c15.2,19,54.5,29.8,77.6,33.3c14.3,2,26.6,4.8,41.4,5.7c14.5,0.8,52.3-1.9,52.3-1.9
		s4.8,10.2,7.8,23.4c1.9,9.1,4.7,18.3,7.2,26.8c-30.5,2-54,14.8-81.9,24.9c22.2,12.8,45.4,23.2,66.6,37.9
		c17.7,12.2,34.1,27.8,51.4,40.6c-6.8,6.7-10.3,17.3-15.1,25.8c-14.5-6.4-40-14.4-54.5-19c-26.8-8.4-51.6-21.8-78.2-29
		c49.5,29,96.6,62.1,136,103c-7.4,9.6-14.2,19.6-21.3,29.8c-29.3-16.4-58.3-32-85.9-50.9c-20.5-13.9-44.8-18-64.8-31
		c5.8,4.8,7,12.5,11.3,18.6c4.6,6.7,11.4,11.7,16.7,17.9c9.7,11.4,17.2,25,26.6,36.9c10.2,13,22.2,24.5,32.5,36.9
		c-6.9,5.9-27.3,22.3-31.8,30.4c-15.5-8.4-102.4-99.8-115.1-106.3c8.9,18.1,30,89.8,30,89.8s-18.1,4.8-36.4,15.1
		c0.3-3.1-55.3-92.1-61.3-109.8c-11-32.1-24-58.6-40.7-88c-7.2-12.6-15-43.5-30-47c12.6-8.5,21.2-29.8,30-42.5
		c9.9-14.3,20.8-27.3,31.1-40.9c11.9-15.5,21.9-30.5,35.6-44.8c7.3-7.7,16.9-22.2,27.2-25.4C460.5,76,476.5,94.7,488.9,102.2z"/>
	<path class="st5" d="M1181.6,687.3c0,0,9.2-50.9,16.8-68.3c4.3-9.9,24.6-41.7,21-50.2c-1.2-2.8-18.6-10.6-22.2-11.6
		c-11.2-3.2-8.4-7.7-17.8,1.1c-16.8,15.6-39,38.7-53.4,55.5c-9.2-17.7-9.8-39.7-14.7-59.3c-5.5-21.8-9.1-43.3-13.9-64.9
		c-15-1.9-29.6,7.3-29.6,7.3s-1.1,30.5,1.3,43.3c5,26.4,4.2,56.7,4.1,83.3c-16.6-22.2-25.8-55.4-38.4-80.3
		c-7.4-14.5-16.2-31.6-20.5-46.9c-9.6,5.1-21.9,7.2-35.2,15.6c12,20.5,15,52.4,21.8,75.8c5.2,17.8,11,39.8,13.3,58.2
		c-14-14.7-65.3-67-75.9-81.1c-13.8,9.3-17.7,9.4-28.8,21.8c9.7,12.8,28.4,47,37.1,59.7c9.6,14.1,18,29.1,27.8,42.9
		c-14.8-6.5-28.3-6.8-43.6-8.1c-9.5-0.8-38.6-11.1-38.6-11.1L881,708.5c0,0,17.3,5,35.3,13.5c22.6,10.7,56,29.6,69.1,38.1
		c16.2,10.5,69.3,78.2,73.4,90.3c17.3-6.8,52.4-28,68-36.4c24.7-13.1,46.1-18.8,68-36.4C1192.2,770.2,1181.6,687.3,1181.6,687.3z"/>
	<path class="st4" d="M422,1081.3c0,0,61.1-14.9,84.3-14.9c13.1,0,58.5,6.9,66.2-1.3c2.5-2.7,2.6-25.9,2-30.5
		c-1.9-14,4.4-13-9.9-19.3c-25.6-11-62.2-24.4-88.1-32.2c15.2-18.9,39.2-30.4,58.7-45.5c21.6-16.7,43.8-31.4,65.3-47.4
		c-5.3-17.7-22.7-29.3-22.7-29.3s-34.5,13.7-47.6,22.7c-26.9,18.4-61,32.4-90.6,45.5c16.6-29.4,49-55.9,70.5-82.2
		c12.6-15.4,27.2-33.5,42.1-45.8c-10.3-8.2-18.8-20.8-34.7-31.6C500.4,793,466.5,812,443.7,831c-17.2,14.4-38.9,31.9-58.2,43.3
		c9.4-22.7,42.5-105.6,53-124.4c-17-10.8-19.2-15.1-38.4-21.3c-9.5,17-38.3,54.7-48.3,70.6c-11,17.6-23.5,34.3-34.1,52
		c-0.1-19.6-6.4-34.9-12.4-52.6c-3.8-11-6.7-48.3-6.7-48.3l-48.3,6.7c0,0,3,21.8,2.4,45.9c-0.8,30.4-5.5,76.9-8.5,95.7
		c-3.8,23.1-53,115.6-64.4,126c16.2,16.1,56.9,44.5,73.9,57.8c26.8,21,43.4,42.1,73.9,57.8C334.9,1133.9,422,1081.3,422,1081.3z"/>
	<path class="st0" d="M125.9,485.2c4.1,15.5,33.5,27.5,48.5,33.6c15.6,6.4,27.4,14.8,45.3,16.3c21.2,1.8,47.3,3.4,67.3-5.4
		c19.8-8.6,35.1-27.6,51.8-41.1c16.3-13.1,33.7-23.8,50.3-35.9c-28.2-4-50.4-23.7-76.2-33.6c-21.1-8.1-38.9-13.6-62.2-16.4
		c-17-2-30.7-0.6-47.6,3.6c-22,5.4-33.9,27.2-49.1,42.6c-7.7,7.8-13.1,14.2-18.8,23.2C131.4,478.2,129.1,482.7,125.9,485.2z"/>
	<path class="st2" d="M272.1,654c-10.5-59.1,37.7-91.7,78.1-120.8c0.5,12,7,23.3,9.8,34.5c3.3,13.1,4.8,26.3,4.6,40
		c-0.6,33.3-24.6,49.5-53.4,63.1c-13,6.1-29.1,9.2-41.5,17.6C268.4,674.2,270.3,659.4,272.1,654z"/>
	<path class="st2" d="M613.1,1087.3c10.1,11.6,40.5,9.5,55.9,8.4c16.2-1.1,29.7,1.1,45.9-5.2c19.1-7.3,42.1-17,55.7-33.1
		c13.4-15.8,18.6-38.6,27.2-57.2c8.4-18.2,19-34.8,28.2-52.2c-26,8.5-53.3,0.9-79.7,3.2c-21.7,1.9-39.2,4.7-60.3,12.2
		c-15.5,5.5-26.7,12.5-39.4,23.2c-16.6,13.9-17.7,37.7-24.2,57.3c-3.3,9.8-5.3,17.8-6.4,27.8
		C614.9,1078.9,614.9,1083.7,613.1,1087.3z"/>
	<path class="st6" d="M308.8,388.7c9.3-6.7,9.8-29.2,10.1-40.7c0.3-12,2.9-21.9-0.5-34.3c-4.1-14.5-9.6-32.3-20.6-43.4
		c-10.8-11-27.3-16.5-40.3-24.1c-12.8-7.4-24.4-16.4-36.5-24.5c4.4,19.7-3.1,39.5-3.1,59.2c-0.1,16.1,0.8,29.3,4.7,45.5
		c2.9,11.9,7.3,20.6,14.3,30.8c9.2,13.3,26.6,15.7,40.7,22c7,3.1,12.8,5.2,20.2,6.7C302.8,386.7,306.4,387.2,308.8,388.7z"/>
	<path class="st3" d="M876.9,1142.1c-52.2-24.1-51.5-79.8-52.2-127.6c9.7,6.1,22.2,7.3,32.5,11.2c12.2,4.5,23.4,10.6,34.1,18.3
		c25.9,18.8,25.4,46.4,20.4,76.6c-2.3,13.7-8.7,27.9-8.9,42.2C890.8,1156,880.2,1146.3,876.9,1142.1z"/>
	<path class="st7" d="M727.9,1197.2c-16.9-57.5,27.2-95.4,64.1-128.8c1.8,11.7,9.5,22.4,13.7,33.2c4.8,12.6,7.8,25.5,9.1,39.2
		c3.1,33.2-18.9,51.9-46,68.8c-12.3,7.7-27.9,12.4-39.2,22.1C726.5,1217.7,726.8,1202.7,727.9,1197.2z"/>
	<path class="st5" d="M252.3,588.2c-12.9,57.8-69.2,69.2-117,80.3c4.1-11.1,2.5-23.9,4.2-35.1c1.9-13.3,5.5-25.9,11-38.3
		c13.3-30.2,41.2-35.7,72.7-37.2c14.2-0.6,30,2.7,44.4-0.2C263.3,571.2,255.9,584,252.3,588.2z"/>
	<g>
		<g>
			<path class="st2" d="M161.2,940.1c6.3-14.9,12-28.1,15.1-44.1c1.2-6.1,4.1-36.9-7-21.4c-9.1,12.6-13.3,30.3-14.1,45.9
				c-0.2,4.6-1.5,9.8-1,14.3c0.6,5.5,5.3,8.6,8.5,2.2"/>
		</g>
		<g>
			<path class="st2" d="M201.3,885.9c12.5-10,23.9-19,34.4-31.5c4-4.8,21.4-30.3,4.4-22c-13.9,6.9-26,20.4-34.4,33.5
				c-2.5,3.9-6,7.9-7.8,12.1c-2.2,5.2,0.3,9.9,6.1,5.8"/>
		</g>
		<g>
			<path class="st2" d="M156.4,795c2.9-15.8,5.6-30.1,5.3-46.3c-0.1-6.3-3.7-37-11-19.5c-6,14.3-6.4,32.4-4,47.8
				c0.6,4.5,0.5,9.9,2,14.2c1.8,5.3,6.8,7.3,8.5,0.3"/>
		</g>
		<g>
			<path class="st2" d="M274.1,858c-12.6,4-23.9,7.5-35.2,14.4c-4.3,2.7-24,18.3-8.1,17.5c13.1-0.6,26-7.9,35.6-16.2
				c2.8-2.5,6.7-4.5,8.9-7.5c2.8-3.7,1.7-8.8-4.1-7.4"/>
		</g>
		<g>
			<path class="st2" d="M138.7,797.5c-10.2-9.1-19.4-17.3-31.4-24.6c-4.5-2.8-28.2-14.4-18.6-1.7c7.9,10.5,20.8,19,33,24.4
				c3.6,1.6,7.4,4.1,11.1,5.2c4.5,1.2,8.1-1.1,3.8-5.4"/>
		</g>
		<g>
			<path class="st2" d="M248.7,910.4c14-3.7,28.4-2.6,42.2-7.4c3.4-1.2,25.2-9.3,12-13c-6-1.7-15.9,1.6-22,3
				c-6.5,1.5-12.4,3.1-18.3,5.7c-3.1,1.4-6.3,2.6-9.4,4.2c-1.8,1-9.3,5.3-3.1,6.4"/>
		</g>
		<g>
			<path class="st2" d="M93.6,804.8c-7.2,0.9-17.3,8.8-24.2,12.3c-7.1,3.6-14,7.5-20.8,11.4c-5.4,3-19.1,13.5-5.1,11.5
				c15.8-2.2,30.5-11.2,42.3-21.7c2.6-2.3,6.1-4.6,8.4-7.2c5.2-5.9,0.3-5.2-5.7-4.3"/>
		</g>
		<g>
			<path class="st2" d="M107.6,836.4c5.7,3.9,17.8,4,24.8,5.7c7.2,1.7,14.5,3,21.8,4.2c5.7,1,21.8,1.5,10.6-5.7
				c-12.6-8.2-28.7-10.6-43.4-9.9c-3.2,0.1-7.1-0.2-10.3,0.3c-7.3,1.3-3.3,3.8,1.4,6.9"/>
		</g>
		<g>
			<path class="st2" d="M161.6,858.1c-15.8,6.9-32.4,11.6-47.6,20.3c-3.2,1.8-7.8,4.3-10.1,7.1c-3.2,3.7-2.5,4.3,1.6,4.4
				c16.3,0.5,38.1-12.3,52-21.3c2.2-1.4,6.6-4,8.1-5.9c2.5-3.2,0.9-5.1-3.9-3.3"/>
		</g>
	</g>
	<g>
		<path class="st6" d="M997.6,411.2c-5.8-9.7-16.4-18-23.7-26.6c-9.8-11.4-21.4-20.7-33.3-30.3c-10.3-8.3-20.6-17.5-31-25.1
			c-10.2-7.5-20.8-18.9-31.9-24.8c-7.1,13.7-6.5,32.5-12.3,47.3c-5.2,13-7,27.2-11.7,40.4c-8.3,23.5-16.6,49.5-19.7,74.2
			c56.3-15.3,112.5-35,167.2-51.8c-0.6-1.1-0.8,0.1-1.5,0.6"/>
	</g>
	<g>
		<g>
			<path class="st2" d="M991.5,277.3c11.5-12.1,22.1-22.8,31-37.1c3.4-5.5,17.7-34.3,1.2-23.4c-13.6,8.8-24.1,24.5-30.7,39.2
				c-1.9,4.3-5.1,8.9-6.2,13.6c-1.4,5.6,1.9,10.3,7.4,5.3"/>
		</g>
		<g>
			<path class="st2" d="M957.1,324.4c-12.3,11.3-23.4,21.3-33.4,35c-3.9,5.3-20,32.9-3.1,23.1c13.9-8.1,25.5-22.8,33.2-37.1
				c2.3-4.2,5.7-8.5,7.2-13c1.8-5.5-1-10.3-6.8-5.6"/>
		</g>
		<g>
			<path class="st2" d="M1083.3,282.1c-16.4,3.3-31.1,6.3-46.7,12.8c-6,2.5-34.2,17.8-14.5,18.1c16.1,0.3,33.6-6.5,47.6-14.7
				c4.1-2.5,9.3-4.4,12.9-7.4c4.4-3.8,4.4-9.4-2.9-8.3"/>
		</g>
		<g>
			<path class="st2" d="M1101.9,329.9c-16.2-4.1-30.7-7.9-47.6-8.7c-6.5-0.3-38.5,1.3-20.9,10c14.4,7.2,33.1,8.7,49.2,7.4
				c4.7-0.4,10.2,0.1,14.9-1.1c5.6-1.5,8.1-6.5,1-8.7"/>
		</g>
		<g>
			<path class="st2" d="M1004.7,290.2c14.8-10.1,31.8-15.9,45.9-27.3c3.6-2.8,25.9-21.1,9.6-18.6c-7.5,1.1-17.7,9.1-24.2,13.4
				c-6.9,4.5-13.3,8.9-19.1,14.3c-3.1,2.9-6.4,5.5-9.4,8.5c-1.7,1.7-8.8,9.6-1.5,7.9"/>
		</g>
		<g>
			<path class="st2" d="M904.6,239.1c5.5,5.2,18.5,8.1,25.9,11.3c7.5,3.3,15.2,6.3,22.8,9.2c5.9,2.3,23.4,6.5,12.6-3.6
				c-12.2-11.2-29.1-17.1-45.3-19.8c-3.6-0.5-7.8-1.8-11.3-1.9c-8.2-0.3-4.3,3.1,0.2,7.4"/>
		</g>
		<g>
			<path class="st2" d="M1027.4,351.9c4.1,5.8,15.7,10.5,22,14.8c6.4,4.4,12.9,8.3,19.5,12.2c5.2,3,20.6,9.6,12.4-1.6
				c-9.2-12.7-23.8-20.9-38.4-25.8c-3.1-1.1-6.9-2.9-10.1-3.6c-7.5-1.4-4.6,2.5-1.2,7.2"/>
		</g>
		<g>
			<path class="st2" d="M906.9,297.4c17.5-4.4,35.2-6.5,52.3-12.6c3.7-1.3,8.6-3.1,11.5-5.5c3.9-3.2,3.3-4-0.9-4.8
				c-16.6-3.3-41.2,6-56.9,13c-2.5,1.1-7.4,2.9-9.3,4.6c-3.1,2.9-1.7,5.1,3.3,4.1"/>
		</g>
	</g>
</g>
</svg>
