<?xml version="1.0" encoding="utf-8"?>
<!-- Generator: Adobe Illustrator 24.2.0, SVG Export Plug-In . SVG Version: 6.00 Build 0)  -->
<svg version="1.1" id="Camada_1" xmlns="http://www.w3.org/2000/svg" xmlns:xlink="http://www.w3.org/1999/xlink" x="0px" y="0px"
	 viewBox="0 0 1280 1280" style="enable-background:new 0 0 1280 1280;" xml:space="preserve">
<style type="text/css">
	.st0{fill:#EFCC3E;}
	.st1{fill:#83C8E8;}
	.st2{fill:#4B8ED2;}
	.st3{fill:#F1EEE9;}
	.st4{fill:#50A545;}
	.st5{fill:#E94941;}
	.st6{fill:#F49725;}
	.st7{fill:#B25AA7;}
</style>
<rect x="-21.7" y="-21.7" class="st0" width="1323.4" height="1323.4"/>
<g id="Grupo_256">
	<path id="Caminho_289" class="st1" d="M373.9,226.8c5.5,9.2,15.3,17.1,22.2,25.3c9.5,10.5,20,20.2,31.2,28.8
		c9.7,7.9,19.2,16.6,29.1,23.9c9.6,7.2,19.5,18,29.9,23.7c6.8-12.9,6.3-30.6,11.9-44.5c5-12.3,6.8-25.6,11.3-38
		c8-22.1,16-46.5,19.1-69.9c-53.1,14-106.4,32.2-158.2,47.7c0.6,1,0.7-0.1,1.4-0.6"/>
	<path id="Caminho_290" class="st2" d="M1029,354.5c-22.4,14.1-35.6,27.9-57,44.9c-17.1,13.5-44.9,27-61.4,47.3
		c45.1,16.9,92.5,39.8,139.8,46.8c0.6-22.2-9.5-51.8-12.5-75.7c-2.7-21.9-4.1-47.9-8.1-65.1"/>
	<path id="Caminho_291" class="st2" d="M811.2,706.9c-9.8,0.3-16.5,2.3-26.5,3.7c-8,1.2-19.3,0.3-28.3,3.7
		c11.2,13.7,22.1,29.8,35.8,40.8c4.3-7,6.6-18.2,10.1-26.5c3.2-7.5,7.6-16,9.5-22.2"/>
	<path id="Caminho_292" class="st3" d="M311,344.9c-16.9,21.5-24.4,39-39.1,62.8c-11.7,18.9-34.2,41.8-42.5,66.6
		c52.8-1.9,110.4,0.8,161.3-11c-8.7-20.5-31.3-43.5-44.3-64.3c-11.9-18.9-24.1-42.1-35.3-56.2"/>
	<path id="Caminho_293" class="st4" d="M905.7,377c-5.3-3.5-10.2-7.7-14.4-12.5c-3.3-4-10.5-13.5-10.7-14.1
		c-0.2-0.5-0.3-1.1-0.2-1.6c-0.4-10.8,0-33.9,0.2-34.6c0.3-0.7,0.7-1.4,1.2-2c6.9-8.6,25.7-24.9,25.7-24.9c0.9-0.2,1.8-0.4,2.7-0.5
		c6.7-0.3,13.4-0.2,20,0.5l15.3,1.1l2.8,1.7c8.9,7.8,14.1,15.3,21.6,24.4c0.3,0.3,0.5,0.6,0.7,1c0.1,0.5,0.2,1,0.2,1.5l-0.8,27.2
		c-0.6,3.2-0.8,6.5-0.8,9.8l-0.9,1.2c-9.3,8.6-15.5,15-24.8,23.6c-2.9,0.2-5.8,0-8.7-0.4c-2.7-0.6-5.6-0.9-8.4-0.8
		C919.6,377.4,905.7,377,905.7,377z"/>
	<path id="Caminho_294" class="st2" d="M430.5,829.6c-3.2-3.3-5.9-7.1-8.2-11.1c-1.7-3.4-5.2-11.2-5.3-11.7c0-0.4,0-0.8,0.1-1.2
		c1.5-7.7,5.4-23.9,5.7-24.4c0.3-0.5,0.7-0.9,1.2-1.2c7.1-4.9,14.5-9.4,22.1-13.4c0.7,0,1.3,0,2,0.1c4.7,0.8,9.4,2,14,3.5l10.6,3.2
		l1.7,1.6c4.4,6.5,8.2,13.5,11.3,20.7c0.1,0.3,0.3,0.5,0.3,0.8c0,0.4,0,0.7-0.1,1.1l-4.9,19.1c-0.9,2.2-1.6,4.5-2.1,6.8l-0.9,0.7
		c-7.9,4.6-13.4,8.1-21.3,12.7c-2.1-0.3-4.1-0.9-6-1.7c-1.8-0.9-3.8-1.5-5.8-1.9C440.2,832.1,430.5,829.6,430.5,829.6z"/>
	<path id="Caminho_295" class="st0" d="M301.6,313.1c-3.8-4-7.1-8.5-9.8-13.3c-2-4-6.3-13.4-6.4-14c0-0.5,0-0.9,0.1-1.4
		c1.7-9.2,6.5-28.6,6.8-29.2c0.4-0.6,0.9-1,1.4-1.4c8.5-5.9,17.4-11.3,26.5-16.1c0.8,0,1.6,0,2.4,0.1c5.7,1,11.3,2.4,16.8,4.2
		l12.7,3.9l2,2c5.3,7.8,9.8,16.1,13.6,24.8c0.2,0.3,0.3,0.6,0.4,1c0,0.4,0,0.9-0.1,1.3l-5.9,22.9c-1.1,2.6-2,5.4-2.5,8.1l-1,0.8
		c-9.5,5.5-16,9.7-25.5,15.2c-2.5-0.4-4.9-1.1-7.2-2c-2.2-1.1-4.5-1.8-6.9-2.3C313.2,316.1,301.6,313.1,301.6,313.1z"/>
	<path id="Caminho_296" class="st4" d="M730.4,510.3c-2.2-15-28.4-29.5-41.7-36.8c-13.9-7.7-24-16.8-40.7-20.3
		c-19.7-4.1-43.9-8.4-63.7-2.4c-19.5,6-36,22-53.1,32.8c-16.7,10.5-34.2,18.6-51.2,28c26,6.8,44.6,27.8,67.7,39.9
		c17.8,9.9,36.7,17.3,56.5,22.2c14.7,3.6,30,4.2,45,1.9C670.4,573,684,554,700,541.2c7.4-5.7,14.2-12.3,20.1-19.6
		C724.5,516.3,727.1,512.3,730.4,510.3z"/>
	<path id="Caminho_297" class="st4" d="M584.5,318.7c23.7,51.4-12.3,92.8-42.2,129c-3.3-10.8-12-19.6-17.3-29.1
		c-6.2-11.1-10.9-23-13.9-35.4c-7.4-30.6,10.5-51,33.6-70.5c10.4-8.8,24.3-15.4,33.6-26C582.1,297,584.2,307.8,584.5,318.7z"/>
	<path id="Caminho_298" class="st3" d="M705.9,343.5c-11.3,55.4-64.8,67.5-110.3,79.1c3.7-10.6,1.9-22.9,3.3-33.7
		c1.6-12.6,4.8-25,9.8-36.7c12.1-29.1,38.6-35,68.8-37c13.6-0.9,28.7,2,42.5-1.1C716.8,324.5,712.1,334.4,705.9,343.5z"/>
	<path id="Caminho_299" class="st4" d="M269.2,537.5c-0.1,15.2,23.6,33.4,35.7,42.7c12.6,9.7,21.1,20.2,37.1,26.2
		c18.8,7,42.1,15,62.6,12c20.2-2.9,38.9-16.3,57.4-24.4c18.1-7.9,36.7-13.2,54.8-20c-24.7-10.7-39.9-34.2-60.9-49.7
		c-16.1-12.4-33.7-22.7-52.5-30.5c-14-5.7-29-8.7-44.2-8.7c-21.3-0.6-37.7,16.2-55.4,26.4c-8.2,4.6-15.9,10-22.9,16.3
		C276,532.5,272.7,536,269.2,537.5z"/>
	<path id="Caminho_300" class="st4" d="M715,99.9c-14.4-4.9-39.1,11.9-51.8,20.5c-13.2,8.9-25.8,13.8-36.5,27.1
		c-12.6,15.7-27.4,35.3-31,55.7c-3.5,20.1,3.3,42.1,5.1,62.1c1.8,19.6,1.1,39,1.8,58.3c17.8-20,45-27.2,66.3-42.2
		c16.8-11.4,32.1-24.9,45.3-40.3c9.9-11.5,17.4-24.9,22.2-39.2c7.2-20.1-3.6-40.8-7.7-60.9c-1.7-9.2-4.5-18.2-8.3-26.8
		C717.6,107.9,715.3,103.7,715,99.9z"/>
	<path id="Caminho_301" class="st4" d="M980.9,557.4c2.7-14.9-17.6-36.9-28-48.1c-10.8-11.7-17.5-23.5-32.2-32.1
		c-17.4-10.1-39-21.9-59.7-22.4c-20.4-0.5-41.1,9.5-60.7,14.3c-19.1,4.8-38.4,6.9-57.4,10.5c22.5,14.7,33.6,40.5,51.6,59.2
		c13.7,15,29.4,28,46.6,38.9c12.9,8,27.2,13.5,42.1,16.1c20.9,4.2,39.8-9.6,59-16.7c8.9-3.1,17.4-7.2,25.3-12.2
		C973.4,561.2,977.2,558.2,980.9,557.4z"/>
	<path id="Caminho_302" class="st4" d="M384.4,748.9c-15.7-54.3,26.2-89.8,61.2-121.1c1.6,11.1,8.9,21.2,12.7,31.4
		c4.5,11.9,7.3,24.4,8.4,37.1c2.7,31.3-18.1,48.9-43.8,64.6c-11.6,7.1-26.4,11.5-37.2,20.6C383.5,770.8,383.1,759.8,384.4,748.9z"/>
	<path id="Caminho_303" class="st4" d="M877.7,270.8c-25.9,59.5-88.9,60.3-142.8,62.4c6.7-11.1,7.7-25.2,11.8-37
		c4.8-13.8,11.4-26.9,19.7-38.9c20.5-29.7,51.7-30,86-25.1c15.5,2.2,31.8,9.1,47.9,9C894.4,252.1,886.8,262.1,877.7,270.8z"/>
	<path id="Caminho_304" class="st5" d="M487.1,485.1c9.5-7.8,8.5-32.1,8-44.4c-0.5-12.9,1.6-23.7-3-36.7
		c-5.4-15.4-12.6-34-25.1-45.2c-12.3-11-30.4-15.8-45-23.1c-14.3-7.1-27.3-15.9-41-23.7c6.2,20.9-0.5,42.6,0.7,63.7
		c0.6,16.5,3.4,32.8,8.3,48.5c3.7,11.7,9.7,22.6,17.6,32.1c10.8,13.6,29.7,15,45.2,20.7c7.1,2.8,14.5,4.7,22.1,5.8
		C479.1,482.9,483.2,483.7,487.1,485.1z"/>
	<path id="Caminho_305" class="st2" d="M358.4,662.9c-26.3,49.2-80.3,45.6-126.6,43.7c6.5-9,8.3-21.1,12.6-31
		c5-11.5,11.6-22.3,19.6-32c19.6-24.1,46.4-22.2,75.5-15.6c13.1,3,26.6,10,40.5,11C374,648.1,366.7,656.1,358.4,662.9z"/>
	<path id="Caminho_306" class="st6" d="M769.3,695.5c-65.9,0-131.5-0.3-196.6,4.3c-17.8,1.2-40.5,6.3-57.7,4.3
		c-13.1-1.5-11.2,2.7-16.9-10.7c-3.5-8.3-1.2-18.6-1.6-27.5c-1-19.5-3-38.6-1.8-58.8c57-1.2,112.9-8.8,170.4-8.8
		c22.2,0,43.7-2.7,65.1-3.8c15.5-0.7,34,2.4,48.1,0.3c-1.3,33.7,6.2,68,4.4,101.8C775.7,695.1,771.8,697.3,769.3,695.5z"/>
	<path id="Caminho_307" class="st5" d="M498.9,696.6c0,50.2-0.2,99.9,2.4,149.5c19.3,1,92.3,9.2,101-5.9
		c7.4-12.7-9.5-69.3-10.6-86.6c-1.1-17.9-2.4-35.7-2-54.1C568.9,696.7,517.9,694.1,498.9,696.6z"/>
	<path id="Caminho_308" class="st1" d="M503.1,840.5c72.7,0,141-7.6,210.7-16.6c1.2,30,10.8,64.4,6.3,94.3
		c-70.6,3.8-143.9,8-214.6,4.2C504.3,893.5,505.1,862.8,503.1,840.5z"/>
	<path id="Caminho_309" class="st7" d="M504.7,1080.9c0-54.2,5.4-107.2,4.1-161.7c19.9,11.1,66.1,0.7,90.5,3.8
		c13.8,47.7,8.9,114.1,6.4,164C589.8,1080.2,516.4,1094,504.7,1080.9z"/>
	<path id="Caminho_310" class="st3" d="M787.3,1173.3c-57.3,13.2-131.8,3.6-191.6,4.2c-29.6,0.3-58.8,3.2-88.7,1.8
		c0-31.9,0.5-66.2,2.1-98.6c45.5-2.3,91.3,0,137-2.4c38-2,75.4-3.2,112.8,1.9c33.3,4.6,36.6-1.7,34.8,34.1c-1,20.2,0,47.1,0,63.4
		C793.7,1174.2,793.7,1170.6,787.3,1173.3z"/>
	<path id="Caminho_311" class="st4" d="M842.3,355.1c1.1,25.6-24.7,68.9-43.3,82.4c-29.8,21.7-72.6,13.2-106.3,21.7
		c-5.3-21.5-3.8-52.2,7-71.8c15.7-28.4,69.5-46.5,100.2-45.1c15.6,1.3,30.8,5.7,44.7,13C846,354.2,844.2,354.7,842.3,355.1z"/>
	<path id="Caminho_312" class="st7" d="M705.7,574.1c-2-25.2,33.7-44.2,53.3-52.9c1.7,9.4,6.9,16.2,6.3,26.5
		c-0.8,9.3-5.4,17.9-12.6,23.9c-12.4,11.2-30.5,9-46.7,10.6C707.3,578.8,706,579.1,705.7,574.1z"/>
	<path id="Caminho_313" class="st4" d="M687,706.8c35.1-11.7,74.7,32.3,94,57.1c-12.7,5.7-20.6,15.5-35.4,18.3
		c-13.9,2.6-26.9-1.7-38.4-9.5c-20.2-13.6-23.5-40.2-31.5-62.6C680.9,710.7,680.1,709,687,706.8z"/>
	<path id="Caminho_314" class="st6" d="M905.9,406.6c-7,24.3-47.1,29.5-68.5,30.7c1.8-9.4-0.7-17.6,3.5-27
		c4.1-8.4,11.3-14.9,20.2-17.9c15.5-6.1,31.7,2.4,47.4,6.5C906,401.6,907.4,401.8,905.9,406.6z"/>
	<path id="Caminho_315" class="st4" d="M745.5,276c-5.6,20.7-39.6,25.7-57.8,27c1.4-8-0.9-15,2.6-23c3.3-7.2,9.4-12.8,16.9-15.5
		c13.1-5.4,27,1.5,40.4,4.9C745.5,271.8,746.6,271.9,745.5,276z"/>
	<path id="Caminho_316" class="st6" d="M573.3,221.6c11.2,22.7-15,53.5-30,68.9c-5-8.1-12.4-12.5-15.6-22.3
		c-2.7-9-1.7-18.6,2.9-26.8c7.4-15,25-19.6,39.4-27.1C570,217.9,571.1,217.1,573.3,221.6z"/>
	<path id="Caminho_317" class="st4" d="M929.8,730c10.7-17.1,2.4-46-4.9-62.9c-8.1-18.5-24.5-34.2-39.8-47
		c-21.9-18.3-54-27.9-82.1-23.2c-13.5,53.4,6.5,131.1,69.8,144.1c18.3,3.8,37.8,0.5,55.8-0.5C929.2,737,929.6,733.5,929.8,730z"/>
	<path id="Caminho_318" class="st0" d="M987,639c-2.6-6.4-4.3-13.2-7-19.8c-2.1-5.1-6.7-22.3-12.1-24.7c-8.2-3.5-39.3,14.2-49,16.1
		c0.2,16.7,15.1,31.8,21.2,46.3c16.5-4,32-12.8,47.7-18.3"/>
	<path id="Caminho_319" class="st3" d="M661.3,759.3c-0.3-6.9,0.4-13.8,0.1-21c-0.2-5.5,1.2-23.3-3.1-27.3
		c-6.5-6.1-41.7,0.1-51.5-1.3c-5.4,15.8,3.5,35,4.4,50.7c16.9,1.8,34.5-1.2,51.1-1.2"/>
	<path id="Caminho_320" class="st7" d="M815.1,207.6c-1.8-6.7-2.6-13.6-4.3-20.5c-1.4-5.4-3.7-23-8.8-26.1c-7.7-4.6-40.8,9-50.6,9.7
		c-2,16.6,10.9,33.4,15.1,48.7c16.9-1.8,33.4-8.5,49.7-12"/>
</g>
</svg>
