<?xml version="1.0" encoding="utf-8"?>
<!-- Generator: Adobe Illustrator 24.1.2, SVG Export Plug-In . SVG Version: 6.00 Build 0)  -->
<svg version="1.1" id="Camada_1" xmlns="http://www.w3.org/2000/svg" xmlns:xlink="http://www.w3.org/1999/xlink" x="0px" y="0px"
	 viewBox="0 0 1397.5 498.8" style="enable-background:new 0 0 1397.5 498.8;" xml:space="preserve">
<style type="text/css">
	.st0{fill:#83C8E8;}
</style>
<path id="Caminho_213" class="st0" d="M1397.5,496.5V0H0c0,0,0,485,0,496.6c22.8-1,31.9,0.6,41,0.2c9.1-0.4,28.7,0,43,0
	c33.2,0,66.8,1.3,100,0c77.2-3.1,157.8-0.1,235.3,0c100.2,0.1,195.8-7.6,295.5-7.7c109.8-0.1,219,9.2,328.8,9.2
	c45.8,0,104.7,0.6,149.8-1.8c48.2-2.6,87.9,1.3,112.7,0C1330.9,495.2,1397.5,496.5,1397.5,496.5z"/>
</svg>
