<svg id="Camada_1" data-name="Camada 1" xmlns="http://www.w3.org/2000/svg" viewBox="0 0 1280 1280"><defs><style>.cls-1{fill:#83c8e8;}.cls-2{fill:#efcc3e;}.cls-3{fill:#b25aa7;}.cls-4{fill:#50a545;}.cls-5{fill:#f49725;}.cls-6{fill:#e94941;}.cls-7{fill:#4b8ed2;}</style></defs><path class="cls-1" d="M876.92,749.6c-7,5.84-12.44,15.25-18.43,22.19-7.94,9.2-14,19.69-20.18,30.31C832.9,811.34,826.89,820.62,822,830c-4.78,9.14-12.59,18.91-16,28.47,11.83,4,26.76,1.19,39.27,4.09,11.08,2.57,22.56,2.31,33.71,4.45,19.82,3.81,41.51,7.24,61.76,6.75-19-43.07-41.63-85.66-61.75-127.4-.79.66.15.58.73,1.13"/><path class="cls-2" d="M569.49,797.9c-24.65-18-49.58-36.17-69-59.67-15.94-19.27-50.1-64.57-51.32-67.7A23,23,0,0,1,448,663c-1.87-51.48-.19-162,1.07-165.49s3.63-6.57,6-9.51c32.84-41.34,123.07-119.21,123.07-119.21A116,116,0,0,1,591,366.38c31.85-2.39,63.83-.13,95.69,2.13l73.18,5.2,13.43,8c42.38,37.23,67.53,73.1,103.24,116.77a13.57,13.57,0,0,1,3.9,11.89l-3.72,130.27c-.4,14-6.31,31.62-3.8,46.88l-4.44,5.64C824.06,734.35,794.1,764.78,749.67,806c0,0-28.66,1.56-41.4-1.93-12.3-3.36-26.54-3.89-40.12-4C635.75,799.85,569.49,797.9,569.49,797.9Z"/><path class="cls-3" d="M490.67,253.65c17.47,8.94,50.09,3.91,68.22-1.29,11.26-3.24,21.27-5.26,32.36-9.55S629.08,224,629.08,224a97.79,97.79,0,0,1,13.47,14.67c4.49,6.05,9.6,11.88,14.26,17.32-21.78,11.64-34.86,28.78-52,45.57,20.61,2.08,41.12,2,61.65,5.78,17.1,3.12,34.36,9.15,51.38,12.82-2.75,7.21-1.84,16.18-2.59,24-12.88.16-34.25,2.67-46.46,4.16-22.51,2.75-45.3,1.1-67.25,4.65,46.11,4.88,91.81,13.64,134.4,30.69-2.3,9.55-4,19.16-5.79,29.06-27-2.33-53.56-4.23-80.22-8.93-19.68-3.47-39,1.63-58-1.31,5.87,1.64,9.32,6.91,14.54,10,5.65,3.34,12.3,4.84,18.25,7.66,11,5.21,21,12.71,31.84,18.33,11.9,6.16,24.52,10.61,36.21,16.37-3.14,6.69-12.68,25.46-13.32,33-14.25-1-108.62-39.44-120.1-40.06,12.64,10.36,51.91,56.2,51.91,56.2a146.84,146.84,0,0,0-21.85,23.2c-.8-2.41-71.34-49.48-81.64-60.49-18.75-20-37.16-35.23-59.3-51.32-9.46-6.88-25.51-27.07-37.67-24.65,6.46-10.45,5.75-29.05,8-41.23,2.51-13.82,6.23-27,9.35-40.5,3.54-15.4,6-29.79,11.32-44.87,2.87-8.12,5.11-22,11.56-27.73C461.11,243.78,479.05,252.17,490.67,253.65Z"/><path class="cls-4" d="M1062.86,663.55s21.24-32.42,31.61-42.17c5.9-5.55,29.21-21.56,29.23-28.44,0-2.24-9.73-12.75-11.92-14.53-6.77-5.51-3.51-7.77-12.56-4.51-16.17,5.83-38.21,15.23-53.17,22.63-1.11-14.84,4.88-30.18,7.25-45.18,2.63-16.6,6.45-32.52,9.44-48.82-9.79-5.71-22.59-3.63-22.59-3.63s-9.72,20.69-11.84,30.26c-4.35,19.66-13.77,40.32-21.61,58.66-4.9-20.2-1.48-45.79-2.93-66.62-.85-12.23-1.92-26.53-.35-38.3-8.12.7-17.2-1.45-28.86.43,2.23,17.66-5,40.51-7.24,58.61-1.67,13.77-4.06,30.7-7.94,44C954,571.76,934,520.56,930.86,507.73c-12.22,2.31-15,1.3-26.22,6.57,2.92,11.66,5.83,40.75,8,52.07,2.45,12.53,3.87,25.34,6.62,37.74-8.3-8.76-17.54-13-27.72-18.39-6.34-3.34-23.33-18.93-23.33-18.93l-18.93,23.33a199.53,199.53,0,0,1,20.42,19.66,570.45,570.45,0,0,1,36.47,46.6c8,12,24.83,74.3,24.1,83.77,14,.42,44.32-4,57.56-5.14,20.89-1.85,37.27.61,57.56-5.15C1045.88,723.87,1062.86,663.55,1062.86,663.55Z"/><path class="cls-5" d="M483.77,889.24s37.66-9.14,51.89-9.17c8.11,0,36.07,4.23,40.78-.78,1.54-1.63,1.62-16,1.24-18.76-1.18-8.64,2.74-8.06-6.09-11.86-15.79-6.81-38.3-15-54.27-19.84,9.32-11.59,24.19-18.69,36.17-28,13.26-10.32,26.94-19.33,40.26-29.19-3.24-10.86-14-18.09-14-18.09s-21.23,8.46-29.33,14c-16.61,11.37-37.6,20-55.86,28,10.23-18.1,30.21-34.44,43.39-50.63,7.74-9.51,16.75-20.68,25.93-28.19-6.4-5-11.56-12.82-21.36-19.42-10.44,14.42-31.37,26.12-45.35,37.84-10.63,8.9-23.94,19.62-35.87,26.68,5.78-14,26.18-65.06,32.65-76.58-10.5-6.67-11.81-9.28-23.63-13.13-5.84,10.51-23.6,33.73-29.73,43.51-6.77,10.81-14.49,21.14-21,32.06-.07-12.07-3.9-21.49-7.66-32.37-2.34-6.77-4.09-29.76-4.09-29.76l-29.76,4.09a199.68,199.68,0,0,1,1.46,28.3,569.63,569.63,0,0,1-5.24,58.94c-2.3,14.23-32.67,71.21-39.67,77.63,9.93,9.86,35.06,27.4,45.53,35.59,16.51,12.92,26.78,25.92,45.52,35.59C430.14,921.65,483.77,889.24,483.77,889.24Z"/><path class="cls-4" d="M230.14,469.48c3.35,12.56,27.11,22.23,39.18,27.16C282,501.8,291.41,508.53,306,509.8c17.15,1.5,38.2,2.76,54.45-4.36,16-7,28.44-22.3,41.86-33.18,13.12-10.64,27.26-19.29,40.72-29-22.78-3.2-40.75-19.17-61.58-27.17-17.09-6.56-31.43-11-50.26-13.21-13.79-1.65-24.87-.51-38.49,2.85-17.76,4.39-27.41,22-39.71,34.42a105.7,105.7,0,0,0-15.17,18.69C234.61,463.83,232.74,467.47,230.14,469.48Z"/><path class="cls-4" d="M373.45,617.88c-25.31-41.31,1.16-80.14,23-114,3.9,8.82,12.15,15.47,17.62,23.05a119.66,119.66,0,0,1,15.34,28.71c9.41,25.27-3.79,44.48-21.49,63.35-8,8.53-19.17,15.51-26,25.47C376.71,634.14,373.78,622.39,373.45,617.88Z"/><path class="cls-4" d="M617.77,939.5c9.12,9.25,34.55,5.9,47.48,4.21,13.53-1.77,25.08-.6,38.34-6.68,15.65-7.19,34.57-16.51,45.17-30.74,10.43-14,13.67-33.45,20-49.55,6.14-15.74,14.15-30.25,21-45.33-21.38,8.49-44.9,3.5-67,6.86-18.1,2.75-32.74,6-50.22,13.38-12.79,5.4-21.86,11.86-32,21.53-13.25,12.59-12.94,32.65-17.47,49.55a105.34,105.34,0,0,0-3.94,23.75C618.85,932.38,619,936.46,617.77,939.5Z"/><path class="cls-6" d="M378,391.44c7.51-5.39,8-23.63,8.2-32.9.25-9.7,2.35-17.69-.47-27.68-3.32-11.79-7.78-26.11-16.61-35.12s-22-13.31-32.62-19.49C326.15,270.2,316.84,263,307,256.46c3.61,16-2.49,31.94-2.56,47.81-.07,13,.61,23.66,3.86,36.76,2.38,9.58,5.92,16.67,11.59,24.88,7.39,10.71,21.51,12.7,32.89,17.75A75.08,75.08,0,0,0,369,389C373.15,389.89,376,390.22,378,391.44Z"/><path class="cls-4" d="M815.73,997.55c-42.44-23.38-38.65-70.22-36.43-110.4,7.75,5.74,18.2,7.44,26.71,11.31a119.9,119.9,0,0,1,27.54,17.37c20.67,17.29,18.71,40.52,12.67,65.67-2.73,11.37-9,23-10,35C826.61,1010.07,818.25,1001.3,815.73,997.55Z"/><path class="cls-7" d="M706.21,1028.11C692.51,981.63,728.16,951,758,924c1.48,9.53,7.71,18.09,11,26.83a120,120,0,0,1,7.34,31.72c2.51,26.84-15.23,42-37.22,55.58-9.94,6.15-22.54,10-31.73,17.83C705.13,1044.66,705.36,1032.55,706.21,1028.11Z"/><path class="cls-2" d="M332.33,552.77c-10.49,46.66-55.93,55.94-94.62,64.89,3.31-8.93,2-19.31,3.38-28.43A118.51,118.51,0,0,1,250,558.35c10.72-24.35,33.27-28.87,58.77-30.06,11.53-.54,24.24,2.2,35.93-.15C341.21,539,335.2,549.35,332.33,552.77Z"/><path class="cls-4" d="M258.65,837.14c5-12,9.69-22.74,12.24-35.65,1-5,3.29-29.81-5.68-17.33-7.36,10.23-10.69,24.49-11.39,37.07-.2,3.72-1.21,7.9-.75,11.58.56,4.47,4.27,7,6.89,1.77"/><path class="cls-4" d="M291.06,793.31c10.13-8.14,19.32-15.37,27.77-25.44,3.25-3.88,17.32-24.48,3.61-17.74-11.24,5.54-21,16.43-27.74,27.08-2,3.15-4.89,6.33-6.29,9.75-1.69,4.15.24,8,5,4.72"/><path class="cls-4" d="M254.83,720c2.31-12.78,4.52-24.26,4.29-37.41-.09-5.06-3-29.85-8.89-15.76-4.87,11.55-5.11,26.18-3.2,38.63.56,3.68.46,8,1.64,11.48,1.44,4.25,5.46,5.93,6.87.29"/><path class="cls-4" d="M350,770.74c-10.16,3.26-19.34,6.06-28.46,11.64-3.51,2.15-19.44,14.77-6.52,14.11,10.59-.55,21-6.34,28.75-13.08,2.3-2,5.37-3.67,7.22-6.12,2.25-3,1.37-7.12-3.3-6"/><path class="cls-4" d="M240.43,721.92c-8.3-7.35-15.69-14-25.31-19.89-3.7-2.25-22.84-11.68-15.1-1.38,6.34,8.45,16.84,15.29,26.64,19.73,2.9,1.31,6,3.34,9,4.16,3.68,1,6.55-.86,3.06-4.35"/><path class="cls-4" d="M329.38,813.21c11.28-2.93,23-2.06,34.13-6,2.78-1,20.36-7.48,9.7-10.5-4.91-1.4-12.88,1.29-17.8,2.42a78.69,78.69,0,0,0-14.8,4.64c-2.57,1.15-5.08,2.09-7.57,3.36-1.46.75-7.47,4.26-2.52,5.18"/><path class="cls-4" d="M204,727.79c-5.84.73-14,7.18-19.62,10s-11.29,6.06-16.82,9.23c-4.31,2.47-15.42,10.89-4.1,9.32,12.76-1.76,24.67-9,34.26-17.49,2.09-1.84,4.93-3.74,6.77-5.82,4.21-4.78.27-4.15-4.57-3.53"/><path class="cls-4" d="M215.36,753.39c4.63,3.1,14.35,3.23,20.07,4.61s11.74,2.4,17.61,3.42c4.58.79,17.61,1.25,8.55-4.66-10.22-6.66-23.13-8.51-35.1-8-2.6.12-5.79-.2-8.36.26-5.89,1.06-2.68,3.05,1.17,5.62"/><path class="cls-4" d="M259,770.85c-12.83,5.58-26.22,9.45-38.54,16.37-2.63,1.48-6.26,3.52-8.19,5.73-2.58,3-2,3.47,1.29,3.58,13.18.41,30.83-9.91,42.08-17.23,1.76-1.15,5.32-3.21,6.5-4.76,2-2.62.67-4.12-3.11-2.73"/><path class="cls-6" d="M934.77,409.7c-4.73-7.8-13.22-14.58-19.18-21.55-7.9-9.22-17.36-16.76-26.93-24.5-8.33-6.73-16.6-14.07-25.12-20.31-8.32-6.1-16.81-15.28-25.75-20.08-5.73,11.11-5.2,26.28-9.94,38.22-4.2,10.57-5.67,21.95-9.46,32.66-6.73,19-13.39,40-15.93,60.05,45.43-12.35,90.94-28.3,135.21-41.94-.53-.88-.59.07-1.22.55"/><path class="cls-4" d="M929.79,301.5c9.35-9.76,17.85-18.44,25.12-30,2.79-4.45,14.29-27.68.94-18.92-10.93,7.19-19.46,19.77-24.82,31.7-1.58,3.53-4.12,7.21-5,11-1.12,4.53,1.55,8.34,6,4.27"/><path class="cls-4" d="M902,339.53c-9.92,9.14-18.93,17.27-27,28.3-3.1,4.25-16.23,26.58-2.5,18.62,11.26-6.52,20.62-18.49,26.83-30,1.84-3.4,4.62-6.9,5.83-10.54,1.47-4.42-.82-8.32-5.52-4.54"/><path class="cls-4" d="M1004,305.28c-13.21,2.72-25.13,5-37.71,10.34-4.84,2-27.6,14.4-11.74,14.67,13,.21,27.21-5.22,38.46-11.87,3.33-2,7.51-3.53,10.43-6,3.53-3,3.59-7.54-2.39-6.72"/><path class="cls-4" d="M1019.05,344c-13.09-3.27-24.83-6.35-38.47-7-5.25-.26-31.12,1-16.94,8.13,11.63,5.83,26.78,7.09,39.81,6,3.84-.33,8.3.08,12-.91,4.5-1.2,6.51-5.25.77-7.1"/><path class="cls-4" d="M940.52,311.83c12-8.23,25.66-12.85,37.12-22,2.87-2.3,20.9-17,7.74-15.05-6.06.91-14.32,7.33-19.59,10.78a116.88,116.88,0,0,0-15.44,11.58c-2.57,2.36-5.15,4.47-7.59,6.92-1.43,1.43-7.18,7.75-1.23,6.36"/><path class="cls-4" d="M859.56,270.59c4.43,4.2,15,6.5,20.92,9.18s12.3,5.08,18.47,7.43c4.83,1.83,18.9,5.21,10.19-2.85-9.82-9.08-23.49-13.86-36.6-16-2.85-.47-6.25-1.5-9.13-1.6-6.61-.24-3.51,2.52.18,6"/><path class="cls-4" d="M958.8,361.74c3.33,4.73,12.7,8.47,17.74,11.94s10.49,6.69,15.8,9.86c4.14,2.48,16.6,7.76,10-1.33-7.42-10.25-19.24-16.86-31-20.79-2.57-.86-5.54-2.35-8.2-2.86-6.11-1.17-3.74,2-1,5.88"/><path class="cls-4" d="M861.38,317.66c14.09-3.53,28.46-5.22,42.25-10.22,3-1.07,7-2.53,9.36-4.48,3.15-2.59,2.67-3.21-.71-3.87-13.42-2.66-33.25,4.9-46,10.49-2,.88-6,2.38-7.47,3.76-2.5,2.35-1.38,4.11,2.73,3.33"/></svg>