<svg id="Camada_1" data-name="Camada 1" xmlns="http://www.w3.org/2000/svg" viewBox="0 0 1280 1280"><defs><style>.cls-1{fill:#50a545;}.cls-2{fill:#efcc3e;}.cls-3{fill:#f49725;}.cls-4{fill:#83c8e8;}.cls-5{fill:#b25aa7;}.cls-6{fill:#4b8ed2;}.cls-7{fill:#e94941;}</style></defs><path class="cls-1" d="M960.06,990.39c-16.16-11.76-32.49-23.7-45.23-39.1C904.39,938.66,882,909,881.2,906.92a15.09,15.09,0,0,1-.74-5c-1.22-33.73-.12-106.16.7-108.45a22.93,22.93,0,0,1,3.91-6.23c21.52-27.09,80.66-78.12,80.66-78.12a73.85,73.85,0,0,1,8.44-1.55c20.86-1.57,41.83-.09,62.7,1.39l48,3.41,8.79,5.24c27.78,24.4,44.26,47.91,67.67,76.52a9,9,0,0,1,2.55,7.79q-1.21,42.69-2.44,85.38c-.26,9.17-4.13,20.72-2.49,30.72l-2.91,3.7c-29.12,27-48.75,46.94-77.87,73.94,0,0-18.78,1-27.13-1.26-8.06-2.21-17.39-2.55-26.3-2.61C1003.49,991.67,960.06,990.39,960.06,990.39Z"/><path class="cls-2" d="M216.73,737.28A1825.05,1825.05,0,0,1,190,534c-3.13-41.86-12.23-82.81-16.33-124.76-2.26-23.13-13.18-44.31-20.29-66.78,53.59-15.64,130.08-37.12,186.36-21.07,60,17.1,69.52,84.62,44,131.38-14.85,27.23-40.83,43.35-62.26,64.89,61.57-15.53,168.12-7.45,203,52.77,15.14,26.16,12.92,67.79,6.11,95.75-13.66,56.17-75.05,71.54-129.39,88.17-32.46,10-65.54,18.18-98.36,26.32-23.63,5.87-51.93,8.82-74,18.28C225.23,775.48,226.33,747.68,216.73,737.28Z"/><path class="cls-3" d="M501.68,420.16c9.48-13,31.24-34,42.78-33.28,4.38,4.4,20.08,25,22.06,31.27,13.52-32.8,100-50.28,150.66-23.34,3.45,13.44-16.52,54.93-19,69.72-40.68-15.11-68.55-21.5-91.17,5.94-24.87,30.15-15.76,54.1,10.35,122.41,5.37,14,49.37,107.93,47.54,118.85-16.81,2.1-72.77,9.82-87.15,17.43-3.11-43.53-13.64-86.1-18.61-129.93-3-26.7-9.65-52.8-14-79.55C542.31,502.5,527,437.59,501.68,420.16Z"/><path class="cls-4" d="M589,766.65l28.4-8.26s42.73,19.27,55.18,34.17c30.72,36.76,48.59,82.85,58.14,128.44,4.32,20.67,9.58,41.29,12.69,62.25,3.15-69.8.27-142,20.92-209.62,5.06-16.55,25.13-50,25.13-50s59.68,9,72.16,23.05C821,775.48,814.89,865.71,812.17,892c-3.11,30.11.27,58,.69,88,.33,24.05,7.83,47.12,8.19,70.94-18.62-1.82-37.63,5.21-55.9,7.9-19,2.8-38.31,8.2-56.7,14-1.2-30.18-13.74-60.37-25.16-88.38-16.22-39.76-35.92-78.94-64.17-111.47-24-27.59-47.93-79-88.85-80.44C543.68,781.39,580.66,769.06,589,766.65Z"/><path class="cls-5" d="M1103.43,599.66c-5.83-15.64-11.72-30.69-12.83-46.79-10.42,3.6-18.73,12.18-30.82,14.22-21.2,3.59-37.82-5.68-49.07-23.57-22-35-29.73-79-48-116-12.74-25.9-24.38-56.08-54.68-65.6-39.57-12.43-88.16,4.21-121.35,25.87-13.08,8.53-52,37.58-53.14,51C751.85,450.51,768.74,462.7,779,482c8.19-33.48,31.54-47.17,65-55.46,31.68-7.86,45.11,1.3,56.95,26.8,5.84,12.57,15.36,28.69,16.7,42.93-37.26,2-71.86,3.64-108.08,14.93-42.6,13.29-60.51,40.23-67.86,83.28-5.62,32.94,11.06,79.32,45,89.91,34.68,10.83,79.27,2.18,112.26-11.77,33.28-14.07,54-42.23,66.81-74.45,14.13,46.29,53.81,45.35,94.89,36.09,11-2.47,32.31-4.11,41.26-10.08C1112.8,616.84,1108.18,612.41,1103.43,599.66Z"/><path class="cls-1" d="M1086.49,531.49c1.21-14.28,2.45-27.12.74-41.51-.65-5.54-6.65-32.38-11.83-16.25-4.24,13.22-2.9,29.3.64,42.72,1,4,1.4,8.7,3.13,12.4,2.1,4.49,6.84,5.86,7.82-.48"/><path class="cls-1" d="M1105.6,474.56c7.86-12,15.05-22.66,20.49-36.09,2.1-5.16,9.87-31.54-2.22-19.81C1114,428.27,1107.4,443,1104,456.45c-1,4-3,8.29-3.28,12.35-.37,4.93,3,8.36,6.84,3.25"/><path class="cls-1" d="M1042.76,409.94c-1.92-14.19-3.49-27-8.19-40.68-1.8-5.28-13.22-30.29-14.66-13.51-1.19,13.76,3.52,29.18,9.74,41.59,1.83,3.66,3.19,8.21,5.61,11.48,3,4,7.73,4.36,7.3-2"/><path class="cls-1" d="M1159.71,430.93c-9.54,6.85-18.22,12.91-25.88,21.85-2.95,3.44-15.37,22.08-2.06,17,10.92-4.17,19.85-13.76,25.71-23.46,1.73-2.86,4.39-5.66,5.5-8.86,1.34-3.88-1-7.93-5.51-5.19"/><path class="cls-1" d="M1028.33,416.88c-11.19-4.89-21.21-9.39-33.28-12.27-4.64-1.1-27.91-4.51-16.3,3.67,9.51,6.71,22.84,10.32,34.62,11.65,3.48.39,7.4,1.48,10.85,1.32,4.19-.2,6.58-3.13,1.73-5.61"/><path class="cls-1" d="M1152.53,482.43c10.83-6.9,23.42-9.95,33.74-17.87,2.58-2,18.81-14.74,6.6-14.3-5.61.21-13.06,5.72-17.83,8.58a86.12,86.12,0,0,0-13.94,9.88c-2.3,2.08-4.62,3.91-6.8,6.09-1.28,1.28-6.39,7-.89,6.28"/><path class="cls-1" d="M992.14,435.39c-5.87,2.74-12.24,12.26-17.2,17.1s-9.78,10.18-14.49,15.37C956.76,471.91,948,484.5,959.3,479c12.78-6.18,22.81-17.83,30-29.95,1.57-2.64,3.91-5.6,5.12-8.41,2.8-6.44-1.12-4.44-6-2.14"/><path class="cls-1" d="M1012.71,458.37c5.91,1.69,16.14-1.47,22.61-2s13.12-1.47,19.61-2.39c5.08-.71,18.89-4.66,7.39-7.77-13-3.52-27.13-1.09-39.5,3.52-2.69,1-6.14,1.76-8.67,3.11-5.83,3.11-1.78,4.11,3.12,5.5"/><path class="cls-1" d="M1064.4,461.88c-11.56,10.19-24.29,18.79-34.85,30.23-2.25,2.44-5.37,5.8-6.64,8.78-1.7,4-.95,4.32,2.56,3.31,14-4,29-20.84,38.28-32.33,1.45-1.8,4.49-5.17,5.2-7.19,1.2-3.43-.7-4.54-4.19-1.8"/><path class="cls-5" d="M840.8,892.06c.08-14.33.31-27.23-2.53-41.44-1.09-5.47-9.19-31.75-13.07-15.26-3.19,13.51-.58,29.43,4,42.54,1.35,3.87,2.08,8.56,4.1,12.11,2.45,4.31,7.28,5.3,7.76-1.1"/><path class="cls-5" d="M847.14,941.65c-1,14.28-2,27.13-.13,41.5.71,5.52,6.89,32.31,11.66,16.17,3.92-13.24,2.4-29.3-1.21-42.7-1.06-4-1.48-8.68-3.2-12.37-2.1-4.48-6.7-5.82-7.56.53"/><path class="cls-5" d="M900.74,840.83c-8.19,11.74-15.69,22.22-21.51,35.49-2.24,5.1-10.77,31.24,1.65,19.87,10.19-9.33,17.16-23.87,21-37.21,1.13-3.94,3.22-8.2,3.64-12.25.51-4.92-2.74-8.44-6.75-3.45"/><path class="cls-5" d="M940.61,859.7c-12.47,7-23.77,13.23-34.76,22.66-4.23,3.63-23.24,23.49-7.12,18.63,13.22-4,25.81-14.08,35-24.45,2.72-3.06,6.45-6,8.59-9.46,2.59-4.21,1.18-8.79-4.59-6"/><path class="cls-5" d="M856.61,892.2c3.22-15.07,10.4-28.63,12.53-44.06.53-3.87,3.68-28.38-5-17.25-4,5.12-5.68,16.1-7.22,22.6a123.07,123.07,0,0,0-3.45,20.19c-.26,3.7-.71,7.2-.81,10.87,0,2.14.13,11.22,3.7,5.8"/><path class="cls-5" d="M764.13,919.5c6.48,0,16.28-5.91,22.82-8.19s13.18-5.06,19.66-7.76c5-2.11,18.36-9.78,5.77-9.63-14.19.17-28.21,6.46-39.87,14.39-2.53,1.72-5.91,3.41-8.2,5.43-5.27,4.64-.86,4.5,4.51,4.49"/><path class="cls-5" d="M907.12,917.32c6,1.22,16-2.74,22.38-3.75s13-2.49,19.37-3.92c5-1.12,18.46-6.14,6.75-8.34-13.21-2.48-27.14,1.06-39.1,6.63-2.6,1.22-6,2.24-8.4,3.79-5.56,3.55-1.45,4.24,3.54,5.23"/><path class="cls-5" d="M799.88,954.44c8.28-13,18.13-24.79,25.1-38.71,1.49-3,3.55-7.06,3.95-10.28.53-4.29-.29-4.41-3.38-2.47-12.28,7.75-22,28-27.81,41.68-.9,2.13-2.88,6.21-3,8.34-.21,3.64,1.93,4.18,4.52.58"/><path class="cls-4" d="M1109.26,692.49c6,5.07,14.71,8.28,21.46,12.33,8.93,5.36,18.68,8.92,28.56,12.61,8.61,3.22,17.33,7,26,9.71,8.42,2.7,17.82,7.87,26.4,9.34,1.64-10.59-2.91-22.79-2.29-33.78.54-9.75-1.36-19.41-1.18-29.15.31-17.3,0-36.14-3.34-53.18-33.61,22.38-66.3,47.72-98.62,70.84.67.57.46-.22.84-.78"/><path class="cls-6" d="M69.25,280.06c1.07,10.23.63,20.54,1.68,31.08.82,8.18.23,34.64,6.94,40.22,10.16,8.47,61.85-3.87,76.45-2.59,6.67-23.9-8.27-51.55-11-74.81-25.15-1.21-50.92,4.86-75.57,6.25"/><path class="cls-1" d="M721.28,272.34c1.92,20,6.83,33.14,11.09,53.2,3.39,16,3,39.59,11.22,57,27.09-27.81,59.07-55.6,80.13-87.66-15-6.45-38.71-7.27-56.17-11.66-15.9-4-34.21-10.11-47.35-11.93"/><path class="cls-7" d="M561.13,1037.82c-13.34-5.39-36.82.4-49.72,5.38-8,3.1-15.19,5.22-23,9.07s-26.39,16.2-26.39,16.2a71.23,71.23,0,0,1-10.79-9.84c-3.67-4.12-7.78-8-11.54-11.71,15.15-9.92,23.58-23.28,35-36.66-15.19-.17-30.15,1.19-45.38-.2-12.7-1.17-25.69-4.45-38.35-6,1.53-5.44.28-11.93.33-17.7,9.39-1,24.83-4.18,33.64-6.06,16.26-3.47,33-3.75,48.8-7.77-34-.56-67.91-4-100.12-13.66,1.06-7.12,1.65-14.25,2.34-21.6,19.87,0,39.38-.39,59.14,1.3,14.6,1.26,28.38-3.72,42.47-2.81-4.4-.82-7.26-4.44-11.27-6.36-4.34-2.08-9.3-2.74-13.82-4.41-8.36-3.09-16.15-7.92-24.44-11.31-9.09-3.72-18.59-6.15-27.5-9.6,1.86-5.09,7.6-19.41,7.58-25,10.47-.2,81.86,21.73,90.29,21.44-9.91-6.75-41.56-37.65-41.56-37.65a107.42,107.42,0,0,0,14.44-18.37c.74,1.71,55.31,31.49,63.54,38.86,15,13.41,29.42,23.3,46.64,33.61,7.35,4.41,20.38,18.1,29.1,15.55-4,8-2.31,21.57-3.13,30.61-.93,10.25-2.79,20.09-4.19,30.18-1.59,11.47-2.44,22.14-5.35,33.49-1.56,6.12-2.3,16.37-6.63,21C583.36,1043.11,569.71,1038.14,561.13,1037.82Z"/><path class="cls-1" d="M679,542.86c-1.9,9.33,10.55,23.42,16.87,30.59,6.61,7.51,10.62,15,19.75,20.58,10.78,6.58,24.19,14.27,37.18,14.89,12.78.61,25.93-5.37,38.29-8.15,12.08-2.71,24.19-3.78,36.18-5.76-13.91-9.52-20.5-25.86-31.57-37.9-9.08-9.88-17.06-17.45-28.69-25.06-8.52-5.57-16.16-8.44-26.2-10.67-13.09-2.91-25.15,5.49-37.29,9.65a77.44,77.44,0,0,0-16,7.33C683.79,540.6,681.38,542.38,679,542.86Z"/><path class="cls-1" d="M724.73,687c-3.15-35.37,26.89-52.24,52.22-67.34-.31,7.07,2.94,14.12,4.06,20.88a87.7,87.7,0,0,1,.71,23.85c-2.06,19.65-17,28-34.75,34.58-8,3-17.64,3.94-25.37,8.25C721.57,698.73,723.49,690.06,724.73,687Z"/></svg>