<svg id="Camada_1" data-name="Camada 1" xmlns="http://www.w3.org/2000/svg" viewBox="0 0 1280 558"><defs><style>.cls-1{fill:#efcc3e;}.cls-2{fill:#f49725;}.cls-3{fill:#83c8e8;}.cls-4{fill:#b25aa7;}.cls-5{fill:#4b8ed2;}.cls-6{fill:#e94941;}.cls-7{fill:#50a545;}</style></defs><g id="Grupo_345" data-name="Grupo 345"><path id="Caminho_127" data-name="Caminho 127" class="cls-1" d="M453,437.15c-5.47.43-11,.86-16.43-.08-4.44-.77-14.42-3-14.95-3.24a4.36,4.36,0,0,1-1.05-.91c-6.28-6.82-19-22.14-19.24-22.76a6.14,6.14,0,0,1-.3-2c-.35-9.5,2.87-30.72,2.87-30.72a21.66,21.66,0,0,1,1.48-1.84,118.28,118.28,0,0,1,13.34-10.92l10.62-7.86,2.77-.48c10.16.12,17.8,2.08,27.81,3.87a2.45,2.45,0,0,1,1.92,1.17l14.76,18.26c1.58,2,2.84,5.06,5,6.86l.06,1.29c-1.25,10.84-1.79,18.51-3,29.35,0,0-3.73,3.57-5.88,4.59a28.65,28.65,0,0,0-6,4.15C462.31,429.65,453,437.15,453,437.15Z"/><path id="Caminho_228" data-name="Caminho 228" class="cls-2" d="M535.1,83.25a34,34,0,0,1-7.71-3.64c-1.92-1.33-6.14-4.55-6.33-4.81a2.23,2.23,0,0,1-.29-.65c-1.47-4.59-4.09-14.59-4.07-14.94a3.56,3.56,0,0,1,.3-1c1.92-4.55,8.09-13.83,8.09-13.83a11.37,11.37,0,0,1,1.11-.54,63,63,0,0,1,8.67-2.21l6.72-1.37,1.42.38c4.75,2.29,7.92,4.89,12.23,7.93a1.26,1.26,0,0,1,.65,1l2.94,11.84c.32,1.27.23,3,.84,4.31l-.26.62c-3,4.83-4.9,8.33-7.87,13.16a18.16,18.16,0,0,1-3.78.86,15,15,0,0,0-3.71.65C541.12,81.77,535.1,83.25,535.1,83.25Z"/><path id="Caminho_179" data-name="Caminho 179" class="cls-3" d="M70.12,213.17c-6-1.12-12.07-2.25-17.61-4.81C48,206.26,37.89,201,37.4,200.57a4.38,4.38,0,0,1-.86-1.27c-4.78-9.13-14-29.22-14.1-30a7,7,0,0,1,.25-2.23C25.05,156.8,34.61,135,34.61,135a22.91,22.91,0,0,1,2.12-1.54,131.42,131.42,0,0,1,17.45-7.88l13.66-5.39,3.12.29c10.87,3.06,18.51,7.36,28.72,12.15a2.72,2.72,0,0,1,1.73,1.81L112,158.23c1.14,2.56,1.59,6.25,3.36,8.79l-.31,1.4c-4.46,11.28-7.24,19.36-11.7,30.64,0,0-5,2.75-7.64,3.23A32,32,0,0,0,88.12,205C82.26,207.79,70.12,213.17,70.12,213.17Z"/><g id="Grupo_145" data-name="Grupo 145"><path id="Caminho_128" data-name="Caminho 128" class="cls-1" d="M367.46,88.11c0,2.17-.31,4.33-.31,6.56,0,1.74-.7,7.28.59,8.6,1.95,2,13.07.52,16.11,1.1,1.91-4.88-.63-11-.7-16-5.26-.79-10.8-.07-16-.31"/><path id="Caminho_129" data-name="Caminho 129" class="cls-1" d="M400.32,88.11c0,2.17-.31,4.33-.32,6.56,0,1.74-.7,7.28.59,8.6,2,2,13.08.52,16.12,1.1,1.91-4.88-.64-11-.7-16-5.26-.79-10.8-.07-16-.31"/><path id="Caminho_130" data-name="Caminho 130" class="cls-2" d="M350.19,104.54c0,2.17-.31,4.33-.32,6.56,0,1.74-.69,7.28.6,8.6,1.95,2,13.07.52,16.11,1.1,1.91-4.88-.63-11-.7-16-5.26-.79-10.8-.07-16-.31"/><path id="Caminho_131" data-name="Caminho 131" class="cls-4" d="M400.32,104.54c0,2.17-.31,4.33-.32,6.56,0,1.74-.7,7.28.59,8.6,2,2,13.08.52,16.12,1.1,1.91-4.88-.64-11-.7-16-5.26-.79-10.8-.07-16-.31"/><path id="Caminho_132" data-name="Caminho 132" class="cls-2" d="M384.31,71.68c0,2.17-.31,4.33-.31,6.57,0,1.73-.7,7.27.59,8.59,2,2,13.07.52,16.11,1.1,1.91-4.88-.63-11-.7-16-5.26-.79-10.8-.07-16-.31"/><path id="Caminho_133" data-name="Caminho 133" class="cls-5" d="M401.12,87.91c-2.17,0-4.32-.31-6.56-.32-1.74,0-7.28-.7-8.6.59-2,1.95-.51,13.07-1.1,16.11,4.88,1.92,11-.63,15.95-.69.8-5.26.08-10.81.31-16"/><path id="Caminho_134" data-name="Caminho 134" class="cls-6" d="M382.59,121.18c-2.17,0-4.33-.31-6.57-.31-1.73,0-7.28-.7-8.59.59-2,2-.52,13.07-1.1,16.11,4.87,1.92,11-.63,15.94-.7.8-5.25.08-10.8.32-16"/><path id="Caminho_135" data-name="Caminho 135" class="cls-7" d="M367.31,121.09c2.17-.07,4.34.19,6.57.13,1.74,0,7.3.51,8.58-.82,2-2,.17-13.08.67-16.13-4.92-1.79-11,.92-15.92,1.12-.66,5.28.21,10.8.11,16"/></g><g id="Grupo_152" data-name="Grupo 152"><path id="Caminho_128-2" data-name="Caminho 128-2" class="cls-4" d="M1076.3,95.86c0,2.8-.4,5.59-.4,8.47,0,2.24-.91,9.4.76,11.1,2.52,2.57,16.87.67,20.8,1.42,2.47-6.29-.82-14.2-.91-20.58-6.78-1-13.93-.1-20.65-.41"/><path id="Caminho_129-2" data-name="Caminho 129-2" class="cls-1" d="M1141.29,94.06c0,2.8-.4,5.58-.41,8.47,0,2.24-.9,9.39.76,11.09,2.52,2.58,16.87.67,20.8,1.42,2.47-6.29-.81-14.2-.9-20.58-6.79-1-13.94-.1-20.66-.4"/><path id="Caminho_131-2" data-name="Caminho 131-2" class="cls-4" d="M1118.71,135.13c0,2.8-.4,5.58-.41,8.47,0,2.24-.9,9.39.76,11.09,2.52,2.58,16.88.67,20.8,1.42,2.47-6.29-.81-14.2-.9-20.58-6.79-1-13.94-.1-20.66-.4"/><path id="Caminho_132-2" data-name="Caminho 132-2" class="cls-2" d="M1120.63,72.85c0,2.8-.4,5.59-.41,8.48,0,2.24-.9,9.39.76,11.09,2.52,2.58,16.88.67,20.8,1.42,2.47-6.29-.81-14.2-.9-20.58-6.79-1-13.94-.1-20.66-.41"/><path id="Caminho_135-2" data-name="Caminho 135-2" class="cls-7" d="M1098.69,136.61c2.8-.08,5.59.25,8.48.18,2.24,0,9.41.65,11.07-1,2.51-2.59.21-16.89.86-20.83-6.36-2.3-14.18,1.19-20.55,1.45-.84,6.81.27,13.94.15,20.66"/></g><g id="Grupo_146" data-name="Grupo 146"><path id="Caminho_136" data-name="Caminho 136" class="cls-1" d="M860.62,356.46c-4.07-4.8-9.59-9.22-14.28-13.63-3.73-3.51-9.93-9.64-14.67-10.86-2,12-1.8,25-1.49,37,5-1,11.28-5.06,16.56-7.05,4.82-1.82,10.63-3.52,14.35-5.4"/><path id="Caminho_137" data-name="Caminho 137" class="cls-2" d="M807.27,311.51c1.22,1.93,3.36,3.58,4.87,5.29a50.44,50.44,0,0,0,6.82,6c2.1,1.64,4.2,3.43,6.35,4.95s4.25,3.74,6.5,4.89c1.38-2.79,1.18-6.57,2.31-9.56,1-2.65,1.32-5.49,2.22-8.18a73.89,73.89,0,0,0,3.71-15c-11.26,3.27-22.54,7.44-33.51,11,.14.22.15,0,.3-.14"/><path id="Caminho_138" data-name="Caminho 138" class="cls-5" d="M807.9,311.44c-.15,3.28-1.23,6.32-1.7,9.53-.55,3.71-.47,2.78-1,6.51-.62,4.16-.38,7.75-1.46,11.83-.7,2.63-2.15,7.84-2.35,10.53,6.21-4.89,10.14-5.67,17.35-9.47a121.47,121.47,0,0,0,12.34-7.67S816,318,807.9,311.44Z"/><path id="Caminho_321" data-name="Caminho 321" class="cls-6" d="M729,484.92c1.21,1.93,3.35,3.58,4.87,5.29a49.09,49.09,0,0,0,6.81,6c2.11,1.64,4.2,3.43,6.35,5s4.25,3.73,6.5,4.89c1.38-2.79,1.18-6.57,2.31-9.57,1-2.65,1.32-5.49,2.22-8.17a74.22,74.22,0,0,0,3.71-15c-11.26,3.27-22.53,7.44-33.5,11,.13.22.14,0,.3-.14"/></g><g id="Grupo_141" data-name="Grupo 141"><path id="Caminho_113" data-name="Caminho 113" class="cls-1" d="M920.6,91.6c-5.47,3.44-10.76,8.42-15.93,12.56-4.1,3.29-11.24,8.7-13.16,13.35,11.93,3.78,25.16,5.44,37.45,6.86-.32-5.26-3.52-12.2-4.78-17.87-1.16-5.16-2-11.32-3.43-15.37"/><path id="Caminho_114" data-name="Caminho 114" class="cls-1" d="M994.11,111.54c-5.79,2.87-8.54,7.84-14.1,11.43-4.41,2.86-12.06,7.52-14.45,11.95,11.49,5,22,7,34.08,9.69A52,52,0,0,0,997,127.55C995.28,122.25,994.11,111.54,994.11,111.54Z"/><path id="Caminho_115" data-name="Caminho 115" class="cls-7" d="M928.75,124.63c5.83,2.79,12.87,4.63,19.12,6.79,5,1.73,13.34,4.89,18.31,4-3.16-12.11-8.79-24.19-14.13-35.35-4.29,3.07-8.46,9.47-12.58,13.56-3.75,3.72-8.49,7.75-11.19,11.08"/><path id="Caminho_116" data-name="Caminho 116" class="cls-7" d="M946.94,186.88c5,2.42,9.47,1.76,14.88,3.64,4.3,1.49,12.19,5.18,17.53,5.74-2.74-10.48-7.62-20.94-12.24-30.6-3.71,2.66-7.32,8.2-10.89,11.74-3.25,3.22-7.35,6.71-9.69,9.59"/><path id="Caminho_117" data-name="Caminho 117" class="cls-4" d="M947.31,187.32c-.12,2.19.65,4.69.89,6.88a47.65,47.65,0,0,0,2,8.5c.74,2.47,1.39,5,2.24,7.43s1.28,5.31,2.41,7.47c2.63-1.43,4.58-4.52,7.13-6.25,2.27-1.53,4.1-3.59,6.29-5.21a71.41,71.41,0,0,0,11.28-9.77c-10.69-3.69-21.89-6.67-32.53-9.94,0,.25.13.07.32,0"/><path id="Caminho_118" data-name="Caminho 118" class="cls-2" d="M966.11,166.49c1.89,1.76,4.72,3,6.87,4.4a56.74,56.74,0,0,0,9.22,4.62c2.78,1.2,5.59,2.56,8.39,3.61s5.75,2.88,8.55,3.5c.71-3.46-.59-7.55-.21-11.16.33-3.21-.14-6.42.08-9.63a84.58,84.58,0,0,0-.25-17.57c-11.43,6.83-22.61,14.66-33.63,21.76.21.2.16-.07.29-.25"/><path id="Caminho_119" data-name="Caminho 119" class="cls-2" d="M867.18,139.37c2.13-1,4.12-2.89,6.08-4.19a50.54,50.54,0,0,0,7.08-6.07c2-1.9,4.1-3.77,5.95-5.74s4.42-3.79,5.92-5.91c-2.64-1.8-6.52-2.15-9.4-3.73-2.55-1.4-5.4-2.14-8-3.44a76.23,76.23,0,0,0-14.75-5.94c1.69,11.93,4.31,24,6.37,35.68.24-.11,0-.16-.1-.33"/><path id="Caminho_120" data-name="Caminho 120" class="cls-3" d="M929.06,125.55c1.47,4.72.84,11.8,1.06,17.25.22,5.22.22,10.33.54,15.58,2.53-1.13,6.2-4.93,8.81-6.61,2.94-1.89,5.52-4.19,8.56-6,2.76-1.63,5.59-3.3,8.35-4.91,2.59-1.51,5.4-4.18,8.18-5a1,1,0,0,0,0-.54c-3.34-1.12-6.92-.83-10.35-2s-6.64-2-9.87-3.21c-4.61-1.67-11.38-2.45-15.09-5.69"/><path id="Caminho_121" data-name="Caminho 121" class="cls-3" d="M880.65,171.5c.19-4.75-3.36-10.26-4.91-14.72-1.09-3.12-2.41-6.19-3.6-9.31s-3.65-5.72-4.84-8.9a1,1,0,0,1,.43-.31c2.36,1.52,6.11,2,8.84,3,2.92,1.06,5.92,2.12,8.85,3.17,3.22,1.16,6.54,1.65,9.78,2.67,2.87.9,7.34,3.81,10.42,2.45-3.81,3.49-7.68,6.64-11.52,10-4,3.53-13.39,11.94-13.39,11.94Z"/><path id="Caminho_122" data-name="Caminho 122" class="cls-6" d="M930.75,158.41c5.49-3.3,10.46-9.46,16-12.94,6-3.79,12.78-6.5,18.77-10.43.21,5.55,1.15,12.56,1.73,18.12.45,4.46.08,9,.27,13.5-3,.49-8.15-1.72-11.18-2.62-3.71-1.1-7.51-2.29-11.28-3.11C940.32,159.91,930.75,158.41,930.75,158.41Z"/><path id="Caminho_123" data-name="Caminho 123" class="cls-6" d="M930.73,157.87c5.42,1.63,12.43,1.23,18,2.79,6.06,1.7,11.82,4.5,17.95,6.1-3.58,3.41-7.69,8.17-11.07,11.83-2.7,2.93-5.94,5.36-8.83,8.15-2.1-1.69-3.62-6.34-4.8-8.86-1.44-3.07-2.87-6.25-4.54-9.19C935.34,165,930.73,157.87,930.73,157.87Z"/><path id="Caminho_124" data-name="Caminho 124" class="cls-6" d="M880.6,171.77c-.74-4.3-3.22-12.74-5.25-16.73-2.55-5-6-11.18-8.16-16.28-4.17,5.82-7.83,9.18-13.09,14.16-4.75,4.49-8.05,7.27-12,12.33C842.14,165.25,877.94,173.32,880.6,171.77Z"/><path id="Caminho_125" data-name="Caminho 125" class="cls-5" d="M966.71,167.37c2.53-2.24,5.54-3.64,8.24-5.59,3.11-2.26,2.38-1.65,5.51-3.92,3.5-2.54,6-5.28,9.74-7.42,2.44-1.37,7.31-4,9.43-5.83-8-1.06-11.44-3.39-19.41-6a124.36,124.36,0,0,0-14.51-3.57S965.74,156.7,966.71,167.37Z"/><path id="Caminho_126" data-name="Caminho 126" class="cls-5" d="M867.2,138.73c3.31.63,6.26,2.16,9.45,3.11,3.69,1.09,2.76.88,6.46,2,4.16,1.23,7.83,1.51,11.83,3.19,2.58,1.09,7.67,3.32,10.38,3.91-4.08-7-4.3-11.13-7.13-19a126.9,126.9,0,0,0-6-13.67S875.05,131.45,867.2,138.73Z"/></g><g id="Grupo_147" data-name="Grupo 147"><path id="Caminho_139" data-name="Caminho 139" class="cls-2" d="M55,387.18c-1.42,6.09-1.68,13.11-2.41,19.46-.59,5.05-1.82,13.62,0,18.14,10.77-5.52,21-13.37,30.41-20.74-3.8-3.4-10.71-6-15.43-9-4.3-2.76-9.1-6.39-12.81-8.24"/><path id="Caminho_140" data-name="Caminho 140" class="cls-1" d="M119.08,350.94c-2,5.91-.55,11.2-1.93,17.44-1.1,5-3.19,13.37-1.82,18,11.27-4.39,19.9-10.12,30-16.5A50.18,50.18,0,0,0,131.92,360C127.16,357.5,119.08,350.94,119.08,350.94Z"/><path id="Caminho_141" data-name="Caminho 141" class="cls-1" d="M140.78,327.76c-5.6-2.77-11-2-17-4.13-4.79-1.72-12.85-4.87-17.67-4.11,2.93,11.75,7.51,21,12.54,31.88a50.13,50.13,0,0,0,11.56-12C133.24,334.94,140.78,327.76,140.78,327.76Z"/><path id="Caminho_142" data-name="Caminho 142" class="cls-3" d="M83,404.36c5.9-2,12-5.56,17.76-8.32,4.59-2.19,12.49-5.71,15.34-9.67-10.41-6.18-22.49-10.66-33.75-14.71-.86,5,.63,12.27.57,17.88,0,5.11-.57,11.1-.16,15.22"/><path id="Caminho_143" data-name="Caminho 143" class="cls-7" d="M137.84,434.8c5.12-1.76,8.27-3.88,13.26-6.27,4-1.89,10.2-3.3,14.25-6.54-9-5.35-18.32-12-28.06-15.49-.74,4.35.53,10.62.48,15.47,0,4.43-.49,9.62-.14,13.18"/><path id="Caminho_144" data-name="Caminho 144" class="cls-2" d="M137.17,407.75c2.49-.07,5.25-1.17,7.71-1.64a54.41,54.41,0,0,0,9.48-3.09c2.72-1.06,5.59-2,8.23-3.22s5.9-1.92,8.25-3.4c-1.86-2.86-5.54-4.79-7.73-7.53-2-2.44-4.46-4.33-6.49-6.67a81.24,81.24,0,0,0-12.11-11.92c-3.22,12.47-5.59,25.44-8.34,37.82.28,0,.06-.15,0-.37"/><path id="Caminho_145" data-name="Caminho 145" class="cls-2" d="M50.7,456.34c.82-2.1.87-4.79,1.33-7a49.3,49.3,0,0,0,.75-9c.06-2.65.25-5.38.19-8s.46-5.6.05-8.08c-3,.55-5.94,3-9,3.82-2.71.77-5.17,2.2-7.84,3.07A73.81,73.81,0,0,0,22,437.1c9.28,7,19.28,13.57,28.64,20.2.09-.23-.1-.1-.29-.15"/><path id="Caminho_146" data-name="Caminho 146" class="cls-6" d="M80.34,439.33c-1.55-1.64-4-2.83-5.78-4.2a48.79,48.79,0,0,0-7.81-4.49c-2.37-1.19-4.76-2.53-7.15-3.59s-4.87-2.8-7.29-3.48c-.8,3,.14,6.63-.38,9.76-.46,2.78-.21,5.61-.56,8.4a74.58,74.58,0,0,0-.67,15.37c10.33-5.39,20.49-11.66,30.48-17.31-.18-.18-.14,0-.27.2"/><path id="Caminho_147" data-name="Caminho 147" class="cls-7" d="M83.86,404.78c4.22,2.25,8.6,7.54,12.45,11.14,3.7,3.45,7.17,7,11,10.36,1-2.51.91-7.61,1.57-10.53.73-3.31.94-6.63,1.82-9.93.8-3,1.6-6.07,2.41-9.06.76-2.79.88-6.54,2.2-9a1,1,0,0,0-.35-.39c-3.06,1.5-5.32,4.13-8.46,5.68s-5.95,3.11-9,4.5c-4.31,2-9.5,6-14.25,6.34"/><path id="Caminho_148" data-name="Caminho 148" class="cls-1" d="M82.38,371.55c-1.91,3.82.49,10.8.24,14.91-.18,2.89-.12,5.81-.21,8.73S83.57,401,83.47,404a1.06,1.06,0,0,1-.5.12c-1.55-2-4.15-1.84-6.23-3.5s-5.1-2.92-7.32-4.69c-2.45-1.95-4.81-2.84-7.33-4.68-2.23-1.64-5-3.44-7.55-5.16,4.68-1.65,8.33-4.4,12.69-7.6a47.49,47.49,0,0,1,10.18-5.21Z"/><path id="Caminho_149" data-name="Caminho 149" class="cls-5" d="M107.36,426.23c1.53-6,.76-13.62,2.2-19.77,1.57-6.7,4.37-13.16,5.82-19.93,3.91,3.68,9.33,7.85,13.5,11.3,3.34,2.75,6.17,6.13,9.36,9.09-1.75,2.4-6.77,4.35-9.47,5.8-3.3,1.76-6.72,3.52-9.87,5.53C115,420.76,107.36,426.23,107.36,426.23Z"/><path id="Caminho_150" data-name="Caminho 150" class="cls-6" d="M82.71,371.15a89.77,89.77,0,0,0-14.42-8.82c-4.9-2.13-11.13-4.63-15.89-7,1.35,6.19,1.36,10.41,1.48,16.58.11,5.57-.05,9.2.94,14.73C54.82,386.63,82.12,373.6,82.71,371.15Z"/><path id="Caminho_151" data-name="Caminho 151" class="cls-1" d="M154.42,483.64c.21-3.26,1.33-6.26,1.86-9.44.61-3.67.52-2.75,1.13-6.44.69-4.12.51-7.69,1.66-11.73.74-2.59,2.28-7.74,2.52-10.42-6.25,4.75-10.17,5.46-17.4,9.1a121.53,121.53,0,0,0-12.4,7.41S146.5,477,154.42,483.64Z"/><path id="Caminho_152" data-name="Caminho 152" class="cls-5" d="M137.53,434c-2.7,1.64-4.09,1.23-6.87,2.57-3.21,1.55-3.42,1.5-6.65,3.06a75.75,75.75,0,0,1-9.48,3.6,72.73,72.73,0,0,0-9.48,3.76c6.7,2.43,9.09,5.22,15.36,9.06A101,101,0,0,0,132.1,462S135.9,444.11,137.53,434Z"/><path id="Caminho_153" data-name="Caminho 153" class="cls-5" d="M209.18,344.28c-2.69,1.64-4.08,1.24-6.86,2.58-3.21,1.55-3.42,1.49-6.65,3.05a76.35,76.35,0,0,1-9.48,3.6,73,73,0,0,0-9.48,3.76c6.06,4.49,6.07,7.67,12.35,11.51,3.83,2.34,9.2,10,13.31,11.81C202.37,380.59,207.55,354.44,209.18,344.28Z"/><path id="Caminho_154" data-name="Caminho 154" class="cls-4" d="M144.74,371.16c.83-1.06,4.12-1.81,5.48-2.44,2.42-1.12,4.72-2.53,7.15-3.64,3.17-1.45,6.44-2.82,9.72-4s6.35-2.62,9.48-4.09c.67,4.45-.81,9.76-1.45,14.21-.46,3.21-1,6.18-1.59,9.35-.58,2.91-1.13,5.63-1.5,8.58-.26,2,0,5.05-1.1,6.75-2.44-.61-4.4-3.85-6.09-5.58-1.44-1.48-2.92-2.93-4.37-4.42a116.26,116.26,0,0,0-10.23-9.9c-1.73-1.39-4-4.92-6.09-5.52-.19.32.08.26.07.54"/></g><path id="Caminho_155" data-name="Caminho 155" class="cls-7" d="M1149.76,381.5c1.19-5.86,2.41-11.8,5-17.19,2.14-4.41,7.43-14.21,7.89-14.68a4.41,4.41,0,0,1,1.26-.82c9-4.54,28.88-13.27,29.61-13.33a6.67,6.67,0,0,1,2.18.28C1205.77,338.24,1227,348,1227,348a22.08,22.08,0,0,1,1.47,2.11,128.77,128.77,0,0,1,7.44,17.24l5,13.48-.33,3.05c-3.18,10.6-7.52,18-12.39,28a2.7,2.7,0,0,1-1.81,1.67l-23.55,10c-2.53,1.07-6.15,1.45-8.67,3.15l-1.37-.33c-11-4.56-18.86-7.42-29.84-12,0,0-2.62-5-3-7.55a31.53,31.53,0,0,0-2.57-7.48C1154.83,393.49,1149.76,381.5,1149.76,381.5Z"/><g id="Grupo_151" data-name="Grupo 151"><path id="Caminho_156" data-name="Caminho 156" class="cls-4" d="M712.76,70.66c1.53,6.25,3.69,10.2,6,16.38,1.82,4.91,2.8,12.42,6.2,17.57,7.31-10.08,16.18-20.38,21.38-31.53-5.07-1.35-12.62-.52-18.37-1.1-5.23-.54-11.32-1.64-15.58-1.6"/><path id="Caminho_157" data-name="Caminho 157" class="cls-7" d="M757.3,114.26c-1.65-3.37-1-5-2.3-8.41-1.49-4-1.4-4.2-2.89-8.19-1.68-4.47-2.08-7-3.23-11.61-.74-3-2.14-8.83-3.42-11.64-3.6,7.67-7.17,10.19-12.4,17.2a120.21,120.21,0,0,0-8.3,13.19S745.47,111.23,757.3,114.26Z"/></g><g id="Grupo_149" data-name="Grupo 149"><path id="Caminho_159" data-name="Caminho 159" class="cls-1" d="M896.8,454.08c.12,2.8.65,5.56.79,8.44.11,2.24,1.33,9.35-.26,11.12-2.4,2.69-16.82,1.43-20.71,2.36-2.75-6.17.17-14.22,0-20.6,6.73-1.33,13.92-.73,20.62-1.34"/><path id="Caminho_160" data-name="Caminho 160" class="cls-2" d="M1000.25,448.91c.12,2.8.65,5.56.79,8.44.11,2.24,1.32,9.34-.26,11.12-2.4,2.69-16.82,1.43-20.71,2.36-2.75-6.17.17-14.22,0-20.6,6.73-1.33,13.92-.73,20.62-1.34"/><path id="Caminho_161" data-name="Caminho 161" class="cls-4" d="M937.43,451.76c.12,2.8.65,5.56.79,8.44.11,2.24,1.32,9.35-.26,11.12-2.4,2.69-16.82,1.43-20.71,2.37-2.75-6.18.17-14.23,0-20.61,6.73-1.33,13.92-.73,20.62-1.34"/><path id="Caminho_162" data-name="Caminho 162" class="cls-6" d="M916.64,474.45c.12,2.8.66,5.56.79,8.44.11,2.24,1.33,9.35-.25,11.12-2.4,2.69-16.83,1.43-20.71,2.36-2.76-6.17.16-14.22,0-20.6,6.74-1.33,13.92-.73,20.62-1.34"/><path id="Caminho_163" data-name="Caminho 163" class="cls-5" d="M938.24,472.73c2.8-.12,5.56-.65,8.45-.79,2.23-.11,9.34-1.33,11.11.26,2.69,2.4,1.44,16.82,2.37,20.71-6.18,2.75-14.23-.17-20.61,0-1.33-6.73-.72-13.92-1.34-20.62"/><path id="Caminho_164" data-name="Caminho 164" class="cls-4" d="M959.45,472.26c2.8-.12,5.56-.65,8.45-.79,2.23-.1,9.34-1.32,11.11.26,2.69,2.4,1.44,16.83,2.37,20.71-6.18,2.75-14.23-.17-20.6,0-1.34-6.73-.73-13.92-1.35-20.61"/><path id="Caminho_165" data-name="Caminho 165" class="cls-1" d="M999.94,429c2.8-.12,5.56-.66,8.44-.79,2.24-.11,9.35-1.33,11.12.25,2.69,2.4,1.43,16.83,2.36,20.71-6.17,2.76-14.22-.16-20.6,0-1.33-6.73-.73-13.92-1.34-20.62"/><path id="Caminho_166" data-name="Caminho 166" class="cls-3" d="M979.14,471.24c-2.8.05-5.57.51-8.46.57-2.24.05-9.38,1.07-11.11-.56-2.62-2.47-1-16.86-1.8-20.76,6.24-2.59,14.21.54,20.59.52,1.15,6.76.36,13.93.79,20.64"/></g><g id="Grupo_154" data-name="Grupo 154"><path id="Caminho_167" data-name="Caminho 167" class="cls-7" d="M330,292.71c-2.28,0-4.55-.33-6.9-.33-1.82,0-7.64-.74-9,.62-2.1,2.05-.54,13.72-1.16,16.92,5.13,2,11.56-.66,16.75-.73.84-5.53.08-11.35.33-16.81"/><path id="Caminho_168" data-name="Caminho 168" class="cls-1" d="M330.75,259.59c-2.28,0-4.54-.32-6.89-.33-1.82,0-7.65-.73-9,.62-2.1,2.05-.55,13.73-1.16,16.93,5.12,2,11.56-.66,16.75-.74.83-5.52.08-11.34.33-16.81"/><path id="Caminho_169" data-name="Caminho 169" class="cls-2" d="M313.5,208.42c-2.28,0-4.55-.33-6.9-.33-1.82,0-7.64-.74-9,.62-2.1,2-.54,13.72-1.16,16.92,5.13,2,11.57-.66,16.75-.73.84-5.53.08-11.35.33-16.81"/><path id="Caminho_170" data-name="Caminho 170" class="cls-4" d="M313.5,259.59c-2.28,0-4.55-.32-6.9-.33-1.82,0-7.64-.73-9,.62-2.1,2.05-.54,13.73-1.16,16.93,5.13,2,11.57-.66,16.75-.74.84-5.52.08-11.34.33-16.81"/><path id="Caminho_171" data-name="Caminho 171" class="cls-4" d="M260.28,295c-2.28,0-4.54-.33-6.89-.33-1.82,0-7.65-.73-9,.62-2.1,2.05-.55,13.73-1.16,16.92,5.12,2,11.56-.66,16.75-.73.83-5.52.08-11.35.33-16.81"/><path id="Caminho_172" data-name="Caminho 172" class="cls-2" d="M349,260c0-2.28.33-4.55.33-6.9,0-1.82.73-7.64-.62-9-2.05-2.1-13.73-.54-16.92-1.15-2,5.12.66,11.56.73,16.74,5.52.84,11.34.08,16.81.33"/><path id="Caminho_173" data-name="Caminho 173" class="cls-2" d="M277.44,277.33c-2.28,0-4.54-.33-6.89-.33-1.82,0-7.65-.74-9,.62-2.1,2.05-.55,13.73-1.16,16.92,5.12,2,11.56-.66,16.75-.73.83-5.53.08-11.35.33-16.81"/><path id="Caminho_174" data-name="Caminho 174" class="cls-5" d="M296.42,259.71c0-2.29.32-4.55.33-6.9,0-1.82.73-7.64-.62-9-2.05-2.1-13.73-.54-16.92-1.16-2,5.12.66,11.56.73,16.75,5.52.84,11.34.08,16.81.33"/><path id="Caminho_175" data-name="Caminho 175" class="cls-6" d="M296,242.44c0-2.28.32-4.54.33-6.89,0-1.82.73-7.65-.63-9-2.05-2.1-13.72-.54-16.92-1.16-2,5.12.66,11.56.74,16.75,5.52.84,11.34.08,16.81.33"/><path id="Caminho_176" data-name="Caminho 176" class="cls-6" d="M367.31,243.91c0-2.28.33-4.54.33-6.89,0-1.82.74-7.64-.62-9-2-2.1-13.73-.54-16.92-1.16-2,5.12.66,11.56.73,16.75,5.52.84,11.35.08,16.81.33"/><path id="Caminho_177" data-name="Caminho 177" class="cls-7" d="M296.12,226.4c.06,2.28-.21,4.55-.15,6.9,0,1.82-.53,7.66.86,9,2.11,2,13.74.17,16.95.7,1.88-5.17-1-11.54-1.18-16.72-5.54-.69-11.34.22-16.81.12"/><path id="Caminho_178" data-name="Caminho 178" class="cls-5" d="M313.24,276.5c-5.37,0-11.59-1.41-16.83-.56-.27,6-.65,12.2-.43,18.21,2-1.72,7.1-1.59,9.62-1.81,1.35-.11,6,.61,7-.24s.43-6.86.47-8.57c0-1.14.36-2.27.38-3.34s-.53-2.28-.38-3.47"/></g><g id="Grupo_160" data-name="Grupo 160"><path id="Caminho_180" data-name="Caminho 180" class="cls-7" d="M191.24,130.81c2-5.42,3.84-10.27,4.71-16,.33-2.22.86-13.29-2.87-7.57-3.06,4.68-4.25,11.07-4.3,16.66a30.63,30.63,0,0,0-.11,5.15c.34,2,2,3,3.1.64"/><path id="Caminho_181" data-name="Caminho 181" class="cls-7" d="M204.72,110.73c4.33-3.81,8.26-7.2,11.81-11.83,1.36-1.79,7.19-11.2,1.24-7.94-4.87,2.68-9,7.71-11.76,12.56a32,32,0,0,0-2.59,4.45c-.67,1.87.27,3.56,2.32,2"/><path id="Caminho_182" data-name="Caminho 182" class="cls-7" d="M230.39,99.55c-4.44,1.64-8.45,3.07-12.38,5.73-1.52,1-8.33,6.94-2.61,6.38,4.69-.46,9.18-3.23,12.49-6.37a21.44,21.44,0,0,0,3.08-2.86c.93-1.37.46-3.18-1.59-2.61"/><path id="Caminho_183" data-name="Caminho 183" class="cls-7" d="M180.85,80.1a77.36,77.36,0,0,0-11.62-8.31c-1.69-.93-10.36-4.73-6.73-.31,3,3.62,7.78,6.44,12.22,8.21a29.47,29.47,0,0,0,4.07,1.67c1.65.37,2.89-.52,1.26-2"/><path id="Caminho_184" data-name="Caminho 184" class="cls-7" d="M222.11,118.79c4.95-1.53,10.16-1.37,15-3.35,1.21-.5,8.87-3.73,4.08-4.85-2.2-.52-5.68.83-7.84,1.43a35.5,35.5,0,0,0-6.47,2.35c-1.11.57-2.21,1-3.29,1.65-.63.36-3.22,2-1,2.34"/><path id="Caminho_185" data-name="Caminho 185" class="cls-7" d="M164.82,83.43c-2.58.44-6.06,3.46-8.5,4.82s-4.89,2.91-7.27,4.42c-1.86,1.18-6.62,5.14-1.63,4.22,5.62-1,10.75-4.5,14.83-8.44a33.79,33.79,0,0,0,2.89-2.72c1.77-2.2,0-1.85-2.1-1.47"/><path id="Caminho_186" data-name="Caminho 186" class="cls-7" d="M170.37,94.55c2.11,1.28,6.42,1.15,9,1.64s5.25.83,7.87,1.16c2.05.27,7.83.21,3.7-2.23-4.67-2.75-10.43-3.31-15.72-2.84a30.57,30.57,0,0,0-3.7.29c-2.59.59-1.13,1.41.63,2.47"/><path id="Caminho_187" data-name="Caminho 187" class="cls-7" d="M190.07,101.42c-5.58,2.73-11.44,4.71-16.76,8a14.87,14.87,0,0,0-3.51,2.7c-1.09,1.37-.83,1.59.64,1.56,5.85-.08,13.47-5,18.31-8.48a14.67,14.67,0,0,0,2.79-2.24c.83-1.2.21-1.84-1.44-1.15"/></g><g id="Grupo_161" data-name="Grupo 161"><path id="Caminho_188" data-name="Caminho 188" class="cls-7" d="M307.35,418.78c.49,5.76.88,10.94,2.54,16.53.64,2.16,4.86,12.4,5.81,5.64.78-5.54-.85-11.82-3.18-16.91a29.31,29.31,0,0,0-2.09-4.71c-1.14-1.64-3.12-1.86-3.07.73"/><path id="Caminho_189" data-name="Caminho 189" class="cls-7" d="M323.75,478.58c-.14-5.77-.2-11-1.48-16.65-.49-2.19-3.95-12.71-5.27-6.06-1.09,5.46.12,11.84,2.06,17.08a30.72,30.72,0,0,0,1.74,4.85c1,1.72,2.9,2.08,3-.49"/><path id="Caminho_190" data-name="Caminho 190" class="cls-7" d="M303.47,485.86c2.44-5.23,4.67-9.91,6-15.58.53-2.18,2.08-13.15-2-7.77-3.38,4.42-5.13,10.67-5.71,16.23a30.77,30.77,0,0,0-.58,5.12c.14,2,1.68,3.15,2.91.89"/><path id="Caminho_191" data-name="Caminho 191" class="cls-7" d="M286.34,481.17c4.45-3.66,8.5-6.91,12.2-11.42,1.42-1.74,7.57-10.95,1.52-7.89-5,2.51-9.25,7.39-12.18,12.15a31.25,31.25,0,0,0-2.75,4.36c-.73,1.85.15,3.57,2.25,2.07"/><path id="Caminho_192" data-name="Caminho 192" class="cls-7" d="M287.6,440.9c6.06,1.34,11.49,4.28,17.7,5.19,1.56.23,11.42,1.58,7-2-2-1.63-6.47-2.35-9.08-3a49.73,49.73,0,0,0-8.12-1.46c-1.49-.11-2.9-.31-4.37-.36-.87,0-4.52,0-2.35,1.47"/><path id="Caminho_193" data-name="Caminho 193" class="cls-7" d="M340.48,437.65c-2.6.24-6.31,3-8.86,4.13s-5.09,2.52-7.59,3.84c-1.95,1-7,4.6-2,4.07,5.68-.59,11.08-3.63,15.46-7.24a35.29,35.29,0,0,0,3.09-2.48c1.94-2.06.18-1.84-2-1.64"/><path id="Caminho_194" data-name="Caminho 194" class="cls-7" d="M295.58,456c-2.47-.06-6.14,2.2-8.61,3s-5,1.9-7.41,2.92c-1.9.79-6.89,3.73-2.09,3.78,5.41.06,10.69-2.32,15-5.37a30.71,30.71,0,0,0,3.07-2.09c2-1.81.28-1.79-1.77-1.83"/><path id="Caminho_195" data-name="Caminho 195" class="cls-7" d="M331.31,418.27c-2.84,5.52-6.35,10.62-8.64,16.46a14.71,14.71,0,0,0-1.2,4.26c-.05,1.75.28,1.76,1.45.87,4.64-3.56,7.81-12.06,9.62-17.74a14.69,14.69,0,0,0,.9-3.46c-.05-1.47-.93-1.6-1.84-.06"/></g><g id="Grupo_162" data-name="Grupo 162"><path id="Caminho_196" data-name="Caminho 196" class="cls-7" d="M1032,330.84c-4.07-4.1-7.69-7.83-12.56-11-1.87-1.25-11.67-6.4-8.07-.61,2.95,4.75,8.24,8.53,13.28,10.95a31,31,0,0,0,4.63,2.27c1.92.52,3.58-.58,1.89-2.53"/><path id="Caminho_197" data-name="Caminho 197" class="cls-7" d="M1019.45,310.13c-1.63-5.54-3-10.53-5.74-15.7-1-2-7.12-11.25-6.67-4.49.37,5.55,3.19,11.41,6.41,16a31.54,31.54,0,0,0,2.94,4.23c1.42,1.4,3.34,1.26,2.78-1.26"/><path id="Caminho_198" data-name="Caminho 198" class="cls-7" d="M1020.16,282.14c-.39,4.71-.79,9,0,13.64.29,1.81,2.78,10.48,4.69,5.06,1.57-4.44,1-9.68-.5-14a21.22,21.22,0,0,0-1.29-4c-.84-1.42-2.69-1.76-3,.34"/><path id="Caminho_199" data-name="Caminho 199" class="cls-7" d="M981.59,318.82a76.72,76.72,0,0,0-12.44,7c-1.55,1.14-8.66,7.39-3.12,6,4.54-1.17,9.12-4.32,12.6-7.6a29.4,29.4,0,0,0,3.23-3c1-1.34.75-2.84-1.27-2"/><path id="Caminho_200" data-name="Caminho 200" class="cls-7" d="M1034.1,297.77c.7-5.12,3-9.79,3.3-15,.07-1.31.38-9.62-2.67-5.76-1.4,1.78-1.64,5.51-2,7.72a34.22,34.22,0,0,0-.6,6.85c0,1.25,0,2.44.1,3.68.06.72.48,3.78,1.69,1.91"/><path id="Caminho_201" data-name="Caminho 201" class="cls-7" d="M977.84,334.76c-.69,2.51.57,6.95.77,9.73s.57,5.66.94,8.46c.28,2.19,1.86,8.17,3.13,3.27,1.43-5.54.47-11.66-1.38-17a32.48,32.48,0,0,0-1.25-3.76c-1.24-2.54-1.65-.82-2.22,1.27"/><path id="Caminho_202" data-name="Caminho 202" class="cls-7" d="M990.26,334.43c2.06-1.38,3.75-5.34,5.29-7.46s3-4.41,4.38-6.64c1.1-1.75,3.49-7-.46-4.3-4.47,3.07-7.41,8.05-9.22,13.05a30.82,30.82,0,0,0-1.3,3.47c-.57,2.6.79,1.62,2.5.48"/><path id="Caminho_203" data-name="Caminho 203" class="cls-7" d="M1004.81,319.47c.12,6.21-.56,12.36.2,18.58a14.86,14.86,0,0,0,1,4.33c.78,1.56,1.09,1.42,1.69.08,2.4-5.34,1.15-14.33.05-20.18a14.67,14.67,0,0,0-.85-3.47c-.74-1.27-1.58-1-1.65.81"/></g></g></svg>