<?xml version="1.0" encoding="utf-8"?>
<!-- Generator: Adobe Illustrator 24.2.0, SVG Export Plug-In . SVG Version: 6.00 Build 0)  -->
<svg version="1.1" id="Camada_1" xmlns="http://www.w3.org/2000/svg" xmlns:xlink="http://www.w3.org/1999/xlink" x="0px" y="0px"
	 viewBox="0 0 1280 558" style="enable-background:new 0 0 1280 558;" xml:space="preserve">
<style type="text/css">
	.st0{fill:#EFCC3E;}
	.st1{fill:#F49725;}
	.st2{fill:#83C8E8;}
	.st3{fill:#B25AA7;}
	.st4{fill:#4B8ED2;}
	.st5{fill:#E94941;}
	.st6{fill:#50A545;}
	.st7{clip-path:url(#SVGID_2_);}
	.st8{fill:#F1EEE9;}
	.st9{font-family:'Poppins-Bold';}
	.st10{font-size:20px;}
</style>
<g id="Grupo_345">
	<path id="Caminho_127" class="st0" d="M461.5,443c-5.5,0.4-11,0.9-16.4-0.1c-4.4-0.8-14.4-3-15-3.2c-0.4-0.2-0.8-0.6-1-0.9
		c-6.3-6.8-19-22.1-19.2-22.8c-0.2-0.6-0.3-1.3-0.3-2c-0.4-9.5,2.9-30.7,2.9-30.7c0.5-0.6,1-1.3,1.5-1.8c4.2-4,8.6-7.6,13.3-10.9
		l10.6-7.9l2.8-0.5c10.2,0.1,17.8,2.1,27.8,3.9c0.8,0.1,1.5,0.5,1.9,1.2l14.8,18.3c1.6,2,2.8,5.1,5,6.9l0.1,1.3
		c-1.2,10.8-1.8,18.5-3,29.4c0,0-3.7,3.6-5.9,4.6c-2.2,1.1-4.2,2.5-6,4.1C470.9,435.5,461.5,443,461.5,443z"/>
	<path id="Caminho_228" class="st1" d="M543.6,89.1c-2.7-0.9-5.3-2.1-7.7-3.6c-1.9-1.3-6.1-4.6-6.3-4.8c-0.1-0.2-0.2-0.4-0.3-0.7
		c-1.5-4.6-4.1-14.6-4.1-14.9c0.1-0.3,0.2-0.7,0.3-1c1.9-4.6,8.1-13.8,8.1-13.8c0.4-0.2,0.7-0.4,1.1-0.5c2.8-0.9,5.7-1.7,8.7-2.2
		l6.7-1.4l1.4,0.4c4.8,2.3,7.9,4.9,12.2,7.9c0.4,0.2,0.6,0.6,0.7,1l2.9,11.8c0.3,1.3,0.2,3,0.8,4.3l-0.3,0.6
		c-3,4.8-4.9,8.3-7.9,13.2c-1.2,0.4-2.5,0.7-3.8,0.9c-1.3,0.1-2.5,0.3-3.7,0.7C549.7,87.6,543.6,89.1,543.6,89.1z"/>
	<path id="Caminho_179" class="st2" d="M78.7,219c-6-1.1-12.1-2.2-17.6-4.8c-4.5-2.1-14.6-7.4-15.1-7.8c-0.4-0.4-0.7-0.8-0.9-1.3
		c-4.8-9.1-14-29.2-14.1-30c0-0.8,0-1.5,0.2-2.2c2.4-10.3,11.9-32.1,11.9-32.1c0.7-0.6,1.4-1.1,2.1-1.5c5.6-3,11.4-5.7,17.5-7.9
		l13.7-5.4l3.1,0.3c10.9,3.1,18.5,7.4,28.7,12.1c0.8,0.3,1.5,1,1.7,1.8l10.6,23.8c1.1,2.6,1.6,6.2,3.4,8.8l-0.3,1.4
		c-4.5,11.3-7.2,19.4-11.7,30.6c0,0-5,2.8-7.6,3.2c-2.6,0.6-5.2,1.5-7.6,2.7C90.8,213.6,78.7,219,78.7,219z"/>
	<g id="Grupo_145">
		<path id="Caminho_128" class="st0" d="M376,93.9c0,2.2-0.3,4.3-0.3,6.6c0,1.7-0.7,7.3,0.6,8.6c2,2,13.1,0.5,16.1,1.1
			c1.9-4.9-0.6-11-0.7-16c-5.3-0.8-10.8-0.1-16-0.3"/>
		<path id="Caminho_129" class="st0" d="M408.9,93.9c0,2.2-0.3,4.3-0.3,6.6c0,1.7-0.7,7.3,0.6,8.6c2,2,13.1,0.5,16.1,1.1
			c1.9-4.9-0.6-11-0.7-16c-5.3-0.8-10.8-0.1-16-0.3"/>
		<path id="Caminho_130" class="st1" d="M358.7,110.4c0,2.2-0.3,4.3-0.3,6.6c0,1.7-0.7,7.3,0.6,8.6c2,2,13.1,0.5,16.1,1.1
			c1.9-4.9-0.6-11-0.7-16c-5.3-0.8-10.8-0.1-16-0.3"/>
		<path id="Caminho_131" class="st3" d="M408.9,110.4c0,2.2-0.3,4.3-0.3,6.6c0,1.7-0.7,7.3,0.6,8.6c2,2,13.1,0.5,16.1,1.1
			c1.9-4.9-0.6-11-0.7-16c-5.3-0.8-10.8-0.1-16-0.3"/>
		<path id="Caminho_132" class="st1" d="M392.9,77.5c0,2.2-0.3,4.3-0.3,6.6c0,1.7-0.7,7.3,0.6,8.6c2,2,13.1,0.5,16.1,1.1
			c1.9-4.9-0.6-11-0.7-16c-5.3-0.8-10.8-0.1-16-0.3"/>
		<path id="Caminho_133" class="st4" d="M409.7,93.7c-2.2,0-4.3-0.3-6.6-0.3c-1.7,0-7.3-0.7-8.6,0.6c-2,1.9-0.5,13.1-1.1,16.1
			c4.9,1.9,11-0.6,16-0.7c0.8-5.3,0.1-10.8,0.3-16"/>
		<path id="Caminho_134" class="st5" d="M391.1,127c-2.2,0-4.3-0.3-6.6-0.3c-1.7,0-7.3-0.7-8.6,0.6c-2,2-0.5,13.1-1.1,16.1
			c4.9,1.9,11-0.6,15.9-0.7c0.8-5.2,0.1-10.8,0.3-16"/>
		<path id="Caminho_135" class="st6" d="M375.9,126.9c2.2-0.1,4.3,0.2,6.6,0.1c1.7,0,7.3,0.5,8.6-0.8c2-2,0.2-13.1,0.7-16.1
			c-4.9-1.8-11,0.9-15.9,1.1c-0.7,5.3,0.2,10.8,0.1,16"/>
	</g>
	<g id="Grupo_152">
		<path id="Caminho_128-2" class="st3" d="M1084.8,101.7c0,2.8-0.4,5.6-0.4,8.5c0,2.2-0.9,9.4,0.8,11.1c2.5,2.6,16.9,0.7,20.8,1.4
			c2.5-6.3-0.8-14.2-0.9-20.6c-6.8-1-13.9-0.1-20.7-0.4"/>
		<path id="Caminho_129-2" class="st0" d="M1149.8,99.9c0,2.8-0.4,5.6-0.4,8.5c0,2.2-0.9,9.4,0.8,11.1c2.5,2.6,16.9,0.7,20.8,1.4
			c2.5-6.3-0.8-14.2-0.9-20.6c-6.8-1-13.9-0.1-20.7-0.4"/>
		<path id="Caminho_131-2" class="st3" d="M1127.3,140.9c0,2.8-0.4,5.6-0.4,8.5c0,2.2-0.9,9.4,0.8,11.1c2.5,2.6,16.9,0.7,20.8,1.4
			c2.5-6.3-0.8-14.2-0.9-20.6c-6.8-1-13.9-0.1-20.7-0.4"/>
		<path id="Caminho_132-2" class="st1" d="M1129.2,78.7c0,2.8-0.4,5.6-0.4,8.5c0,2.2-0.9,9.4,0.8,11.1c2.5,2.6,16.9,0.7,20.8,1.4
			c2.5-6.3-0.8-14.2-0.9-20.6c-6.8-1-13.9-0.1-20.7-0.4"/>
		<path id="Caminho_135-2" class="st6" d="M1107.2,142.4c2.8-0.1,5.6,0.2,8.5,0.2c2.2,0,9.4,0.6,11.1-1c2.5-2.6,0.2-16.9,0.9-20.8
			c-6.4-2.3-14.2,1.2-20.6,1.4c-0.8,6.8,0.3,13.9,0.2,20.7"/>
	</g>
	<g id="Grupo_146">
		<path id="Caminho_136" class="st0" d="M869.2,362.3c-4.1-4.8-9.6-9.2-14.3-13.6c-3.7-3.5-9.9-9.6-14.7-10.9c-2,12-1.8,25-1.5,37
			c5-1,11.3-5.1,16.6-7c4.8-1.8,10.6-3.5,14.3-5.4"/>
		<path id="Caminho_137" class="st1" d="M815.8,317.3c1.2,1.9,3.4,3.6,4.9,5.3c2.1,2.2,4.4,4.2,6.8,6c2.1,1.6,4.2,3.4,6.3,5
			s4.2,3.7,6.5,4.9c1.4-2.8,1.2-6.6,2.3-9.6c1-2.6,1.3-5.5,2.2-8.2c1.8-4.9,3-9.9,3.7-15c-11.3,3.3-22.5,7.4-33.5,11
			c0.1,0.2,0.2,0,0.3-0.1"/>
		<path id="Caminho_138" class="st4" d="M816.4,317.3c-0.2,3.3-1.2,6.3-1.7,9.5c-0.5,3.7-0.5,2.8-1,6.5c-0.6,4.2-0.4,7.8-1.5,11.8
			c-0.7,2.6-2.2,7.8-2.3,10.5c6.2-4.9,10.1-5.7,17.3-9.5c4.3-2.3,8.4-4.9,12.3-7.7C839.6,338.5,824.5,323.8,816.4,317.3z"/>
		<path id="Caminho_321" class="st5" d="M737.5,490.7c1.2,1.9,3.3,3.6,4.9,5.3c2.1,2.2,4.4,4.2,6.8,6c2.1,1.6,4.2,3.4,6.3,5
			s4.2,3.7,6.5,4.9c1.4-2.8,1.2-6.6,2.3-9.6c1-2.6,1.3-5.5,2.2-8.2c1.8-4.9,3-9.9,3.7-15c-11.3,3.3-22.5,7.4-33.5,11
			c0.1,0.2,0.1,0,0.3-0.1"/>
	</g>
	<g id="Grupo_141">
		<path id="Caminho_113" class="st0" d="M929.1,97.4c-5.5,3.4-10.8,8.4-15.9,12.6c-4.1,3.3-11.2,8.7-13.2,13.3
			c11.9,3.8,25.2,5.4,37.5,6.9c-0.3-5.3-3.5-12.2-4.8-17.9c-1.2-5.2-2-11.3-3.4-15.4"/>
		<path id="Caminho_114" class="st0" d="M1002.7,117.4c-5.8,2.9-8.5,7.8-14.1,11.4c-4.4,2.9-12.1,7.5-14.5,11.9
			c11.5,5,22,7,34.1,9.7c0.1-5.8-0.8-11.6-2.6-17.1C1003.8,128.1,1002.7,117.4,1002.7,117.4z"/>
		<path id="Caminho_115" class="st6" d="M937.3,130.4c5.8,2.8,12.9,4.6,19.1,6.8c5,1.7,13.3,4.9,18.3,4
			c-3.2-12.1-8.8-24.2-14.1-35.3c-4.3,3.1-8.5,9.5-12.6,13.6c-3.8,3.7-8.5,7.8-11.2,11.1"/>
		<path id="Caminho_116" class="st6" d="M955.5,192.7c5,2.4,9.5,1.8,14.9,3.6c4.3,1.5,12.2,5.2,17.5,5.7
			c-2.7-10.5-7.6-20.9-12.2-30.6c-3.7,2.7-7.3,8.2-10.9,11.7c-3.2,3.2-7.3,6.7-9.7,9.6"/>
		<path id="Caminho_117" class="st3" d="M955.9,193.1c-0.1,2.2,0.7,4.7,0.9,6.9c0.4,2.9,1.1,5.7,2,8.5c0.7,2.5,1.4,5,2.2,7.4
			s1.3,5.3,2.4,7.5c2.6-1.4,4.6-4.5,7.1-6.2c2.3-1.5,4.1-3.6,6.3-5.2c4.1-2.9,7.9-6.1,11.3-9.8c-10.7-3.7-21.9-6.7-32.5-9.9
			c0,0.2,0.1,0.1,0.3,0"/>
		<path id="Caminho_118" class="st1" d="M974.7,172.3c1.9,1.8,4.7,3,6.9,4.4c2.9,1.8,6,3.4,9.2,4.6c2.8,1.2,5.6,2.6,8.4,3.6
			s5.8,2.9,8.5,3.5c0.7-3.5-0.6-7.6-0.2-11.2c0.3-3.2-0.1-6.4,0.1-9.6c0.5-5.8,0.4-11.7-0.2-17.6c-11.4,6.8-22.6,14.7-33.6,21.8
			c0.2,0.2,0.2-0.1,0.3-0.2"/>
		<path id="Caminho_119" class="st1" d="M875.7,145.2c2.1-1,4.1-2.9,6.1-4.2c2.5-1.8,4.9-3.8,7.1-6.1c2-1.9,4.1-3.8,6-5.7
			c1.9-2,4.4-3.8,5.9-5.9c-2.6-1.8-6.5-2.2-9.4-3.7c-2.5-1.4-5.4-2.1-8-3.4c-4.7-2.5-9.6-4.5-14.8-5.9c1.7,11.9,4.3,24,6.4,35.7
			c0.2-0.1,0-0.2-0.1-0.3"/>
		<path id="Caminho_120" class="st2" d="M937.6,131.4c1.5,4.7,0.8,11.8,1.1,17.2c0.2,5.2,0.2,10.3,0.5,15.6c2.5-1.1,6.2-4.9,8.8-6.6
			c2.9-1.9,5.5-4.2,8.6-6c2.8-1.6,5.6-3.3,8.3-4.9c2.6-1.5,5.4-4.2,8.2-5c0-0.2,0-0.4,0-0.5c-3.3-1.1-6.9-0.8-10.3-2s-6.6-2-9.9-3.2
			c-4.6-1.7-11.4-2.4-15.1-5.7"/>
		<path id="Caminho_121" class="st2" d="M889.2,177.3c0.2-4.8-3.4-10.3-4.9-14.7c-1.1-3.1-2.4-6.2-3.6-9.3s-3.7-5.7-4.8-8.9
			c0.1-0.1,0.3-0.2,0.4-0.3c2.4,1.5,6.1,2,8.8,3c2.9,1.1,5.9,2.1,8.8,3.2c3.2,1.2,6.5,1.6,9.8,2.7c2.9,0.9,7.3,3.8,10.4,2.4
			c-3.8,3.5-7.7,6.6-11.5,10C898.6,168.9,889.3,177.3,889.2,177.3L889.2,177.3z"/>
		<path id="Caminho_122" class="st5" d="M939.3,164.2c5.5-3.3,10.5-9.5,16-12.9c6-3.8,12.8-6.5,18.8-10.4c0.2,5.6,1.2,12.6,1.7,18.1
			c0.5,4.5,0.1,9,0.3,13.5c-3,0.5-8.2-1.7-11.2-2.6c-3.7-1.1-7.5-2.3-11.3-3.1C948.9,165.7,939.3,164.2,939.3,164.2z"/>
		<path id="Caminho_123" class="st5" d="M939.3,163.7c5.4,1.6,12.4,1.2,18,2.8c6.1,1.7,11.8,4.5,18,6.1c-3.6,3.4-7.7,8.2-11.1,11.8
			c-2.7,2.9-5.9,5.4-8.8,8.1c-2.1-1.7-3.6-6.3-4.8-8.9c-1.4-3.1-2.9-6.2-4.5-9.2C943.9,170.8,939.3,163.7,939.3,163.7z"/>
		<path id="Caminho_124" class="st5" d="M889.1,177.6c-0.7-4.3-3.2-12.7-5.2-16.7c-2.5-5-6-11.2-8.2-16.3
			c-4.2,5.8-7.8,9.2-13.1,14.2c-4.8,4.5-8,7.3-12,12.3C850.7,171.1,886.5,179.1,889.1,177.6z"/>
		<path id="Caminho_125" class="st4" d="M975.3,173.2c2.5-2.2,5.5-3.6,8.2-5.6c3.1-2.3,2.4-1.6,5.5-3.9c3.5-2.5,6-5.3,9.7-7.4
			c2.4-1.4,7.3-4,9.4-5.8c-8-1.1-11.4-3.4-19.4-6c-4.8-1.5-9.6-2.7-14.5-3.6C974.3,140.9,974.3,162.5,975.3,173.2z"/>
		<path id="Caminho_126" class="st4" d="M875.7,144.5c3.3,0.6,6.3,2.2,9.5,3.1c3.7,1.1,2.8,0.9,6.5,2c4.2,1.2,7.8,1.5,11.8,3.2
			c2.6,1.1,7.7,3.3,10.4,3.9c-4.1-7-4.3-11.1-7.1-19c-1.7-4.7-3.7-9.2-6-13.7C900.7,124.1,883.6,137.3,875.7,144.5z"/>
	</g>
	<g id="Grupo_147">
		<path id="Caminho_139" class="st1" d="M63.5,393c-1.4,6.1-1.7,13.1-2.4,19.5c-0.6,5-1.8,13.6,0,18.1c10.8-5.5,21-13.4,30.4-20.7
			c-3.8-3.4-10.7-6-15.4-9c-4.3-2.8-9.1-6.4-12.8-8.2"/>
		<path id="Caminho_140" class="st0" d="M127.6,356.8c-2,5.9-0.6,11.2-1.9,17.4c-1.1,5-3.2,13.4-1.8,18c11.3-4.4,19.9-10.1,30-16.5
			c-3.9-4-8.4-7.4-13.4-9.9C135.7,363.3,127.6,356.8,127.6,356.8z"/>
		<path id="Caminho_141" class="st0" d="M149.3,333.6c-5.6-2.8-11-2-17-4.1c-4.8-1.7-12.8-4.9-17.7-4.1c2.9,11.8,7.5,21,12.5,31.9
			c4.5-3.3,8.4-7.4,11.6-12C141.8,340.8,149.3,333.6,149.3,333.6z"/>
		<path id="Caminho_142" class="st2" d="M91.5,410.2c5.9-2,12-5.6,17.8-8.3c4.6-2.2,12.5-5.7,15.3-9.7
			c-10.4-6.2-22.5-10.7-33.8-14.7c-0.9,5,0.6,12.3,0.6,17.9c0,5.1-0.6,11.1-0.2,15.2"/>
		<path id="Caminho_143" class="st6" d="M146.4,440.6c5.1-1.8,8.3-3.9,13.3-6.3c4-1.9,10.2-3.3,14.2-6.5c-9-5.4-18.3-12-28.1-15.5
			c-0.7,4.4,0.5,10.6,0.5,15.5c0,4.4-0.5,9.6-0.1,13.2"/>
		<path id="Caminho_144" class="st1" d="M145.7,413.6c2.5-0.1,5.2-1.2,7.7-1.6c3.2-0.7,6.4-1.8,9.5-3.1c2.7-1.1,5.6-2,8.2-3.2
			s5.9-1.9,8.2-3.4c-1.9-2.9-5.5-4.8-7.7-7.5c-2-2.4-4.5-4.3-6.5-6.7c-3.6-4.4-7.7-8.4-12.1-11.9c-3.2,12.5-5.6,25.4-8.3,37.8
			c0.3,0,0.1-0.1,0-0.4"/>
		<path id="Caminho_145" class="st1" d="M59.2,462.2c0.8-2.1,0.9-4.8,1.3-7c0.5-3,0.8-6,0.8-9c0.1-2.6,0.2-5.4,0.2-8s0.5-5.6,0-8.1
			c-3,0.5-5.9,3-9,3.8c-2.7,0.8-5.2,2.2-7.8,3.1c-4.9,1.5-9.7,3.5-14.2,5.9c9.3,7,19.3,13.6,28.6,20.2c0.1-0.2-0.1-0.1-0.3-0.1"/>
		<path id="Caminho_146" class="st5" d="M88.9,445.1c-1.6-1.6-4-2.8-5.8-4.2c-2.5-1.7-5.1-3.2-7.8-4.5c-2.4-1.2-4.8-2.5-7.2-3.6
			s-4.9-2.8-7.3-3.5c-0.8,3,0.1,6.6-0.4,9.8c-0.5,2.8-0.2,5.6-0.6,8.4c-0.8,5.1-1,10.2-0.7,15.4c10.3-5.4,20.5-11.7,30.5-17.3
			c-0.2-0.2-0.1,0-0.3,0.2"/>
		<path id="Caminho_147" class="st6" d="M92.4,410.6c4.2,2.2,8.6,7.5,12.4,11.1c3.7,3.5,7.2,7,11,10.4c1-2.5,0.9-7.6,1.6-10.5
			c0.7-3.3,0.9-6.6,1.8-9.9c0.8-3,1.6-6.1,2.4-9.1c0.8-2.8,0.9-6.5,2.2-9c-0.1-0.2-0.2-0.3-0.3-0.4c-3.1,1.5-5.3,4.1-8.5,5.7
			s-5.9,3.1-9,4.5c-4.3,2-9.5,6-14.2,6.3"/>
		<path id="Caminho_148" class="st0" d="M90.9,377.4c-1.9,3.8,0.5,10.8,0.2,14.9c-0.2,2.9-0.1,5.8-0.2,8.7s1.2,5.8,1.1,8.8
			c-0.2,0.1-0.3,0.1-0.5,0.1c-1.6-2-4.2-1.8-6.2-3.5s-5.1-2.9-7.3-4.7c-2.4-2-4.8-2.8-7.3-4.7c-2.2-1.6-5-3.4-7.5-5.2
			c4.7-1.6,8.3-4.4,12.7-7.6c3.2-2.1,6.6-3.9,10.2-5.2L90.9,377.4z"/>
		<path id="Caminho_149" class="st4" d="M115.9,432c1.5-6,0.8-13.6,2.2-19.8c1.6-6.7,4.4-13.2,5.8-19.9c3.9,3.7,9.3,7.9,13.5,11.3
			c3.3,2.8,6.2,6.1,9.4,9.1c-1.8,2.4-6.8,4.4-9.5,5.8c-3.3,1.8-6.7,3.5-9.9,5.5C123.5,426.6,115.9,432,115.9,432z"/>
		<path id="Caminho_150" class="st5" d="M91.3,377c-4.5-3.4-9.3-6.3-14.4-8.8c-4.9-2.1-11.1-4.6-15.9-7c1.3,6.2,1.4,10.4,1.5,16.6
			c0.1,5.6,0,9.2,0.9,14.7C63.4,392.4,90.7,379.4,91.3,377z"/>
		<path id="Caminho_151" class="st0" d="M163,489.5c0.2-3.3,1.3-6.3,1.9-9.4c0.6-3.7,0.5-2.8,1.1-6.4c0.7-4.1,0.5-7.7,1.7-11.7
			c0.7-2.6,2.3-7.7,2.5-10.4c-6.2,4.8-10.2,5.5-17.4,9.1c-4.3,2.2-8.4,4.7-12.4,7.4C140.3,467.9,155,482.8,163,489.5z"/>
		<path id="Caminho_152" class="st4" d="M146.1,439.8c-2.7,1.6-4.1,1.2-6.9,2.6c-3.2,1.5-3.4,1.5-6.6,3.1c-3.1,1.4-6.2,2.6-9.5,3.6
			c-3.2,1-6.4,2.3-9.5,3.8c6.7,2.4,9.1,5.2,15.4,9.1c3.8,2.2,7.7,4.2,11.7,5.9C140.6,467.8,144.4,449.9,146.1,439.8z"/>
		<path id="Caminho_153" class="st4" d="M217.7,350.1c-2.7,1.6-4.1,1.2-6.9,2.6c-3.2,1.5-3.4,1.5-6.6,3c-3.1,1.4-6.2,2.6-9.5,3.6
			c-3.2,1-6.4,2.3-9.5,3.8c6.1,4.5,6.1,7.7,12.4,11.5c3.8,2.3,9.2,10,13.3,11.8C210.9,386.4,216.1,360.3,217.7,350.1z"/>
		<path id="Caminho_154" class="st3" d="M153.3,377c0.8-1.1,4.1-1.8,5.5-2.4c2.4-1.1,4.7-2.5,7.1-3.6c3.2-1.5,6.4-2.8,9.7-4
			s6.4-2.6,9.5-4.1c0.7,4.5-0.8,9.8-1.4,14.2c-0.5,3.2-1,6.2-1.6,9.4c-0.6,2.9-1.1,5.6-1.5,8.6c-0.3,2,0,5-1.1,6.8
			c-2.4-0.6-4.4-3.9-6.1-5.6c-1.4-1.5-2.9-2.9-4.4-4.4c-3.2-3.5-6.6-6.8-10.2-9.9c-1.7-1.4-4-4.9-6.1-5.5c-0.2,0.3,0.1,0.3,0.1,0.5"
			/>
	</g>
	<path id="Caminho_155" class="st6" d="M1158.3,387.3c1.2-5.9,2.4-11.8,5-17.2c2.1-4.4,7.4-14.2,7.9-14.7c0.4-0.3,0.8-0.6,1.3-0.8
		c9-4.5,28.9-13.3,29.6-13.3c0.7,0,1.5,0.1,2.2,0.3c10.1,2.5,31.3,12.2,31.3,12.2c0.5,0.7,1,1.4,1.5,2.1c2.9,5.6,5.4,11.3,7.4,17.2
		l5,13.5l-0.3,3c-3.2,10.6-7.5,18-12.4,28c-0.3,0.8-1,1.4-1.8,1.7l-23.6,10c-2.5,1.1-6.2,1.5-8.7,3.1l-1.4-0.3
		c-11-4.6-18.9-7.4-29.8-12c0,0-2.6-5-3-7.5c-0.5-2.6-1.4-5.1-2.6-7.5C1163.4,399.3,1158.3,387.3,1158.3,387.3z"/>
	<g id="Grupo_151">
		<path id="Caminho_156" class="st3" d="M721.3,76.5c1.5,6.2,3.7,10.2,6,16.4c1.8,4.9,2.8,12.4,6.2,17.6
			c7.3-10.1,16.2-20.4,21.4-31.5c-5.1-1.3-12.6-0.5-18.4-1.1c-5.2-0.5-11.3-1.6-15.6-1.6"/>
		<path id="Caminho_157" class="st6" d="M765.8,120.1c-1.7-3.4-1-5-2.3-8.4c-1.5-4-1.4-4.2-2.9-8.2c-1.7-4.5-2.1-7-3.2-11.6
			c-0.7-3-2.1-8.8-3.4-11.6c-3.6,7.7-7.2,10.2-12.4,17.2c-3,4.2-5.8,8.6-8.3,13.2C733.3,110.6,754,117,765.8,120.1z"/>
	</g>
	<g id="Grupo_149">
		<path id="Caminho_159" class="st0" d="M905.3,459.9c0.1,2.8,0.7,5.6,0.8,8.4c0.1,2.2,1.3,9.4-0.3,11.1c-2.4,2.7-16.8,1.4-20.7,2.4
			c-2.8-6.2,0.2-14.2,0-20.6c6.7-1.3,13.9-0.7,20.6-1.3"/>
		<path id="Caminho_160" class="st1" d="M1008.8,454.7c0.1,2.8,0.7,5.6,0.8,8.4c0.1,2.2,1.3,9.3-0.3,11.1
			c-2.4,2.7-16.8,1.4-20.7,2.4c-2.8-6.2,0.2-14.2,0-20.6c6.7-1.3,13.9-0.7,20.6-1.3"/>
		<path id="Caminho_161" class="st3" d="M946,457.6c0.1,2.8,0.7,5.6,0.8,8.4c0.1,2.2,1.3,9.4-0.3,11.1c-2.4,2.7-16.8,1.4-20.7,2.4
			c-2.8-6.2,0.2-14.2,0-20.6c6.7-1.3,13.9-0.7,20.6-1.3"/>
		<path id="Caminho_162" class="st5" d="M925.2,480.3c0.1,2.8,0.7,5.6,0.8,8.4c0.1,2.2,1.3,9.4-0.2,11.1c-2.4,2.7-16.8,1.4-20.7,2.4
			c-2.8-6.2,0.2-14.2,0-20.6c6.7-1.3,13.9-0.7,20.6-1.3"/>
		<path id="Caminho_163" class="st4" d="M946.8,478.5c2.8-0.1,5.6-0.6,8.5-0.8c2.2-0.1,9.3-1.3,11.1,0.3c2.7,2.4,1.4,16.8,2.4,20.7
			c-6.2,2.8-14.2-0.2-20.6,0c-1.3-6.7-0.7-13.9-1.3-20.6"/>
		<path id="Caminho_164" class="st3" d="M968,478.1c2.8-0.1,5.6-0.6,8.5-0.8c2.2-0.1,9.3-1.3,11.1,0.3c2.7,2.4,1.4,16.8,2.4,20.7
			c-6.2,2.8-14.2-0.2-20.6,0c-1.3-6.7-0.7-13.9-1.3-20.6"/>
		<path id="Caminho_165" class="st0" d="M1008.5,434.8c2.8-0.1,5.6-0.7,8.4-0.8c2.2-0.1,9.3-1.3,11.1,0.2c2.7,2.4,1.4,16.8,2.4,20.7
			c-6.2,2.8-14.2-0.2-20.6,0c-1.3-6.7-0.7-13.9-1.3-20.6"/>
		<path id="Caminho_166" class="st2" d="M987.7,477.1c-2.8,0-5.6,0.5-8.5,0.6c-2.2,0-9.4,1.1-11.1-0.6c-2.6-2.5-1-16.9-1.8-20.8
			c6.2-2.6,14.2,0.5,20.6,0.5c1.2,6.8,0.4,13.9,0.8,20.6"/>
	</g>
	<g id="Grupo_154">
		<path id="Caminho_167" class="st6" d="M338.5,298.5c-2.3,0-4.5-0.3-6.9-0.3c-1.8,0-7.6-0.7-9,0.6c-2.1,2-0.5,13.7-1.2,16.9
			c5.1,2,11.6-0.7,16.8-0.7c0.8-5.5,0.1-11.4,0.3-16.8"/>
		<path id="Caminho_168" class="st0" d="M339.3,265.4c-2.3,0-4.5-0.3-6.9-0.3c-1.8,0-7.6-0.7-9,0.6c-2.1,2-0.5,13.7-1.2,16.9
			c5.1,2,11.6-0.7,16.8-0.7c0.8-5.5,0.1-11.3,0.3-16.8"/>
		<path id="Caminho_169" class="st1" d="M322,214.2c-2.3,0-4.5-0.3-6.9-0.3c-1.8,0-7.6-0.7-9,0.6c-2.1,2-0.5,13.7-1.2,16.9
			c5.1,2,11.6-0.7,16.8-0.7c0.8-5.5,0.1-11.4,0.3-16.8"/>
		<path id="Caminho_170" class="st3" d="M322,265.4c-2.3,0-4.5-0.3-6.9-0.3c-1.8,0-7.6-0.7-9,0.6c-2.1,2-0.5,13.7-1.2,16.9
			c5.1,2,11.6-0.7,16.8-0.7c0.8-5.5,0.1-11.3,0.3-16.8"/>
		<path id="Caminho_171" class="st3" d="M268.8,300.8c-2.3,0-4.5-0.3-6.9-0.3c-1.8,0-7.7-0.7-9,0.6c-2.1,2-0.6,13.7-1.2,16.9
			c5.1,2,11.6-0.7,16.7-0.7c0.8-5.5,0.1-11.4,0.3-16.8"/>
		<path id="Caminho_172" class="st1" d="M357.5,265.8c0-2.3,0.3-4.5,0.3-6.9c0-1.8,0.7-7.6-0.6-9c-2-2.1-13.7-0.5-16.9-1.1
			c-2,5.1,0.7,11.6,0.7,16.7c5.5,0.8,11.3,0.1,16.8,0.3"/>
		<path id="Caminho_173" class="st1" d="M286,283.1c-2.3,0-4.5-0.3-6.9-0.3c-1.8,0-7.6-0.7-9,0.6c-2.1,2-0.5,13.7-1.2,16.9
			c5.1,2,11.6-0.7,16.8-0.7c0.8-5.5,0.1-11.4,0.3-16.8"/>
		<path id="Caminho_174" class="st4" d="M305,265.5c0-2.3,0.3-4.5,0.3-6.9c0-1.8,0.7-7.6-0.6-9c-2-2.1-13.7-0.5-16.9-1.2
			c-2,5.1,0.7,11.6,0.7,16.8c5.5,0.8,11.3,0.1,16.8,0.3"/>
		<path id="Caminho_175" class="st5" d="M304.5,248.3c0-2.3,0.3-4.5,0.3-6.9c0-1.8,0.7-7.6-0.6-9c-2-2.1-13.7-0.5-16.9-1.2
			c-2,5.1,0.7,11.6,0.7,16.8c5.5,0.8,11.3,0.1,16.8,0.3"/>
		<path id="Caminho_176" class="st5" d="M375.9,249.7c0-2.3,0.3-4.5,0.3-6.9c0-1.8,0.7-7.6-0.6-9c-2-2.1-13.7-0.5-16.9-1.2
			c-2,5.1,0.7,11.6,0.7,16.8c5.5,0.8,11.4,0.1,16.8,0.3"/>
		<path id="Caminho_177" class="st6" d="M304.7,232.2c0.1,2.3-0.2,4.6-0.1,6.9c0,1.8-0.5,7.7,0.9,9c2.1,2,13.7,0.2,17,0.7
			c1.9-5.2-1-11.5-1.2-16.7c-5.5-0.7-11.3,0.2-16.8,0.1"/>
		<path id="Caminho_178" class="st4" d="M321.8,282.3c-5.4,0-11.6-1.4-16.8-0.6c-0.3,6-0.6,12.2-0.4,18.2c2-1.7,7.1-1.6,9.6-1.8
			c1.4-0.1,6,0.6,7-0.2s0.4-6.9,0.5-8.6c0-1.1,0.4-2.3,0.4-3.3s-0.5-2.3-0.4-3.5"/>
	</g>
	<g id="Grupo_160">
		<path id="Caminho_180" class="st6" d="M199.8,136.6c2-5.4,3.8-10.3,4.7-16c0.3-2.2,0.9-13.3-2.9-7.6c-3.1,4.7-4.2,11.1-4.3,16.7
			c-0.2,1.7-0.2,3.4-0.1,5.1c0.3,2,2,3,3.1,0.6"/>
		<path id="Caminho_181" class="st6" d="M213.3,116.5c4.3-3.8,8.3-7.2,11.8-11.8c1.4-1.8,7.2-11.2,1.2-7.9c-4.9,2.7-9,7.7-11.8,12.6
			c-1,1.4-1.8,2.9-2.6,4.4c-0.7,1.9,0.3,3.6,2.3,2"/>
		<path id="Caminho_182" class="st6" d="M238.9,105.4c-4.4,1.6-8.4,3.1-12.4,5.7c-1.5,1-8.3,6.9-2.6,6.4c4.7-0.5,9.2-3.2,12.5-6.4
			c1.1-0.9,2.1-1.8,3.1-2.9c0.9-1.4,0.5-3.2-1.6-2.6"/>
		<path id="Caminho_183" class="st6" d="M189.4,85.9c-3.6-3.1-7.5-5.9-11.6-8.3c-1.7-0.9-10.4-4.7-6.7-0.3c3,3.6,7.8,6.4,12.2,8.2
			c1.3,0.7,2.7,1.2,4.1,1.7c1.6,0.4,2.9-0.5,1.3-2"/>
		<path id="Caminho_184" class="st6" d="M230.7,124.6c4.9-1.5,10.2-1.4,15-3.3c1.2-0.5,8.9-3.7,4.1-4.8c-2.2-0.5-5.7,0.8-7.8,1.4
			c-2.2,0.6-4.4,1.4-6.5,2.3c-1.1,0.6-2.2,1-3.3,1.7c-0.6,0.4-3.2,2-1,2.3"/>
		<path id="Caminho_185" class="st6" d="M173.4,89.2c-2.6,0.4-6.1,3.5-8.5,4.8s-4.9,2.9-7.3,4.4c-1.9,1.2-6.6,5.1-1.6,4.2
			c5.6-1,10.8-4.5,14.8-8.4c1-0.8,2-1.8,2.9-2.7c1.8-2.2,0-1.8-2.1-1.5"/>
		<path id="Caminho_186" class="st6" d="M178.9,100.4c2.1,1.3,6.4,1.2,9,1.6s5.2,0.8,7.9,1.2c2.1,0.3,7.8,0.2,3.7-2.2
			c-4.7-2.8-10.4-3.3-15.7-2.8c-1.2,0-2.5,0.1-3.7,0.3c-2.6,0.6-1.1,1.4,0.6,2.5"/>
		<path id="Caminho_187" class="st6" d="M198.6,107.2c-5.6,2.7-11.4,4.7-16.8,8c-1.3,0.7-2.5,1.6-3.5,2.7c-1.1,1.4-0.8,1.6,0.6,1.6
			c5.9-0.1,13.5-5,18.3-8.5c1-0.6,2-1.4,2.8-2.2c0.8-1.2,0.2-1.8-1.4-1.2"/>
	</g>
	<g id="Grupo_161">
		<path id="Caminho_188" class="st6" d="M315.9,424.6c0.5,5.8,0.9,10.9,2.5,16.5c0.6,2.2,4.9,12.4,5.8,5.6
			c0.8-5.5-0.9-11.8-3.2-16.9c-0.6-1.6-1.3-3.2-2.1-4.7c-1.1-1.6-3.1-1.9-3.1,0.7"/>
		<path id="Caminho_189" class="st6" d="M332.3,484.4c-0.1-5.8-0.2-11-1.5-16.6c-0.5-2.2-4-12.7-5.3-6.1c-1.1,5.5,0.1,11.8,2.1,17.1
			c0.4,1.7,1,3.3,1.7,4.9c1,1.7,2.9,2.1,3-0.5"/>
		<path id="Caminho_190" class="st6" d="M312,491.7c2.4-5.2,4.7-9.9,6-15.6c0.5-2.2,2.1-13.1-2-7.8c-3.4,4.4-5.1,10.7-5.7,16.2
			c-0.3,1.7-0.5,3.4-0.6,5.1c0.1,2,1.7,3.1,2.9,0.9"/>
		<path id="Caminho_191" class="st6" d="M294.9,487c4.5-3.7,8.5-6.9,12.2-11.4c1.4-1.7,7.6-11,1.5-7.9c-5,2.5-9.2,7.4-12.2,12.1
			c-1,1.4-2,2.8-2.8,4.4c-0.7,1.9,0.1,3.6,2.2,2.1"/>
		<path id="Caminho_192" class="st6" d="M296.1,446.7c6.1,1.3,11.5,4.3,17.7,5.2c1.6,0.2,11.4,1.6,7-2c-2-1.6-6.5-2.4-9.1-3
			c-2.7-0.7-5.4-1.2-8.1-1.5c-1.5-0.1-2.9-0.3-4.4-0.4c-0.9,0-4.5,0-2.4,1.5"/>
		<path id="Caminho_193" class="st6" d="M349,443.5c-2.6,0.2-6.3,3-8.9,4.1s-5.1,2.5-7.6,3.8c-2,1-7,4.6-2,4.1
			c5.7-0.6,11.1-3.6,15.5-7.2c1.1-0.8,2.1-1.6,3.1-2.5c1.9-2.1,0.2-1.8-2-1.6"/>
		<path id="Caminho_194" class="st6" d="M304.1,461.8c-2.5-0.1-6.1,2.2-8.6,3s-5,1.9-7.4,2.9c-1.9,0.8-6.9,3.7-2.1,3.8
			c5.4,0.1,10.7-2.3,15-5.4c1.1-0.6,2.1-1.3,3.1-2.1c2-1.8,0.3-1.8-1.8-1.8"/>
		<path id="Caminho_195" class="st6" d="M339.9,424.1c-2.8,5.5-6.4,10.6-8.6,16.5c-0.6,1.4-1,2.8-1.2,4.3c0,1.8,0.3,1.8,1.5,0.9
			c4.6-3.6,7.8-12.1,9.6-17.7c0.4-1.1,0.7-2.3,0.9-3.5c0-1.5-0.9-1.6-1.8-0.1"/>
	</g>
	<g id="Grupo_162">
		<path id="Caminho_196" class="st6" d="M1040.5,336.7c-4.1-4.1-7.7-7.8-12.6-11c-1.9-1.2-11.7-6.4-8.1-0.6c3,4.8,8.2,8.5,13.3,11
			c1.5,0.9,3,1.6,4.6,2.3c1.9,0.5,3.6-0.6,1.9-2.5"/>
		<path id="Caminho_197" class="st6" d="M1028,315.9c-1.6-5.5-3-10.5-5.7-15.7c-1-2-7.1-11.2-6.7-4.5c0.4,5.5,3.2,11.4,6.4,16
			c0.9,1.5,1.8,2.9,2.9,4.2c1.4,1.4,3.3,1.3,2.8-1.3"/>
		<path id="Caminho_198" class="st6" d="M1028.7,288c-0.4,4.7-0.8,9,0,13.6c0.3,1.8,2.8,10.5,4.7,5.1c1.6-4.4,1-9.7-0.5-14
			c-0.3-1.4-0.7-2.7-1.3-4c-0.8-1.4-2.7-1.8-3,0.3"/>
		<path id="Caminho_199" class="st6" d="M990.1,324.6c-4.4,1.9-8.5,4.3-12.4,7c-1.5,1.1-8.7,7.4-3.1,6c4.5-1.2,9.1-4.3,12.6-7.6
			c1.2-0.9,2.2-1.9,3.2-3c1-1.3,0.8-2.8-1.3-2"/>
		<path id="Caminho_200" class="st6" d="M1042.6,303.6c0.7-5.1,3-9.8,3.3-15c0.1-1.3,0.4-9.6-2.7-5.8c-1.4,1.8-1.6,5.5-2,7.7
			c-0.4,2.3-0.6,4.6-0.6,6.9c0,1.2,0,2.4,0.1,3.7c0.1,0.7,0.5,3.8,1.7,1.9"/>
		<path id="Caminho_201" class="st6" d="M986.4,340.6c-0.7,2.5,0.6,7,0.8,9.7s0.6,5.7,0.9,8.5c0.3,2.2,1.9,8.2,3.1,3.3
			c1.4-5.5,0.5-11.7-1.4-17c-0.3-1.3-0.8-2.5-1.2-3.8c-1.2-2.5-1.7-0.8-2.2,1.3"/>
		<path id="Caminho_202" class="st6" d="M998.8,340.2c2.1-1.4,3.8-5.3,5.3-7.5s3-4.4,4.4-6.6c1.1-1.8,3.5-7-0.5-4.3
			c-4.5,3.1-7.4,8-9.2,13c-0.5,1.1-0.9,2.3-1.3,3.5c-0.6,2.6,0.8,1.6,2.5,0.5"/>
		<path id="Caminho_203" class="st6" d="M1013.4,325.3c0.1,6.2-0.6,12.4,0.2,18.6c0.1,1.5,0.5,2.9,1,4.3c0.8,1.6,1.1,1.4,1.7,0.1
			c2.4-5.3,1.2-14.3,0-20.2c-0.1-1.2-0.4-2.4-0.8-3.5c-0.7-1.3-1.6-1-1.7,0.8"/>
	</g>
</g>
<g>
	<g id="Grupo_202">
		<g id="Grupo_113">
			<g id="Grupo_25">
				<path id="Caminho_8" class="st6" d="M640,159.9v17.5c-6.6-0.1-12.1,5.2-12.2,11.8s5.2,12.1,11.8,12.2c0.1,0,0.2,0,0.3,0h0v49.2
					h49.2c0-6.6,5.4-12,12-12c6.6,0,12,5.4,12,12h17.5C730.6,200.5,690.1,159.9,640,159.9z"/>
			</g>
			<g id="Grupo_26">
				<path id="Caminho_9" class="st6" d="M640.1,341.1v-17.5c6.6,0,12-5.4,12-12c0-6.6-5.4-12-12-12l0,0v-49.2h-49.2
					c0,6.6-5.4,12-12,12c-6.6,0-12-5.4-12-12h-17.5C549.5,300.5,590.1,341.1,640.1,341.1z"/>
			</g>
			<g id="Grupo_27">
				<path id="Caminho_10" d="M640,366.8c-64.2,0-116.2-52-116.2-116.2s52-116.2,116.2-116.2s116.2,52,116.2,116.2
					C756.2,314.8,704.2,366.8,640,366.8L640,366.8z M640,137.9c-62.2,0-112.7,50.4-112.7,112.7S577.8,363.2,640,363.2
					s112.7-50.4,112.7-112.7C752.7,188.3,702.2,137.9,640,137.9C640,137.9,640,137.9,640,137.9L640,137.9z"/>
			</g>
			<g id="Grupo_28">
				<path id="Caminho_11" d="M732.4,252.3h-21v-1.8c0.1-5.6-4.4-10.3-10.1-10.4s-10.3,4.4-10.4,10.1c0,0.1,0,0.2,0,0.3v1.8h-52.7
					V203c-7.5-1-12.9-7.9-11.9-15.4c0.8-6.2,5.7-11.1,11.9-11.9v-17.6h1.8c51,0.1,92.4,41.4,92.4,92.4V252.3z M714.8,248.8h14
					c-1-47.7-39.4-86.1-87.1-87.1v17.5H640c-5.6,0-10.2,4.6-10.2,10.2c0,5.6,4.6,10.2,10.2,10.2h1.8v49.2h45.8
					c1-7.5,7.9-12.9,15.4-11.9C709.2,237.7,714,242.6,714.8,248.8L714.8,248.8z"/>
			</g>
			<g id="Grupo_29">
				<path id="Caminho_12" d="M578.8,264.3c-6.9,0-12.7-5.1-13.6-12h-17.6v-1.8c0.1-51,41.4-92.4,92.4-92.4h1.8v21H640
					c-5.6,0-10.2,4.6-10.2,10.2c0,5.6,4.6,10.2,10.2,10.2h1.8v52.7h-49.3C591.6,259.2,585.7,264.3,578.8,264.3z M551.1,248.8h17.5
					v1.8c-0.1,5.6,4.4,10.3,10.1,10.4c5.6,0.1,10.3-4.4,10.4-10.1c0-0.1,0-0.2,0-0.3v-1.8h49.2V203c-7.5-1-12.9-7.9-11.9-15.4
					c0.8-6.2,5.7-11.1,11.9-11.9v-14C590.6,162.7,552.1,201.1,551.1,248.8L551.1,248.8z"/>
			</g>
			<g id="Grupo_30">
				<path id="Caminho_13" d="M641.8,343H640c-51-0.1-92.4-41.4-92.4-92.4v-1.8h21v1.8c-0.1,5.6,4.4,10.3,10.1,10.4
					c5.6,0.1,10.3-4.4,10.4-10.1c0-0.1,0-0.2,0-0.3v-1.8h52.7v49.3c7.5,1,12.9,7.9,11.9,15.4c-0.8,6.2-5.7,11.1-11.9,11.9L641.8,343
					z M551.1,252.3c1,47.7,39.4,86.1,87.1,87.1V322h1.8c5.6,0,10.2-4.6,10.2-10.2c0-5.6-4.6-10.2-10.2-10.2h-1.8v-49.2h-45.8
					c-1,7.5-7.9,12.9-15.4,11.9c-6.2-0.8-11.1-5.7-11.9-11.9H551.1z"/>
			</g>
			<path id="Caminho_14" d="M640.1,213.1v-3h-60.4v-9.8H633v-3h-10.4v-9.8h6.8v-3h-21.3v-9.8H640v-3h-17.3v-9.2h-3v9.2h-27.1v3h12.7
				v9.8h-28.6v3h12.9v9.8h-24.4v3h11.6v9.9h-17v1.6h-0.1v11.1H554v3h22.8v9.9h-26.3v3h9.1v9.8h-9.1v3h26.3v10.9h3v-10.9h60.4v-3
				h-47.6v-9.8h47.6v-3h-60.4v-9.8h60.4v-3h-17.5v-9.8L640.1,213.1z M592.6,187.5h27.1v9.8h-27.1L592.6,187.5z M589.6,248.5h-27
				v-9.8h27V248.5z M562.6,213.1h27v9.8h-27V213.1z M619.7,222.9h-27.1v-9.8h27.1L619.7,222.9z"/>
			<g id="Grupo_40">
				<g>
					<defs>
						<path id="SVGID_1_" d="M730.6,250.6h-17.5c0-6.6-5.4-12-12-12c-6.6,0-12,5.4-12,12H640v49.2c6.6-0.1,12.1,5.2,12.2,11.8
							c0.1,6.6-5.2,12.1-11.8,12.2c-0.1,0-0.2,0-0.3,0v17.5C690.1,341.2,730.7,300.6,730.6,250.6L730.6,250.6z"/>
					</defs>
					<clipPath id="SVGID_2_">
						<use xlink:href="#SVGID_1_"  style="overflow:visible;"/>
					</clipPath>
					<g class="st7">
						<g id="Grupo_39">
							<g id="Grupo_38">
								<g id="Grupo_31">
									<rect id="Retângulo_18" x="638.2" y="261.4" class="st1" width="93.9" height="13.3"/>
								</g>
								<g id="Grupo_32">
									<rect id="Retângulo_19" x="638.3" y="235.2" class="st5" width="93.9" height="26.4"/>
								</g>
								<g id="Grupo_33">
									<rect id="Retângulo_20" x="638.3" y="274.6" class="st0" width="93.9" height="13.3"/>
								</g>
								<g id="Grupo_34">
									<rect id="Retângulo_21" x="638.3" y="287.9" class="st6" width="93.9" height="13.3"/>
								</g>
								<g id="Grupo_35">
									<rect id="Retângulo_22" x="638.3" y="301.2" class="st2" width="93.9" height="13.3"/>
								</g>
								<g id="Grupo_36">
									<rect id="Retângulo_23" x="638.3" y="314.5" class="st4" width="93.9" height="13.3"/>
								</g>
								<g id="Grupo_37">
									<rect id="Retângulo_24" x="638.3" y="327.9" class="st3" width="93.9" height="13.3"/>
								</g>
							</g>
						</g>
					</g>
				</g>
			</g>
			<g id="Grupo_41">
				<path id="Caminho_16" d="M640,343h-1.8v-21h1.8c5.6,0,10.2-4.6,10.2-10.2c0-5.6-4.6-10.2-10.2-10.2h-1.8v-52.7h49.3
					c1-7.5,7.9-12.9,15.4-11.9c6.2,0.8,11.1,5.7,11.9,11.9h17.6v1.8C732.4,301.6,691,342.9,640,343z M641.8,325.4v14
					c47.7-1,86.1-39.4,87.1-87.1h-17.5v-1.8c0-5.6-4.5-10.2-10.2-10.3c-5.6,0-10.2,4.5-10.3,10.2v1.9h-49.2v45.8
					c7.5,1,12.9,7.9,11.9,15.4C652.8,319.7,648,324.6,641.8,325.4L641.8,325.4z"/>
			</g>
			<g id="Grupo_45">
				<g id="Grupo_42">
					<path id="Caminho_17" class="st8" d="M687.8,191.4c0,0-42.1-9.8-55.8,42.4c0,0-8.2-4.9-4.7-21.7c2.5-12.3-9.5-17.6-17.6-13.7
						c-4.5,2.2-9.9,1.3-13.4-2.2c0,0,10,10.3,7.2,21.5c-2.6,10.4-8.6,35.4,7.2,50.2c15.9,14.8,31,9,38.8,6.7
						c5.5-1.7,9.4-2.5,13.4-0.6c7,3.3,3.1,10.3,10.3,19.2c5.1-13.2,13.9-24.6,25.4-32.9c0,0-6.4-4.5-23.1-0.8
						c-12.5,2.8-16.2-2.8-20.2-8.1C655.3,251.4,695.3,235.2,687.8,191.4z"/>
				</g>
				<g id="Grupo_43">
					<path id="Caminho_18" d="M671.9,294.4c-2.8-3.5-4.7-7.6-5.5-11.9c-0.8-3.4-1.3-5.4-4.2-6.8c-3.3-1.6-6.5-1-12.1,0.7l-1.2,0.4
						c-8.2,2.5-23.4,7.3-39.3-7.5c-16.8-15.7-10.3-42-7.8-52c2.4-9.4-5.6-18.5-6.7-19.6l-0.2-0.2l2.6-2.5l0.1,0.1
						c3,2.9,7.5,3.6,11.2,1.8c5.1-2.4,11-1.8,15.5,1.6c4.2,3.4,6,8.9,4.6,14.1c-2.1,10.1,0.2,15.4,2,18c4.4-14.8,13.7-32.5,33.4-39
						c7.6-2.6,15.8-3.1,23.7-1.7l1.4,1.5c4,23.4-5.3,39-13.9,47.9c-5.1,5.3-11,9.7-17.6,13c3.4,4.4,7,7.8,17,5.6
						c17.3-3.8,24.3,0.9,24.6,1.1v3c-11.2,8-19.7,19.2-24.7,32L671.9,294.4z M658,271.1c2,0,4,0.4,5.8,1.3c4.4,2.1,5.3,5.6,6.1,9.2
						c0.5,2.8,1.5,5.4,2.9,7.9c4.9-11.2,12.6-21.1,22.2-28.7c-3.1-0.9-9.2-1.7-19.1,0.5c-13.2,2.9-17.6-2.9-21.6-8.1l-0.5-0.6
						l0.8-2.8c7-3.2,13.3-7.7,18.5-13.2c11.3-11.9,15.7-26.5,13-43.5c-7-1-14.1-0.4-20.8,1.9c-15.5,5.2-26.2,18.5-31.7,39.4
						l-2.7,1.1c-0.4-0.2-9.3-5.7-5.6-23.7c1.1-3.8-0.2-8-3.3-10.5c-3.4-2.5-7.9-3-11.7-1.2c-2.5,1.3-5.4,1.7-8.2,1.2
						c0.1,0.2,0.2,0.4,0.3,0.6c2.9,4.9,3.9,10.7,2.7,16.2c-2.3,9.3-8.5,34.2,6.7,48.4c14.3,13.3,27.7,9.2,35.7,6.7l1.3-0.4
						C651.9,271.8,654.9,271.2,658,271.1z"/>
				</g>
				<g id="Grupo_44">
					<circle id="Elipse_13" cx="615.4" cy="205.3" r="2.9"/>
					<path id="Caminho_19" d="M615.4,208.3c-1.7,0-3.1-1.4-3.1-3.1s1.4-3.1,3.1-3.1c1.7,0,3.1,1.4,3.1,3.1c0,0,0,0,0,0l0,0
						C618.5,206.9,617.1,208.3,615.4,208.3z"/>
				</g>
			</g>
			<g id="Grupo_62">
				<g id="Grupo_46">
					<path id="Caminho_20" d="M572.6,166.7l6.5,7.9l-2.2,1.8l-6.5-7.9L572.6,166.7z"/>
				</g>
				<g id="Grupo_47">
					<path id="Caminho_21" d="M587.8,168.3l-2.3,1.6l-6.3-2.5l3.3,4.7l-2.3,1.6l-5.8-8.4l2.3-1.6l6.4,2.6l-3.3-4.7l2.3-1.6
						L587.8,168.3z"/>
				</g>
				<g id="Grupo_48">
					<path id="Caminho_22" d="M594.5,162.9c0,0.6-0.2,1.1-0.6,1.6c-0.4,0.6-0.9,1-1.6,1.3c-0.9,0.5-1.9,0.8-3,0.7
						c-0.9-0.1-1.8-0.7-2.3-1.5l2.6-1.5c0.1,0.3,0.4,0.4,0.7,0.5c0.3,0.1,0.5,0,0.7-0.1c0.2-0.1,0.3-0.3,0.4-0.4
						c0.1-0.2,0-0.4-0.1-0.6c-0.1-0.3-0.4-0.4-0.7-0.4c-0.5,0-1,0.1-1.4,0.2c-0.6,0.1-1.1,0.2-1.7,0.2c-0.5,0-1-0.1-1.4-0.3
						c-1.4-0.7-2-2.4-1.3-3.9c0.1-0.2,0.2-0.4,0.4-0.6c0.4-0.5,0.9-0.9,1.5-1.2c0.8-0.5,1.9-0.8,2.9-0.6c0.9,0.2,1.7,0.7,2.1,1.5
						l-2.7,1.5c-0.1-0.2-0.4-0.4-0.6-0.5c-0.2-0.1-0.5,0-0.7,0.1c-0.2,0.1-0.3,0.2-0.4,0.4c0,0.2,0,0.4,0.1,0.5
						c0.1,0.2,0.4,0.4,0.7,0.4c0.5,0,0.9-0.1,1.4-0.2c0.6-0.1,1.1-0.2,1.7-0.2c0.5,0,1,0.1,1.4,0.3c0.5,0.3,0.9,0.7,1.2,1.2
						C594.4,161.8,594.6,162.3,594.5,162.9z"/>
				</g>
				<g id="Grupo_49">
					<path id="Caminho_23" d="M599.3,151l0.9,2.1l-2.5,1.1l3.3,7.2l-2.6,1.2l-3.3-7.2l-2.5,1.1l-0.9-2.1L599.3,151z"/>
				</g>
				<g id="Grupo_50">
					<path id="Caminho_24" d="M603.4,149.5l3.5,9.6l-2.7,1l-3.5-9.6L603.4,149.5z"/>
				</g>
				<g id="Grupo_51">
					<path id="Caminho_25" d="M612.6,146.6l0.7,2.2l-2.6,0.8l2.3,7.6l-2.7,0.8l-2.3-7.6l-2.6,0.8l-0.7-2.2L612.6,146.6z"/>
				</g>
				<g id="Grupo_52">
					<path id="Caminho_26" d="M616.9,145.6l1.2,5.7c0.1,0.5,0.3,0.9,0.6,1.2c0.4,0.3,0.8,0.3,1.2,0.2c0.4-0.1,0.8-0.3,1.1-0.7
						c0.2-0.4,0.2-0.9,0.1-1.4L620,145l2.8-0.6l1.2,5.7c0.2,0.8,0.2,1.7-0.1,2.5c-0.2,0.7-0.7,1.3-1.3,1.8c-0.6,0.5-1.4,0.8-2.1,1
						c-0.8,0.2-1.5,0.2-2.3,0c-0.7-0.2-1.3-0.6-1.8-1.2c-0.5-0.7-0.9-1.5-1-2.3l-1.2-5.7L616.9,145.6z"/>
				</g>
				<g id="Grupo_53">
					<path id="Caminho_27" d="M632.6,143.3l0.2,2.2l-2.7,0.3l0.8,7.9l-2.8,0.3l-0.8-7.9l-2.7,0.3l-0.2-2.2L632.6,143.3z"/>
				</g>
				<g id="Grupo_54">
					<path id="Caminho_28" d="M641.9,143.6c0.8,0.4,1.4,1.1,1.9,1.9c0.9,1.7,0.9,3.7,0,5.4c-0.4,0.8-1.1,1.4-1.9,1.9
						c-1.6,0.9-3.6,0.9-5.2,0c-0.8-0.4-1.5-1.1-1.9-1.9c-0.9-1.7-0.9-3.7,0-5.4c0.4-0.8,1.1-1.4,1.9-1.9
						C638.2,142.7,640.2,142.7,641.9,143.6L641.9,143.6z M637.6,146.3c-0.8,1.1-0.8,2.7,0,3.8c0.9,0.9,2.4,0.9,3.4,0v0
						c0.4-0.5,0.6-1.2,0.6-1.9c0-0.7-0.2-1.4-0.6-1.9C640,145.3,638.5,145.3,637.6,146.3L637.6,146.3z"/>
				</g>
				<g id="Grupo_55">
					<path id="Caminho_29" d="M656.9,144.4l-0.3,2.2l-2.7-0.3l-0.9,7.9l-2.8-0.3l1-7.9l-2.7-0.3l0.3-2.2L656.9,144.4z"/>
				</g>
				<g id="Grupo_56">
					<path id="Caminho_30" d="M660.8,147.4l-0.3,1.7l3.2,0.7l-0.4,2.1l-3.2-0.7l-0.4,1.8l3.7,0.7l-0.4,2.2l-6.4-1.3l2-10l6.4,1.3
						l-0.4,2.2L660.8,147.4z M664.1,144l-3.8,0.7l0.4-1.9l3.9-0.9L664.1,144z"/>
				</g>
				<g id="Grupo_57">
					<path id="Caminho_31" d="M673.5,148.8c0.5,0.5,1,1.1,1.2,1.8c0.2,0.7,0.3,1.5,0.2,2.2l-2.9-0.9c0-0.4-0.2-0.8-0.4-1.1
						c-0.3-0.3-0.6-0.6-1-0.7c-0.6-0.2-1.2-0.1-1.6,0.2c-0.5,0.4-0.9,1-1.1,1.6c-0.2,0.6-0.2,1.3,0,2c0.2,0.6,0.7,1,1.2,1.1
						c0.4,0.1,0.8,0.1,1.2,0c0.4-0.1,0.8-0.4,1-0.7l2.9,0.9c-0.5,1-1.4,1.8-2.4,2.2c-1.1,0.4-2.3,0.4-3.4,0.1
						c-0.9-0.2-1.7-0.7-2.3-1.4c-0.6-0.6-1-1.4-1.1-2.3c-0.3-1.9,0.3-3.8,1.6-5.2c0.6-0.6,1.4-1.1,2.2-1.3c0.9-0.2,1.8-0.1,2.7,0.1
						C672.2,147.9,672.9,148.3,673.5,148.8z"/>
				</g>
				<g id="Grupo_58">
					<path id="Caminho_32" d="M682.7,163l-2.6-1.1l-1.2-6.7l-2.2,5.2l-2.6-1.1l4-9.4l2.6,1.1l1.2,6.8l2.3-5.3l2.6,1.1L682.7,163z"/>
				</g>
				<g id="Grupo_59">
					<path id="Caminho_33" d="M691.2,156l-4.7,9l-2.5-1.3l4.7-9L691.2,156z"/>
				</g>
				<g id="Grupo_60">
					<path id="Caminho_34" d="M698.9,161c0.4,0.6,0.6,1.3,0.7,2c0.1,0.8-0.1,1.5-0.3,2.2l-2.5-1.6c0.1-0.4,0-0.8-0.2-1.2
						c-0.2-0.4-0.5-0.7-0.8-0.9c-0.5-0.3-1.1-0.4-1.7-0.2c-1.2,0.6-2,1.8-2,3.2c0.1,0.6,0.4,1.1,0.9,1.4c0.4,0.2,0.8,0.3,1.2,0.3
						c0.4,0,0.8-0.2,1.2-0.4l2.5,1.6c-0.7,0.8-1.8,1.4-2.9,1.6c-1.2,0.1-2.4-0.2-3.3-0.8c-0.8-0.5-1.5-1.1-1.9-1.9
						c-0.4-0.8-0.6-1.6-0.5-2.5c0.2-1.9,1.3-3.6,2.8-4.6c0.7-0.4,1.6-0.7,2.5-0.6c0.9,0,1.8,0.3,2.6,0.8
						C697.8,159.8,698.4,160.3,698.9,161z"/>
				</g>
				<g id="Grupo_61">
					<path id="Caminho_35" d="M708.6,168.3c0.3,0.8,0.5,1.7,0.3,2.6c-0.3,1.9-1.6,3.5-3.3,4.2c-0.8,0.3-1.7,0.4-2.6,0.3
						c-1.8-0.3-3.4-1.5-4.1-3.2c-0.3-0.8-0.5-1.7-0.3-2.6c0.3-1.9,1.6-3.5,3.3-4.2c0.8-0.3,1.7-0.4,2.6-0.3
						C706.3,165.4,707.9,166.6,708.6,168.3L708.6,168.3z M703.6,167.7c-1.3,0.4-2.3,1.6-2.3,3c0.1,1.3,1.3,2.2,2.6,2.1c0,0,0,0,0,0
						h0c0.7-0.1,1.3-0.5,1.7-1.1c0.5-0.5,0.7-1.2,0.7-1.9c0-0.6-0.4-1.2-0.9-1.6C704.9,167.8,704.2,167.6,703.6,167.7L703.6,167.7z"
						/>
				</g>
			</g>
			<g id="Grupo_102">
				<g id="Grupo_63">
					<path id="Caminho_36" d="M543.3,236l-9.9-2.1l0.6-2.7l5.6,1.2l-5.2-3.1l0.5-2.4l6-0.6l-5.6-1.2l0.6-2.8l9.9,2.1l-0.7,3.4
						l-7,1.1l5.9,3.8L543.3,236z"/>
				</g>
				<g id="Grupo_64">
					<path id="Caminho_37" d="M534.2,242.8l0.3-3.6l-1.6-0.7l0.3-3l9.8,4.6l-0.3,3.3l-10.5,2.8l0.3-3L534.2,242.8z M536.4,242.2
						l3.4-0.8l-3.2-1.4L536.4,242.2z"/>
				</g>
				<g id="Grupo_65">
					<path id="Caminho_38" d="M540.2,250.4h-1.7v3.3h-2.1v-3.3h-1.8v3.7h-2.2v-6.6h10.2v6.6h-2.3V250.4z"/>
				</g>
				<g id="Grupo_66">
					<path id="Caminho_39" d="M534.3,263c-0.5-0.3-0.9-0.7-1.2-1.2c-0.3-0.6-0.5-1.3-0.6-2c-0.1-1,0.1-2.1,0.6-3
						c0.5-0.8,1.4-1.3,2.3-1.4l0.3,3c-0.3,0-0.6,0.2-0.8,0.4c-0.2,0.2-0.2,0.5-0.2,0.7c0,0.2,0.1,0.4,0.2,0.6
						c0.1,0.1,0.4,0.2,0.5,0.2c0.3,0,0.6-0.2,0.7-0.5c0.2-0.4,0.3-0.9,0.4-1.4c0.1-0.6,0.3-1.1,0.5-1.6c0.2-0.4,0.5-0.8,0.9-1.2
						c1.2-1,3.1-0.8,4.1,0.5c0.1,0.2,0.3,0.4,0.3,0.6c0.3,0.6,0.5,1.2,0.5,1.9c0.1,1-0.1,2-0.6,2.9c-0.5,0.8-1.3,1.2-2.2,1.3l-0.3-3
						c0.3,0,0.5-0.2,0.7-0.4c0.1-0.2,0.2-0.4,0.2-0.6c0-0.2-0.1-0.4-0.2-0.5c-0.1-0.1-0.3-0.2-0.5-0.1c-0.3,0-0.5,0.2-0.6,0.5
						c-0.2,0.4-0.3,0.9-0.4,1.3c-0.1,0.6-0.3,1.1-0.5,1.7c-0.2,0.5-0.5,0.9-0.9,1.2c-0.5,0.4-1,0.6-1.6,0.6
						C535.4,263.4,534.8,263.3,534.3,263z"/>
				</g>
				<g id="Grupo_67">
					<path id="Caminho_40" d="M544.6,271.2l-2.2,0.4l-0.5-2.7l-7.8,1.3l-0.5-2.8l7.8-1.3l-0.4-2.7l2.2-0.4L544.6,271.2z"/>
				</g>
				<g id="Grupo_68">
					<path id="Caminho_41" d="M536.2,279.3l3.1-2.9l-0.1-0.3l-3.6,1l-0.7-2.7l9.9-2.6l1.1,4.3c0.2,0.7,0.2,1.4,0.1,2.1
						c-0.1,0.6-0.4,1.1-0.8,1.5c-0.4,0.4-0.9,0.7-1.5,0.8c-0.6,0.2-1.3,0.2-1.9-0.1c-0.6-0.3-1.2-0.8-1.5-1.4l-3.2,3.3L536.2,279.3z
						 M541,275.6l0.4,1.3c0.2,0.8,0.6,1.1,1.3,0.9c0.3-0.1,0.5-0.2,0.7-0.5c0.1-0.3,0.2-0.6,0.1-0.9l-0.4-1.3L541,275.6z"/>
				</g>
				<g id="Grupo_69">
					<path id="Caminho_42" d="M549.2,287.7c-0.1,0.9-0.5,1.7-1.1,2.4c-1.3,1.4-3.2,2.2-5,1.9c-0.9-0.1-1.7-0.5-2.4-1.1
						c-1.4-1.2-2.1-3.1-1.8-4.9c0.1-0.9,0.5-1.7,1.1-2.4c1.2-1.5,3.2-2.2,5-1.9c0.9,0.1,1.7,0.5,2.4,1.1
						C548.7,284,549.4,285.9,549.2,287.7L549.2,287.7z M545.2,284.6c-1.3-0.4-2.8,0.2-3.6,1.3c-0.5,1.2,0,2.6,1.2,3.1l0,0
						c0.6,0.2,1.4,0.2,2-0.1c0.7-0.2,1.2-0.7,1.6-1.2C546.9,286.5,546.4,285.1,545.2,284.6L545.2,284.6z"/>
				</g>
				<g id="Grupo_70">
					<path id="Caminho_43" d="M547.6,302.7l-1.7-3.2l-1.8,0.3l-1.4-2.6l10.7-1.5l1.6,2.9l-7.2,8.1l-1.4-2.6L547.6,302.7z
						 M549.1,301.1l2.4-2.5l-3.4,0.6L549.1,301.1z"/>
				</g>
				<g id="Grupo_71">
					<path id="Caminho_44" d="M551.9,309l1.8,2.7l-1.8,1.2l-3.3-5l8.5-5.6l1.6,2.4L551.9,309z"/>
				</g>
				<g id="Grupo_72">
					<path id="Caminho_45" d="M565.1,313.3l-1.8,1.4l-2.5-3.2l-1.4,1.1l1.9,2.4l-1.7,1.3l-1.9-2.4l-3.2,2.4l-1.7-2.2l8.1-6.2
						L565.1,313.3z"/>
				</g>
				<g id="Grupo_73">
					<path id="Caminho_46" d="M561.7,324.7l1.4-4.1l-0.2-0.2l-2.8,2.5l-1.9-2.1l7.5-6.9l3,3.3c0.5,0.5,0.9,1.1,1.1,1.8
						c0.2,0.6,0.2,1.2,0,1.8c-0.2,0.6-0.5,1.1-0.9,1.5c-0.5,0.5-1.1,0.7-1.8,0.8c-0.7,0.1-1.4-0.1-2-0.5l-1.3,4.4L561.7,324.7z
						 M564.2,319.1l0.9,1c0.3,0.5,0.9,0.6,1.4,0.3c0.1,0,0.1-0.1,0.2-0.2c0.2-0.2,0.4-0.5,0.4-0.8c0-0.3-0.2-0.6-0.4-0.8l-0.9-1
						L564.2,319.1z"/>
				</g>
				<g id="Grupo_74">
					<path id="Caminho_47" d="M572.4,324.2l-1.1,1.2l2.4,2.2l-1.4,1.6l-2.4-2.2l-1.2,1.4l2.8,2.5l-1.5,1.7l-4.9-4.4l6.9-7.5l4.9,4.4
						l-1.5,1.7L572.4,324.2z"/>
				</g>
				<g id="Grupo_75">
					<path id="Caminho_48" d="M579.7,337.1c-0.8,0.4-1.7,0.5-2.6,0.3c-1-0.2-1.9-0.6-2.6-1.2l-3.2-2.5l6.2-8.1l3.2,2.5
						c0.8,0.6,1.4,1.3,1.9,2.2c0.4,0.8,0.5,1.7,0.4,2.5C582.6,334.7,581.4,336.3,579.7,337.1L579.7,337.1z M577.8,334.7
						c1.4-0.3,2.4-1.6,2.3-3c-0.1-0.7-0.6-1.3-1.2-1.7l-0.8-0.6l-3.1,4.1l0.8,0.6C576.3,334.5,577.1,334.8,577.8,334.7L577.8,334.7z
						"/>
				</g>
				<g id="Grupo_76">
					<path id="Caminho_49" d="M591.8,336.1c0.4,0.8,0.7,1.7,0.6,2.6c-0.1,1.9-1.1,3.6-2.8,4.6c-0.8,0.4-1.7,0.7-2.6,0.6
						c-1.9-0.1-3.6-1.1-4.5-2.7c-0.4-0.8-0.7-1.7-0.7-2.6c0.1-1.9,1.1-3.7,2.8-4.6c0.8-0.4,1.7-0.7,2.6-0.6
						C589.1,333.5,590.8,334.5,591.8,336.1L591.8,336.1z M586.7,336.2c-1.3,0.5-2.1,1.9-1.9,3.3c0.3,1.3,1.6,2.1,2.9,1.8h0
						c0.6-0.2,1.2-0.7,1.5-1.3c0.4-0.6,0.5-1.3,0.4-1.9C589.3,336.6,588,335.9,586.7,336.2L586.7,336.2z"/>
				</g>
				<g id="Grupo_77">
					<path id="Caminho_50" d="M602.2,347c0.3,1.4-0.5,2.7-1.8,3.2c-0.9,0.2-1.8,0.1-2.6-0.3l-4.6-2l4.1-9.3l4.5,2
						c0.8,0.3,1.5,0.9,1.9,1.6c0.4,0.7,0.4,1.5,0,2.1c-0.2,0.5-0.6,0.9-1,1.2c-0.4,0.2-1,0.3-1.5,0.2
						C601.7,346,602.1,346.5,602.2,347z M599.6,347.1c0.3-0.6,0-1-0.6-1.3l-1.5-0.6l-0.8,1.7l1.5,0.6
						C598.9,347.8,599.3,347.7,599.6,347.1z M598.3,343.4l1.3,0.6c0.6,0.3,1.1,0.2,1.3-0.4c0.2-0.5,0-1-0.6-1.3l-1.3-0.6
						L598.3,343.4z"/>
				</g>
				<g id="Grupo_78">
					<path id="Caminho_51" d="M607.5,353.5l-0.8-4.2l-0.3-0.1l-1.2,3.6l-2.7-0.9l3.2-9.7l4.3,1.4c0.7,0.2,1.3,0.6,1.8,1.1
						c0.4,0.4,0.7,0.9,0.9,1.5c0.1,0.6,0.1,1.2-0.1,1.7c-0.2,0.6-0.6,1.2-1.1,1.6c-0.6,0.4-1.3,0.6-2,0.5l1,4.5L607.5,353.5z
						 M607.1,347.4l1.3,0.4c0.7,0.2,1.2,0,1.5-0.6c0.1-0.3,0.1-0.6,0-0.8c-0.2-0.3-0.4-0.5-0.8-0.6l-1.3-0.4L607.1,347.4z"/>
				</g>
				<g id="Grupo_79">
					<path id="Caminho_52" d="M618.8,354.7l-3.5-0.8l-0.9,1.5l-2.9-0.6l5.8-9.1l3.2,0.7l1.4,10.7l-2.9-0.6L618.8,354.7z
						 M618.6,352.4l-0.3-3.5l-1.8,3L618.6,352.4z"/>
				</g>
				<g id="Grupo_80">
					<path id="Caminho_53" d="M626.9,347.4l1.5,7.6l3.1-7l3,0.3l-4.6,9.7l-3.6-0.4l-2.3-10.5L626.9,347.4z"/>
				</g>
				<g id="Grupo_81">
					<path id="Caminho_54" d="M642.4,348.8c0.8,0.4,1.4,1.1,1.9,1.9c0.9,1.7,0.9,3.7,0,5.4c-0.4,0.8-1.1,1.4-1.9,1.9
						c-1.6,0.9-3.6,0.9-5.2,0c-0.8-0.4-1.4-1.1-1.9-1.9c-0.9-1.7-0.9-3.7,0-5.4c0.4-0.8,1.1-1.4,1.9-1.9
						C638.8,347.9,640.7,347.9,642.4,348.8L642.4,348.8z M638,351.5c-0.8,1.1-0.8,2.7,0,3.8c0.9,0.9,2.4,0.9,3.4,0c0,0,0,0,0,0l0,0
						c0.4-0.5,0.7-1.2,0.6-1.9c0-0.7-0.2-1.4-0.6-1.9C640.5,350.5,639,350.5,638,351.5C638,351.5,638,351.5,638,351.5L638,351.5z"/>
				</g>
				<g id="Grupo_82">
					<path id="Caminho_55" d="M654.8,351.3l0.3,2.3l-6.5,0.8l-0.3-2.3L654.8,351.3z"/>
				</g>
				<g id="Grupo_83">
					<path id="Caminho_56" d="M665.5,345.3c0.7,0.1,1.4,0.5,1.9,0.9c0.6,0.5,1,1.1,1.3,1.8l-2.9,0.7c-0.2-0.3-0.6-0.6-1-0.7
						c-0.4-0.1-0.8-0.2-1.2,0c-0.6,0.1-1.1,0.5-1.3,1c-0.3,0.6-0.3,1.3-0.1,1.9c0.1,0.7,0.5,1.3,1,1.7c0.5,0.4,1.1,0.5,1.6,0.3
						c0.4-0.1,0.8-0.3,1.1-0.6c0.3-0.3,0.5-0.7,0.5-1.1l2.9-0.7c0.1,1.1-0.2,2.2-0.9,3.1c-0.7,0.9-1.8,1.6-2.9,1.8
						c-0.9,0.2-1.8,0.2-2.7,0c-0.8-0.2-1.6-0.7-2.1-1.4c-1.2-1.5-1.7-3.4-1.3-5.2c0.2-0.8,0.6-1.6,1.3-2.2c0.7-0.6,1.5-1.1,2.4-1.3
						C663.9,345.2,664.7,345.2,665.5,345.3z"/>
				</g>
				<g id="Grupo_84">
					<path id="Caminho_57" d="M676,342c0.9,0.1,1.7,0.5,2.4,1.1c1.4,1.3,2.1,3.2,1.8,5.1c-0.2,0.9-0.5,1.7-1.1,2.4
						c-0.6,0.7-1.4,1.2-2.2,1.5c-0.9,0.3-1.8,0.4-2.7,0.3c-0.9-0.1-1.7-0.5-2.4-1.1c-1.4-1.3-2.1-3.2-1.8-5.1
						c0.2-0.9,0.5-1.7,1.1-2.4C672.3,342.4,674.1,341.7,676,342L676,342z M672.8,346c-0.4,1.3,0.1,2.8,1.3,3.6
						c1.2,0.6,2.6,0.1,3.2-1.1v0c0.2-0.6,0.2-1.4-0.1-2c-0.2-0.7-0.6-1.2-1.2-1.6C674.8,344.3,673.4,344.8,672.8,346L672.8,346z"/>
				</g>
				<g id="Grupo_85">
					<path id="Caminho_58" d="M686,337.4c0.9,0,1.8,0.3,2.5,0.8c1.6,1.1,2.5,2.9,2.4,4.8c-0.1,0.9-0.3,1.8-0.9,2.5
						c-1.1,1.5-2.8,2.4-4.7,2.3c-0.9,0-1.8-0.3-2.5-0.8c-1.6-1.1-2.5-2.9-2.4-4.8c0.1-0.9,0.4-1.8,0.9-2.5
						C682.3,338.2,684.1,337.4,686,337.4L686,337.4z M683.3,341.7c-0.2,1.4,0.4,2.8,1.7,3.4c1.2,0.4,2.6-0.2,3-1.5v0
						c0.2-0.7,0.1-1.4-0.3-2c-0.3-0.6-0.8-1.2-1.4-1.4C685.1,339.8,683.7,340.5,683.3,341.7C683.3,341.7,683.3,341.7,683.3,341.7
						L683.3,341.7z"/>
				</g>
				<g id="Grupo_86">
					<path id="Caminho_59" d="M694.8,339.6l1.8,2.9l-2.4,1.5l-5.4-8.6l3.6-2.2c0.8-0.6,1.9-0.9,2.9-0.7c0.9,0.2,1.7,0.8,2.1,1.6
						c0.3,0.5,0.5,1.1,0.6,1.7c0,0.6-0.1,1.2-0.4,1.7c-0.4,0.6-0.9,1.1-1.5,1.5L694.8,339.6z M695,335.5c-0.3-0.5-0.9-0.7-1.4-0.4
						c-0.1,0-0.2,0.1-0.2,0.2l-0.9,0.6l1.2,1.9l0.9-0.6c0.5-0.2,0.8-0.8,0.6-1.4C695.1,335.7,695,335.6,695,335.5L695,335.5z"/>
				</g>
				<g id="Grupo_87">
					<path id="Caminho_60" d="M702.6,335.1l1.6,2.2l-2.3,1.7l-1.6-2.2L702.6,335.1z"/>
				</g>
				<g id="Grupo_88">
					<path id="Caminho_61" d="M706.9,322l1.5,1.7l-2.1,1.8l5.2,6l-2.1,1.8l-5.2-6l-2.1,1.8l-1.5-1.7L706.9,322z"/>
				</g>
				<g id="Grupo_89">
					<path id="Caminho_62" d="M718.3,324.9l-4.1-1.1l-0.2,0.2l2.7,2.6l-2,2l-7.3-7.1l3.1-3.2c0.5-0.5,1.1-0.9,1.8-1.2
						c0.6-0.2,1.2-0.2,1.7-0.1c0.6,0.1,1.1,0.4,1.5,0.9c0.5,0.5,0.8,1.1,0.9,1.7c0.1,0.7,0,1.4-0.4,2l4.5,1.1L718.3,324.9z
						 M712.6,322.7l1-1c0.4-0.3,0.6-0.9,0.2-1.4c-0.1-0.1-0.1-0.1-0.2-0.2c-0.2-0.2-0.5-0.3-0.8-0.3c-0.3,0-0.6,0.2-0.8,0.4l-1,1
						L712.6,322.7z"/>
				</g>
				<g id="Grupo_90">
					<path id="Caminho_63" d="M724.3,315.3l-2.2,2.8l1,1.5l-1.8,2.3l-5.6-9.2l2-2.6l10.3,3.4l-1.9,2.3L724.3,315.3z M722.2,314.5
						l-3.3-1.2l1.9,2.9L722.2,314.5z"/>
				</g>
				<g id="Grupo_91">
					<path id="Caminho_64" d="M729.2,303.3c1.4-0.1,2.6,0.9,2.9,2.2c0.1,0.9-0.2,1.8-0.7,2.5l-2.7,4.2l-8.6-5.5l2.7-4.2
						c0.4-0.7,1.1-1.3,1.9-1.7c0.7-0.2,1.5-0.1,2.1,0.3c0.5,0.3,0.8,0.7,1,1.2c0.2,0.5,0.2,1,0,1.5
						C728.1,303.6,728.6,303.3,729.2,303.3z M725,306.6l0.8-1.2c0.4-0.6,0.3-1.1-0.2-1.4c-0.5-0.3-1-0.2-1.4,0.4l-0.8,1.2L725,306.6
						z M728.9,305.9c-0.5-0.3-1-0.2-1.4,0.4l-0.9,1.3l1.6,1l0.9-1.3C729.5,306.7,729.4,306.2,728.9,305.9L728.9,305.9z"/>
				</g>
				<g id="Grupo_92">
					<path id="Caminho_65" d="M732.7,300.3l2.4,1.4l-1.4,2.5l-2.4-1.4L732.7,300.3z"/>
				</g>
				<g id="Grupo_93">
					<path id="Caminho_66" d="M731,291.8l1.5,0.7l1.3-3l2,0.9l-1.3,3l1.7,0.8l1.5-3.4l2.1,0.9l-2.7,6l-9.3-4.2l2.7-6l2.1,0.9
						L731,291.8z"/>
				</g>
				<g id="Grupo_94">
					<path id="Caminho_67" d="M743.6,281l-0.9,2.7l-6.6,1.7l5.4,1.8l-0.9,2.7l-9.6-3.3l0.9-2.7l6.7-1.7l-5.5-1.9l0.9-2.7L743.6,281z
						"/>
				</g>
				<g id="Grupo_95">
					<path id="Caminho_68" d="M744.5,271.6c0.4,0.4,0.7,0.9,0.8,1.5c0.1,0.7,0.1,1.4-0.1,2c-0.2,1-0.7,1.9-1.5,2.6
						c-0.7,0.6-1.7,0.9-2.6,0.7l0.7-2.9c0.3,0.1,0.6,0,0.8-0.1c0.2-0.1,0.4-0.4,0.4-0.6c0.1-0.2,0-0.4,0-0.6
						c-0.1-0.2-0.3-0.3-0.5-0.3c-0.3-0.1-0.6,0-0.8,0.2c-0.3,0.4-0.6,0.8-0.8,1.2c-0.3,0.5-0.6,1-1,1.4c-0.3,0.4-0.7,0.7-1.2,0.8
						c-1.5,0.6-3.1-0.2-3.7-1.7c-0.1-0.2-0.1-0.4-0.2-0.6c-0.1-0.7-0.1-1.3,0.1-2c0.2-1,0.7-1.9,1.4-2.5c0.7-0.6,1.6-0.8,2.5-0.6
						l-0.7,3c-0.3,0-0.5,0-0.8,0.1c-0.2,0.1-0.3,0.3-0.4,0.6c-0.1,0.2,0,0.4,0,0.5c0.1,0.2,0.3,0.3,0.5,0.3c0.3,0.1,0.6,0,0.8-0.2
						c0.3-0.3,0.6-0.7,0.8-1.1c0.3-0.5,0.7-1,1-1.4c0.3-0.4,0.7-0.7,1.2-0.8c0.5-0.2,1.1-0.2,1.7-0.1
						C743.6,271,744.1,271.3,744.5,271.6z"/>
				</g>
				<g id="Grupo_96">
					<path id="Caminho_69" d="M743.9,267l2.7,0.5l-0.5,2.8l-2.7-0.5L743.9,267z"/>
				</g>
				<g id="Grupo_97">
					<path id="Caminho_70" d="M745.3,260.1l0.3-3.2l2.1,0.2l-0.5,6l-10.2-0.9l0.3-2.8L745.3,260.1z"/>
				</g>
				<g id="Grupo_98">
					<path id="Caminho_71" d="M737.7,247.8l2.3,0l0,2.8l7.9,0.1l0,2.8l-7.9-0.1l0,2.7l-2.2,0L737.7,247.8z"/>
				</g>
				<g id="Grupo_99">
					<path id="Caminho_72" d="M744.7,237.9c0.8,0.4,1.5,0.9,2,1.7c0.5,0.8,0.8,1.8,0.9,2.7l0.3,4l-10.2,0.8l-0.3-4
						c-0.1-1,0-2,0.4-2.9c0.3-0.8,0.9-1.5,1.6-2C741,237.3,742.9,237.1,744.7,237.9L744.7,237.9z M744.2,240.8
						c-1.2-0.9-2.8-0.7-3.8,0.3c-0.4,0.6-0.6,1.3-0.5,2l0.1,1l5.2-0.4l-0.1-1C745,242,744.7,241.3,744.2,240.8L744.2,240.8z"/>
				</g>
				<g id="Grupo_100">
					<path id="Caminho_73" d="M743.9,229.1l0.7,3.6l1.8,0.2l0.6,2.9l-10.7-1.8l-0.6-3.2l9.3-5.6l0.6,2.9L743.9,229.1z M742,230.2
						l-3.1,1.7l3.5,0.5L742,230.2z"/>
				</g>
				<g id="Grupo_101">
					<path id="Caminho_74" d="M741.2,222.3l2.7-0.7l0.7,2.8l-2.7,0.7L741.2,222.3z"/>
				</g>
			</g>
			<g id="Grupo_112">
				<g id="Grupo_103">
					<path id="Caminho_75" class="st8" d="M645,297.1c-1.2,0-2.5,0.2-3.7,0.5l0,0c-1.2-0.4-2.4-0.5-3.7-0.5
						c-5.6,0-10.1,3.5-10.1,7.9s4.5,7.9,10.1,7.9c2.4-0.7,5-0.7,7.4,0c5.6,0,10.1-3.5,10.1-7.9S650.6,297.1,645,297.1z"/>
				</g>
				<g id="Grupo_106">
					<g id="Grupo_104">
						<path id="Caminho_76" d="M620.6,304.2c0.9-0.8,1.5-1.9,1.7-3.1c0-0.9-0.4-1.3-1.1-1.3c-0.4,0-0.7,0.2-0.9,0.5
							c-0.2,0.5-0.3,1-0.3,1.5h-3.9c-0.2-2.8,1.9-5.1,4.7-5.3c0,0,0,0,0,0c0.2,0,0.4,0,0.6,0c1.3-0.1,2.6,0.3,3.6,1.2
							c0.8,0.8,1.2,1.9,1.2,3.1c0,1.4-0.5,2.7-1.4,3.8c-1,1.2-2.1,2.3-3.5,3.1h5.1v3.2h-10.3v-3
							C617.8,306.8,619.2,305.5,620.6,304.2z"/>
					</g>
					<g id="Grupo_105">
						<path id="Caminho_77" d="M657.2,308.6v-3.3l6.2-8.7h4.3v8.6h1.6v3.4h-1.6v2.4h-4v-2.4H657.2z M664,301.1l-2.8,4.1h2.8
							L664,301.1z"/>
					</g>
				</g>
				<g id="Grupo_111">
					<g id="Grupo_107">
						<path id="Caminho_78" d="M637.7,313.6c-5.9,0-10.8-3.8-10.8-8.6c0-4.7,4.8-8.6,10.8-8.6c5.9,0,10.8,3.9,10.8,8.6
							c0,1.3-0.4,2.6-1.1,3.7l-0.1,0.1l-1.1-0.7l0.1-0.1c0.6-0.9,0.9-2,0.9-3c0-4-4.2-7.2-9.4-7.2c-5.2,0-9.4,3.2-9.4,7.2
							c0,4,4.2,7.2,9.4,7.2c1.3,0,2.6-0.2,3.8-0.6l0.4,1.3C640.6,313.4,639.1,313.6,637.7,313.6z"/>
					</g>
					<g id="Grupo_108">
						<path id="Caminho_79" d="M635.6,309.2c-1.9-0.5-3.3-2.2-3.5-4.2c0.7-3.1,3.7-5.1,6.8-4.4c2.2,0.5,3.9,2.2,4.4,4.4
							c0,1.3-0.6,2.4-1.6,3.2l-0.9-1.1c0.7-0.5,1.1-1.3,1.1-2.1c0-1.8-1.9-3.2-4.2-3.2s-4.2,1.4-4.2,3.2c0.1,1.4,1.2,2.6,2.5,2.9
							L635.6,309.2z"/>
					</g>
					<g id="Grupo_109">
						<path id="Caminho_80" d="M645,313.6c-5.9,0-10.8-3.8-10.8-8.6c0-1.4,0.4-2.8,1.2-4l1.1,0.8c-0.7,1-1,2.1-1,3.3
							c0,4,4.2,7.2,9.4,7.2s9.4-3.2,9.4-7.2c0-4-4.2-7.2-9.4-7.2c-1.2,0-2.4,0.2-3.5,0.5l-0.4-1.3c1.3-0.4,2.6-0.6,3.9-0.6
							c5.9,0,10.8,3.9,10.8,8.6S651,313.6,645,313.6z"/>
					</g>
					<g id="Grupo_110">
						<path id="Caminho_81" d="M645,309.5c-2.8,0.3-5.3-1.8-5.6-4.5c0-1.2,0.5-2.3,1.4-3.1l0.9,1c-0.6,0.5-1,1.2-1,2
							c0,1.8,1.9,3.2,4.2,3.2c2.3,0,4.2-1.4,4.2-3.2c-0.2-1.5-1.3-2.7-2.8-3l0.4-1.3c2.1,0.4,3.7,2.2,3.8,4.3
							C650.3,307.8,647.8,309.8,645,309.5z"/>
					</g>
				</g>
			</g>
		</g>
	</g>
	<text transform="matrix(1 0 0 1 461.3025 414.5367)" class="st9 st10">Bienvenidos a nuestra comunidad.</text>
</g>
</svg>
