<?xml version="1.0" encoding="utf-8"?>
<!-- Generator: Adobe Illustrator 24.2.0, SVG Export Plug-In . SVG Version: 6.00 Build 0)  -->
<svg version="1.1" id="Camada_1" xmlns="http://www.w3.org/2000/svg" xmlns:xlink="http://www.w3.org/1999/xlink" x="0px" y="0px"
	 viewBox="0 0 1280 1280" style="enable-background:new 0 0 1280 1280;" xml:space="preserve">
<style type="text/css">
	.st0{fill:#4B8ED2;}
	.st1{fill:#EFCC3E;}
	.st2{fill:#50A545;}
	.st3{fill:#B25AA7;}
	.st4{fill:#F49725;}
	.st5{fill:#E94941;}
	.st6{fill:#F1EEE9;}
	.st7{fill:#83C8E8;}
</style>
<rect x="-6.5" y="-6.5" class="st0" width="1293.1" height="1293.1"/>
<g>
	<g>
		<path class="st1" d="M579.5,328.6c-28.5,19.9-55.6,48-82.2,71.6c-21.2,18.7-58,49.6-67.2,75.1c65.1,17.1,136.5,22.6,202.8,27
			c-3.1-28.2-22-64.6-30.3-94.6c-7.5-27.4-13.9-60.2-22.4-81.6"/>
	</g>
	<g>
		<path class="st1" d="M979.3,416.4c-30.3,16.9-43.8,44.3-72.7,65c-23,16.5-62.8,43.5-74.5,67.9c63,23.6,119.9,32,185.4,43.1
			c-0.2-28.3-7.8-61.7-18.7-90.9C988.3,473.6,979.3,416.4,979.3,416.4z"/>
	</g>
	<g>
		<path class="st2" d="M631.9,503.7c32,13.5,70.3,21.5,104.4,31.5c27.1,8,72.9,22.7,99.4,16.9c-20.1-64.2-53.5-127.6-85.1-186
			c-22.2,17.6-42.9,53-64,76.1c-19.2,21-43.6,43.8-57.1,62.4"/>
	</g>
	<g>
		<path class="st2" d="M745.8,833.1c27.7,11.7,51.3,7,80.8,15.6c23.5,6.9,66.8,24.7,95.6,26.3c-17.4-55.6-46.3-110.4-73.7-161.1
			c-19.2,15.2-37.2,45.9-55.4,65.8c-16.6,18.1-37.7,38-49.5,54"/>
	</g>
	<g>
		<path class="st3" d="M747.9,835.4c0,11.8,4.7,25,6.6,36.7c2.5,15.5,7.8,30.2,13.2,45.1c4.6,13,8.8,26.7,14,39.3
			c5.1,12.3,8.2,28.1,14.9,39.5c13.8-8.4,23.4-25.5,36.7-35.4c11.7-8.8,21-20.4,32.4-29.6c20.2-16.4,41.7-35,58-55.4
			c-58.4-17-119.2-30-177.2-44.8c0,1.3,0.7,0.3,1.7,0.2"/>
	</g>
	<g>
		<path class="st4" d="M843.4,718.6c10.6,9,26.1,14.7,38,21.8c15.8,9.5,33.1,15.8,50.6,22.4c15.3,5.7,30.7,12.3,46,17.2
			c14.9,4.8,31.6,13.9,46.8,16.6c2.9-18.8-5.2-40.4-4.1-59.9c1-17.3-2.4-34.4-2.1-51.7c0.6-30.7,0.1-64.1-5.9-94.3
			c-59.6,39.7-117.5,84.6-174.8,125.6c1.2,1,0.8-0.4,1.5-1.4"/>
	</g>
	<g>
		<path class="st4" d="M305.3,599c11.2-5.7,21.4-16.6,31.5-24.1c13.5-9.9,24.8-22.1,36.4-34.4c10.1-10.7,21-21.3,30.5-32.4
			c9.2-10.8,22.7-21.5,30.2-33.3c-14.6-9-35.5-9.8-51.4-17.6c-14.1-6.9-29.5-10-43.8-16.3c-25.4-11.2-53.4-22.5-80.7-28.1
			c12.2,63.6,29.4,127.7,43.6,189.8c1.3-0.6,0-0.8-0.6-1.7"/>
	</g>
	<g>
		<path class="st3" d="M633.8,508.6c9.1,25,7.6,63.1,10.2,92.3c2.5,28,3.9,55.4,6.9,83.5c13.3-6.8,32-28.1,45.5-37.8
			c15.3-10.9,28.5-23.9,44.4-34.3c14.4-9.4,29.1-19.1,43.6-28.5c13.5-8.8,27.9-23.8,42.6-29.2c0.3-1,0.3-2,0-2.9
			c-18.2-5.1-37.4-2.6-56.1-7.8c-18-5-36.2-9.2-53.8-14.7c-25.2-7.8-61.7-10.2-82.5-26.6"/>
	</g>
	<g>
		<path class="st1" d="M386,767.9c-0.2-25.6-20.7-54.2-30.2-77.7c-6.6-16.5-14.6-32.6-21.8-49c-7.5-17.1-21.1-29.8-28.3-46.5
			c0.6-0.8,1.3-1.4,2.2-1.8c13.1,7.6,33.3,9,48.2,13.6c15.9,4.9,32.3,9.9,48.3,14.7c17.6,5.4,35.6,7.1,53.2,11.8
			c15.6,4.1,40.4,18.5,56.5,10.5c-19.5,19.7-39.5,37.6-59.2,56.8c-20.6,20-68.7,67.5-68.7,67.5L386,767.9z"/>
	</g>
	<g>
		<path class="st5" d="M651.5,684.5c28.6-19.2,53.7-53.5,82.4-73.6c31.4-21.9,66.9-38.3,98-60.9c2.5,29.7,9.5,67.1,14,96.8
			c3.6,23.8,2.8,48.2,5,72.4c-16.2,3.4-44.2-7.1-60.7-11.2c-20.2-4.9-40.9-10.3-61.3-13.7C703.2,690.1,651.5,684.5,651.5,684.5z"/>
	</g>
	<g>
		<path class="st5" d="M922,876c31.9,8.7,40.5,11.8,69.5,22.8c31.6,12,69.9,32.5,101.9,44c-23.2,17.4-52.3,34.8-75.5,49.4
			c-18.2,11.3-47.1,30-63.9,43.6c-5.8-14.5-1.9-34-7-48c-6.2-17.1-8.3-41.9-13.3-59.4C927.9,907.9,922,876,922,876z"/>
	</g>
	<g>
		<path class="st4" d="M504.8,830.9c32.9-4.1,41.9-4.5,72.9-5.3c33.8-0.9,77,3.5,110.9,1.9c-14.9,24.9-35.1,52.1-51.1,74.4
			c-12.5,17.4-32.1,45.7-42.5,64.6c-10.9-11.2-14.7-30.7-24.8-41.8c-12.3-13.5-23.6-35.6-34.9-49.9
			C522.3,858.3,504.8,830.9,504.8,830.9z"/>
	</g>
	<g>
		<path class="st5" d="M385.8,769.3c-5.1-22.9-20.6-67.5-32.5-88.4c-15-26.1-34.9-58.4-48-85.2c-20.9,32.4-39.6,51.3-66.6,79.4
			c-24.3,25.3-41.3,41.1-61,69.3C177.7,744.4,372,778.3,385.8,769.3z"/>
	</g>
	<g>
		<path class="st6" d="M846.8,723.2c13-12.7,28.8-21,42.7-32.1c16.1-12.9,12.3-9.5,28.6-22.4c18.1-14.5,30.6-29.9,50.4-42.4
			c12.7-8,38.1-23.6,49.1-33.8c-43.5-3.5-62.3-15.2-105.7-26.9c-26.5-7.2-51.5-11.3-78.8-15.3C833,550.2,838.8,666.2,846.8,723.2z"
			/>
	</g>
	<g>
		<path class="st7" d="M305.2,595.5c17.9,2.5,34.2,10,51.5,14.2c20.1,4.9,15,4,35.2,8.9c22.6,5.5,42.4,6,64.3,14
			c14.1,5.2,42,15.8,56.7,18.3c-23.7-36.6-26-58.6-43.2-100.2c-10.5-25.4-22.5-47.7-35.9-71.8C433.8,479,345.5,554.4,305.2,595.5z"
			/>
	</g>
</g>
<g>
	<g>
		<path class="st4" d="M569.5,190c13.2-9.4,25.3-17.8,36.5-29.8c4.3-4.6,23.1-29.5,5.4-22.2c-14.6,6-27.5,19-36.5,31.9
			c-2.7,3.8-6.5,7.6-8.4,11.8c-2.3,5.1-0.1,10.2,6.2,6.4"/>
	</g>
	<g>
		<path class="st4" d="M528,228.7c-13.8,8.6-26.3,16.2-38.3,27.4c-4.6,4.3-25.2,27.8-7.1,21.5c14.8-5.2,28.6-17.2,38.5-29.4
			c2.9-3.6,7-7.1,9.3-11.1c2.7-4.9,0.9-10-5.5-6.6"/>
	</g>
	<g>
		<path class="st4" d="M656.3,211.2c-16.2,0.2-30.8,0.3-46.9,3.7c-6.2,1.3-35.9,10.8-17.2,14.7c15.3,3.2,33.3,0,48.2-5.4
			c4.4-1.6,9.7-2.5,13.7-4.8c4.9-2.8,6-8.1-1.3-8.5"/>
	</g>
	<g>
		<path class="st4" d="M665.4,260.4c-14.7-6.8-27.9-13.1-43.9-17c-6.1-1.5-37-5.8-21.9,5.8c12.4,9.5,30.1,14.4,45.7,16
			c4.6,0.5,9.8,2,14.4,1.6c5.6-0.4,8.9-4.7,2.5-8.2"/>
	</g>
	<g>
		<path class="st4" d="M579.8,204.6c16-7,33.2-9.4,48.9-17.7c3.9-2.1,28.6-15.4,12.5-16c-7.4-0.3-18.6,5.4-25.6,8.3
			c-7.5,3.1-14.3,6.1-20.9,10.2c-3.6,2.2-7.1,4.1-10.5,6.5c-2,1.4-10.2,7.6-2.9,7.2"/>
	</g>
	<g>
		<path class="st4" d="M493.4,137.6c4.3,6,16.2,11.1,22.7,15.6c6.6,4.6,13.4,8.8,20.2,12.9c5.3,3.3,21.2,10.4,12.7-1.1
			c-9.6-13-24.6-21.7-39.7-27.2c-3.3-1.2-7.1-3.2-10.4-4c-7.8-1.8-4.7,2.2-1.1,7.1"/>
	</g>
	<g>
		<path class="st4" d="M590.2,267.8c2.9,6.3,13.1,12.9,18.3,18.1c5.3,5.3,10.9,10.3,16.4,15.2c4.3,3.9,17.9,12.9,12.1,0.7
			c-6.5-13.8-19-24.3-32-31.6c-2.8-1.6-6-4-9.1-5.2c-7-2.8-4.9,1.5-2.5,6.7"/>
	</g>
	<g>
		<path class="st4" d="M484.9,193.7c17.5-1,34.8,0.2,52.3-2.6c3.7-0.6,8.9-1.4,12.1-3.2c4.3-2.4,3.9-3.2,0-4.7
			c-15.3-6.2-40.4-1.7-56.8,2c-2.6,0.6-7.6,1.5-9.7,2.8c-3.5,2.2-2.6,4.5,2.5,4.5"/>
	</g>
</g>
<path class="st6" d="M274,211.1c7.8,15.7,33.9,29.5,49.7,35.4c9.8,3.7,18.1,7.6,28.3,10.4c10.1,2.8,37.2,6.6,37.2,6.6
	s1.9,7.9,1.9,17.7c0,6.7,0.6,13.6,1,20c-21.8-3.2-40.3,2.1-61.6,5c13.7,12.5,28.4,23.3,41.2,37c10.6,11.3,19.8,24.9,30,36.6
	c-5.8,3.7-9.9,10.6-14.6,15.9c-9.3-6.7-26-16.3-35.6-21.7c-17.6-10-33.1-23.3-50.7-32.5c30.5,28.1,58.6,58.7,80.1,93.6
	c-6.7,5.6-13.1,11.6-19.6,17.8c-18.2-16.1-36.2-31.6-52.8-49.1c-12.3-13-28.9-19.6-41-31.8c3.3,4.3,3,9.9,5.1,14.9
	c2.3,5.4,6.2,10,9,15.2c5.1,9.6,8.3,20.3,13.1,30.1c5.3,10.8,11.9,20.7,17.3,31c-5.8,3.1-22.7,11.5-27.1,16.6
	c-9.7-8.3-57-86.1-64.9-92.7c3.6,14.2,7.3,68,7.3,68s-13.5,0.7-28,5c0.7-2.2-24.9-73.5-26.4-86.9c-2.8-24.4-7.9-45.1-15.2-68.4
	c-3.1-10-3.9-33-13.9-37.7c10.2-4.1,19.6-17.8,27.7-25.3c9.2-8.6,18.8-16,28.3-24.1c10.7-9.2,20.2-18.2,32-26.2
	c6.4-4.3,15.4-13,23.1-13.7C258.1,188.3,266.5,203.9,274,211.1z"/>
<path class="st6" d="M722.5,1130.1c0,0,40.1-15.1,55.8-17.1c8.9-1.1,40.2-0.2,44.7-6.3c1.5-2-0.4-17.8-1.2-20.8
	c-2.5-9.3,1.9-9.2-8.3-12.2c-18.3-5.3-44.1-11.3-62.3-14.5c8.7-14,24.1-23.8,36-35.7c13.2-13.1,27-24.9,40.3-37.5
	c-5-11.5-17.8-18-17.8-18s-22.2,12.2-30.3,19.3c-16.7,14.7-38.6,27.1-57.6,38.3c8.8-21.3,28.6-41.9,40.9-61.5
	c7.2-11.5,15.6-25,24.7-34.5c-7.7-4.7-14.4-12.5-26.1-18.5c-9.5,17.3-30.9,32.9-44.7,47.7c-10.5,11.2-23.7,24.8-35.8,34.2
	c4.5-16.2,20-75,25.6-88.6c-12.4-5.9-14.2-8.6-27.7-11.2c-5,12.3-21.4,40.2-26.8,51.8c-6,12.8-13.1,25.2-18.7,38.1
	c-1.7-13.2-7.2-23.1-12.8-34.5c-3.5-7.1-8.5-32.2-8.5-32.2l-32.2,8.5c0,0,3.8,14.5,5.4,30.9c2,20.7,2.7,52.6,2.2,65.5
	c-0.6,15.9-26.3,82.6-33.1,90.6c12.2,9.5,42.2,25.4,54.8,33c19.9,12,32.9,24.9,54.8,33C668,1172.9,722.5,1130.1,722.5,1130.1z"/>
<path class="st6" d="M959.8,223.4c0,0-41.9-13.5-55.7-21.9c-7.9-4.8-32.4-25.5-39.9-23.4c-2.5,0.7-11,14.5-12.3,17.4
	c-4,9.1-7.4,6.2-1.2,15.1c11.3,16,28.2,37.3,40.8,51.4c-15.9,5.7-34.5,3.7-51.6,5.7c-19,2.1-37.5,2.7-56.3,4.4
	c-3.3,12.4,2.8,25.8,2.8,25.8s25.6,4.4,36.7,3.8c22.8-1.2,48.3,2.9,70.7,6c-20.6,11.4-49.7,15.4-72,23.3
	c-13.1,4.6-28.5,10.1-41.8,11.9c3.2,8.7,3.6,19.3,9.2,31.5c18.7-7.8,45.9-6.7,66.3-9.7c15.6-2.3,34.8-4.8,50.6-4.6
	c-13.9,10.1-63.9,47.5-77,54.8c6.2,12.7,5.9,16,15.1,26.7c11.9-6.7,42.8-18.6,54.6-24.5c13-6.5,26.6-11.9,39.3-18.6
	c-7.1,11.7-9,23.1-11.8,35.9c-1.8,7.9-13.7,31.2-13.7,31.2l31.2,13.7c0,0,6.2-14.1,15.4-28.3c11.6-17.9,31.4-43.9,40-53.9
	c10.7-12.4,73.9-49.5,84.4-51.6c-3.8-15.4-17.7-47.3-23-61.5c-8.3-22.3-10.5-41-23-61.5C1030.9,223.9,959.8,223.4,959.8,223.4z"/>
<g>
	<path class="st3" d="M194.3,1074.5c11.1,5.9,25.9,7.9,37.9,11.9c15.9,5.3,32.3,7.5,49.1,9.9c14.6,2.1,29.5,4.9,44,6.2
		c14.1,1.3,30.6,6.2,44.6,5.5c-1.1-17.2-12.5-34.7-15.3-52.1c-2.5-15.4-8.8-29.9-11.9-45.2c-5.5-27.2-12.4-56.6-23.6-82.1
		c-44.9,46.7-87.3,97.7-129.9,145.1c1.2,0.7,0.7-0.5,1-1.5"/>
</g>
<g>
	<g>
		<path class="st6" d="M410.2,897.8c-13-9.8-24.6-18.7-39.4-25.8c-5.7-2.7-35.1-13.2-22.7,1.6c10.1,12.1,26.4,20.5,41.4,25.2
			c4.4,1.4,9.2,3.9,13.8,4.5c5.6,0.7,9.8-3,4.3-7.8"/>
	</g>
	<g>
		<path class="st6" d="M367.1,845c-6.7-14.8-12.7-28.1-22.3-41.5c-3.7-5.1-24.3-28.5-20.4-9.8c3.2,15.3,13.4,30.5,24.3,41.9
			c3.2,3.4,6.2,7.9,9.9,10.6c4.5,3.3,9.8,2.2,7.3-4.6"/>
	</g>
	<g>
		<path class="st6" d="M267.1,866.4c-14.8-6.7-28-12.9-44-16.7c-6.2-1.4-37.1-5.6-21.8,5.9c12.5,9.4,30.2,14.2,45.8,15.7
			c4.6,0.4,9.8,1.9,14.4,1.5c5.6-0.4,8.8-4.8,2.5-8.2"/>
	</g>
	<g>
		<path class="st6" d="M357.8,766.8c0.8,13.3,1.4,25.3,5.4,38c1.5,4.9,11.9,28.1,15.1,12.2c2.6-13-1.2-27.4-7-38.8
			c-1.7-3.4-2.8-7.6-5.2-10.6c-2.9-3.6-8.2-3.8-8.3,2.2"/>
	</g>
	<g>
		<path class="st6" d="M265,884.4c-11.5,7.8-21.8,14.7-31.9,24.6c-3.9,3.8-21.2,24.1-6.3,17.9c12.2-5.1,23.7-15.7,32.1-26.2
			c2.5-3.1,5.9-6.2,7.8-9.6c2.3-4.1,1-8.2-4.3-5"/>
	</g>
	<g>
		<path class="st6" d="M403,804.7c-0.1-14.6,4.6-28.5,3.2-43.2c-0.3-3.7-2.8-27-9.7-15c-3.2,5.5-2.4,16-2.5,22.3
			c-0.1,6.7-0.1,12.9,1.1,19.3c0.6,3.5,1,6.8,1.7,10.2c0.5,2,2.9,10.4,5.5,4.6"/>
	</g>
	<g>
		<path class="st6" d="M261,930.4c-0.9,7.3,4.4,19.1,6,26.8c1.7,7.8,3.9,15.5,6,23.2c1.7,6,8.5,22,10,7.8c1.8-16-3.4-32.7-10.7-46.9
			c-1.6-3.1-3-7.1-5-10c-4.5-6.6-4.9-1.6-5.7,4.5"/>
	</g>
	<g>
		<path class="st6" d="M295.5,924.5c5.2-4.6,8.3-16.4,11.7-22.9c3.5-6.6,6.5-13.5,9.6-20.3c2.4-5.3,6.9-20.9-3-11.8
			c-11.2,10.3-17.4,25.4-20.5,40.1c-0.7,3.2-2,7-2.3,10.2c-0.5,7.5,2.9,4.2,7.2,0.3"/>
	</g>
	<g>
		<path class="st6" d="M330,877c2.8,17.3,3.4,34.7,8,51.7c1,3.6,2.3,8.7,4.4,11.7c2.8,4,3.6,3.5,4.7-0.5c4.5-15.8-2.5-40.4-7.9-56.3
			c-0.8-2.5-2.3-7.4-3.8-9.3c-2.6-3.2-4.8-2.1-4.3,2.9"/>
	</g>
</g>
</svg>
