<svg id="Camada_1" data-name="Camada 1" xmlns="http://www.w3.org/2000/svg" viewBox="0 0 550 420"><defs><style>.cls-1{fill:#50a545;}.cls-2{fill:#efcc3e;}.cls-3{fill:#f49725;}.cls-4{fill:#83c8e8;}.cls-5{fill:#e94941;}.cls-6{fill:#b25aa7;}.cls-7{fill:#4b8ed2;}</style></defs><g id="Grupo_356" data-name="Grupo 356"><g id="Grupo_263" data-name="Grupo 263"><g id="Grupo_260" data-name="Grupo 260"><path id="Caminho_322" data-name="Caminho 322" class="cls-1" d="M431.35,379.87C424,374.5,416.53,369.06,410.73,362c-4.76-5.76-15-19.29-15.33-20.23a6.67,6.67,0,0,1-.34-2.26c-.56-15.38-.06-48.4.32-49.44a10.46,10.46,0,0,1,1.78-2.84c9.81-12.35,36.77-35.61,36.77-35.61a33.66,33.66,0,0,1,3.84-.71c9.52-.71,19.07,0,28.59.64l21.86,1.55,4,2.39c12.66,11.12,20.18,21.84,30.84,34.88a4.08,4.08,0,0,1,1.17,3.55q-.56,19.47-1.12,38.92c-.12,4.18-1.88,9.45-1.13,14l-1.33,1.68c-13.27,12.31-22.22,21.4-35.49,33.71,0,0-8.56.46-12.37-.58a47.87,47.87,0,0,0-12-1.19C451.14,380.45,431.35,379.87,431.35,379.87Z"/><path id="Caminho_323" data-name="Caminho 323" class="cls-2" d="M92.5,264.49a830.21,830.21,0,0,1-12.19-92.65c-1.42-19.08-5.57-37.75-7.44-56.87-1-10.55-6-20.2-9.25-30.45,24.43-7.12,59.3-16.92,84.95-9.6,27.35,7.8,31.69,38.57,20.07,59.89-6.77,12.41-18.61,19.76-28.38,29.58,28.07-7.08,76.64-3.4,92.52,24.05,6.9,11.93,5.89,30.91,2.79,43.65-6.23,25.61-34.21,32.61-59,40.19-14.8,4.53-29.88,8.29-44.84,12C121,287,108.08,288.3,98,292.61,96.37,281.9,96.88,269.23,92.5,264.49Z"/><path id="Caminho_324" data-name="Caminho 324" class="cls-3" d="M222.39,119.92c4.32-5.92,14.24-15.49,19.5-15.16,2,2,9.16,11.41,10.06,14.25,6.16-15,45.56-22.92,68.68-10.64,1.57,6.12-7.53,25-8.67,31.78-18.54-6.88-31.25-9.8-41.56,2.71-11.33,13.74-7.18,24.66,4.72,55.8,2.45,6.4,22.51,49.2,21.67,54.18-7.66,1-33.17,4.47-39.73,7.94-1.41-19.84-6.21-39.24-8.48-59.22-1.38-12.17-4.4-24.07-6.39-36.27C240.92,157.46,234,127.87,222.39,119.92Z"/><path id="Caminho_325" data-name="Caminho 325" class="cls-4" d="M262.19,277.87l12.95-3.76s19.48,8.78,25.15,15.57c14,16.76,22.15,37.77,26.5,58.55,2,9.43,4.37,18.82,5.79,28.38,1.44-31.81.12-64.71,9.54-95.55,2.3-7.55,11.45-22.77,11.45-22.77s27.21,4.08,32.89,10.5C368,281.9,365.17,323,363.92,335c-1.42,13.73.13,26.45.32,40.11.15,11,3.57,21.48,3.73,32.34-8.48-.83-17.15,2.38-25.48,3.6a169.15,169.15,0,0,0-25.85,6.39c-.55-13.75-6.26-27.51-11.47-40.28-7.39-18.13-16.37-36-29.25-50.82-10.92-12.58-21.85-36-40.5-36.67C241.54,284.59,258.39,279,262.19,277.87Z"/><path id="Caminho_326" data-name="Caminho 326" class="cls-5" d="M496.7,201.75c-2.66-7.13-5.34-14-5.85-21.33-4.75,1.64-8.54,5.55-14.05,6.49-9.66,1.64-17.24-2.59-22.36-10.75-10-15.94-13.56-36-21.87-52.9-5.81-11.8-11.11-25.56-24.93-29.9-18-5.67-40.18,1.92-55.31,11.79-6,3.9-23.72,17.13-24.23,23.26,8.33,5.35,16,10.91,20.7,19.69,3.73-15.27,14.37-21.5,29.61-25.28,14.44-3.59,20.56.59,26,12.21,2.67,5.73,7,13.08,7.62,19.57-17,.91-32.76,1.66-49.27,6.81-19.42,6.06-27.58,18.34-30.94,38-2.56,15,5,36.16,20.49,41,15.81,4.94,36.14,1,51.18-5.36S428,215.74,433.9,201.05c6.44,21.1,24.53,20.67,43.26,16.45,5-1.12,14.73-1.87,18.81-4.59C501,209.58,498.87,207.56,496.7,201.75Z"/></g><g id="Grupo_261" data-name="Grupo 261"><path id="Caminho_327" data-name="Caminho 327" class="cls-1" d="M477.63,177.54c1.47-6.37,2.87-12.08,3-18.69.06-2.53-.91-15-4.29-8.09-2.77,5.69-3.21,13-2.48,19.32.21,1.86.07,4,.61,5.8.66,2.16,2.71,3.08,3.56.29"/><path id="Caminho_328" data-name="Caminho 328" class="cls-1" d="M490,153.09c4.32-4.89,8.25-9.25,11.58-15,1.28-2.2,6.5-13.59.28-9.09-5.09,3.7-9,9.92-11.43,15.77-.72,1.72-1.88,3.54-2.28,5.36-.49,2.2.8,4,2.87,1.91"/><path id="Caminho_329" data-name="Caminho 329" class="cls-1" d="M465.77,119.85c.06-6.52.18-12.39-1-18.88-.48-2.5-4-14.53-5.75-7-1.42,6.13-.3,13.4,1.71,19.4.59,1.77.9,3.91,1.79,5.54,1.07,2,3.2,2.47,3.42-.44"/><path id="Caminho_330" data-name="Caminho 330" class="cls-1" d="M517.19,136.91c-4.75,2.47-9.06,4.64-13.1,8.18-1.55,1.36-8.36,9-2,7.54,5.2-1.17,9.85-4.92,13.12-8.92,1-1.18,2.35-2.27,3.06-3.64.86-1.66.07-3.64-2.15-2.7"/><path id="Caminho_331" data-name="Caminho 331" class="cls-1" d="M458.82,122.05c-4.74-2.93-9-5.61-14.22-7.69-2-.8-12.3-3.84-7.6.6,3.86,3.65,9.64,6.14,14.87,7.5a33.5,33.5,0,0,0,4.81,1.3c1.9.18,3.17-1,1.14-2.42"/><path id="Caminho_332" data-name="Caminho 332" class="cls-1" d="M510.61,159.68c5.33-2.41,11.21-3,16.38-5.88,1.3-.72,9.44-5.43,3.91-6-2.55-.27-6.26,1.74-8.61,2.72a39.39,39.39,0,0,0-6.93,3.55c-1.17.79-2.33,1.46-3.46,2.31-.66.49-3.33,2.74-.8,2.77"/><path id="Caminho_333" data-name="Caminho 333" class="cls-1" d="M441.28,128.06c-2.82.86-6.31,4.74-8.86,6.6s-5.07,4-7.54,6c-1.92,1.59-6.71,6.7-1.24,5,6.17-2,11.45-6.56,15.47-11.57a39.48,39.48,0,0,0,2.86-3.46c1.68-2.72-.22-2.07-2.56-1.36"/><path id="Caminho_334" data-name="Caminho 334" class="cls-1" d="M449.08,139.76c2.56,1.15,7.38.38,10.33.58s6,.19,9,.2c2.34,0,8.83-.88,3.84-3-5.62-2.42-12.17-2.25-18.05-1a31.85,31.85,0,0,0-4.11.84c-2.83,1-1.07,1.74,1.05,2.68"/><path id="Caminho_335" data-name="Caminho 335" class="cls-1" d="M472.18,144.7c-5.88,3.85-12.18,6.91-17.69,11.38a16.55,16.55,0,0,0-3.56,3.53c-1,1.69-.71,1.89.94,1.66,6.55-.92,14.41-7.52,19.36-12.1a16.47,16.47,0,0,0,2.81-2.91c.77-1.47,0-2.09-1.77-1.08"/></g><g id="Grupo_262" data-name="Grupo 262"><path id="Caminho_336" data-name="Caminho 336" class="cls-6" d="M377,335c0-6.53.14-12.41-1.15-18.89-.5-2.49-4.19-14.47-6-7-1.46,6.16-.27,13.42,1.82,19.39.62,1.77.95,3.91,1.87,5.52,1.12,2,3.32,2.42,3.54-.5"/><path id="Caminho_337" data-name="Caminho 337" class="cls-6" d="M379.87,357.65c-.44,6.51-.9,12.36-.06,18.91.33,2.52,3.14,14.73,5.32,7.37,1.78-6,1.09-13.35-.56-19.46-.48-1.81-.67-4-1.46-5.64-.95-2-3.05-2.65-3.44.24"/><path id="Caminho_338" data-name="Caminho 338" class="cls-6" d="M404.31,311.69c-3.74,5.35-7.16,10.13-9.81,16.18-1,2.32-4.91,14.24.75,9.05,4.65-4.25,7.82-10.88,9.57-17,.51-1.79,1.46-3.74,1.65-5.58.24-2.24-1.24-3.85-3.07-1.57"/><path id="Caminho_339" data-name="Caminho 339" class="cls-6" d="M422.48,320.29c-5.69,3.2-10.84,6-15.85,10.33-1.93,1.65-10.59,10.71-3.24,8.49,6-1.82,11.76-6.42,16-11.14,1.24-1.4,2.94-2.74,3.91-4.32,1.18-1.91.54-4-2.09-2.74"/><path id="Caminho_340" data-name="Caminho 340" class="cls-6" d="M384.19,335.1c1.46-6.87,4.74-13.05,5.71-20.08.24-1.76,1.67-12.93-2.29-7.86-1.82,2.34-2.59,7.34-3.29,10.3a56.3,56.3,0,0,0-1.58,9.21c-.11,1.68-.32,3.28-.36,4.95,0,1,.06,5.12,1.68,2.64"/><path id="Caminho_341" data-name="Caminho 341" class="cls-6" d="M342,347.55c3,0,7.42-2.69,10.41-3.73s6-2.31,9-3.54c2.3-1,8.37-4.46,2.63-4.39-6.47.08-12.86,2.95-18.18,6.56a40.27,40.27,0,0,0-3.74,2.47c-2.4,2.12-.39,2.05,2.06,2.05"/><path id="Caminho_342" data-name="Caminho 342" class="cls-6" d="M407.21,346.55c2.75.56,7.28-1.25,10.2-1.71s5.92-1.13,8.83-1.79c2.28-.51,8.42-2.79,3.08-3.8-6-1.12-12.37.48-17.83,3a33.68,33.68,0,0,0-3.83,1.72c-2.53,1.62-.66,1.93,1.62,2.39"/><path id="Caminho_343" data-name="Caminho 343" class="cls-6" d="M358.33,363.48c3.77-5.93,8.26-11.31,11.44-17.65a16.75,16.75,0,0,0,1.8-4.68c.24-2-.13-2-1.54-1.13-5.6,3.53-10,12.78-12.67,19a16,16,0,0,0-1.38,3.8c-.09,1.66.88,1.9,2.07.26"/></g><path id="Caminho_344" data-name="Caminho 344" class="cls-4" d="M501.36,244.07c2.72,2.31,6.71,3.77,9.78,5.62a78.31,78.31,0,0,0,13,5.75c3.92,1.46,7.9,3.16,11.83,4.42s8.12,3.59,12,4.26c.75-4.83-1.33-10.39-1-15.4.25-4.44-.61-8.84-.53-13.29.14-7.88,0-16.47-1.53-24.24C529.6,221.39,514.7,233,500,243.48c.3.26.21-.1.38-.35"/><path id="Caminho_347" data-name="Caminho 347" class="cls-5" d="M249.49,401.49c-6.08-2.46-16.78.18-22.66,2.45-3.66,1.41-6.93,2.38-10.49,4.14s-12,7.38-12,7.38a32.16,32.16,0,0,1-4.92-4.48c-1.67-1.88-3.55-3.67-5.26-5.34,6.91-4.52,10.75-10.61,16-16.71-6.92-.08-13.74.54-20.69-.1-5.78-.53-11.71-2-17.48-2.74.7-2.48.13-5.44.15-8.07,4.28-.43,11.32-1.9,15.34-2.76,7.41-1.58,15-1.71,22.24-3.54-15.49-.26-31-1.82-45.64-6.23.49-3.25.76-6.49,1.07-9.84,9.06,0,17.95-.18,27,.59,6.65.57,12.94-1.7,19.36-1.28-2-.38-3.31-2-5.14-2.9s-4.24-1.25-6.3-2c-3.81-1.41-7.36-3.61-11.14-5.16-4.14-1.69-8.47-2.8-12.54-4.37.85-2.32,3.47-8.85,3.46-11.38,4.77-.09,37.32,9.91,41.16,9.77-4.52-3.07-19-17.16-19-17.16a48.88,48.88,0,0,0,6.59-8.37c.33.78,25.21,14.35,29,17.71a131.86,131.86,0,0,0,21.26,15.32c3.35,2,9.29,8.24,13.26,7.08-1.84,3.67-1,9.84-1.42,14-.43,4.67-1.28,9.16-1.91,13.76-.73,5.22-1.12,10.09-2.44,15.26-.72,2.79-1.05,7.46-3,9.57C259.62,403.89,253.41,401.63,249.49,401.49Z"/><path id="Caminho_348" data-name="Caminho 348" class="cls-1" d="M303.23,175.86c-.86,4.25,4.81,10.67,7.69,13.94,3,3.43,4.85,6.84,9,9.38,4.91,3,11,6.51,16.94,6.79s11.83-2.45,17.46-3.71,11-1.73,16.5-2.63c-6.35-4.34-9.35-11.79-14.4-17.28a65.57,65.57,0,0,0-13.07-11.42,33.47,33.47,0,0,0-11.95-4.86c-6-1.33-11.46,2.5-17,4.4a35.07,35.07,0,0,0-7.32,3.34A15,15,0,0,1,303.23,175.86Z"/><path id="Caminho_349" data-name="Caminho 349" class="cls-1" d="M324.07,241.56c-1.43-16.13,12.26-23.81,23.81-30.7-.15,3.22,1.33,6.44,1.85,9.52a40,40,0,0,1,.32,10.87c-.94,9-7.74,12.75-15.84,15.77-3.66,1.36-8,1.79-11.57,3.76A29.75,29.75,0,0,1,324.07,241.56Z"/></g></g><g id="Grupo_358" data-name="Grupo 358"><path id="Caminho_474" data-name="Caminho 474" class="cls-7" d="M30.93,5.86c.49,4.66.29,9.36.77,14.17.37,3.72.1,15.78,3.16,18.33,4.63,3.86,28.19-1.76,34.85-1.18,3-10.9-3.77-23.5-5-34.1C53.24,2.53,41.49,5.29,30.25,5.93"/><g id="Grupo_357" data-name="Grupo 357"><path id="Caminho_128" data-name="Caminho 128" class="cls-5" d="M34.77,38.23c1,4.59,2.59,9,3.61,13.72C39.17,55.61,43.12,67,41,70.37c-3.22,5.1-27.38,7-33.54,9.56-6.23-9.43-3.61-23.52-5.68-34,10.75-4,22.77-5,33.66-7.85"/></g></g><g id="Grupo_359" data-name="Grupo 359"><path id="Caminho_128-2" data-name="Caminho 128-2" class="cls-6" d="M128.65,316.59c1,4.59,2.6,9,3.61,13.73.79,3.66,4.75,15.05,2.62,18.42-3.23,5.09-27.38,7-33.54,9.56-6.23-9.44-3.61-23.52-5.68-34,10.74-4,22.77-5,33.66-7.85"/><path id="Caminho_129" data-name="Caminho 129" class="cls-2" d="M58.5,330.13c1,4.59,2.6,9,3.61,13.72.79,3.66,4.74,15.06,2.61,18.42-3.22,5.09-27.37,7-33.53,9.56-6.24-9.44-3.62-23.52-5.69-34,10.75-4,22.78-5,33.66-7.85"/><path id="Caminho_135" data-name="Caminho 135" class="cls-1" d="M106.2,391.07c-4.61.84-9.07,2.36-13.81,3.25-3.69.69-15.18,4.33-18.49,2.12-5-3.36-6.23-27.56-8.66-33.78,9.6-6,23.61-3,34.13-4.78,3.76,10.85,4.4,22.9,6.95,33.86"/></g><path id="Caminho_116" data-name="Caminho 116" class="cls-1" d="M322.8,64.94c6.19,3,11.62,2.15,18.26,4.45,5.28,1.84,15,6.37,21.51,7.06-3.36-12.87-9.34-25.71-15-37.56-4.55,3.26-9,10.06-13.36,14.4-4,4-9,8.24-11.89,11.78"/><path id="Caminho_117" data-name="Caminho 117" class="cls-6" d="M323.25,65.48c-.15,2.68.8,5.75,1.1,8.43a59.25,59.25,0,0,0,2.51,10.44c.91,3,1.71,6.19,2.76,9.12s1.56,6.52,2.95,9.17c3.23-1.76,5.62-5.55,8.76-7.67,2.77-1.88,5-4.42,7.72-6.4a88.45,88.45,0,0,0,13.85-12C349.77,72,336,68.39,323,64.37c0,.3.16.08.39.07"/><path id="Caminho_118" data-name="Caminho 118" class="cls-3" d="M346.33,39.9c2.31,2.17,5.79,3.64,8.43,5.41A69.51,69.51,0,0,0,366.07,51c3.42,1.46,6.87,3.14,10.3,4.43s7.05,3.54,10.5,4.3c.87-4.25-.73-9.27-.27-13.71.42-3.93-.16-7.87.1-11.81.47-7,.73-14.61-.3-21.57-14,8.39-27.75,18-41.28,26.71.26.24.2-.08.36-.3"/><path id="Caminho_123" data-name="Caminho 123" class="cls-5" d="M302.9,29.32c6.65,2,15.27,1.52,22.09,3.44,7.43,2.08,14.51,5.52,22,7.48-4.39,4.19-9.44,10-13.58,14.52-3.31,3.59-7.3,6.58-10.84,10-2.58-2.08-4.45-7.78-5.9-10.87-1.76-3.76-3.52-7.67-5.57-11.28C308.56,38.08,302.9,29.32,302.9,29.32Z"/><path id="Caminho_125" data-name="Caminho 125" class="cls-7" d="M347.07,41c3.09-2.74,6.79-4.46,10.1-6.85,3.83-2.77,2.92-2,6.77-4.81,4.3-3.12,7.32-6.49,12-9.11,3-1.69,9-5,11.58-7.16-9.88-1.29-14.06-4.15-23.83-7.31a155.28,155.28,0,0,0-17.81-4.38S345.88,27.89,347.07,41Z"/></svg>