<?xml version="1.0" encoding="utf-8"?>
<!-- Generator: Adobe Illustrator 24.2.0, SVG Export Plug-In . SVG Version: 6.00 Build 0)  -->
<svg version="1.1" id="Camada_1" xmlns="http://www.w3.org/2000/svg" xmlns:xlink="http://www.w3.org/1999/xlink" x="0px" y="0px"
	 viewBox="0 0 1280 1280" style="enable-background:new 0 0 1280 1280;" xml:space="preserve">
<style type="text/css">
	.st0{fill:#83C8E8;}
	.st1{fill:#F1EEE9;}
	.st2{fill:#E94941;}
	.st3{fill:#EFCC3E;}
	.st4{fill:#50A545;}
	.st5{fill:#B25AA7;}
	.st6{fill:#F49725;}
	.st7{fill:#4B8ED2;}
	.st8{clip-path:url(#SVGID_2_);}
</style>
<rect class="st0" width="1280" height="1280"/>
<path id="Caminho_155" class="st1" d="M958.8,1057.9c3.9-19.5,8-39.3,16.6-57.2c7.1-14.7,24.7-47.3,26.3-48.9
	c1.2-1.2,2.6-2.1,4.2-2.8c30.1-15.1,96.2-44.2,98.6-44.4c2.5-0.1,4.9,0.2,7.3,0.9c33.5,8.3,104.3,40.7,104.3,40.7
	c1.8,2.2,3.4,4.6,4.9,7c9.6,18.5,17.9,37.7,24.8,57.4l16.8,44.9l-1.1,10.2c-10.6,35.3-25,60-41.3,93.1c-1,2.7-3.2,4.8-6,5.5
	l-78.4,33.2c-8.5,3.6-20.5,4.8-28.9,10.5l-4.5-1.1c-36.5-15.2-62.8-24.7-99.2-39.9c0,0-8.7-16.6-10.1-25.1c-1.8-8.6-4.6-17-8.5-24.9
	C975.6,1097.8,958.8,1057.9,958.8,1057.9z"/>
<path id="Caminho_228" class="st2" d="M138.4,524.9c-10.6-3.5-20.8-8.2-30.2-14.2c-7.5-5.2-24-17.8-24.7-18.8
	c-0.5-0.8-0.9-1.7-1.2-2.6c-5.7-18-16-57-15.9-58.4c0.2-1.4,0.6-2.7,1.2-3.9c7.5-17.8,31.6-54.1,31.6-54.1c1.4-0.8,2.9-1.5,4.3-2.1
	c11.1-3.7,22.4-6.6,33.9-8.7l26.3-5.4l5.5,1.5c18.6,9,31,19.1,47.9,31c1.4,0.8,2.4,2.2,2.5,3.8l11.4,46.3c1.2,5,0.9,11.8,3.3,16.9
	l-1,2.4c-11.6,18.9-19.2,32.5-30.8,51.4c-4.8,1.6-9.8,2.7-14.9,3.3c-4.9,0.2-9.8,1.1-14.5,2.5C161.9,519.1,138.4,524.9,138.4,524.9z
	"/>
<g id="Grupo_141">
	<path id="Caminho_113_1_" class="st3" d="M1035.8,17c-15.7,9.9-30.9,24.2-45.7,36c-11.7,9.3-32.2,24.9-37.8,38.3
		c34.2,10.8,72.1,15.6,107.5,19.6c-0.9-15.1-10.1-35-13.7-51.2c-3.3-14.8-5.8-32.4-9.8-44.1"/>
	<path id="Caminho_114_1_" class="st3" d="M1246.6,74.2c-16.6,8.2-24.5,22.5-40.4,32.7c-12.7,8.2-34.6,21.5-41.5,34.2
		c32.9,14.2,63.1,20.1,97.7,27.8c0.2-16.6-2.4-33.2-7.6-48.9C1249.9,104.9,1246.6,74.2,1246.6,74.2z"/>
	<path id="Caminho_115_1_" class="st4" d="M1059.2,111.8c16.7,8,36.9,13.3,54.8,19.5c14.3,5,38.3,14,52.5,11.7
		c-9.1-34.7-25.2-69.4-40.5-101.4c-12.3,8.8-24.2,27.1-36.1,38.9c-10.8,10.7-24.4,22.2-32.1,31.8"/>
	<path id="Caminho_116_1_" class="st4" d="M1111.3,290.3c14.5,7,27.1,5,42.6,10.4c12.3,4.3,35,14.9,50.3,16.5
		c-7.8-30.1-21.8-60-35-87.7c-10.6,7.6-21,23.5-31.2,33.7c-9.3,9.3-21,19.2-27.8,27.5"/>
	<path id="Caminho_117_1_" class="st5" d="M1112.3,291.5c-0.3,6.3,1.9,13.4,2.6,19.7c1.2,8.3,3.2,16.5,5.9,24.4
		c2.1,7,4,14.4,6.4,21.3c2.4,6.9,3.7,15.2,6.9,21.4c7.6-4.1,13.2-13,20.5-17.9c6.5-4.4,11.7-10.3,18-14.9
		c11.7-8.2,22.6-17.6,32.4-28c-30.6-10.6-62.8-19.1-93.3-28.5c0,0.7,0.4,0.2,0.9,0.1"/>
	<path id="Caminho_118_1_" class="st6" d="M1166.3,231.9c5.4,5.1,13.5,8.5,19.7,12.6c8.4,5.1,17.2,9.5,26.4,13.1
		c8,3.4,16,7.4,24.1,10.4c8,3,16.4,8.2,24.5,10c2-10-1.7-21.7-0.6-32c1-9.2-0.4-18.4,0.2-27.6c1.1-16.4,1.7-34.2-0.7-50.4
		c-32.7,19.6-64.8,42-96.4,62.4c0.6,0.6,0.4-0.2,0.8-0.7"/>
	<path id="Caminho_119_1_" class="st6" d="M882.6,154c6.1-2.7,11.8-8.3,17.5-12c7.2-5.2,14-11,20.2-17.4
		c5.7-5.5,11.7-10.8,17.1-16.4c5.4-5.5,12.7-10.9,17-16.9c-7.6-5.2-18.7-6.2-26.9-10.7c-7.3-4-15.5-6.1-22.9-9.9
		c-13.5-7.1-27.7-12.9-42.3-17.1c4.9,34.2,12.4,68.8,18.3,102.3c0.7-0.3,0-0.4-0.3-0.9"/>
	<path id="Caminho_120_1_" class="st1" d="M1060,114.4c4.2,13.5,2.3,33.8,3,49.5c0.6,15,0.6,29.6,1.5,44.7
		c7.2-3.2,17.8-14.2,25.3-18.9c8.4-5.4,15.8-12,24.6-17.1c7.9-4.7,16-9.3,23.9-14c7.4-4.3,15.5-12,23.4-14.5c0.1-0.5,0.1-1.1,0-1.6
		c-9.6-3.2-19.9-2.3-29.7-5.6c-9.3-3.1-19-5.9-28.3-9.2c-13.2-4.7-32.7-7-43.3-16.4"/>
	<path id="Caminho_121_1_" class="st1" d="M921.3,246.2c0.5-13.6-9.6-29.4-14-42.2c-3.1-8.9-7-17.8-10.3-26.7
		c-3.6-9.3-10.5-16.4-13.9-25.5c0.3-0.4,0.7-0.7,1.2-0.9c6.8,4.4,17.5,5.7,25.4,8.5c8.4,3.1,17,6.1,25.3,9.1
		c9.3,3.3,18.7,4.7,28,7.7c8.2,2.6,21,10.9,29.9,7c-10.9,10-22,19-33,28.7c-11.5,10.1-38.4,34.2-38.4,34.2L921.3,246.2z"/>
	<path id="Caminho_122_1_" class="st2" d="M1064.9,208.5c15.7-9.5,30-27.1,45.9-37.1c17.3-10.9,36.6-18.7,53.7-29.9
		c0.6,15.9,3.3,36,4.9,52c1.3,12.8,0.2,25.7,0.8,38.7c-8.7,1.4-23.4-5-32.1-7.5c-10.6-3.2-21.5-6.6-32.3-8.9
		C1092.3,212.9,1064.9,208.5,1064.9,208.5z"/>
	<path id="Caminho_123_1_" class="st2" d="M1064.8,207.1c15.5,4.7,35.6,3.6,51.6,8c17.4,4.9,33.9,12.9,51.4,17.5
		c-10.3,9.8-22.1,23.4-31.7,33.9c-7.8,8.4-17.1,15.4-25.3,23.4c-6-4.9-10.4-18.2-13.8-25.4c-4.1-8.8-8.2-17.9-13-26.4
		C1078,227.5,1064.8,207.1,1064.8,207.1z"/>
	<path id="Caminho_124_1_" class="st2" d="M921.1,246.9c-2.1-12.3-9.2-36.5-15-48c-7.3-14.3-17.1-32.1-23.4-46.7
		c-12,16.7-22.4,26.3-37.5,40.6c-13.7,12.9-23,20.9-34.3,35.4C810.8,228.2,913.5,251.4,921.1,246.9z"/>
	<path id="Caminho_125_1_" class="st7" d="M1168,234.2c7.2-6.4,15.9-10.4,23.6-16c8.9-6.5,6.8-4.7,15.8-11.2
		c10-7.3,17.1-15.2,28-21.3c7-3.9,21-11.7,27-16.7c-23.1-3-32.8-9.7-55.6-17.1c-13.7-4.2-27.5-7.6-41.6-10.2
		C1165.2,141.7,1165.2,203.7,1168,234.2z"/>
	<path id="Caminho_126_1_" class="st7" d="M882.7,152.2c9.5,1.8,17.9,6.2,27.1,8.9c10.6,3.1,7.9,2.5,18.5,5.7
		c11.9,3.5,22.4,4.4,34,9.1c7.4,3.1,22,9.5,29.8,11.2c-11.7-20.1-12.4-31.9-20.4-54.5c-5-13.4-10.8-26.5-17.3-39.2
		C954.3,93.4,905.2,131.3,882.7,152.2z"/>
</g>
<g id="Grupo_145">
	<path id="Caminho_128_1_" class="st3" d="M110.4,1002.4c0,11.1-1.6,22.1-1.6,33.5c0,8.9-3.6,37.1,3,43.9c10,10.2,66.8,2.7,82.3,5.6
		c9.8-24.9-3.2-56.3-3.6-81.4c-26.9-4.1-55.1-0.4-81.7-1.6"/>
	<path id="Caminho_129_3_" class="st1" d="M278.1,1002.4c0,11.1-1.6,22.1-1.6,33.5c0,8.9-3.6,37.1,3,43.9c10,10.2,66.8,2.7,82.3,5.6
		c9.8-24.9-3.2-56.3-3.6-81.4c-26.9-4.1-55.1-0.4-81.7-1.6"/>
	<path id="Caminho_130_1_" class="st6" d="M22.2,1086.2c0,11.1-1.6,22.1-1.6,33.5c0,8.9-3.6,37.2,3,43.9c10,10.2,66.8,2.6,82.3,5.6
		c9.8-24.9-3.2-56.3-3.6-81.4c-26.9-4.1-55.1-0.4-81.7-1.6"/>
	<path id="Caminho_131_1_" class="st5" d="M278.1,1086.2c0,11.1-1.6,22.1-1.6,33.5c0,8.9-3.6,37.2,3,43.9c10,10.2,66.8,2.6,82.3,5.6
		c9.8-24.9-3.2-56.3-3.6-81.4c-26.9-4.1-55.1-0.4-81.7-1.6"/>
	<path id="Caminho_132_1_" class="st6" d="M196.4,918.6c0,11.1-1.6,22.1-1.6,33.5c0,8.9-3.6,37.2,3,43.9c10,10.2,66.8,2.6,82.3,5.6
		c9.8-24.9-3.2-56.2-3.6-81.4c-26.8-4.1-55.1-0.4-81.7-1.6"/>
	<path id="Caminho_133_1_" class="st7" d="M282.3,1001.3c-11.1,0-22.1-1.6-33.5-1.6c-8.9,0-37.1-3.6-43.9,3
		c-10.2,10-2.6,66.8-5.6,82.3c24.9,9.8,56.3-3.2,81.4-3.6c4.1-26.8,0.4-55.1,1.6-81.7"/>
	<path id="Caminho_134_2_" class="st2" d="M187.7,1171.2c-11.1,0-22.1-1.6-33.5-1.6c-8.9,0-37.1-3.6-43.9,3
		c-10.2,10-2.6,66.8-5.6,82.3c24.9,9.8,56.3-3.2,81.4-3.6c4.1-26.8,0.4-55.1,1.6-81.7"/>
	<path id="Caminho_135_3_" class="st4" d="M109.8,1170.7c11.1-0.3,22.1,1,33.6,0.7c8.9-0.2,37.2,2.5,43.8-4.2
		c9.9-10.2,0.9-66.8,3.4-82.4c-25.3-9.1-56.2,4.7-81.4,5.7c-3.3,26.9,1.1,55.1,0.6,81.7"/>
</g>
<g id="Grupo_354">
	<path id="Caminho_196_1_" class="st6" d="M1245.9,824.5c-16.3-7.6-30.9-14.7-48.6-19c-6.8-1.6-41-6.3-24.3,6.9
		c13.7,10.8,33.3,16.2,50.5,17.9c5.1,0.5,10.9,2.2,15.9,1.7c6.2-0.5,9.9-5.5,2.8-9.4"/>
	<path id="Caminho_197_1_" class="st6" d="M1187.2,777.1c-10.6-14.5-20.1-27.6-33.5-39.8c-5.2-4.7-32.9-25.4-24.3-6
		c7,15.9,21.5,30,35.8,39.8c4.2,2.9,8.5,7.1,13.1,9.2c5.6,2.7,11.1,0.2,6.8-6.6"/>
	<path id="Caminho_198_1_" class="st6" d="M1159.4,694.3c3.9,14.2,7.2,27.1,14.4,40c2.7,5,19.3,27.8,19.1,9.8
		c-0.2-14.7-7.5-29.4-16.4-40.5c-2.7-3.3-4.8-7.6-8-10.4c-4-3.3-9.7-2.3-8.5,4.2"/>
	<path id="Caminho_199_1_" class="st6" d="M1085.5,842.9c-10.6,11-20.3,20.9-29,33.9c-3.3,5-17.5,30.9-2.8,20.8
		c12.1-8.3,22.1-22.4,28.8-35.7c2.4-3.9,4.5-8,6.3-12.2c1.6-5-0.8-9.1-5.8-4.5"/>
	<path id="Caminho_200_1_" class="st6" d="M1216.9,725.3c-3.4-15.8-1.5-31.9-6.3-47.5c-1.2-3.9-9.2-28.6-14-14
		c-2.2,6.7,1,17.9,2.3,24.8c1.2,7.1,3,14,5.6,20.7c1.4,3.6,2.7,7.1,4.2,10.6c1,2.1,5.4,10.6,7,3.8"/>
	<path id="Caminho_201_1_" class="st6" d="M1091.5,893.6c0.7,8.1,9.1,19.8,12.6,27.7c3.5,7.9,7.7,15.9,11.8,23.8
		c3.2,6.1,14.2,22,12.7,6.2c-1.7-17.7-11-34.5-22.2-48.4c-2.4-3.4-4.9-6.6-7.6-9.7c-6.4-6.1-5.7-0.6-5.2,6.1"/>
	<path id="Caminho_202_1_" class="st6" d="M1127.6,879.4c4.6-6.2,5.3-19.6,7.5-27.5s4-16.1,5.7-24.2c1.4-6.3,2.7-24.3-5.9-12.1
		c-9.8,13.9-13,31.5-13,48.1c-0.3,3.8-0.3,7.7-0.1,11.6c1.1,8.2,4.1,3.9,7.8-1.3"/>
	<path id="Caminho_203_1_" class="st6" d="M1154.3,820.1c7,18.1,11.5,36.8,20.4,54.2c1.9,4.2,4.4,8.2,7.4,11.7c4,3.7,4.7,3,5-1.6
		c1.3-18.2-11.9-43.2-21.4-59.2c-1.7-3.3-3.8-6.4-6.2-9.2c-3.5-2.9-5.7-1.2-4,4.1"/>
</g>
<g id="Grupo_151">
	<path id="Caminho_156_1_" class="st5" d="M215.1,170.4c4.8,19.4,11.5,31.8,18.6,51c5.6,15.3,8.7,38.6,19.3,54.7
		c22.8-31.4,50.4-63.4,66.6-98.1c-15.9-4.2-39.3-1.6-57.2-3.4c-16.3-1.6-35.2-5.1-48.5-5"/>
	<path id="Caminho_157_1_" class="st6" d="M353.7,306.1c-5.1-10.6-3.2-15.5-7.2-26.2c-4.6-12.4-4.3-13.1-9-25.5
		c-5.3-13.9-6.4-21.8-10-36.1c-2.3-9.2-6.7-27.5-10.6-36.2c-11.2,23.9-22.3,31.8-38.6,53.5c-9.5,13.1-18.1,26.8-25.8,41
		C252.5,276.6,316.9,296.7,353.7,306.1z"/>
</g>
<g id="Grupo_355">
	<path id="Caminho_188_1_" class="st1" d="M203.8,259.2c-1.8-15.7-3.3-29.9-8.3-45.1c-2-5.8-14.4-33.5-16.4-14.9
		c-1.7,15.3,3.3,32.3,10.1,46.1c2,4.1,3.4,9.1,6.1,12.7c3.3,4.4,8.8,4.7,8.4-2.3"/>
	<path id="Caminho_189_1_" class="st1" d="M153.8,96.7c0.8,15.8,1.5,30,5.4,45.5c1.5,6,11.9,34.5,15,16.2c2.5-15-1.3-32.5-7.1-46.7
		c-1.7-4.2-2.8-9.3-5.2-13.1c-2.8-4.6-8.1-5.5-8.2,1.6"/>
	<path id="Caminho_190_1_" class="st1" d="M208.8,75.1c-6.2,14.6-12,27.6-15.3,43.2c-1.3,6-4.6,36.2,6.3,21.1
		c8.9-12.4,13.3-29.6,14.3-45c0.4-4.5,1.6-9.6,1.2-14.1c-0.6-5.4-4.9-8.5-8.1-2.2"/>
	<path id="Caminho_191_1_" class="st1" d="M256.1,86.5c-11.9,10.4-22.7,19.6-32.5,32.3c-3.8,4.9-19.8,30.7-3.5,21.8
		c13.4-7.3,24.8-21.1,32.4-34.3c2.2-3.9,5.6-7.9,7.1-12.1c1.9-5.1-0.7-9.8-6.3-5.5"/>
	<path id="Caminho_192_1_" class="st1" d="M256,197c-16.8-3.2-31.9-10.8-49-12.8c-4.3-0.5-31.4-3.4-18.9,6c5.7,4.2,18,5.9,25.2,7.4
		c7.4,1.7,14.8,2.8,22.4,3.3c4.1,0.2,7.9,0.6,12,0.6c2.4,0,12.4-0.4,6.3-4.2"/>
	<path id="Caminho_193_1_" class="st1" d="M111.4,210.3c7.1-0.9,17.1-8.7,23.9-12.1s13.8-7.3,20.5-11.2c5.3-3,18.8-13.2,5.1-11.3
		c-15.6,2.2-30.1,10.9-41.8,21.2c-2.9,2.2-5.6,4.5-8.2,7c-5.2,5.8-0.4,5.1,5.6,4.3"/>
	<path id="Caminho_194_1_" class="st1" d="M232.9,156.4c6.8,0,16.8-6.5,23.4-9.1c6.7-2.6,13.4-5.6,20-8.7
		c5.1-2.3,18.6-10.8,5.4-10.5c-14.9,0.3-29.1,7.3-40.8,16c-2.9,1.8-5.6,3.9-8.2,6c-5.2,5.1-0.6,5,5,4.9"/>
	<path id="Caminho_195_1_" class="st1" d="M138,262.6c7.3-15.4,16.5-29.7,22.3-45.8c1.5-3.7,2.5-7.7,2.9-11.7
		c-0.1-4.8-0.9-4.8-4.1-2.2c-12.4,10.2-20.4,33.7-24.9,49.4c-1.1,3.1-1.8,6.2-2.1,9.5c0.3,4,2.7,4.3,5,0"/>
</g>
<g>
	<circle class="st1" cx="636.2" cy="648.5" r="371.1"/>
	<g>
		<path class="st4" d="M635.2,350.5v57.4c-21.7,0-39.4,17.6-39.4,39.4c0,21.7,17.6,39.4,39.4,39.4v161.5h161.5
			c0-21.7,17.6-39.4,39.4-39.4c21.7,0,39.4,17.6,39.4,39.4h57.4C932.8,483.8,799.5,350.5,635.2,350.5z"/>
	</g>
	<g>
		<path class="st4" d="M635.6,945.4V888c21.7,0,39.4-17.6,39.4-39.4s-17.6-39.4-39.4-39.4V647.7H474.1c0,21.7-17.6,39.4-39.4,39.4
			c-21.7,0-39.4-17.6-39.4-39.4h-57.4C337.9,812.1,471.2,945.4,635.6,945.4z"/>
	</g>
	<g>
		<path d="M635.2,1026.2c-208.5,0-378.1-169.6-378.1-378.1s169.6-378.1,378.1-378.1c208.5,0,378.1,169.6,378.1,378.1
			S843.6,1026.2,635.2,1026.2z M635.2,281.7c-202,0-366.4,164.4-366.4,366.4s164.4,366.4,366.4,366.4s366.4-164.4,366.4-366.4
			S837.2,281.7,635.2,281.7z"/>
	</g>
	<g>
		<path d="M938.6,654h-69v-5.8c0-18.5-15.1-33.6-33.6-33.6c-18.5,0-33.6,15.1-33.6,33.6v5.8H629.3V492.1
			c-22.2-2.9-39.4-21.9-39.4-44.8s17.2-42,39.4-44.8v-57.8h5.8c167.3,0,303.5,136.1,303.5,303.5V654z M880.9,642.3h46.1
			c-3.1-156.3-129.7-282.9-286-286v57.3h-5.8c-18.5,0-33.6,15.1-33.6,33.6c0,18.5,15.1,33.6,33.6,33.6h5.8v161.5h150.3
			c2.9-22.2,21.9-39.4,44.8-39.4C859,603,878,620.2,880.9,642.3z"/>
	</g>
	<g>
		<path d="M434.3,693.3c-22.9,0-42-17.2-44.8-39.4h-57.8v-5.8c0-167.3,136.1-303.5,303.5-303.5h5.8v69h-5.8
			c-18.5,0-33.6,15.1-33.6,33.6c0,18.5,15.1,33.6,33.6,33.6h5.8V654H479.1C476.2,676.1,457.2,693.3,434.3,693.3z M343.4,642.3h57.3
			v5.8c0,18.5,15.1,33.6,33.6,33.6s33.6-15.1,33.6-33.6v-5.8h161.5V492.1c-22.2-2.9-39.4-21.9-39.4-44.8s17.2-42,39.4-44.8v-46.1
			C473,359.4,346.4,486,343.4,642.3z"/>
	</g>
	<g>
		<path d="M641,951.6h-5.8c-167.3,0-303.5-136.1-303.5-303.5v-5.8h69v5.8c0,18.5,15.1,33.6,33.6,33.6s33.6-15.1,33.6-33.6v-5.8H641
			v161.9c22.2,2.9,39.4,21.9,39.4,44.8c0,22.9-17.2,42-39.4,44.8V951.6z M343.4,654c3.1,156.3,129.7,282.9,286,286v-57.3h5.8
			c18.5,0,33.6-15.1,33.6-33.6s-15.1-33.6-33.6-33.6h-5.8V654H479.1c-2.9,22.2-21.9,39.4-44.8,39.4s-42-17.2-44.8-39.4H343.4z"/>
	</g>
	<g>
		<g>
			<g>
				<rect x="479.5" y="389" width="155.7" height="9.8"/>
			</g>
			<g>
				<rect x="427.1" y="431.2" width="173.6" height="9.8"/>
			</g>
		</g>
		<g>
			<g>
				<rect x="389.5" y="473.1" width="222.8" height="9.8"/>
			</g>
			<g>
				<rect x="371.6" y="515.3" width="264" height="9.8"/>
			</g>
		</g>
		<g>
			<g>
				<rect x="352.8" y="557.2" width="282.8" height="9.8"/>
			</g>
			<g>
				<rect x="341.2" y="599.4" width="294.4" height="9.8"/>
			</g>
		</g>
		<g>
			<g>
				<rect x="341.2" y="641.4" width="294.4" height="9.8"/>
			</g>
		</g>
		<g>
			<rect x="568.4" y="358.7" width="9.8" height="35.2"/>
		</g>
		<g>
			<rect x="568.4" y="436.5" width="9.8" height="41.2"/>
		</g>
		<g>
			<rect x="469.6" y="436.5" width="9.8" height="41.2"/>
		</g>
		<g>
			<rect x="568.4" y="520.6" width="9.8" height="41.2"/>
		</g>
		<g>
			<rect x="469.6" y="520.6" width="9.8" height="41.2"/>
		</g>
		<g>
			<rect x="371.2" y="520.6" width="9.8" height="41.2"/>
		</g>
		<g>
			<rect x="469.6" y="603.9" width="9.8" height="41.2"/>
		</g>
		<g>
			<rect x="371.2" y="603.9" width="9.8" height="41.2"/>
		</g>
		<g>
			<rect x="521" y="393.6" width="9.8" height="43"/>
		</g>
		<g>
			<g>
				<rect x="427.5" y="480.8" width="9.8" height="41.2"/>
			</g>
		</g>
		<g>
			<g>
				<rect x="427.6" y="562.7" width="9.8" height="41.2"/>
			</g>
		</g>
		<g>
			<g>
				<rect x="427.6" y="646.8" width="9.8" height="40.3"/>
			</g>
		</g>
	</g>
	<g>
		<defs>
			<path id="SVGID_1_" d="M932.8,648.1h-57.4c0-21.7-17.6-39.4-39.4-39.4c-21.7,0-39.4,17.6-39.4,39.4H635.2v161.5
				c21.7,0,39.4,17.6,39.4,39.4c0,21.7-17.6,39.4-39.4,39.4v57.4C799.5,945.8,932.8,812.5,932.8,648.1z"/>
		</defs>
		<clipPath id="SVGID_2_">
			<use xlink:href="#SVGID_1_"  style="overflow:visible;"/>
		</clipPath>
		<g class="st8">
			<g>
				<rect x="629.3" y="683.8" class="st6" width="308.3" height="43.7"/>
			</g>
			<g>
				<rect x="629.7" y="597.6" class="st2" width="308.3" height="86.7"/>
			</g>
			<g>
				<rect x="629.7" y="727" class="st3" width="308.3" height="43.7"/>
			</g>
			<g>
				<rect x="629.7" y="770.7" class="st4" width="308.3" height="43.7"/>
			</g>
			<g>
				<rect x="629.7" y="814.5" class="st0" width="308.3" height="43.7"/>
			</g>
			<g>
				<rect x="629.7" y="858.2" class="st7" width="308.3" height="43.7"/>
			</g>
			<g>
				<rect x="629.7" y="901.9" class="st5" width="308.3" height="43.7"/>
			</g>
		</g>
	</g>
	<g>
		<path d="M635.2,951.6h-5.8v-69h5.8c18.5,0,33.6-15.1,33.6-33.6s-15.1-33.6-33.6-33.6h-5.8V642.3h161.9
			c2.9-22.2,21.9-39.4,44.8-39.4c22.9,0,42,17.2,44.8,39.4h57.8v5.8C938.6,815.5,802.5,951.6,635.2,951.6z M641,893.8v46.1
			c156.3-3.1,282.9-129.7,286-286h-57.3v-5.8c0-18.5-15.1-33.6-33.6-33.6c-18.5,0-33.6,15.1-33.6,33.6v5.8H641v150.3
			c22.2,2.9,39.4,21.9,39.4,44.8C680.3,872,663.1,891,641,893.8z"/>
	</g>
	<g>
		<g>
			<path class="st1" d="M792.1,450.4c0,0-138.2-32-183.1,139.2c0,0-26.9-16-15.6-71.4c8.2-40.3-31.1-57.7-57.7-44.9
				c-25.9,12.5-43.9-7.3-43.9-7.3s33,33.9,23.8,70.5c-8.5,34-28.4,116.3,23.8,164.8c52.2,48.5,101.8,29.7,127.3,22
				c18.2-5.5,30.8-8.1,43.9-1.8c22.9,11,10.1,33.9,33.9,63.2c0,0,21.1-64.1,83.3-108c0,0-21.1-14.9-76-2.7
				c-41.2,9.2-53.1-9.2-66.4-26.5C685.4,647.3,816.8,594.2,792.1,450.4z"/>
			<path d="M744.6,785.5l-0.5-0.7c-11.4-14-14.5-26.8-17-37.1c-2.8-11.3-4.9-20.3-16.7-26c-13.4-6.5-26.6-3.3-43.6,1.9
				c-1.3,0.4-2.7,0.8-4.1,1.3c-13.4,4.1-31.7,9.8-53.1,8.7c-25.3-1.3-49-12.1-70.5-32.1c-52.9-49.2-31.9-133.5-23.9-165.2
				c4.7-18.8-2-36.8-8.4-48.6c-6.5-12-14.1-20.2-15.1-21.3c-0.1-0.1-0.1-0.1-0.1-0.1l0.7-0.6c0,0,0.1,0.1,0.1,0.1
				c1.6,1.7,19.1,18.8,43.3,7.1c14.5-7,32.7-5.2,45.2,4.6c11.9,9.3,16.6,23.8,13.1,40.8c-3.2,15.7-5.2,38.2,3.5,56.1
				c4.3,9,9.7,13.3,11.4,14.4c10.3-38.8,26.2-70.3,47.5-93.5c17.1-18.7,37.6-32.1,61-39.9c39.8-13.3,74.6-5.5,75-5.4l0.3,0.1
				l0.1,0.3c5.7,32.9,3.5,63.7-6.3,91.6c-7.8,22.3-20.6,42.9-37.9,61.1c-27.4,28.8-57.8,42.5-62.2,44.4l1.2,1.6
				c12.9,17,25.1,33.1,64.3,24.3c54.4-12.1,76.1,2.7,76.4,2.8l0.5,0.4L828,677c-61.4,43.3-82.9,107.2-83.1,107.8L744.6,785.5z
				 M694.2,717.3c5.6,0,11.1,1.1,16.6,3.7c12.2,5.9,14.4,15,17.2,26.6c2.4,10,5.5,22.5,16.3,36.1c2.7-7.5,25.1-66.2,82.6-107.1
				c-3.7-2.2-25.9-13.3-75.1-2.3c-39.9,8.9-52.8-8.2-65.3-24.7l-1.9-2.5l0.6-0.2c0.3-0.1,33.1-13.6,62.5-44.4
				c17.2-18.1,29.9-38.5,37.7-60.8c9.7-27.7,11.8-58.3,6.3-90.8c-3.5-0.7-36.6-7.1-74.2,5.4c-23.2,7.8-43.6,21.1-60.6,39.7
				c-21.2,23.2-37.2,54.8-47.4,93.8l-0.2,0.6l-0.5-0.3c-0.3-0.2-6.9-4.2-12.2-15.1c-4.9-10-9.4-28-3.6-56.8
				c3.4-16.6-1.1-30.8-12.8-39.9c-12.3-9.5-30.1-11.4-44.3-4.5c-18.3,8.8-32.8,1.6-39.9-3.5c3.1,3.8,7.5,9.7,11.5,17.1
				c6.5,12,13.3,30.2,8.5,49.3c-7.9,31.6-28.9,115.5,23.7,164.3c49.3,45.9,97.1,31.1,122.7,23.1c1.4-0.4,2.8-0.9,4.1-1.3
				C676.8,719.7,685.7,717.3,694.2,717.3z"/>
		</g>
		<g>
			<path d="M739.8,788.4c-12.2-15-15.4-28.4-18.1-39.2c-2.7-11.1-4.3-17.8-13.8-22.3c-10.7-5.1-21.3-3.4-39.6,2.2
				c-1.3,0.4-2.6,0.8-4.1,1.2c-26.9,8.3-76.9,23.8-129-24.6c-55.3-51.4-33.7-138-25.5-170.6c7.7-30.9-18.3-60.6-21.9-64.5
				c-0.2-0.2-0.4-0.4-0.5-0.6l8.7-8.2c0.1,0.1,0.2,0.2,0.3,0.4c2,2,16.5,15.6,36.8,5.8c16.4-7.9,36.8-5.8,51,5.2
				c13.5,10.5,19,27.3,15.1,46.2c-6.8,33.1,0.6,50.7,6.7,59c14.4-48.5,45-106.6,109.5-128.2c41.3-13.8,76.5-5.9,78-5.5l4.5,4.8
				c13.2,76.7-17.5,127.9-45.6,157.4c-22.3,23.5-46.2,37-57.7,42.7c11.2,14.5,22.9,25.8,55.9,18.4c56.8-12.6,79.8,3,80.7,3.7l0,9.7
				c-59.8,42.2-80.9,104.4-81.1,105L739.8,788.4z M694.2,711.8c6.4,0,12.6,1.2,18.9,4.2c14.5,7,17.3,18.3,20.2,30.2
				c1.9,7.8,4,16.4,9.6,25.8c8.3-19.2,30-60.7,72.9-94.1c-10.2-2.9-30.2-5.6-62.7,1.6c-43.3,9.6-57.9-9.7-70.8-26.7l-1.6-2l2.5-9.1
				c0.3-0.1,32.3-13.3,60.8-43.4c37-39,51.4-87,42.9-142.8c-9.9-1.5-37.5-4.3-68.2,6.1c-51,17.2-86,60.8-104,129.5l-8.8,3.6
				c-1.2-0.7-30.4-18.8-18.4-77.7c3-14.5-0.9-26.7-10.8-34.4c-10.5-8.2-26.3-9.8-38.5-3.9c-9.9,4.8-19.1,5.4-27,4
				c8.1,14.2,15.4,34.1,10.1,55.2c-7.7,30.7-28.1,112.3,22.1,159c47,43.7,91,30.1,117.3,21.9c1.4-0.4,2.8-0.9,4.1-1.3
				C675.5,714.4,685,711.8,694.2,711.8z"/>
		</g>
		<g>
			<circle cx="554.5" cy="495.8" r="9.6"/>
			<path d="M554.5,505.8c-5.6,0-10.1-4.5-10.1-10.1s4.5-10.1,10.1-10.1c5.6,0,10.1,4.5,10.1,10.1S560,505.8,554.5,505.8z
				 M554.5,486.6c-5,0-9.2,4.1-9.2,9.2s4.1,9.2,9.2,9.2c5,0,9.2-4.1,9.2-9.2S559.5,486.6,554.5,486.6z"/>
		</g>
	</g>
	<g>
		<g>
			<path d="M413.2,378.9l21.3,25.1l-7,5.9l-21.3-25.1L413.2,378.9z"/>
		</g>
		<g>
			<path d="M462.4,383.2l-7.4,5.4l-20.6-7.8l10.8,14.9l-7.4,5.4l-19.2-26.7l7.4-5.4l20.7,8l-10.9-15.1l7.4-5.4L462.4,383.2z"/>
		</g>
		<g>
			<path d="M483.9,365.5c-0.1,1.8-0.6,3.5-1.8,5.1c-1.1,1.7-2.8,3.1-4.9,4.4c-3.3,1.9-6.5,2.7-9.5,2.4c-3.1-0.3-5.5-1.9-7.4-4.7
				l8.4-4.9c0.7,0.9,1.4,1.5,2.2,1.7c0.8,0.2,1.6,0,2.4-0.4c0.7-0.4,1.1-0.9,1.3-1.5c0.2-0.6,0.1-1.2-0.3-1.8
				c-0.5-0.9-1.3-1.3-2.3-1.3c-1,0-2.6,0.2-4.6,0.6c-2.2,0.4-4,0.7-5.5,0.8c-1.5,0.1-3-0.2-4.6-0.9c-1.5-0.7-2.8-2-3.9-3.8
				c-1-1.8-1.5-3.6-1.3-5.4c0.2-1.8,0.9-3.5,2.1-5.1c1.2-1.6,2.8-2.9,4.8-4.1c3.3-1.9,6.3-2.6,9.2-2.2c2.8,0.4,5.2,2,7,4.6l-8.5,4.9
				c-0.6-0.8-1.3-1.3-2-1.5c-0.7-0.2-1.4-0.1-2.1,0.4c-0.6,0.4-1,0.8-1.2,1.3c-0.2,0.5-0.1,1.1,0.3,1.8c0.5,0.8,1.2,1.2,2.2,1.2
				c1,0,2.5-0.2,4.5-0.6c2.2-0.4,4-0.6,5.6-0.7c1.5-0.1,3.1,0.2,4.6,0.9c1.5,0.7,2.9,2,4,3.8C483.5,362,483.9,363.7,483.9,365.5z"/>
		</g>
		<g>
			<path d="M498.8,326.8l3.1,6.6l-8,3.8l10.9,23.2l-8.3,3.9l-10.9-23.2l-8,3.7l-3.1-6.6L498.8,326.8z"/>
		</g>
		<g>
			<path d="M511.8,321.9l11.9,30.7l-8.5,3.3l-11.9-30.7L511.8,321.9z"/>
		</g>
		<g>
			<path d="M541.5,311.8l2.2,7l-8.5,2.7l7.8,24.4l-8.7,2.8l-7.8-24.4l-8.4,2.7l-2.2-7L541.5,311.8z"/>
		</g>
		<g>
			<path d="M555.4,308.5l4.1,18.4c0.4,1.8,1.1,3.1,2.1,3.9c1,0.8,2.3,1,4,0.7c1.6-0.4,2.8-1.1,3.4-2.3c0.6-1.2,0.7-2.7,0.3-4.5
				l-4.1-18.4l8.9-2l4.1,18.4c0.7,3,0.6,5.7-0.1,8.1c-0.8,2.4-2.1,4.4-4,5.9c-1.9,1.5-4.2,2.6-6.8,3.2c-2.7,0.6-5.1,0.6-7.4,0
				c-2.3-0.6-4.2-1.8-5.8-3.7c-1.6-1.9-2.8-4.3-3.4-7.4l-4.1-18.4L555.4,308.5z"/>
		</g>
		<g>
			<path d="M605.9,300.2l0.9,7.3l-8.8,1.1l3.1,25.4l-9.1,1.1l-3.1-25.4l-8.7,1.1l-0.9-7.3L605.9,300.2z"/>
		</g>
		<g>
			<path d="M635.8,300.8c2.6,1.4,4.7,3.3,6.2,5.9c1.5,2.5,2.3,5.4,2.4,8.7c0.1,3.2-0.6,6.1-2,8.7c-1.4,2.6-3.4,4.7-5.9,6.2
				c-2.5,1.5-5.3,2.3-8.4,2.4c-3.1,0.1-5.9-0.6-8.5-2c-2.6-1.4-4.7-3.3-6.2-5.9c-1.5-2.5-2.4-5.4-2.4-8.6s0.6-6.1,2-8.7
				c1.4-2.6,3.4-4.7,6-6.2c2.5-1.5,5.3-2.3,8.4-2.4C630.4,298.8,633.2,299.4,635.8,300.8z M622,309.7c-1.3,1.5-1.9,3.6-1.9,6.2
				c0.1,2.5,0.8,4.6,2.1,6.1c1.4,1.5,3.2,2.2,5.5,2.2c2.3-0.1,4.1-0.9,5.4-2.4c1.3-1.5,1.9-3.6,1.9-6.1c-0.1-2.6-0.8-4.6-2.1-6.1
				c-1.4-1.5-3.2-2.2-5.5-2.1C625.1,307.3,623.3,308.1,622,309.7z"/>
		</g>
		<g>
			<path d="M684.6,302.5l-0.8,7.3l-8.8-0.9l-2.7,25.5l-9.1-0.9l2.7-25.5l-8.7-0.9l0.8-7.3L684.6,302.5z"/>
		</g>
		<g>
			<path d="M697.2,312.3l-1,5.4l10.5,2l-1.3,6.8l-10.5-2l-1.1,5.9l11.8,2.2l-1.4,7.2l-20.9-3.9l6.1-32.4l20.9,3.9l-1.4,7.2
				L697.2,312.3z M707.4,300.2l-12.3,2.4l1.1-6l12.4-3L707.4,300.2z"/>
		</g>
		<g>
			<path d="M738.3,316.1c1.8,1.6,3.2,3.5,4,5.7c0.8,2.2,1.1,4.6,0.9,7.2l-9.3-2.7c-0.1-1.4-0.7-2.6-1.5-3.6c-0.9-1-2-1.7-3.4-2.1
				c-1.9-0.6-3.7-0.3-5.3,0.8c-1.6,1.1-2.8,2.9-3.5,5.3c-0.7,2.4-0.7,4.5,0.1,6.3c0.8,1.8,2.1,3,4.1,3.5c1.4,0.4,2.7,0.4,4,0
				c1.3-0.4,2.4-1.2,3.2-2.3l9.3,2.7c-1.8,3.5-4.3,5.9-7.6,7.4c-3.3,1.4-7,1.5-11.1,0.4c-3.1-0.9-5.7-2.4-7.6-4.4
				c-2-2-3.2-4.4-3.8-7.3c-0.6-2.8-0.4-5.8,0.5-8.9c0.9-3.1,2.3-5.7,4.3-7.8c2-2.1,4.3-3.5,7-4.1c2.7-0.7,5.7-0.6,8.8,0.3
				C734.2,313.3,736.5,314.5,738.3,316.1z"/>
		</g>
		<g>
			<path d="M768.8,361.5l-8.5-3.5l-4.2-21.6l-7,17l-8.5-3.5l12.5-30.4l8.5,3.5l4.2,21.8l7-17.2l8.5,3.5L768.8,361.5z"/>
		</g>
		<g>
			<path d="M795.7,338.4l-14.8,29.4l-8.2-4.1l14.8-29.4L795.7,338.4z"/>
		</g>
		<g>
			<path d="M820.8,354.2c1.4,2,2.2,4.2,2.4,6.6c0.2,2.4-0.1,4.7-1,7.1l-8.3-5c0.2-1.4,0-2.7-0.5-3.9c-0.6-1.2-1.5-2.2-2.7-2.9
				c-1.7-1-3.5-1.2-5.4-0.6c-1.8,0.7-3.4,2.1-4.7,4.2c-1.3,2.2-1.8,4.2-1.5,6.1c0.3,1.9,1.3,3.4,3,4.5c1.3,0.7,2.5,1.1,3.9,1
				c1.3-0.1,2.6-0.5,3.7-1.4l8.3,5c-2.6,2.9-5.7,4.6-9.3,5.2c-3.6,0.5-7.2-0.3-10.8-2.5c-2.8-1.7-4.9-3.7-6.2-6.2
				c-1.4-2.5-2-5.1-1.8-8c0.2-2.9,1.1-5.7,2.8-8.5c1.7-2.8,3.7-4.9,6.2-6.4c2.4-1.5,5.1-2.2,7.9-2.2c2.8,0,5.6,0.9,8.4,2.6
				C817.6,350.4,819.5,352.2,820.8,354.2z"/>
		</g>
		<g>
			<path d="M852.7,377.4c1.2,2.7,1.5,5.5,1.2,8.5c-0.4,2.9-1.6,5.7-3.5,8.3c-2,2.6-4.3,4.4-7.1,5.6c-2.7,1.1-5.6,1.5-8.5,1.1
				c-2.9-0.4-5.6-1.5-8-3.4c-2.4-1.9-4.3-4.1-5.4-6.9c-1.2-2.7-1.6-5.5-1.2-8.5c0.4-2.9,1.5-5.7,3.5-8.3c2-2.6,4.3-4.4,7-5.6
				c2.7-1.1,5.6-1.5,8.5-1.1c2.9,0.4,5.6,1.6,8,3.4C849.7,372.4,851.5,374.7,852.7,377.4z M836.3,375.7c-2,0.4-3.8,1.6-5.3,3.7
				c-1.5,2-2.2,4-2.1,6.1c0.1,2,1.1,3.7,3,5.1c1.8,1.4,3.7,1.9,5.7,1.5c2-0.4,3.7-1.6,5.3-3.6c1.6-2.1,2.3-4.1,2.2-6.1
				c-0.1-2-1.1-3.7-3-5.1C840.2,375.8,838.3,375.3,836.3,375.7z"/>
		</g>
	</g>
	<g>
		<g>
			<path d="M319.6,653.5l-32.8-1.5l0.4-9.1l18.6,0.8l-18.3-6.9l0.4-7.9l18.9-5.2l-18.6-0.8l0.4-9.2l32.8,1.5l-0.5,11.2l-21.7,7.1
				l20.9,8.8L319.6,653.5z"/>
		</g>
		<g>
			<path d="M294.2,679.9l-0.9-11.6l-5.6-1.4l-0.7-9.6l33.6,9.6l0.8,10.5l-31.8,14.4l-0.7-9.7L294.2,679.9z M300.9,677.1l10.4-4.3
				l-10.9-2.8L300.9,677.1z"/>
		</g>
		<g>
			<path d="M317.3,701l-5.4,0.9l1.8,10.5l-6.8,1.2l-1.8-10.5l-5.9,1l2,11.9l-7.2,1.2l-3.5-20.9l32.5-5.5l3.5,20.9l-7.2,1.2
				L317.3,701z"/>
		</g>
		<g>
			<path d="M305.3,744.3c-1.7-0.5-3.2-1.6-4.4-3.1c-1.3-1.5-2.2-3.5-2.9-5.9c-0.9-3.7-0.8-7,0.3-9.8c1.2-2.8,3.4-4.8,6.6-5.8
				l2.4,9.4c-1.1,0.4-1.8,0.9-2.2,1.7c-0.4,0.7-0.5,1.5-0.2,2.4c0.2,0.8,0.5,1.3,1.1,1.7c0.5,0.3,1.1,0.4,1.8,0.2
				c1-0.2,1.6-0.9,1.9-1.9c0.3-1,0.5-2.5,0.7-4.6c0.2-2.2,0.4-4,0.8-5.5c0.3-1.5,1-2.9,2.1-4.1c1.1-1.3,2.7-2.2,4.7-2.7
				c2-0.5,3.8-0.4,5.5,0.2c1.7,0.7,3.1,1.8,4.3,3.4c1.2,1.6,2.1,3.5,2.6,5.8c0.9,3.7,0.8,6.8-0.4,9.4c-1.2,2.6-3.3,4.4-6.4,5.4
				l-2.4-9.5c1-0.4,1.6-0.9,2-1.5c0.4-0.6,0.4-1.3,0.2-2.1c-0.2-0.7-0.5-1.2-1-1.5c-0.5-0.3-1.1-0.4-1.8-0.2
				c-0.9,0.2-1.5,0.8-1.8,1.8c-0.3,1-0.5,2.5-0.7,4.5c-0.2,2.2-0.5,4-0.8,5.5c-0.4,1.5-1.1,2.9-2.1,4.2c-1.1,1.3-2.7,2.2-4.8,2.8
				C308.7,744.9,307,744.8,305.3,744.3z"/>
		</g>
		<g>
			<path d="M342.3,764.8l-6.9,2.4l-2.9-8.4l-24.2,8.4l-3-8.6l24.2-8.4l-2.9-8.3l6.9-2.4L342.3,764.8z"/>
		</g>
		<g>
			<path d="M319.9,795.3l8.3-11.1l-0.4-0.8l-11.1,5l-3.8-8.4l30-13.5l5.9,13.2c1.1,2.4,1.6,4.6,1.5,6.7c-0.1,2.1-0.7,3.8-1.7,5.4
				c-1.1,1.5-2.6,2.7-4.4,3.5c-2.1,0.9-4.2,1.2-6.2,0.7c-2.1-0.5-3.9-1.6-5.5-3.5l-8.6,12.1L319.9,795.3z M333.4,780.9l1.9,4.1
				c1,2.3,2.6,3,4.7,2.1c1-0.4,1.6-1.1,1.9-1.9c0.3-0.8,0.2-1.8-0.3-3l-1.9-4.1L333.4,780.9z"/>
		</g>
		<g>
			<path d="M365.8,815c0,2.9-0.7,5.7-2.2,8.3c-1.5,2.6-3.6,4.7-6.4,6.3c-2.8,1.6-5.7,2.4-8.6,2.4c-3,0-5.7-0.7-8.3-2.2
				c-2.5-1.5-4.6-3.6-6.1-6.2c-1.5-2.7-2.3-5.5-2.4-8.4c0-2.9,0.7-5.7,2.2-8.3c1.5-2.6,3.6-4.7,6.4-6.3c2.8-1.6,5.7-2.4,8.6-2.4
				c3,0,5.7,0.7,8.3,2.2c2.5,1.5,4.6,3.6,6.1,6.2C365,809.2,365.8,812,365.8,815z M351.4,807.2c-2-0.4-4.1,0.1-6.3,1.4
				c-2.2,1.3-3.6,2.9-4.3,4.8c-0.6,1.9-0.4,3.9,0.8,5.9c1.2,2,2.7,3.2,4.7,3.6c2,0.4,4.1-0.1,6.3-1.3c2.3-1.3,3.7-2.9,4.3-4.8
				c0.6-1.9,0.4-3.8-0.8-5.9C354.9,808.8,353.4,807.6,351.4,807.2z"/>
		</g>
		<g>
			<path d="M368.7,863.6l-7.2-9.2l-5.4,1.9l-5.9-7.6l33.3-10.6l6.5,8.3L371.4,876l-5.9-7.6L368.7,863.6z M372.7,857.6l6.3-9.4
				l-10.6,3.7L372.7,857.6z"/>
		</g>
		<g>
			<path d="M385.9,881.2l7,7.5l-5.1,4.7l-13.2-14.2l24.1-22.4l6.2,6.7L385.9,881.2z"/>
		</g>
		<g>
			<path d="M430.2,888l-5,5.4l-9.7-9l-4,4.3l7.2,6.7l-4.7,5.1l-7.2-6.7l-8.8,9.5l-6.7-6.2l22.4-24.2L430.2,888z"/>
		</g>
		<g>
			<path d="M425.2,926.1l2.2-13.7l-0.7-0.6l-7.4,9.6l-7.2-5.6l20.2-26l11.4,8.9c2.1,1.6,3.6,3.4,4.5,5.2c0.9,1.9,1.2,3.7,1,5.5
				c-0.3,1.8-1,3.6-2.2,5.2c-1.4,1.8-3.1,3-5.2,3.6c-2,0.6-4.2,0.4-6.5-0.6l-1.9,14.7L425.2,926.1z M430.4,907l3.6,2.8
				c2,1.6,3.7,1.4,5.1-0.4c0.7-0.9,0.9-1.7,0.8-2.6c-0.1-0.9-0.7-1.7-1.7-2.5l-3.6-2.8L430.4,907z"/>
		</g>
		<g>
			<path d="M459.2,918.6l-3,4.6l8.9,5.8l-3.8,5.8l-8.9-5.8l-3.2,5l10.1,6.5l-4,6.1l-17.8-11.5l17.9-27.7l17.8,11.5l-4,6.1
				L459.2,918.6z"/>
		</g>
		<g>
			<path d="M489.2,955.9c-2.4,1.6-5.1,2.4-8,2.4c-2.9,0.1-6-0.7-9-2.3l-11.6-6.1l15.3-29.2l11.6,6.1c3.1,1.6,5.4,3.6,7.1,6.1
				c1.7,2.4,2.5,5.1,2.6,7.9c0.1,2.8-0.6,5.7-2.1,8.5C493.6,952.1,491.6,954.3,489.2,955.9z M481.9,949.4c2-0.6,3.7-2,4.9-4.4
				c1.2-2.3,1.5-4.5,0.8-6.5c-0.7-2-2.2-3.7-4.6-4.9l-2.8-1.4l-7.8,14.8l2.8,1.4C477.6,949.6,479.9,949.9,481.9,949.4z"/>
		</g>
		<g>
			<path d="M527.2,946.4c1.9,2.3,3,4.9,3.4,7.8c0.4,2.9,0.1,5.9-1.1,8.9c-1.2,3-2.9,5.4-5.3,7.3c-2.3,1.9-4.9,3-7.9,3.4
				c-2.9,0.4-5.8,0-8.7-1.1c-2.9-1.1-5.2-2.8-7.1-5.1c-1.9-2.3-3-4.9-3.5-7.8c-0.4-2.9-0.1-5.9,1.1-8.9c1.2-3,2.9-5.4,5.3-7.3
				c2.3-1.9,5-3,7.9-3.4c2.9-0.4,5.8,0,8.7,1.1C523,942.4,525.3,944.1,527.2,946.4z M511.1,949.2c-1.8,0.9-3.2,2.6-4.1,5
				c-0.9,2.4-1.1,4.5-0.4,6.4c0.7,1.9,2.1,3.3,4.3,4.1c2.1,0.8,4.1,0.8,5.9-0.1c1.8-0.9,3.2-2.6,4.1-4.9c1-2.4,1.1-4.6,0.4-6.5
				c-0.7-1.9-2.1-3.3-4.3-4.1C514.8,948.3,512.8,948.3,511.1,949.2z"/>
		</g>
		<g>
			<path d="M566.2,975.6c0.7,1.7,0.9,3.5,0.4,5.3c-0.7,2.8-2.2,4.7-4.4,5.7c-2.2,1.1-5,1.1-8.5,0.3l-15.8-4L546,951l15.4,3.9
				c3.2,0.8,5.6,2.2,7,4c1.5,1.9,1.9,4.1,1.2,6.8c-0.5,1.9-1.4,3.4-2.7,4.4c-1.3,1-2.8,1.5-4.6,1.5
				C564.2,972.6,565.4,973.9,566.2,975.6z M557.8,977.3c0.5-2-0.4-3.3-2.7-3.9l-5-1.3l-1.5,5.9l5,1.3
				C556,979.9,557.4,979.2,557.8,977.3z M551.7,966l4.5,1.1c2.2,0.6,3.6-0.1,4-2c0.5-1.9-0.4-3.2-2.7-3.7l-4.4-1.1L551.7,966z"/>
		</g>
		<g>
			<path d="M586.6,993.3l-4.7-13l-0.9-0.1l-1.9,12l-9.1-1.4l5-32.6l14.3,2.2c2.6,0.4,4.7,1.2,6.4,2.4c1.7,1.2,2.9,2.6,3.5,4.4
				c0.7,1.7,0.9,3.6,0.5,5.6c-0.4,2.3-1.3,4.1-2.8,5.6c-1.5,1.5-3.5,2.4-6,2.7l5.4,13.8L586.6,993.3z M581.9,974l4.5,0.7
				c2.5,0.4,3.9-0.5,4.3-2.8c0.2-1.1,0-2-0.5-2.7c-0.5-0.7-1.4-1.2-2.7-1.4l-4.5-0.7L581.9,974z"/>
		</g>
		<g>
			<path d="M623.2,991.1l-11.7-0.6l-2.1,5.4l-9.6-0.5l13.8-32.1l10.5,0.6l10.2,33.4l-9.7-0.5L623.2,991.1z M621.3,984.1l-3-10.9
				l-4.1,10.5L621.3,984.1z"/>
		</g>
		<g>
			<path d="M644.9,963.7l8.7,23.3l6.1-24.1l9.7-0.5l-9.5,33.5l-11.8,0.6l-13-32.3L644.9,963.7z"/>
		</g>
		<g>
			<path d="M695,959.9c2.8,1,5.1,2.7,6.9,5c1.9,2.3,3.1,5,3.6,8.2c0.5,3.2,0.3,6.2-0.8,8.9c-1.1,2.8-2.7,5.1-5,6.9
				c-2.3,1.8-5,3-8,3.5c-3,0.5-5.9,0.2-8.7-0.8c-2.8-1-5.1-2.7-7-5c-1.9-2.3-3.1-5-3.6-8.2c-0.5-3.2-0.3-6.2,0.8-8.9
				c1.1-2.8,2.7-5.1,5-6.9c2.3-1.8,5-3,8-3.5C689.4,958.6,692.3,958.9,695,959.9z M682.6,970.6c-1.1,1.7-1.4,3.8-1,6.4
				c0.4,2.5,1.4,4.4,3,5.7c1.6,1.3,3.5,1.7,5.8,1.4c2.3-0.4,3.9-1.4,5-3.1c1.1-1.7,1.4-3.8,1-6.3c-0.4-2.6-1.4-4.5-3-5.8
				c-1.5-1.3-3.5-1.7-5.8-1.3C685.4,967.8,683.7,968.9,682.6,970.6z"/>
		</g>
		<g>
			<path d="M735.8,961.2l2.1,7.3l-20.2,5.9l-2.1-7.3L735.8,961.2z"/>
		</g>
		<g>
			<path d="M766.8,936.5c2.5,0.1,4.7,0.7,6.7,1.9c2,1.2,3.8,2.9,5.2,5l-8.9,3.8c-1-1-2.2-1.6-3.5-1.8c-1.3-0.2-2.6-0.1-4,0.5
				c-1.9,0.8-3.1,2.1-3.6,4c-0.6,1.9-0.3,4,0.7,6.3c1,2.3,2.4,3.9,4.1,4.8c1.7,0.9,3.5,1,5.4,0.2c1.3-0.6,2.4-1.4,3.1-2.5
				c0.7-1.1,1.1-2.4,1.1-3.8l8.9-3.8c0.8,3.8,0.4,7.3-1.2,10.5c-1.7,3.2-4.4,5.6-8.3,7.3c-3,1.3-5.9,1.7-8.7,1.4
				c-2.8-0.3-5.3-1.4-7.5-3.2c-2.2-1.8-4-4.2-5.2-7.2c-1.3-3-1.8-5.9-1.6-8.8c0.2-2.9,1.2-5.4,2.8-7.7c1.7-2.3,4-4,7-5.3
				C761.9,936.9,764.4,936.4,766.8,936.5z"/>
		</g>
		<g>
			<path d="M798.4,920.4c2.9,0,5.7,0.8,8.2,2.3c2.5,1.5,4.6,3.7,6.2,6.5c1.6,2.8,2.4,5.7,2.3,8.7c0,3-0.8,5.7-2.3,8.2
				c-1.5,2.5-3.6,4.5-6.3,6c-2.7,1.5-5.5,2.3-8.4,2.3c-3,0-5.7-0.7-8.3-2.3c-2.6-1.5-4.6-3.7-6.2-6.5c-1.6-2.8-2.4-5.7-2.3-8.7
				c0-3,0.8-5.7,2.4-8.2c1.5-2.5,3.6-4.5,6.3-6C792.7,921.1,795.5,920.4,798.4,920.4z M790.5,934.7c-0.4,2,0,4.1,1.3,6.4
				c1.2,2.2,2.8,3.7,4.7,4.3s3.9,0.4,5.9-0.7c2-1.1,3.2-2.7,3.6-4.7c0.4-2,0-4.1-1.2-6.3c-1.3-2.3-2.9-3.7-4.7-4.4
				c-1.9-0.7-3.8-0.4-5.9,0.7C792.1,931.2,790.9,932.7,790.5,934.7z"/>
		</g>
		<g>
			<path d="M827.8,900.5c2.9-0.3,5.7,0.1,8.4,1.4c2.7,1.2,5,3.2,6.9,5.8s3,5.4,3.3,8.4c0.3,3-0.2,5.8-1.4,8.4
				c-1.2,2.7-3.1,4.9-5.6,6.7c-2.5,1.8-5.2,2.9-8.1,3.2c-2.9,0.3-5.8-0.1-8.5-1.3c-2.7-1.2-5-3.1-6.9-5.8c-1.9-2.6-3-5.4-3.3-8.4
				c-0.3-3,0.2-5.8,1.4-8.5c1.2-2.7,3.1-4.9,5.6-6.7C822.2,901.9,824.9,900.8,827.8,900.5z M821.4,915.6c-0.2,2,0.5,4.1,2,6.2
				c1.5,2.1,3.2,3.3,5.2,3.8c2,0.5,3.9,0,5.8-1.4c1.9-1.3,2.9-3,3.1-5c0.2-2-0.5-4.1-1.9-6.1c-1.5-2.1-3.3-3.4-5.2-3.8
				c-2-0.4-3.9,0-5.8,1.4C822.7,911.9,821.7,913.6,821.4,915.6z"/>
		</g>
		<g>
			<path d="M857,902.7l7.3,8.3l-6.9,6.1l-21.8-24.7l10.2-9.1c3-2.6,5.9-3.9,8.8-3.8c2.9,0.1,5.5,1.4,7.7,3.9
				c1.4,1.6,2.3,3.3,2.7,5.1c0.4,1.9,0.2,3.7-0.5,5.7c-0.8,1.9-2.1,3.8-4.1,5.5L857,902.7z M855.4,889.6c-1.6-1.8-3.4-1.8-5.4-0.1
				l-2.6,2.3l4.8,5.5l2.6-2.3C856.8,893.2,857,891.4,855.4,889.6z"/>
		</g>
		<g>
			<path d="M879.5,884.3l6.3,6.3l-6.5,6.6l-6.3-6.3L879.5,884.3z"/>
		</g>
		<g>
			<path d="M886.2,840.1l5.6,4.7l-5.7,6.8l19.7,16.4l-5.8,7l-19.7-16.4l-5.6,6.8l-5.6-4.7L886.2,840.1z"/>
		</g>
		<g>
			<path d="M924,843.5l-13.8-1.4l-0.5,0.8l10,6.9l-5.2,7.5l-27.1-18.7l8.2-11.9c1.5-2.2,3.2-3.8,5-4.7c1.8-1,3.6-1.4,5.5-1.3
				c1.9,0.2,3.6,0.8,5.3,2c1.9,1.3,3.2,3,3.8,5c0.7,2,0.6,4.2-0.2,6.5l14.8,1.1L924,843.5z M904.6,839.3l2.6-3.7
				c1.4-2.1,1.2-3.8-0.7-5.1c-0.9-0.6-1.8-0.8-2.6-0.7c-0.9,0.2-1.7,0.8-2.4,1.8l-2.6,3.7L904.6,839.3z"/>
		</g>
		<g>
			<path d="M938,809.7l-5.7,10.2l3.9,4.2l-4.7,8.4l-22.9-26.4l5.1-9.2l34.5,5.4l-4.7,8.5L938,809.7z M930.8,808.3l-11.1-2.1l7.6,8.3
				L930.8,808.3z"/>
		</g>
		<g>
			<path d="M947.4,768.9c1.8-0.5,3.6-0.3,5.3,0.4c2.6,1.1,4.3,2.9,5,5.2c0.7,2.4,0.3,5.2-1,8.4l-6.4,15l-30.3-13l6.3-14.6
				c1.3-3.1,3-5.2,5.1-6.3c2.1-1.1,4.4-1.2,6.9-0.1c1.8,0.8,3.1,1.9,3.9,3.3c0.8,1.5,1.1,3,0.8,4.7
				C944.1,770.4,945.6,769.3,947.4,768.9z M935.7,781.7l1.8-4.2c0.9-2.1,0.5-3.5-1.3-4.3c-1.8-0.8-3.2-0.1-4.1,2l-1.8,4.2
				L935.7,781.7z M947.8,777.4c-1.9-0.8-3.3-0.1-4.2,2.1l-2,4.7l5.6,2.4l2-4.7C950.1,779.6,949.6,778.1,947.8,777.4z"/>
		</g>
		<g>
			<path d="M956.9,757.1l8.4,3.1l-3.2,8.7l-8.4-3.1L956.9,757.1z"/>
		</g>
		<g>
			<path d="M965.2,736.3l2.7-9.9l6.7,1.8l-5,18.8l-31.8-8.5l2.4-8.9L965.2,736.3z"/>
		</g>
		<g>
			<path d="M947.9,692.8l7.2,1.3l-1.6,8.7l25.2,4.7l-1.7,9l-25.2-4.7l-1.6,8.6l-7.2-1.3L947.9,692.8z"/>
		</g>
		<g>
			<path d="M975.5,665.3c2.4,1.6,4.1,3.8,5.3,6.5c1.2,2.7,1.6,5.8,1.3,9.2L981,694l-32.8-2.9l1.2-13.1c0.3-3.5,1.3-6.4,2.9-8.9
				c1.6-2.5,3.7-4.3,6.3-5.4c2.6-1.2,5.5-1.6,8.7-1.3C970.4,662.7,973.2,663.7,975.5,665.3z M972.3,674.5c-1.3-1.7-3.3-2.6-6-2.9
				c-2.6-0.2-4.7,0.4-6.4,1.8c-1.6,1.4-2.5,3.5-2.8,6.2l-0.3,3.1l16.7,1.5l0.3-3.1C974.2,678.4,973.6,676.2,972.3,674.5z"/>
		</g>
		<g>
			<path d="M978,636.9l0.2,11.7l5.5,1.7l0.2,9.6l-33-11.5l-0.2-10.6l32.6-12.6l0.2,9.7L978,636.9z M971.2,639.3l-10.6,3.7l10.8,3.4
				L971.2,639.3z"/>
		</g>
		<g>
			<path d="M973,614l8.9-0.8l0.8,9.2l-8.9,0.8L973,614z"/>
		</g>
	</g>
	<g>
		<g>
			<path class="st1" d="M651.7,802.5c-4.3,0-8.3,0.6-12.1,1.8l0,0c-3.7-1.1-7.8-1.8-12.1-1.8c-18.3,0-33.1,11.6-33.1,25.9
				c0,14.3,14.8,25.9,33.1,25.9c4.3,0,8.3-0.6,12.1-1.8c3.7,1.2,7.8,1.8,12.1,1.8c18.3,0,33.1-11.6,33.1-25.9
				C684.8,814.1,670,802.5,651.7,802.5z"/>
		</g>
		<g>
			<g>
				<path d="M571.5,825.8c3.6-3.7,5.4-7.1,5.4-10.1c0-2.9-1.2-4.4-3.5-4.4c-1.3,0-2.3,0.5-2.9,1.5c-0.6,1-0.9,2.7-1,5h-12.6
					c0.3-5.9,2-10.2,5.3-13.1c3.3-2.9,7.3-4.3,12.2-4.3c5.3,0,9.3,1.3,11.8,4c2.6,2.6,3.8,6,3.8,10c0,4.4-1.6,8.5-4.7,12.6
					s-6.9,7.4-11.5,10.2h16.8v10.5H557V838C563,833.6,567.9,829.5,571.5,825.8z"/>
			</g>
			<g>
				<path d="M691.5,840.4v-10.8l20.5-28.7h14v28.3h5.2v11.2H726v7.9h-13.1v-7.9H691.5z M713.9,815.7l-9.3,13.4h9.3V815.7z"/>
			</g>
		</g>
		<g>
			<g>
				<path d="M627.5,856.6c-19.5,0-35.3-12.6-35.3-28.2c0-15.5,15.9-28.2,35.3-28.2c19.5,0,35.3,12.6,35.3,28.2
					c0,4.3-1.2,8.4-3.5,12.2l-0.3,0.4l-3.8-2.4l0.2-0.4c1.9-3.1,2.8-6.5,2.8-9.9c0-13.1-13.8-23.7-30.9-23.7
					c-17,0-30.9,10.6-30.9,23.7c0,13.1,13.8,23.7,30.9,23.7c4.4,0,8.6-0.7,12.6-2.1l1.5,4.2C637.2,855.9,632.4,856.6,627.5,856.6z"
					/>
			</g>
			<g>
				<path d="M620.6,842.2c-6.9-2.3-11.4-7.7-11.4-13.8c0-8.2,8.2-14.9,18.3-14.9c10.1,0,18.3,6.7,18.3,14.9c0,4-1.9,7.7-5.3,10.5
					l-2.8-3.5c2.4-1.9,3.7-4.4,3.7-7c0-5.7-6.2-10.4-13.9-10.4s-13.9,4.7-13.9,10.4c0,4.1,3.3,7.8,8.3,9.5L620.6,842.2z"/>
			</g>
			<g>
				<path d="M651.7,856.6c-19.5,0-35.3-12.6-35.3-28.2c0-4.6,1.4-9.2,4.1-13.2l3.7,2.5c-2.2,3.3-3.3,6.9-3.3,10.7
					c0,13.1,13.8,23.7,30.9,23.7c17,0,30.9-10.6,30.9-23.7c0-13.1-13.8-23.7-30.9-23.7c-3.9,0-7.8,0.6-11.4,1.7l-1.3-4.3
					c4.1-1.2,8.3-1.9,12.7-1.9c19.5,0,35.3,12.6,35.3,28.2C687.1,844,671.2,856.6,651.7,856.6z"/>
			</g>
			<g>
				<path d="M651.7,843.3c-10.1,0-18.3-6.7-18.3-14.9c0-3.7,1.7-7.3,4.8-10l3,3.3c-2.1,1.9-3.3,4.2-3.3,6.7
					c0,5.7,6.2,10.4,13.9,10.4c7.6,0,13.9-4.7,13.9-10.4c0-4.4-3.7-8.3-9.2-9.8l1.2-4.3c7.5,2,12.5,7.7,12.5,14.1
					C670.1,836.6,661.8,843.3,651.7,843.3z"/>
			</g>
		</g>
	</g>
</g>
</svg>
