<?xml version="1.0" encoding="utf-8"?>
<!-- Generator: Adobe Illustrator 24.2.0, SVG Export Plug-In . SVG Version: 6.00 Build 0)  -->
<svg version="1.1" id="Camada_1" xmlns="http://www.w3.org/2000/svg" xmlns:xlink="http://www.w3.org/1999/xlink" x="0px" y="0px"
	 viewBox="0 0 1280 1280" style="enable-background:new 0 0 1280 1280;" xml:space="preserve">
<style type="text/css">
	.st0{fill:#50A545;}
	.st1{fill:#EFCC3E;}
	.st2{fill:#F1EEE9;}
	.st3{fill:#83C8E8;}
	.st4{fill:#F49725;}
	.st5{fill:#4B8ED2;}
	.st6{fill:#E94941;}
	.st7{fill:#B25AA7;}
</style>
<rect x="-7.7" y="-8.4" class="st0" width="1294" height="1294"/>
<g>
	<path class="st1" d="M1124.1,592.1c-8.4-16.9-23-24.8-33.5-41c-8.4-12.8-22-35.1-35-42c-14.3,33.6-20.2,64.2-27.9,99.4
		c15.4,0.6,33.6-2.7,49.7-7.9C1092.9,595.6,1124.1,592.1,1124.1,592.1z"/>
</g>
<g>
	<path class="st2" d="M129,851.9c17.9,10.9,40.1,19.1,59.6,28.1c15.5,7.2,41.6,20.1,58,19c-5.9-39.7-19.8-80.1-33-117.4
		c-15,8.3-30.9,27.3-45.8,39c-13.5,10.6-30.4,21.8-40.3,31.5"/>
</g>
<g>
	<path class="st2" d="M1060.1,510.9c3.7-6,5.4-14.3,8.1-20.9c3.6-8.7,5.4-17.9,7.3-27.3c1.7-8.1,3.8-16.5,5.1-24.5
		c1.3-7.9,4.6-17,4.7-24.9c-9.7,0-20,5.7-29.9,6.7c-8.8,0.9-17.2,3.9-25.9,5.1c-15.5,2.1-32.3,4.9-47.1,10.3
		c24.7,27,51.8,52.7,77,78.4c0.4-0.7-0.3-0.4-0.8-0.6"/>
</g>
<g>
	<path class="st3" d="M1063.8,515.7c6.8,0,14.4-2.8,21.2-4c8.9-1.5,17.4-4.6,26-7.8c7.5-2.7,15.4-5.2,22.7-8.2
		c7.1-3,16.2-4.9,22.8-8.7c-4.9-7.9-14.8-13.4-20.6-21.1c-5.1-6.8-11.9-12.1-17.2-18.6c-9.6-11.6-20.4-24-32.2-33.3
		c-9.6,33.8-17,69-25.3,102.6c0.8,0,0.2-0.4,0.1-1"/>
</g>
<g>
	<path class="st4" d="M131.7,851.4c9.7-13.4,29.8-25.8,43.9-37.3c13.5-11,27.1-21.2,40.5-32.5c-8.1-4.5-25.6-6.7-35.2-10.3
		c-10.9-4.1-22.2-6.4-33.1-10.9c-9.8-4.1-20-8.3-29.8-12.5c-9.2-3.9-21.9-6.1-29.8-11.8c-0.6,0.2-1.1,0.5-1.5,1
		c3.7,11.2,11.6,20.1,15.4,31.6c3.7,11,7.8,21.8,11.1,32.8c4.7,15.6,16.2,35.3,14.9,51.6"/>
</g>
<g>
	<path class="st5" d="M121.3,963.1c9.5-6.6,20.4-10.1,30.4-15.6c11.5-6.4,8.8-4.6,20.4-11c13-7.2,22.5-15.5,36.3-21.2
		c8.9-3.7,26.6-10.7,34.5-15.9c-27-6.9-37.6-16.3-63.6-28.4c-15.9-7.4-31.2-12.7-47.9-18.2C131.3,852.8,122.4,926.4,121.3,963.1z"/>
</g>
<g>
	<path class="st1" d="M297.4,724.8c14.6-21.2,33.3-42.7,50.8-61.6c16.3-17.7,36.1-34,55.5-48.2c23.3-17.1,45.1-32.7,70.6-46.2
		c30.5-16.1,59.9-19.9,93.5-26.3c58.6-11.1,118.3,2.7,175.4,17.4C802,575,858,612.5,908,646.3c53.2,35.9,99.2,81.2,141,128.2
		c7.8-7.7,22.3-13.8,28-22.5c2.3-3.5,5.6-1.9,5.8-6.1c0.2-3.2-11.6-12.7-13.3-14.7c-27.6-31.6-53-57.4-86.6-82.4
		c-36.5-27.1-73.8-53.5-113.1-75.8c-24.6-13.9-63.4-31.8-90-41.7c-75-27.8-139-33.6-220.1-25.1C473.2,515.2,405.8,571,343,625.5
		c-14.8,12.8-28,27.8-42.1,41.4c-9,8.8-39.3,27-39.3,27S294.9,716,297.4,724.8z"/>
	<path class="st4" d="M1082.2,742.9c0.1-16.2-47.3-49.7-60.8-62.5c-19.5-18.5-41.3-35.7-63.1-52.1c-46.8-35.3-98.8-63.7-152.2-86.9
		c-49.6-21.5-106.4-38.7-162-43.8c-72.4-6.7-136.3,9.6-200.1,44.2c-51.6,28-96.9,68.1-136.6,111.4c-10.1,11-24.5,35.6-37.6,42.4
		c-14.4,7.5-31.1-6.6-44.7-16.6c16.1-51.6,73.3-99.2,111.8-135c48.4-44.9,104.1-64.1,166.3-82.9c148.9-45.2,304.3,14.4,431.3,94.7
		c44.3,28,81.8,56.6,118.3,94.5c22.8,23.7,43.9,46.8,70.1,66.8C1108.9,724.7,1091.7,733.2,1082.2,742.9z"/>
	<path class="st6" d="M220.1,668.9c0.4-3-36.6-26.4-46.1-31.7c25-41.6,54.8-82,91.4-113.1c45.9-39,83.3-80.8,140.3-104.5
		c65.4-27.1,154.8-32,224.1-21.6c97.5,14.7,191.5,42,278.1,90.4c55.9,31.2,109.6,66.5,155.5,111.2c31.1,30.3,70.4,59.8,97,93.6
		c-15.7,9.2-28.7,24.4-44.6,32.3c-1.6-18.5-23.6-35.2-35.6-48c-24.2-25.7-47.7-50.7-75-73.1c-66.9-54.9-131.7-92.9-214.1-120.2
		c-76.2-25.3-156.5-53.6-238-39.7c-80.8,13.8-156.4,46.1-221.2,96.5c-33.4,26-54.5,60.7-78,95.3c-6.2,9.1-12,18.8-18.7,27.6
		C231.2,669.1,227.7,678.1,220.1,668.9z"/>
	<path class="st5" d="M361.9,812.3c15.1,10.4,27.8,20.7,39.7,33.5c18.6-30.3,57-54.6,84.5-76.8c30-24.2,67.1-43.1,104.9-53.1
		c77.9-20.8,173.7-10.3,241.3,34.6c45.5,30.2,65.4,63.5,97.9,104.6c14.2-10.5,29.3-25,40.1-38.2c-42.7-53.2-114.5-105.9-184.7-137.6
		c-39.6-17.9-93.4-23.8-159.9-16.9c-44.7,4.6-92,27.5-133.9,44.6C438.3,728.8,399.9,768.3,361.9,812.3z"/>
	<path class="st7" d="M924.9,858.8c-24.7-35.5-44.8-71.6-82.7-94.6c-35.9-21.8-72.1-37.9-111-47.5c-90.6-22.4-177,0.3-249.4,58.1
		c-20.7,16.5-40.5,32.7-59,50.9c-24.3,23.8-25.1,38.1,10.6,55.7c29.6-38.7,84.1-67.2,124.6-93.9c33.5-22.1,66.8-34,107.5-33.3
		c89.6,1.6,196.4,44.8,238,124.8C909,871.8,922.6,860,924.9,858.8z"/>
	<path class="st3" d="M968.6,815c-37.4-23.3-62.4-63.4-100.4-89.1c-37.2-25.3-76-46.4-117.5-58.9c-88.8-26.8-175.6,2.9-258.2,41.6
		c-55,25.7-87.9,56.3-127.6,98.3c-8.1-11.3-19.4-21.5-30.2-31.1c43.6-77.1,129.5-128.8,209.5-160.4c91.5-36.2,187.9-13.8,271.9,24.7
		c64.8,29.7,144.6,100.4,189.7,155.5C995,801.4,975,813.5,968.6,815z"/>
	<path class="st2" d="M1000.1,794.4c-33.5-73-140.9-141.3-216.4-173.2c-115.4-48.7-213.7-41.5-317.5,29.3
		c-27.7,18.9-51,38.6-77.4,59.3c-24.4,19.2-41.2,47.8-65.3,65.5c-11.8-16.3-17.5-31.3-30.9-45.6c69.9-71,156.1-159.5,257.3-181.7
		c124.5-27.3,245.6,13.7,346.3,88.4c50.4,37.4,107.4,86.5,146.8,135.4C1029.5,780.5,1012.3,791.8,1000.1,794.4z"/>
</g>
<g>
	<g>
		<path class="st2" d="M322,359.7c16.3-3.3,31-6,46.5-12.6c6-2.5,33.9-17.9,14.3-18.4c-16.1-0.5-33.6,6.2-47.4,14.5
			c-4.1,2.4-9.2,4.4-12.8,7.5c-4.3,3.8-4.3,9.5,3.1,8.6"/>
	</g>
	<g>
		<path class="st2" d="M267.2,378.5c-16.5,2.2-31.3,4.1-47.2,9.6c-6.1,2.1-35.1,15.4-15.6,17c16,1.4,33.8-4.1,48.2-11.4
			c4.2-2.1,9.5-3.7,13.3-6.5c4.6-3.4,5-9-2.4-8.5"/>
	</g>
	<g>
		<path class="st2" d="M394.3,415.8c-15.3-6.6-28.9-12.6-45.3-16.1c-6.3-1.4-38-4.9-22.2,6.5c13,9.4,31.1,13.9,47.2,15.1
			c4.7,0.4,10.1,1.7,14.8,1.3c5.7-0.6,8.9-5.1,2.3-8.5"/>
	</g>
	<g>
		<path class="st2" d="M382.1,465.5c-10.9-12.5-20.6-23.9-33.9-34.2c-5.1-4-32.1-20.9-22.8-3.7c7.6,14.1,22,26,36,34.1
			c4.1,2.4,8.3,5.9,12.8,7.5c5.4,2,10.3-0.7,5.8-6.6"/>
	</g>
	<g>
		<path class="st2" d="M325.6,377.6c17.9,0.1,35,5.1,53,3.9c4.5-0.3,33.1-2.5,18.4-9.7c-6.8-3.3-19.6-2.7-27.4-2.9
			c-8.2-0.2-15.9-0.2-23.7,0.8c-4.3,0.6-8.3,0.9-12.5,1.6c-2.4,0.4-12.7,2.8-5.7,5.6"/>
	</g>
	<g>
		<path class="st2" d="M272.9,279c1.5,7.4,10.5,17.1,14.6,24c4.2,7,8.8,13.8,13.4,20.5c3.6,5.3,15.4,18.6,12.3,4.3
			c-3.5-16.1-13.9-30.5-25.7-41.9c-2.6-2.5-5.3-5.9-8.1-8.1c-6.5-4.9-5.3,0.1-4,6.2"/>
	</g>
	<g>
		<path class="st2" d="M308.9,440.9c0,7.1,6.8,17.5,9.5,24.5c2.7,7.2,5.9,14.1,9,21.1c2.4,5.4,11.3,19.5,11,5.7
			c-0.3-15.6-7.5-30.6-16.7-42.9c-2-2.7-3.9-6.3-6.3-8.7c-5.3-5.5-5.2-0.7-5.1,5.3"/>
	</g>
	<g>
		<path class="st2" d="M241.6,327.7c16.7,6.4,32.4,14.8,49.8,19.5c3.7,1,8.9,2.4,12.6,2.1c5-0.4,5-1.4,2-4.4
			c-11.7-12.1-37-18.5-53.9-21.9c-2.6-0.5-7.7-1.8-10.2-1.5c-4.2,0.6-4.3,3.2,0.4,5.3"/>
	</g>
</g>
<g>
	<g>
		<path class="st2" d="M845.8,908.2c-15.4-6.2-29.3-11.9-45.8-14.9c-6.4-1.1-38.2-3.6-22,7.6c13.2,9.2,31.5,13.2,47.6,13.8
			c4.8,0.2,10.1,1.4,14.8,0.7c5.7-0.8,8.8-5.6,2.1-8.8"/>
	</g>
	<g>
		<path class="st2" d="M789.2,867.6c-10.6-12.8-20-24.4-33.1-35c-5-4.1-31.6-21.6-22.7-4.3c7.3,14.3,21.4,26.5,35.2,34.9
			c4.1,2.5,8.2,6.1,12.6,7.8c5.3,2.1,10.3-0.5,5.9-6.5"/>
	</g>
	<g>
		<path class="st2" d="M696.2,915.4c-16.4-2.7-31.1-5.3-47.9-4.7c-6.5,0.2-38.1,4.4-20,11.7c14.9,6,33.6,6,49.4,3.3
			c4.7-0.8,10.2-0.7,14.6-2.3c5.4-1.9,7.5-7.1,0.2-8.8"/>
	</g>
	<g>
		<path class="st2" d="M759.1,792.8c4.4,12.9,8.1,24.6,15.4,36.1c2.8,4.4,19.3,24.5,18.2,8c-0.9-13.5-8.5-26.7-17.3-36.5
			c-2.6-2.9-4.8-6.8-8-9.1c-3.9-2.8-9.1-1.6-7.6,4.3"/>
	</g>
	<g>
		<path class="st2" d="M699,933.8c-9.2,10.8-17.6,20.3-24.9,32.7c-2.8,4.8-14.5,29.4-1.5,19.3c10.7-8.3,19.2-21.8,24.7-34.5
			c1.6-3.7,4.2-7.7,5.1-11.6c1.2-4.7-1.2-8.4-5.6-3.8"/>
	</g>
	<g>
		<path class="st2" d="M813.8,818.3c-4-14.4-3.1-29.4-8.4-43.5c-1.3-3.5-10-25.9-13.6-12.2c-1.7,6.3,1.9,16.4,3.5,22.7
			c1.7,6.7,3.4,12.8,6.2,18.8c1.5,3.3,2.8,6.5,4.4,9.6c1,1.8,5.6,9.5,6.7,3.1"/>
	</g>
	<g>
		<path class="st2" d="M707.2,980.2c1.1,7.4,9.4,17.7,13.1,24.9c3.8,7.3,8,14.3,12.1,21.3c3.2,5.5,14.2,19.5,12,5.1
			c-2.5-16.3-12-31.3-23-43.4c-2.4-2.6-4.9-6.2-7.6-8.5c-6.2-5.3-5.3-0.3-4.4,5.9"/>
	</g>
	<g>
		<path class="st2" d="M739.7,965.2c3.9-6,3.8-18.4,5.5-25.7c1.7-7.5,2.8-15.1,4-22.6c0.9-5.9,1.2-22.5-6.1-10.8
			c-8.3,13.2-10.4,29.7-9.5,45c0.2,3.3-0.1,7.4,0.5,10.7c1.5,7.5,4,3.4,7.2-1.6"/>
	</g>
	<g>
		<path class="st2" d="M761.1,909c7.4,16.3,12.6,33.3,21.7,48.9c1.9,3.3,4.6,7.9,7.5,10.3c3.8,3.2,4.5,2.5,4.5-1.7
			c0.3-16.8-13.3-39.2-22.9-53.4c-1.5-2.2-4.2-6.7-6.2-8.2c-3.4-2.5-5.3-0.8-3.4,4"/>
	</g>
</g>
<g>
	<path class="st7" d="M217.9,780.7c6.8-9,15.8-15.6,23.4-23.8c8.8-9.5,6.8-7,15.6-16.5c9.9-10.6,16.2-21.3,27.2-30.8
		c7.1-6.1,21.4-18.1,27.2-25.3c-27.1,1.8-39.9-3.6-67.7-6.9c-17-2-32.8-2.2-50-2.2C193.5,675.2,207.7,746.3,217.9,780.7z"/>
</g>
<g>
	<path class="st1" d="M687.7,864.2c-4.7,2.2-9.5,4.4-14.7,5.4c-4.2,0.8-13.9,2.2-14.4,2.1c-0.4-0.1-0.8-0.3-1.2-0.5
		c-7.9-4-24.3-13.4-24.8-13.9c-0.4-0.5-0.7-1.1-0.9-1.7c-3.5-8.4-7.7-28.4-7.7-28.4s0.4-1.4,0.7-2.1c2.3-5,5.3-9.6,8.3-14.2
		c2.3-3.5,4.6-7,6.9-10.6l2.3-1.4c9.1-3.3,16.6-4.1,26.1-5.8c0.3-0.1,0.7-0.1,1-0.1c0.4,0.1,0.8,0.3,1.1,0.5
		c6.4,3.8,12.8,7.6,19.3,11.4c2.1,1.2,4.2,3.6,6.7,4.5l0.5,1.1c2.5,10.1,4.6,17.1,7.1,27.2c0,0-2.1,4.4-3.7,6.1
		c-1.5,1.6-2.8,3.7-3.9,5.7C693.5,854.4,687.7,864.2,687.7,864.2z"/>
</g>
<g>
	<path class="st2" d="M791.1,337.7c-9.2,4.3-18.6,8.7-28.6,10.5c-8.2,1.5-27,4.2-28.1,4.1c-0.8-0.1-1.6-0.5-2.4-0.9
		c-15.4-7.8-47.4-26.1-48.2-27c-0.8-0.9-1.3-2.1-1.8-3.3c-6.8-16.3-15-55.2-15-55.2s0.8-2.8,1.4-4.1c4.4-9.7,10.3-18.7,16.1-27.6
		c4.4-6.9,8.9-13.7,13.3-20.6l4.5-2.6c17.7-6.4,32.3-7.9,50.8-11.3c0.6-0.1,1.3-0.2,1.9-0.1c0.8,0.1,1.5,0.5,2.2,0.9
		c12.5,7.4,25,14.8,37.5,22.1c4,2.4,8.2,6.9,13.1,8.7l0.9,2.2c4.9,19.6,8.9,33.3,13.8,53c0,0-4.2,8.6-7.3,11.8
		c-3,3.1-5.4,7.1-7.6,11.1C802.4,318.6,791.1,337.7,791.1,337.7z"/>
</g>
<g>
	<path class="st0" d="M269.9,484.6c-3.6,1.7-7.2,3.4-11.1,4.1c-3.2,0.6-10.5,1.6-10.9,1.6c-0.3,0-0.6-0.2-0.9-0.3
		c-6-3-18.4-10.2-18.8-10.5c-0.3-0.4-0.5-0.8-0.7-1.3c-2.6-6.3-5.8-21.5-5.8-21.5s0.3-1.1,0.5-1.6c1.7-3.8,4-7.3,6.3-10.8
		c1.7-2.7,3.5-5.3,5.2-8l1.8-1c6.9-2.5,12.6-3.1,19.8-4.4c0.2,0,0.5-0.1,0.8-0.1c0.3,0,0.6,0.2,0.8,0.4c4.9,2.9,9.7,5.7,14.6,8.6
		c1.6,0.9,3.2,2.7,5.1,3.4l0.4,0.9c1.9,7.6,3.5,13,5.4,20.6c0,0-1.6,3.4-2.8,4.6c-1.2,1.2-2.1,2.8-3,4.3
		C274.2,477.2,269.9,484.6,269.9,484.6z"/>
</g>
<g>
	<path class="st6" d="M1031.7,398.7c-4-0.2-8-0.4-11.7-1.6c-3.1-1-10-3.5-10.4-3.8c-0.3-0.2-0.5-0.5-0.7-0.7
		c-3.8-5.5-11.5-17.7-11.6-18.1c-0.1-0.5-0.1-1,0-1.5c0.7-6.8,5-21.7,5-21.7s0.8-0.8,1.2-1.2c3.3-2.5,7-4.5,10.6-6.5
		c2.8-1.5,5.6-3.1,8.4-4.6l2-0.1c7.3,1.1,12.5,3.2,19.5,5.5c0.2,0.1,0.5,0.2,0.7,0.3c0.2,0.2,0.4,0.5,0.6,0.7
		c2.9,4.8,5.9,9.7,8.8,14.5c0.9,1.6,1.5,3.9,2.9,5.4l-0.1,0.9c-1.9,7.6-3.1,13.1-5,20.7c0,0-3,2.2-4.7,2.7c-1.6,0.5-3.2,1.4-4.7,2.4
		C1039,394.2,1031.7,398.7,1031.7,398.7z"/>
</g>
</svg>
