<?xml version="1.0" encoding="utf-8"?>
<!-- Generator: Adobe Illustrator 24.2.0, SVG Export Plug-In . SVG Version: 6.00 Build 0)  -->
<svg version="1.1" id="Camada_1" xmlns="http://www.w3.org/2000/svg" xmlns:xlink="http://www.w3.org/1999/xlink" x="0px" y="0px"
	 viewBox="0 0 1280 1280" style="enable-background:new 0 0 1280 1280;" xml:space="preserve">
<style type="text/css">
	.st0{fill:#F1EEE9;}
	.st1{fill:#EFCC3E;}
	.st2{fill:#B25AA7;}
	.st3{fill:#E94941;}
	.st4{fill:#83C8E8;}
	.st5{fill:#50A545;}
	.st6{font-family:'Poppins-Bold';}
	.st7{font-size:60.6482px;}
	.st8{fill:#F49725;}
	.st9{fill:#4B8ED2;}
</style>
<g>
	<rect x="-12" y="-12" class="st0" width="1303.9" height="1303.9"/>
	<g>
		<path class="st1" d="M933.1,1129.2c-6.1-7-12.3-14.1-16.5-22.5c-3.4-6.8-10.6-22.6-10.7-23.7c-0.1-0.8,0-1.6,0.2-2.3
			c2.9-15.5,10.9-48.3,11.5-49.2c0.6-1,1.5-1.7,2.4-2.4c12.6-10.1,44.8-27.2,44.8-27.2s2.7,0,4,0.2c9.7,1.4,19,4.3,28.4,7.1
			c7.2,2.2,14.3,4.3,21.5,6.5l3.5,3.3c10.1,14,15.2,26.4,22.9,41.8c0.3,0.5,0.5,1.1,0.6,1.7c0.1,0.7-0.1,1.4-0.3,2.1
			c-3.3,12.9-6.6,25.7-9.9,38.6c-1.1,4.1-4,9-4.3,13.7l-1.7,1.4c-16,9.3-27,16.3-43.1,25.6c0,0-8.6-1.5-12.2-3.4
			c-3.4-1.8-7.6-3-11.7-3.9C952.7,1134.2,933.1,1129.2,933.1,1129.2z"/>
	</g>
	<g>
		<path class="st2" d="M589,1007.3c0-2.4,0-4.6-0.5-6.9c-0.5-2.1-1-4.1-1.3-6.3c-0.5-3.6-2.3-6.7-2.9-10.3c-0.3-1.8-0.7-3.7-1-5.5
			c-0.3-1.6-1.1-3-1.6-4.5c-0.6-1.6-1.4-3.1-1.9-4.8c-0.3-0.9-0.4-3-1.8-2.5c-0.2-1.4-1.2-4-1.6-5.2c-0.2-0.8-0.2-1.6-0.6-2.4
			c-0.5-1.3-1.6-2.2-2.3-3.4c-0.8-1.4-1.2-3.2-1.8-4.7c-0.9-2.4-2.9-4.2-4-6.6c-1.1-2.5-1.6-4.7-3.4-7c-1.2-1.5-2.6-2.8-3.7-4.3
			c-0.5-0.7-0.8-1.6-1.3-2.3c-0.6-0.8-1.5-1.4-2.2-2.2c-2-2.1-4.1-4.4-5.8-6.7c-3.4-4.5-8.2-7.2-12.1-11.2c-2.8-2.8-6.1-4.8-9-7.4
			c-1.4-1.3-3.1-2.2-4.5-3.4c-1-0.9-2.1-1.7-3.3-2.4c-1.4-0.7-2.3-1.7-3.5-2.5c-1.1-0.7-2.2-1.3-3.3-2c-2.1-1.5-3.6-2.8-6.1-3.8
			c-1.4-0.6-2.6-1.1-3.8-1.9c-0.9-0.6-1.7-0.8-2.7-1.2c-1.1-0.4-2-1.2-3.1-1.6c-1.6-0.5-2.2-0.9-3.4-2c-1.1-0.9-2.5-0.9-3.8-1.4
			c-1.4-0.5-2.3-1.7-3.7-2.2c-1.3-0.5-2.7-0.8-4-1.2c-3.1-1.1-5.9-1.9-9.2-2.4c-2.5-0.3-4.5-1.2-6.8-1.6c-3.9-0.8-7.5-2.2-11.4-2.9
			c-1.3-0.2-2.5-0.5-3.7-1c-0.9-0.4-1.9-0.9-2.9-1.1c-2.3-0.5-4.8-0.3-7.1-0.7c-3.2-0.4-6.2-1.3-9.4-1.5c-3.2-0.1-6.8,2.1-10,2.1
			c1-4.2-14.4,0.6-15.9,0.6c-2.8,0-5.1,0.6-7.9,1.2c-3.3,0.7-6.7,0.1-10.1,0.3c-2.8,0.2-6,1-8.5,2c-1.4,0.6-2.5,1.2-4,1.6
			c-1.2,0.3-2.4,0.6-3.6,1c-2.7,1-5.1,2.5-7.8,3.2c-3,0.8-6,2.2-8.7,3.8c-1.4,0.8-2.9,1.3-4.3,2c-2.2,1.1-4.2,3-6.2,4.4
			c-0.7,0.5-1.1,1-1.8,1.6c-1.2,1-2.8,2-4.1,2.9c-2.2,1.6-4.7,2.3-6.9,3.8c-2.7,1.7-5.6,3.1-8.3,4.7c-5.5,3.3-11,7.1-15,12.2
			c-0.9,1.2-2.1,2.2-3.2,3.3c-1.1,1.1-2.1,2.5-3.3,3.5c-1.9,1.7-3.6,3.7-5.2,5.7c-1.8,2.3-3.4,4.8-4.9,7.3
			c-2.1,3.5-4.4,6.7-6.2,10.3c-0.8,1.7-2,3.1-3.1,4.7c-1,1.3-1.4,2.8-2.2,4.2c-1.9,3.1-3.6,6.2-5.3,9.5c-0.7,1.5-1.6,2.6-2,4.2
			c-0.3,1.3-0.7,2.4-1.3,3.7c-1.4,3.2-2.5,6.4-3.6,9.6c-0.9,2.6-2,5.1-2.8,7.7c-0.7,2.2-1.2,4.3-2.1,6.5c-0.9,2.1-1.9,3.9-2.3,6.1
			c-0.3,1.9-0.7,3.8-1,5.7c-0.7,3.8-2,7.4-2.1,11.2c-0.1,4.6-0.3,9.3,0.1,13.9c0.4,4.1,1.2,8.2,1.7,12.3c0.6,4.7,1.6,9.1,2.4,13.8
			c0.3,2,0.5,4.1,0.9,6.1c0.4,2,1.3,3.8,2,5.7c0.7,1.9,1.2,3.8,1.5,5.7c0.5,3.2,1.2,5.9,2.3,8.9c3.4,9.1,5.6,18.6,9,27.7
			c0.7,1.9,1.2,3.8,2.2,5.6c1.1,2.1,2.4,4.1,3.5,6.1c2.7,4.9,6.6,8.9,10,13.3c2.8,3.6,6.3,6.7,9.7,9.6c3.2,2.7,5.9,5.9,9.2,8.5
			c1.5,1.1,3.1,2.2,4.6,3.2c1.8,1.2,3.8,1,5.7,1.8c1.5,0.6,2.5,1.6,4.2,1.8c1.5,0.2,2.9,0.3,4.3,0.7c2.3,0.6,4.1,2.1,6.3,2.9
			c2.4,0.9,4.7,1.5,6.7,3.3c0.5,0.1,2,0.2,2.4,0.6c0.9,0.8,2,1.3,3,1.7c0.9,0.3,1.6,0.7,2.4,1.1c1.1,0.5,2.3,0.5,3.4,0.8
			c2,0.7,3.8,1.2,5.4,2.7c1.2,1.2,1.8,2,3.4,2.7c1.4,0.5,2.5,0.9,3.6,2c1.5,1.4,3.5,1.7,5.2,2.9c1,0.7,2,1.3,3.1,1.7
			c1.7,0.6,2.8,1.7,4.2,2.7c2,1.4,4.4,2.4,6.8,2.7c1.2,0.2,2.4,0.4,3.7,0.5c0.9,0.1,1.7,0.5,2.6,0.5c1.3,0.1,2.8-0.3,4.1,0.1
			c0.7,0.2,1.4,0.7,2.1,0.8c1.4,0.3,2.9,0.1,4.2,0.1c2.5,0,5,0,7.4,0c4.7,0,9.1,0.2,13.7-0.8c2.8-0.6,5.8-0.3,8.6-0.6
			c3.9-0.4,7.7-0.7,11.6-0.7c2.2,0,4.4,0.2,6.5-0.3c1.7-0.4,3.4-1,5-1.5c1.4-0.4,2.8-0.7,4.2-1.4c0.7-0.3,1.4-0.9,2.2-1.1
			c1.8-0.4,4,0.2,5.8,0c1.9-0.2,3.9-0.6,5.8-1c2.3-0.5,4.8-0.7,7-1.4c3.4-1.1,6.2-3.5,9.5-4.9c3-1.3,5.9-3.1,8.7-4.9
			c3.1-1.9,6.4-3.4,9.6-5.1c3.4-1.8,6.9-3.4,10.2-5.4c3.2-1.9,5.4-5.2,7.7-8c2.6-3.1,5.1-6.4,7.5-9.6c1.3-1.7,2.5-3.3,3.9-4.8
			c1.8-1.9,3.8-3.5,5.4-5.6c2.4-2.9,4.4-6,6.7-9c2.3-3,5.4-5.6,7.2-8.8c1.9-3.3,4.3-6.3,6.2-9.5c1.4-2.4,2.6-5,3.9-7.5
			c0.7-1.3,1.4-2.4,2.2-3.5c1.4-2,1.6-4.7,2.2-6.9c1.9-7.1,4-14.1,6-21.2c1.2-4.2,2.2-8.4,3.2-12.7c1.5-6.1,2.1-12.7,2.9-18.9
			c0.6-5,1.6-10.3,1.6-15.3c0-2.3,0-4.7,0-7.1C589.5,1011.7,589,1009.5,589,1007.3z M446.8,941.6c4.9,2.2,9.7,4.6,14.7,6.7
			c3.2,1.3,6.4,2.9,9.6,4.2c2.6,1.1,5.3,1.8,7.7,3.2c2.5,1.4,4.4,3.6,6.6,5.3c1.6,1.2,3.1,2.3,4.4,3.7c3,3.3,6.5,6.5,8.9,10.3
			c1.4,2.2,3,3.8,4.8,5.7c1.4,1.4,3,2.6,4.3,4c1.9,2.1,2.7,4.9,3.7,7.5c0.8,2.1,1.5,4.3,1.8,6.6c0.3,2.4,0.1,4.8,0.2,7.1
			c0.1,2.7,0.6,5.2,0.3,8c-0.4,4.7,0.5,9.3,0,14c-0.2,2.1-0.8,4.1-1,6.3c-0.1,1.6-0.3,3.1-0.6,4.7c-0.6,3.4-1.5,6.7-2.3,10
			c-0.5,2.2-1.3,4.1-2.1,6.2c-0.9,2.6-0.6,5.4-1.4,8c-0.6,2.2-1.4,4.3-1.6,6.7c-0.1,2-0.4,2.8-1.5,4.5c-1.2,1.7-1.2,3.9-2.1,5.8
			c-0.7,1.4-2,2.1-3.2,3.1c-1.4,1.3-2.5,2.6-4.2,3.5c-1.4,0.9-2.5,1.6-3.6,2.9c-1.6,1.7-3.7,2.2-5.5,3.5c-1.6,1.1-2.5,2.8-3.9,4.1
			c-1.6,1.5-3.7,2.1-5.4,3.4c-1.5,1.2-2.5,2-4.4,2.6c-3.5,1.1-7.1,2.6-10.5,4.1c-2.4,1.1-4.7,2.3-7.2,3.3c-2.2,1-4.2,2.3-6.4,3.3
			c-3.3,1.4-6.9,1.7-10.4,2c-2.5,0.2-5.1,0.7-7.6,0.7c-5.1-0.1-9.9-0.6-14.7-2.1c-3.4-1.1-6.8-2.1-10.3-2.9c-2.7-0.6-5.5-1.1-8-2.2
			c-5.4-2.4-11-4.5-16.3-6.9c-2.9-1.3-5.4-2.6-8.1-4.4c-1.3-0.9-2.7-1.7-4.1-2.6c-3.7-2.3-6.8-5.8-9.5-9.1
			c-6.7-7.9-12.2-16.8-15.2-26.8c-1-3.4-2.8-6.9-3.3-10.4c-0.6-4.1-0.6-8.4-0.8-12.6c-0.1-3.4,0.3-6.8,0.2-10.2
			c-0.1-3-0.6-6.1-0.6-9.2c0-1.4,0-2.7,0.7-3.9c-2,0.9-2,1-2,1.1c-0.1-0.9,0.4-1.4,0.7-2.2c0.3-0.9,0.3-1.7,0.8-2.5
			c1.1-1.6,2.5-2.8,3.3-4.6c0.8-1.7,1-3,2.6-4.1c1.6-1.1,1.9-1.5,2.3-3.5c0.6-2.6,1.1-5,2.3-7.4c1.2-2.3,2.4-4.7,3.8-7
			c1.9-3,3.3-6.7,5.8-9.2c2.6-2.7,4.3-5.8,6.5-8.8c1.4-1.9,3-3.6,4.5-5.4c1.4-1.6,2.7-3.6,4.6-4.7c2-1.2,4.1-2.7,6.2-3.7
			c5.9-2.8,12.4-4.3,18.4-6.8c3.3-1.3,6.5-2.2,9.9-3.1c3.1-0.9,6.2-1.9,9.4-2.5C427.7,937.3,437.9,937.6,446.8,941.6z"/>
		<g>
			<path class="st3" d="M833.8,371.9c0,10.8,0.5,21.8,0.1,32.6c-0.2,7-0.8,13.6-0.8,20.5c-0.1,8,1,18.4-0.9,26.1
				c-2.5,1.5-7.4,1.1-7.4,1.1c-4.7-1.7-11.4-0.8-16.5-0.9c-10.7-0.3-19.4,0.6-31.2-0.4c-10.3-0.8-34.4-0.7-34.4-0.7
				s0.2-12.7,0.2-15.6c0-8.9-0.2-17.2,0.2-26.1c0.2-4.3-0.7-10.2,0-14.4c1.1-7.2,1.1-14.3,1-21.6c-0.2-14-0.6-28-0.6-41.5
				c0-19.1,0.8-38.2-1.8-57.2c-3.2-24.1-19.9-54-48-62.4c-5.3-1.6-9.3-3.5-14.9-3.7c-5.5-0.2-11.1,0.1-16.6,0
				c-11.4,0-23.7,0.9-33.9,6.1c-11.9,6-16.9,17.9-25.6,26.5c-8.7,8.6-15.9,18.1-21.7,28.3c-2.1,3.6-4.6,8.1-5.7,12.1
				c-2.4,8.3,0.1,18.1-0.4,26.6c-0.6,11.7-2.6,23.6-4.3,35.2c-1.4,9.3-0.5,18.9-0.5,28.3c0,9.3-0.1,18.7,0.1,28
				c0.1,8.9-2.4,17.3-2.5,26.1c-0.1,7.5-1.5,16.4,2.2,22.7c-4.8,1.5-10.4,0-15.2-0.6c-10.6-1.5-21.4-1.1-32.1-1
				c-5.1,0.1-8.8-1.3-13.8-2.1c-8.5-1.3-18.3-0.4-26.4-2.4c-1.2-6.1,0.5-12.5-0.4-18.6c-1.8-11.5-2.4-22.6-2.3-34.3
				c0.2-15.7,2.4-31.8,4.3-47.5c1.8-14,1.8-28.2,2.8-42.2c0.5-7.2,2.2-14.2,2.5-21.5c0.2-5.5,0.9-10.3,2.4-15.7
				c1.5-5.6,1.6-11.1,2.8-16.7c1.6-7.4,4.9-14.6,6.6-22c1.8-7.5,5.8-12.9,9.7-19.7c2.8-4.9,4.5-10.2,7.5-15.1
				c3.7-5.9,8.8-9.9,13.5-15.1c4.4-4.8,7.5-10.5,12.6-14.9c8.4-7.4,19.8-13.1,30.2-18.2c10.2-5,23.4-6.7,34.8-9.3
				c6.1-1.3,12.2-3.8,18.4-4.3c5.3-0.5,11.2,0.2,16.6,0.2c12.4,0,27-1.7,39.3,0.4c12.4,2.1,27.6,8.7,38.6,14.2
				c13.7,6.8,25.8,16.3,35.8,26.8c9.3,9.7,22.8,16.3,30.8,26.9c8.2,10.9,15,21.6,21.5,33.4c3.4,6.2,6.2,11.2,7.7,18
				c1.3,6.2,4.5,11.6,6.1,17.6c1.3,4.9,0,10,0.6,14.9c0.7,6,1.7,11.9,2.4,17.8C828.8,313.5,833.9,360.1,833.8,371.9z"/>
			<path class="st1" d="M574.7,318.3c0.5,3.6-1,6-1.8,9.4c-3,11.6-0.5,24.9-0.5,36.7c0,10.8,0.5,21.8,0.1,32.6
				c-0.2,7-2.4,13.5-2.5,20.4c-0.1,8,2,17.7,0.1,25.4c-0.9,3.6,0.4,4-4.2,3.6c0.6,0.1-2.3-1.6-2.5-1.6c-4.7-1.7-11.6-2-16.7-2.2
				c-10.7-0.3-21.1,1-31.1-1.5c-10.1-2.5-21,0.7-31.1-2c-4-1.1-6.1-0.7-7.3-4.6c-0.9-2.9,0.2-7.5,0.2-10.5c0-8.9-0.6-18-0.1-26.9
				c0.2-4.3,1.3-8,2-12.2c1.1-7.2-0.2-14.4,1-21.6c2.2-13.3,1.9-26.3,1.9-39.8c0-19.1,0.8-38.2-1.8-57.2c-3.2-24.1-19.9-54-48-62.4
				c-5.3-1.6-9.3-3.5-14.9-3.7c-5.5-0.2-11.1,0.1-16.6,0c-11.4,0-23.7,0.9-33.9,6.1c-11.9,6-25.9,5.3-34.6,14
				c-8.7,8.6-10.5,20.2-15.4,33.8c-1.4,3.9-2,15.2-3.1,19.1c-2.4,8.3-3,22-3.5,30.5c-0.6,11.7,0.5,19.8-1.2,31.4
				c-1.4,9.3-0.5,18.9-0.5,28.3c0,9.3-0.1,18.7,0.1,28c0.1,8.9-2.4,17.3-2.5,26.1c-0.1,7.5,2,15.9,2.2,22.7
				c-4.5,0.5-9.7,0.8-15.4,0.8c-11.4,0-19.6-0.1-30.3,0c-5.1,0.1-10.5,0-15.4-0.7c-8.5-1.3-18.3-0.4-26.4-2.4
				c-1.2-6.1,0.5-16.3-0.4-22.4c-1.8-11.5-2.4-22.6-2.3-34.3c0.2-15.7,2.4-31.8,4.3-47.5c1.8-14,1.8-28.2,2.8-42.2
				c0.5-7.2,2.2-14.2,2.5-21.5c0.2-5.5,0.9-10.3,2.4-15.7c1.5-5.6,1.6-11.1,2.8-16.7c1.6-7.4,4.9-14.6,6.6-22
				c1.8-7.5,5.8-12.9,9.7-19.7c2.8-4.9,4.5-10.2,7.5-15.1c3.7-5.9,8.8-9.9,13.5-15.1c4.4-4.8,7.5-10.5,12.6-14.9
				c8.4-7.4,19.8-13.1,30.2-18.2c10.2-5,23.4-6.7,34.8-9.3c6.1-1.3,12.2-3.8,18.4-4.3c5.3-0.5,11.2,0.2,16.6,0.2
				c12.4,0,27-1.7,39.3,0.4c12.4,2.1,27.6,8.7,38.6,14.2c13.7,6.8,25.8,16.3,35.8,26.8c9.3,9.7,22.8,16.3,30.8,26.9
				c8.2,10.9,15,21.6,21.5,33.4c3.4,6.2,6.2,11.2,7.7,18c1.3,6.2,4.5,11.6,6.1,17.6c1.3,4.9,0,10,0.6,14.9c0.7,6,1.7,11.9,2.4,17.8
				C567.3,305.9,572.3,322.5,574.7,318.3z"/>
			<path class="st1" d="M197.6,137.4c0.8,0.8,1.3,2,2,2.9c2.3,3.1,5,6.2,6.7,9.7c1.3,2.8,2.2,5.8,3.5,8.6c1.7,3.7,2.7,7.6,4.2,11.3
				c0.5,1.3,0.9,2.6,1.1,4c0.2,1.2,0.1,2.5,0.5,3.7c0.6,1.8,1.1,3.6,1.5,5.4c1.7,7.8,3.7,15.7,4.5,23.7c0.8,8.7,1.4,17.3,2.3,26
				c0.4,4.5,0.6,9,1,13.5c0.4,4.2,0.3,8.4,0.3,12.6c0,2.2,0.2,4.5,0,6.7c-0.1,1.5-0.5,2.8-0.4,4.3c0,1.1,0.1,2.2-0.1,3.3
				c-0.4,2.7-0.3,5.3-0.3,8c0,1.3,0.1,2.7-0.1,4c-0.1,0.7-0.6,1.9-0.3,2.7c0.6-0.1,1-0.3,1.6-0.4c1.1-0.1,2.3,0,3.4,0
				c7,0,13.8-0.4,20.8-0.9c3.6-0.3,7.1-0.5,10.7,0.1c3.9,0.6,7.9,0.8,11.9,0.7c2.5-0.1,4.9-0.5,7.3-0.8c1-0.1,2.1-0.3,3.1-0.3
				c1.8,0,3.4,0.5,5.2,0.4c3.1-0.3,6.2-0.4,9.3-0.3c1.2,0,1.6,0.4,2.6,0.7c0.8,0.3,1.9,0.3,2.8,0.5c0.7,0.1,1.6,0.2,2.3,0.4
				c0.6,0.1,1.1,0.5,1.7,0.7c0.3,0.1,1.7,0.3,1.9,0c0.3-0.4-0.3-1.3-0.4-1.7c-0.2-1.3,0.3-2.8,0.4-4.1c0.2-3.5,0-7.1,0-10.7
				c0-6.8,0-13.5,0-20.3c0-2.6,0-5.2,0-7.8c0-1.9-0.3-3.7-0.4-5.6c-0.4-6.5,0-13.2,0-19.8c0-3.3,0.1-6.5,0-9.8
				c0-2.3-0.5-4.6-0.4-6.9c0-3.5-0.1-7.2-0.5-10.7c-0.5-3.9-0.8-8-1.6-11.9c-0.4-2-1-3.8-1.3-5.9c-0.3-2.7-0.7-5.1-1.5-7.7
				c-1.5-4.9-2.9-9.9-4.9-14.6c-1.8-4.3-3.1-8.9-5.7-12.9c-1.3-2.1-2.7-4.1-4-6.2c-0.4-0.6-0.6-1.2-0.8-1.8
				c-0.4-1.2-0.1-2.7-0.6-3.9c-0.9,0.5-1.8,0.1-2.7-0.1c-3.2-0.4-6.5-0.8-9.8-1.1c-5.5-0.6-11.2-0.2-16.7-0.2
				c-2.9,0-5.8-0.2-8.7,0.1c-2.8,0.2-5.5,0.1-8.3,0.4c-5.7,0.5-11.4,0.3-17.2,0.7c-4.5,0.3-9-0.2-13.4,0c-1.6,0.1-3,0.6-4.5,0.8
				c-1.3,0.2-2.4,0.3-3.7,0.7c-2.3,0.8-4.6,1-7,1.4c-0.9,0.1-1.6,0.5-2.4,0.7c-0.8,0.2-1.6-0.2-2.5,0c0,0.5,0.5,0.8,0.8,1.2
				c0.4,0.5,0.6,1.1,0.9,1.6c1.1,1.7,2.9,2.6,4.3,4c0.3,0.3,0.5,0.7,0.8,1c0.4,0.3,0.9,0.3,1.2,0.6
				C198.9,138.7,199.6,139.5,197.6,137.4z"/>
		</g>
		<g>
			<path class="st4" d="M830.4,698.6c0.5,3.6-1,6-1.8,9.4c-3,11.6-0.5,24.9-0.5,36.7c0,10.8,0.5,21.8,0.1,32.6
				c-0.2,7-2.4,13.5-2.5,20.4c-0.1,8,2,17.7,0.1,25.4c-0.9,3.6,0.4,4-4.2,3.6c0.6,0.1-2.3-1.6-2.5-1.6c-4.7-1.7-11.6-2-16.7-2.2
				c-10.7-0.3-21.1,1-31.1-1.5c-10.1-2.5-21,0.7-31.1-2c-4-1.1-6.1-0.7-7.3-4.6c-0.9-2.9,0.2-7.5,0.2-10.5c0-8.9-0.6-18-0.1-26.9
				c0.2-4.3,1.3-8,2-12.2c1.1-7.2-0.2-14.4,1-21.6c2.2-13.3,1.9-26.3,1.9-39.8c0-19.1,0.8-38.2-1.8-57.2c-3.2-24.1-19.9-54-48-62.4
				c-5.3-1.6-9.3-3.5-14.9-3.7c-5.5-0.2-11.1,0.1-16.6,0c-11.4,0-23.7,0.9-33.9,6.1c-11.9,6-25.9,5.3-34.6,14
				c-8.7,8.6-10.5,20.2-15.4,33.8c-1.4,3.9-2,15.2-3.1,19.1c-2.4,8.3-3,22-3.5,30.5c-0.6,11.7,0.5,19.8-1.2,31.4
				c-1.4,9.3-0.5,18.9-0.5,28.3c0,9.3-0.1,18.7,0.1,28c0.1,8.9-2.4,17.3-2.5,26.1c-0.1,7.5,2,15.9,2.2,22.7
				c-4.5,0.5-9.7,0.8-15.4,0.8c-11.4,0-19.6-0.1-30.3,0c-5.1,0.1-10.5,0-15.4-0.7c-8.5-1.3-18.3-0.4-26.4-2.4
				c-1.2-6.1,0.5-16.3-0.4-22.4c-1.8-11.5-2.4-22.6-2.3-34.3c0.2-15.7,2.4-31.8,4.3-47.5c1.8-14,1.8-28.2,2.8-42.2
				c0.5-7.2,2.2-14.2,2.5-21.5c0.2-5.5,0.9-10.3,2.4-15.7c1.5-5.6,1.6-11.1,2.8-16.7c1.6-7.4,4.9-14.6,6.6-22
				c1.8-7.5,5.8-12.9,9.7-19.7c2.8-4.9,4.5-10.2,7.5-15.1c3.7-5.9,8.8-9.9,13.5-15.1c4.4-4.8,7.5-10.5,12.6-14.9
				c8.4-7.4,19.8-13.1,30.2-18.2c10.2-5,23.4-6.7,34.8-9.3c6.1-1.3,12.2-3.8,18.4-4.3c5.3-0.5,11.2,0.2,16.6,0.2
				c12.4,0,27-1.7,39.3,0.4c12.4,2.1,27.6,8.7,38.6,14.2c13.7,6.8,25.8,16.3,35.8,26.8c9.3,9.7,22.8,16.3,30.8,26.9
				c8.2,10.9,15,21.6,21.5,33.4c3.4,6.2,6.2,11.2,7.7,18c1.3,6.2,4.5,11.6,6.1,17.6c1.3,4.9,0,10,0.6,14.9c0.7,6,1.7,11.9,2.4,17.8
				C823,686.3,828.1,702.9,830.4,698.6z"/>
			<path class="st5" d="M1089.6,752.3c0,10.8,0.5,21.8,0.1,32.6c-0.2,7-0.8,13.6-0.8,20.5c-0.1,8,1,18.4-0.9,26.1
				c-2.5,1.5-7.4,1.1-7.4,1.1c-4.7-1.7-11.4-0.8-16.5-0.9c-10.7-0.3-19.4,0.6-31.2-0.4c-10.3-0.8-34.4-0.7-34.4-0.7
				s0.2-12.7,0.2-15.6c0-8.9-0.2-17.2,0.2-26.1c0.2-4.3-0.7-10.2,0-14.4c1.1-7.2,1.1-14.3,1-21.6c-0.2-14-0.6-28-0.6-41.5
				c0-19.1,0.8-38.2-1.8-57.2c-3.2-24.1-19.9-54-48-62.4c-5.3-1.6-9.3-3.5-14.9-3.7c-5.5-0.2-11.1,0.1-16.6,0
				c-11.4,0-23.7,0.9-33.9,6.1c-11.9,6-16.9,17.9-25.6,26.5c-8.7,8.6-15.9,18.1-21.7,28.3c-2.1,3.6-4.6,8.1-5.7,12.1
				c-2.4,8.3,0.1,18.1-0.4,26.6c-0.6,11.7-2.6,23.6-4.3,35.2c-1.4,9.3-0.5,18.9-0.5,28.3c0,9.3-0.1,18.7,0.1,28
				c0.1,8.9-2.4,17.3-2.5,26.1c-0.1,7.5-1.5,16.4,2.2,22.7c-4.8,1.5-10.4,0-15.2-0.6c-10.6-1.5-21.4-1.1-32.1-1
				c-5.1,0.1-8.8-1.3-13.8-2.1c-8.5-1.3-18.3-0.4-26.4-2.4c-1.2-6.1,0.5-12.5-0.4-18.6c-1.8-11.5-2.4-22.6-2.3-34.3
				c0.2-15.7,2.4-31.8,4.3-47.5c1.8-14,1.8-28.2,2.8-42.2c0.5-7.2,2.2-14.2,2.5-21.5c0.2-5.5,0.9-10.3,2.4-15.7
				c1.5-5.6,1.6-11.1,2.8-16.7c1.6-7.4,4.9-14.6,6.6-22c1.8-7.5,5.8-12.9,9.7-19.7c2.8-4.9,4.5-10.2,7.5-15.1
				c3.7-5.9,8.8-9.9,13.5-15.1c4.4-4.8,7.5-10.5,12.6-14.9c8.4-7.4,19.8-13.1,30.2-18.2c10.2-5,23.4-6.7,34.8-9.3
				c6.1-1.3,12.2-3.8,18.4-4.3c5.3-0.5,11.2,0.2,16.6,0.2c12.4,0,27-1.7,39.3,0.4c12.4,2.1,27.6,8.7,38.6,14.2
				c13.7,6.8,25.8,16.3,35.8,26.8c9.3,9.7,22.8,16.3,30.8,26.9c8.2,10.9,15,21.6,21.5,33.4c3.4,6.2,6.2,11.2,7.7,18
				c1.3,6.2,4.5,11.6,6.1,17.6c1.3,4.9,0,10,0.6,14.9c0.7,6,1.7,11.9,2.4,17.8C1084.6,693.9,1089.6,740.5,1089.6,752.3z"/>
			<path class="st4" d="M453.3,517.8c0.8,0.8,1.3,2,2,2.9c2.3,3.1,5,6.2,6.7,9.7c1.3,2.8,2.2,5.8,3.5,8.6c1.7,3.7,2.7,7.6,4.2,11.3
				c0.5,1.3,0.9,2.6,1.1,4c0.2,1.2,0.1,2.5,0.5,3.7c0.6,1.8,1.1,3.6,1.5,5.4c1.7,7.8,3.7,15.7,4.5,23.7c0.8,8.7,1.4,17.3,2.3,26
				c0.4,4.5,0.6,9,1,13.5c0.4,4.2,0.3,8.4,0.3,12.6c0,2.2,0.2,4.5,0,6.7c-0.1,1.5-0.5,2.8-0.4,4.3c0,1.1,0.1,2.2-0.1,3.3
				c-0.4,2.7-0.3,5.3-0.3,8c0,1.3,0.1,2.7-0.1,4c-0.1,0.7-0.6,1.9-0.3,2.7c0.6-0.1,1-0.3,1.6-0.4c1.1-0.1,2.3,0,3.4,0
				c7,0,13.8-0.4,20.8-0.9c3.6-0.3,7.1-0.5,10.7,0.1c3.9,0.6,7.9,0.8,11.9,0.7c2.5-0.1,4.9-0.5,7.3-0.8c1-0.1,2.1-0.3,3.1-0.3
				c1.8,0,3.4,0.5,5.2,0.4c3.1-0.3,6.2-0.4,9.3-0.3c1.2,0,1.6,0.4,2.6,0.7c0.8,0.3,1.9,0.3,2.8,0.5c0.7,0.1,1.6,0.2,2.3,0.4
				c0.6,0.1,1.1,0.5,1.7,0.7c0.3,0.1,1.7,0.3,1.9,0c0.3-0.4-0.3-1.3-0.4-1.7c-0.2-1.3,0.3-2.8,0.4-4.1c0.2-3.5,0-7.1,0-10.7
				c0-6.8,0-13.5,0-20.3c0-2.6,0-5.2,0-7.8c0-1.9-0.3-3.7-0.4-5.6c-0.4-6.5,0-13.2,0-19.8c0-3.3,0.1-6.5,0-9.8
				c0-2.3-0.5-4.6-0.4-6.9c0-3.5-0.1-7.2-0.5-10.7c-0.5-3.9-0.8-8-1.6-11.9c-0.4-2-1-3.8-1.3-5.9c-0.3-2.7-0.7-5.1-1.5-7.7
				c-1.5-4.9-2.9-9.9-4.9-14.6c-1.8-4.3-3.1-8.9-5.7-12.9c-1.3-2.1-2.7-4.1-4-6.2c-0.4-0.6-0.6-1.2-0.8-1.8
				c-0.4-1.2-0.1-2.7-0.6-3.9c-0.9,0.5-1.8,0.1-2.7-0.1c-3.2-0.4-6.5-0.8-9.8-1.1c-5.5-0.6-11.2-0.2-16.7-0.2
				c-2.9,0-5.8-0.2-8.7,0.1c-2.8,0.2-5.5,0.1-8.3,0.4c-5.7,0.5-11.4,0.3-17.2,0.7c-4.5,0.3-9-0.2-13.4,0c-1.6,0.1-3,0.6-4.5,0.8
				c-1.3,0.2-2.4,0.3-3.7,0.7c-2.3,0.8-4.6,1-7,1.4c-0.9,0.1-1.6,0.5-2.4,0.7c-0.8,0.2-1.6-0.2-2.5,0c0,0.5,0.5,0.8,0.8,1.2
				c0.4,0.5,0.6,1.1,0.9,1.6c1.1,1.7,2.9,2.6,4.3,4c0.3,0.3,0.5,0.7,0.8,1c0.4,0.3,0.9,0.3,1.2,0.6
				C454.7,519,455.3,519.9,453.3,517.8z"/>
		</g>
	</g>
	<text transform="matrix(4.489659e-11 -1 1 4.489659e-11 271.7614 604.9911)" class="st6 st7">maestro </text>
	<text transform="matrix(0 1 -1 0 1028.1862 418.5789)" class="st6 st7">mayor</text>
	<text transform="matrix(1 0 0 1 569.8424 1050.3114)" class="st6 st7">de obra</text>
	<g>
		<path class="st8" d="M877.2,1077.3c-22.2-1.2-37.9,1.9-60.9,3.2c-18.3,1-43.9-3.2-65.1,2.7c22.8,33.5,44.3,72.1,73.4,99.8
			c11.1-15,18.5-40.2,28.1-58.1c8.7-16.3,20.4-34.9,26-48.7"/>
	</g>
	<g>
		<path class="st9" d="M435,711.9c-15.9,0.5-27,3.7-43.3,6.1c-13,1.9-31.5,0.5-46.3,6c18.4,22.5,36.1,48.7,58.6,66.7
			c7-11.4,10.7-29.8,16.4-43.2c5.2-12.2,12.4-26.2,15.5-36.3"/>
	</g>
	<path class="st5" d="M210.8,656.6c-10.4,7.4-11,32.6-11.3,45.4c-0.3,13.4-3.2,24.4,0.7,38.2c4.6,16.3,10.8,36,22.9,48.5
		c12,12.2,30.4,18.3,45,26.9c14.3,8.3,27.2,18.3,40.8,27.3c-5-22,3.4-44.1,3.5-66c0.1-18-0.9-32.7-5.4-50.7
		c-3.3-13.2-8.2-23-16-34.3c-10.2-14.8-29.7-17.5-45.4-24.5c-7.9-3.5-14.3-5.7-22.4-7.4C217.5,658.7,213.5,658.3,210.8,656.6z"/>
	<path class="st5" d="M606.9,415.2c-14.1-52.7,26.9-86.2,61.3-115.7c1.4,10.8,8.2,20.6,11.7,30.5c4.1,11.6,6.5,23.5,7.4,35.9
		c2.1,30.3-18.3,46.8-43.5,61.5c-11.4,6.7-25.7,10.6-36.2,19.2C605.2,433.8,605.8,420.2,606.9,415.2z"/>
	<path class="st5" d="M261.4,880c-28.6,46.5-81.1,39.8-126.2,35.2c6.9-8.4,9.3-20.1,14.1-29.5c5.6-11,12.5-20.9,21-30.1
		c20.6-22.3,46.6-18.9,74.6-10.8c12.6,3.7,25.4,11.3,38.9,13.1C276.1,868.4,265.8,877.3,261.4,880z"/>
	<g>
		<path class="st3" d="M854.8,1026.6c8.8-6.5,18.5-11.6,27.6-18.2c7.1-5.1,31.6-18.8,33.2-27.9c2.3-13.8-36.7-54.6-43.3-68.7
			c-25.5,6.7-42.8,35.2-62.7,50.1c12.4,23.7,31.7,44.1,46.2,65.9"/>
	</g>
	<g>
		<g>
			<path class="st5" d="M402.8,247.2c9.1,14.8,17.1,28.2,29.2,40.9c4.6,4.9,29.8,26.7,23.2,7.3c-5.4-15.9-18.3-30.6-31.4-41.1
				c-3.9-3.1-7.6-7.5-12-9.8c-5.3-2.9-10.9-0.8-7.3,6.1"/>
		</g>
		<g>
			<path class="st5" d="M364.5,200.3c-8.2-15.3-15.3-29.1-26.5-42.7c-4.3-5.2-27.8-28.8-22.3-9.1c4.5,16.1,16.3,31.6,28.6,43.1
				c3.6,3.4,7.1,8,11.2,10.7c5,3.3,10.6,1.7,7.4-5.4"/>
		</g>
		<g>
			<path class="st5" d="M374.1,338.2c0.9-17.3,1.9-32.9-0.6-50.2c-1-6.7-9-39-14.4-19.3c-4.5,16.1-2.3,35.5,2.3,51.6
				c1.4,4.8,2,10.5,4.1,14.9c2.6,5.4,8.2,6.9,9.1-0.8"/>
		</g>
		<g>
			<path class="st5" d="M321.1,344.3c8.3-15.2,15.9-28.8,21.2-45.5c2-6.4,8.8-39-4.6-23.7c-11,12.6-17.5,31-20.3,47.5
				c-0.8,4.9-2.8,10.3-2.7,15.2c0,6,4.4,9.8,8.6,3.2"/>
		</g>
		<g>
			<path class="st5" d="M386.5,257.1c6.4,17.5,7.7,36.1,15.4,53.3c1.9,4.3,14.4,31.5,16.2,14.5c0.8-7.8-4.5-20.2-7.1-27.8
				c-2.7-8.2-5.5-15.6-9.4-22.9c-2.1-4-3.9-7.8-6.1-11.7c-1.3-2.2-7.3-11.4-7.5-3.6"/>
		</g>
		<g>
			<path class="st5" d="M464,169.9c-6.7,4.1-12.9,16.5-18.2,23c-5.4,6.7-10.3,13.6-15.2,20.6c-3.8,5.4-12.6,21.8,0.2,13.6
				c14.5-9.3,24.8-24.7,31.7-40.3c1.5-3.4,3.9-7.3,4.9-10.8c2.4-8.1-2-5.2-7.5-1.7"/>
		</g>
		<g>
			<path class="st5" d="M318.5,263.7c-7,2.6-14.6,13-20.6,18.2c-6.1,5.2-11.7,10.9-17.4,16.4c-4.4,4.3-15,18.1-1.6,12.9
				c15.2-5.9,27.2-18.5,35.9-31.9c1.9-2.9,4.7-6.1,6.2-9.3c3.4-7.2-1.2-5.3-7-3.1"/>
		</g>
		<g>
			<path class="st5" d="M404.9,156.9c-0.2,18.7-2.7,37.1-1,55.8c0.4,4,0.9,9.5,2.5,13.1c2.2,4.7,3.1,4.4,5.1,0.4
				c7.7-15.8,4.7-42.9,1.8-60.6c-0.4-2.8-1-8.2-2.3-10.5c-2.1-3.9-4.7-3-5,2.3"/>
		</g>
	</g>
	<g>
		<g>
			<path class="st4" d="M963.9,324.6c-0.7-17.3-1.2-32.9-5.5-50c-1.6-6.5-12.9-37.9-16.7-17.7c-3.1,16.5,1,35.6,7.3,51.2
				c1.9,4.6,3,10.2,5.7,14.4c3.2,5.1,9.1,6,9.3-1.8"/>
		</g>
		<g>
			<path class="st4" d="M978.1,253.3c7.6-15.6,14.6-29.5,19.1-46.5c1.7-6.5,7-39.4-5.7-23.4c-10.4,13.1-16,31.8-18.1,48.4
				c-0.6,4.9-2.3,10.4-2,15.3c0.3,6,4.9,9.6,8.7,2.9"/>
		</g>
		<g>
			<path class="st4" d="M1036.4,192.6c-10.4,9.7-19.9,18.3-27.7,30.2c-3,4.6-15.1,28.9,0.1,20.7c12.5-6.7,21.7-19.6,27.3-32.1
				c1.6-3.7,4.4-7.5,5.2-11.5c1-4.9-2.4-9.4-7.4-5.4"/>
		</g>
		<g>
			<path class="st4" d="M876.5,195.9c-14.2-4.2-26.9-8-41.8-9.6c-5.7-0.6-34.2-1.1-19,6.9c12.5,6.6,29,8.9,43.4,8.7
				c4.2-0.1,9.1,0.6,13.2-0.1c5-0.9,7.4-4.8,1.2-7"/>
		</g>
		<g>
			<path class="st4" d="M1035.7,255.5c11.9-9.9,26.6-15.5,37.8-26.6c2.8-2.8,20.3-20.6,5.7-18.2c-6.7,1.1-14.8,8.9-20.1,13
				c-5.6,4.4-10.7,8.7-15.2,14c-2.4,2.8-4.9,5.4-7.2,8.4c-1.3,1.7-6.6,9.4-0.1,7.7"/>
		</g>
		<g>
			<path class="st4" d="M835.9,223.6c-6.6,4.2-12.8,16.6-18,23.2c-5.3,6.7-10.2,13.7-15.1,20.7c-3.8,5.4-12.4,21.9,0.3,13.6
				c14.4-9.4,24.6-24.9,31.4-40.6c1.5-3.4,3.8-7.3,4.9-10.9c2.4-8.2-2-5.2-7.5-1.7"/>
		</g>
		<g>
			<path class="st4" d="M864.1,248.1c7.3,1.1,19.1-4.2,26.8-5.8c7.8-1.6,15.5-3.8,23.2-5.9c6-1.6,22-8.5,7.7-10.5
				c-16.1-2.2-32.7,2.9-46.9,10.3c-3.1,1.6-7.1,3-9.9,5.1c-6.5,4.6-1.5,5.2,4.6,6.1"/>
		</g>
		<g>
			<path class="st4" d="M926.7,244.4c-12.3,14-26.3,26.3-37.2,41.6c-2.3,3.3-5.6,7.8-6.6,11.6c-1.4,5-0.5,5.3,3.6,3.6
				c16.1-7,31.6-29.5,41-44.7c1.5-2.4,4.6-6.9,5.1-9.4c0.9-4.3-1.5-5.4-5.3-1.5"/>
		</g>
	</g>
</g>
</svg>
