<svg id="Camada_1" data-name="Camada 1" xmlns="http://www.w3.org/2000/svg" xmlns:xlink="http://www.w3.org/1999/xlink" viewBox="0 0 550 420"><defs><style>.cls-1{fill:none;}.cls-2{fill:#50a545;}.cls-3{fill:#e94941;}.cls-4{fill:#efcc3e;}.cls-5{fill:#b25aa7;}.cls-6{fill:#f49725;}.cls-7{fill:#83c8e8;}.cls-8{fill:#4b8ed2;}.cls-9{fill:#f1eee9;}.cls-10{clip-path:url(#clip-path);}</style><clipPath id="clip-path"><path class="cls-1" d="M396.8,214.72h-24a16.45,16.45,0,0,0-32.89,0H272.47v67.46a16.45,16.45,0,1,1,0,32.89v24A124.32,124.32,0,0,0,396.8,214.73Z"/></clipPath></defs><path id="Caminho_155" data-name="Caminho 155" class="cls-2" d="M439.17,363.57c1.39-6.89,2.82-13.86,5.87-20.18,2.51-5.19,8.72-16.69,9.26-17.25a5.3,5.3,0,0,1,1.48-1c10.61-5.33,33.92-15.58,34.77-15.65a7.91,7.91,0,0,1,2.56.33c11.81,2.92,36.78,14.35,36.78,14.35a26.64,26.64,0,0,1,1.73,2.47,153.42,153.42,0,0,1,8.73,20.24l5.93,15.83-.39,3.58c-3.73,12.45-8.83,21.16-14.55,32.83a3.16,3.16,0,0,1-2.12,1.95l-27.64,11.72c-3,1.26-7.23,1.71-10.19,3.7l-1.6-.39c-12.89-5.35-22.15-8.71-35-14.06,0,0-3.07-5.86-3.56-8.86a37.46,37.46,0,0,0-3-8.79C445.11,377.63,439.17,363.57,439.17,363.57Z"/><path id="Caminho_228" data-name="Caminho 228" class="cls-3" d="M62.17,172.47a40.42,40.42,0,0,1-9.07-4.27c-2.25-1.57-7.2-5.35-7.42-5.65a2.55,2.55,0,0,1-.35-.77c-1.71-5.39-4.8-17.13-4.77-17.54a4,4,0,0,1,.35-1.18c2.26-5.34,9.5-16.24,9.5-16.24a14.18,14.18,0,0,1,1.3-.63,72.68,72.68,0,0,1,10.18-2.6l7.9-1.61,1.65.45c5.58,2.69,9.3,5.74,14.37,9.31a1.49,1.49,0,0,1,.76,1.14L90,146.77c.37,1.5.27,3.53,1,5.07l-.3.73c-3.48,5.67-5.76,9.77-9.24,15.44A21,21,0,0,1,77,169a18,18,0,0,0-4.36.76C69.23,170.73,62.17,172.47,62.17,172.47Z"/><g id="Grupo_141" data-name="Grupo 141"><path id="Caminho_113" data-name="Caminho 113" class="cls-4" d="M444.46,4c-6.71,4.23-13.21,10.34-19.55,15.42-5,4-13.79,10.67-16.16,16.39,14.65,4.62,30.88,6.67,46,8.41-.39-6.46-4.31-15-5.87-21.93-1.42-6.33-2.5-13.89-4.2-18.86"/><path id="Caminho_114" data-name="Caminho 114" class="cls-4" d="M534.68,28.51c-7.11,3.53-10.49,9.63-17.3,14-5.43,3.5-14.81,9.22-17.75,14.66,14.1,6.09,27,8.62,41.83,11.89a63.91,63.91,0,0,0-3.27-20.94C536.12,41.65,534.68,28.51,534.68,28.51Z"/><path id="Caminho_115" data-name="Caminho 115" class="cls-2" d="M454.47,44.58c7.15,3.43,15.79,5.68,23.45,8.34,6.1,2.12,16.38,6,22.48,5-3.88-14.87-10.79-29.7-17.34-43.39-5.26,3.77-10.38,11.62-15.44,16.64-4.61,4.57-10.43,9.52-13.73,13.6"/><path id="Caminho_116" data-name="Caminho 116" class="cls-2" d="M476.79,121c6.19,3,11.62,2.16,18.25,4.46,5.28,1.83,15,6.37,21.52,7.05-3.36-12.87-9.35-25.7-15-37.56-4.55,3.27-9,10.06-13.37,14.41-4,4-9,8.24-11.88,11.77"/><path id="Caminho_117" data-name="Caminho 117" class="cls-5" d="M477.23,121.52c-.14,2.69.81,5.75,1.11,8.44a57.74,57.74,0,0,0,2.51,10.44c.91,3,1.71,6.18,2.75,9.12s1.57,6.51,2.95,9.17c3.24-1.76,5.63-5.55,8.76-7.68,2.78-1.88,5-4.41,7.72-6.39a87.1,87.1,0,0,0,13.85-12c-13.12-4.52-26.87-8.18-39.92-12.19,0,.3.15.08.38.06"/><path id="Caminho_118" data-name="Caminho 118" class="cls-6" d="M500.32,96c2.31,2.17,5.78,3.64,8.43,5.41A69.06,69.06,0,0,0,520.06,107c3.41,1.47,6.86,3.15,10.3,4.44s7,3.53,10.49,4.3c.87-4.26-.73-9.28-.26-13.71.41-3.93-.16-7.88.1-11.81.47-7,.73-14.62-.31-21.57-14,8.38-27.75,18-41.27,26.7.26.25.19-.08.36-.3"/><path id="Caminho_119" data-name="Caminho 119" class="cls-6" d="M378.89,62.67c2.62-1.17,5.06-3.55,7.47-5.14A63.55,63.55,0,0,0,395,50.08c2.42-2.34,5-4.63,7.31-7s5.42-4.65,7.27-7.25c-3.24-2.22-8-2.64-11.53-4.58-3.14-1.72-6.63-2.62-9.82-4.22a94,94,0,0,0-18.11-7.3c2.08,14.64,5.29,29.46,7.82,43.79.3-.13,0-.18-.12-.4"/><path id="Caminho_120" data-name="Caminho 120" class="cls-7" d="M454.84,45.71c1.8,5.79,1,14.48,1.3,21.17.27,6.41.27,12.67.66,19.12,3.1-1.39,7.61-6.06,10.81-8.11,3.61-2.32,6.77-5.14,10.51-7.34,3.39-2,6.86-4,10.25-6,3.18-1.84,6.63-5.12,10-6.19a1.28,1.28,0,0,0,0-.67c-4.1-1.37-8.5-1-12.71-2.41-4-1.34-8.15-2.51-12.11-3.94-5.66-2-14-3-18.52-7"/><path id="Caminho_121" data-name="Caminho 121" class="cls-7" d="M395.43,102.1c.23-5.83-4.12-12.59-6-18.06-1.33-3.83-3-7.6-4.42-11.43-1.52-4-4.48-7-5.94-10.92a1.32,1.32,0,0,1,.52-.39c2.9,1.88,7.51,2.42,10.86,3.63,3.58,1.31,7.26,2.61,10.85,3.9,4,1.42,8,2,12,3.28,3.51,1.1,9,4.67,12.78,3-4.66,4.28-9.42,8.15-14.13,12.3-4.92,4.33-16.43,14.65-16.43,14.65Z"/><path id="Caminho_122" data-name="Caminho 122" class="cls-3" d="M456.91,86c6.74-4.05,12.84-11.62,19.63-15.88,7.4-4.65,15.68-8,23-12.8.25,6.81,1.41,15.41,2.11,22.24.56,5.47.1,11,.34,16.57-3.72.6-10-2.12-13.73-3.22-4.55-1.35-9.2-2.81-13.84-3.81C468.66,87.88,456.91,86,456.91,86Z"/><path id="Caminho_123" data-name="Caminho 123" class="cls-3" d="M456.89,85.37c6.65,2,15.26,1.52,22.08,3.43,7.44,2.09,14.51,5.53,22,7.49-4.39,4.18-9.44,10-13.58,14.51-3.32,3.6-7.3,6.58-10.84,10-2.58-2.08-4.45-7.79-5.9-10.87-1.77-3.77-3.52-7.67-5.57-11.28C462.54,94.12,456.89,85.37,456.89,85.37Z"/><path id="Caminho_124" data-name="Caminho 124" class="cls-3" d="M395.36,102.43c-.9-5.27-3.94-15.64-6.44-20.53-3.13-6.12-7.31-13.72-10-20-5.12,7.15-9.61,11.26-16.07,17.38C357,84.81,353,88.21,348.16,94.43,348.16,94.43,392.11,104.33,395.36,102.43Z"/><path id="Caminho_125" data-name="Caminho 125" class="cls-8" d="M501.06,97c3.09-2.75,6.79-4.46,10.1-6.86,3.83-2.77,2.92-2,6.76-4.8,4.3-3.12,7.33-6.49,12-9.11,3-1.69,9-5,11.57-7.16-9.88-1.29-14.05-4.16-23.82-7.32a153.68,153.68,0,0,0-17.81-4.37S499.86,83.94,501.06,97Z"/><path id="Caminho_126" data-name="Caminho 126" class="cls-8" d="M378.92,61.88c4.07.78,7.68,2.66,11.6,3.82,4.53,1.34,3.38,1.08,7.93,2.42C403.55,69.63,408.06,70,413,72c3.16,1.33,9.4,4.07,12.74,4.8-5-8.61-5.29-13.67-8.75-23.34a155.56,155.56,0,0,0-7.41-16.77S388.56,52.94,378.92,61.88Z"/></g><g id="Grupo_145" data-name="Grupo 145"><path id="Caminho_128" data-name="Caminho 128" class="cls-4" d="M35.21,319.25c0,3.74-.53,7.45-.54,11.31,0,3-1.2,12.53,1,14.8,3.36,3.44,22.52.9,27.75,1.9,3.3-8.4-1.08-19-1.2-27.46-9.06-1.38-18.6-.13-27.57-.54"/><path id="Caminho_129" data-name="Caminho 129" class="cls-4" d="M91.8,319.25c0,3.74-.53,7.45-.54,11.31,0,3-1.2,12.53,1,14.8,3.36,3.44,22.52.9,27.75,1.9,3.3-8.4-1.08-19-1.2-27.46-9.06-1.38-18.6-.13-27.57-.54"/><path id="Caminho_130" data-name="Caminho 130" class="cls-6" d="M5.46,347.55c0,3.74-.53,7.45-.54,11.3,0,3-1.2,12.54,1,14.81,3.36,3.44,22.52.89,27.75,1.9,3.3-8.4-1.08-19-1.2-27.47-9.06-1.37-18.6-.13-27.57-.54"/><path id="Caminho_131" data-name="Caminho 131" class="cls-5" d="M91.8,347.55c0,3.74-.53,7.45-.54,11.3,0,3-1.2,12.54,1,14.81,3.36,3.44,22.52.89,27.75,1.9,3.3-8.4-1.08-19-1.2-27.47-9.06-1.37-18.6-.13-27.57-.54"/><path id="Caminho_132" data-name="Caminho 132" class="cls-6" d="M64.23,291c0,3.74-.53,7.46-.54,11.31,0,3-1.2,12.54,1,14.81,3.36,3.44,22.52.89,27.76,1.89,3.29-8.4-1.09-18.95-1.21-27.46-9.05-1.37-18.6-.13-27.57-.54"/><path id="Caminho_133" data-name="Caminho 133" class="cls-8" d="M93.2,318.9c-3.74,0-7.45-.53-11.31-.54-3,0-12.53-1.21-14.81,1-3.43,3.36-.89,22.52-1.89,27.76,8.4,3.29,19-1.09,27.46-1.21,1.37-9.05.13-18.6.54-27.57"/><path id="Caminho_134" data-name="Caminho 134" class="cls-3" d="M61.27,376.22c-3.74,0-7.45-.53-11.31-.55-3,0-12.53-1.2-14.8,1-3.44,3.36-.89,22.52-1.9,27.76,8.4,3.29,19-1.09,27.47-1.21,1.37-9.05.13-18.6.54-27.57"/><path id="Caminho_135" data-name="Caminho 135" class="cls-2" d="M35,376.05c3.74-.11,7.46.33,11.32.24,3-.07,12.56.86,14.77-1.42,3.35-3.45.29-22.53,1.15-27.79C53.72,344,43.28,348.67,34.78,349c-1.13,9.09.36,18.6.19,27.57"/></g><g id="Grupo_352" data-name="Grupo 352"><circle id="Elipse_18" data-name="Elipse 18" class="cls-9" cx="271.86" cy="214.1" r="157.35"/><g id="Grupo_113" data-name="Grupo 113"><g id="Grupo_25" data-name="Grupo 25"><path id="Caminho_8" data-name="Caminho 8" class="cls-2" d="M272.48,90.4v24a16.45,16.45,0,1,0,0,32.89v67.46h67.46a16.45,16.45,0,0,1,32.89,0h24A124.32,124.32,0,0,0,272.48,90.4Z"/></g><g id="Grupo_26" data-name="Grupo 26"><path id="Caminho_9" data-name="Caminho 9" class="cls-2" d="M272.66,338.86v-24a16.44,16.44,0,1,0,.26-32.88h-.26V214.54H205.2a16.44,16.44,0,0,1-32.88,0h-24A124.32,124.32,0,0,0,272.66,338.86Z"/></g><g id="Grupo_27" data-name="Grupo 27"><path id="Caminho_10" data-name="Caminho 10" d="M272.48,374.12a159.41,159.41,0,1,1,112.71-46.69A159.4,159.4,0,0,1,272.48,374.12Zm0-313.94a154.56,154.56,0,1,0,109.27,45.27A154.54,154.54,0,0,0,272.48,60.18Z"/></g><g id="Grupo_28" data-name="Grupo 28"><path id="Caminho_11" data-name="Caminho 11" d="M399.23,217.16H370.4v-2.43a14,14,0,1,0-28,0v2.43H270.05V149.54a18.88,18.88,0,0,1,0-37.44V88h2.43A126.89,126.89,0,0,1,399.23,214.72ZM375.1,212.3h19.24A122,122,0,0,0,274.91,92.86V116.8h-2.43a14,14,0,1,0,0,28h2.43v67.46h62.75a18.88,18.88,0,0,1,37.44,0Z"/></g><g id="Grupo_29" data-name="Grupo 29"><path id="Caminho_12" data-name="Caminho 12" d="M188.58,233.6a18.91,18.91,0,0,1-18.72-16.45H145.73v-2.43A126.89,126.89,0,0,1,272.48,88h2.43V116.8h-2.43a14,14,0,1,0,0,28h2.43v72.32H207.29A18.9,18.9,0,0,1,188.58,233.6Zm-38-21.31h23.95v2.43a14,14,0,1,0,28,.24v-2.67h67.46V149.54a18.88,18.88,0,0,1,0-37.44V92.86A122,122,0,0,0,150.61,212.29Z"/></g><g id="Grupo_30" data-name="Grupo 30"><path id="Caminho_13" data-name="Caminho 13" d="M274.91,341.47h-2.43A126.89,126.89,0,0,1,145.73,214.72v-2.43h28.83v2.43a14,14,0,0,0,28,0v-2.43H274.9v67.62a18.87,18.87,0,0,1,0,37.43ZM150.61,217.15A122.06,122.06,0,0,0,270.05,336.59V312.64h2.43a14,14,0,0,0,0-28h-2.43V217.15H207.29a18.87,18.87,0,0,1-37.43,0Z"/></g><path id="Caminho_14" data-name="Caminho 14" d="M272.67,163.33v-4.11h-82.8v-13.5H263v-4.11H248.72V128.2h9.37v-4.11H228.91v-13.5h43.57v-4.11H248.73V93.82h-4.12v12.66H207.45v4.11h17.36v13.5H185.58v4.11h17.75v13.41H169.89v4.11h15.87v13.5H162.41v2.25h-.18v15.27h-7.66v4.11h31.2v13.5H149.71v4.11h12.52v13.46H149.71V216h36.06V231h4.11V216h82.79v-4.11H207.45V198.46h65.22v-4.11H189.88v-13.5h82.79v-4.11h-24V163.33ZM207.45,128.2h37.16v13.41H207.45Zm-4.11,83.72h-37V198.46h37Zm-37-48.59h37v13.41h-37Zm78.27,13.41H207.45V163.33h37.16Z"/><g id="Grupo_40" data-name="Grupo 40"><g class="cls-10"><g id="Grupo_39" data-name="Grupo 39"><g id="Grupo_38" data-name="Grupo 38"><g id="Grupo_31" data-name="Grupo 31"><rect id="Retângulo_18" data-name="Retângulo 18" class="cls-6" x="270.05" y="229.6" width="128.79" height="18.27"/></g><g id="Grupo_32" data-name="Grupo 32"><rect id="Retângulo_19" data-name="Retângulo 19" class="cls-3" x="270.2" y="193.61" width="128.79" height="36.21"/></g><g id="Grupo_33" data-name="Grupo 33"><rect id="Retângulo_20" data-name="Retângulo 20" class="cls-4" x="270.2" y="247.66" width="128.79" height="18.27"/></g><g id="Grupo_34" data-name="Grupo 34"><rect id="Retângulo_21" data-name="Retângulo 21" class="cls-2" x="270.2" y="265.92" width="128.79" height="18.27"/></g><g id="Grupo_35" data-name="Grupo 35"><rect id="Retângulo_22" data-name="Retângulo 22" class="cls-7" x="270.2" y="284.19" width="128.79" height="18.27"/></g><g id="Grupo_36" data-name="Grupo 36"><rect id="Retângulo_23" data-name="Retângulo 23" class="cls-8" x="270.2" y="302.46" width="128.79" height="18.27"/></g><g id="Grupo_37" data-name="Grupo 37"><rect id="Retângulo_24" data-name="Retângulo 24" class="cls-5" x="270.2" y="320.72" width="128.79" height="18.27"/></g></g></g></g></g><g id="Grupo_41" data-name="Grupo 41"><path id="Caminho_16" data-name="Caminho 16" d="M272.48,341.47h-2.43V312.64h2.43a14,14,0,0,0,0-28h-2.43V212.3h67.61a18.88,18.88,0,0,1,37.44,0h24.12v2.43A126.89,126.89,0,0,1,272.48,341.47Zm2.43-24.12v19.24A122,122,0,0,0,394.34,217.15H370.4v-2.43a14,14,0,0,0-28,0v2.43H274.91v62.76a18.87,18.87,0,0,1,0,37.43Z"/></g><g id="Grupo_45" data-name="Grupo 45"><g id="Grupo_42" data-name="Grupo 42"><path id="Caminho_17" data-name="Caminho 17" class="cls-9" d="M338,133.64s-57.74-13.38-76.48,58.13c0,0-11.24-6.67-6.5-29.83,3.44-16.82-13-24.09-24.09-18.74a15.79,15.79,0,0,1-18.35-3s13.76,14.14,9.94,29.44c-3.55,14.22-11.85,48.56,9.94,68.83s42.51,12.39,53.15,9.17c7.61-2.3,12.89-3.39,18.36-.76,9.56,4.59,4.2,14.15,14.15,26.38a99.3,99.3,0,0,1,34.79-45.12s-8.82-6.23-31.74-1.14c-17.2,3.82-22.18-3.83-27.72-11.09C293.46,215.86,348.33,193.68,338,133.64Z"/></g><g id="Grupo_43" data-name="Grupo 43"><path id="Caminho_18" data-name="Caminho 18" d="M316.2,274.78c-5.09-6.26-6.45-11.88-7.55-16.39s-1.8-7.42-5.75-9.32c-4.46-2.14-8.89-1.42-16.56.9l-1.69.52c-11.23,3.48-32.13,9.95-53.87-10.26-23.1-21.48-14.06-57.63-10.66-71.25,3.23-12.93-7.66-25.32-9.15-26.93l-.22-.24,3.62-3.41.13.14A13.25,13.25,0,0,0,229.86,141a20.71,20.71,0,0,1,21.3,2.17c5.62,4.38,7.92,11.41,6.31,19.3-2.84,13.85.28,21.19,2.8,24.63,6-20.28,18.78-44.55,45.74-53.54a65.22,65.22,0,0,1,32.56-2.3l1.89,2c5.51,32-7.32,53.43-19,65.75a88.84,88.84,0,0,1-24.09,17.84c4.69,6.05,9.55,10.76,23.32,7.7,23.72-5.27,33.32,1.27,33.72,1.54v4.06A97.43,97.43,0,0,0,320.49,274Zm-19-32a17.68,17.68,0,0,1,7.89,1.77c6.08,2.91,7.21,7.63,8.43,12.63a36,36,0,0,0,4,10.79,102.91,102.91,0,0,1,30.43-39.31c-4.28-1.22-12.63-2.35-26.2.67-18.09,4-24.2-4-29.59-11.15l-.65-.86,1.05-3.82a82,82,0,0,0,25.4-18.13c15.45-16.3,21.47-36.36,17.9-59.64a62.48,62.48,0,0,0-28.47,2.55c-21.3,7.19-35.91,25.38-43.43,54.07l-3.67,1.51c-.52-.31-12.7-7.85-7.67-32.46,1.24-6.05-.35-11.16-4.49-14.38A15.84,15.84,0,0,0,232,145.44a18.2,18.2,0,0,1-11.31,1.67c.16.27.31.55.46.83,4.18,7.69,5.48,15.38,3.77,22.25-3.21,12.83-11.73,46.92,9.22,66.4,19.63,18.25,38,12.56,49,9.15l1.73-.53c4.41-1.33,8.39-2.39,12.25-2.39Z"/></g><g id="Grupo_44" data-name="Grupo 44"><circle id="Elipse_13" data-name="Elipse 13" cx="238.78" cy="152.57" r="4.01"/><path id="Caminho_19" data-name="Caminho 19" d="M238.78,156.78a4.21,4.21,0,1,1,4.21-4.21A4.2,4.2,0,0,1,238.78,156.78Zm0-8a3.83,3.83,0,1,0,3.83,3.82h0A3.83,3.83,0,0,0,238.78,148.75Z"/></g></g><g id="Grupo_62" data-name="Grupo 62"><g id="Grupo_46" data-name="Grupo 46"><path id="Caminho_20" data-name="Caminho 20" d="M180,99.7l8.87,10.81-3,2.47L177,102.16Z"/></g><g id="Grupo_47" data-name="Grupo 47"><path id="Caminho_21" data-name="Caminho 21" d="M200.89,101.84l-3.19,2.22L189,100.6l4.46,6.4-3.19,2.23-8-11.45,3.19-2.23,8.74,3.54-4.53-6.48,3.19-2.22Z"/></g><g id="Grupo_48" data-name="Grupo 48"><path id="Caminho_22" data-name="Caminho 22" d="M210.13,94.45a4.11,4.11,0,0,1-.78,2.16,6.36,6.36,0,0,1-2.13,1.83,6.58,6.58,0,0,1-4.06.93A4.27,4.27,0,0,1,200,97.31l3.61-2a1.54,1.54,0,0,0,.93.73,1.4,1.4,0,0,0,1-.16,1.19,1.19,0,0,0,.57-.62.91.91,0,0,0-.11-.77,1.08,1.08,0,0,0-1-.58,9.9,9.9,0,0,0-2,.23,20.48,20.48,0,0,1-2.34.29,4,4,0,0,1-1.93-.42,4,4,0,0,1-1.23-6.07,6.84,6.84,0,0,1,2.07-1.71,6,6,0,0,1,3.91-.89,4.22,4.22,0,0,1,2.93,2l-3.64,2a1.52,1.52,0,0,0-.83-.64,1.15,1.15,0,0,0-.9.14,1,1,0,0,0-.51.55.94.94,0,0,0,.13.75,1,1,0,0,0,.94.53,10.25,10.25,0,0,0,1.91-.21,18.7,18.7,0,0,1,2.36-.25,4.41,4.41,0,0,1,2,.43,3.73,3.73,0,0,1,1.65,1.66A3.93,3.93,0,0,1,210.13,94.45Z"/></g><g id="Grupo_49" data-name="Grupo 49"><path id="Caminho_23" data-name="Caminho 23" d="M216.7,78.15,218,81l-3.45,1.55L219,92.45,215.48,94,211,84.12l-3.4,1.53-1.27-2.83Z"/></g><g id="Grupo_50" data-name="Grupo 50"><path id="Caminho_24" data-name="Caminho 24" d="M222.25,76.13l4.87,13.12-3.65,1.35L218.6,77.49Z"/></g><g id="Grupo_51" data-name="Grupo 51"><path id="Caminho_25" data-name="Caminho 25" d="M234.93,72.08l.91,3-3.62,1.1,3.17,10.42-3.7,1.13-3.17-10.42L225,78.36l-.91-3Z"/></g><g id="Grupo_52" data-name="Grupo 52"><path id="Caminho_26" data-name="Caminho 26" d="M240.85,70.74l1.6,7.82a2.82,2.82,0,0,0,.88,1.69,2,2,0,0,0,1.69.31,2,2,0,0,0,1.44-1,2.74,2.74,0,0,0,.17-1.89L245,69.89l3.8-.78,1.6,7.82a6.62,6.62,0,0,1-.11,3.45,5.16,5.16,0,0,1-1.72,2.48,6.8,6.8,0,0,1-2.92,1.32,6.58,6.58,0,0,1-3.15-.07,4.9,4.9,0,0,1-2.46-1.61,7.13,7.13,0,0,1-1.41-3.16l-1.6-7.82Z"/></g><g id="Grupo_53" data-name="Grupo 53"><path id="Caminho_27" data-name="Caminho 27" d="M262.34,67.56l.33,3.09-3.75.4,1.17,10.83-3.85.41-1.17-10.82-3.71.4L251,68.78Z"/></g><g id="Grupo_54" data-name="Grupo 54"><path id="Caminho_28" data-name="Caminho 28" d="M275,68a6.63,6.63,0,0,1,2.58,2.54,7.7,7.7,0,0,1,0,7.39,6.68,6.68,0,0,1-2.56,2.58,7.47,7.47,0,0,1-7.18,0A6.66,6.66,0,0,1,265.31,78a7.67,7.67,0,0,1-.05-7.39,6.82,6.82,0,0,1,2.57-2.57A7.53,7.53,0,0,1,275,68Zm-5.92,3.67a4.43,4.43,0,0,0,0,5.21,3.27,3.27,0,0,0,4.62,0l0,0a3.76,3.76,0,0,0,.83-2.6,3.8,3.8,0,0,0-.85-2.61,2.92,2.92,0,0,0-2.34-.94,3,3,0,0,0-2.32,1Z"/></g><g id="Grupo_55" data-name="Grupo 55"><path id="Caminho_29" data-name="Caminho 29" d="M295.72,69.07l-.37,3.07-3.75-.45L290.3,82.5,286.46,82l1.3-10.82-3.71-.44.37-3.08Z"/></g><g id="Grupo_56" data-name="Grupo 56"><path id="Caminho_30" data-name="Caminho 30" d="M301,73.29l-.46,2.26,4.43.91-.59,2.88-4.43-.9-.51,2.47,5,1-.62,3L295,83.17l2.81-13.7,8.83,1.8-.62,3Zm4.42-4.67-5.23.93.52-2.56,5.29-1.2Z"/></g><g id="Grupo_57" data-name="Grupo 57"><path id="Caminho_31" data-name="Caminho 31" d="M318.47,75.19a5.92,5.92,0,0,1,1.65,2.47,7,7,0,0,1,.34,3l-3.92-1.19a2.75,2.75,0,0,0-.62-1.55,3,3,0,0,0-1.44-.92,2.53,2.53,0,0,0-2.26.32,3.85,3.85,0,0,0-1.5,2.22,3.92,3.92,0,0,0,0,2.68,2.51,2.51,0,0,0,1.7,1.53,2.93,2.93,0,0,0,1.71,0,2.87,2.87,0,0,0,1.38-1l3.91,1.19a6.46,6.46,0,0,1-3.28,3.09,6.84,6.84,0,0,1-4.7.08,7.08,7.08,0,0,1-3.21-1.91,6.1,6.1,0,0,1-1.56-3.11,8.56,8.56,0,0,1,2.15-7.07,6.07,6.07,0,0,1,3-1.71,7.16,7.16,0,0,1,3.73.19A7.6,7.6,0,0,1,318.47,75.19Z"/></g><g id="Grupo_58" data-name="Grupo 58"><path id="Caminho_32" data-name="Caminho 32" d="M331.08,94.66l-3.58-1.53-1.66-9.19-3.06,7.17-3.58-1.52,5.48-12.85,3.58,1.53,1.62,9.28L333,80.28l3.58,1.53Z"/></g><g id="Grupo_59" data-name="Grupo 59"><path id="Caminho_33" data-name="Caminho 33" d="M342.64,85l-6.46,12.41-3.45-1.81,6.46-12.4Z"/></g><g id="Grupo_60" data-name="Grupo 60"><path id="Caminho_34" data-name="Caminho 34" d="M353.23,91.88a5.92,5.92,0,0,1,1,2.81,7.11,7.11,0,0,1-.46,3l-3.48-2.16a2.68,2.68,0,0,0-.21-1.65,3,3,0,0,0-1.15-1.26,2.55,2.55,0,0,0-2.26-.28,4.55,4.55,0,0,0-2.71,4.36,2.52,2.52,0,0,0,1.25,1.91,2.9,2.9,0,0,0,1.64.47,2.78,2.78,0,0,0,1.58-.56l3.48,2.16a6.48,6.48,0,0,1-4,2.13,6.8,6.8,0,0,1-4.57-1.13,7,7,0,0,1-2.6-2.67,6.11,6.11,0,0,1-.7-3.41,8.52,8.52,0,0,1,3.9-6.27,6,6,0,0,1,3.36-.88,7.15,7.15,0,0,1,3.55,1.15A7.42,7.42,0,0,1,353.23,91.88Z"/></g><g id="Grupo_61" data-name="Grupo 61"><path id="Caminho_35" data-name="Caminho 35" d="M366.58,101.92a6.78,6.78,0,0,1,.44,3.59,7.73,7.73,0,0,1-4.58,5.81,6.84,6.84,0,0,1-3.61.41,7.47,7.47,0,0,1-5.64-4.44,6.66,6.66,0,0,1-.45-3.61,7.68,7.68,0,0,1,4.57-5.81,6.84,6.84,0,0,1,3.61-.41,7.54,7.54,0,0,1,5.66,4.46Zm-6.92-.82a4.42,4.42,0,0,0-3.21,4.1,3.25,3.25,0,0,0,3.61,2.87h0a4.44,4.44,0,0,0,3.22-4.09,3.31,3.31,0,0,0-3.66-2.88Z"/></g></g><g id="Grupo_102" data-name="Grupo 102"><g id="Grupo_63" data-name="Grupo 63"><path id="Caminho_36" data-name="Caminho 36" d="M139.93,194.74l-13.62-2.93.81-3.77,7.73,1.66-7.19-4.19.7-3.26,8.28-.87-7.73-1.67.82-3.8,13.62,2.93-1,4.65L132.78,185l8.14,5.17Z"/></g><g id="Grupo_64" data-name="Grupo 64"><path id="Caminho_37" data-name="Caminho 37" d="M127.44,204l.46-4.93-2.26-1L126,194l13.4,6.37-.41,4.47-14.33,3.81.37-4.1Zm3-.69,4.67-1.08-4.39-1.93Z"/></g><g id="Grupo_65" data-name="Grupo 65"><path id="Caminho_38" data-name="Caminho 38" d="M135.62,214.49h-2.31V219h-2.95v-4.53h-2.53v5.12h-3.1v-9l14,0v9h-3.1Z"/></g><g id="Grupo_66" data-name="Grupo 66"><path id="Caminho_39" data-name="Caminho 39" d="M127.56,231.77a4.1,4.1,0,0,1-1.64-1.61,6.24,6.24,0,0,1-.78-2.69,6.5,6.5,0,0,1,.83-4.09,4.26,4.26,0,0,1,3.16-2l.35,4.12a1.58,1.58,0,0,0-1,.54,1.43,1.43,0,0,0-.27,1,1.12,1.12,0,0,0,.32.77.9.9,0,0,0,.75.23,1.1,1.1,0,0,0,.93-.65,9.79,9.79,0,0,0,.6-1.88,17.79,17.79,0,0,1,.71-2.25,4,4,0,0,1,1.17-1.58,3.95,3.95,0,0,1,6,1.38,6.94,6.94,0,0,1,.7,2.6,6,6,0,0,1-.81,3.93,4.28,4.28,0,0,1-3,1.83l-.35-4.16a1.61,1.61,0,0,0,.94-.48,1.21,1.21,0,0,0,.24-.88,1,1,0,0,0-.3-.69.92.92,0,0,0-.73-.2,1,1,0,0,0-.88.64,11.41,11.41,0,0,0-.6,1.82,16.71,16.71,0,0,1-.74,2.27,4.28,4.28,0,0,1-1.19,1.6,3.77,3.77,0,0,1-2.19.82A3.94,3.94,0,0,1,127.56,231.77Z"/></g><g id="Grupo_67" data-name="Grupo 67"><path id="Caminho_40" data-name="Caminho 40" d="M141.6,243l-3.06.52-.64-3.72-10.73,1.84-.65-3.82L137.25,236l-.63-3.68,3.06-.53Z"/></g><g id="Grupo_68" data-name="Grupo 68"><path id="Caminho_41" data-name="Caminho 41" d="M130.07,254.2l4.27-4-.11-.38-5,1.31-1-3.76,13.53-3.56,1.56,5.94a6.33,6.33,0,0,1,.17,2.9,4.11,4.11,0,0,1-1.11,2.13,4.56,4.56,0,0,1-2.09,1.16,4.12,4.12,0,0,1-2.66-.13,4.33,4.33,0,0,1-2-1.87l-4.45,4.46Zm6.69-5.09.49,1.85c.27,1,.88,1.45,1.82,1.2a1.46,1.46,0,0,0,1-.67,1.65,1.65,0,0,0,.07-1.27l-.49-1.86Z"/></g><g id="Grupo_69" data-name="Grupo 69"><path id="Caminho_42" data-name="Caminho 42" d="M147.93,265.65a6.72,6.72,0,0,1-1.49,3.3,7.71,7.71,0,0,1-6.92,2.59,6.74,6.74,0,0,1-3.31-1.51,7.49,7.49,0,0,1-2.52-6.73,6.73,6.73,0,0,1,1.48-3.32,7.69,7.69,0,0,1,6.92-2.6,6.82,6.82,0,0,1,3.31,1.53,7.52,7.52,0,0,1,2.53,6.74Zm-5.49-4.28a4.41,4.41,0,0,0-4.88,1.83,3.26,3.26,0,0,0,1.6,4.33l0,0a3.76,3.76,0,0,0,2.72-.12,3.82,3.82,0,0,0,2.16-1.7,3.3,3.3,0,0,0-1.64-4.36Z"/></g><g id="Grupo_70" data-name="Grupo 70"><path id="Caminho_43" data-name="Caminho 43" d="M145.73,286.24l-2.35-4.37-2.42.43L139,278.69l14.69-2.1,2.13,4L146,291.63,144.05,288Zm2.12-2.24,3.29-3.48-4.73.82Z"/></g><g id="Grupo_71" data-name="Grupo 71"><path id="Caminho_44" data-name="Caminho 44" d="M151.72,294.84l2.4,3.64-2.46,1.62-4.54-6.89,11.68-7.7,2.14,3.25Z"/></g><g id="Grupo_72" data-name="Grupo 72"><path id="Caminho_45" data-name="Caminho 45" d="M169.77,300.79l-2.45,1.9-3.44-4.44-2,1.52,2.57,3.31-2.32,1.79-2.56-3.31-4.33,3.35-2.38-3.08L164,293.27Z"/></g><g id="Grupo_73" data-name="Grupo 73"><path id="Caminho_46" data-name="Caminho 46" d="M165,316.39l1.87-5.58-.26-.29-3.79,3.5-2.64-2.86,10.28-9.48,4.17,4.51a6.34,6.34,0,0,1,1.5,2.5,4.06,4.06,0,0,1,0,2.39,4.61,4.61,0,0,1-1.3,2,4.11,4.11,0,0,1-2.41,1.13,4.3,4.3,0,0,1-2.7-.69l-1.84,6Zm3.52-7.64,1.3,1.41a1.38,1.38,0,0,0,1.89.44,1.61,1.61,0,0,0,.29-.24,1.47,1.47,0,0,0,.53-1,1.7,1.7,0,0,0-.53-1.17l-1.3-1.41Z"/></g><g id="Grupo_74" data-name="Grupo 74"><path id="Caminho_47" data-name="Caminho 47" d="M179.8,315.66l-1.56,1.7,3.34,3.05-2,2.18-3.34-3-1.7,1.86,3.77,3.46-2.09,2.29-6.65-6.08L179,310.74l6.65,6.08-2.09,2.29Z"/></g><g id="Grupo_75" data-name="Grupo 75"><path id="Caminho_48" data-name="Caminho 48" d="M189.76,333.36a6.26,6.26,0,0,1-3.52.46,7.7,7.7,0,0,1-3.62-1.6l-4.44-3.36,8.45-11.15,4.44,3.36a8.13,8.13,0,0,1,2.54,3,6.06,6.06,0,0,1,.53,3.48,7.83,7.83,0,0,1-4.38,5.77Zm-2.61-3.23a4,4,0,0,0,3.17-4.18,3.81,3.81,0,0,0-1.59-2.39l-1.06-.8-4.3,5.67,1.06.8a3.76,3.76,0,0,0,2.72.9Z"/></g><g id="Grupo_76" data-name="Grupo 76"><path id="Caminho_49" data-name="Caminho 49" d="M206.34,332.05a6.74,6.74,0,0,1,.88,3.51,7.69,7.69,0,0,1-3.82,6.33,6.67,6.67,0,0,1-3.52.87,7.46,7.46,0,0,1-6.16-3.7,6.7,6.7,0,0,1-.9-3.52,7.66,7.66,0,0,1,3.8-6.34,6.83,6.83,0,0,1,3.54-.86,7.51,7.51,0,0,1,6.17,3.71Zm-7,.06a4.42,4.42,0,0,0-2.68,4.46,3.27,3.27,0,0,0,4,2.4h0a3.78,3.78,0,0,0,2.07-1.78,3.84,3.84,0,0,0,.62-2.68,2.92,2.92,0,0,0-1.49-2,3,3,0,0,0-2.5-.38Z"/></g><g id="Grupo_77" data-name="Grupo 77"><path id="Caminho_50" data-name="Caminho 50" d="M220.63,347a3.76,3.76,0,0,1-2.44,4.36,5.29,5.29,0,0,1-3.56-.47l-6.34-2.78,5.62-12.81L220.1,338a5.28,5.28,0,0,1,2.66,2.18,3.21,3.21,0,0,1,0,2.94,3.32,3.32,0,0,1-1.44,1.65,3,3,0,0,1-2,.32A3.42,3.42,0,0,1,220.63,347Zm-3.61.15c.35-.8.06-1.4-.87-1.81l-2-.88-1,2.36,2,.88c.93.4,1.56.22,1.9-.55ZM215.23,342l1.79.79q1.33.58,1.83-.54c.34-.77.06-1.35-.85-1.75l-1.77-.78Z"/></g><g id="Grupo_78" data-name="Grupo 78"><path id="Caminho_51" data-name="Caminho 51" d="M228,355.86l-1.06-5.78-.37-.12-1.62,4.89-3.7-1.22,4.4-13.28,5.83,1.93a6.41,6.41,0,0,1,2.53,1.45,4,4,0,0,1,1.17,2.08,4.48,4.48,0,0,1-.17,2.38,4,4,0,0,1-1.56,2.16,4.26,4.26,0,0,1-2.69.7l1.31,6.16Zm-.62-8.38,1.82.6c1,.34,1.69.05,2-.88a1.46,1.46,0,0,0,0-1.16,1.64,1.64,0,0,0-1-.75l-1.82-.61Z"/></g><g id="Grupo_79" data-name="Grupo 79"><path id="Caminho_52" data-name="Caminho 52" d="M243.44,357.5l-4.84-1.07-1.26,2.1-4-.88,8-12.49,4.38,1,1.95,14.71-4-.89Zm-.31-3.06-.48-4.76-2.47,4.1Z"/></g><g id="Grupo_80" data-name="Grupo 80"><path id="Caminho_53" data-name="Caminho 53" d="M254.45,347.58l2,10.36,4.24-9.66,4.1.46-6.31,13.37-5-.56-3.19-14.44Z"/></g><g id="Grupo_81" data-name="Grupo 81"><path id="Caminho_54" data-name="Caminho 54" d="M275.73,349.47a6.7,6.7,0,0,1,2.56,2.56,7.7,7.7,0,0,1,0,7.39,6.79,6.79,0,0,1-2.58,2.55,7.49,7.49,0,0,1-7.19,0,6.78,6.78,0,0,1-2.58-2.57,7.67,7.67,0,0,1,0-7.39,6.78,6.78,0,0,1,2.6-2.55,7.51,7.51,0,0,1,7.2,0Zm-6,3.62a4.41,4.41,0,0,0,0,5.2,3.27,3.27,0,0,0,4.62,0l0,0a4.42,4.42,0,0,0,0-5.21,2.9,2.9,0,0,0-2.31-1,3,3,0,0,0-2.34.95Z"/></g><g id="Grupo_82" data-name="Grupo 82"><path id="Caminho_55" data-name="Caminho 55" d="M292.74,352.85l.38,3.2-8.88,1.07-.39-3.2Z"/></g><g id="Grupo_83" data-name="Grupo 83"><path id="Caminho_56" data-name="Caminho 56" d="M307.47,344.68a6.07,6.07,0,0,1,2.68,1.28,7.2,7.2,0,0,1,1.84,2.46l-4,1a2.7,2.7,0,0,0-1.32-1,2.93,2.93,0,0,0-1.71-.06,2.55,2.55,0,0,0-1.79,1.42,4.55,4.55,0,0,0,1.22,5,2.51,2.51,0,0,0,2.24.45,2.8,2.8,0,0,0,2.2-2.36l4-1a6.46,6.46,0,0,1-1.25,4.33,6.81,6.81,0,0,1-4,2.46,7,7,0,0,1-3.73,0,6.06,6.06,0,0,1-2.92-1.89,8.53,8.53,0,0,1-1.75-7.18,6,6,0,0,1,1.73-3,7.1,7.1,0,0,1,3.31-1.73A7.52,7.52,0,0,1,307.47,344.68Z"/></g><g id="Grupo_84" data-name="Grupo 84"><path id="Caminho_57" data-name="Caminho 57" d="M321.83,340.15a6.58,6.58,0,0,1,3.29,1.53,7.73,7.73,0,0,1,2.51,6.95,6.8,6.8,0,0,1-1.56,3.29,7.48,7.48,0,0,1-6.75,2.44,6.8,6.8,0,0,1-3.31-1.52,7.68,7.68,0,0,1-2.51-6.95,6.76,6.76,0,0,1,1.56-3.29,7.49,7.49,0,0,1,6.77-2.45Zm-4.35,5.43a4.42,4.42,0,0,0,1.78,4.9,3.27,3.27,0,0,0,4.35-1.55v0a4.44,4.44,0,0,0-1.76-4.9,3.31,3.31,0,0,0-4.38,1.59Z"/></g><g id="Grupo_85" data-name="Grupo 85"><path id="Caminho_58" data-name="Caminho 58" d="M335.53,333.86A6.83,6.83,0,0,1,339,335a7.67,7.67,0,0,1,3.26,6.63,6.85,6.85,0,0,1-1.17,3.44,7.54,7.54,0,0,1-6.44,3.18,6.8,6.8,0,0,1-3.46-1.15,7.66,7.66,0,0,1-3.27-6.63,6.76,6.76,0,0,1,1.18-3.44,7.54,7.54,0,0,1,6.46-3.19Zm-3.71,5.89a4.42,4.42,0,0,0,2.31,4.67,3.26,3.26,0,0,0,4.15-2v0a3.77,3.77,0,0,0-.38-2.69,3.81,3.81,0,0,0-1.91-2,3.31,3.31,0,0,0-4.18,2.06Z"/></g><g id="Grupo_86" data-name="Grupo 86"><path id="Caminho_59" data-name="Caminho 59" d="M347.61,336.83l2.49,4-3.3,2.07L339.37,331l4.92-3.09a5.4,5.4,0,0,1,3.95-1,4.48,4.48,0,0,1,2.94,2.18,4.7,4.7,0,0,1,.76,2.32,4.2,4.2,0,0,1-.62,2.34,6.25,6.25,0,0,1-2.08,2Zm.24-5.61a1.43,1.43,0,0,0-1.93-.63,1.21,1.21,0,0,0-.32.22l-1.26.79,1.65,2.63,1.25-.79a1.45,1.45,0,0,0,.82-1.87,1.41,1.41,0,0,0-.21-.35Z"/></g><g id="Grupo_87" data-name="Grupo 87"><path id="Caminho_60" data-name="Caminho 60" d="M358.34,330.67l2.21,3.07-3.19,2.3L355.14,333Z"/></g><g id="Grupo_88" data-name="Grupo 88"><path id="Caminho_61" data-name="Caminho 61" d="M364.25,312.62l2,2.35-2.86,2.46,7.11,8.25-2.94,2.53-7.1-8.25-2.83,2.44-2-2.35Z"/></g><g id="Grupo_89" data-name="Grupo 89"><path id="Caminho_62" data-name="Caminho 62" d="M379.83,316.69l-5.67-1.56-.28.28,3.7,3.59-2.71,2.79-10-9.74,4.28-4.41a6.43,6.43,0,0,1,2.41-1.64,4.06,4.06,0,0,1,2.39-.15A4.51,4.51,0,0,1,376,307a4,4,0,0,1,1.25,2.35,4.23,4.23,0,0,1-.53,2.72l6.11,1.5Zm-7.82-3.1,1.34-1.38a1.37,1.37,0,0,0,.07-2.18,1.44,1.44,0,0,0-1.06-.46,1.68,1.68,0,0,0-1.13.59l-1.33,1.38Z"/></g><g id="Grupo_90" data-name="Grupo 90"><path id="Caminho_63" data-name="Caminho 63" d="M388.05,303.47,385,307.36l1.35,2.05-2.54,3.2L376,300l2.79-3.51,14.08,4.65-2.55,3.22Zm-2.9-1.06-4.49-1.65,2.62,4Z"/></g><g id="Grupo_91" data-name="Grupo 91"><path id="Caminho_64" data-name="Caminho 64" d="M394.84,287a3.77,3.77,0,0,1,3.92,3.09,5.31,5.31,0,0,1-1,3.45L394,299.39l-11.79-7.55,3.65-5.69a5.27,5.27,0,0,1,2.56-2.28,3.18,3.18,0,0,1,2.91.44,3.28,3.28,0,0,1,1.4,1.67,3,3,0,0,1,0,2A3.41,3.41,0,0,1,394.84,287ZM389,291.58l1.06-1.64c.52-.82.44-1.45-.25-1.9s-1.32-.26-1.86.57l-1,1.63Zm5.38-1c-.73-.47-1.37-.28-1.91.58L391.31,293l2.17,1.39,1.18-1.85c.55-.86.46-1.51-.25-2Z"/></g><g id="Grupo_92" data-name="Grupo 92"><path id="Caminho_65" data-name="Caminho 65" d="M399.6,282.86l3.29,1.88L401,288.16l-3.3-1.88Z"/></g><g id="Grupo_93" data-name="Grupo 93"><path id="Caminho_66" data-name="Caminho 66" d="M397.35,271.33l2.1.95,1.86-4.13,2.68,1.21-1.85,4.13,2.31,1,2.09-4.66,2.83,1.27-3.69,8.22-12.76-5.74,3.69-8.22,2.83,1.27Z"/></g><g id="Grupo_94" data-name="Grupo 94"><path id="Caminho_67" data-name="Caminho 67" d="M414.59,256.52l-1.26,3.68-9.05,2.33,7.38,2.53-1.26,3.68-13.21-4.52,1.26-3.68,9.14-2.3-7.48-2.57,1.26-3.68Z"/></g><g id="Grupo_95" data-name="Grupo 95"><path id="Caminho_68" data-name="Caminho 68" d="M415.75,243.6a4.07,4.07,0,0,1,1.06,2,6.16,6.16,0,0,1-.1,2.8,6.54,6.54,0,0,1-2,3.63,4.23,4.23,0,0,1-3.62.9l.95-4a1.57,1.57,0,0,0,1.16-.19,1.37,1.37,0,0,0,.57-.86,1.16,1.16,0,0,0-.07-.84.93.93,0,0,0-.64-.45,1.09,1.09,0,0,0-1.09.34,10.06,10.06,0,0,0-1.15,1.59,18.57,18.57,0,0,1-1.37,1.92,4.16,4.16,0,0,1-1.61,1.14,3.94,3.94,0,0,1-5.31-3.19,6.78,6.78,0,0,1,.14-2.69,6,6,0,0,1,2-3.48,4.24,4.24,0,0,1,3.47-.8l-.95,4.06a1.63,1.63,0,0,0-1,.17,1.22,1.22,0,0,0-.51.76,1.08,1.08,0,0,0,.07.75,1,1,0,0,0,.64.41,1,1,0,0,0,1-.34,9.67,9.67,0,0,0,1.14-1.55,16.31,16.31,0,0,1,1.41-1.92,4.31,4.31,0,0,1,1.63-1.16,3.72,3.72,0,0,1,2.33-.09A3.88,3.88,0,0,1,415.75,243.6Z"/></g><g id="Grupo_96" data-name="Grupo 96"><path id="Caminho_69" data-name="Caminho 69" d="M414.91,237.23l3.74.64-.66,3.87-3.74-.63Z"/></g><g id="Grupo_97" data-name="Grupo 97"><path id="Caminho_70" data-name="Caminho 70" d="M416.91,227.78l.39-4.35,2.93.27-.74,8.22-13.93-1.24.35-3.88Z"/></g><g id="Grupo_98" data-name="Grupo 98"><path id="Caminho_71" data-name="Caminho 71" d="M406.48,210.87l3.1,0,0,3.78,10.89.12,0,3.87-10.89-.12,0,3.73-3.11,0Z"/></g><g id="Grupo_99" data-name="Grupo 99"><path id="Caminho_72" data-name="Caminho 72" d="M416,197.28a6.37,6.37,0,0,1,2.7,2.31,7.91,7.91,0,0,1,1.23,3.77l.46,5.55-13.94,1.17-.47-5.56a8.09,8.09,0,0,1,.56-3.92,6,6,0,0,1,2.24-2.72,7.83,7.83,0,0,1,7.22-.6Zm-.66,4.1a4,4,0,0,0-5.23.44,3.78,3.78,0,0,0-.71,2.78l.11,1.32,7.09-.6-.11-1.32a3.81,3.81,0,0,0-1.15-2.62Z"/></g><g id="Grupo_100" data-name="Grupo 100"><path id="Caminho_73" data-name="Caminho 73" d="M415,185.24l.94,4.87,2.44.32.76,4L404.52,192l-.84-4.41L416.4,180l.77,4Zm-2.69,1.5-4.18,2.33,4.75.64Z"/></g><g id="Grupo_101" data-name="Grupo 101"><path id="Caminho_74" data-name="Caminho 74" d="M411.26,176l3.66-1,1,3.8-3.67,1Z"/></g></g><g id="Grupo_112" data-name="Grupo 112"><g id="Grupo_103" data-name="Grupo 103"><path id="Caminho_75" data-name="Caminho 75" class="cls-9" d="M279.39,278.54a16.85,16.85,0,0,0-5,.74h0a17,17,0,0,0-5.05-.74c-7.63,0-13.83,4.85-13.83,10.84s6.19,10.84,13.83,10.84a17.34,17.34,0,0,1,10.09,0c7.64,0,13.83-4.86,13.83-10.84S287,278.54,279.39,278.54Z"/></g><g id="Grupo_106" data-name="Grupo 106"><g id="Grupo_104" data-name="Grupo 104"><path id="Caminho_76" data-name="Caminho 76" d="M245.88,288.25q2.26-2.34,2.26-4.21c0-1.21-.49-1.82-1.46-1.82a1.28,1.28,0,0,0-1.2.64,4.41,4.41,0,0,0-.4,2.09h-5.27a6.87,6.87,0,0,1,6.46-7.28,6,6,0,0,1,.85,0,6.61,6.61,0,0,1,4.94,1.65,5.75,5.75,0,0,1,1.6,4.2,8.46,8.46,0,0,1-1.94,5.24,18.13,18.13,0,0,1-4.79,4.28h7v4.38h-14.1v-4.05A49.24,49.24,0,0,0,245.88,288.25Z"/></g><g id="Grupo_105" data-name="Grupo 105"><path id="Caminho_77" data-name="Caminho 77" d="M296,294.36v-4.52l8.55-12h5.85v11.81h2.15v4.69h-2.15v3.31H305v-3.31Zm9.35-10.29-3.89,5.6h3.89Z"/></g></g><g id="Grupo_111" data-name="Grupo 111"><g id="Grupo_107" data-name="Grupo 107"><path id="Caminho_78" data-name="Caminho 78" d="M269.3,301.15c-8.14,0-14.76-5.28-14.76-11.77s6.62-11.77,14.76-11.77,14.76,5.28,14.76,11.77a9.77,9.77,0,0,1-1.45,5.11l-.12.19-1.57-1,.09-.14a8,8,0,0,0,1.19-4.15c0-5.46-5.79-9.9-12.9-9.9s-12.89,4.44-12.89,9.9,5.78,9.9,12.89,9.9a16,16,0,0,0,5.27-.86l.61,1.76A17.82,17.82,0,0,1,269.3,301.15Z"/></g><g id="Grupo_108" data-name="Grupo 108"><path id="Caminho_79" data-name="Caminho 79" d="M266.39,295.12c-2.89-.95-4.75-3.21-4.75-5.74,0-3.42,3.44-6.21,7.66-6.21S277,286,277,289.38a5.63,5.63,0,0,1-2.22,4.38l-1.18-1.45a3.82,3.82,0,0,0,1.54-2.93c0-2.39-2.6-4.34-5.8-4.34s-5.79,1.94-5.79,4.34c0,1.71,1.36,3.27,3.47,4Z"/></g><g id="Grupo_109" data-name="Grupo 109"><path id="Caminho_80" data-name="Caminho 80" d="M279.39,301.15c-8.14,0-14.76-5.28-14.76-11.77a10,10,0,0,1,1.71-5.51l1.55,1a8,8,0,0,0-1.39,4.47c0,5.46,5.78,9.9,12.89,9.9s12.9-4.44,12.9-9.9-5.79-9.9-12.9-9.9a16.11,16.11,0,0,0-4.77.7l-.55-1.79a18.13,18.13,0,0,1,5.32-.78c8.14,0,14.76,5.28,14.76,11.77S287.53,301.15,279.39,301.15Z"/></g><g id="Grupo_110" data-name="Grupo 110"><path id="Caminho_81" data-name="Caminho 81" d="M279.39,295.58c-4.22,0-7.66-2.78-7.66-6.2a5.63,5.63,0,0,1,2-4.19l1.24,1.4a3.76,3.76,0,0,0-1.36,2.79c0,2.39,2.6,4.34,5.79,4.34s5.79-2,5.79-4.34c0-1.83-1.54-3.47-3.85-4.09l.49-1.8c3.13.85,5.23,3.21,5.23,5.89C287.05,292.8,283.62,295.58,279.39,295.58Z"/></g></g></g></g></g><g id="Grupo_354" data-name="Grupo 354"><path id="Caminho_196" data-name="Caminho 196" class="cls-6" d="M523.67,282.07c-6.14-2.88-11.63-5.54-18.29-7.15-2.56-.61-15.45-2.37-9.15,2.58,5.17,4.05,12.52,6.1,19,6.74,1.93.19,4.09.81,6,.65,2.34-.2,3.73-2.08,1.07-3.55"/><path id="Caminho_197" data-name="Caminho 197" class="cls-6" d="M501.56,264.24c-4-5.45-7.57-10.39-12.63-15-1.95-1.77-12.37-9.56-9.16-2.27,2.64,6,8.1,11.3,13.49,15,1.59,1.1,3.19,2.68,4.94,3.48,2.12,1,4.19.06,2.56-2.5"/><path id="Caminho_198" data-name="Caminho 198" class="cls-6" d="M491.11,233.08c1.47,5.36,2.72,10.21,5.43,15.07,1,1.88,7.27,10.45,7.2,3.7-.06-5.52-2.84-11.06-6.18-15.25-1-1.24-1.79-2.88-3-3.9-1.5-1.23-3.67-.87-3.2,1.59"/><path id="Caminho_199" data-name="Caminho 199" class="cls-6" d="M463.29,289c-4,4.16-7.65,7.87-10.91,12.75-1.25,1.87-6.58,11.63-1.05,7.83,4.54-3.12,8.33-8.44,10.85-13.44a33.32,33.32,0,0,0,2.37-4.6c.6-1.89-.31-3.43-2.2-1.68"/><path id="Caminho_200" data-name="Caminho 200" class="cls-6" d="M512.76,244.73c-1.28-5.94-.56-12-2.38-17.9-.46-1.47-3.45-10.76-5.26-5.28-.83,2.53.39,6.74.88,9.32a41.3,41.3,0,0,0,2.09,7.81c.54,1.36,1,2.69,1.58,4,.36.78,2.05,4,2.64,1.43"/><path id="Caminho_201" data-name="Caminho 201" class="cls-6" d="M465.55,308.12c.25,3.06,3.43,7.45,4.76,10.44s2.91,6,4.43,8.95c1.19,2.3,5.33,8.27,4.77,2.34-.64-6.68-4.16-13-8.36-18.22a40.5,40.5,0,0,0-2.88-3.65c-2.4-2.3-2.16-.23-1.94,2.31"/><path id="Caminho_202" data-name="Caminho 202" class="cls-6" d="M479.12,302.77c1.72-2.34,2-7.39,2.84-10.34s1.51-6.07,2.16-9.1c.52-2.36,1-9.14-2.23-4.55C478.2,284,477,290.63,477,296.88a33.24,33.24,0,0,0-.05,4.35c.42,3.1,1.53,1.47,2.95-.48"/><path id="Caminho_203" data-name="Caminho 203" class="cls-6" d="M489.17,280.43c2.62,6.8,4.34,13.86,7.68,20.42a17.25,17.25,0,0,0,2.8,4.39c1.49,1.41,1.77,1.13,1.89-.59.5-6.85-4.48-16.27-8.05-22.29a16.93,16.93,0,0,0-2.33-3.48c-1.32-1.1-2.13-.44-1.49,1.55"/></g><g id="Grupo_151" data-name="Grupo 151"><path id="Caminho_156" data-name="Caminho 156" class="cls-5" d="M92.59,43.17c1.8,7.33,4.34,12,7,19.23,2.13,5.76,3.28,14.58,7.27,20.62,8.59-11.83,19-23.92,25.11-37-6-1.59-14.82-.61-21.57-1.3-6.14-.62-13.29-1.91-18.29-1.87"/><path id="Caminho_157" data-name="Caminho 157" class="cls-6" d="M144.89,94.36c-1.94-4-1.19-5.84-2.71-9.87-1.74-4.66-1.63-4.94-3.39-9.63-2-5.24-2.43-8.24-3.79-13.63-.87-3.46-2.51-10.37-4-13.65-4.23,9-8.42,12-14.56,20.18a142.19,142.19,0,0,0-9.75,15.48S131,90.79,144.89,94.36Z"/></g><g id="Grupo_355" data-name="Grupo 355"><path id="Caminho_188" data-name="Caminho 188" class="cls-4" d="M90,24.89c-5.56,3.88-10.6,7.32-15.31,12.29C72.9,39.1,65,49.4,72.39,46.4c6.09-2.46,11.52-7.81,15.33-13.16,1.12-1.58,2.74-3.15,3.56-4.9,1-2.12,0-4.26-2.55-2.69"/><path id="Caminho_189" data-name="Caminho 189" class="cls-4" d="M38.87,76.68c5.78-3.52,11-6.64,16.06-11.28,1.94-1.78,10.6-11.49,3.06-8.92-6.18,2.1-12,7.08-16.16,12.13-1.23,1.49-2.95,2.94-3.9,4.61-1.16,2-.42,4.18,2.27,2.78"/><path id="Caminho_190" data-name="Caminho 190" class="cls-4" d="M19.55,60.35c6.75-.6,12.82-1.08,19.4-3,2.53-.75,14.59-5.61,6.69-6.65-6.47-.85-13.86,1-19.85,3.73-1.77.78-3.95,1.33-5.55,2.41-1.93,1.31-2.22,3.56.81,3.49"/><path id="Caminho_191" data-name="Caminho 191" class="cls-4" d="M14.26,40.17c6.34,2.38,12,4.59,18.78,5.7,2.6.43,15.58,1.26,8.91-3.09-5.47-3.57-13-5.06-19.51-5.25-1.93-.05-4.13-.51-6-.23-2.31.34-3.54,2.25-.78,3.5"/><path id="Caminho_192" data-name="Caminho 192" class="cls-4" d="M55.94,17.8c2.19,7,2.4,14.2,5.12,21.05.68,1.72,5.1,12.54,6.09,5.93.45-3-1.42-8-2.3-11a57.92,57.92,0,0,0-3.29-9.11c-.75-1.58-1.38-3.12-2.2-4.65-.48-.9-2.67-4.59-2.87-1.53"/><path id="Caminho_193" data-name="Caminho 193" class="cls-4" d="M90.3,69.65c-1.77-2.5-6.73-4.67-9.4-6.58s-5.55-3.7-8.36-5.46c-2.19-1.38-8.79-4.42-5.3.39,4,5.44,10.2,9.13,16.45,11.47A39.31,39.31,0,0,0,88,71.15c3.23.77,2-.89.5-3"/><path id="Caminho_194" data-name="Caminho 194" class="cls-4" d="M45.31,34.77c-1.39-2.55-5.85-5-8.17-7S32.3,23.87,29.83,22c-1.92-1.47-7.84-4.82-5.07.09,3.12,5.54,8.64,9.5,14.3,12.14A36.2,36.2,0,0,0,43,36.11c3,.93,2-.77.82-2.87"/><path id="Caminho_195" data-name="Caminho 195" class="cls-4" d="M104.62,49c-7.28.36-14.53-.22-21.8.88a17.3,17.3,0,0,0-5,1.29c-1.8,1-1.62,1.31,0,2,6.35,2.63,16.85.85,23.69-.64a17.33,17.33,0,0,0,4-1.12c1.46-.91,1.08-1.89-1-1.9"/></g></svg>