<svg id="Camada_1" data-name="Camada 1" xmlns="http://www.w3.org/2000/svg" viewBox="0 0 550 420"><defs><style>.cls-1{fill:#83c8e8;}.cls-2{fill:#efcc3e;}.cls-3{fill:#b25aa7;}.cls-4{fill:#50a545;}.cls-5{fill:#f49725;}.cls-6{fill:#e94941;}.cls-7{fill:#4b8ed2;}</style></defs><g id="Grupo_255" data-name="Grupo 255"><path id="Caminho_259" data-name="Caminho 259" class="cls-1" d="M413.84,271c-4.07,2.49-7.61,6.94-11.24,10.07-4.82,4.15-8.74,9.12-12.78,14.14-3.51,4.37-7.33,8.71-10.59,13.18s-8,8.82-10.46,13.51c5.82,3,13.76,2.67,20,5.13,5.54,2.18,11.5,2.93,17.11,4.9,10,3.49,20.93,6.94,31.45,8.24-6.54-23.76-15-47.54-22.17-70.69-.46.28,0,.31.29.64"/><path id="Caminho_260" data-name="Caminho 260" class="cls-2" d="M248.34,301.62c-12.9-9.39-25.94-18.93-36.11-31.22C203.9,260.31,186,236.61,185.38,235a11.86,11.86,0,0,1-.59-4c-1-26.94-.1-84.78.56-86.6a18.16,18.16,0,0,1,3.12-5c17.18-21.63,64.4-62.38,64.4-62.38a59.15,59.15,0,0,1,6.74-1.23c16.66-1.25,33.4-.07,50.06,1.11L348,79.65l7,4.18c22.17,19.48,35.33,38.25,54,61.1a7.12,7.12,0,0,1,2,6.22q-1,34.1-1.95,68.17c-.21,7.33-3.3,16.55-2,24.53l-2.33,3c-23.24,21.56-38.92,37.49-62.17,59.05,0,0-15,.81-21.67-1-6.43-1.76-13.88-2-21-2.09C283,302.64,248.34,301.62,248.34,301.62Z"/><path id="Caminho_261" data-name="Caminho 261" class="cls-3" d="M212,23.79c8.76,5.34,26,4,35.65,2,6-1.25,11.3-1.92,17.26-3.72s20.47-8.35,20.47-8.35a51.55,51.55,0,0,1,6.46,8.18c2.1,3.33,4.54,6.57,6.76,9.59-11.82,5.23-19.31,13.67-28.91,21.76,10.67,1.89,21.38,2.66,31.94,5.41,8.81,2.3,17.58,6.12,26.32,8.69-1.71,3.66-1.59,8.38-2.29,12.43-6.73-.41-18,.07-24.4.37-11.86.55-23.68-1.19-35.27-.2,23.86,4.35,47.37,10.69,68.93,21.25-1.57,4.89-2.81,9.85-4.15,14.94-14-2.27-27.79-4.29-41.51-7.78-10.14-2.58-20.43-.67-30.24-2.94,3,1.08,4.59,4,7.2,5.78,2.81,2,6.23,3,9.22,4.71,5.53,3.15,10.46,7.45,15.91,10.81,6,3.67,12.38,6.49,18.25,10-1.9,3.37-7.61,12.79-8.23,16.7-7.4-1.07-55.15-24.81-61.12-25.58,6.2,5.9,24.9,31.35,24.9,31.35a76.78,76.78,0,0,0-12.3,11.26c-.32-1.29-35.3-28.6-40.25-34.75-9-11.19-18-19.83-28.94-29.09-4.67-4-12.26-15.11-18.7-14.33,3.78-5.2,4.13-14.93,5.76-21.2,1.84-7.12,4.3-13.83,6.45-20.77,2.45-7.9,4.29-15.31,7.66-23,1.81-4.12,3.52-11.26,7.11-14C196.92,17.48,206,22.57,212,23.79Z"/><path id="Caminho_262" data-name="Caminho 262" class="cls-4" d="M506.52,231.32s11.11-17,16.54-22.06c3.09-2.91,15.28-11.29,15.3-14.89,0-1.17-5.1-6.67-6.24-7.6-3.54-2.88-1.84-4.06-6.57-2.36-8.47,3.05-20,8-27.83,11.84-.58-7.76,2.56-15.79,3.8-23.64,1.38-8.68,3.38-17,4.94-25.55-5.12-3-11.82-1.9-11.82-1.9S489.55,156,488.44,161c-2.28,10.28-7.2,21.1-11.31,30.69-2.56-10.57-.77-24-1.53-34.86-.45-6.4-1-13.88-.18-20-4.26.36-9-.76-15.1.22,1.17,9.25-2.64,21.2-3.79,30.67-.87,7.21-2.12,16.07-4.15,23-2.81-7.42-13.28-34.21-14.93-40.93-6.4,1.21-7.83.68-13.72,3.44,1.53,6.1,3,21.33,4.21,27.25,1.28,6.56,2,13.26,3.46,19.74-4.34-4.58-9.17-6.81-14.5-9.62-3.32-1.74-12.21-9.9-12.21-9.9l-9.9,12.21a103.8,103.8,0,0,1,10.68,10.29,297.82,297.82,0,0,1,19.09,24.39c4.2,6.25,13,38.87,12.61,43.83,7.32.22,23.19-2.08,30.12-2.69,10.93-1,19.5.32,30.12-2.69C497.63,262.88,506.52,231.32,506.52,231.32Z"/><path id="Caminho_263" data-name="Caminho 263" class="cls-5" d="M203.49,349.42s19.7-4.78,27.15-4.8c4.25,0,18.88,2.21,21.34-.4.81-.85.85-8.35.65-9.82-.62-4.52,1.44-4.22-3.19-6.21A301.5,301.5,0,0,0,221,317.82c4.88-6.07,12.66-9.79,18.93-14.66,6.94-5.4,14.1-10.12,21.07-15.28-1.7-5.68-7.33-9.46-7.33-9.46s-11.11,4.42-15.35,7.32c-8.69,5.95-19.68,10.47-29.23,14.67,5.35-9.47,15.81-18,22.71-26.49,4-5,8.76-10.82,13.56-14.75-3.35-2.64-6.05-6.7-11.17-10.16-5.47,7.55-16.42,13.67-23.73,19.8-5.57,4.66-12.53,10.27-18.77,14,3-7.34,13.7-34,17.08-40.07-5.5-3.49-6.18-4.86-12.37-6.87-3.05,5.5-12.34,17.65-15.55,22.76-3.54,5.66-7.58,11.06-11,16.78,0-6.31-2-11.24-4-16.94-1.22-3.54-2.14-15.57-2.14-15.57L148.2,245a103.22,103.22,0,0,1,.76,14.81,294.81,294.81,0,0,1-2.74,30.84c-1.2,7.45-17.09,37.26-20.76,40.62,5.2,5.16,18.35,14.34,23.83,18.63,8.64,6.76,14,13.56,23.82,18.62C175.43,366.38,203.49,349.42,203.49,349.42Z"/><path id="Caminho_264" data-name="Caminho 264" class="cls-4" d="M81,135.63c1.53,5.76,12.43,10.19,18,12.45,5.78,2.37,10.12,5.45,16.78,6,7.86.69,17.51,1.27,25-2s13-10.23,19.18-15.21,12.5-8.84,18.66-13.29c-10.44-1.46-18.68-8.78-28.22-12.45a89.81,89.81,0,0,0-23-6.06,45.85,45.85,0,0,0-17.64,1.31c-8.13,2-12.56,10.07-18.2,15.77a48.46,48.46,0,0,0-7,8.57C83.05,133.05,82.19,134.71,81,135.63Z"/><path id="Caminho_265" data-name="Caminho 265" class="cls-4" d="M146.68,203.65c-11.6-18.94.53-36.73,10.53-52.23,1.78,4,5.56,7.09,8.07,10.56a55,55,0,0,1,7,13.16c4.31,11.58-1.73,20.39-9.85,29-3.66,3.91-8.78,7.11-11.92,11.67A40.86,40.86,0,0,1,146.68,203.65Z"/><path id="Caminho_266" data-name="Caminho 266" class="cls-4" d="M283.44,366.89c4,4.06,15.16,2.58,20.83,1.84,5.94-.78,11-.26,16.82-2.93,6.87-3.16,15.17-7.25,19.82-13.49s6-14.67,8.75-21.73c2.7-6.91,6.21-13.28,9.23-19.89-9.38,3.72-19.69,1.53-29.37,3a85.68,85.68,0,0,0-22,5.87A43.6,43.6,0,0,0,293.44,329c-5.82,5.52-5.68,14.32-7.67,21.74a45.93,45.93,0,0,0-1.72,10.42C283.92,363.76,284,365.55,283.44,366.89Z"/><path id="Caminho_267" data-name="Caminho 267" class="cls-6" d="M148.78,99.87c3.44-2.47,3.65-10.83,3.76-15.08.11-4.45,1.08-8.11-.21-12.69-1.53-5.4-3.57-12-7.62-16.1s-10.08-6.09-15-8.93-9-6.09-13.53-9.07c1.65,7.32-1.14,14.64-1.18,21.91a64.13,64.13,0,0,0,1.77,16.85,32.61,32.61,0,0,0,5.32,11.4c3.38,4.91,9.85,5.82,15.07,8.14a34.84,34.84,0,0,0,7.45,2.47C146.55,99.16,147.87,99.3,148.78,99.87Z"/><path id="Caminho_268" data-name="Caminho 268" class="cls-4" d="M370.29,392.35c-18.62-10.25-17-30.8-16-48.43,3.4,2.52,8,3.26,11.72,5a52.61,52.61,0,0,1,12.08,7.62c9.07,7.59,8.21,17.78,5.56,28.81-1.2,5-3.94,10.08-4.39,15.36A39.07,39.07,0,0,1,370.29,392.35Z"/><path id="Caminho_269" data-name="Caminho 269" class="cls-2" d="M322.24,405.76c-6-20.39,9.64-33.82,22.73-45.66.64,4.19,3.38,7.94,4.84,11.78A52.8,52.8,0,0,1,353,385.79c1.1,11.78-6.68,18.41-16.33,24.39-4.36,2.69-9.9,4.38-13.92,7.82A38.71,38.71,0,0,1,322.24,405.76Z"/><path id="Caminho_270" data-name="Caminho 270" class="cls-7" d="M132.22,172.06c-4.81,21.38-25.64,25.64-43.37,29.74,1.51-4.1.93-8.85,1.55-13a54.06,54.06,0,0,1,4.07-14.16c4.91-11.16,15.25-13.23,26.94-13.77,5.28-.25,11.1,1,16.46-.07A39.85,39.85,0,0,1,132.22,172.06Z"/><g id="Grupo_253" data-name="Grupo 253"><path id="Caminho_271" data-name="Caminho 271" class="cls-4" d="M95.69,341.16c2.64-6.28,5.07-11.9,6.4-18.66.51-2.6,1.72-15.6-3-9.07-3.85,5.36-5.59,12.82-6,19.4-.11,1.94-.64,4.14-.4,6.06.29,2.34,2.23,3.65,3.61.93"/><path id="Caminho_272" data-name="Caminho 272" class="cls-4" d="M112.65,318.22c5.3-4.26,10.11-8,14.53-13.31,1.7-2,9.07-12.81,1.89-9.28-5.89,2.89-11,8.6-14.52,14.17-1,1.64-2.56,3.31-3.29,5.1-.89,2.17.13,4.21,2.62,2.47"/><path id="Caminho_273" data-name="Caminho 273" class="cls-4" d="M93.69,279.84c1.21-6.7,2.36-12.7,2.25-19.58,0-2.65-1.55-15.62-4.66-8.25-2.55,6-2.67,13.7-1.67,20.22.29,1.92.24,4.18.86,6,.75,2.22,2.85,3.1,3.6.14"/><path id="Caminho_274" data-name="Caminho 274" class="cls-4" d="M143.47,306.41c-5.31,1.7-10.12,3.17-14.89,6.09-1.83,1.13-10.17,7.73-3.41,7.38,5.54-.28,11-3.31,15-6.84,1.2-1,2.81-1.92,3.78-3.2,1.17-1.56.71-3.72-1.73-3.15"/><path id="Caminho_275" data-name="Caminho 275" class="cls-4" d="M86.16,280.87c-4.35-3.85-8.22-7.35-13.25-10.41C71,269.28,61,264.34,65,269.74c3.32,4.42,8.81,8,13.94,10.32a35.86,35.86,0,0,0,4.71,2.18c1.93.52,3.43-.45,1.6-2.28"/><path id="Caminho_276" data-name="Caminho 276" class="cls-4" d="M132.7,328.64c5.9-1.54,12-1.08,17.85-3.15,1.46-.52,10.66-3.91,5.08-5.5-2.57-.73-6.74.68-9.31,1.27a40.52,40.52,0,0,0-7.75,2.43c-1.34.6-2.66,1.09-4,1.76-.76.39-3.91,2.22-1.32,2.71"/><path id="Caminho_277" data-name="Caminho 277" class="cls-4" d="M67.09,283.94c-3,.38-7.31,3.75-10.26,5.21S50.92,292.33,48,294c-2.26,1.29-8.07,5.7-2.15,4.88,6.68-.92,12.91-4.72,17.93-9.15a39.51,39.51,0,0,0,3.54-3c2.21-2.5.14-2.17-2.39-1.85"/><path id="Caminho_278" data-name="Caminho 278" class="cls-4" d="M73,297.33c2.42,1.63,7.5,1.69,10.5,2.41s6.14,1.26,9.21,1.79c2.4.42,9.22.66,4.48-2.43-5.35-3.49-12.1-4.46-18.37-4.18a33.53,33.53,0,0,0-4.37.14c-3.09.55-1.4,1.6.6,2.93"/><path id="Caminho_279" data-name="Caminho 279" class="cls-4" d="M95.88,306.47c-6.71,2.92-13.72,4.95-20.16,8.57a17.52,17.52,0,0,0-4.29,3c-1.35,1.55-1.06,1.82.67,1.87,6.9.21,16.13-5.19,22-9a16.66,16.66,0,0,0,3.4-2.48c1-1.38.35-2.16-1.63-1.43"/></g><path id="Caminho_280" data-name="Caminho 280" class="cls-6" d="M439.49,98.49c-2.47-4.09-6.92-7.64-10-11.28-4.13-4.83-9.08-8.77-14.1-12.82C411,70.87,406.67,67,402.21,63.76s-8.79-8-13.47-10.51c-3,5.82-2.72,13.76-5.2,20-2.2,5.54-3,11.5-5,17.1-3.53,10-7,20.91-8.34,31.42C394,115.31,417.84,107,441,99.82c-.28-.46-.32,0-.64.29"/><g id="Grupo_254" data-name="Grupo 254"><path id="Caminho_281" data-name="Caminho 281" class="cls-4" d="M436.88,41.87c4.89-5.11,9.35-9.65,13.15-15.7,1.46-2.33,7.48-14.49.49-9.9-5.72,3.76-10.18,10.34-13,16.58-.82,1.85-2.15,3.77-2.64,5.73-.58,2.37.81,4.37,3.15,2.24"/><path id="Caminho_282" data-name="Caminho 282" class="cls-4" d="M422.34,61.77c-5.19,4.78-9.91,9-14.12,14.81-1.62,2.22-8.49,13.91-1.3,9.74,5.89-3.41,10.79-9.67,14-15.7,1-1.77,2.41-3.6,3-5.51.77-2.31-.42-4.35-2.88-2.37"/><path id="Caminho_283" data-name="Caminho 283" class="cls-4" d="M475.71,43.84c-6.91,1.43-13.15,2.64-19.73,5.41-2.53,1.07-14.45,7.54-6.14,7.68,6.8.11,14.23-2.73,20.12-6.21,1.74-1,3.93-1.85,5.46-3.15,1.85-1.59,1.88-4-1.25-3.52"/><path id="Caminho_284" data-name="Caminho 284" class="cls-4" d="M483.59,64.12c-6.85-1.72-13-3.33-20.13-3.68-2.74-.13-16.28.53-8.86,4.26,6.08,3,14,3.71,20.83,3.12,2-.17,4.34,0,6.28-.48,2.35-.62,3.4-2.74.4-3.71"/><path id="Caminho_285" data-name="Caminho 285" class="cls-4" d="M442.5,47.27c6.26-4.3,13.43-6.73,19.42-11.53,1.5-1.2,10.94-8.91,4.05-7.87-3.17.47-7.49,3.83-10.25,5.64a61,61,0,0,0-8.08,6.06c-1.34,1.23-2.69,2.34-4,3.62-.74.74-3.76,4.06-.64,3.32"/><path id="Caminho_286" data-name="Caminho 286" class="cls-4" d="M400.13,25.69c2.32,2.2,7.83,3.4,10.95,4.81s6.44,2.65,9.67,3.88c2.52,1,9.88,2.73,5.33-1.48-5.14-4.76-12.29-7.26-19.15-8.37a43.06,43.06,0,0,0-4.78-.84c-3.46-.12-1.84,1.32.09,3.14"/><path id="Caminho_287" data-name="Caminho 287" class="cls-4" d="M452.07,73.39c1.74,2.48,6.64,4.43,9.28,6.25s5.49,3.5,8.27,5.16c2.17,1.3,8.68,4.06,5.24-.7-3.89-5.37-10.07-8.82-16.25-10.88a36.32,36.32,0,0,0-4.29-1.5c-3.2-.61-1.95,1-.5,3.08"/><path id="Caminho_288" data-name="Caminho 288" class="cls-4" d="M401.09,50.32C408.46,48.48,416,47.59,423.2,45a18.26,18.26,0,0,0,4.9-2.34c1.64-1.36,1.4-1.68-.37-2-7-1.39-17.4,2.57-24.09,5.49a18.38,18.38,0,0,0-3.91,2c-1.3,1.23-.72,2.15,1.43,1.74"/></g></g><g id="Grupo_265" data-name="Grupo 265"><path id="Caminho_129" data-name="Caminho 129" class="cls-3" d="M499.82,274.77c.37,5.43,1.53,10.76,1.94,16.35.32,4.33,3,18.06,0,21.57-4.52,5.33-32.57,3.59-40.06,5.58-5.64-11.85-.36-27.61-1.05-40,13-2.9,27-2.08,39.93-3.58"/><path id="Caminho_135" data-name="Caminho 135" class="cls-4" d="M544.78,352.47c-5.44.22-10.8,1.24-16.4,1.5-4.34.2-18.13,2.53-21.57-.55-5.2-4.67-2.71-32.65-4.49-40.2,12-5.32,27.6.38,40,0,2.56,13.06,1.36,27,2.52,40"/></g><g id="Grupo_266" data-name="Grupo 266"><path id="Caminho_129-2" data-name="Caminho 129-2" class="cls-7" d="M79.74,43.36c-5,0-9.93.71-15.07.72-4,0-16.7,1.6-19.72-1.35-4.59-4.49-1.19-30-2.53-37C53.61,1.35,67.68,7.18,79,7.34c1.83,12.07.17,24.79.72,36.74"/><path id="Caminho_351" data-name="Caminho 351" class="cls-2" d="M79.55,118.84c-5,0-9.93.71-15.07.72-4,0-16.7,1.6-19.73-1.35-4.58-4.48-1.18-30-2.52-37,11.19-4.39,25.25,1.45,36.6,1.61,1.83,12.06.17,24.79.72,36.73"/><path id="Caminho_135-2" data-name="Caminho 135-2" class="cls-4" d="M5.83,79.47c.14-5-.45-9.94-.32-15.08.1-4-1.16-16.74,1.88-19.68,4.6-4.46,30-.39,37-1.54,4.1,11.31-2.12,25.21-2.58,36.54-12.11,1.51-24.79-.49-36.74-.26"/></g></svg>