<?xml version="1.0" encoding="utf-8"?>
<!-- Generator: Adobe Illustrator 24.2.0, SVG Export Plug-In . SVG Version: 6.00 Build 0)  -->
<svg version="1.1" id="Camada_1" xmlns="http://www.w3.org/2000/svg" xmlns:xlink="http://www.w3.org/1999/xlink" x="0px" y="0px"
	 viewBox="0 0 1280 1280" style="enable-background:new 0 0 1280 1280;" xml:space="preserve">
<style type="text/css">
	.st0{fill:#B25AA7;}
	.st1{fill:#83C8E8;}
	.st2{fill:#F1EEE9;}
	.st3{fill:#50A545;}
	.st4{fill:#F49725;}
	.st5{fill:#EFCC3E;}
	.st6{fill:#E94941;}
	.st7{fill:#4B8ED2;}
</style>
<rect x="-12.1" y="-12.1" class="st0" width="1304.2" height="1304.2"/>
<g>
	<g>
		<path class="st1" d="M905.4,812.6c-6.7,8-10.9,19.8-16.3,28.9c-7.1,12-11.7,25.1-16.6,38.4c-4.2,11.6-9.1,23.3-12.7,34.8
			c-3.5,11.3-10.3,23.9-12.2,35.4c14.2,2.1,30.5-4.2,45.2-3.5c13,0.6,26-2,39-1.9c23.2,0.2,48.4-0.3,71.1-5.1
			c-30.3-44.7-64.6-88.2-95.9-131.2c-0.8,0.9,0.3,0.6,1.1,1.1"/>
	</g>
	<g>
		<path class="st2" d="M551.3,873.1c-28.3-20.6-56.9-41.5-79.2-68.5c-18.3-22.1-57.5-74.1-58.9-77.7c-1.1-2.7-1.2-5.8-1.3-8.7
			c-2.1-59.1-0.2-186,1.2-190c1.5-4.1,4.2-7.5,6.8-10.9c37.7-47.5,141.3-136.9,141.3-136.9s9.8-2.3,14.8-2.7
			c36.6-2.7,73.3-0.1,109.9,2.4c28,2,56,4,84,6l15.4,9.2c48.7,42.7,77.5,83.9,118.5,134.1c1.4,1.7,2.9,3.5,3.7,5.6
			c1,2.5,0.9,5.3,0.8,8.1c-1.4,49.9-2.9,99.7-4.3,149.6c-0.5,16.1-7.2,36.3-4.4,53.8l-5.1,6.5c-51,47.3-85.4,82.2-136.4,129.5
			c0,0-32.9,1.8-47.5-2.2c-14.1-3.9-30.5-4.5-46.1-4.6C627.3,875.4,551.3,873.1,551.3,873.1z"/>
	</g>
	<g>
		<path class="st3" d="M259.2,753.3c-3.3,0-6.5,0.1-9.7-0.7c-2.6-0.6-8.4-2.3-8.7-2.5c-0.2-0.1-0.4-0.4-0.6-0.6
			c-3.4-4.3-10.4-13.8-10.5-14.2c-0.1-0.4-0.1-0.8-0.1-1.2c0.2-5.6,2.9-18,2.9-18s0.6-0.7,0.9-1c2.6-2.2,5.4-4.1,8.3-5.9
			c2.2-1.4,4.4-2.8,6.6-4.2l1.7-0.2c6,0.5,10.4,1.9,16.3,3.4c0.2,0.1,0.4,0.1,0.6,0.2c0.2,0.1,0.4,0.3,0.5,0.6
			c2.7,3.8,5.3,7.6,8,11.4c0.9,1.2,1.5,3.1,2.7,4.2l0,0.8c-1.2,6.4-1.8,10.9-3,17.2c0,0-2.3,2-3.7,2.5c-1.3,0.5-2.5,1.4-3.7,2.2
			C265,749.3,259.2,753.3,259.2,753.3z"/>
	</g>
	<g>
		<path class="st4" d="M758.6,226.7c-2.8,3-5.6,6-9.1,8.2c-2.8,1.8-9.4,5.6-9.8,5.7c-0.3,0.1-0.7,0.1-1,0c-6.9-0.6-21.5-2.7-22-2.9
			c-0.4-0.2-0.8-0.6-1.2-1c-4.9-5.1-13.8-18.3-13.8-18.3s-0.1-1.2-0.1-1.7c0.2-4.3,1.1-8.5,1.9-12.7c0.6-3.2,1.3-6.4,1.9-9.6
			l1.3-1.6c5.7-5,10.8-7.7,17.2-11.8c0.2-0.1,0.4-0.3,0.7-0.3c0.3-0.1,0.6,0,0.9,0c5.7,0.9,11.5,1.8,17.2,2.7
			c1.9,0.3,4.1,1.4,6.2,1.3l0.7,0.7c4.7,6.6,8.3,11.1,13,17.7c0,0-0.3,3.8-0.9,5.5c-0.7,1.6-1,3.5-1.2,5.3
			C760,217.9,758.6,226.7,758.6,226.7z"/>
	</g>
	<g>
		<path class="st2" d="M821.2,319.7c-3.2,3.4-6.5,6.9-10.4,9.4c-3.2,2.1-10.8,6.4-11.3,6.5c-0.4,0.1-0.8,0.1-1.2,0
			c-7.9-0.7-24.7-3.1-25.2-3.3c-0.5-0.3-0.9-0.7-1.3-1.1c-5.7-5.8-15.8-21-15.8-21s-0.1-1.3-0.1-2c0.2-4.9,1.2-9.7,2.2-14.5
			c0.7-3.7,1.5-7.4,2.2-11.1l1.5-1.9c6.5-5.7,12.4-8.9,19.8-13.5c0.3-0.2,0.5-0.3,0.8-0.4c0.4-0.1,0.7,0,1.1,0
			c6.6,1,13.2,2,19.8,3.1c2.1,0.3,4.7,1.6,7.1,1.5l0.8,0.8c5.4,7.6,9.5,12.7,14.9,20.3c0,0-0.3,4.4-1.1,6.3c-0.7,1.8-1.1,4-1.4,6
			C822.7,309.7,821.2,319.7,821.2,319.7z"/>
	</g>
	<path class="st3" d="M498.5,140.7c14.1,17.6,50.6,27.7,72,30.9c13.3,1.9,24.7,4.5,38.4,5.3c13.5,0.7,48.5-1.8,48.5-1.8
		s4.5,9.5,7.2,21.7c1.8,8.4,4.4,17,6.7,24.9c-28.3,1.9-50.1,13.7-76,23.1c20.6,11.9,42.1,21.5,61.8,35.2
		c16.4,11.3,31.6,25.8,47.7,37.7c-6.3,6.2-9.6,16.1-14,23.9c-13.5-5.9-37.1-13.4-50.6-17.6c-24.9-7.8-47.9-20.2-72.6-26.9
		c45.9,26.9,89.6,57.6,126.2,95.6c-6.9,8.9-13.2,18.2-19.8,27.7c-27.2-15.2-54.1-29.7-79.7-47.2c-19-12.9-41.6-16.7-60.1-28.8
		c5.4,4.5,6.5,11.6,10.5,17.3c4.3,6.2,10.6,10.9,15.5,16.6c9,10.6,16,23.2,24.7,34.2c9.5,12.1,20.6,22.7,30.2,34.2
		c-6.4,5.5-25.3,20.7-29.5,28.2c-14.4-7.8-95-92.6-106.8-98.6c8.3,16.8,27.8,83.3,27.8,83.3s-16.8,4.5-33.8,14
		c0.3-2.9-51.3-85.5-56.9-101.9c-10.2-29.8-22.3-54.4-37.8-81.7c-6.7-11.7-13.9-40.4-27.8-43.6c11.7-7.9,19.7-27.7,27.8-39.4
		c9.2-13.3,19.3-25.3,28.9-38c11-14.4,20.3-28.3,33-41.6c6.8-7.1,15.7-20.6,25.2-23.6C472.2,116.4,487,133.7,498.5,140.7z"/>
	<path class="st5" d="M1141.3,683.6c0,0,8.5-47.2,15.6-63.4c4-9.2,22.8-38.7,19.5-46.6c-1.1-2.6-17.3-9.8-20.6-10.8
		c-10.4-3-7.8-7.1-16.5,1c-15.6,14.5-36.2,35.9-49.6,51.5c-8.5-16.4-9.1-36.8-13.6-55c-5.1-20.2-8.4-40.2-12.9-60.2
		c-13.9-1.8-27.5,6.8-27.5,6.8s-1,28.3,1.2,40.2c4.6,24.5,3.9,52.6,3.8,77.3c-15.4-20.6-23.9-51.4-35.6-74.5
		c-6.9-13.5-15-29.3-19-43.5c-8.9,4.7-20.3,6.7-32.7,14.5c11.1,19,13.9,48.6,20.2,70.3c4.8,16.5,10.2,36.9,12.3,54
		c-13-13.6-60.6-62.2-70.4-75.3c-12.8,8.6-16.4,8.7-26.7,20.2c9,11.9,26.4,43.6,34.4,55.4c8.9,13.1,16.7,27,25.8,39.8
		c-13.7-6-26.3-6.3-40.5-7.5c-8.8-0.7-35.8-10.3-35.8-10.3l-10.3,35.8c0,0,16.1,4.6,32.8,12.5c21,9.9,52,27.5,64.1,35.4
		c15,9.7,64.3,72.6,68.1,83.8c16.1-6.3,48.6-26,63.1-33.8c22.9-12.2,42.8-17.4,63.1-33.8C1151.2,760.6,1141.3,683.6,1141.3,683.6z"
		/>
	<path class="st4" d="M436.4,1049.3c0,0,56.7-13.8,78.2-13.8c12.2,0,54.3,6.4,61.4-1.2c2.3-2.5,2.4-24,1.9-28.3
		c-1.8-13,4.1-12.1-9.2-17.9c-23.8-10.2-57.7-22.6-81.8-29.9c14.1-17.5,36.4-28.2,54.5-42.2c20-15.5,40.6-29.1,60.6-44
		c-4.9-16.4-21.1-27.2-21.1-27.2s-32,12.7-44.2,21.1c-25,17.1-56.6,30.1-84.1,42.2c15.4-27.3,45.5-51.9,65.4-76.3
		c11.7-14.3,25.2-31.1,39.1-42.5c-9.6-7.6-17.4-19.3-32.2-29.3c-15.7,21.7-47.2,39.4-68.3,57c-16,13.4-36.1,29.6-54,40.2
		c8.7-21.1,39.4-98,49.2-115.4c-15.8-10-17.8-14-35.6-19.8c-8.8,15.8-35.5,50.8-44.8,65.5c-10.2,16.3-21.8,31.8-31.6,48.3
		c-0.1-18.2-5.9-32.4-11.5-48.8c-3.5-10.2-6.2-44.8-6.2-44.8l-44.8,6.2c0,0,2.8,20.2,2.2,42.6c-0.7,28.2-5.1,71.4-7.9,88.8
		c-3.5,21.4-49.2,107.3-59.8,116.9c15,14.9,52.8,41.3,68.6,53.6c24.9,19.5,40.3,39.1,68.6,53.6
		C355.6,1098.1,436.4,1049.3,436.4,1049.3z"/>
	<path class="st1" d="M161.7,496.1c3.8,14.4,31.1,25.5,45,31.2c14.5,5.9,25.4,13.7,42,15.1c19.7,1.7,43.9,3.2,62.5-5
		c18.4-8,32.6-25.6,48.1-38.1c15.1-12.2,31.3-22.1,46.7-33.3c-26.2-3.7-46.8-22-70.7-31.2c-19.6-7.5-36.1-12.6-57.7-15.2
		c-15.8-1.9-28.5-0.6-44.2,3.3c-20.4,5-31.5,25.2-45.6,39.5c-7.1,7.2-12.2,13.2-17.4,21.5C166.8,489.6,164.6,493.8,161.7,496.1z"/>
	<path class="st2" d="M297.3,652.7c-9.7-54.8,35-85.1,72.5-112.1c0.5,11.1,6.5,21.6,9.1,32c3.1,12.2,4.5,24.4,4.3,37.1
		c-0.6,30.9-22.8,45.9-49.6,58.6c-12.1,5.7-27,8.5-38.5,16.3C293.9,671.5,295.7,657.7,297.3,652.7z"/>
	<path class="st2" d="M613.8,1054.8c9.4,10.8,37.6,8.8,51.9,7.8c15-1,27.6,1,42.6-4.8c17.7-6.8,39.1-15.8,51.7-30.7
		c12.4-14.7,17.3-35.8,25.2-53.1c7.8-16.9,17.6-32.3,26.2-48.4c-24.1,7.9-49.5,0.8-74,3c-20.1,1.8-36.4,4.4-56,11.3
		c-14.4,5.1-24.8,11.6-36.6,21.5c-15.4,12.9-16.4,35-22.5,53.2c-3.1,9.1-4.9,16.5-5.9,25.8C615.4,1047,615.4,1051.5,613.8,1054.8z"
		/>
	<path class="st6" d="M331.4,406.5c8.6-6.2,9.1-27.1,9.4-37.8c0.3-11.1,2.7-20.3-0.5-31.8c-3.8-13.5-8.9-30-19.1-40.3
		c-10-10.2-25.3-15.3-37.4-22.4c-11.9-6.9-22.6-15.2-33.9-22.7c4.1,18.3-2.9,36.7-2.9,54.9c-0.1,14.9,0.7,27.2,4.4,42.2
		c2.7,11,6.8,19.1,13.3,28.6c8.5,12.3,24.7,14.6,37.8,20.4c6.5,2.9,11.9,4.8,18.7,6.2C325.8,404.7,329.2,405.1,331.4,406.5z"/>
	<path class="st3" d="M858.6,1105.7c-48.4-22.4-47.8-74.1-48.4-118.4c9,5.7,20.6,6.8,30.2,10.4c11.3,4.2,21.7,9.8,31.6,17
		c24,17.4,23.6,43.1,18.9,71.1c-2.1,12.7-8.1,25.9-8.3,39.2C871.5,1118.6,861.6,1109.6,858.6,1105.7z"/>
	<path class="st7" d="M720.3,1156.8c-15.7-53.4,25.2-88.5,59.5-119.5c1.7,10.9,8.8,20.8,12.7,30.8c4.5,11.7,7.2,23.7,8.4,36.4
		c2.9,30.8-17.5,48.2-42.7,63.8c-11.4,7.1-25.9,11.5-36.4,20.5C719,1175.8,719.3,1161.9,720.3,1156.8z"/>
	<path class="st5" d="M279,591.7c-12,53.6-64.2,64.2-108.6,74.5c3.8-10.3,2.3-22.2,3.9-32.6c1.8-12.3,5.1-24,10.2-35.5
		c12.3-28,38.2-33.1,67.5-34.5c13.2-0.6,27.8,2.5,41.2-0.2C289.2,575.9,282.3,587.8,279,591.7z"/>
	<g>
		<g>
			<path class="st2" d="M194.4,918.2c5.8-13.8,11.1-26.1,14-40.9c1.1-5.7,3.8-34.2-6.5-19.9c-8.4,11.7-12.3,28.1-13.1,42.6
				c-0.2,4.3-1.4,9.1-0.9,13.3c0.6,5.1,4.9,8,7.9,2"/>
		</g>
		<g>
			<path class="st2" d="M231.6,867.9c11.6-9.3,22.2-17.6,31.9-29.2c3.7-4.5,19.9-28.1,4.1-20.4c-12.9,6.4-24.1,18.9-31.9,31.1
				c-2.3,3.6-5.6,7.3-7.2,11.2c-2,4.8,0.3,9.2,5.7,5.4"/>
		</g>
		<g>
			<path class="st2" d="M190,783.6c2.7-14.7,5.2-27.9,4.9-43c-0.1-5.8-3.4-34.3-10.2-18.1c-5.6,13.3-5.9,30.1-3.7,44.4
				c0.6,4.2,0.5,9.2,1.9,13.2c1.7,4.9,6.3,6.8,7.9,0.3"/>
		</g>
		<g>
			<path class="st2" d="M299.2,842c-11.7,3.7-22.2,7-32.7,13.4c-4,2.5-22.3,17-7.5,16.2c12.2-0.6,24.1-7.3,33-15
				c2.6-2.3,6.2-4.2,8.3-7c2.6-3.4,1.6-8.2-3.8-6.9"/>
		</g>
		<g>
			<path class="st2" d="M173.5,785.9c-9.5-8.4-18-16.1-29.1-22.8c-4.2-2.6-26.2-13.4-17.3-1.6c7.3,9.7,19.3,17.6,30.6,22.6
				c3.3,1.5,6.9,3.8,10.3,4.8c4.2,1.1,7.5-1,3.5-5"/>
		</g>
		<g>
			<path class="st2" d="M275.6,890.7c13-3.4,26.4-2.4,39.2-6.9c3.2-1.1,23.4-8.6,11.1-12.1c-5.6-1.6-14.8,1.5-20.4,2.8
				c-6,1.4-11.5,2.9-17,5.3c-2.9,1.3-5.8,2.4-8.7,3.9c-1.7,0.9-8.6,4.9-2.9,5.9"/>
		</g>
		<g>
			<path class="st2" d="M131.7,792.7c-6.7,0.8-16.1,8.2-22.5,11.4c-6.6,3.3-13,7-19.3,10.6c-5,2.8-17.7,12.5-4.7,10.7
				c14.7-2,28.3-10.4,39.3-20.1c2.4-2.1,5.7-4.3,7.8-6.7c4.8-5.5,0.3-4.8-5.3-4"/>
		</g>
		<g>
			<path class="st2" d="M144.7,822c5.3,3.6,16.5,3.7,23,5.3c6.7,1.6,13.5,2.8,20.2,3.9c5.3,0.9,20.2,1.4,9.8-5.3
				c-11.7-7.6-26.6-9.8-40.3-9.2c-3,0.1-6.6-0.2-9.6,0.3c-6.8,1.2-3.1,3.5,1.3,6.4"/>
		</g>
		<g>
			<path class="st2" d="M194.8,842.1c-14.7,6.4-30.1,10.8-44.2,18.8c-3,1.7-7.2,4-9.4,6.6c-3,3.4-2.3,4,1.5,4.1
				c15.1,0.5,35.4-11.4,48.3-19.8c2-1.3,6.1-3.7,7.5-5.5c2.3-3,0.8-4.7-3.6-3.1"/>
		</g>
	</g>
	<g>
		<path class="st6" d="M970.6,427.4c-5.4-9-15.2-16.7-22-24.7c-9.1-10.6-19.9-19.2-30.9-28.1c-9.6-7.7-19.1-16.2-28.8-23.3
			c-9.5-7-19.3-17.5-29.6-23c-6.6,12.7-6,30.2-11.4,43.9c-4.8,12.1-6.5,25.2-10.9,37.5c-7.7,21.8-15.4,45.9-18.3,68.9
			c52.2-14.2,104.4-32.5,155.2-48.1c-0.6-1-0.7,0.1-1.4,0.6"/>
	</g>
	<g>
		<g>
			<path class="st2" d="M964.9,303.2c10.7-11.2,20.5-21.2,28.8-34.4c3.2-5.1,16.4-31.8,1.1-21.7c-12.6,8.2-22.4,22.7-28.5,36.4
				c-1.8,4-4.7,8.3-5.8,12.6c-1.3,5.2,1.8,9.6,6.9,4.9"/>
		</g>
		<g>
			<path class="st2" d="M933,346.9c-11.4,10.5-21.7,19.8-31,32.5c-3.6,4.9-18.6,30.5-2.9,21.4c12.9-7.5,23.7-21.2,30.8-34.4
				c2.1-3.9,5.3-7.9,6.7-12.1c1.7-5.1-0.9-9.6-6.3-5.2"/>
		</g>
		<g>
			<path class="st2" d="M1050.1,307.6c-15.2,3.1-28.9,5.8-43.3,11.9c-5.6,2.3-31.7,16.5-13.5,16.8c14.9,0.3,31.2-6,44.2-13.6
				c3.8-2.3,8.6-4.1,12-6.9c4.1-3.5,4.1-8.7-2.7-7.7"/>
		</g>
		<g>
			<path class="st2" d="M1067.4,352c-15-3.8-28.5-7.3-44.2-8.1c-6-0.3-35.7,1.2-19.4,9.3c13.4,6.7,30.7,8.1,45.7,6.9
				c4.4-0.4,9.5,0.1,13.8-1c5.2-1.4,7.5-6,0.9-8.1"/>
		</g>
		<g>
			<path class="st2" d="M977.2,315.1c13.7-9.4,29.5-14.8,42.6-25.3c3.3-2.6,24-19.6,8.9-17.3c-7,1-16.4,8.4-22.5,12.4
				c-6.4,4.2-12.3,8.3-17.7,13.3c-2.9,2.7-5.9,5.1-8.7,7.9c-1.6,1.6-8.2,8.9-1.4,7.3"/>
		</g>
		<g>
			<path class="st2" d="M884.3,267.7c5.1,4.8,17.2,7.5,24,10.5c7,3.1,14.1,5.8,21.2,8.5c5.5,2.1,21.7,6,11.7-3.3
				c-11.3-10.4-27-15.9-42-18.4c-3.3-0.5-7.2-1.7-10.5-1.8c-7.6-0.3-4,2.9,0.2,6.9"/>
		</g>
		<g>
			<path class="st2" d="M998.2,372.4c3.8,5.4,14.6,9.7,20.4,13.7c5.9,4.1,12,7.7,18.1,11.3c4.8,2.8,19.1,8.9,11.5-1.5
				c-8.5-11.8-22.1-19.4-35.6-23.9c-2.9-1-6.4-2.7-9.4-3.3c-7-1.3-4.3,2.3-1.1,6.7"/>
		</g>
		<g>
			<path class="st2" d="M886.4,321.8c16.2-4.1,32.7-6,48.5-11.7c3.4-1.2,8-2.9,10.7-5.1c3.6-3,3.1-3.7-0.8-4.5
				c-15.4-3.1-38.2,5.6-52.8,12.1c-2.3,1-6.9,2.7-8.6,4.3c-2.9,2.7-1.6,4.7,3.1,3.8"/>
		</g>
	</g>
</g>
</svg>
