<svg id="Camada_1" data-name="Camada 1" xmlns="http://www.w3.org/2000/svg" viewBox="0 0 1280 1280"><defs><style>.cls-1{fill:#50a545;}.cls-2{fill:#efcc3e;}.cls-3{fill:#e94941;}.cls-4{fill:#b25aa7;}.cls-5{fill:#f49725;}.cls-6{fill:#4b8ed2;}.cls-7{fill:#83c8e8;}.cls-8{fill:#f1eee9;}</style></defs><rect class="cls-1" x="-26" y="-26" width="1332" height="1332"/><path class="cls-2" d="M1066.15,695c0,24-12.06,41.28-14.88,65.63-2.24,19.37-5.19,52.44-16,67.68-35.37-30.07-59.46-61.64-88.13-97.43,17.17-9.37,39.81-16,61.1-19.16C1028.64,708.64,1066.15,695,1066.15,695Z"/><path class="cls-3" d="M267.79,961.29c7.94-1.75,17.54-.44,25.69-.86,10.81-.57,21.48.91,32.36,2.33,9.46,1.24,19.27,2.07,28.53,3.73,9,1.62,20.18,1.46,28.78,4.29-3.65,10.52-13.77,19.49-18.56,29.88-4.24,9.21-10.69,17.15-15.27,26.17-8.14,16-17.56,33.18-29,47.16-19.94-36.9-37.6-76.07-56-113,.89-.2.32.42.39,1.12"/><path class="cls-4" d="M267.22,959.91c-7.3-4.66-13.55-12.87-20-18.68-8.58-7.7-15.53-16.85-22.66-26.1-6.21-8.06-13-16.07-18.73-24.29-5.6-8-14.13-16.28-18.49-24.88,10.66-5.2,25.06-4.35,36.49-8.59,10.12-3.76,21-4.9,31.2-8.26,18.21-6,38.22-11.83,57.35-13.81-12.71,42.85-28.86,85.69-42.77,127.42-.83-.52.07-.57.55-1.15"/><path class="cls-4" d="M689,379.16c-1.19-8.58,1-18.66,1.22-27.36.3-11.53,2.76-22.74,5.18-34.18,2.1-9.94,3.8-20.3,6.34-30,2.47-9.47,3.23-21.32,7-30.21,10.87,4.75,19.56,16.25,30.2,22.2,9.43,5.27,17.32,12.78,26.52,18.4,16.36,10,33.8,21.42,47.7,34.7-40.86,18.11-83.94,33.6-124.73,50.07-.13-1,.48-.31,1.23-.32"/><path class="cls-5" d="M813.7,332.08c15.74-9.33,41.75-13.16,61.16-18.62,18.61-5.23,37-9.63,55.62-15.28-6.26-8.13-23.08-18.09-31.33-26-9.34-9-19.82-16.28-28.86-25.69-8.2-8.54-16.65-17.29-24.81-25.86-7.63-8-19.66-15.85-25.17-25.11a3.73,3.73,0,0,0-2,.36c-1.17,13,2.95,25.61,1.8,38.95-1.1,12.77-1.66,25.64-3.1,38.26-2.06,18,.92,43-7.55,59.17"/><path class="cls-6" d="M816.94,195.17c-11.34-6-20.33-14.91-30.88-21.93-12.18-8.12-9-6.31-21.28-14.46-13.72-9.12-26.79-14.25-39.43-24.9C717.21,127,701.21,113.21,692,108c7,30.1,3.14,45.33,4.55,77.16.86,19.44,3.46,37.22,6.57,56.48C703.12,241.64,780.19,212.82,816.94,195.17Z"/><path class="cls-7" d="M1143.23,925.72c-10.13-7.41-17.58-17.26-26.8-25.53-10.66-9.56-7.86-7.36-18.57-17-12-10.75-23.92-17.53-34.66-29.6-6.91-7.76-20.45-23.38-28.63-29.7,2.51,30.09-3.3,44.29-6.39,75.27-1.88,18.92-1.85,36.48-1.55,55.55C1026.63,954.75,1105.21,937.65,1143.23,925.72Z"/><path class="cls-3" d="M1037.78,824.76c10.07,7.48,17.45,17.38,26.62,25.71,10.59,9.63,7.8,7.42,18.45,17.09,11.92,10.83,23.8,17.7,34.45,29.84,6.86,7.81,20.3,23.51,28.43,29.89-2.3-30.1,3.61-44.26,6.91-75.22,2-18.91,2.1-36.47,1.93-55.54C1154.57,796.53,1075.88,813.09,1037.78,824.76Z"/><path class="cls-8" d="M762.15,1011c-14.88-10.84-29.93-21.84-41.67-36-9.62-11.63-30.24-39-31-40.87a13.86,13.86,0,0,1-.68-4.58c-1.13-31.08-.12-97.8.65-99.91a21,21,0,0,1,3.6-5.74c19.82-25,74.3-72,74.3-72a69.93,69.93,0,0,1,7.77-1.43c19.23-1.44,38.54-.08,57.77,1.29l44.19,3.13,8.11,4.83c25.58,22.48,40.76,44.14,62.33,70.5a11.12,11.12,0,0,1,1.92,2.94,11,11,0,0,1,.43,4.24L947.64,916c-.24,8.45-3.8,19.09-2.29,28.3l-2.68,3.41c-26.82,24.87-44.92,43.24-71.74,68.12,0,0-17.3.94-25-1.17-7.43-2-16-2.35-24.23-2.4C802.16,1012.15,762.15,1011,762.15,1011Z"/><path class="cls-8" d="M195.64,743.18A1681.51,1681.51,0,0,1,171,555.94c-2.89-38.56-11.27-76.29-15-114.93-2.08-21.31-12.14-40.82-18.7-61.52,49.37-14.41,119.84-34.2,171.69-19.42,55.26,15.76,64,78,40.56,121-13.68,25.09-37.61,39.94-57.35,59.79,56.71-14.31,154.87-6.87,187,48.61,13.94,24.1,11.9,62.45,5.63,88.21-12.59,51.75-69.14,65.9-119.2,81.23-29.91,9.16-60.38,16.74-90.62,24.25-21.77,5.4-47.84,8.12-68.14,16.84C203.48,778.36,204.49,752.76,195.64,743.18Z"/><path class="cls-8" d="M458.15,451c8.74-12,28.79-31.32,39.42-30.66,4,4.05,18.5,23.07,20.32,28.81C530.35,419,610,402.85,656.69,427.67c3.17,12.38-15.22,50.61-17.52,64.23-37.48-13.91-63.15-19.81-84,5.47-22.91,27.78-14.52,49.85,9.54,112.78,4.94,12.93,45.48,99.42,43.79,109.49-15.48,1.93-67,9-80.29,16.05-2.86-40.1-12.56-79.32-17.14-119.69-2.79-24.6-8.89-48.64-12.91-73.29C495.59,526.89,481.51,467.09,458.15,451Z"/><path class="cls-8" d="M420.3,804.85l26.17-7.61S485.83,815,497.3,828.72c28.3,33.87,44.76,76.33,53.56,118.33,4,19,8.83,38,11.69,57.34,2.91-64.29.25-130.77,19.28-193.1,4.65-15.25,23.15-46,23.15-46s55,8.26,66.47,21.24C634,813,628.41,896.11,625.9,920.37c-2.86,27.74.26,53.45.64,81.06.31,22.16,7.21,43.41,7.55,65.36-17.16-1.69-34.67,4.79-51.5,7.27-17.54,2.58-35.3,7.55-52.24,12.92-1.11-27.81-12.65-55.62-23.18-81.42-14.94-36.63-33.08-72.72-59.11-102.7C426,877.45,403.91,830,366.2,828.76,378.56,818.44,412.62,807.08,420.3,804.85Z"/><path class="cls-8" d="M1012.52,616.4c-5.37-14.41-10.8-28.28-11.83-43.11-9.59,3.31-17.24,11.22-28.38,13.1-19.53,3.31-34.85-5.23-45.21-21.72-20.25-32.22-27.39-72.73-44.19-106.9-11.73-23.86-22.46-51.66-50.37-60.43-36.45-11.46-81.21,3.88-111.8,23.83-12,7.86-47.92,34.62-49,47C688.62,479,704.18,490.22,713.62,508c7.54-30.84,29-43.45,59.85-51.09,29.18-7.24,41.56,1.2,52.47,24.69,5.38,11.58,14.15,26.43,15.38,39.54-34.32,1.85-66.2,3.36-99.57,13.77-39.24,12.24-55.74,37-62.51,76.72-5.18,30.34,10.18,73.07,41.41,82.82,32,10,73,2,103.41-10.84,30.67-13,49.71-38.9,61.56-68.59,13,42.65,49.57,41.78,87.41,33.25,10.1-2.27,29.77-3.79,38-9.28C1021.15,632.22,1016.9,628.14,1012.52,616.4Z"/><path class="cls-5" d="M265.82,249.68C270.54,231.41,275,215,275.94,196c.37-7.33-1.49-43.48-11.76-23.69-8.43,16.22-10.23,37.37-8.6,55.57.48,5.37-.1,11.59,1.33,16.77,1.73,6.29,7.58,9.12,10.25,1.1"/><path class="cls-5" d="M257.94,315c-5.84,17.91-11.28,34-13.54,52.91-.87,7.28-1.62,43.45,9.68,24.39,9.26-15.64,12.49-36.62,12.2-54.88-.08-5.38.91-11.55-.1-16.81-1.23-6.39-6.67-9.58-9.81-1.76"/><path class="cls-5" d="M358.81,203.62C344.57,216,331.63,226.91,319.93,242c-4.51,5.79-23.81,36.4-4.29,25.89,16-8.62,29.58-24.93,38.75-40.72,2.71-4.66,6.74-9.43,8.59-14.46,2.24-6.11-.78-11.65-7.5-6.57"/><path class="cls-5" d="M403.6,240.54c-18.18,4.94-34.58,9.21-51.66,17.71-6.56,3.27-37.22,22.49-15.08,21.47,18.15-.83,37.47-9.65,52.57-19.9,4.46-3,10.17-5.58,14-9.32,4.66-4.53,4.35-10.83-3.91-9.17"/><path class="cls-5" d="M286,254.94c9-18.2,22.49-33.18,30.18-52.19,1.93-4.76,13.83-35-.85-23.62-6.76,5.25-12.43,18.71-16.5,26.51a162.48,162.48,0,0,0-10.91,24.66c-1.52,4.62-3.21,9-4.52,13.6-.76,2.72-3.45,14.36,2.85,8.59"/><path class="cls-5" d="M159.15,260c8.26,2.1,22.67-2.29,31.76-3.09,9.27-.82,18.45-2.22,27.58-3.57,7.13-1.06,26.58-6.56,10.47-10.43-18.17-4.35-38.08-.84-55.51,5.52-3.79,1.38-8.64,2.45-12.22,4.29-8.22,4.22-2.55,5.46,4.31,7.18"/><path class="cls-5" d="M342.31,303.27c7.29,3.49,21.26,1.64,29.76,2.42,8.67.8,17.35,1,26,1.23,6.74.19,25.53-1.88,11.3-8.46-16.06-7.42-35-7.39-52-4.13-3.71.71-8.35.92-11.94,2.12-8.24,2.75-3.21,4.94,2.84,7.82"/><path class="cls-5" d="M193.51,316.09c14.75-13.92,31.12-25.8,44.5-41.31,2.86-3.31,6.81-7.87,8.35-11.84,2.06-5.31,1-5.73-3.51-4.24-18.18,5.92-37.17,28.68-48.92,44.21-1.83,2.44-5.67,7-6.52,9.68-1.44,4.57,1.12,6,5.59,2.19"/><path class="cls-2" d="M364.4,409c-4,1.86-8,3.74-12.34,4.55-3.55.67-11.65,1.82-12.13,1.76a3.31,3.31,0,0,1-1-.39c-6.63-3.35-20.47-11.27-20.82-11.68a4.85,4.85,0,0,1-.78-1.41c-2.93-7-6.47-23.85-6.47-23.85a17.08,17.08,0,0,1,.6-1.79,94.14,94.14,0,0,1,6.95-11.93l5.76-8.88,1.94-1.14c7.66-2.75,13.94-3.42,21.94-4.89a2.65,2.65,0,0,1,.84-.06,2.78,2.78,0,0,1,.94.4L366,359.22c1.74,1,3.55,3,5.65,3.75l.41.95c2.1,8.48,3.85,14.39,5.95,22.87a26.85,26.85,0,0,1-3.13,5.09,23.35,23.35,0,0,0-3.3,4.79C369.27,400.74,364.4,409,364.4,409Z"/><path class="cls-6" d="M196.1,501.23c-5.26,2.45-10.59,4.93-16.3,6-4.68.89-15.37,2.41-16,2.32a4.23,4.23,0,0,1-1.36-.51c-8.76-4.43-27-14.88-27.49-15.41a6.56,6.56,0,0,1-1-1.87c-3.87-9.28-8.54-31.49-8.54-31.49a22.11,22.11,0,0,1,.8-2.37,124.44,124.44,0,0,1,9.16-15.75l7.61-11.72,2.57-1.5c10.1-3.63,18.4-4.52,29-6.46a3.78,3.78,0,0,1,1.11-.08,3.58,3.58,0,0,1,1.24.53l21.37,12.62c2.29,1.35,4.68,4,7.46,4.95l.53,1.26c2.77,11.2,5.09,19,7.86,30.19,0,0-2.38,4.92-4.13,6.72a31,31,0,0,0-4.36,6.32C202.53,490.36,196.1,501.23,196.1,501.23Z"/><path class="cls-4" d="M918.69,1003.32c-20.15-8.26-38.2-15.9-59.82-20-8.32-1.57-50-5.11-28.93,9.74,17.22,12.17,41.13,17.54,62.2,18.54,6.21.29,13.24,1.93,19.39,1.11,7.46-1,11.6-7.25,2.86-11.56"/><path class="cls-4" d="M844.89,949.69c-13.77-16.83-26-32.12-43-46.12-6.54-5.38-41.21-28.65-29.73-5.8,9.42,18.74,27.79,35,45.7,46.06,5.29,3.27,10.66,8.08,16.41,10.38,7,2.78,13.46-.52,7.82-8.44"/><path class="cls-4" d="M806.32,851.42c5.58,17,10.4,32.29,19.86,47.46,3.64,5.84,25,32.33,23.7,10.72-1.07-17.71-10.9-35-22.28-47.94-3.36-3.81-6.21-8.93-10.34-12-5-3.72-11.93-2.19-10,5.62"/><path class="cls-4" d="M726.12,1035.41c-12.18,14-23.27,26.46-32.93,42.63-3.72,6.22-19.24,38.39-2.1,25.3,14-10.73,25.35-28.4,32.64-44.87,2.15-4.86,5.51-10,6.85-15.12,1.62-6.16-1.54-10.95-7.34-5"/><path class="cls-4" d="M877.67,885.29c-5.07-18.84-3.76-38.48-10.54-57-1.7-4.64-12.8-34-17.71-16.08-2.26,8.23,2.34,21.53,4.31,29.76,2.1,8.75,4.33,16.76,8,24.69,2,4.29,3.56,8.48,5.73,12.63,1.27,2.43,7.22,12.44,8.7,4.14"/><path class="cls-4" d="M736.46,1096.28c1.3,9.76,12.19,23.31,16.95,32.7,4.86,9.58,10.3,18.81,15.67,28,4.19,7.18,18.44,25.66,15.66,6.74-3.13-21.33-15.44-41.16-29.74-57.09-3.11-3.47-6.34-8.21-9.85-11.25-8-7-6.94-.39-5.84,7.7"/><path class="cls-4" d="M779.13,1076.93c5.13-7.79,5.21-24,7.44-33.65,2.26-9.8,3.85-19.69,5.48-29.52,1.26-7.67,1.84-29.48-7.91-14.24-11,17.19-13.94,38.82-12.88,58.84.23,4.36-.25,9.7.56,14,1.85,9.85,5.14,4.45,9.38-2"/><path class="cls-4" d="M807.75,1003.62c9.51,21.4,16.18,43.76,27.93,64.27,2.51,4.38,6,10.42,9.7,13.62,5,4.28,5.84,3.34,6-2.2.5-22.06-17-51.45-29.42-70.18-1.94-2.94-5.44-8.86-8-10.81-4.43-3.32-6.91-1.06-4.53,5.25"/></svg>