<svg id="Camada_1" data-name="Camada 1" xmlns="http://www.w3.org/2000/svg" viewBox="0 0 1280 1280"><defs><style>.cls-1{fill:#83c8e8;}.cls-2{fill:#efcc3e;}.cls-3{fill:#50a545;}.cls-4{fill:#f49725;}.cls-5{fill:#f1eee9;}.cls-6{fill:#b25aa7;}.cls-7{fill:#4b8ed2;}.cls-8{fill:#e94941;}</style></defs><rect class="cls-1" x="-26" y="-26" width="1332" height="1332"/><path class="cls-2" d="M743.19,1112.81c-12.79-8.87-25.73-17.87-35.92-29.63-8.36-9.65-26.32-32.35-27-33.94a11.89,11.89,0,0,1-.67-3.85c-1.56-26.24-2-82.65-1.41-84.45a17.75,17.75,0,0,1,2.94-4.92c16.26-21.48,61.38-62.28,61.38-62.28a57.4,57.4,0,0,1,6.54-1.35c16.22-1.6,32.57-.83,48.85,0l37.4,1.79,6.94,3.92c22.07,18.49,35.32,36.5,54.06,58.35a7,7,0,0,1,2.13,6l-.36,66.52c0,7.14-2.84,16.2-1.38,24l-2.2,2.93c-22.19,21.54-37.11,37.43-59.3,59,0,0-14.6,1.14-21.14-.49-6.31-1.57-13.59-1.67-20.52-1.56C777,1113,743.19,1112.81,743.19,1112.81Z"/><path class="cls-3" d="M751,457.87c-12.83,4.65-25.82,9.35-39.4,10.68-11.14,1.1-36.49,2.45-38,2.12a10.53,10.53,0,0,1-3.1-1.48C651,457,610.4,428.75,609.42,427.41a15.47,15.47,0,0,1-2-4.6c-7.13-22.52-13.45-75.48-13.45-75.48a51.25,51.25,0,0,1,2.34-5.36c7.08-12.42,15.91-23.72,24.72-35l20.23-25.86,6.32-3c24.42-6.41,44-6.78,69.15-9.11a8.16,8.16,0,0,1,2.61,0,8.06,8.06,0,0,1,2.78,1.49l47.41,34c5.09,3.65,10.15,10.24,16.44,13.13l1,3.06c4.17,26.79,8,45.52,12.15,72.31,0,0-6.59,11-11.07,14.88-4.32,3.72-8.08,8.87-11.51,13.89C768.31,433.77,751,457.87,751,457.87Z"/><path class="cls-4" d="M266,510.09c-5.06,3.63-10.19,7.29-16,9.54-4.76,1.85-15.73,5.57-16.42,5.6a4.54,4.54,0,0,1-1.54-.27c-10.1-2.94-31.41-10.37-32-10.84a6.89,6.89,0,0,1-1.46-1.76c-5.9-9-15.2-31.51-15.2-31.51a23,23,0,0,1,.37-2.65,134.41,134.41,0,0,1,6.56-18.41l5.71-13.85,2.41-2.09c9.94-5.82,18.51-8.38,29.26-12.5a4,4,0,0,1,1.15-.31,3.63,3.63,0,0,1,1.41.32l25,9.09c2.68,1,5.72,3.25,8.84,3.75l.8,1.22c5.13,11.26,9.11,19,14.24,30.28,0,0-1.54,5.65-3,7.89a33.52,33.52,0,0,0-3.35,7.52C270.67,497.38,266,510.09,266,510.09Z"/><path class="cls-5" d="M304.36,343.05c39,56.28,124.88-18.95,176-.44,71.19,25.78,37.76,97.58,37.16,152.55-.34,30.24,4.8,103.16,48.64,99.87-1.5-31.77,17.24-81.85,36.93-107.46,21-27.33,48.21-62,76-82.89,37.78-28.46,87.43-38,131.44-53.92,40.58-14.68,82.28-25.18,125.54-25.31,36.9,38.19,19.2,136.21,1.58,179.39-28.26,69.24-91.7,137.28-155.59,174.54-25.33,14.76-71.54,24.83-90.45,45,4.2,17.07,40,36.65,54.81,46.83,21.64,14.82,54.05,18.35,80.13,15.31,23-2.68,45.1-10.78,67.68-13.57,25.28-3.12,56.57-6.38,81.44-1.74,19.08,3.56,36.28,13.75,49.68,27.58-53.35-7.28-111.93,58.75-143.76,92.69-21.33,22.76-43,62.76-51.76,93.2-4.12,14.31-3.29,28.43-3.28,43.27v21.08c-34.82-36.17-27.81-96.79-53.52-138-29.13-46.64-102.13-18.24-143.53-6.28C565,923.45,493.2,924.59,425.71,906.32,327.88,879.85,248.6,769.81,270.89,666.14c14.4-66.95,77-111.41,82.8-181.15C358.39,428,344.88,382.94,304.36,343.05Z"/><path class="cls-3" d="M537.14,949c-9.91,0-19.74-1.41-29.95-1.44-7.92,0-33.21-3.18-39.22,2.7-9.11,8.91-2.36,59.64-5,73.51,22.25,8.74,50.21-2.86,72.76-3.19,3.63-24,.34-49.27,1.43-73"/><path class="cls-2" d="M540.33,805.13c-9.91,0-19.74-1.41-30-1.43-7.91,0-33.2-3.18-39.21,2.69-9.11,8.91-2.37,59.64-5,73.52,22.24,8.73,50.2-2.87,72.75-3.2,3.63-24,.34-49.26,1.43-73"/><path class="cls-4" d="M465.39,582.84c-9.91,0-19.75-1.41-29.95-1.44-7.92,0-33.21-3.18-39.22,2.7-9.11,8.9-2.36,59.64-5,73.51,22.24,8.74,50.2-2.87,72.75-3.19,3.63-24,.35-49.27,1.44-73"/><path class="cls-6" d="M465.39,805.13c-9.91,0-19.75-1.41-29.95-1.43-7.92,0-33.21-3.18-39.22,2.69-9.11,8.91-2.36,59.64-5,73.52,22.24,8.73,50.2-2.87,72.75-3.2,3.63-24,.35-49.26,1.44-73"/><path class="cls-6" d="M308.78,958.79c-9.91,0-19.75-1.41-29.95-1.43-7.92,0-33.21-3.18-39.22,2.69-9.11,8.91-2.36,59.64-5,73.51,22.25,8.74,50.2-2.86,72.75-3.19,3.63-24,.35-49.27,1.44-73"/><path class="cls-4" d="M619.4,806.9c0-9.91,1.41-19.75,1.44-29.95,0-7.92,3.18-33.21-2.7-39.22-8.9-9.11-59.64-2.36-73.51-5-8.74,22.25,2.87,50.2,3.19,72.75,24,3.63,49.27.35,73,1.44"/><path class="cls-4" d="M308.78,882.17c-9.91,0-19.75-1.41-29.95-1.44-7.92,0-33.21-3.18-39.22,2.7-9.11,8.9-2.36,59.64-5,73.51,22.25,8.73,50.2-2.87,72.75-3.19,3.63-24,.35-49.27,1.44-73"/><path class="cls-7" d="M391.21,805.63c0-9.91,1.41-19.75,1.43-30,0-7.92,3.18-33.21-2.69-39.22-8.91-9.11-59.65-2.36-73.52-5-8.73,22.24,2.87,50.2,3.2,72.75,24,3.63,49.26.35,73,1.44"/><path class="cls-8" d="M389.45,730.65c0-9.91,1.41-19.74,1.44-29.95,0-7.91,3.18-33.2-2.7-39.21-8.9-9.11-59.64-2.37-73.51-5-8.74,22.24,2.87,50.2,3.19,72.75,24,3.63,49.27.34,73,1.43"/><path class="cls-8" d="M699.14,737c0-9.91,1.41-19.75,1.44-29.95,0-7.92,3.18-33.21-2.7-39.22-8.9-9.11-59.64-2.36-73.51-5-8.73,22.24,2.87,50.2,3.19,72.75,24,3.63,49.27.35,73,1.44"/><path class="cls-1" d="M389.89,661c.29,9.9-.88,19.77-.63,30,.19,7.92-2.29,33.28,3.74,39.13,9.15,8.87,59.68.77,73.62,3.05,8.14-22.47-4.21-50.11-5.14-72.64-24.07-3-49.26,1-73,.52"/><path class="cls-7" d="M464.27,878.59c-23.34-.07-50.33-6.15-73.11-2.46-1.16,26.16-2.81,53-1.88,79.12,8.64-7.49,30.84-6.89,41.81-7.86,5.83-.51,26,2.61,30.21-1.06,4.57-4,1.87-29.8,2.05-37.22.11-5,1.59-9.84,1.64-14.51.07-5.24-2.28-9.92-1.64-15.08"/><circle class="cls-6" cx="453.05" cy="413.87" r="14.88"/><path class="cls-4" d="M688.44,196.9c4.17-15.2,8.08-28.84,9.11-44.74.4-6.12-.71-36.34-9.53-19.94-7.24,13.45-9,31.1-7.87,46.33.33,4.49-.23,9.68.9,14,1.37,5.27,6.23,7.7,8.56,1"/><path class="cls-4" d="M681,251.37c-5.1,14.89-9.83,28.24-12,44-.82,6.08-1.89,36.29,7.78,20.5,7.94-12.95,10.89-30.44,10.88-45.69,0-4.51.9-9.65.12-14.06-1-5.35-5.46-8.08-8.18-1.59"/><path class="cls-4" d="M766.69,159.56c-12.05,10.13-23,19.13-33,31.56-3.83,4.78-20.33,30.12-3.9,21.58,13.47-7,25-20.47,32.88-33.54,2.32-3.86,5.75-7.8,7.35-12,2-5.08-.5-9.74-6.18-5.58"/><path class="cls-4" d="M803.66,191c-15.25,3.91-29,7.27-43.38,14.16-5.52,2.65-31.37,18.33-12.86,17.76,15.17-.48,31.42-7.6,44.17-16,3.76-2.48,8.55-4.54,11.81-7.61,4-3.73,3.77-9-3.15-7.71"/><path class="cls-4" d="M705.19,201.54c7.71-15.09,19.19-27.44,25.86-43.22,1.66-4,12-29.1-.42-19.75-5.71,4.3-10.62,15.48-14.11,21.94A135.72,135.72,0,0,0,707.1,181c-1.33,3.84-2.8,7.44-4,11.31-.67,2.26-3.06,12,2.28,7.21"/><path class="cls-4" d="M599.19,204.19c6.88,1.86,19-1.64,26.57-2.19,7.76-.57,15.44-1.63,23.09-2.64,6-.8,22.28-5.16,8.87-8.58-15.12-3.87-31.8-1.18-46.44,3.92-3.18,1.11-7.25,1.94-10.26,3.43-6.92,3.43-2.2,4.53,3.51,6.05"/><path class="cls-4" d="M751.68,242.61c6,3,17.74,1.64,24.83,2.4s14.49,1,21.69,1.35c5.63.24,21.36-1.26,9.54-6.93-13.31-6.4-29.11-6.61-43.41-4.1-3.11.55-7,.67-10,1.63-6.92,2.19-2.75,4.09,2.28,6.56"/><path class="cls-4" d="M627.2,251.49c12.5-11.45,26.32-21.17,37.69-34,2.43-2.73,5.79-6.49,7.12-9.79,1.79-4.41,1-4.78-2.88-3.59-15.26,4.73-31.41,23.51-41.41,36.34-1.57,2-4.83,5.77-5.57,8-1.26,3.8.86,5,4.64,1.9"/><path class="cls-3" d="M594.66,1010.47c7.94,13.62,14.94,26,25.57,37.82,4.09,4.57,26.45,24.94,20.91,7.15-4.53-14.58-15.9-28.2-27.57-38.05-3.44-2.9-6.75-6.94-10.65-9.17-4.73-2.72-9.86-1-6.73,5.38"/><path class="cls-3" d="M613.44,1073.78c.49,15.74.78,29.9,4.37,45.42,1.38,6,11.05,34.62,14.52,16.43,2.85-14.92-.57-32.32-6-46.59-1.59-4.21-2.56-9.34-4.85-13.19-2.78-4.67-8-5.64-8.21,1.4"/><path class="cls-3" d="M592.32,1147.23c4.26-12.19,8.24-23.13,9.49-36,.48-5-.12-29.58-8.89-16.59-7.19,10.64-9.17,24.93-8.32,37.36.25,3.66-.37,7.86.66,11.44,1.24,4.35,5.89,6.52,8.24,1.2"/><path class="cls-3" d="M719.43,1076.85c13.16-2.67,25-4.95,37.7-10,4.88-1.94,28-13.58,12.35-13.61-12.8,0-27.07,5.15-38.52,11.4-3.38,1.85-7.59,3.34-10.59,5.67-3.65,2.83-3.94,7,2,6.14"/><path class="cls-3" d="M566.24,1096.35c-5.39,13.05-14.79,23.76-19.07,37.41-1.07,3.41-7.61,25.15,3.09,17,4.93-3.74,8.14-13.41,10.63-19a94.5,94.5,0,0,0,6.3-17.7c.76-3.32,1.69-6.43,2.27-9.78.34-2,1.33-10.32-3.17-6.21"/><path class="cls-3" d="M740.31,1037.32c3.55-6.18,3.26-18.76,4.66-26.25,1.43-7.65,2.37-15.34,3.33-23,.76-6,.71-22.86-6-10.77-7.6,13.64-9.26,30.45-8.07,45.91.26,3.36,0,7.5.71,10.8,1.55,7.56,3.82,3.28,6.74-1.86"/><path class="cls-3" d="M707.27,1029.65c-6.38,2.21-13.59,11.52-19.1,16.06s-10.88,9.61-16.15,14.54c-4.11,3.85-14,16.13-1.73,11.66,13.9-5,25.11-16.16,33.32-28.13,1.78-2.6,4.41-5.46,5.84-8.28,3.28-6.48-1-4.82-6.28-3"/><path class="cls-3" d="M658.53,1059.16c4-16.48,10-32.27,12.26-49.23.49-3.62,1.17-8.62.43-12.1-1-4.66-1.88-4.49-4.4-1.36-10,12.45-12.89,37-14,53.28-.17,2.54-.77,7.49-.14,9.75,1.08,3.85,3.5,3.65,4.91-1"/><path class="cls-2" d="M887.17,400.33c-11.6,8.12-22.66,19.58-33.5,29.17-8.63,7.63-23.66,20.23-27.38,30.61,26.51,7,55.61,9.22,82.64,11-1.26-11.48-9-26.31-12.36-38.57-3.07-11.16-5.68-24.54-9.13-33.25"/><path class="cls-2" d="M1050.07,436.12c-12.36,6.9-17.85,18.07-29.61,26.51-9.36,6.71-25.59,17.71-30.36,27.67,25.67,9.63,48.88,13,75.58,17.56-.08-11.55-3.16-25.14-7.63-37C1053.77,459.41,1050.07,436.12,1050.07,436.12Z"/><path class="cls-3" d="M908.51,471.71c13,5.49,28.64,8.75,42.53,12.83,11.05,3.24,29.72,9.25,40.49,6.88-8.2-26.16-21.81-52-34.67-75.82-9.05,7.18-17.5,21.62-26.07,31C923,455.14,913,464.47,907.5,472"/><path class="cls-3" d="M954.93,605.93c11.29,4.76,20.89,2.84,32.92,6.37,9.57,2.8,27.22,10.05,38.95,10.7-7.11-22.64-18.88-45-30-65.64-7.83,6.21-15.15,18.71-22.57,26.84-6.76,7.39-15.37,15.47-20.16,22"/><path class="cls-6" d="M955.77,606.86c0,4.8,1.93,10.18,2.7,14.94,1,6.31,3.19,12.29,5.37,18.39,1.89,5.31,3.59,10.87,5.7,16s3.35,11.47,6.05,16.08c5.62-3.41,9.55-10.37,14.95-14.43,4.79-3.59,8.57-8.3,13.21-12.07,8.24-6.69,17-14.27,23.63-22.59-23.79-6.92-48.6-12.24-72.22-18.27,0,.54.29.14.7.09"/><path class="cls-4" d="M994.69,559.28c4.3,3.66,10.63,6,15.5,8.91,6.45,3.87,13.49,6.44,20.63,9.11,6.22,2.33,12.52,5,18.75,7s12.87,5.68,19.07,6.74c1.19-7.65-2.1-16.46-1.65-24.41.39-7-1-14-.85-21,.22-12.5,0-26.11-2.42-38.42-24.28,16.17-47.89,34.48-71.24,51.18.48.41.34-.16.61-.57"/><path class="cls-4" d="M775.4,510.51c4.56-2.31,8.71-6.77,12.85-9.81,5.5-4,10.11-9,14.84-14,4.11-4.37,8.56-8.69,12.41-13.19s9.26-8.75,12.31-13.55c-6-3.67-14.47-4-20.94-7.17-5.74-2.79-12-4.09-17.87-6.66-10.35-4.57-21.78-9.17-32.9-11.44,5,25.92,12,52,17.75,77.37.51-.26,0-.34-.26-.71"/><path class="cls-6" d="M909.27,473.69c3.72,10.17,3.11,25.72,4.17,37.61,1,11.4,1.58,22.57,2.83,34,5.41-2.75,13-11.46,18.56-15.39,6.24-4.45,11.63-9.76,18.09-14,5.86-3.84,11.87-7.8,17.75-11.62,5.5-3.57,11.37-9.71,17.36-11.91a2.19,2.19,0,0,0,0-1.19c-7.43-2.1-15.22-1.08-22.85-3.2-7.32-2-14.75-3.76-21.93-6-10.26-3.17-25.14-4.16-33.61-10.85"/><path class="cls-2" d="M808.29,579.35c-.1-10.42-8.43-22.09-12.3-31.67-2.71-6.7-5.94-13.29-8.87-20-3-7-8.59-12.13-11.54-19a2.32,2.32,0,0,1,.9-.74c5.34,3.09,13.59,3.66,19.67,5.54,6.49,2,13.17,4,19.68,6,7.16,2.18,14.49,2.91,21.68,4.79,6.37,1.66,16.45,7.55,23,4.26-7.95,8-16.09,15.34-24.13,23.14-8.39,8.15-28,27.53-28,27.53Z"/><path class="cls-8" d="M916.48,545.39c11.65-7.81,21.87-21.82,33.6-30,12.78-8.93,27.25-15.59,39.95-24.81,1,12.12,3.85,27.34,5.69,39.46,1.47,9.69,1.13,19.66,2,29.5-6.58,1.39-18-2.92-24.75-4.56-8.23-2-16.65-4.21-25-5.59C937.57,547.65,916.48,545.39,916.48,545.39Z"/><path class="cls-8" d="M1026.75,623.41a233.06,233.06,0,0,1,28.31,9.3c12.87,4.91,28.47,13.23,41.52,17.92-9.47,7.11-21.3,14.21-30.77,20.12-7.4,4.63-19.19,12.25-26,17.76-2.37-5.92-.79-13.87-2.86-19.58-2.53-7-3.39-17.08-5.42-24.21C1029.12,636.43,1026.75,623.41,1026.75,623.41Z"/><path class="cls-8" d="M808.2,579.94c-2.07-9.32-8.38-27.53-13.26-36-6.1-10.63-14.23-23.8-19.58-34.73-8.5,13.19-16.14,20.91-27.13,32.37-9.89,10.34-16.81,16.74-24.85,28.24C723.38,569.78,802.57,583.61,808.2,579.94Z"/><path class="cls-7" d="M996.1,561.14c5.27-5.17,11.72-8.54,17.41-13.1,6.57-5.27,5-3.85,11.63-9.15,7.4-5.93,12.49-12.2,20.53-17.27,5.18-3.27,15.55-9.63,20-13.76-17.71-1.45-25.4-6.19-43.09-11a276.08,276.08,0,0,0-32.12-6.26S992.83,537.91,996.1,561.14Z"/><path class="cls-1" d="M775.37,509.1c7.32,1,13.92,4.07,21,5.79,8.19,2,6.13,1.64,14.35,3.64,9.21,2.24,17.29,2.44,26.22,5.72,5.74,2.1,17.11,6.44,23.11,7.44-9.67-14.91-10.6-23.89-17.61-40.83a278.18,278.18,0,0,0-14.65-29.25S791.78,492.34,775.37,509.1Z"/></svg>