<?xml version="1.0" encoding="utf-8"?>
<!-- Generator: Adobe Illustrator 24.2.0, SVG Export Plug-In . SVG Version: 6.00 Build 0)  -->
<svg version="1.1" id="Camada_1" xmlns="http://www.w3.org/2000/svg" xmlns:xlink="http://www.w3.org/1999/xlink" x="0px" y="0px"
	 viewBox="0 0 1280 1280" style="enable-background:new 0 0 1280 1280;" xml:space="preserve">
<style type="text/css">
	.st0{fill:#F49725;}
	.st1{fill:#EFCC3E;}
	.st2{fill:#F1EEE9;}
	.st3{fill:#B25AA7;}
	.st4{fill:#83C8E8;}
	.st5{font-family:'Poppins-Bold';}
	.st6{font-size:60.6482px;}
	.st7{fill:#E94941;}
	.st8{fill:#50A545;}
	.st9{fill:#4B8ED2;}
</style>
<g>
	<rect x="-12" y="-12" class="st0" width="1303.9" height="1303.9"/>
	<g>
		<path class="st1" d="M414,419.5c-7-8-14.1-16.2-18.9-25.7c-3.9-7.8-12.1-25.9-12.3-27.1c-0.1-0.9,0-1.8,0.2-2.7
			c3.4-17.7,12.5-55.3,13.2-56.4c0.7-1.1,1.7-2,2.8-2.8c14.4-11.6,51.3-31.1,51.3-31.1s3.1,0,4.6,0.2c11.1,1.7,21.8,4.9,32.5,8.2
			c8.2,2.5,16.4,5,24.6,7.5l4,3.8c11.6,16,17.4,30.2,26.2,47.9c0.3,0.6,0.6,1.2,0.7,1.9c0.1,0.8-0.1,1.6-0.3,2.4
			c-3.8,14.7-7.6,29.4-11.4,44.2c-1.2,4.7-4.6,10.3-4.9,15.7l-2,1.6c-18.4,10.6-30.9,18.7-49.3,29.3c0,0-9.9-1.7-14-3.9
			c-3.9-2.1-8.8-3.4-13.4-4.5C436.5,425.3,414,419.5,414,419.5z"/>
	</g>
	<path class="st2" d="M524.4,851.7c-5.2,0.9-8.7,3.1-14.2,3c-16.2-0.3-33.2-1.6-49.3,0.2c-10.6,1.1-20.4,6.2-31.2,6
		c-8-0.2-6.1-1.2-6.8-8.6c-1.9-20.3-2.2-40.3-3.5-60.6c-1.9-27.5-5.3-54.7-5.2-82.3c0.2-40.6,0.1-81.2,0.1-121.8
		c0-22.4,0-44.8,0-67.1c0-6.6,0-13.3,0-19.9c0-3.5-1.5-12.3-0.2-15.4c1.9-4.6,7.1-3.2,11.3-2.1c11.5,2.8,23.2-5,35-3.2
		c13.2,2.1,25.4-2.5,38.4,0.6c4.8,1.2,9.7,3,14.6,4c3.5,0.7,7.5-0.3,10.7,1c1,3.9,0.4,8.4,0.4,12.4c-0.1,22.9,0,64.6,0,87.5
		c0,48,0,95.9,0,143.9c0,15.7,0,31.4-0.1,47.1c-0.1,12.4,2.2,23.5,3,35.5c1,13.7-0.1,28-0.1,41.8C527.3,853,527.3,852.3,524.4,851.7
		z"/>
	<path class="st3" d="M635.7,481.3c-6.9,0-13.4,1.4-20.3,1.6c-5.9,0.1-11.3-1.5-17-1.6c-3.4-0.1-7.2-0.4-10.6,0
		c-2.2,0.2-3.9,1.4-5.9,1.7c-1.1,0.2-3.4-0.8-4.3,0.1c-0.9,0.9-0.2,4-0.2,5.1c0.2,16.1,0.6,32,1.4,48.1c1,20.9-1,41.6-1.5,62.5
		c-0.5,19.7-0.8,39.4-1.8,59.1c-1.2,23.7,0.1,47.6-1.9,71.2c-1.7,20.8-0.8,41.8-0.8,62.6c0,18.6,0,37.2,0,55.9c0,16.8,0,33.6,0,50.5
		c0,9.8-0.3,19.6-0.1,29.4c0.2,8.6,1.7,16.9,1.6,25.5c-0.1,14.1,1.6,27.9,1.5,42c-0.1,9.1,0,18.3,0,27.4c0,7.9,0,15.8,0,23.7
		c0,3.1-0.7,7.1-0.1,10.1c0.4,1.8,1.3,3.3,1.6,5.2c0.8,4.7,0.1,3.3,3.9,2.4c4.1-0.9,7.3,1,11.3,1.5c6.3,0.7,12.7,1,19.1,2.2
		c6.2,1.1,11,2.3,17.3,2.3c12.3,0,24.6,0.4,36.8,0.1c6-0.2,11.6-1.6,17.7-1.6c3,0,6.8,0.9,8.8-1.4c1.2-1.4,1-3.1,1.1-4.8
		c0.5-7.1,0-14.4,0-21.5c0-18.7,1-37.6-0.8-56.2c-0.6-6.6-0.5-13.2-0.9-19.9c-0.4-6.2-1.5-12.2-1.4-18.5c0.1-16.8-1.3-33.4-1.5-50.2
		c-0.2-14,0.1-28.1,0.1-42.2c0-19.8-1.7-39.5-1.5-59.3c0.3-42.2-0.3-84.4-2.8-126.4c-0.9-15.1-2.8-30.2-4.8-45.3
		c-1.9-14.3-0.4-28.7-2.3-42.9c-1.4-10.9,0.3-21.9-0.9-32.7c-1.2-10.2-1.7-20.5-2.8-30.7c-1.3-12.8-0.1-26.3-0.1-39.2
		C673.4,477.6,646.8,481.4,635.7,481.3z"/>
	<path class="st4" d="M676.7,574.9c0-0.2,0.1-0.5,0.1-0.7c1.8-0.3,3.6-0.7,5.5-1.1c3.3-0.7,5.5-2.9,8.8-3.1
		c5.4-0.4,11.1-1.6,16.6-0.6c2.3,0.4,4.4,0.9,6.6,1.5c3.3,0.8,7.2,0.5,10.7,1c2.4,0.3,4,1.7,6.3,2.1c3.2,0.6,6.2,0.4,9.4,1.4
		c3.5,1.1,7.2,2,10.8,2.7c3.1,0.6,5.5,2.1,8.3,3.4c3.2,1.5,7.6,1.4,10.2,3.9c0.3,0.3,0.3,0.7,0.6,0.9c1.6,1.8,3.9,2.5,5.9,3.7
		c2.3,1.2,2.9,2.5,4.5,4.3c2.5,2.8,6,4.5,9,6.8c2.5,2,4.4,5,6.7,7.3c3.8,3.8,3.6,8.4,5.8,13.1c2.1,4.5,5,8.7,6.8,13.4
		c1.6,4.3,1.4,9,3,13.4c0.9,2.4,2.1,4,2.5,6.6c0.3,2.2,0.4,4.3,0.6,6.5c0.1,2.6,0.4,5.1,0.8,7.7c0.5,2.9,1.6,5.8,1.7,8.7
		c0.4,8.4-0.2,17.3-1.9,25.6c-0.9,4.2-1.3,8.3-3,12.3c-1.8,4.2-4.5,8.1-7.5,11.6c-3.3,3.8-7.3,6.8-11.3,9.9
		c-4.3,3.3-8.3,6.6-13.1,9.4c-6,3.5-12.6,6.3-19.1,8.7c-3.6,1.3-7.2,1.8-10.8,2.9c-4,1.2-7.8,3-11.8,4.1c-6,1.5-12.7,1.7-18.8,2.2
		c-5,0.4-10,0.2-15,0.2c-3.7,0-7.5-0.4-11.1,0.2c-1.7,0.3-3,0.7-4.8,0.7c-1.5,0-3.3-0.4-4.8-0.1c-0.6,0.1-3.8,0.7-4.1,1
		c-0.9,0.9,0.1,3.6,0.3,4.5c1.5,6.2,1.7,12.7,2.2,19.1c0.9,12.2,1.4,24.2,1.4,36.3c0,10.8,0,21.7,0,32.5c0,2.2-0.8,5.6,0,7.6
		c0.5,1.5,1.5,1.2,3.1,1.2c4.4-0.1,9.1-0.4,13.5-1c4.1-0.6,7.9-2.3,12-3c3.9-0.7,7.6-0.1,11.5-1.4c2.5-0.9,4.7-2.3,7.4-2.7
		c3-0.4,4.8,0.2,7.5-1c11.7-4.9,23.7-6.7,36.1-8.8c6.5-1.1,12.5-3.8,19-5c2.8-0.5,5.8-0.8,8.5-1.7c3.7-1.3,7.4-3.5,10.8-5.4
		c6-3.4,11.4-7.8,17.7-10.8c4.5-2.1,8.7-4.6,13.1-6.8c9.9-5.1,19.6-10.6,29.3-16.1c5.1-2.9,8.1-7.1,12.1-11.2c4.2-4.3,7.3-8.6,10-14
		c2.9-5.9,7-11,9.6-17c2.1-4.8,5-9.2,7.5-13.7c3-5.4,4.8-11.4,6.8-17.3c1.2-3.4,2.6-7.1,2.9-10.7c0.3-3.1,0-6.4,0.1-9.5
		c0.1-8.5,0.9-17,0.8-25.5c0-7.6,0-15.1,0-22.7c0-6.5,0.1-13,0.1-19.5c0-4.8-1.5-8.8-2.4-13.5c-0.6-3.3-0.9-6.5-1.2-9.9
		c-0.7-7.2-3-13.4-4.7-20.3c-0.7-2.8-1.4-5.5-2.4-8.1c-1.4-3.6-3.9-6.6-5.7-10.1c-3.6-6.8-7.2-14.2-12.1-20.1
		c-4.9-5.9-10.1-11.4-14.9-17.3c-4.5-5.4-9.7-9.9-15.1-14.5c-5.3-4.4-10.6-8.7-16.7-11.8c-3.3-1.7-6.5-3.3-9.7-5.2
		c-4.4-2.7-9.1-4.5-13.7-6.8c-6.1-3.1-12.6-5.2-18.8-8.1c-3.7-1.8-6.8-3.4-10.8-4.3c-4.5-1-9-2-13.4-3.3c-5-1.4-10-2.8-14.9-4.5
		c-4.9-1.6-9.7-1.7-14.7-2.6c-6-1.1-11.7-1-17.8-1c-7.7,0-16.1-1-23.7,0.2c-3.7,0.6-6.9,0.5-10.5,0.6c-3.3,0.1-6.4,0.9-9.7,0.9
		c-3,0-6,0-9,0c-1.5,0-4.8,0.6-5.8-0.6c0.3,2.2,1,4.4,1,6.6c0.1,7.5-1.9,15.1-2.4,22.6c-0.8,12.7-0.1,25.6-0.1,38.3
		c0,3.7-0.3,7.5,0.1,11.1c0.3,2.9,0.8,5.7,0.8,8.6c0,2.8,0,5.7,0,8.5c0,1.4-0.3,3.2,0.2,4.6C676.7,582,676.9,581.5,676.7,574.9z"/>
	<text transform="matrix(1 0 0 1 171.0944 807.9501)" class="st5 st6">industria </text>
	<text transform="matrix(0 1 -1 0 847.2252 328.1844)" class="st5 st6">y procesos</text>
	<g>
		<path class="st7" d="M237.7,840c-22.2-1.6-38,1.2-61,2.1c-18.3,0.7-43.8-4-65.1,1.6c22.2,33.9,43,72.9,71.6,101.1
			c11.4-14.8,19.3-39.8,29.1-57.6c9-16.2,21-34.5,26.8-48.2"/>
	</g>
	<g>
		<path class="st2" d="M365.8,269c-15.9,0.5-27,3.7-43.3,6.1c-13,1.9-31.5,0.5-46.3,6c18.4,22.5,36.1,48.7,58.6,66.7
			c7-11.4,10.7-29.8,16.4-43.2c5.2-12.2,12.4-26.2,15.5-36.3"/>
	</g>
	<g>
		<path class="st8" d="M856.9,1133.6c10.3-7.5,10.6-32.7,10.8-45.5c0.2-13.4,3-24.4-1.1-38.2c-4.8-16.2-11.1-35.9-23.5-48.2
			c-12.1-12.1-30.6-18-45.3-26.4c-14.4-8.2-27.4-18-41-26.8c5.2,22-2.9,44.1-2.8,66c0.1,18,1.2,32.6,5.9,50.7
			c3.4,13.2,8.4,22.9,16.4,34.2c10.4,14.7,29.9,17.2,45.7,24c7.9,3.4,14.3,5.6,22.5,7.2C850.1,1131.5,854.1,1131.9,856.9,1133.6z"/>
		<path class="st8" d="M803.9,910.7c28.1-46.8,80.6-40.6,125.8-36.5c-6.8,8.5-9.1,20.2-13.8,29.6c-5.5,11-12.3,21-20.7,30.3
			c-20.3,22.6-46.4,19.4-74.5,11.6c-12.7-3.5-25.5-11.1-39-12.7C789.3,922.5,799.6,913.4,803.9,910.7z"/>
	</g>
	<g>
		<path class="st9" d="M1009.7,259.9c9.8-4.8,20.2-8.2,30.3-13.1c7.8-3.8,34.4-13,37.5-21.7c4.7-13.2-26.7-60.2-30.8-75.2
			c-26.3,2.2-48.3,27.2-70.4,38.5c8.1,25.5,23.6,48.9,34.1,72.9"/>
	</g>
	<g>
		<g>
			<path class="st2" d="M577.8,193.4c15.7,7.4,29.7,14.2,46.8,18.4c6.6,1.6,39.5,6.1,23.4-6.6c-13.2-10.4-32-15.7-48.7-17.3
				c-4.9-0.5-10.5-2.1-15.4-1.7c-6,0.5-9.5,5.3-2.8,9.1"/>
		</g>
		<g>
			<path class="st2" d="M520.1,175.1c-15.2-8.4-28.8-16-45.5-21.3c-6.4-2-39-8.9-23.7,4.5c12.5,11.1,30.9,17.6,47.5,20.5
				c4.9,0.9,10.3,2.8,15.2,2.8c6,0,9.8-4.4,3.3-8.6"/>
		</g>
		<g>
			<path class="st2" d="M603.4,285.4c-8.7-15-16.4-28.6-28-41.7c-4.5-5.1-28.8-27.8-22.7-8.3c5,15.9,17.4,31,30.1,42
				c3.7,3.2,7.4,7.7,11.6,10.2c5.1,3.1,10.7,1.3,7.2-5.6"/>
		</g>
		<g>
			<path class="st2" d="M562.4,319.5c-1.3-17.3-2.4-32.8-7.1-49.7c-1.8-6.5-13.9-37.5-16.8-17.3c-2.4,16.5,2.3,35.5,8.9,50.9
				c2,4.6,3.3,10.1,6,14.3c3.3,5,9,5.8,9-2"/>
		</g>
		<g>
			<path class="st2" d="M569.6,210.7c14.9,11.2,26.1,26,42,36.2c4,2.6,29.3,18.5,21.5,3.3c-3.6-7-14.8-14.5-21.1-19.5
				c-6.8-5.3-13.1-10.1-20.4-14.1c-3.9-2.2-7.5-4.4-11.5-6.4c-2.3-1.2-12.4-5.6-8.2,1.1"/>
		</g>
		<g>
			<path class="st2" d="M586.8,95.3c-3.3,7.1-1.8,20.9-2.7,29.2c-0.9,8.5-1.2,17-1.5,25.5c-0.3,6.6,1.4,25.1,7.6,11.3
				c7.1-15.7,7.3-34.3,4.6-51.1c-0.6-3.7-0.7-8.2-1.8-11.8c-2.4-8.2-4.5-3.2-7.2,2.7"/>
		</g>
		<g>
			<path class="st2" d="M516.2,253.3c-4.4,6-5.1,18.9-7.3,26.5c-2.2,7.7-3.9,15.5-5.6,23.3c-1.3,6.1-2.7,23.4,5.7,11.7
				c9.5-13.2,12.7-30.3,12.7-46.3c0-3.5,0.6-7.7,0.1-11.2c-1.1-7.9-3.9-3.8-7.5,1.2"/>
		</g>
		<g>
			<path class="st2" d="M530.2,116.7c10,15.7,18,32.5,29.7,47.3c2.5,3.2,5.9,7.5,9.3,9.6c4.4,2.8,5,1.9,4.4-2.4
				c-2.2-17.4-19.5-38.5-31.5-51.8c-1.9-2.1-5.3-6.3-7.6-7.6c-3.9-2.1-5.6,0-2.9,4.7"/>
		</g>
	</g>
	<g>
		<g>
			<path class="st7" d="M581.6,1121.5c-9.9-14.3-18.6-27.2-31.3-39.3c-4.9-4.7-31.2-25.1-23.6-6c6.2,15.6,19.9,29.6,33.5,39.4
				c4,2.9,8,7,12.5,9.1c5.4,2.6,10.9,0.2,6.9-6.5"/>
		</g>
		<g>
			<path class="st7" d="M555.5,1053.7c-1.9-17.2-3.4-32.7-8.7-49.5c-2-6.4-15.1-37-17.4-16.8c-1.8,16.6,3.4,35.4,10.6,50.6
				c2.1,4.5,3.6,10,6.5,14.1c3.5,4.9,9.2,5.5,8.9-2.2"/>
		</g>
		<g>
			<path class="st7" d="M572.3,971.3c-3.6,13.8-7,26.1-7.3,40.3c-0.1,5.5,2.7,32.4,11.2,17.4c7-12.3,7.9-28.1,5.9-41.7
				c-0.6-4-0.3-8.7-1.7-12.5c-1.7-4.7-7-6.6-9.1-0.6"/>
		</g>
		<g>
			<path class="st7" d="M438.9,1059.5c-14.2,4.1-27,7.6-40.5,14.2c-5.2,2.5-29.5,17.3-12.4,16c14-1.1,29.3-8,41.3-15.8
				c3.5-2.3,8-4.3,11.1-7.1c3.8-3.4,3.7-8-2.7-6.6"/>
		</g>
		<g>
			<path class="st7" d="M605.3,1024.8c4.8-14.8,14.2-27.4,17.7-42.7c0.9-3.8,6.2-28.3-4.9-18.4c-5.1,4.5-7.8,15.4-10,21.8
				c-2.4,6.8-4.4,13.1-5.4,20c-0.5,3.7-1.3,7.2-1.6,10.9c-0.2,2.2-0.6,11.4,4,6.5"/>
		</g>
		<g>
			<path class="st7" d="M419.4,1104.7c-3.4,7.1-2,20.9-2.8,29.2c-0.9,8.5-1.3,17-1.7,25.5c-0.3,6.6,1.2,25.1,7.5,11.3
				c7.2-15.6,7.5-34.2,4.9-51.1c-0.6-3.7-0.7-8.2-1.7-11.8c-2.4-8.2-4.5-3.3-7.2,2.6"/>
		</g>
		<g>
			<path class="st7" d="M456.4,1110.3c6.8-3,13.9-13.8,19.6-19.3c5.8-5.6,11.1-11.5,16.5-17.4c4.2-4.6,14-18.9,0.9-13
				c-14.8,6.7-26.1,19.9-34.1,33.8c-1.7,3-4.4,6.4-5.7,9.6c-3,7.4,1.5,5.2,7.1,2.7"/>
		</g>
		<g>
			<path class="st7" d="M507.3,1073.6c-2.9,18.4-8.2,36.3-9.2,55.1c-0.2,4-0.5,9.6,0.6,13.3c1.5,5,2.5,4.8,4.9,1.1
				c9.9-14.5,10.9-41.8,10.8-59.7c0-2.8,0.2-8.3-0.7-10.7c-1.5-4.1-4.2-3.7-5.3,1.5"/>
		</g>
	</g>
</g>
</svg>
