<svg id="Camada_1" data-name="Camada 1" xmlns="http://www.w3.org/2000/svg" viewBox="0 0 1280 1280"><defs><style>.cls-1{fill:#83c8e8;}.cls-2{fill:#4b8ed2;}.cls-3{fill:#50a545;}.cls-4{fill:#efcc3e;}.cls-5{fill:#e94941;}.cls-6{fill:#f49725;}.cls-7{fill:#b25aa7;}</style></defs><g id="Grupo_256" data-name="Grupo 256"><path id="Caminho_289" data-name="Caminho 289" class="cls-1" d="M373.91,226.77c5.45,9.16,15.3,17.15,22.2,25.33a233,233,0,0,0,31.22,28.84c9.67,7.93,19.25,16.57,29.14,23.94,9.65,7.19,19.48,18,29.89,23.66,6.78-12.91,6.29-30.63,11.94-44.52,5-12.3,6.82-25.58,11.33-38,8-22.15,16-46.53,19.13-69.95-53.14,14-106.4,32.22-158.21,47.74.62,1,.7-.07,1.43-.62"/><path id="Caminho_290" data-name="Caminho 290" class="cls-2" d="M1029,354.55c-22.43,14.09-35.57,27.86-57,44.88-17.07,13.54-44.86,27-61.4,47.26,45.13,16.88,92.5,39.78,139.78,46.76.55-22.22-9.51-51.75-12.51-75.74-2.73-21.85-4.1-47.91-8.09-65.11"/><path id="Caminho_291" data-name="Caminho 291" class="cls-2" d="M811.22,706.88c-9.76.33-16.5,2.28-26.49,3.72-8,1.15-19.3.29-28.32,3.68,11.24,13.74,22.09,29.82,35.85,40.81,4.3-7,6.57-18.25,10.06-26.45,3.18-7.47,7.57-16,9.49-22.24"/><path id="Caminho_292" data-name="Caminho 292" class="cls-3" d="M311,344.89c-16.86,21.46-24.43,39.05-39.09,62.8-11.66,18.9-34.21,41.84-42.52,66.65,52.81-1.92,110.41.78,161.28-11-8.73-20.48-31.27-43.54-44.33-64.27C334.48,380.22,322.2,357,311,342.84"/><path id="Caminho_293" data-name="Caminho 293" class="cls-3" d="M905.71,377a76.59,76.59,0,0,1-14.42-12.47c-3.34-4-10.47-13.5-10.72-14.15a4.76,4.76,0,0,1-.24-1.59c-.39-10.76,0-33.85.22-34.58a7.08,7.08,0,0,1,1.24-2c6.86-8.64,25.72-24.91,25.72-24.91a24.67,24.67,0,0,1,2.7-.5,139,139,0,0,1,20,.45l15.3,1.09,2.79,1.67c8.86,7.78,14.11,15.27,21.58,24.4a3.8,3.8,0,0,1,.66,1,3.64,3.64,0,0,1,.15,1.47l-.78,27.22a51.17,51.17,0,0,0-.79,9.8l-.93,1.18c-9.29,8.61-15.55,15-24.83,23.59a39.13,39.13,0,0,1-8.65-.41,33.31,33.31,0,0,0-8.38-.83C919.56,377.41,905.71,377,905.71,377Z"/><path id="Caminho_294" data-name="Caminho 294" class="cls-2" d="M430.53,829.59a54.9,54.9,0,0,1-8.17-11.1c-1.7-3.38-5.23-11.2-5.3-11.7a3.49,3.49,0,0,1,.09-1.16c1.45-7.65,5.4-23.9,5.71-24.37a5.42,5.42,0,0,1,1.19-1.2,206.18,206.18,0,0,1,22.14-13.44,16.39,16.39,0,0,1,2,.08,100,100,0,0,1,14,3.52l10.62,3.22,1.71,1.62a132.88,132.88,0,0,1,11.3,20.68,2.85,2.85,0,0,1,.32.82,2.72,2.72,0,0,1-.14,1.06l-4.91,19.09a36.55,36.55,0,0,0-2.13,6.78l-.85.68c-7.93,4.59-13.37,8.07-21.3,12.66a29.41,29.41,0,0,1-6-1.67,23.68,23.68,0,0,0-5.78-1.93C440.24,832.1,430.53,829.59,430.53,829.59Z"/><path id="Caminho_295" data-name="Caminho 295" class="cls-4" d="M301.57,313.07a66.59,66.59,0,0,1-9.8-13.32c-2-4-6.26-13.44-6.35-14a4,4,0,0,1,.1-1.38c1.74-9.18,6.48-28.65,6.82-29.22a6.56,6.56,0,0,1,1.44-1.44,244.26,244.26,0,0,1,26.55-16.14,20.78,20.78,0,0,1,2.37.1,119.19,119.19,0,0,1,16.84,4.22l12.72,3.86,2.05,2a158.06,158.06,0,0,1,13.56,24.79,3.2,3.2,0,0,1,.37,1,3.41,3.41,0,0,1-.15,1.27l-5.9,22.88a44.68,44.68,0,0,0-2.55,8.14l-1,.81c-9.51,5.5-16,9.68-25.54,15.18a33.93,33.93,0,0,1-7.25-2,28.67,28.67,0,0,0-6.93-2.31C313.21,316.08,301.57,313.07,301.57,313.07Z"/><path id="Caminho_296" data-name="Caminho 296" class="cls-3" d="M730.4,510.33c-2.17-15-28.39-29.47-41.71-36.84-13.94-7.7-24-16.79-40.66-20.26-19.68-4.08-43.92-8.42-63.73-2.38-19.5,5.95-36,22-53.07,32.76-16.66,10.55-34.24,18.65-51.16,28,26,6.83,44.63,27.79,67.69,39.91a228.88,228.88,0,0,0,56.46,22.19,116.79,116.79,0,0,0,45,1.94C670.4,573,684,554,700,541.21a122.8,122.8,0,0,0,20.14-19.59C724.46,516.27,727.11,512.31,730.4,510.33Z"/><path id="Caminho_297" data-name="Caminho 297" class="cls-3" d="M584.52,318.71c23.71,51.36-12.28,92.76-42.18,129-3.32-10.76-12-19.59-17.29-29.12a140.59,140.59,0,0,1-13.86-35.38c-7.44-30.57,10.47-51,33.56-70.5,10.44-8.8,24.35-15.36,33.63-26A103.46,103.46,0,0,1,584.52,318.71Z"/><path id="Caminho_298" data-name="Caminho 298" class="cls-4" d="M705.93,343.45c-11.26,55.43-64.76,67.53-110.3,79.07,3.69-10.64,1.94-22.88,3.29-33.7a139.88,139.88,0,0,1,9.75-36.74c12.07-29.06,38.62-35,68.76-37,13.61-.93,28.72,2,42.48-1.06A103.71,103.71,0,0,1,705.93,343.45Z"/><path id="Caminho_299" data-name="Caminho 299" class="cls-3" d="M269.19,537.45c-.13,15.17,23.61,33.42,35.66,42.72C317.47,589.9,326,600.4,342,606.34c18.84,7,42.14,15,62.63,12,20.17-2.92,38.92-16.28,57.41-24.36,18.07-7.91,36.67-13.25,54.82-20C492.2,563.31,476.94,539.77,456,524.3a228.77,228.77,0,0,0-52.46-30.46,117,117,0,0,0-44.2-8.73c-21.34-.57-37.66,16.22-55.37,26.42a123.14,123.14,0,0,0-22.87,16.33C276,532.48,272.74,536,269.19,537.45Z"/><path id="Caminho_300" data-name="Caminho 300" class="cls-3" d="M715,99.87c-14.37-4.88-39.14,11.94-51.75,20.48-13.19,8.93-25.85,13.76-36.49,27.06-12.57,15.69-27.43,35.32-31,55.72-3.55,20.08,3.26,42.07,5.14,62.15,1.84,19.63,1.09,39,1.8,58.31,17.85-20,45-27.17,66.26-42.23A229.12,229.12,0,0,0,714.3,241.1a116.87,116.87,0,0,0,22.15-39.25c7.23-20.08-3.6-40.83-7.73-60.85a122.39,122.39,0,0,0-8.34-26.83C717.6,107.86,715.28,103.7,715,99.87Z"/><path id="Caminho_301" data-name="Caminho 301" class="cls-3" d="M980.94,557.42c2.69-14.94-17.64-36.94-28-48.12-10.79-11.72-17.45-23.51-32.19-32.06-17.38-10.09-39-21.86-59.71-22.39-20.39-.52-41.11,9.48-60.69,14.33-19.14,4.75-38.38,6.88-57.39,10.46,22.48,14.68,33.56,40.46,51.61,59.24a229.31,229.31,0,0,0,46.58,38.87,116.79,116.79,0,0,0,42.1,16.06c20.93,4.16,39.84-9.62,59-16.7a123,123,0,0,0,25.29-12.24C973.42,561.17,977.19,558.24,980.94,557.42Z"/><path id="Caminho_302" data-name="Caminho 302" class="cls-3" d="M384.42,748.92c-15.67-54.35,26.17-89.83,61.2-121.13,1.65,11.14,8.87,21.18,12.68,31.4a140.06,140.06,0,0,1,8.36,37.08c2.74,31.34-18.07,48.87-43.84,64.62-11.65,7.11-26.38,11.5-37.17,20.59A103.74,103.74,0,0,1,384.42,748.92Z"/><path id="Caminho_303" data-name="Caminho 303" class="cls-3" d="M877.72,270.76c-25.9,59.54-88.86,60.33-142.76,62.4,6.69-11.07,7.65-25.22,11.75-37.05a160.92,160.92,0,0,1,19.73-38.92c20.49-29.74,51.73-30,86-25.11,15.52,2.22,31.76,9.12,47.94,9A118.92,118.92,0,0,1,877.72,270.76Z"/><path id="Caminho_304" data-name="Caminho 304" class="cls-5" d="M487.09,485.15c9.51-7.81,8.52-32.08,8-44.43-.51-12.91,1.59-23.7-3-36.74-5.44-15.38-12.61-34-25.12-45.24-12.32-11.05-30.38-15.77-45-23.07-14.32-7.14-27.33-15.94-41-23.73,6.18,20.89-.54,42.64.73,63.74a185.48,185.48,0,0,0,8.33,48.51,94.82,94.82,0,0,0,17.56,32.07c10.75,13.58,29.69,15,45.25,20.73a99.61,99.61,0,0,0,22.07,5.75A41.76,41.76,0,0,1,487.09,485.15Z"/><path id="Caminho_305" data-name="Caminho 305" class="cls-2" d="M358.35,662.89c-26.28,49.25-80.29,45.59-126.62,43.66,6.49-9,8.28-21.1,12.62-30.95a138.31,138.31,0,0,1,19.58-32c19.61-24.08,46.39-22.17,75.47-15.59,13.13,3,26.58,10,40.47,11A102.07,102.07,0,0,1,358.35,662.89Z"/><path id="Caminho_306" data-name="Caminho 306" class="cls-6" d="M769.28,695.55c-65.94,0-131.51-.31-196.63,4.27-17.75,1.24-40.51,6.35-57.68,4.34-13.06-1.52-11.23,2.71-16.91-10.68-3.51-8.26-1.21-18.58-1.65-27.49-1-19.53-3-38.59-1.84-58.78,57-1.24,112.93-8.76,170.4-8.76,22.25,0,43.7-2.73,65.13-3.76,15.45-.73,34,2.38,48.07.31-1.29,33.72,6.18,68,4.36,101.85C775.66,695.07,771.82,697.31,769.28,695.55Z"/><path id="Caminho_307" data-name="Caminho 307" class="cls-5" d="M498.89,696.61c0,50.2-.24,99.94,2.43,149.54,19.3,1,92.29,9.18,101-5.92,7.38-12.74-9.55-69.26-10.6-86.62-1.09-17.94-2.42-35.72-2-54.1C568.87,696.65,517.92,694.07,498.89,696.61Z"/><path id="Caminho_308" data-name="Caminho 308" class="cls-1" d="M503.11,840.5c72.73,0,140.95-7.58,210.74-16.56,1.16,30,10.8,64.37,6.33,94.34-70.64,3.83-143.89,8-214.65,4.23C504.33,893.48,505.09,862.8,503.11,840.5Z"/><path id="Caminho_309" data-name="Caminho 309" class="cls-7" d="M504.72,1080.89c0-54.2,5.41-107.23,4.07-161.73,19.87,11.13,66.09.68,90.54,3.8,13.76,47.73,8.9,114.14,6.38,164C589.85,1080.23,516.44,1094,504.72,1080.89Z"/><path id="Caminho_310" data-name="Caminho 310" class="cls-4" d="M787.33,1173.28c-57.31,13.2-131.84,3.61-191.65,4.22-29.63.31-58.8,3.17-88.74,1.84,0-31.92.5-66.21,2.1-98.61,45.5-2.33,91.26,0,137-2.43,38-2,75.37-3.25,112.82,1.93,33.35,4.61,36.62-1.73,34.82,34.14-1,20.17,0,47.1,0,63.44C793.65,1174.17,793.65,1170.55,787.33,1173.28Z"/><path id="Caminho_311" data-name="Caminho 311" class="cls-3" d="M842.29,355.12C843.42,380.7,817.57,424,799,437.48c-29.81,21.72-72.63,13.24-106.26,21.7-5.34-21.54-3.85-52.18,7-71.84,15.68-28.35,69.52-46.51,100.15-45.06a117.66,117.66,0,0,1,44.69,13C846.05,354.16,844.16,354.72,842.29,355.12Z"/><path id="Caminho_312" data-name="Caminho 312" class="cls-7" d="M705.72,574.14c-2-25.22,33.69-44.19,53.31-52.9,1.66,9.36,6.9,16.22,6.27,26.48a35,35,0,0,1-12.58,23.88c-12.42,11.18-30.53,9-46.68,10.62C707.34,578.83,706,579.11,705.72,574.14Z"/><path id="Caminho_313" data-name="Caminho 313" class="cls-3" d="M687,706.75c35.12-11.74,74.71,32.27,94,57.07-12.73,5.65-20.62,15.52-35.43,18.27-13.89,2.56-26.89-1.69-38.38-9.45C687,759,683.72,732.44,675.68,710.07,680.94,710.72,680.09,709,687,706.75Z"/><path id="Caminho_314" data-name="Caminho 314" class="cls-6" d="M905.92,406.6c-7,24.29-47.12,29.46-68.55,30.69,1.76-9.35-.73-17.61,3.48-27a34.91,34.91,0,0,1,20.2-17.91c15.55-6.09,31.73,2.37,47.42,6.54C906.05,401.64,907.37,401.83,905.92,406.6Z"/><path id="Caminho_315" data-name="Caminho 315" class="cls-3" d="M745.47,276c-5.62,20.72-39.59,25.68-57.77,27,1.36-8-.87-14.95,2.57-23a29.64,29.64,0,0,1,16.9-15.49c13.11-5.39,27,1.55,40.36,4.88C745.52,271.8,746.63,271.94,745.47,276Z"/><path id="Caminho_316" data-name="Caminho 316" class="cls-6" d="M573.27,221.64c11.17,22.69-15,53.52-30,68.88-5-8.09-12.42-12.53-15.62-22.29a34.85,34.85,0,0,1,2.86-26.84c7.38-15,25-19.63,39.44-27.14C570,217.88,571.11,217.14,573.27,221.64Z"/><path id="Caminho_317" data-name="Caminho 317" class="cls-3" d="M929.77,730c10.67-17.07,2.44-46-4.9-62.88-8.07-18.54-24.46-34.17-39.8-47-21.93-18.31-54-27.88-82.08-23.17-13.45,53.43,6.46,131.1,69.79,144.08,18.28,3.76,37.77.48,55.76-.52A71.83,71.83,0,0,0,929.77,730Z"/><path id="Caminho_318" data-name="Caminho 318" class="cls-4" d="M987,639.05c-2.63-6.42-4.29-13.17-7-19.79-2.08-5.14-6.7-22.34-12.09-24.7-8.17-3.55-39.26,14.19-49,16.14.21,16.71,15.1,31.77,21.25,46.29,16.49-4,32-12.76,47.68-18.31"/><path id="Caminho_319" data-name="Caminho 319" class="cls-3" d="M661.3,759.28c-.31-6.93.4-13.84.11-21-.22-5.53,1.23-23.29-3.06-27.31-6.49-6.1-41.74.14-51.52-1.3-5.44,15.8,3.51,35,4.41,50.74,16.87,1.82,34.45-1.24,51.07-1.19"/><path id="Caminho_320" data-name="Caminho 320" class="cls-7" d="M815.11,207.63c-1.78-6.7-2.56-13.61-4.35-20.51-1.39-5.37-3.74-23-8.78-26.06-7.65-4.58-40.77,9-50.62,9.66-2,16.59,10.86,33.45,15.07,48.65,16.87-1.8,33.39-8.51,49.66-12"/></g></svg>