<?xml version="1.0" encoding="utf-8"?>
<!-- Generator: Adobe Illustrator 24.2.0, SVG Export Plug-In . SVG Version: 6.00 Build 0)  -->
<svg version="1.1" id="Camada_1" xmlns="http://www.w3.org/2000/svg" xmlns:xlink="http://www.w3.org/1999/xlink" x="0px" y="0px"
	 viewBox="0 0 532 532" style="enable-background:new 0 0 532 532;" xml:space="preserve">
<style type="text/css">
	.st0{fill:#EFCC3E;}
	.st1{fill:#B25AA7;}
	.st2{fill:#F49725;}
	.st3{fill:#83C8E8;}
	.st4{fill:#E94941;}
	.st5{fill:#50A545;}
	.st6{fill:#4B8ED2;}
	.st7{fill:#F1EEE9;}
	.st8{clip-path:url(#SVGID_2_);}
</style>
<path id="Caminho_260" class="st0" d="M216.5,374.9c-13.8-10.1-27.8-20.3-38.7-33.5c-8.9-10.8-28.1-36.2-28.8-38
	c-0.4-1.4-0.7-2.8-0.6-4.3c-1-28.9-0.1-90.9,0.6-92.8c0.8-1.9,1.9-3.7,3.3-5.3c18.4-23.2,69-66.9,69-66.9c2.4-0.6,4.8-1,7.2-1.3
	c17.9-1.3,35.8-0.1,53.7,1.2l41.1,2.9l7.5,4.5c23.8,20.9,37.9,41,57.9,65.5c1.8,1.7,2.6,4.2,2.2,6.7c-0.7,24.4-1.4,48.7-2.1,73.1
	c-0.2,7.9-3.5,17.7-2.1,26.3l-2.5,3.2c-24.9,23.1-41.7,40.2-66.7,63.3c0,0-16.1,0.9-23.2-1.1c-6.9-1.9-14.9-2.2-22.5-2.2
	C253.6,376,216.5,374.9,216.5,374.9z"/>
<path id="Caminho_261" class="st1" d="M221.8,25.3c5.3,8.6,21,15.3,30.3,17.9c5.8,1.6,10.8,3.4,16.8,4.6c6,1.1,21.7,2,21.7,2
	c1,3.3,1.7,6.7,2,10.1c0.3,3.9,1,7.8,1.6,11.5c-12.7-0.8-23.1,3.2-35.2,6c8.5,6.5,17.5,12,25.5,19.2c6.7,6,12.6,13.3,19.1,19.5
	c-3.2,2.4-5.2,6.6-7.6,9.9c-5.7-3.4-15.8-8.1-21.5-10.7c-10.6-4.9-20.2-11.8-30.8-16.1c18.9,14.6,36.7,30.8,50.8,49.8
	c-3.6,3.6-6.9,7.3-10.4,11.2c-11.2-8.3-22.4-16.3-32.8-25.6c-7.7-6.8-17.6-9.8-25.2-16.3c2.1,2.3,2.2,5.6,3.7,8.3
	c1.6,3,4.1,5.5,5.9,8.3c3.4,5.3,5.8,11.3,9,16.7c3.6,5.9,7.9,11.3,11.5,17c-3.2,2.1-12.5,7.8-14.8,10.9c-6-4.3-37.1-46.7-42-50.1
	c2.8,8,7.6,38.7,7.6,38.7c-5.4,0.9-10.8,2.3-15.9,4.3c0.3-1.3-18-41-19.5-48.6c-2.8-13.9-6.8-25.5-12.2-38.6
	c-2.3-5.6-3.9-18.8-9.9-21c5.7-2.8,10.4-11.2,14.6-16c4.8-5.4,10-10.2,15.1-15.3c5.7-5.8,10.7-11.5,17.1-16.7
	c3.5-2.8,8.2-8.3,12.6-9.1C211.5,13,217.1,21.5,221.8,25.3z"/>
<path id="Caminho_262" class="st5" d="M485,266.3c0,0,6.1-22.3,10.3-29.8c2.3-4.2,12.7-17.6,11.4-21.5c-0.4-1.3-7.9-5.5-9.4-6.1
	c-4.9-1.9-3.4-3.8-8-0.3c-8.1,6.3-19,15.7-26.1,22.6c-3.3-8.2-2.7-18.1-4.1-27c-1.5-9.9-2.3-19.7-3.6-29.5
	c-6.6-1.5-13.5,2.1-13.5,2.1s-1.7,13.5-1.2,19.4c1.1,12-0.4,25.4-1.6,37.3c-6.5-10.6-9.2-25.8-13.9-37.3c-2.7-6.8-5.9-14.7-7.2-21.7
	c-4.5,1.9-10,2.3-16.3,5.5c4.5,9.6,4.5,24,6.6,34.7c1.6,8.1,3.3,18.2,3.5,26.5c-5.6-7.1-26.4-32.5-30.5-39.3
	c-6.5,3.5-8.3,3.5-13.7,8.5c3.8,6.1,10.8,22.1,14.1,28.1c3.7,6.7,6.8,13.7,10.7,20.2c-6.3-3.5-12.4-4.2-19.1-5.4
	c-4.2-0.7-16.7-6.5-16.7-6.5l-6.5,16.7c5.2,2.1,10.3,4.6,15.2,7.4c10.1,6.1,19.9,12.7,29.3,19.8c6.8,5.3,27.7,37.7,29,43.2
	c8-2.3,24.5-10.4,31.8-13.5c11.5-4.9,21.3-6.5,31.8-13.5C486.4,303.7,485,266.3,485,266.3z"/>
<path id="Caminho_263" class="st2" d="M168.1,437.8c0,0,24.3-5.9,33.4-5.9c5.2,0,23.2,2.7,26.3-0.5c1-1.1,1-10.3,0.8-12.1
	c-0.8-5.6,1.8-5.2-3.9-7.7c-10.2-4.4-24.7-9.7-35-12.8c6-7.5,15.6-12.1,23.3-18.1c8.5-6.7,17.4-12.5,25.9-18.8c-2.1-7-9-11.7-9-11.7
	s-13.7,5.5-18.9,9c-10.7,7.3-24.2,12.9-36,18.1c6.6-11.7,19.5-22.2,28-32.6c5-6.1,10.8-13.3,16.7-18.2c-4.1-3.3-7.5-8.3-13.8-12.5
	c-6.7,9.3-20.2,16.8-29.2,24.4c-6.9,5.7-15.4,12.6-23.1,17.2c3.7-9,16.9-41.9,21-49.4c-6.8-4.3-7.6-6-15.2-8.5
	c-3.8,6.8-15.2,21.7-19.2,28c-4.4,7-9.3,13.6-13.5,20.7c0-7.8-2.5-13.9-4.9-20.9c-1.5-4.4-2.6-19.2-2.6-19.2l-19.2,2.6
	c0.7,6.1,1.1,12.1,0.9,18.2c-0.5,12.7-1.6,25.4-3.4,38c-1.5,9.2-21.1,45.9-25.6,50c6.4,6.4,22.6,17.7,29.3,22.9
	c10.6,8.3,17.3,16.7,29.3,22.9C133.5,458.6,168.1,437.8,168.1,437.8z"/>
<path id="Caminho_264" class="st5" d="M53.9,193c-1.8,5.6,4.8,15.1,8.1,20c3.5,5.1,5.4,10,10.6,14c6.1,4.8,13.8,10.5,21.7,11.8
	c7.8,1.3,16.3-1.4,24-2.2c7.6-0.8,15.1-0.6,22.6-0.9c-7.8-6.8-10.7-17.3-16.6-25.5c-4.8-6.7-9.2-11.9-15.8-17.4
	c-4.5-3.8-9.7-6.6-15.3-8.4c-7.8-2.7-15.8,1.5-23.5,3.2c-3.6,0.7-7,1.8-10.4,3.3C56.9,192,55.3,192.9,53.9,193z"/>
<path id="Caminho_265" class="st5" d="M71.4,284.6c0.6-21.9,20.2-30,36.8-37.4c-0.7,4.3,0.8,8.9,1,13.1c0.2,4.9-0.2,9.9-1.3,14.7
	c-2.7,11.9-12.4,15.9-23.8,18.7c-5.1,1.3-11.1,1.1-16.1,3.2C68.5,292.5,69.7,288.4,71.4,284.6z"/>
<path id="Caminho_267" class="st4" d="M129.1,200c4.2-0.2,8.8-7,11.2-10.4c2.5-3.6,5.3-6.1,6.7-10.6c1.7-5.3,3.5-11.8,2.4-17.4
	c-1.1-5.5-5-10.5-7.5-15.4c-2.4-4.9-4.2-9.9-6.3-14.8c-2.6,6.9-8.8,11.5-12.8,17.5c-3.2,4.6-5.8,9.6-7.6,14.9
	c-1.4,3.9-2,8.1-1.8,12.3c0.2,5.9,5,10.1,8.1,14.8c1.4,2.2,3,4.2,4.8,6.1C127.6,198.2,128.6,199.1,129.1,200z"/>
<g>
	<path id="Caminho_259" class="st3" d="M361.4,352.2c-4.1,2.4-7.6,6.7-11.2,9.8c-4.8,4-8.7,8.9-12.8,13.8
		c-3.5,4.3-7.4,8.5-10.6,12.8c-3.2,4.3-8,8.6-10.5,13.2c5.7,3,13.5,2.8,19.7,5.3c5.4,2.2,11.3,3,16.8,5.1c9.8,3.6,20.5,7.1,30.9,8.6
		c-6.1-23.5-14.1-47.1-20.8-70c-0.5,0.3,0,0.3,0.3,0.6"/>
	<path id="Caminho_266" class="st5" d="M255.3,481.6c3.9,4,14.9,2.6,20.5,1.8c5.9-0.8,10.8-0.3,16.6-2.9c6.8-3.1,15-7.1,19.5-13.3
		c4.5-6.1,5.9-14.5,8.6-21.4c2.7-6.8,6.1-13.1,9.1-19.6c-9.2,3.7-19.4,1.5-29,3c-7.8,1.2-14.2,2.6-21.7,5.8
		c-5.2,2.2-9.9,5.3-13.9,9.3c-5.7,5.4-5.6,14.1-7.6,21.4c-1,3.3-1.5,6.8-1.7,10.3C255.8,478.5,255.9,480.3,255.3,481.6z"/>
	<path id="Caminho_268" class="st5" d="M340.9,506.7c-18.4-10.1-16.7-30.4-15.8-47.7c3.4,2.5,7.9,3.2,11.6,4.9
		c4.3,2,8.3,4.5,11.9,7.5c8.9,7.5,8.1,17.5,5.5,28.4c-1.2,4.9-3.9,9.9-4.3,15.1C346.4,512.7,343.4,509.9,340.9,506.7z"/>
	<path id="Caminho_269" class="st0" d="M293.6,519.9c-5.9-20.1,9.5-33.3,22.4-45c0.6,4.1,3.3,7.8,4.8,11.6c1.7,4.4,2.7,9,3.2,13.7
		c1.1,11.6-6.6,18.1-16.1,24c-4.3,2.7-9.8,4.3-13.7,7.7C293.3,528,293.1,524,293.6,519.9z"/>
</g>
<path id="Caminho_270" class="st6" d="M76.5,250.7c-15.5,15.1-35,7.4-51.8,1.2c3.5-2.6,5.5-6.8,8.3-9.9c3.2-3.6,6.9-6.8,11-9.5
	c10.1-6.6,19.7-2.7,29.7,3.1c4.5,2.6,8.6,6.8,13.6,8.8C84,247.1,80.4,249.2,76.5,250.7z"/>
<path id="Caminho_280" class="st4" d="M409.2,150.1c-2.4-4-6.8-7.5-9.9-11.1c-4.1-4.8-9-8.6-13.9-12.6c-4.3-3.5-8.6-7.3-13-10.5
	c-4.3-3.1-8.7-7.9-13.3-10.4c-3,5.7-2.7,13.6-5.1,19.7c-2.2,5.5-2.9,11.3-4.9,16.9c-3.5,9.8-6.9,20.6-8.2,31
	c23.4-6.4,46.9-14.6,69.8-21.6c-0.3-0.5-0.3,0-0.6,0.3"/>
<g id="Grupo_254" transform="translate(887.031 1639.3)">
	<path id="Caminho_281" class="st5" d="M-480.4-1545c4.8-5,9.2-9.5,13-15.5c1.4-2.3,7.4-14.3,0.5-9.8c-5.6,3.7-10,10.2-12.8,16.4
		c-0.8,1.8-2.1,3.7-2.6,5.6c-0.6,2.3,0.8,4.3,3.1,2.2"/>
	<path id="Caminho_282" class="st5" d="M-494.8-1525.4c-5.1,4.7-9.8,8.9-13.9,14.6c-1.6,2.2-8.4,13.7-1.3,9.6
		c5.8-3.4,10.6-9.5,13.8-15.5c0.9-1.7,2.4-3.6,3-5.4c0.8-2.3-0.4-4.3-2.8-2.3"/>
	<path id="Caminho_283" class="st5" d="M-442.2-1543.1c-6.8,1.4-13,2.6-19.5,5.3c-2.5,1.1-14.2,7.4-6.1,7.6c6.7,0.1,14-2.7,19.8-6.1
		c1.7-1,3.9-1.8,5.4-3.1c1.8-1.6,1.9-3.9-1.2-3.5"/>
	<path id="Caminho_284" class="st5" d="M-434.4-1523.1c-6.8-1.7-12.8-3.3-19.8-3.6c-2.7-0.1-16.1,0.5-8.7,4.2c6,3,13.8,3.7,20.5,3.1
		c2-0.2,4.3,0,6.2-0.5c2.3-0.6,3.4-2.7,0.4-3.7"/>
	<path id="Caminho_285" class="st5" d="M-474.9-1539.7c6.2-4.2,13.2-6.6,19.1-11.4c1.5-1.2,10.8-8.8,4-7.8
		c-3.1,0.5-7.4,3.8-10.1,5.6c-2.8,1.8-5.5,3.8-8,6c-1.3,1.2-2.7,2.3-3.9,3.6c-0.7,0.7-3.7,4-0.6,3.3"/>
	<path id="Caminho_286" class="st5" d="M-516.7-1561c2.3,2.2,7.7,3.4,10.8,4.7c3.1,1.4,6.3,2.6,9.5,3.8c2.5,0.9,9.7,2.7,5.3-1.5
		c-5.1-4.7-12.1-7.2-18.9-8.2c-1.6-0.4-3.1-0.6-4.7-0.8c-3.4-0.1-1.8,1.3,0.1,3.1"/>
	<path id="Caminho_287" class="st5" d="M-465.5-1514c1.7,2.4,6.6,4.4,9.1,6.2c2.7,1.8,5.4,3.5,8.1,5.1c2.1,1.3,8.6,4,5.2-0.7
		c-3.8-5.3-9.9-8.7-16-10.7c-1.4-0.6-2.8-1.1-4.2-1.5c-3.2-0.6-1.9,1-0.5,3"/>
	<path id="Caminho_288" class="st5" d="M-515.7-1536.7c7.3-1.8,14.7-2.7,21.8-5.3c1.7-0.5,3.3-1.3,4.8-2.3c1.6-1.3,1.4-1.7-0.4-2
		c-6.9-1.4-17.2,2.5-23.7,5.4c-1.4,0.5-2.7,1.1-3.9,1.9c-1.3,1.2-0.7,2.1,1.4,1.7"/>
</g>
<path id="Caminho_129" class="st1" d="M484.6,338.9c0.4,5.3,1.5,10.6,1.9,16.1c0.3,4.3,3,17.8,0,21.3c-4.5,5.3-32.1,3.5-39.5,5.5
	c-5.6-11.7-0.4-27.2-1-39.4c12.8-2.9,26.6-2.1,39.4-3.5"/>
<path id="Caminho_135" class="st5" d="M529,415.5c-5.4,0.2-10.6,1.2-16.2,1.5c-4.3,0.2-17.9,2.5-21.3-0.5
	c-5.1-4.6-2.7-32.2-4.4-39.6c11.8-5.2,27.2,0.4,39.4,0c2.5,12.9,1.3,26.6,2.5,39.4"/>
<path id="Caminho_128_2_" class="st0" d="M38.8,36c0,4.7-0.7,9.5-0.7,14.4c0,3.8-1.5,15.9,1.3,18.8c4.3,4.4,28.6,1.1,35.2,2.4
	c4.2-10.7-1.4-24.1-1.5-34.8c-11.5-1.8-23.6-0.2-35-0.7"/>
<path id="Caminho_130_2_" class="st2" d="M1.1,71.9c0,4.7-0.7,9.5-0.7,14.3c0,3.8-1.5,15.9,1.3,18.8c4.3,4.4,28.6,1.1,35.2,2.4
	c4.2-10.7-1.4-24.1-1.5-34.9c-11.5-1.7-23.6-0.2-35-0.7"/>
<path id="Caminho_131_2_" class="st1" d="M110.6,71.9c0,4.7-0.7,9.5-0.7,14.3c0,3.8-1.5,15.9,1.3,18.8c4.3,4.4,28.6,1.1,35.2,2.4
	c4.2-10.7-1.4-24.1-1.5-34.9c-11.5-1.7-23.6-0.2-35-0.7"/>
<path id="Caminho_132_2_" class="st4" d="M75.7,0.1c0,4.7-0.7,9.5-0.7,14.4c0,3.8-1.5,15.9,1.3,18.8c4.3,4.4,28.6,1.1,35.2,2.4
	c4.2-10.7-1.4-24-1.5-34.8C98.5-0.9,86.3,0.7,75,0.2"/>
<path id="Caminho_133_2_" class="st6" d="M112.4,35.5c-4.7,0-9.5-0.7-14.4-0.7c-3.8,0-15.9-1.5-18.8,1.3c-4.4,4.3-1.1,28.6-2.4,35.2
	c10.7,4.2,24.1-1.4,34.8-1.5c1.7-11.5,0.2-23.6,0.7-35"/>
<g id="Grupo_261_2_" transform="translate(387.021 38.505)">
	<path id="Caminho_327_2_" class="st5" d="M-289.9,457.1c-5.4-5.5-10.3-10.5-16.8-14.9c-2.5-1.7-15.6-8.6-10.8-0.8
		c3.9,6.4,11,11.5,17.8,14.7c2,1,4.1,2.5,6.2,3.1c2.6,0.7,4.8-0.8,2.5-3.4"/>
	<path id="Caminho_328_2_" class="st5" d="M-306.6,429.3c-2.2-7.4-4-14.1-7.6-21.1c-1.4-2.7-9.5-15.1-8.9-6
		c0.5,7.4,4.2,15.3,8.5,21.4c1.3,1.8,2.4,4.1,3.9,5.7c1.9,1.9,4.5,1.7,3.7-1.7"/>
	<path id="Caminho_329_2_" class="st5" d="M-355.1,432.5c-6.5-4.2-12.3-8-19.6-10.9c-2.8-1.1-17.1-5.2-10.7,1.3
		c5.2,5.3,13.2,8.8,20.5,10.6c2.1,0.5,4.5,1.6,6.7,1.7c2.7,0.2,4.5-1.6,1.7-3.7"/>
	<path id="Caminho_330_2_" class="st5" d="M-305.5,391.8c-0.5,6.3-1.1,12-0.1,18.3c0.4,2.4,3.7,14,6.3,6.8c2.1-5.9,1.3-13-0.6-18.8
		c-0.6-1.7-0.8-3.8-1.7-5.4c-1.1-1.9-3.6-2.4-4.1,0.4"/>
	<path id="Caminho_331_2_" class="st5" d="M-357.3,440.9c-5.9,2.9-11.3,5.4-16.7,9.4c-2.1,1.5-11.6,9.9-4.2,8
		c6.1-1.6,12.2-5.8,16.9-10.1c1.5-1.2,3-2.6,4.3-4c1.4-1.8,1-3.8-1.7-2.7"/>
	<path id="Caminho_332_2_" class="st5" d="M-286.9,412.8c1-6.9,4.1-13.1,4.5-20.1c0.1-1.8,0.5-12.9-3.6-7.7
		c-1.9,2.4-2.2,7.4-2.7,10.3c-0.6,3-0.9,6.1-0.8,9.2c0,1.7,0,3.3,0.1,4.9c0.1,1,0.6,5.1,2.3,2.6"/>
	<path id="Caminho_333_2_" class="st5" d="M-362.4,462.2c-0.9,3.4,0.7,9.3,1,13c0.3,3.8,0.8,7.6,1.2,11.3c0.4,2.9,2.5,11,4.2,4.4
		c1.9-7.4,0.7-15.6-1.8-22.8c-0.5-1.7-1-3.4-1.7-5c-1.7-3.4-2.2-1.1-3,1.7"/>
	<path id="Caminho_334_2_" class="st5" d="M-345.8,461.8c2.8-1.8,5-7.1,7.1-10c2.1-2.9,4-5.9,5.9-8.9c1.5-2.3,4.7-9.4-0.6-5.8
		c-6,4.1-10,10.8-12.4,17.4c-0.7,1.5-1.3,3.1-1.8,4.7c-0.8,3.5,1.1,2.2,3.3,0.6"/>
	<path id="Caminho_335_2_" class="st5" d="M-326.2,441.8c0.1,8.3-0.8,16.6,0.2,24.9c0.1,2,0.6,3.9,1.3,5.8c1,2.1,1.4,1.9,2.3,0.1
		c3.2-7.1,1.6-19.2,0.1-27c-0.2-1.6-0.6-3.2-1.1-4.7c-1-1.7-2.1-1.3-2.2,1.1"/>
</g>
</svg>
