<?xml version="1.0" encoding="utf-8"?>
<!-- Generator: Adobe Illustrator 24.2.0, SVG Export Plug-In . SVG Version: 6.00 Build 0)  -->
<svg version="1.1" id="Camada_1" xmlns="http://www.w3.org/2000/svg" xmlns:xlink="http://www.w3.org/1999/xlink" x="0px" y="0px"
	 viewBox="0 0 532 532" style="enable-background:new 0 0 532 532;" xml:space="preserve">
<style type="text/css">
	.st0{fill:#EFCC3E;}
	.st1{fill:#B25AA7;}
	.st2{fill:#F49725;}
	.st3{fill:#83C8E8;}
	.st4{fill:#E94941;}
	.st5{fill:#50A545;}
	.st6{fill:#4B8ED2;}
	.st7{fill:#F1EEE9;}
	.st8{clip-path:url(#SVGID_2_);}
</style>
<path id="Caminho_322_1_" class="st0" d="M326.2,434.6c-8.3-6-16.6-12.1-23.1-20c-5.3-6.4-16.8-21.6-17.2-22.7
	c-0.3-0.8-0.4-1.7-0.4-2.5c-0.6-17.2-0.1-54.2,0.4-55.4c0.5-1.2,1.2-2.2,2-3.2c11-13.8,41.2-39.9,41.2-39.9c1.4-0.3,2.9-0.6,4.3-0.8
	c10.7-0.8,21.4,0,32,0.7l24.5,1.7l4.5,2.7c14.2,12.5,22.6,24.5,34.5,39.1c1.1,1,1.5,2.5,1.3,4c-0.4,14.5-0.8,29.1-1.2,43.6
	c-0.1,4.7-2.1,10.6-1.3,15.7l-1.5,1.9c-14.9,13.8-24.9,24-39.8,37.8c0,0-9.6,0.5-13.9-0.6c-4.4-1-8.9-1.5-13.4-1.3
	C348.4,435.3,326.2,434.6,326.2,434.6z"/>
<path id="Caminho_323_1_" class="st1" d="M63.5,287c-6.3-33-10.6-66.4-13.1-100c-1.5-20.6-6-40.7-8-61.4c-1.1-11.4-6.5-21.8-10-32.8
	c26.4-7.7,64-18.3,91.7-10.4c29.5,8.4,34.2,41.6,21.7,64.6c-7.3,13.4-20.1,21.3-30.6,31.9c30.3-7.6,82.7-3.7,99.8,26
	c7.4,12.9,6.4,33.3,3,47.1c-6.7,27.6-36.9,35.2-63.6,43.4c-16,4.9-32.2,8.9-48.4,12.9c-11.6,2.9-25.5,4.3-36.4,9
	C67.6,305.8,68.2,292.1,63.5,287z"/>
<path id="Caminho_324_1_" class="st2" d="M201.5,122.6c4.7-6.4,15.4-16.7,21-16.4c2.2,2.2,9.9,12.3,10.9,15.4
	c6.6-16.1,49.2-24.7,74.1-11.5c1.7,6.6-8.1,27-9.4,34.3c-20-7.4-33.7-10.6-44.8,2.9c-12.2,14.8-7.7,26.6,5.1,60.2
	c2.6,6.9,24.3,53.1,23.4,58.5c-8.3,1-35.8,4.8-42.9,8.6c-1.5-21.4-6.7-42.3-9.2-63.9c-1.5-13.1-4.7-26-6.9-39.1
	C221.5,163.1,214,131.2,201.5,122.6z"/>
<path id="Caminho_325_1_" class="st3" d="M144.9,319.3c4.5-1.3,14-4.1,14-4.1s21,9.5,27.1,16.8c15.1,18.1,23.9,40.7,28.6,63.2
	c2.1,10.2,4.7,20.3,6.2,30.6c1.6-34.3,0.1-69.8,10.3-103.1c2.5-8.1,12.4-24.6,12.4-24.6s29.3,4.4,35.5,11.3
	c-20,14.1-23,58.5-24.3,71.5c-1.5,14.8,0.1,28.5,0.3,43.3c0.2,11.8,3.9,23.2,4,34.9c-9.2-0.9-18.5,2.6-27.5,3.9
	c-9.5,1.6-18.8,3.9-27.9,6.9c-0.6-14.8-6.8-29.7-12.4-43.5c-8-19.6-17.7-38.8-31.6-54.8C147.9,358,136.1,332.7,116,332
	C122.6,326.5,140.8,320.4,144.9,319.3z"/>
<path id="Caminho_326_1_" class="st4" d="M497.5,210.9c-2.9-7.7-5.8-15.1-6.3-23c-5.1,1.8-9.2,6-15.2,7
	c-10.4,1.8-18.6-2.8-24.1-11.6c-10.8-17.2-14.6-38.8-23.6-57.1c-6.3-12.7-12-27.6-26.9-32.3c-19.5-6.1-43.4,2.1-59.7,12.7
	c-6.4,4.2-25.6,18.5-26.1,25.1c9,5.8,17.3,11.8,22.3,21.2c4-16.5,15.5-23.2,32-27.3c15.6-3.9,22.2,0.6,28,13.2
	c2.9,6.2,7.6,14.1,8.2,21.1c-18.3,1-35.3,1.8-53.2,7.3c-21,6.5-29.8,19.8-33.4,41c-2.8,16.2,5.4,39,22.1,44.2
	c17.1,5.3,39,1.1,55.2-5.8c16.4-6.9,26.5-20.8,32.9-36.6c7,22.8,26.5,22.3,46.7,17.8c5.4-1.2,15.9-2,20.3-5
	C502.1,219.4,499.8,217.2,497.5,210.9z"/>
<g id="Grupo_261_1_" transform="translate(387.021 38.505)">
	<path id="Caminho_327_1_" class="st3" d="M54.7,35c-5.4-5.5-10.3-10.5-16.8-14.9c-2.5-1.7-15.6-8.6-10.8-0.8
		c3.9,6.4,11,11.5,17.8,14.7c2,1,4.1,2.5,6.2,3.1c2.6,0.7,4.8-0.8,2.5-3.4"/>
	<path id="Caminho_328_1_" class="st3" d="M38,7.2c-2.2-7.4-4-14.1-7.6-21.1c-1.4-2.7-9.5-15.1-8.9-6C22-12.5,25.7-4.6,30,1.5
		c1.3,1.8,2.4,4.1,3.9,5.7c1.9,1.9,4.5,1.7,3.7-1.7"/>
	<path id="Caminho_329_1_" class="st3" d="M-10.5,10.3c-6.5-4.2-12.3-8-19.6-10.9c-2.8-1.1-17.1-5.2-10.7,1.3
		c5.2,5.3,13.2,8.8,20.5,10.6c2.1,0.5,4.5,1.6,6.7,1.7c2.7,0.2,4.5-1.6,1.7-3.7"/>
	<path id="Caminho_330_1_" class="st3" d="M39.1-30.3C38.6-24,38-18.3,39-12c0.4,2.4,3.7,14,6.3,6.8c2.1-5.9,1.3-13-0.6-18.8
		c-0.6-1.7-0.8-3.8-1.7-5.4c-1.1-1.9-3.6-2.4-4.1,0.4"/>
	<path id="Caminho_331_1_" class="st3" d="M-12.7,18.7c-5.9,2.9-11.3,5.4-16.7,9.4c-2.1,1.5-11.6,9.9-4.2,8
		c6.1-1.6,12.2-5.8,16.9-10.1c1.5-1.2,3-2.6,4.3-4c1.4-1.8,1-3.8-1.7-2.7"/>
	<path id="Caminho_332_1_" class="st3" d="M57.7-9.3c1-6.9,4.1-13.1,4.5-20.1c0.1-1.8,0.5-12.9-3.6-7.7c-1.9,2.4-2.2,7.4-2.7,10.3
		c-0.6,3-0.9,6.1-0.8,9.2c0,1.7,0,3.3,0.1,4.9c0.1,1,0.6,5.1,2.3,2.6"/>
	<path id="Caminho_333_1_" class="st3" d="M-17.8,40c-0.9,3.4,0.7,9.3,1,13c0.3,3.8,0.8,7.6,1.2,11.3c0.4,2.9,2.5,11,4.2,4.4
		c1.9-7.4,0.7-15.6-1.8-22.8c-0.5-1.7-1-3.4-1.7-5c-1.7-3.4-2.2-1.1-3,1.7"/>
	<path id="Caminho_334_1_" class="st3" d="M-1.2,39.7c2.8-1.8,5-7.1,7.1-10c2.1-2.9,4-5.9,5.9-8.9c1.5-2.3,4.7-9.4-0.6-5.8
		c-6,4.1-10,10.8-12.4,17.4c-0.7,1.5-1.3,3.1-1.8,4.7c-0.8,3.5,1.1,2.2,3.3,0.6"/>
	<path id="Caminho_335_1_" class="st3" d="M18.4,19.7c0.1,8.3-0.8,16.6,0.2,24.9c0.1,2,0.6,3.9,1.3,5.8c1,2.1,1.4,1.9,2.3,0.1
		c3.2-7.1,1.6-19.2,0.1-27c-0.2-1.6-0.6-3.2-1.1-4.7c-1-1.7-2.1-1.3-2.2,1.1"/>
</g>
<g id="Grupo_262_1_" transform="translate(308.865 247.712)">
	<path id="Caminho_336_1_" class="st5" d="M152.8,70.1c0,8.8-0.2,16.7,1.5,25.3c0.7,3.3,5.6,19.4,8,9.3c2-8.3,0.4-18-2.4-26
		c-0.8-2.4-1.3-5.2-2.5-7.4c-1.5-2.6-4.5-3.2-4.7,0.7"/>
	<path id="Caminho_337_1_" class="st5" d="M148.9,39.8c0.6-8.7,1.2-16.6,0.1-25.4c-0.4-3.4-4.2-19.8-7.1-9.9
		c-2.4,8.1-1.5,17.9,0.7,26.1c0.6,2.4,0.9,5.3,2,7.6c1.3,2.7,4.1,3.6,4.6-0.3"/>
	<path id="Caminho_338_1_" class="st5" d="M116.1,101.5c5-7.2,9.6-13.6,13.2-21.7c1.4-3.1,6.6-19.1-1-12.2
		c-6.2,5.7-10.5,14.6-12.8,22.8c-0.7,2.4-2,5-2.2,7.5c-0.3,3,1.7,5.2,4.1,2.1"/>
	<path id="Caminho_339_1_" class="st5" d="M91.7,89.9c7.6-4.3,14.5-8.1,21.3-13.9c2.6-2.2,14.2-14.4,4.4-11.4
		c-8.1,2.4-15.8,8.6-21.4,14.9c-1.7,1.9-3.9,3.7-5.2,5.8c-1.6,2.6-0.7,5.4,2.8,3.7"/>
	<path id="Caminho_340_1_" class="st5" d="M143.1,70c-2,9.2-6.4,17.5-7.7,26.9c-0.3,2.4-2.2,17.4,3.1,10.5c2.4-3.1,3.5-9.8,4.4-13.8
		c1-4.1,1.7-8.2,2.1-12.4c0.2-2.3,0.4-4.4,0.5-6.6c0-1.3-0.1-6.9-2.3-3.5"/>
	<path id="Caminho_341_1_" class="st5" d="M199.7,53.3c-4,0-10,3.6-14,5c-4.1,1.4-8.1,3.1-12,4.7c-3.1,1.3-11.2,6-3.5,5.9
		c8.7-0.1,17.3-4,24.4-8.8c1.7-1,3.4-2.1,5-3.3c3.2-2.8,0.5-2.7-2.8-2.7"/>
	<path id="Caminho_342_1_" class="st5" d="M112.2,54.7c-3.7-0.7-9.8,1.7-13.7,2.3c-4,0.6-7.9,1.5-11.8,2.4
		c-3.1,0.7-11.3,3.8-4.1,5.1c8.1,1.5,16.6-0.6,23.9-4.1c1.8-0.7,3.5-1.4,5.1-2.3c3.4-2.2,0.9-2.6-2.2-3.2"/>
	<path id="Caminho_343_1_" class="st5" d="M177.8,32c-5.1,8-11.1,15.2-15.4,23.7c-1.1,2-1.9,4.1-2.4,6.3c-0.3,2.6,0.2,2.7,2.1,1.5
		c7.5-4.7,13.5-17.2,17-25.5c0.8-1.6,1.4-3.3,1.8-5.1c0.1-2.2-1.2-2.6-2.8-0.4"/>
</g>
<path id="Caminho_347_1_" class="st6" d="M439.6,506.5c-4.8-7.4-18.8-12.8-27-14.8c-5.1-1.3-9.5-2.7-14.8-3.5
	c-5.3-0.8-19.1-1.1-19.1-1.1c-1-2.8-1.6-5.8-2-8.8c-0.4-3.4-1.1-6.8-1.7-10c11.2,0.3,20.1-3.5,30.6-6.2c-7.6-5.4-15.7-10-22.9-16.1
	c-6-5.1-11.4-11.3-17.3-16.5c2.7-2.2,4.3-5.9,6.4-8.8c5.1,2.8,14,6.6,19.1,8.8c9.4,4,18,9.7,27.4,13.2c-17-12.2-32.9-25.9-45.8-42.2
	c3-3.2,5.9-6.6,8.8-10.1c10.1,7,20.1,13.7,29.5,21.5c6.9,5.8,15.7,8.1,22.5,13.5c-1.9-2-2.1-4.8-3.5-7.2c-1.5-2.6-3.7-4.7-5.4-7.1
	c-3.1-4.5-5.4-9.7-8.4-14.3c-3.3-5.1-7.2-9.7-10.5-14.5c2.7-1.9,10.7-7.1,12.6-10c5.4,3.6,33.8,39.8,38.1,42.6
	c-2.6-6.9-7.8-33.7-7.8-33.7c4.7-0.9,9.3-2.3,13.8-4.2c-0.2,1.1,16.9,35.4,18.5,42c2.8,11.5,6.7,22.7,11.8,33.4
	c2.2,4.8,3.9,16.3,9.2,18.1c-4.9,2.6-8.8,10.1-12.4,14.4c-4.1,4.9-8.5,9.2-12.7,13.8c-4.8,5.2-9,10.3-14.5,15.1
	c-3,2.5-6.9,7.5-10.7,8.3C449,517,443.8,509.7,439.6,506.5z"/>
<path id="Caminho_348_1_" class="st5" d="M532,126.8c-3.2-2.9-11.6-1.2-15.9-0.3c-4.5,0.9-8.3,0.8-12.6,3.1
	c-5.1,2.7-11.2,6.3-14.4,11.3c-3.2,4.9-3.8,11.5-5.6,17c-1.7,5.4-4,10.4-6,15.6c6.9-3.3,14.9-2.2,22.2-3.8c5.7-1.1,11.2-3,16.4-5.6
	c3.9-1.9,7.3-4.6,10.2-7.9c4.1-4.5,3.6-11.2,4.7-16.9c0.6-2.6,0.8-5.3,0.8-8C531.7,129.7,531.7,128.2,532,126.8z"/>
<path id="Caminho_349_1_" class="st5" d="M478.3,110.9c9.3,20.2-4.8,36.4-16.5,50.7c-1.3-4.2-4.7-7.7-6.8-11.4
	c-2.4-4.4-4.3-9-5.5-13.9c-2.9-12,4.1-20,13.2-27.7c4.1-3.5,9.6-6,13.2-10.2C477.4,102.4,478.2,106.6,478.3,110.9z"/>
<path id="Caminho_348_2_" class="st5" d="M215.2,66.2c-3.6-2.4-11.7,0.4-15.8,1.8c-4.3,1.5-8.2,1.9-12.1,4.7
	c-4.7,3.4-10.2,7.7-12.8,13.1c-2.5,5.3-2.3,11.9-3.3,17.5c-1,5.6-2.6,10.8-3.9,16.2c6.4-4.2,14.5-4.1,21.5-6.7
	c5.5-1.9,10.7-4.5,15.6-7.7c3.6-2.4,6.7-5.6,9.1-9.2c3.5-5,2.1-11.5,2.4-17.4c0.2-2.7,0.1-5.4-0.3-8
	C215.3,69.1,215.2,67.7,215.2,66.2z"/>
<path id="Caminho_349_2_" class="st5" d="M164.8,60.2c8.5,13.8-0.4,26.8-7.7,38.1c-1.3-2.9-4.1-5.2-5.9-7.7c-2.1-3-3.9-6.2-5.1-9.6
	c-3.1-8.4,1.3-14.9,7.2-21.2c2.7-2.8,6.4-5.2,8.7-8.5C163.4,54.1,164.4,57.1,164.8,60.2z"/>
<g id="Grupo_359_1_" transform="matrix(0.978, -0.208, 0.208, 0.978, 19.916, 326.639)">
	<path id="Caminho_128-2_1_" class="st2" d="M147.5-300.4c-0.9,4.3-1.2,8.7-2.1,13.2c-0.7,3.5-1.6,14.8-4.8,16.9
		c-4.7,3.2-26.2-4.4-32.5-4.5c-1.8-10.5,5.8-21.6,8-31.5c10.8,0.6,21.5,4.4,32,6"/>
	<path id="Caminho_129_2_" class="st0" d="M81.9-315.5c-0.9,4.3-1.2,8.7-2.1,13.2c-0.7,3.5-1.6,14.8-4.8,16.9
		c-4.7,3.2-26.2-4.4-32.5-4.5c-1.8-10.5,5.8-21.6,8-31.5c10.8,0.6,21.5,4.4,32,6"/>
	<path id="Caminho_135_2_" class="st3" d="M99.8-244.8c-4.3-1-8.7-1.4-13.1-2.5c-3.4-0.8-14.7-2-16.7-5.2c-3-4.8,5.1-26.1,5.4-32.4
		c10.6-1.5,21.5,6.4,31.2,8.9c-0.9,10.8-4.9,21.4-6.9,31.8"/>
</g>
<g id="Grupo_141_1_">
	<path id="Caminho_113_2_" class="st0" d="M154.7,434.9c-4.2-6.7-10.3-13.2-15.4-19.5c-4-5-10.7-13.8-16.4-16.2
		c-4.6,14.7-6.7,30.9-8.4,46c6.5-0.4,15-4.3,21.9-5.9c6.3-1.4,13.9-2.5,18.9-4.2"/>
	<path id="Caminho_114_2_" class="st0" d="M130.2,525.2c-3.5-7.1-9.6-10.5-14-17.3c-3.5-5.4-9.2-14.8-14.7-17.7
		c-6.1,14.1-8.6,27-11.9,41.8c7.1,0.1,14.2-1,20.9-3.3C117.1,526.6,130.2,525.2,130.2,525.2z"/>
	<path id="Caminho_115_2_" class="st5" d="M114.1,445c-3.4,7.2-5.7,15.8-8.3,23.5c-2.1,6.1-6,16.4-5,22.5
		c14.9-3.9,29.7-10.8,43.4-17.4c-3.8-5.3-11.6-10.4-16.6-15.4c-4.6-4.6-9.5-10.4-13.6-13.7"/>
	<path id="Caminho_116_2_" class="st5" d="M37.7,467.3c-3,6.2-2.2,11.6-4.5,18.3c-1.8,5.3-6.4,15-7,21.5c12.9-3.4,25.7-9.4,37.6-15
		c-3.3-4.5-10.1-9-14.4-13.4c-4-4-8.2-9-11.8-11.9"/>
	<path id="Caminho_117_2_" class="st1" d="M37.2,467.8c-2.7-0.1-5.7,0.8-8.4,1.1c-3.6,0.5-7,1.4-10.4,2.5c-3,0.9-6.2,1.7-9.1,2.8
		c-2.9,1-6.5,1.6-9.2,3c1.8,3.2,5.6,5.6,7.7,8.8c1.9,2.8,4.4,5,6.4,7.7c3.5,5,7.5,9.7,12,13.8c4.5-13.1,8.2-26.9,12.2-39.9
		c-0.3,0-0.1,0.2-0.1,0.4"/>
	<path id="Caminho_118_2_" class="st2" d="M62.7,490.8c-2.2,2.3-3.6,5.8-5.4,8.4c-2.2,3.6-4.1,7.4-5.6,11.3
		c-1.5,3.4-3.1,6.9-4.4,10.3c-1.3,3.4-3.5,7-4.3,10.5c4.3,0.9,9.3-0.7,13.7-0.3c3.9,0.4,7.9-0.2,11.8,0.1c7,0.5,14.6,0.7,21.6-0.3
		c-8.4-14-18-27.7-26.7-41.3c-0.2,0.3,0.1,0.2,0.3,0.4"/>
	<path id="Caminho_119_2_" class="st2" d="M96,369.4c1.2,2.6,3.6,5.1,5.1,7.5c2.2,3.1,4.7,6,7.5,8.6c2.3,2.4,4.6,5,7,7.3
		c2.4,2.3,4.7,5.4,7.3,7.3c2.2-3.2,2.6-8,4.6-11.5c1.7-3.1,2.6-6.6,4.2-9.8c3.1-5.8,5.5-11.8,7.3-18.1c-14.6,2.1-29.5,5.3-43.8,7.8
		c0.1,0.3,0.2,0,0.4-0.1"/>
	<path id="Caminho_120_2_" class="st3" d="M113,445.3c-5.8,1.8-14.5,1-21.2,1.3c-6.4,0.3-12.7,0.3-19.1,0.7
		c1.4,3.1,6.1,7.6,8.1,10.8c2.3,3.6,5.1,6.8,7.3,10.5c2,3.4,4,6.9,6,10.2c1.8,3.2,5.1,6.6,6.2,10c0.2,0.1,0.5,0.1,0.7,0
		c1.4-4.1,1-8.5,2.4-12.7c1.3-4,2.5-8.2,3.9-12.1c2-5.7,3-14,7-18.5"/>
	<path id="Caminho_121_2_" class="st3" d="M56.6,385.9c5.8,0.2,12.6-4.1,18.1-6c3.8-1.3,7.6-3,11.4-4.4c4-1.5,7-4.5,10.9-5.9
		c0.2,0.1,0.3,0.3,0.4,0.5c-1.9,2.9-2.4,7.5-3.6,10.9c-1.3,3.6-2.6,7.3-3.9,10.9c-1.4,4-2,8-3.3,12c-1.1,3.5-4.7,9-3,12.8
		c-4.3-4.7-8.2-9.4-12.3-14.1C66.9,397.5,56.6,386,56.6,385.9L56.6,385.9z"/>
	<path id="Caminho_122_2_" class="st4" d="M72.7,447.4c4.1,6.7,11.6,12.8,15.9,19.6c4.7,7.4,8,15.7,12.8,23
		c-6.8,0.3-15.4,1.4-22.2,2.1c-5.5,0.6-11,0.1-16.6,0.3c-0.6-3.7,2.1-10,3.2-13.7c1.3-4.6,2.8-9.2,3.8-13.8
		C70.8,459.2,72.7,447.4,72.7,447.4z"/>
	<path id="Caminho_123_2_" class="st4" d="M73.3,447.4c-2,6.7-1.5,15.3-3.4,22.1c-2.1,7.4-5.5,14.5-7.5,22
		c-4.2-4.4-10-9.4-14.5-13.6c-3.6-3.3-6.6-7.3-10-10.8c2.1-2.6,7.8-4.5,10.9-5.9c3.8-1.8,7.7-3.5,11.3-5.6
		C64.6,453.1,73.3,447.4,73.3,447.4z"/>
	<path id="Caminho_124_2_" class="st4" d="M56.2,385.9c5.3-0.9,15.6-3.9,20.5-6.4c6.1-3.1,13.7-7.3,20-10
		c-7.2-5.1-11.3-9.6-17.4-16.1c-5.5-5.8-8.9-9.8-15.2-14.7C64.2,338.7,54.3,382.6,56.2,385.9z"/>
	<path id="Caminho_125_2_" class="st6" d="M61.7,491.6c2.8,3.1,4.5,6.8,6.9,10.1c2.8,3.8,2,2.9,4.8,6.8c3.1,4.3,6.5,7.3,9.1,12
		c1.7,3,5,9,7.2,11.6c1.3-9.9,4.2-14.1,7.3-23.8c1.8-5.8,3.3-11.8,4.4-17.8C101.3,490.4,74.8,490.4,61.7,491.6z"/>
	<path id="Caminho_126_2_" class="st6" d="M96.8,369.4c-0.8,4.1-2.7,7.7-3.8,11.6c-1.3,4.5-1.1,3.4-2.4,7.9
		c-1.5,5.1-1.9,9.6-3.9,14.6c-1.3,3.2-4.1,9.4-4.8,12.7c8.6-5,13.7-5.3,23.3-8.8c5.7-2.1,11.3-4.6,16.8-7.4
		C122,400.1,105.7,379.1,96.8,369.4z"/>
</g>
</svg>
