<svg id="Camada_1" data-name="Camada 1" xmlns="http://www.w3.org/2000/svg" xmlns:xlink="http://www.w3.org/1999/xlink" viewBox="0 0 532 532"><defs><style>.cls-1{fill:none;}.cls-2{fill:#f1eee9;}.cls-3{fill:#50a545;}.cls-4{fill:#e94941;}.cls-5{fill:#efcc3e;}.cls-6{fill:#b25aa7;}.cls-7{fill:#f49725;}.cls-8{fill:#83c8e8;}.cls-9{fill:#4b8ed2;}.cls-10{clip-path:url(#clip-path);}</style><clipPath id="clip-path"><path class="cls-1" d="M411.29,270.75h-28.5a19.56,19.56,0,0,0-39.11,0H263.47V351a19.56,19.56,0,0,1,0,39.11v28.5A147.82,147.82,0,0,0,411.29,270.75Z"/></clipPath></defs><rect class="cls-2" x="-15" y="-9" width="562" height="550"/><path id="Caminho_155" data-name="Caminho 155" class="cls-3" d="M402,446.17c1.69-8.36,3.42-16.82,7.12-24.49,3.05-6.3,10.59-20.26,11.24-20.94a6.62,6.62,0,0,1,1.8-1.21c12.88-6.47,41.17-18.91,42.2-19a9.64,9.64,0,0,1,3.11.4c14.33,3.55,44.64,17.42,44.64,17.42a35,35,0,0,1,2.1,3,187.06,187.06,0,0,1,10.59,24.56l7.2,19.21-.47,4.35c-4.53,15.11-10.72,25.68-17.66,39.85a3.85,3.85,0,0,1-2.58,2.36l-33.54,14.23c-3.64,1.53-8.78,2.07-12.37,4.49l-1.94-.48c-15.65-6.49-26.89-10.57-42.48-17.06,0,0-3.73-7.11-4.32-10.75A45.59,45.59,0,0,0,413,471.44C409.21,463.23,402,446.17,402,446.17Z"/><path id="Caminho_228" data-name="Caminho 228" class="cls-4" d="M46.81,191a57.23,57.23,0,0,1-12.93-6.09c-3.21-2.24-10.27-7.62-10.58-8a3.53,3.53,0,0,1-.5-1.1c-2.44-7.68-6.84-24.42-6.8-25a5.81,5.81,0,0,1,.5-1.68C19.72,141.46,30,125.92,30,125.92a19.94,19.94,0,0,1,1.86-.9,103.55,103.55,0,0,1,14.51-3.7L57.67,119l2.35.64c8,3.84,13.26,8.18,20.49,13.27a2.13,2.13,0,0,1,1.08,1.63l4.89,19.8c.53,2.14.39,5,1.43,7.23l-.43,1c-5,8.08-8.21,13.93-13.17,22A29.53,29.53,0,0,1,68,186.05a25.76,25.76,0,0,0-6.22,1.09C56.87,188.52,46.81,191,46.81,191Z"/><g id="Grupo_141" data-name="Grupo 141"><path id="Caminho_113" data-name="Caminho 113" class="cls-5" d="M435,.57C428.26,4.8,421.76,10.91,415.42,16c-5,4-13.79,10.67-16.16,16.39,14.65,4.62,30.88,6.67,46,8.41-.39-6.46-4.31-15-5.87-21.93C438,12.53,436.89,5,435.19,0"/><path id="Caminho_114" data-name="Caminho 114" class="cls-5" d="M525.19,25.08c-7.11,3.53-10.49,9.63-17.3,14-5.43,3.5-14.81,9.22-17.75,14.66,14.1,6.09,27,8.62,41.83,11.89a64,64,0,0,0-3.27-20.94C526.63,38.22,525.19,25.08,525.19,25.08Z"/><path id="Caminho_115" data-name="Caminho 115" class="cls-3" d="M445,41.15c7.15,3.43,15.79,5.68,23.45,8.34,6.1,2.12,16.38,6,22.48,5C487,39.62,480.12,24.79,473.57,11.1c-5.26,3.77-10.38,11.62-15.44,16.64-4.61,4.57-10.43,9.52-13.73,13.6"/><path id="Caminho_116" data-name="Caminho 116" class="cls-3" d="M467.3,117.57c6.19,3,11.62,2.16,18.25,4.46,5.28,1.83,15,6.37,21.52,7.05-3.36-12.87-9.35-25.7-15-37.56-4.55,3.27-9,10.06-13.37,14.41-4,4-9,8.24-11.88,11.77"/><path id="Caminho_117" data-name="Caminho 117" class="cls-6" d="M467.74,118.09c-.14,2.69.81,5.75,1.11,8.44A57.54,57.54,0,0,0,471.36,137c.91,3,1.71,6.18,2.75,9.12s1.57,6.51,2.95,9.17c3.24-1.76,5.63-5.55,8.76-7.68,2.78-1.88,5-4.41,7.72-6.39a86.53,86.53,0,0,0,13.85-12c-13.12-4.52-26.87-8.18-39.92-12.19,0,.3.15.08.38.06"/><path id="Caminho_118" data-name="Caminho 118" class="cls-7" d="M490.83,92.57c2.31,2.17,5.78,3.64,8.43,5.41a69.12,69.12,0,0,0,11.31,5.59c3.41,1.47,6.86,3.15,10.3,4.44s7,3.53,10.49,4.3c.87-4.26-.73-9.28-.26-13.71.41-3.93-.16-7.88.1-11.81.47-7,.73-14.62-.31-21.57-14,8.38-27.75,18-41.27,26.7.26.25.19-.08.36-.3"/><path id="Caminho_119" data-name="Caminho 119" class="cls-7" d="M369.4,59.24c2.62-1.17,5.06-3.55,7.47-5.14a63.22,63.22,0,0,0,8.64-7.45c2.42-2.34,5-4.63,7.31-7s5.42-4.65,7.27-7.25c-3.24-2.22-8-2.64-11.53-4.58-3.14-1.72-6.63-2.62-9.82-4.22a94,94,0,0,0-18.11-7.3c2.08,14.64,5.29,29.46,7.82,43.79.3-.13,0-.18-.12-.4"/><path id="Caminho_120" data-name="Caminho 120" class="cls-8" d="M445.35,42.28c1.8,5.79,1,14.48,1.3,21.17.27,6.41.27,12.67.66,19.12,3.1-1.39,7.61-6.06,10.81-8.11,3.61-2.32,6.77-5.14,10.51-7.34,3.39-2,6.86-4,10.25-6,3.18-1.84,6.63-5.12,10-6.19a1.27,1.27,0,0,0,0-.67c-4.1-1.37-8.5-1-12.71-2.41-4-1.34-8.15-2.51-12.11-3.94-5.66-2-14-3-18.52-7"/><path id="Caminho_121" data-name="Caminho 121" class="cls-8" d="M385.94,98.67c.23-5.83-4.12-12.59-6-18.06-1.33-3.83-3-7.6-4.42-11.43-1.52-4-4.48-7-5.94-10.92a1.32,1.32,0,0,1,.52-.39c2.9,1.88,7.51,2.42,10.86,3.63,3.58,1.31,7.26,2.61,10.85,3.9,4,1.42,8,2,12,3.28,3.51,1.1,9,4.67,12.78,3-4.66,4.28-9.42,8.15-14.13,12.3C397.54,88.31,386,98.63,386,98.63Z"/><path id="Caminho_122" data-name="Caminho 122" class="cls-4" d="M447.42,82.57c6.74-4,12.84-11.62,19.63-15.88,7.4-4.65,15.68-8,23-12.8.25,6.81,1.41,15.41,2.11,22.24.56,5.47.1,11,.34,16.57-3.72.6-10-2.12-13.73-3.22-4.55-1.35-9.2-2.81-13.84-3.81C459.17,84.45,447.42,82.57,447.42,82.57Z"/><path id="Caminho_123" data-name="Caminho 123" class="cls-4" d="M447.4,81.94c6.65,2,15.26,1.52,22.08,3.43,7.44,2.09,14.51,5.53,22,7.49-4.39,4.18-9.44,10-13.58,14.51-3.32,3.6-7.3,6.58-10.84,10-2.58-2.08-4.45-7.79-5.9-10.87-1.77-3.77-3.52-7.67-5.57-11.28C453.05,90.69,447.4,81.94,447.4,81.94Z"/><path id="Caminho_124" data-name="Caminho 124" class="cls-4" d="M385.87,99c-.9-5.27-3.94-15.64-6.44-20.53-3.13-6.12-7.31-13.72-10-20-5.12,7.15-9.61,11.26-16.07,17.38-5.85,5.53-9.85,8.93-14.69,15.15C338.67,91,382.62,100.9,385.87,99Z"/><path id="Caminho_125" data-name="Caminho 125" class="cls-9" d="M491.57,93.57c3.09-2.75,6.79-4.46,10.1-6.86,3.83-2.77,2.92-2,6.76-4.8,4.3-3.12,7.33-6.49,12-9.11,3-1.69,9-5,11.57-7.16-9.88-1.29-14-4.16-23.82-7.32A153.18,153.18,0,0,0,490.37,54S490.37,80.51,491.57,93.57Z"/><path id="Caminho_126" data-name="Caminho 126" class="cls-9" d="M369.43,58.45c4.07.78,7.68,2.66,11.6,3.82,4.53,1.34,3.38,1.08,7.93,2.42,5.1,1.51,9.61,1.88,14.55,3.88,3.16,1.33,9.4,4.07,12.74,4.8-5-8.61-5.29-13.67-8.75-23.34a155.56,155.56,0,0,0-7.41-16.77S379.07,49.51,369.43,58.45Z"/></g><g id="Grupo_145" data-name="Grupo 145"><path id="Caminho_128" data-name="Caminho 128" class="cls-5" d="M38.85,422.37c0,4.75-.68,9.45-.69,14.35,0,3.81-1.52,15.9,1.27,18.78,4.26,4.37,28.57,1.14,35.21,2.41,4.19-10.66-1.37-24.11-1.52-34.84-11.5-1.75-23.6-.16-35-.69"/><path id="Caminho_129" data-name="Caminho 129" class="cls-5" d="M110.65,422.37c0,4.75-.67,9.45-.69,14.35,0,3.81-1.52,15.9,1.27,18.78,4.27,4.37,28.58,1.14,35.21,2.41,4.19-10.66-1.37-24.11-1.52-34.84-11.5-1.75-23.6-.16-35-.69"/><path id="Caminho_130" data-name="Caminho 130" class="cls-7" d="M1.1,458.28c0,4.74-.67,9.45-.69,14.34,0,3.8-1.52,15.91,1.27,18.79,4.27,4.36,28.58,1.13,35.21,2.41,4.19-10.66-1.37-24.11-1.52-34.86-11.5-1.73-23.6-.16-35-.68"/><path id="Caminho_131" data-name="Caminho 131" class="cls-6" d="M110.65,458.28c0,4.74-.67,9.45-.69,14.34,0,3.8-1.52,15.91,1.27,18.79,4.27,4.36,28.58,1.13,35.21,2.41,4.19-10.66-1.37-24.11-1.52-34.86-11.5-1.73-23.6-.16-35-.68"/><path id="Caminho_132" data-name="Caminho 132" class="cls-7" d="M75.67,386.53c0,4.74-.68,9.46-.69,14.35,0,3.81-1.52,15.91,1.27,18.79,4.26,4.36,28.57,1.13,35.22,2.4,4.18-10.66-1.38-24.05-1.53-34.84-11.48-1.74-23.6-.17-35-.69"/><path id="Caminho_133" data-name="Caminho 133" class="cls-9" d="M112.42,421.93c-4.74,0-9.45-.67-14.35-.69-3.8,0-15.89-1.53-18.79,1.27-4.35,4.26-1.13,28.58-2.39,35.22,10.65,4.18,24.1-1.38,34.84-1.53,1.74-11.48.16-23.6.68-35"/><path id="Caminho_134" data-name="Caminho 134" class="cls-4" d="M71.91,494.66c-4.74,0-9.45-.68-14.35-.7-3.8,0-15.9-1.52-18.78,1.27-4.36,4.26-1.13,28.57-2.41,35.22,10.66,4.17,24.11-1.38,34.86-1.54,1.73-11.48.16-23.6.68-35"/><path id="Caminho_135" data-name="Caminho 135" class="cls-3" d="M38.58,494.44c4.75-.14,9.47.42,14.36.3,3.81-.08,15.94,1.1,18.74-1.8,4.25-4.37.37-28.58,1.46-35.26-10.81-3.9-24,2-34.84,2.44-1.43,11.53.46,23.6.24,35"/></g><g id="Grupo_354" data-name="Grupo 354"><path id="Caminho_196" data-name="Caminho 196" class="cls-7" d="M524.91,346.22c-7-3.27-13.22-6.3-20.79-8.13-2.91-.69-17.57-2.69-10.41,2.93,5.88,4.61,14.24,6.94,21.61,7.67,2.19.21,4.65.92,6.82.74,2.66-.23,4.24-2.37,1.21-4"/><path id="Caminho_197" data-name="Caminho 197" class="cls-7" d="M499.77,326c-4.54-6.2-8.6-11.81-14.36-17.05-2.21-2-14.06-10.87-10.41-2.59,3,6.83,9.21,12.85,15.34,17.06,1.81,1.25,3.62,3,5.61,3.95,2.41,1.14,4.77.07,2.91-2.84"/><path id="Caminho_198" data-name="Caminho 198" class="cls-7" d="M487.89,290.52c1.67,6.1,3.1,11.61,6.18,17.14,1.13,2.13,8.26,11.88,8.18,4.2-.07-6.27-3.23-12.57-7-17.34-1.14-1.41-2-3.27-3.41-4.43-1.71-1.4-4.18-1-3.64,1.81"/><path id="Caminho_199" data-name="Caminho 199" class="cls-7" d="M456.26,354.1c-4.54,4.73-8.69,8.95-12.4,14.49-1.42,2.13-7.48,13.23-1.19,8.91,5.16-3.55,9.47-9.6,12.33-15.28a37,37,0,0,0,2.7-5.23c.68-2.15-.36-3.9-2.5-1.91"/><path id="Caminho_200" data-name="Caminho 200" class="cls-7" d="M512.51,303.77c-1.46-6.76-.64-13.65-2.71-20.35-.52-1.67-3.92-12.24-6-6-.94,2.88.44,7.67,1,10.6a47.14,47.14,0,0,0,2.38,8.88c.61,1.55,1.13,3.06,1.79,4.55.41.88,2.33,4.54,3,1.62"/><path id="Caminho_201" data-name="Caminho 201" class="cls-7" d="M458.83,375.84c.29,3.48,3.9,8.47,5.42,11.87s3.3,6.82,5,10.17c1.36,2.62,6.06,9.4,5.43,2.66C474,393,470,385.76,465.2,379.83a45.18,45.18,0,0,0-3.27-4.15c-2.73-2.62-2.46-.26-2.21,2.62"/><path id="Caminho_202" data-name="Caminho 202" class="cls-7" d="M474.26,369.75c2-2.66,2.28-8.4,3.23-11.75s1.72-6.9,2.46-10.35c.59-2.68,1.13-10.39-2.54-5.17-4.19,5.93-5.56,13.47-5.56,20.58a38.76,38.76,0,0,0-.06,4.94c.48,3.53,1.74,1.67,3.36-.54"/><path id="Caminho_203" data-name="Caminho 203" class="cls-7" d="M485.69,344.36c3,7.73,4.93,15.75,8.73,23.21a19.6,19.6,0,0,0,3.18,5c1.7,1.6,2,1.29,2.15-.67.57-7.79-5.09-18.5-9.15-25.34a19.85,19.85,0,0,0-2.65-4c-1.5-1.25-2.42-.5-1.69,1.77"/></g><g id="Grupo_151" data-name="Grupo 151"><path id="Caminho_156" data-name="Caminho 156" class="cls-6" d="M83.65,48.25c2,8.32,4.93,13.62,7.95,21.82,2.41,6.54,3.72,16.55,8.25,23.4,9.74-13.42,21.56-27.14,28.49-42-6.81-1.81-16.82-.7-24.48-1.48-7-.7-15.08-2.17-20.75-2.12"/><path id="Caminho_157" data-name="Caminho 157" class="cls-7" d="M143,106.34c-2.2-4.54-1.35-6.63-3.08-11.2-2-5.29-1.84-5.61-3.84-10.93-2.27-5.94-2.76-9.35-4.3-15.46-1-3.93-2.85-11.77-4.54-15.49-4.8,10.21-9.56,13.61-16.52,22.9A161.47,161.47,0,0,0,99.65,93.72S127.24,102.29,143,106.34Z"/></g><g id="Grupo_355" data-name="Grupo 355"><path id="Caminho_188" data-name="Caminho 188" class="cls-5" d="M75.92,29.93c-5.56,3.88-10.6,7.32-15.31,12.29-1.79,1.92-9.69,12.22-2.3,9.22C64.4,49,69.83,43.63,73.64,38.28c1.12-1.58,2.74-3.15,3.56-4.9,1-2.12,0-4.26-2.55-2.69"/><path id="Caminho_189" data-name="Caminho 189" class="cls-5" d="M24.79,81.72c5.78-3.52,11-6.64,16.06-11.28,1.94-1.78,10.6-11.49,3.06-8.92-6.18,2.1-12,7.08-16.16,12.13-1.23,1.49-2.95,2.94-3.9,4.61-1.16,2-.42,4.18,2.27,2.78"/><path id="Caminho_190" data-name="Caminho 190" class="cls-5" d="M5.47,65.39c6.75-.6,12.82-1.08,19.4-3,2.53-.75,14.59-5.61,6.69-6.65-6.47-.85-13.86,1-19.85,3.73-1.77.78-4,1.33-5.55,2.41-1.93,1.31-2.22,3.56.81,3.49"/><path id="Caminho_191" data-name="Caminho 191" class="cls-5" d="M.18,45.21c6.34,2.38,12,4.59,18.78,5.7,2.6.43,15.58,1.26,8.91-3.09-5.47-3.57-13-5.06-19.51-5.25-1.93,0-4.13-.51-6-.23-2.31.34-3.54,2.25-.78,3.5"/><path id="Caminho_192" data-name="Caminho 192" class="cls-5" d="M41.86,22.84c2.19,7,2.4,14.2,5.12,21.05.68,1.72,5.1,12.54,6.09,5.93.45-3-1.42-8-2.3-11a57.92,57.92,0,0,0-3.29-9.11c-.75-1.58-1.38-3.12-2.2-4.65-.48-.9-2.67-4.59-2.87-1.53"/><path id="Caminho_193" data-name="Caminho 193" class="cls-5" d="M76.22,74.69c-1.77-2.5-6.73-4.67-9.4-6.58s-5.55-3.7-8.36-5.46c-2.19-1.38-8.79-4.42-5.3.39,4,5.44,10.2,9.13,16.45,11.47a39.62,39.62,0,0,0,4.31,1.68c3.23.77,2-.89.5-3"/><path id="Caminho_194" data-name="Caminho 194" class="cls-5" d="M31.23,39.81c-1.39-2.55-5.85-5-8.17-7s-4.84-3.9-7.31-5.77c-1.92-1.47-7.84-4.82-5.07.09,3.12,5.54,8.64,9.5,14.3,12.14a36.43,36.43,0,0,0,3.94,1.88c3,.93,2-.77.82-2.87"/><path id="Caminho_195" data-name="Caminho 195" class="cls-5" d="M90.54,54c-7.28.36-14.53-.22-21.8.88a17.38,17.38,0,0,0-5,1.29c-1.8,1-1.62,1.31,0,2,6.35,2.63,16.85.85,23.69-.64a17.23,17.23,0,0,0,4-1.12c1.46-.91,1.08-1.89-1-1.9"/></g><circle class="cls-2" cx="263.98" cy="270.94" r="184.27"/><path class="cls-3" d="M263.47,122.93v28.5a19.56,19.56,0,0,0,0,39.11v80.21h80.21a19.56,19.56,0,0,1,39.11,0h28.5A147.82,147.82,0,0,0,263.47,122.93Z"/><path class="cls-3" d="M263.69,418.35V389.84a19.55,19.55,0,1,0,0-39.1V270.53H183.48a19.55,19.55,0,1,1-39.1,0H115.87A147.82,147.82,0,0,0,263.69,418.35Z"/><path d="M263.47,458.5c-103.53,0-187.75-84.23-187.75-187.75S159.94,83,263.47,83s187.75,84.23,187.75,187.75S367,458.5,263.47,458.5Zm0-369.72c-100.34,0-182,81.63-182,182s81.63,182,182,182,182-81.63,182-182S363.81,88.78,263.47,88.78Z"/><path d="M414.18,273.64H379.9v-2.89a16.67,16.67,0,0,0-33.33,0v2.89h-86v-80.4a22.44,22.44,0,0,1,0-44.51V120h2.89c83.1,0,150.71,67.61,150.71,150.71Zm-28.69-5.78h22.88c-1.53-77.62-64.39-140.48-142-142v28.47h-2.89a16.67,16.67,0,0,0,0,33.33h2.89v80.21H341a22.44,22.44,0,0,1,44.51,0Z"/><path d="M163.71,293.19a22.48,22.48,0,0,1-22.26-19.55H112.76v-2.89c0-83.1,67.61-150.71,150.71-150.71h2.89v34.28h-2.89a16.67,16.67,0,0,0,0,33.33h2.89v86H186A22.47,22.47,0,0,1,163.71,293.19Zm-45.14-25.33H147v2.89a16.67,16.67,0,0,0,33.33,0v-2.89h80.21V193.24a22.44,22.44,0,0,1,0-44.51V125.85C183,127.38,120.1,190.24,118.57,267.86Z"/><path d="M266.36,421.46h-2.89c-83.1,0-150.71-67.61-150.71-150.71v-2.89H147v2.89a16.67,16.67,0,0,0,33.33,0v-2.89h86v80.4a22.44,22.44,0,0,1,0,44.51ZM118.57,273.64c1.53,77.62,64.39,140.48,142,142V387.18h2.89a16.67,16.67,0,0,0,0-33.33h-2.89V273.64H186a22.44,22.44,0,0,1-44.51,0Z"/><rect x="186.15" y="142.04" width="77.32" height="4.89"/><rect x="160.15" y="162.99" width="86.21" height="4.89"/><rect x="141.49" y="183.81" width="110.65" height="4.89"/><rect x="132.6" y="204.76" width="131.09" height="4.89"/><rect x="123.27" y="225.59" width="140.42" height="4.89"/><rect x="117.49" y="246.53" width="146.2" height="4.89"/><rect x="117.49" y="267.42" width="146.2" height="4.89"/><rect x="230.34" y="126.99" width="4.89" height="17.49"/><rect x="230.34" y="165.65" width="4.89" height="20.44"/><rect x="181.26" y="165.65" width="4.89" height="20.44"/><rect x="230.34" y="207.43" width="4.89" height="20.44"/><rect x="181.26" y="207.43" width="4.89" height="20.44"/><rect x="132.38" y="207.43" width="4.89" height="20.44"/><rect x="181.26" y="248.75" width="4.89" height="20.44"/><rect x="132.38" y="248.75" width="4.89" height="20.44"/><rect x="206.78" y="144.32" width="4.89" height="21.33"/><rect x="160.36" y="187.64" width="4.89" height="20.44"/><rect x="160.37" y="228.31" width="4.89" height="20.44"/><rect x="160.37" y="270.08" width="4.89" height="20"/><g class="cls-10"><rect class="cls-7" x="260.58" y="288.44" width="153.13" height="21.72"/><rect class="cls-4" x="260.76" y="245.64" width="153.13" height="43.05"/><rect class="cls-5" x="260.76" y="309.91" width="153.13" height="21.72"/><rect class="cls-3" x="260.76" y="331.63" width="153.13" height="21.72"/><rect class="cls-8" x="260.76" y="353.35" width="153.13" height="21.72"/><rect class="cls-9" x="260.76" y="375.07" width="153.13" height="21.72"/><rect class="cls-6" x="260.76" y="396.79" width="153.13" height="21.72"/></g><path d="M263.47,421.46h-2.89V387.18h2.89a16.67,16.67,0,0,0,0-33.33h-2.89v-86H341a22.44,22.44,0,0,1,44.51,0h28.69v2.89C414.18,353.85,346.57,421.46,263.47,421.46Zm2.89-28.69v22.88c77.62-1.53,140.48-64.39,142-142H379.9v-2.89a16.67,16.67,0,0,0-33.33,0v2.89H266.36v74.62a22.44,22.44,0,0,1,0,44.51Z"/><path class="cls-2" d="M341.39,172.57s-68.65-15.91-90.93,69.11c0,0-13.36-7.93-7.73-35.47,4.09-20-15.46-28.64-28.64-22.27-12.86,6.2-21.83-3.64-21.83-3.64s16.37,16.82,11.82,35c-4.22,16.9-14.09,57.74,11.82,81.83s50.55,14.74,63.2,10.92c9-2.74,15.32-4,21.82-.91,11.37,5.45,5,16.82,16.83,31.37,0,0,10.45-31.83,41.37-53.65,0,0-10.49-7.42-37.74-1.37-20.46,4.55-26.37-4.54-33-13.18C288.42,270.32,353.66,244,341.39,172.57Z"/><path d="M317.83,339l-.26-.32c-5.66-7-7.2-13.31-8.44-18.41-1.37-5.63-2.45-10.09-8.3-12.9-6.68-3.2-13.19-1.64-21.66.92l-2,.63c-6.64,2.06-15.74,4.88-26.36,4.34-12.55-.64-24.34-6-35-15.93-26.29-24.44-15.83-66.3-11.89-82.06,2.33-9.32-1-18.28-4.18-24.16a54,54,0,0,0-7.52-10.57l-.07-.07.33-.31s0,0,.07.07c.8.83,9.49,9.32,21.5,3.52A21.85,21.85,0,0,1,236.45,186c5.92,4.61,8.23,11.8,6.5,20.25-1.6,7.8-2.59,19,1.72,27.88a18.8,18.8,0,0,0,5.65,7.17c5.09-19.29,13-34.91,23.58-46.45A71.29,71.29,0,0,1,304.2,175a76.08,76.08,0,0,1,37.24-2.67l.15,0,0,.15c2.81,16.32,1.76,31.63-3.11,45.5a84.38,84.38,0,0,1-18.83,30.34,101.43,101.43,0,0,1-30.89,22l.6.8c6.4,8.44,12.44,16.41,31.95,12.07,27-6,37.82,1.33,37.92,1.4l.26.19-.26.18c-30.5,21.53-41.18,53.22-41.29,53.54ZM292.78,305.1a18.57,18.57,0,0,1,8.24,1.84c6.05,2.91,7.16,7.45,8.55,13.2,1.21,5,2.71,11.15,8.1,17.92,1.32-3.71,12.46-32.87,41-53.18-1.84-1.07-12.84-6.58-37.28-1.15-19.8,4.39-26.21-4.07-32.41-12.25l-1-1.26.27-.11a100.28,100.28,0,0,0,31-22.07,83.82,83.82,0,0,0,18.73-30.17c4.82-13.75,5.87-28.93,3.11-45.11a75.87,75.87,0,0,0-36.86,2.7,70.8,70.8,0,0,0-30.11,19.71c-10.55,11.55-18.47,27.21-23.54,46.56l-.08.3-.26-.16c-.14-.08-3.43-2.08-6.06-7.5-2.42-5-4.7-13.92-1.78-28.2,1.7-8.27-.55-15.3-6.33-19.8a21.38,21.38,0,0,0-22-2.23,18.7,18.7,0,0,1-19.79-1.74,57.87,57.87,0,0,1,5.69,8.47c3.23,5.95,6.59,15,4.22,24.49C200.38,231.05,190,272.72,216.06,297c24.49,22.77,48.2,15.43,60.94,11.48l2-.62C284.17,306.29,288.6,305.1,292.78,305.1Z"/><path d="M315.45,340.38c-6.05-7.44-7.67-14.12-9-19.49s-2.14-8.83-6.84-11.08c-5.3-2.55-10.57-1.68-19.68,1.07l-2,.62c-13.35,4.14-38.21,11.84-64.05-12.19-27.47-25.54-16.72-68.54-12.67-84.72,3.84-15.37-9.11-30.1-10.88-32l-.26-.28,4.3-4,.17.17a15.74,15.74,0,0,0,18.25,2.86,24.61,24.61,0,0,1,25.32,2.59c6.69,5.2,9.42,13.57,7.5,22.95-3.36,16.45.32,25.18,3.33,29.27,7.17-24.11,22.34-53,54.39-63.64a77.54,77.54,0,0,1,38.72-2.75l2.24,2.38c6.55,38.08-8.7,63.53-22.65,78.18A105.54,105.54,0,0,1,293,271.46c5.58,7.2,11.36,12.8,27.74,9.16,28.2-6.27,39.61,1.5,40.09,1.84v4.82c-29.7,21-40.16,51.85-40.27,52.16Zm-22.63-38a21.24,21.24,0,0,1,9.38,2.1c7.22,3.47,8.58,9.08,10,15A43,43,0,0,0,317,332.33a122.31,122.31,0,0,1,36.18-46.74c-5.08-1.45-15-2.79-31.16.8-21.5,4.78-28.77-4.8-35.18-13.26l-.77-1,1.24-4.53A97.64,97.64,0,0,0,317.52,246c18.37-19.37,25.52-43.22,21.29-70.9a74.24,74.24,0,0,0-33.85,3c-25.33,8.55-42.71,30.18-51.64,64.3L249,244.22c-.62-.37-15.1-9.34-9.12-38.6,1.48-7.2-.42-13.27-5.34-17.1a18.85,18.85,0,0,0-19.12-1.92,21.67,21.67,0,0,1-13.42,2c4,7,7.62,16.94,5,27.43-3.81,15.26-13.95,55.79,11,79,23.33,21.7,45.2,14.93,58.27,10.88l2.05-.63C283.5,303.64,288.23,302.38,292.82,302.38Z"/><circle cx="223.41" cy="195.07" r="4.77"/><path d="M223.41,200.08a5,5,0,1,1,5-5A5,5,0,0,1,223.41,200.08Zm0-9.55a4.55,4.55,0,1,0,4.54,4.54A4.55,4.55,0,0,0,223.41,190.53Z"/><path d="M153.24,137.05l10.57,12.48-3.48,2.95L149.77,140Z"/><path d="M177.68,139.17l-3.7,2.67L163.77,138l5.34,7.4L165.42,148l-9.56-13.25,3.69-2.67,10.28,4-5.41-7.5,3.7-2.66Z"/><path d="M188.34,130.37a4.75,4.75,0,0,1-.88,2.54,7.3,7.3,0,0,1-2.45,2.17,7.67,7.67,0,0,1-4.73,1.17,5,5,0,0,1-3.68-2.36l4.18-2.42a1.79,1.79,0,0,0,1.1.83,1.56,1.56,0,0,0,1.18-.21,1.31,1.31,0,0,0,.66-.73,1,1,0,0,0-.14-.9,1.26,1.26,0,0,0-1.15-.66,12,12,0,0,0-2.29.3,20.23,20.23,0,0,1-2.73.38,4.6,4.6,0,0,1-2.26-.45,4.34,4.34,0,0,1-1.94-1.89,4.43,4.43,0,0,1-.64-2.66,4.87,4.87,0,0,1,1-2.52,7.93,7.93,0,0,1,2.39-2,7,7,0,0,1,4.56-1.11,4.94,4.94,0,0,1,3.46,2.31l-4.22,2.44a1.83,1.83,0,0,0-1-.74,1.35,1.35,0,0,0-1.05.19,1.13,1.13,0,0,0-.58.65,1.06,1.06,0,0,0,.16.87,1.19,1.19,0,0,0,1.11.61,11,11,0,0,0,2.23-.28,21.38,21.38,0,0,1,2.76-.34,5.11,5.11,0,0,1,2.3.45,4.37,4.37,0,0,1,2,1.91A4.55,4.55,0,0,1,188.34,130.37Z"/><path d="M195.76,111.17l1.54,3.28-4,1.88,5.41,11.52-4.1,1.93-5.41-11.53-4,1.86-1.54-3.29Z"/><path d="M202.2,108.71,208.13,124l-4.24,1.65L198,110.36Z"/><path d="M217,103.74l1.11,3.45-4.21,1.35,3.9,12.12-4.31,1.39-3.9-12.12-4.15,1.33-1.11-3.45Z"/><path d="M223.85,102.07l2,9.12a3.33,3.33,0,0,0,1.06,2,2.27,2.27,0,0,0,2,.34,2.36,2.36,0,0,0,1.68-1.15,3.31,3.31,0,0,0,.16-2.22l-2-9.11,4.43-1,2,9.12a7.68,7.68,0,0,1-.07,4,6,6,0,0,1-2,2.93,8,8,0,0,1-3.39,1.59,7.62,7.62,0,0,1-3.68,0,5.72,5.72,0,0,1-2.91-1.85,8.2,8.2,0,0,1-1.71-3.66l-2-9.12Z"/><path d="M249,98l.44,3.6-4.38.54,1.56,12.64-4.49.56-1.56-12.64-4.34.53-.44-3.6Z"/><path d="M263.8,98.25a7.83,7.83,0,0,1,3.07,2.92,9,9,0,0,1,.18,8.65,8,8,0,0,1-2.94,3.06,8.78,8.78,0,0,1-8.4.18,7.82,7.82,0,0,1-3.09-2.92,9,9,0,0,1-.2-8.64,7.91,7.91,0,0,1,3-3.06,8.37,8.37,0,0,1,4.18-1.17A8.47,8.47,0,0,1,263.8,98.25ZM257,102.66a4.47,4.47,0,0,0-.92,3.08,4.4,4.4,0,0,0,1.06,3,3.83,3.83,0,0,0,5.43-.12,5.16,5.16,0,0,0-.13-6.09,3.39,3.39,0,0,0-2.73-1A3.46,3.46,0,0,0,257,102.66Z"/><path d="M288,99.12l-.38,3.61-4.39-.46-1.33,12.66-4.51-.47,1.33-12.67-4.34-.45.38-3.61Z"/><path d="M294.29,104l-.5,2.66,5.2,1-.64,3.39-5.2-1-.55,2.9,5.88,1.11-.67,3.57-10.35-2,3-16.07,10.36,2-.68,3.57Zm5.08-6-6.1,1.17.57-3,6.16-1.5Z"/><path d="M314.72,105.87a7,7,0,0,1,2,2.85,8.23,8.23,0,0,1,.44,3.56L312.55,111a3.25,3.25,0,0,0-.76-1.8,3.47,3.47,0,0,0-1.7-1,3,3,0,0,0-2.64.41,5.33,5.33,0,0,0-1.65,5.76,3,3,0,0,0,2,1.76,3.41,3.41,0,0,0,2,0,3.28,3.28,0,0,0,1.6-1.13l4.6,1.32a7.63,7.63,0,0,1-3.78,3.66,8,8,0,0,1-5.5.19,8.31,8.31,0,0,1-3.79-2.18,7.1,7.1,0,0,1-1.87-3.61,10,10,0,0,1,2.38-8.3,7.17,7.17,0,0,1,3.5-2.06,8.28,8.28,0,0,1,4.37.16A8.82,8.82,0,0,1,314.72,105.87Z"/><path d="M329.83,128.41l-4.21-1.72L323.51,116l-3.45,8.44-4.22-1.72L322,107.57l4.21,1.72,2.06,10.83,3.5-8.55,4.22,1.72Z"/><path d="M343.18,116.93l-7.33,14.63-4.07-2,7.33-14.63Z"/><path d="M355.68,124.77a6.83,6.83,0,0,1,1.18,3.27,8.11,8.11,0,0,1-.48,3.54l-4.1-2.46a3.25,3.25,0,0,0-.28-1.93,3.5,3.5,0,0,0-1.36-1.45,3,3,0,0,0-2.66-.29,5.34,5.34,0,0,0-3.08,5.15,3,3,0,0,0,1.49,2.22,3.44,3.44,0,0,0,1.93.51,3.25,3.25,0,0,0,1.84-.68l4.1,2.46a7.52,7.52,0,0,1-4.6,2.56,8,8,0,0,1-5.36-1.23,8.25,8.25,0,0,1-3.09-3.09,7,7,0,0,1-.88-4,9.07,9.07,0,0,1,1.38-4.21,9.24,9.24,0,0,1,3.06-3.2,7.11,7.11,0,0,1,3.92-1.09,8.29,8.29,0,0,1,4.17,1.28A8.56,8.56,0,0,1,355.68,124.77Z"/><path d="M371.48,136.27a7.84,7.84,0,0,1,.58,4.2,8.61,8.61,0,0,1-1.75,4.1,8.46,8.46,0,0,1-3.5,2.77,7.91,7.91,0,0,1-4.21.55,8.32,8.32,0,0,1-4-1.69,8.44,8.44,0,0,1-2.69-3.4,7.92,7.92,0,0,1-.6-4.22,9,9,0,0,1,5.24-6.87,8,8,0,0,1,4.22-.55,8.8,8.8,0,0,1,6.7,5.11Zm-8.1-.83a4.42,4.42,0,0,0-2.64,1.84,4.38,4.38,0,0,0-1.05,3,3.46,3.46,0,0,0,1.48,2.56,3.42,3.42,0,0,0,2.84.74,5.18,5.18,0,0,0,3.7-4.84,3.88,3.88,0,0,0-4.33-3.3Z"/><path d="M106.76,273.42l-16.28-.73.21-4.5,9.23.42-9.1-3.45.18-3.9,9.37-2.6-9.23-.42.2-4.55,16.28.74-.25,5.56-10.76,3.54,10.4,4.38Z"/><path d="M94.16,286.52l-.44-5.79L90.94,280l-.36-4.77L107.27,280l.4,5.23-15.8,7.16-.36-4.79Zm3.32-1.39,5.17-2.15-5.43-1.37Z"/><path d="M105.62,297l-2.67.45.89,5.22-3.4.58L99.56,298l-2.92.49,1,5.9-3.58.61-1.75-10.39,16.13-2.73,1.75,10.39-3.57.6Z"/><path d="M99.67,318.5a4.85,4.85,0,0,1-2.2-1.54A7.32,7.32,0,0,1,96.05,314a7.61,7.61,0,0,1,.16-4.87,5,5,0,0,1,3.27-2.9l1.19,4.68a1.87,1.87,0,0,0-1.1.83,1.65,1.65,0,0,0-.12,1.2,1.35,1.35,0,0,0,.52.83,1,1,0,0,0,.91.11,1.27,1.27,0,0,0,1-.93,11.23,11.23,0,0,0,.33-2.28,21.12,21.12,0,0,1,.38-2.73,4.76,4.76,0,0,1,1-2.06,4.45,4.45,0,0,1,2.35-1.35,4.36,4.36,0,0,1,2.73.12,4.81,4.81,0,0,1,2.15,1.67,7.86,7.86,0,0,1,1.31,2.86,7,7,0,0,1-.17,4.68,5,5,0,0,1-3.17,2.7l-1.2-4.72a1.89,1.89,0,0,0,1-.74,1.43,1.43,0,0,0,.11-1.07,1.16,1.16,0,0,0-.48-.73,1.07,1.07,0,0,0-.88-.09,1.24,1.24,0,0,0-.89.91,13.11,13.11,0,0,0-.34,2.22,21.17,21.17,0,0,1-.41,2.75,5.09,5.09,0,0,1-1.07,2.09,4.39,4.39,0,0,1-2.37,1.37A4.67,4.67,0,0,1,99.67,318.5Z"/><path d="M118,328.67l-3.42,1.19-1.46-4.16-12,4.19-1.49-4.28,12-4.19-1.43-4.13,3.42-1.19Z"/><path d="M106.9,343.85l4.14-5.49-.19-.42-5.5,2.48-1.87-4.15,14.91-6.73,3,6.55a7.58,7.58,0,0,1,.76,3.33,4.8,4.8,0,0,1-.87,2.66,5.31,5.31,0,0,1-2.18,1.74,4.8,4.8,0,0,1-3.1.36,5,5,0,0,1-2.73-1.76l-4.26,6Zm6.73-7.17.92,2.05q.78,1.72,2.34,1a1.69,1.69,0,0,0,1-.95,2,2,0,0,0-.16-1.49l-.92-2Z"/><path d="M129.71,353.6a7.8,7.8,0,0,1-1.08,4.1,9,9,0,0,1-7.48,4.33,7.94,7.94,0,0,1-4.1-1.11,8.32,8.32,0,0,1-3-3.09,8.5,8.5,0,0,1-1.19-4.18,7.92,7.92,0,0,1,1.08-4.12,9,9,0,0,1,7.47-4.33,7.89,7.89,0,0,1,4.11,1.12,8.5,8.5,0,0,1,3,3.09A8.41,8.41,0,0,1,129.71,353.6Zm-7.16-3.87a4.49,4.49,0,0,0-3.15.67,4.44,4.44,0,0,0-2.11,2.38,3.81,3.81,0,0,0,2.72,4.7,5.18,5.18,0,0,0,5.27-3,3.85,3.85,0,0,0-2.73-4.71Z"/><path d="M131.15,377.75l-3.56-4.58-2.71,1L122,370.35l16.54-5.27,3.21,4.15-9.2,14.7-2.95-3.8Zm2-3,3.11-4.65L131,372Z"/><path d="M139.7,386.5l3.48,3.74-2.52,2.35-6.58-7.08,12-11.14,3.1,3.34Z"/><path d="M161.68,389.88l-2.46,2.66-4.82-4.45-2,2.13,3.6,3.33-2.32,2.51-3.6-3.33-4.35,4.7-3.34-3.09,11.12-12Z"/><path d="M159.2,408.76l1.09-6.79-.36-.28-3.7,4.76-3.6-2.79,10-12.92,5.67,4.41a7.31,7.31,0,0,1,2.22,2.58,4.68,4.68,0,0,1,.48,2.76,5.41,5.41,0,0,1-1.11,2.56,4.78,4.78,0,0,1-2.57,1.76,5,5,0,0,1-3.24-.27l-1,7.3Zm2.6-9.48,1.77,1.38c1,.77,1.84.71,2.54-.19a1.72,1.72,0,0,0,.41-1.3,1.94,1.94,0,0,0-.84-1.23l-1.77-1.38Z"/><path d="M176.09,405.07l-1.46,2.27,4.44,2.88-1.87,2.89-4.44-2.88-1.61,2.49,5,3.25-2,3-8.85-5.72,8.89-13.74,8.85,5.73-2,3Z"/><path d="M191,423.57a7.45,7.45,0,0,1-4,1.21,9.12,9.12,0,0,1-4.49-1.15l-5.77-3,7.59-14.49,5.78,3a9.45,9.45,0,0,1,3.52,3,7.19,7.19,0,0,1,1.29,3.92,9.25,9.25,0,0,1-3.95,7.5Zm-3.63-3.23a4,4,0,0,0,2.45-2.18,4,4,0,0,0,.4-3.25,4.44,4.44,0,0,0-2.3-2.44l-1.37-.72-3.86,7.37,1.37.72A4.42,4.42,0,0,0,187.37,420.34Z"/><path d="M209.86,418.85a7.92,7.92,0,0,1,1.7,3.88,8.66,8.66,0,0,1-.56,4.43,8.48,8.48,0,0,1-2.62,3.61,7.89,7.89,0,0,1-3.9,1.68,8.72,8.72,0,0,1-7.82-3.07,8,8,0,0,1-1.72-3.9,9,9,0,0,1,3.17-8,7.78,7.78,0,0,1,3.91-1.67,8.73,8.73,0,0,1,7.84,3.08Zm-8,1.41a4.5,4.5,0,0,0-2.05,2.49,4.43,4.43,0,0,0-.18,3.18,3.45,3.45,0,0,0,2.12,2.05,3.4,3.4,0,0,0,2.93-.06,5.17,5.17,0,0,0,2.24-5.66,3.39,3.39,0,0,0-2.11-2A3.48,3.48,0,0,0,201.84,420.26Z"/><path d="M229.22,433.36a4.38,4.38,0,0,1-2,5.49,6.14,6.14,0,0,1-4.2.14l-7.84-2,4-15.86,7.66,1.94a6.13,6.13,0,0,1,3.48,2,3.75,3.75,0,0,1,.59,3.39,3.82,3.82,0,0,1-1.34,2.17,3.5,3.5,0,0,1-2.26.75A4.05,4.05,0,0,1,229.22,433.36Zm-4.14.86q.38-1.49-1.35-1.92l-2.49-.63-.74,2.92,2.49.63C224.14,435.51,224.84,435.17,225.08,434.22ZM222,428.61l2.21.56c1.11.28,1.78-.05,2-1s-.19-1.58-1.32-1.86l-2.19-.56Z"/><path d="M239.38,442.14,237,435.68l-.45-.07-.93,6-4.5-.7,2.51-16.17,7.1,1.1A7.51,7.51,0,0,1,244,427a4.71,4.71,0,0,1,1.75,2.18,5.15,5.15,0,0,1,.27,2.77,4.71,4.71,0,0,1-1.39,2.79,5,5,0,0,1-3,1.33l2.7,6.85ZM237,432.59l2.22.35c1.25.19,2-.28,2.13-1.4a1.72,1.72,0,0,0-.27-1.33,2,2,0,0,0-1.34-.68l-2.21-.34Z"/><path d="M257.53,441l-5.79-.3-1,2.67-4.78-.25,6.84-16,5.24.28,5.09,16.58-4.8-.25Zm-.95-3.47-1.47-5.4-2.06,5.21Z"/><path d="M268.31,427.47,272.63,439l3-12,4.82-.26-4.71,16.63-5.84.32-6.46-16Z"/><path d="M293.21,425.56a7.77,7.77,0,0,1,3.45,2.46,8.56,8.56,0,0,1,1.79,4.08,8.41,8.41,0,0,1-.4,4.45,7.87,7.87,0,0,1-2.49,3.44,8.23,8.23,0,0,1-4,1.74,8.51,8.51,0,0,1-4.32-.37,7.88,7.88,0,0,1-3.48-2.47,9,9,0,0,1-1.4-8.52,7.92,7.92,0,0,1,2.5-3.45,8.54,8.54,0,0,1,4-1.74A8.32,8.32,0,0,1,293.21,425.56Zm-6.16,5.32a4.45,4.45,0,0,0-.48,3.18,4.39,4.39,0,0,0,1.47,2.83,3.44,3.44,0,0,0,2.87.67A3.38,3.38,0,0,0,293.4,436a4.44,4.44,0,0,0,.49-3.14,4.51,4.51,0,0,0-1.47-2.87,3.87,3.87,0,0,0-5.37.89Z"/><path d="M313.46,426.19l1.06,3.62-10,2.94-1.05-3.62Z"/><path d="M328.87,413.94a6.86,6.86,0,0,1,3.34,1,8.22,8.22,0,0,1,2.59,2.47l-4.4,1.88a3.22,3.22,0,0,0-1.72-.91,3.4,3.4,0,0,0-2,.26,3,3,0,0,0-1.79,2,4.5,4.5,0,0,0,.32,3.11,4.6,4.6,0,0,0,2,2.4,3,3,0,0,0,2.68.09,3.38,3.38,0,0,0,1.54-1.26A3.26,3.26,0,0,0,332,423l4.4-1.88a7.57,7.57,0,0,1-.62,5.23,8,8,0,0,1-4.15,3.62,8.33,8.33,0,0,1-4.31.7,7.15,7.15,0,0,1-3.73-1.61,10,10,0,0,1-3.39-7.95,7,7,0,0,1,1.41-3.81,8.27,8.27,0,0,1,3.49-2.63A8.6,8.6,0,0,1,328.87,413.94Z"/><path d="M344.56,405.94a7.9,7.9,0,0,1,4.09,1.13,8.61,8.61,0,0,1,3.07,3.23,8.4,8.4,0,0,1,1.15,4.31,7.83,7.83,0,0,1-1.16,4.09,8.31,8.31,0,0,1-3.12,3,8.54,8.54,0,0,1-4.2,1.13,7.93,7.93,0,0,1-4.1-1.12,8.58,8.58,0,0,1-3.09-3.23,8.48,8.48,0,0,1-1.15-4.31,8,8,0,0,1,1.17-4.09,8.79,8.79,0,0,1,7.34-4.13Zm-4,7.11a5.17,5.17,0,0,0,3,5.31,3.47,3.47,0,0,0,2.93-.35,3.37,3.37,0,0,0,1.8-2.32,4.4,4.4,0,0,0-.62-3.12,4.48,4.48,0,0,0-2.35-2.19,3.88,3.88,0,0,0-4.75,2.67Z"/><path d="M359.14,396.07a7.88,7.88,0,0,1,4.19.67,9.06,9.06,0,0,1,5,7,8,8,0,0,1-.7,4.19,8.73,8.73,0,0,1-6.82,4.91,7.78,7.78,0,0,1-4.2-.66,8.45,8.45,0,0,1-3.43-2.86,8.34,8.34,0,0,1-1.62-4.15,7.87,7.87,0,0,1,.7-4.2,8.8,8.8,0,0,1,6.84-4.92ZM356,403.58a5.16,5.16,0,0,0,3.56,4.94,3.81,3.81,0,0,0,4.4-3.17,4.39,4.39,0,0,0-1-3,4.48,4.48,0,0,0-2.59-1.91,3.37,3.37,0,0,0-2.85.68A3.42,3.42,0,0,0,356,403.58Z"/><path d="M373.64,397.17l3.63,4.1-3.41,3L363,392l5.09-4.5a6.26,6.26,0,0,1,4.37-1.88,5.21,5.21,0,0,1,3.81,1.95,5.57,5.57,0,0,1,1.32,2.53,4.77,4.77,0,0,1-.27,2.82,7.22,7.22,0,0,1-2,2.72Zm-.8-6.52c-.8-.89-1.69-.9-2.69,0l-1.29,1.15,2.4,2.72,1.3-1.15A1.69,1.69,0,0,0,372.84,390.65Z"/><path d="M384.81,388l3.15,3.13-3.24,3.26-3.15-3.13Z"/><path d="M388.17,366.07l2.78,2.32-2.82,3.39,9.77,8.15-2.9,3.48-9.77-8.15-2.8,3.35-2.79-2.32Z"/><path d="M406.91,367.77l-6.84-.71-.26.38,5,3.43-2.59,3.74-13.45-9.31,4.09-5.91a7.49,7.49,0,0,1,2.46-2.36,4.72,4.72,0,0,1,2.72-.62,5.21,5.21,0,0,1,2.62,1,4.81,4.81,0,0,1,1.9,2.47,5.05,5.05,0,0,1-.09,3.25l7.34.56Zm-9.61-2.07,1.28-1.84c.72-1,.61-1.88-.33-2.53a1.69,1.69,0,0,0-1.31-.34,2,2,0,0,0-1.19.91l-1.28,1.84Z"/><path d="M413.85,351,411,356l1.95,2.11-2.31,4.18-11.36-13.12,2.54-4.59L419,347.29l-2.33,4.2Zm-3.54-.66-5.5-1,3.79,4.13Z"/><path d="M418.52,330.7a4,4,0,0,1,2.65.21,4,4,0,0,1,2.47,2.59,6.16,6.16,0,0,1-.51,4.18l-3.19,7.44-15-6.44,3.11-7.27a6.2,6.2,0,0,1,2.52-3.13,3.75,3.75,0,0,1,3.44,0,3.87,3.87,0,0,1,1.94,1.66,3.44,3.44,0,0,1,.39,2.36A4,4,0,0,1,418.52,330.7Zm-5.82,6.36.91-2.1c.44-1,.23-1.76-.65-2.13s-1.59-.05-2,1l-.89,2.08Zm6-2.14c-.94-.4-1.64-.06-2.1,1l-1,2.36,2.77,1.18,1-2.35Q420.08,335.51,418.73,334.92Z"/><path d="M423.25,324.87l4.17,1.52-1.58,4.32-4.17-1.53Z"/><path d="M427.38,314.51l1.32-4.94,3.33.9-2.5,9.33-15.8-4.24,1.17-4.39Z"/><path d="M418.77,292.94l3.57.67-.81,4.34L434,300.29l-.83,4.45L420.7,302.4l-.81,4.29-3.56-.66Z"/><path d="M432.5,279.25a7.52,7.52,0,0,1,2.65,3.21,9.09,9.09,0,0,1,.65,4.58l-.58,6.49-16.29-1.46.58-6.49a9.4,9.4,0,0,1,1.43-4.41,7.15,7.15,0,0,1,3.13-2.69,9.22,9.22,0,0,1,8.43.77Zm-1.58,4.59a4.68,4.68,0,0,0-6.12-.55,4.46,4.46,0,0,0-1.37,3.06l-.14,1.54,8.29.74.13-1.54A4.45,4.45,0,0,0,430.92,283.84Z"/><path d="M433.76,265.15l.1,5.8,2.74.85.08,4.79-16.39-5.71-.09-5.24,16.18-6.24.09,4.8Zm-3.4,1.19-5.29,1.85,5.35,1.69Z"/><path d="M431.25,253.79l4.42-.39.41,4.58-4.42.39Z"/><path class="cls-2" d="M271.69,347.4a20.48,20.48,0,0,0-6,.89h0a20.48,20.48,0,0,0-6-.89c-9.08,0-16.44,5.77-16.44,12.89s7.36,12.89,16.44,12.89a20.48,20.48,0,0,0,6-.89,20.48,20.48,0,0,0,6,.89c9.08,0,16.44-5.77,16.44-12.89S280.77,347.4,271.69,347.4Z"/><path d="M231.84,359c1.8-1.85,2.69-3.51,2.69-5s-.58-2.17-1.74-2.17a1.51,1.51,0,0,0-1.42.76,5.27,5.27,0,0,0-.48,2.49h-6.26q.19-4.36,2.62-6.51a8.84,8.84,0,0,1,6.07-2.15q4,0,5.87,2a6.86,6.86,0,0,1,1.9,5,10.06,10.06,0,0,1-2.31,6.24,21.41,21.41,0,0,1-5.69,5.08h8.33v5.22H224.66V365A58.5,58.5,0,0,0,231.84,359Z"/><path d="M291.45,366.22v-5.38l10.17-14.24h6.95v14h2.56v5.58h-2.56v3.93h-6.49v-3.93ZM302.57,354l-4.63,6.66h4.63Z"/><path d="M259.69,374.29c-9.68,0-17.55-6.28-17.55-14s7.87-14,17.55-14,17.56,6.28,17.56,14a11.62,11.62,0,0,1-1.74,6.08l-.13.22-1.88-1.18.11-.19a9.4,9.4,0,0,0,1.41-4.93c0-6.49-6.87-11.77-15.33-11.77s-15.33,5.28-15.33,11.77,6.88,11.78,15.33,11.78a19.26,19.26,0,0,0,6.27-1l.73,2.1A21.54,21.54,0,0,1,259.69,374.29Z"/><path d="M256.23,367.12c-3.43-1.13-5.65-3.82-5.65-6.83,0-4.07,4.09-7.38,9.11-7.38s9.11,3.31,9.11,7.38a6.74,6.74,0,0,1-2.65,5.22l-1.4-1.73a4.54,4.54,0,0,0,1.83-3.49c0-2.84-3.09-5.16-6.89-5.16s-6.88,2.32-6.88,5.16c0,2,1.61,3.89,4.12,4.72Z"/><path d="M271.69,374.29c-9.68,0-17.55-6.28-17.55-14a11.86,11.86,0,0,1,2-6.55L258,355a9.51,9.51,0,0,0-1.66,5.32c0,6.5,6.88,11.78,15.33,11.78S287,366.79,287,360.29s-6.88-11.77-15.33-11.77a19.4,19.4,0,0,0-5.67.83l-.65-2.12a21.44,21.44,0,0,1,6.32-.94c9.68,0,17.55,6.28,17.55,14S281.37,374.29,271.69,374.29Z"/><path d="M271.69,367.67c-5,0-9.11-3.31-9.11-7.38a6.63,6.63,0,0,1,2.37-5l1.48,1.66a4.47,4.47,0,0,0-1.63,3.31c0,2.85,3.09,5.16,6.89,5.16s6.89-2.31,6.89-5.16c0-2.17-1.84-4.12-4.58-4.86l.58-2.14c3.72,1,6.22,3.82,6.22,7C280.8,364.36,276.72,367.67,271.69,367.67Z"/></svg>