<?xml version="1.0" encoding="utf-8"?>
<!-- Generator: Adobe Illustrator 24.2.0, SVG Export Plug-In . SVG Version: 6.00 Build 0)  -->
<svg version="1.1" id="Camada_1" xmlns="http://www.w3.org/2000/svg" xmlns:xlink="http://www.w3.org/1999/xlink" x="0px" y="0px"
	 viewBox="0 0 532 532" style="enable-background:new 0 0 532 532;" xml:space="preserve">
<style type="text/css">
	.st0{fill:#EFCC3E;}
	.st1{fill:#B25AA7;}
	.st2{fill:#F49725;}
	.st3{fill:#83C8E8;}
	.st4{fill:#E94941;}
	.st5{fill:#50A545;}
	.st6{fill:#4B8ED2;}
	.st7{fill:#F1EEE9;}
	.st8{clip-path:url(#SVGID_2_);}
</style>
<path id="Caminho_155" class="st5" d="M402,446.2c1.7-8.4,3.4-16.8,7.1-24.5c3-6.3,10.6-20.3,11.2-20.9c0.5-0.5,1.1-0.9,1.8-1.2
	c12.9-6.5,41.2-18.9,42.2-19c1.1,0,2.1,0.1,3.1,0.4c14.3,3.5,44.6,17.4,44.6,17.4c0.8,1,1.5,2,2.1,3c4.1,7.9,7.7,16.1,10.6,24.6
	l7.2,19.2l-0.5,4.3c-4.5,15.1-10.7,25.7-17.7,39.8c-0.4,1.2-1.4,2-2.6,2.4l-33.5,14.2c-3.6,1.5-8.8,2.1-12.4,4.5l-1.9-0.5
	c-15.6-6.5-26.9-10.6-42.5-17.1c0,0-3.7-7.1-4.3-10.8c-0.8-3.7-2-7.3-3.6-10.7C409.2,463.2,402,446.2,402,446.2z"/>
<path id="Caminho_228" class="st4" d="M46.8,191c-4.5-1.5-8.9-3.5-12.9-6.1c-3.2-2.2-10.3-7.6-10.6-8.1c-0.2-0.3-0.4-0.7-0.5-1.1
	c-2.4-7.7-6.8-24.4-6.8-25c0.1-0.6,0.2-1.2,0.5-1.7c3.2-7.6,13.5-23.2,13.5-23.2c0.6-0.3,1.2-0.6,1.9-0.9c4.7-1.6,9.6-2.8,14.5-3.7
	l11.3-2.3l2.4,0.6c8,3.8,13.3,8.2,20.5,13.3c0.6,0.3,1,0.9,1.1,1.6l4.9,19.8c0.5,2.1,0.4,5,1.4,7.2l-0.4,1c-5,8.1-8.2,13.9-13.2,22
	c-2.1,0.7-4.2,1.2-6.4,1.4c-2.1,0.1-4.2,0.5-6.2,1.1C56.9,188.5,46.8,191,46.8,191z"/>
<g id="Grupo_141">
	<path id="Caminho_113_1_" class="st0" d="M435,0.6c-6.7,4.2-13.2,10.3-19.5,15.4c-5,4-13.8,10.7-16.2,16.4
		c14.6,4.6,30.9,6.7,46,8.4c-0.4-6.5-4.3-15-5.9-21.9C438,12.5,436.9,5,435.2,0"/>
	<path id="Caminho_114_1_" class="st0" d="M525.2,25.1c-7.1,3.5-10.5,9.6-17.3,14c-5.4,3.5-14.8,9.2-17.8,14.7
		c14.1,6.1,27,8.6,41.8,11.9c0.1-7.1-1-14.2-3.3-20.9C526.6,38.2,525.2,25.1,525.2,25.1z"/>
	<path id="Caminho_115_1_" class="st5" d="M445,41.2c7.1,3.4,15.8,5.7,23.5,8.3c6.1,2.1,16.4,6,22.5,5
		c-3.9-14.9-10.8-29.7-17.3-43.4c-5.3,3.8-10.4,11.6-15.4,16.6c-4.6,4.6-10.4,9.5-13.7,13.6"/>
	<path id="Caminho_116_1_" class="st5" d="M467.3,117.6c6.2,3,11.6,2.2,18.2,4.5c5.3,1.8,15,6.4,21.5,7.1
		c-3.4-12.9-9.4-25.7-15-37.6c-4.5,3.3-9,10.1-13.4,14.4c-4,4-9,8.2-11.9,11.8"/>
	<path id="Caminho_117_1_" class="st1" d="M467.7,118.1c-0.1,2.7,0.8,5.8,1.1,8.4c0.5,3.6,1.4,7,2.5,10.4c0.9,3,1.7,6.2,2.8,9.1
		s1.6,6.5,3,9.2c3.2-1.8,5.6-5.6,8.8-7.7c2.8-1.9,5-4.4,7.7-6.4c5-3.5,9.7-7.5,13.8-12c-13.1-4.5-26.9-8.2-39.9-12.2
		c0,0.3,0.1,0.1,0.4,0.1"/>
	<path id="Caminho_118_1_" class="st2" d="M490.8,92.6c2.3,2.2,5.8,3.6,8.4,5.4c3.6,2.2,7.4,4.1,11.3,5.6c3.4,1.5,6.9,3.1,10.3,4.4
		c3.4,1.3,7,3.5,10.5,4.3c0.9-4.3-0.7-9.3-0.3-13.7c0.4-3.9-0.2-7.9,0.1-11.8c0.5-7,0.7-14.6-0.3-21.6c-14,8.4-27.8,18-41.3,26.7
		c0.3,0.2,0.2-0.1,0.4-0.3"/>
	<path id="Caminho_119_1_" class="st2" d="M369.4,59.2c2.6-1.2,5.1-3.5,7.5-5.1c3.1-2.2,6-4.7,8.6-7.4c2.4-2.3,5-4.6,7.3-7
		s5.4-4.7,7.3-7.2c-3.2-2.2-8-2.6-11.5-4.6c-3.1-1.7-6.6-2.6-9.8-4.2c-5.8-3.1-11.8-5.5-18.1-7.3c2.1,14.6,5.3,29.5,7.8,43.8
		c0.3-0.1,0-0.2-0.1-0.4"/>
	<path id="Caminho_120_1_" class="st3" d="M445.4,42.3c1.8,5.8,1,14.5,1.3,21.2c0.3,6.4,0.3,12.7,0.7,19.1c3.1-1.4,7.6-6.1,10.8-8.1
		c3.6-2.3,6.8-5.1,10.5-7.3c3.4-2,6.9-4,10.2-6c3.2-1.8,6.6-5.1,10-6.2c0.1-0.2,0.1-0.5,0-0.7c-4.1-1.4-8.5-1-12.7-2.4
		c-4-1.3-8.1-2.5-12.1-3.9c-5.7-2-14-3-18.5-7"/>
	<path id="Caminho_121_1_" class="st3" d="M385.9,98.7c0.2-5.8-4.1-12.6-6-18.1c-1.3-3.8-3-7.6-4.4-11.4c-1.5-4-4.5-7-5.9-10.9
		c0.1-0.2,0.3-0.3,0.5-0.4c2.9,1.9,7.5,2.4,10.9,3.6c3.6,1.3,7.3,2.6,10.9,3.9c4,1.4,8,2,12,3.3c3.5,1.1,9,4.7,12.8,3
		c-4.7,4.3-9.4,8.1-14.1,12.3C397.5,88.3,386,98.6,385.9,98.7L385.9,98.7z"/>
	<path id="Caminho_122_1_" class="st4" d="M447.4,82.6c6.7-4.1,12.8-11.6,19.6-15.9c7.4-4.6,15.7-8,23-12.8
		c0.2,6.8,1.4,15.4,2.1,22.2c0.6,5.5,0.1,11,0.3,16.6c-3.7,0.6-10-2.1-13.7-3.2c-4.5-1.4-9.2-2.8-13.8-3.8
		C459.2,84.4,447.4,82.6,447.4,82.6z"/>
	<path id="Caminho_123_1_" class="st4" d="M447.4,81.9c6.6,2,15.3,1.5,22.1,3.4c7.4,2.1,14.5,5.5,22,7.5c-4.4,4.2-9.4,10-13.6,14.5
		c-3.3,3.6-7.3,6.6-10.8,10c-2.6-2.1-4.5-7.8-5.9-10.9c-1.8-3.8-3.5-7.7-5.6-11.3C453.1,90.7,447.4,81.9,447.4,81.9z"/>
	<path id="Caminho_124_1_" class="st4" d="M385.9,99c-0.9-5.3-3.9-15.6-6.4-20.5c-3.1-6.1-7.3-13.7-10-20
		c-5.1,7.2-9.6,11.3-16.1,17.4c-5.8,5.5-9.8,8.9-14.7,15.1C338.7,91,382.6,100.9,385.9,99z"/>
	<path id="Caminho_125_1_" class="st6" d="M491.6,93.6c3.1-2.8,6.8-4.5,10.1-6.9c3.8-2.8,2.9-2,6.8-4.8c4.3-3.1,7.3-6.5,12-9.1
		c3-1.7,9-5,11.6-7.2c-9.9-1.3-14-4.2-23.8-7.3c-5.8-1.8-11.8-3.3-17.8-4.4C490.4,53.9,490.4,80.5,491.6,93.6z"/>
	<path id="Caminho_126_1_" class="st6" d="M369.4,58.5c4.1,0.8,7.7,2.7,11.6,3.8c4.5,1.3,3.4,1.1,7.9,2.4c5.1,1.5,9.6,1.9,14.5,3.9
		c3.2,1.3,9.4,4.1,12.7,4.8c-5-8.6-5.3-13.7-8.8-23.3c-2.1-5.7-4.6-11.3-7.4-16.8C400.1,33.3,379.1,49.5,369.4,58.5z"/>
</g>
<g id="Grupo_145">
	<path id="Caminho_128_1_" class="st0" d="M38.8,422.4c0,4.7-0.7,9.5-0.7,14.4c0,3.8-1.5,15.9,1.3,18.8c4.3,4.4,28.6,1.1,35.2,2.4
		c4.2-10.7-1.4-24.1-1.5-34.8c-11.5-1.8-23.6-0.2-35-0.7"/>
	<path id="Caminho_129_3_" class="st0" d="M110.6,422.4c0,4.7-0.7,9.5-0.7,14.4c0,3.8-1.5,15.9,1.3,18.8c4.3,4.4,28.6,1.1,35.2,2.4
		c4.2-10.7-1.4-24.1-1.5-34.8c-11.5-1.8-23.6-0.2-35-0.7"/>
	<path id="Caminho_130_1_" class="st2" d="M1.1,458.3c0,4.7-0.7,9.5-0.7,14.3c0,3.8-1.5,15.9,1.3,18.8c4.3,4.4,28.6,1.1,35.2,2.4
		c4.2-10.7-1.4-24.1-1.5-34.9c-11.5-1.7-23.6-0.2-35-0.7"/>
	<path id="Caminho_131_1_" class="st1" d="M110.6,458.3c0,4.7-0.7,9.5-0.7,14.3c0,3.8-1.5,15.9,1.3,18.8c4.3,4.4,28.6,1.1,35.2,2.4
		c4.2-10.7-1.4-24.1-1.5-34.9c-11.5-1.7-23.6-0.2-35-0.7"/>
	<path id="Caminho_132_1_" class="st2" d="M75.7,386.5c0,4.7-0.7,9.5-0.7,14.4c0,3.8-1.5,15.9,1.3,18.8c4.3,4.4,28.6,1.1,35.2,2.4
		c4.2-10.7-1.4-24-1.5-34.8c-11.5-1.7-23.6-0.2-35-0.7"/>
	<path id="Caminho_133_1_" class="st6" d="M112.4,421.9c-4.7,0-9.5-0.7-14.4-0.7c-3.8,0-15.9-1.5-18.8,1.3
		c-4.4,4.3-1.1,28.6-2.4,35.2c10.7,4.2,24.1-1.4,34.8-1.5c1.7-11.5,0.2-23.6,0.7-35"/>
	<path id="Caminho_134_2_" class="st4" d="M71.9,494.7c-4.7,0-9.5-0.7-14.4-0.7c-3.8,0-15.9-1.5-18.8,1.3
		c-4.4,4.3-1.1,28.6-2.4,35.2c10.7,4.2,24.1-1.4,34.9-1.5c1.7-11.5,0.2-23.6,0.7-35"/>
	<path id="Caminho_135_3_" class="st5" d="M38.6,494.4c4.7-0.1,9.5,0.4,14.4,0.3c3.8-0.1,15.9,1.1,18.7-1.8
		c4.3-4.4,0.4-28.6,1.5-35.3c-10.8-3.9-24.1,2-34.8,2.4c-1.4,11.5,0.5,23.6,0.2,35"/>
</g>
<g id="Grupo_354">
	<path id="Caminho_196_1_" class="st2" d="M524.9,346.2c-7-3.3-13.2-6.3-20.8-8.1c-2.9-0.7-17.6-2.7-10.4,2.9
		c5.9,4.6,14.2,6.9,21.6,7.7c2.2,0.2,4.6,0.9,6.8,0.7c2.7-0.2,4.2-2.4,1.2-4"/>
	<path id="Caminho_197_1_" class="st2" d="M499.8,325.9c-4.5-6.2-8.6-11.8-14.4-17.1c-2.2-2-14.1-10.9-10.4-2.6
		c3,6.8,9.2,12.8,15.3,17.1c1.8,1.3,3.6,3,5.6,4c2.4,1.1,4.8,0.1,2.9-2.8"/>
	<path id="Caminho_198_1_" class="st2" d="M487.9,290.5c1.7,6.1,3.1,11.6,6.2,17.1c1.1,2.1,8.3,11.9,8.2,4.2
		c-0.1-6.3-3.2-12.6-7-17.3c-1.1-1.4-2-3.3-3.4-4.4c-1.7-1.4-4.2-1-3.6,1.8"/>
	<path id="Caminho_199_1_" class="st2" d="M456.3,354.1c-4.5,4.7-8.7,8.9-12.4,14.5c-1.4,2.1-7.5,13.2-1.2,8.9
		c5.2-3.5,9.5-9.6,12.3-15.3c1-1.7,1.9-3.4,2.7-5.2c0.7-2.1-0.4-3.9-2.5-1.9"/>
	<path id="Caminho_200_1_" class="st2" d="M512.5,303.8c-1.5-6.8-0.6-13.6-2.7-20.4c-0.5-1.7-3.9-12.2-6-6c-0.9,2.9,0.4,7.7,1,10.6
		c0.5,3,1.3,6,2.4,8.9c0.6,1.5,1.1,3.1,1.8,4.5c0.4,0.9,2.3,4.5,3,1.6"/>
	<path id="Caminho_201_1_" class="st2" d="M458.8,375.8c0.3,3.5,3.9,8.5,5.4,11.9c1.5,3.4,3.3,6.8,5,10.2c1.4,2.6,6.1,9.4,5.4,2.7
		c-0.7-7.6-4.7-14.8-9.5-20.7c-1-1.4-2.1-2.8-3.3-4.1c-2.7-2.6-2.5-0.3-2.2,2.6"/>
	<path id="Caminho_202_1_" class="st2" d="M474.3,369.8c2-2.7,2.3-8.4,3.2-11.8c1-3.4,1.7-6.9,2.5-10.3c0.6-2.7,1.1-10.4-2.5-5.2
		c-4.2,5.9-5.6,13.5-5.6,20.6c-0.1,1.6-0.1,3.3-0.1,4.9c0.5,3.5,1.7,1.7,3.4-0.5"/>
	<path id="Caminho_203_1_" class="st2" d="M485.7,344.4c3,7.7,4.9,15.8,8.7,23.2c0.8,1.8,1.9,3.5,3.2,5c1.7,1.6,2,1.3,2.1-0.7
		c0.6-7.8-5.1-18.5-9.2-25.3c-0.7-1.4-1.6-2.8-2.6-4c-1.5-1.3-2.4-0.5-1.7,1.8"/>
</g>
<g id="Grupo_151">
	<path id="Caminho_156_1_" class="st1" d="M83.7,48.3c2,8.3,4.9,13.6,7.9,21.8c2.4,6.5,3.7,16.5,8.2,23.4
		c9.7-13.4,21.6-27.1,28.5-42c-6.8-1.8-16.8-0.7-24.5-1.5c-7-0.7-15.1-2.2-20.8-2.1"/>
	<path id="Caminho_157_1_" class="st2" d="M143,106.3c-2.2-4.5-1.4-6.6-3.1-11.2c-2-5.3-1.8-5.6-3.8-10.9c-2.3-5.9-2.8-9.4-4.3-15.5
		c-1-3.9-2.8-11.8-4.5-15.5c-4.8,10.2-9.6,13.6-16.5,22.9c-4.1,5.6-7.8,11.5-11.1,17.6C99.7,93.7,127.2,102.3,143,106.3z"/>
</g>
<g id="Grupo_355">
	<path id="Caminho_188_1_" class="st0" d="M75.9,29.9c-5.6,3.9-10.6,7.3-15.3,12.3c-1.8,1.9-9.7,12.2-2.3,9.2
		c6.1-2.5,11.5-7.8,15.3-13.2c1.1-1.6,2.7-3.1,3.6-4.9c1-2.1,0-4.3-2.6-2.7"/>
	<path id="Caminho_189_1_" class="st0" d="M24.8,81.7c5.8-3.5,11-6.6,16.1-11.3c1.9-1.8,10.6-11.5,3.1-8.9
		c-6.2,2.1-12,7.1-16.2,12.1c-1.2,1.5-3,2.9-3.9,4.6c-1.2,2-0.4,4.2,2.3,2.8"/>
	<path id="Caminho_190_1_" class="st0" d="M5.5,65.4c6.8-0.6,12.8-1.1,19.4-3c2.5-0.8,14.6-5.6,6.7-6.7c-6.5-0.8-13.9,1-19.9,3.7
		c-1.8,0.8-4,1.3-5.6,2.4c-1.9,1.3-2.2,3.6,0.8,3.5"/>
	<path id="Caminho_191_1_" class="st0" d="M0.2,45.2c6.3,2.4,12,4.6,18.8,5.7c2.6,0.4,15.6,1.3,8.9-3.1c-5.5-3.6-13-5.1-19.5-5.2
		c-1.9,0-4.1-0.5-6-0.2c-2.3,0.3-3.5,2.2-0.8,3.5"/>
	<path id="Caminho_192_1_" class="st0" d="M41.9,22.8c2.2,7,2.4,14.2,5.1,21.1c0.7,1.7,5.1,12.5,6.1,5.9c0.4-3-1.4-8-2.3-11
		c-0.8-3.1-1.9-6.2-3.3-9.1c-0.8-1.6-1.4-3.1-2.2-4.6c-0.5-0.9-2.7-4.6-2.9-1.5"/>
	<path id="Caminho_193_1_" class="st0" d="M76.2,74.7c-1.8-2.5-6.7-4.7-9.4-6.6s-5.6-3.7-8.4-5.5c-2.2-1.4-8.8-4.4-5.3,0.4
		c4,5.4,10.2,9.1,16.5,11.5c1.4,0.6,2.8,1.2,4.3,1.7c3.2,0.8,2-0.9,0.5-3"/>
	<path id="Caminho_194_1_" class="st0" d="M31.2,39.8c-1.4-2.5-5.8-5-8.2-7s-4.8-3.9-7.3-5.8c-1.9-1.5-7.8-4.8-5.1,0.1
		c3.1,5.5,8.6,9.5,14.3,12.1c1.3,0.7,2.6,1.3,3.9,1.9c3,0.9,2-0.8,0.8-2.9"/>
	<path id="Caminho_195_1_" class="st0" d="M90.5,54c-7.3,0.4-14.5-0.2-21.8,0.9c-1.7,0.2-3.4,0.6-5,1.3c-1.8,1-1.6,1.3,0,2
		c6.3,2.6,16.8,0.8,23.7-0.6c1.4-0.2,2.7-0.6,4-1.1c1.5-0.9,1.1-1.9-1-1.9"/>
</g>
<g>
	<circle class="st7" cx="264" cy="270.9" r="184.3"/>
	<g>
		<path class="st5" d="M263.5,122.9v28.5c-10.8,0-19.6,8.8-19.6,19.6s8.8,19.6,19.6,19.6v80.2h80.2c0-10.8,8.8-19.6,19.6-19.6
			s19.6,8.8,19.6,19.6h28.5C411.3,189.1,345.1,122.9,263.5,122.9z"/>
	</g>
	<g>
		<path class="st5" d="M263.7,418.3v-28.5c10.8,0,19.6-8.8,19.6-19.6s-8.8-19.6-19.6-19.6v-80.2h-80.2c0,10.8-8.8,19.6-19.6,19.6
			c-10.8,0-19.6-8.8-19.6-19.6h-28.5C115.9,352.2,182.1,418.3,263.7,418.3z"/>
	</g>
	<g>
		<path d="M263.5,458.5c-103.5,0-187.7-84.2-187.7-187.8S159.9,83,263.5,83c103.5,0,187.8,84.2,187.8,187.7S367,458.5,263.5,458.5z
			 M263.5,88.8c-100.3,0-182,81.6-182,182s81.6,182,182,182s182-81.6,182-182S363.8,88.8,263.5,88.8z"/>
	</g>
	<g>
		<path d="M414.2,273.6h-34.3v-2.9c0-9.2-7.5-16.7-16.7-16.7c-9.2,0-16.7,7.5-16.7,16.7v2.9h-86v-80.4c-11-1.4-19.6-10.9-19.6-22.3
			s8.5-20.8,19.6-22.3V120h2.9c83.1,0,150.7,67.6,150.7,150.7V273.6z M385.5,267.9h22.9c-1.5-77.6-64.4-140.5-142-142v28.5h-2.9
			c-9.2,0-16.7,7.5-16.7,16.7c0,9.2,7.5,16.7,16.7,16.7h2.9v80.2H341c1.4-11,10.9-19.6,22.3-19.6
			C374.6,248.3,384.1,256.8,385.5,267.9z"/>
	</g>
	<g>
		<path d="M163.7,293.2c-11.4,0-20.8-8.5-22.3-19.6h-28.7v-2.9c0-83.1,67.6-150.7,150.7-150.7h2.9v34.3h-2.9
			c-9.2,0-16.7,7.5-16.7,16.7c0,9.2,7.5,16.7,16.7,16.7h2.9v86H186C184.5,284.7,175.1,293.2,163.7,293.2z M118.6,267.9H147v2.9
			c0,9.2,7.5,16.7,16.7,16.7s16.7-7.5,16.7-16.7v-2.9h80.2v-74.6c-11-1.4-19.6-10.9-19.6-22.3s8.5-20.8,19.6-22.3v-22.9
			C183,127.4,120.1,190.2,118.6,267.9z"/>
	</g>
	<g>
		<path d="M266.4,421.5h-2.9c-83.1,0-150.7-67.6-150.7-150.7v-2.9H147v2.9c0,9.2,7.5,16.7,16.7,16.7s16.7-7.5,16.7-16.7v-2.9h86
			v80.4c11,1.4,19.6,10.9,19.6,22.3c0,11.4-8.5,20.8-19.6,22.3V421.5z M118.6,273.6c1.5,77.6,64.4,140.5,142,142v-28.5h2.9
			c9.2,0,16.7-7.5,16.7-16.7c0-9.2-7.5-16.7-16.7-16.7h-2.9v-80.2H186c-1.4,11-10.9,19.6-22.3,19.6s-20.8-8.5-22.3-19.6H118.6z"/>
	</g>
	<g>
		<g>
			<g>
				<rect x="186.1" y="142" width="77.3" height="4.9"/>
			</g>
			<g>
				<rect x="160.2" y="163" width="86.2" height="4.9"/>
			</g>
		</g>
		<g>
			<g>
				<rect x="141.5" y="183.8" width="110.6" height="4.9"/>
			</g>
			<g>
				<rect x="132.6" y="204.8" width="131.1" height="4.9"/>
			</g>
		</g>
		<g>
			<g>
				<rect x="123.3" y="225.6" width="140.4" height="4.9"/>
			</g>
			<g>
				<rect x="117.5" y="246.5" width="146.2" height="4.9"/>
			</g>
		</g>
		<g>
			<g>
				<rect x="117.5" y="267.4" width="146.2" height="4.9"/>
			</g>
		</g>
		<g>
			<rect x="230.3" y="127" width="4.9" height="17.5"/>
		</g>
		<g>
			<rect x="230.3" y="165.7" width="4.9" height="20.4"/>
		</g>
		<g>
			<rect x="181.3" y="165.7" width="4.9" height="20.4"/>
		</g>
		<g>
			<rect x="230.3" y="207.4" width="4.9" height="20.4"/>
		</g>
		<g>
			<rect x="181.3" y="207.4" width="4.9" height="20.4"/>
		</g>
		<g>
			<rect x="132.4" y="207.4" width="4.9" height="20.4"/>
		</g>
		<g>
			<rect x="181.3" y="248.8" width="4.9" height="20.4"/>
		</g>
		<g>
			<rect x="132.4" y="248.8" width="4.9" height="20.4"/>
		</g>
		<g>
			<rect x="206.8" y="144.3" width="4.9" height="21.3"/>
		</g>
		<g>
			<g>
				<rect x="160.4" y="187.6" width="4.9" height="20.4"/>
			</g>
		</g>
		<g>
			<g>
				<rect x="160.4" y="228.3" width="4.9" height="20.4"/>
			</g>
		</g>
		<g>
			<g>
				<rect x="160.4" y="270.1" width="4.9" height="20"/>
			</g>
		</g>
	</g>
	<g>
		<defs>
			<path id="SVGID_1_" d="M411.3,270.7h-28.5c0-10.8-8.8-19.6-19.6-19.6s-19.6,8.8-19.6,19.6h-80.2V351c10.8,0,19.6,8.8,19.6,19.6
				c0,10.8-8.8,19.6-19.6,19.6v28.5C345.1,418.6,411.3,352.4,411.3,270.7z"/>
		</defs>
		<clipPath id="SVGID_2_">
			<use xlink:href="#SVGID_1_"  style="overflow:visible;"/>
		</clipPath>
		<g class="st8">
			<g>
				<rect x="260.6" y="288.4" class="st2" width="153.1" height="21.7"/>
			</g>
			<g>
				<rect x="260.8" y="245.6" class="st4" width="153.1" height="43"/>
			</g>
			<g>
				<rect x="260.8" y="309.9" class="st0" width="153.1" height="21.7"/>
			</g>
			<g>
				<rect x="260.8" y="331.6" class="st5" width="153.1" height="21.7"/>
			</g>
			<g>
				<rect x="260.8" y="353.3" class="st3" width="153.1" height="21.7"/>
			</g>
			<g>
				<rect x="260.8" y="375.1" class="st6" width="153.1" height="21.7"/>
			</g>
			<g>
				<rect x="260.8" y="396.8" class="st1" width="153.1" height="21.7"/>
			</g>
		</g>
	</g>
	<g>
		<path d="M263.5,421.5h-2.9v-34.3h2.9c9.2,0,16.7-7.5,16.7-16.7c0-9.2-7.5-16.7-16.7-16.7h-2.9v-86H341c1.4-11,10.9-19.6,22.3-19.6
			c11.4,0,20.8,8.5,22.3,19.6h28.7v2.9C414.2,353.8,346.6,421.5,263.5,421.5z M266.4,392.8v22.9c77.6-1.5,140.5-64.4,142-142h-28.5
			v-2.9c0-9.2-7.5-16.7-16.7-16.7c-9.2,0-16.7,7.5-16.7,16.7v2.9h-80.2v74.6c11,1.4,19.6,10.9,19.6,22.3
			C285.9,381.9,277.4,391.3,266.4,392.8z"/>
	</g>
	<g>
		<g>
			<path class="st7" d="M341.4,172.6c0,0-68.7-15.9-90.9,69.1c0,0-13.4-7.9-7.7-35.5c4.1-20-15.5-28.6-28.6-22.3
				c-12.9,6.2-21.8-3.6-21.8-3.6s16.4,16.8,11.8,35c-4.2,16.9-14.1,57.7,11.8,81.8c25.9,24.1,50.5,14.7,63.2,10.9
				c9-2.7,15.3-4,21.8-0.9c11.4,5.5,5,16.8,16.8,31.4c0,0,10.5-31.8,41.4-53.6c0,0-10.5-7.4-37.7-1.4c-20.5,4.5-26.4-4.5-33-13.2
				C288.4,270.3,353.7,243.9,341.4,172.6z"/>
			<path d="M317.8,339l-0.3-0.3c-5.7-7-7.2-13.3-8.4-18.4c-1.4-5.6-2.4-10.1-8.3-12.9c-6.7-3.2-13.2-1.6-21.7,0.9
				c-0.6,0.2-1.3,0.4-2,0.6c-6.6,2.1-15.7,4.9-26.4,4.3c-12.6-0.6-24.3-6-35-15.9c-26.3-24.4-15.8-66.3-11.9-82.1
				c2.3-9.3-1-18.3-4.2-24.2c-3.2-6-7-10-7.5-10.6c0,0-0.1-0.1-0.1-0.1l0.3-0.3c0,0,0,0,0.1,0.1c0.8,0.8,9.5,9.3,21.5,3.5
				c7.2-3.5,16.2-2.6,22.5,2.3c5.9,4.6,8.2,11.8,6.5,20.2c-1.6,7.8-2.6,19,1.7,27.9c2.2,4.5,4.8,6.6,5.6,7.2
				c5.1-19.3,13-34.9,23.6-46.5c8.5-9.3,18.7-16,30.3-19.8c19.8-6.6,37.1-2.7,37.2-2.7l0.1,0l0,0.1c2.8,16.3,1.8,31.6-3.1,45.5
				c-3.9,11.1-10.2,21.3-18.8,30.3c-13.6,14.3-28.7,21.1-30.9,22l0.6,0.8c6.4,8.4,12.4,16.4,32,12.1c27-6,37.8,1.3,37.9,1.4l0.3,0.2
				l-0.3,0.2c-30.5,21.5-41.2,53.2-41.3,53.5L317.8,339z M292.8,305.1c2.8,0,5.5,0.5,8.2,1.8c6.1,2.9,7.2,7.5,8.6,13.2
				c1.2,5,2.7,11.2,8.1,17.9c1.3-3.7,12.5-32.9,41-53.2c-1.8-1.1-12.8-6.6-37.3-1.2c-19.8,4.4-26.2-4.1-32.4-12.2l-1-1.3l0.3-0.1
				c0.2-0.1,16.4-6.8,31-22.1c8.6-9,14.9-19.1,18.7-30.2c4.8-13.8,5.9-28.9,3.1-45.1c-1.7-0.4-18.2-3.5-36.9,2.7
				c-11.5,3.9-21.7,10.5-30.1,19.7c-10.6,11.5-18.5,27.2-23.5,46.6l-0.1,0.3l-0.3-0.2c-0.1-0.1-3.4-2.1-6.1-7.5
				c-2.4-5-4.7-13.9-1.8-28.2c1.7-8.3-0.6-15.3-6.3-19.8c-6.1-4.7-14.9-5.6-22-2.2c-9.1,4.4-16.3,0.8-19.8-1.7
				c1.5,1.9,3.7,4.8,5.7,8.5c3.2,5.9,6.6,15,4.2,24.5c-3.9,15.7-14.3,57.4,11.8,81.6c24.5,22.8,48.2,15.4,60.9,11.5
				c0.7-0.2,1.4-0.4,2-0.6C284.2,306.3,288.6,305.1,292.8,305.1z"/>
		</g>
		<g>
			<path d="M315.5,340.4c-6-7.4-7.7-14.1-9-19.5c-1.3-5.5-2.1-8.8-6.8-11.1c-5.3-2.5-10.6-1.7-19.7,1.1c-0.6,0.2-1.3,0.4-2,0.6
				c-13.4,4.1-38.2,11.8-64-12.2c-27.5-25.5-16.7-68.5-12.7-84.7c3.8-15.4-9.1-30.1-10.9-32c-0.1-0.1-0.2-0.2-0.3-0.3l4.3-4.1
				c0,0,0.1,0.1,0.2,0.2c1,1,8.2,7.7,18.3,2.9c8.1-3.9,18.3-2.9,25.3,2.6c6.7,5.2,9.4,13.6,7.5,22.9c-3.4,16.5,0.3,25.2,3.3,29.3
				c7.2-24.1,22.3-53,54.4-63.6c20.5-6.8,38-2.9,38.7-2.7l2.2,2.4c6.5,38.1-8.7,63.5-22.7,78.2c-11.1,11.7-22.9,18.4-28.6,21.2
				c5.6,7.2,11.4,12.8,27.7,9.2c28.2-6.3,39.6,1.5,40.1,1.8l0,4.8c-29.7,21-40.2,51.8-40.3,52.2L315.5,340.4z M292.8,302.4
				c3.2,0,6.2,0.6,9.4,2.1c7.2,3.5,8.6,9.1,10,15c0.9,3.9,2,8.1,4.8,12.8c4.1-9.5,14.9-30.2,36.2-46.7c-5.1-1.4-15-2.8-31.2,0.8
				c-21.5,4.8-28.8-4.8-35.2-13.3l-0.8-1l1.2-4.5c0.2-0.1,16-6.6,30.2-21.6c18.4-19.4,25.5-43.2,21.3-70.9c-4.9-0.8-18.6-2.1-33.8,3
				c-25.3,8.6-42.7,30.2-51.6,64.3l-4.4,1.8c-0.6-0.4-15.1-9.3-9.1-38.6c1.5-7.2-0.4-13.3-5.3-17.1c-5.2-4.1-13.1-4.8-19.1-1.9
				c-4.9,2.4-9.5,2.7-13.4,2c4,7,7.6,16.9,5,27.4c-3.8,15.3-13.9,55.8,11,79c23.3,21.7,45.2,14.9,58.3,10.9c0.7-0.2,1.4-0.4,2.1-0.6
				C283.5,303.6,288.2,302.4,292.8,302.4z"/>
		</g>
		<g>
			<circle cx="223.4" cy="195.1" r="4.8"/>
			<path d="M223.4,200.1c-2.8,0-5-2.2-5-5s2.2-5,5-5c2.8,0,5,2.2,5,5S226.2,200.1,223.4,200.1z M223.4,190.5c-2.5,0-4.5,2-4.5,4.5
				s2,4.5,4.5,4.5c2.5,0,4.5-2,4.5-4.5S225.9,190.5,223.4,190.5z"/>
		</g>
	</g>
	<g>
		<g>
			<path d="M153.2,137l10.6,12.5l-3.5,2.9L149.8,140L153.2,137z"/>
		</g>
		<g>
			<path d="M177.7,139.2l-3.7,2.7l-10.2-3.9l5.3,7.4l-3.7,2.7l-9.6-13.2l3.7-2.7l10.3,4l-5.4-7.5l3.7-2.7L177.7,139.2z"/>
		</g>
		<g>
			<path d="M188.3,130.4c0,0.9-0.3,1.7-0.9,2.5c-0.6,0.8-1.4,1.5-2.5,2.2c-1.6,1-3.2,1.3-4.7,1.2c-1.5-0.2-2.7-1-3.7-2.4l4.2-2.4
				c0.3,0.5,0.7,0.7,1.1,0.8c0.4,0.1,0.8,0,1.2-0.2c0.3-0.2,0.6-0.4,0.7-0.7c0.1-0.3,0-0.6-0.1-0.9c-0.2-0.4-0.6-0.6-1.2-0.7
				c-0.5,0-1.3,0.1-2.3,0.3c-1.1,0.2-2,0.3-2.7,0.4c-0.8,0-1.5-0.1-2.3-0.4c-0.8-0.3-1.4-1-1.9-1.9c-0.5-0.9-0.7-1.8-0.6-2.7
				c0.1-0.9,0.4-1.7,1-2.5c0.6-0.8,1.4-1.5,2.4-2c1.6-0.9,3.1-1.3,4.6-1.1c1.4,0.2,2.6,1,3.5,2.3l-4.2,2.4c-0.3-0.4-0.6-0.7-1-0.7
				c-0.3-0.1-0.7,0-1.1,0.2c-0.3,0.2-0.5,0.4-0.6,0.7c-0.1,0.3,0,0.6,0.2,0.9c0.2,0.4,0.6,0.6,1.1,0.6c0.5,0,1.3-0.1,2.2-0.3
				c1.1-0.2,2-0.3,2.8-0.3c0.8,0,1.5,0.1,2.3,0.5c0.8,0.3,1.4,1,2,1.9C188.2,128.7,188.4,129.5,188.3,130.4z"/>
		</g>
		<g>
			<path d="M195.8,111.2l1.5,3.3l-4,1.9l5.4,11.5l-4.1,1.9l-5.4-11.5l-4,1.9l-1.5-3.3L195.8,111.2z"/>
		</g>
		<g>
			<path d="M202.2,108.7l5.9,15.2l-4.2,1.7l-5.9-15.2L202.2,108.7z"/>
		</g>
		<g>
			<path d="M217,103.7l1.1,3.5l-4.2,1.4l3.9,12.1l-4.3,1.4l-3.9-12.1l-4.2,1.3l-1.1-3.5L217,103.7z"/>
		</g>
		<g>
			<path d="M223.9,102.1l2,9.1c0.2,0.9,0.6,1.6,1.1,2c0.5,0.4,1.2,0.5,2,0.3s1.4-0.6,1.7-1.1c0.3-0.6,0.4-1.3,0.2-2.2l-2-9.1l4.4-1
				l2,9.1c0.3,1.5,0.3,2.8-0.1,4c-0.4,1.2-1,2.2-2,2.9c-0.9,0.8-2.1,1.3-3.4,1.6c-1.3,0.3-2.6,0.3-3.7,0c-1.1-0.3-2.1-0.9-2.9-1.8
				c-0.8-0.9-1.4-2.1-1.7-3.7l-2-9.1L223.9,102.1z"/>
		</g>
		<g>
			<path d="M248.9,98l0.4,3.6l-4.4,0.5l1.6,12.6l-4.5,0.6l-1.6-12.6l-4.3,0.5l-0.4-3.6L248.9,98z"/>
		</g>
		<g>
			<path d="M263.8,98.3c1.3,0.7,2.3,1.7,3.1,2.9c0.8,1.3,1.2,2.7,1.2,4.3c0,1.6-0.3,3-1,4.3c-0.7,1.3-1.7,2.3-2.9,3.1
				c-1.3,0.7-2.6,1.1-4.2,1.2c-1.5,0-2.9-0.3-4.2-1c-1.3-0.7-2.3-1.7-3.1-2.9c-0.8-1.3-1.2-2.7-1.2-4.3c0-1.6,0.3-3.1,1-4.3
				c0.7-1.3,1.7-2.3,3-3.1c1.3-0.7,2.7-1.1,4.2-1.2C261.1,97.2,262.5,97.6,263.8,98.3z M257,102.7c-0.6,0.8-1,1.8-0.9,3.1
				c0,1.3,0.4,2.3,1.1,3c0.7,0.7,1.6,1.1,2.8,1.1c1.1,0,2-0.4,2.7-1.2c0.6-0.8,1-1.8,0.9-3c0-1.3-0.4-2.3-1.1-3
				c-0.7-0.7-1.6-1.1-2.7-1.1C258.5,101.5,257.6,101.9,257,102.7z"/>
		</g>
		<g>
			<path d="M288,99.1l-0.4,3.6l-4.4-0.5l-1.3,12.7l-4.5-0.5l1.3-12.7l-4.3-0.5l0.4-3.6L288,99.1z"/>
		</g>
		<g>
			<path d="M294.3,104l-0.5,2.7l5.2,1l-0.6,3.4l-5.2-1l-0.5,2.9l5.9,1.1l-0.7,3.6l-10.4-2l3-16.1l10.4,2l-0.7,3.6L294.3,104z
				 M299.4,98l-6.1,1.2l0.6-3l6.2-1.5L299.4,98z"/>
		</g>
		<g>
			<path d="M314.7,105.9c0.9,0.8,1.6,1.8,2,2.9c0.4,1.1,0.6,2.3,0.4,3.6l-4.6-1.3c-0.1-0.7-0.3-1.3-0.8-1.8c-0.4-0.5-1-0.9-1.7-1.1
				c-1-0.3-1.8-0.1-2.6,0.4c-0.8,0.5-1.4,1.4-1.7,2.6c-0.3,1.2-0.3,2.2,0.1,3.1c0.4,0.9,1.1,1.5,2,1.8c0.7,0.2,1.4,0.2,2,0
				c0.6-0.2,1.2-0.6,1.6-1.1l4.6,1.3c-0.9,1.7-2.1,3-3.8,3.7c-1.6,0.7-3.5,0.8-5.5,0.2c-1.6-0.4-2.8-1.2-3.8-2.2
				c-1-1-1.6-2.2-1.9-3.6c-0.3-1.4-0.2-2.9,0.2-4.4c0.4-1.6,1.2-2.8,2.1-3.9c1-1,2.1-1.7,3.5-2.1c1.4-0.3,2.8-0.3,4.4,0.2
				C312.7,104.5,313.8,105.1,314.7,105.9z"/>
		</g>
		<g>
			<path d="M329.8,128.4l-4.2-1.7l-2.1-10.7l-3.5,8.4l-4.2-1.7l6.2-15.1l4.2,1.7l2.1,10.8l3.5-8.6l4.2,1.7L329.8,128.4z"/>
		</g>
		<g>
			<path d="M343.2,116.9l-7.3,14.6l-4.1-2l7.3-14.6L343.2,116.9z"/>
		</g>
		<g>
			<path d="M355.7,124.8c0.7,1,1.1,2.1,1.2,3.3c0.1,1.2-0.1,2.4-0.5,3.5l-4.1-2.5c0.1-0.7,0-1.3-0.3-1.9c-0.3-0.6-0.7-1.1-1.4-1.5
				c-0.9-0.5-1.7-0.6-2.7-0.3c-0.9,0.3-1.7,1-2.3,2.1c-0.6,1.1-0.9,2.1-0.8,3.1c0.1,1,0.6,1.7,1.5,2.2c0.6,0.4,1.3,0.5,1.9,0.5
				c0.7,0,1.3-0.3,1.8-0.7l4.1,2.5c-1.3,1.4-2.8,2.3-4.6,2.6c-1.8,0.3-3.6-0.1-5.4-1.2c-1.4-0.8-2.4-1.9-3.1-3.1
				c-0.7-1.2-1-2.5-0.9-4c0.1-1.4,0.5-2.8,1.4-4.2c0.8-1.4,1.9-2.5,3.1-3.2c1.2-0.7,2.5-1.1,3.9-1.1c1.4,0,2.8,0.4,4.2,1.3
				C354.1,122.9,355,123.8,355.7,124.8z"/>
		</g>
		<g>
			<path d="M371.5,136.3c0.6,1.3,0.8,2.7,0.6,4.2c-0.2,1.5-0.8,2.8-1.7,4.1c-1,1.3-2.1,2.2-3.5,2.8c-1.4,0.6-2.8,0.8-4.2,0.6
				c-1.4-0.2-2.8-0.8-4-1.7c-1.2-0.9-2.1-2.1-2.7-3.4c-0.6-1.3-0.8-2.7-0.6-4.2c0.2-1.5,0.8-2.8,1.7-4.1c1-1.3,2.1-2.2,3.5-2.8
				c1.4-0.6,2.8-0.8,4.2-0.5c1.5,0.2,2.8,0.8,4,1.7C370,133.8,370.9,134.9,371.5,136.3z M363.4,135.4c-1,0.2-1.9,0.8-2.6,1.8
				c-0.8,1-1.1,2-1,3c0.1,1,0.6,1.9,1.5,2.6c0.9,0.7,1.9,0.9,2.8,0.7c1-0.2,1.9-0.8,2.6-1.8c0.8-1,1.1-2,1.1-3
				c-0.1-1-0.6-1.8-1.5-2.5C365.3,135.5,364.4,135.3,363.4,135.4z"/>
		</g>
	</g>
	<g>
		<g>
			<path d="M106.8,273.4l-16.3-0.7l0.2-4.5l9.2,0.4l-9.1-3.4l0.2-3.9l9.4-2.6l-9.2-0.4l0.2-4.5l16.3,0.7l-0.3,5.6l-10.8,3.5
				l10.4,4.4L106.8,273.4z"/>
		</g>
		<g>
			<path d="M94.2,286.5l-0.4-5.8l-2.8-0.7l-0.4-4.8l16.7,4.7l0.4,5.2l-15.8,7.2l-0.4-4.8L94.2,286.5z M97.5,285.1l5.2-2.2l-5.4-1.4
				L97.5,285.1z"/>
		</g>
		<g>
			<path d="M105.6,297l-2.7,0.5l0.9,5.2l-3.4,0.6l-0.9-5.2l-2.9,0.5l1,5.9l-3.6,0.6l-1.8-10.4l16.1-2.7l1.8,10.4l-3.6,0.6L105.6,297
				z"/>
		</g>
		<g>
			<path d="M99.7,318.5c-0.8-0.3-1.6-0.8-2.2-1.5c-0.6-0.8-1.1-1.7-1.4-3c-0.5-1.8-0.4-3.5,0.2-4.9c0.6-1.4,1.7-2.4,3.3-2.9l1.2,4.7
				c-0.5,0.2-0.9,0.5-1.1,0.8c-0.2,0.4-0.2,0.8-0.1,1.2c0.1,0.4,0.3,0.7,0.5,0.8c0.2,0.2,0.6,0.2,0.9,0.1c0.5-0.1,0.8-0.4,0.9-0.9
				c0.2-0.5,0.3-1.3,0.3-2.3c0.1-1.1,0.2-2,0.4-2.7c0.2-0.7,0.5-1.4,1.1-2.1c0.5-0.6,1.3-1.1,2.3-1.4c1-0.3,1.9-0.2,2.7,0.1
				c0.8,0.3,1.6,0.9,2.1,1.7c0.6,0.8,1,1.7,1.3,2.9c0.5,1.8,0.4,3.4-0.2,4.7c-0.6,1.3-1.6,2.2-3.2,2.7l-1.2-4.7
				c0.5-0.2,0.8-0.4,1-0.7c0.2-0.3,0.2-0.7,0.1-1.1c-0.1-0.3-0.2-0.6-0.5-0.7c-0.2-0.1-0.5-0.2-0.9-0.1c-0.4,0.1-0.7,0.4-0.9,0.9
				c-0.1,0.5-0.3,1.2-0.3,2.2c-0.1,1.1-0.2,2-0.4,2.8c-0.2,0.7-0.5,1.4-1.1,2.1c-0.5,0.6-1.3,1.1-2.4,1.4
				C101.4,318.8,100.5,318.8,99.7,318.5z"/>
		</g>
		<g>
			<path d="M118,328.7l-3.4,1.2l-1.5-4.2l-12,4.2l-1.5-4.3l12-4.2l-1.4-4.1l3.4-1.2L118,328.7z"/>
		</g>
		<g>
			<path d="M106.9,343.9l4.1-5.5l-0.2-0.4l-5.5,2.5l-1.9-4.1l14.9-6.7l3,6.6c0.5,1.2,0.8,2.3,0.8,3.3c0,1-0.3,1.9-0.9,2.7
				c-0.5,0.8-1.3,1.3-2.2,1.7c-1,0.5-2.1,0.6-3.1,0.4c-1-0.2-1.9-0.8-2.7-1.8l-4.3,6L106.9,343.9z M113.6,336.7l0.9,2
				c0.5,1.2,1.3,1.5,2.3,1c0.5-0.2,0.8-0.5,1-1c0.2-0.4,0.1-0.9-0.2-1.5l-0.9-2L113.6,336.7z"/>
		</g>
		<g>
			<path d="M129.7,353.6c0,1.5-0.3,2.8-1.1,4.1c-0.7,1.3-1.8,2.3-3.2,3.1c-1.4,0.8-2.8,1.2-4.3,1.2c-1.5,0-2.8-0.4-4.1-1.1
				c-1.3-0.7-2.3-1.8-3-3.1c-0.8-1.3-1.2-2.7-1.2-4.2c0-1.5,0.3-2.8,1.1-4.1c0.7-1.3,1.8-2.3,3.2-3.1c1.4-0.8,2.8-1.2,4.3-1.2
				c1.5,0,2.8,0.4,4.1,1.1c1.3,0.7,2.3,1.8,3,3.1C129.3,350.7,129.7,352.1,129.7,353.6z M122.6,349.7c-1-0.2-2,0-3.1,0.7
				c-1.1,0.6-1.8,1.4-2.1,2.4c-0.3,1-0.2,1.9,0.4,2.9c0.6,1,1.3,1.6,2.3,1.8c1,0.2,2,0,3.1-0.7c1.1-0.6,1.8-1.4,2.2-2.4
				c0.3-0.9,0.2-1.9-0.4-2.9C124.3,350.5,123.5,349.9,122.6,349.7z"/>
		</g>
		<g>
			<path d="M131.1,377.7l-3.6-4.6l-2.7,1l-2.9-3.8l16.5-5.3l3.2,4.1l-9.2,14.7l-2.9-3.8L131.1,377.7z M133.2,374.8l3.1-4.6L131,372
				L133.2,374.8z"/>
		</g>
		<g>
			<path d="M139.7,386.5l3.5,3.7l-2.5,2.3l-6.6-7.1l12-11.1l3.1,3.3L139.7,386.5z"/>
		</g>
		<g>
			<path d="M161.7,389.9l-2.5,2.7l-4.8-4.5l-2,2.1l3.6,3.3l-2.3,2.5l-3.6-3.3l-4.3,4.7l-3.3-3.1l11.1-12L161.7,389.9z"/>
		</g>
		<g>
			<path d="M159.2,408.8l1.1-6.8l-0.4-0.3l-3.7,4.8l-3.6-2.8l10-12.9l5.7,4.4c1,0.8,1.8,1.7,2.2,2.6c0.4,0.9,0.6,1.8,0.5,2.8
				c-0.1,0.9-0.5,1.8-1.1,2.6c-0.7,0.9-1.6,1.5-2.6,1.8c-1,0.3-2.1,0.2-3.2-0.3l-1,7.3L159.2,408.8z M161.8,399.3l1.8,1.4
				c1,0.8,1.8,0.7,2.5-0.2c0.3-0.4,0.5-0.9,0.4-1.3c-0.1-0.4-0.3-0.8-0.8-1.2l-1.8-1.4L161.8,399.3z"/>
		</g>
		<g>
			<path d="M176.1,405.1l-1.5,2.3l4.4,2.9l-1.9,2.9l-4.4-2.9l-1.6,2.5l5,3.3l-2,3l-8.8-5.7l8.9-13.7l8.8,5.7l-2,3L176.1,405.1z"/>
		</g>
		<g>
			<path d="M191,423.6c-1.2,0.8-2.5,1.2-4,1.2c-1.5,0-3-0.3-4.5-1.1l-5.8-3l7.6-14.5l5.8,3c1.5,0.8,2.7,1.8,3.5,3
				c0.8,1.2,1.2,2.5,1.3,3.9c0,1.4-0.3,2.8-1.1,4.2C193.2,421.7,192.2,422.8,191,423.6z M187.4,420.3c1-0.3,1.8-1,2.4-2.2
				c0.6-1.2,0.7-2.2,0.4-3.2c-0.3-1-1.1-1.8-2.3-2.4l-1.4-0.7l-3.9,7.4l1.4,0.7C185.2,420.5,186.4,420.6,187.4,420.3z"/>
		</g>
		<g>
			<path d="M209.9,418.8c0.9,1.1,1.5,2.4,1.7,3.9c0.2,1.5,0,2.9-0.6,4.4c-0.6,1.5-1.5,2.7-2.6,3.6c-1.2,0.9-2.5,1.5-3.9,1.7
				c-1.4,0.2-2.9,0-4.3-0.5c-1.4-0.6-2.6-1.4-3.5-2.5c-0.9-1.1-1.5-2.4-1.7-3.9c-0.2-1.5,0-2.9,0.6-4.4c0.6-1.5,1.5-2.7,2.6-3.6
				c1.2-0.9,2.5-1.5,3.9-1.7c1.5-0.2,2.9,0,4.3,0.5C207.8,416.9,208.9,417.7,209.9,418.8z M201.8,420.3c-0.9,0.5-1.6,1.3-2,2.5
				c-0.5,1.2-0.5,2.2-0.2,3.2c0.3,0.9,1,1.6,2.1,2.1c1.1,0.4,2,0.4,2.9-0.1c0.9-0.5,1.6-1.3,2-2.5c0.5-1.2,0.5-2.3,0.2-3.2
				c-0.3-0.9-1-1.6-2.1-2C203.7,419.8,202.7,419.8,201.8,420.3z"/>
		</g>
		<g>
			<path d="M229.2,433.4c0.4,0.8,0.4,1.7,0.2,2.6c-0.3,1.4-1.1,2.3-2.2,2.8c-1.1,0.5-2.5,0.6-4.2,0.1l-7.8-2l4-15.9l7.7,1.9
				c1.6,0.4,2.8,1.1,3.5,2c0.7,0.9,0.9,2.1,0.6,3.4c-0.2,0.9-0.7,1.7-1.3,2.2c-0.7,0.5-1.4,0.8-2.3,0.8
				C228.2,431.9,228.8,432.5,229.2,433.4z M225.1,434.2c0.2-1-0.2-1.6-1.4-1.9l-2.5-0.6l-0.7,2.9l2.5,0.6
				C224.1,435.5,224.8,435.2,225.1,434.2z M222,428.6l2.2,0.6c1.1,0.3,1.8,0,2-1c0.2-1-0.2-1.6-1.3-1.9l-2.2-0.6L222,428.6z"/>
		</g>
		<g>
			<path d="M239.4,442.1l-2.3-6.5l-0.5-0.1l-0.9,6l-4.5-0.7l2.5-16.2l7.1,1.1c1.3,0.2,2.4,0.6,3.2,1.2c0.8,0.6,1.4,1.3,1.8,2.2
				c0.3,0.9,0.4,1.8,0.3,2.8c-0.2,1.1-0.6,2.1-1.4,2.8c-0.8,0.7-1.7,1.2-3,1.3l2.7,6.8L239.4,442.1z M237,432.6l2.2,0.3
				c1.2,0.2,2-0.3,2.1-1.4c0.1-0.5,0-1-0.3-1.3c-0.3-0.4-0.7-0.6-1.3-0.7l-2.2-0.3L237,432.6z"/>
		</g>
		<g>
			<path d="M257.5,441l-5.8-0.3l-1,2.7l-4.8-0.3l6.8-15.9l5.2,0.3l5.1,16.6l-4.8-0.3L257.5,441z M256.6,437.6l-1.5-5.4l-2.1,5.2
				L256.6,437.6z"/>
		</g>
		<g>
			<path d="M268.3,427.5l4.3,11.6l3-12l4.8-0.3l-4.7,16.6l-5.8,0.3l-6.5-16L268.3,427.5z"/>
		</g>
		<g>
			<path d="M293.2,425.6c1.4,0.5,2.5,1.3,3.5,2.5c0.9,1.1,1.5,2.5,1.8,4.1c0.3,1.6,0.1,3.1-0.4,4.4c-0.5,1.4-1.4,2.5-2.5,3.4
				c-1.1,0.9-2.5,1.5-4,1.7c-1.5,0.2-2.9,0.1-4.3-0.4s-2.5-1.3-3.5-2.5c-0.9-1.1-1.5-2.5-1.8-4.1c-0.3-1.6-0.1-3.1,0.4-4.4
				c0.5-1.4,1.4-2.5,2.5-3.4c1.1-0.9,2.5-1.5,4-1.7C290.4,424.9,291.8,425.1,293.2,425.6z M287.1,430.9c-0.5,0.8-0.7,1.9-0.5,3.2
				c0.2,1.2,0.7,2.2,1.5,2.8c0.8,0.6,1.7,0.9,2.9,0.7c1.1-0.2,2-0.7,2.5-1.6c0.5-0.9,0.7-1.9,0.5-3.1c-0.2-1.3-0.7-2.2-1.5-2.9
				c-0.8-0.6-1.7-0.9-2.9-0.7C288.4,429.5,287.6,430,287.1,430.9z"/>
		</g>
		<g>
			<path d="M313.5,426.2l1.1,3.6l-10,2.9l-1.1-3.6L313.5,426.2z"/>
		</g>
		<g>
			<path d="M328.9,413.9c1.2,0,2.3,0.4,3.3,1c1,0.6,1.9,1.4,2.6,2.5l-4.4,1.9c-0.5-0.5-1.1-0.8-1.7-0.9c-0.7-0.1-1.3,0-2,0.3
				c-0.9,0.4-1.5,1.1-1.8,2c-0.3,0.9-0.2,2,0.3,3.1c0.5,1.1,1.2,1.9,2,2.4c0.9,0.5,1.8,0.5,2.7,0.1c0.7-0.3,1.2-0.7,1.5-1.3
				c0.4-0.6,0.5-1.2,0.5-1.9l4.4-1.9c0.4,1.9,0.2,3.6-0.6,5.2c-0.8,1.6-2.2,2.8-4.1,3.6c-1.5,0.6-2.9,0.9-4.3,0.7
				c-1.4-0.2-2.6-0.7-3.7-1.6c-1.1-0.9-2-2.1-2.6-3.6c-0.6-1.5-0.9-2.9-0.8-4.4c0.1-1.4,0.6-2.7,1.4-3.8c0.8-1.1,2-2,3.5-2.6
				C326.4,414.1,327.7,413.9,328.9,413.9z"/>
		</g>
		<g>
			<path d="M344.6,405.9c1.5,0,2.8,0.4,4.1,1.1c1.3,0.8,2.3,1.8,3.1,3.2c0.8,1.4,1.2,2.8,1.2,4.3c0,1.5-0.4,2.8-1.2,4.1
				c-0.8,1.2-1.8,2.2-3.1,3c-1.3,0.7-2.7,1.1-4.2,1.1c-1.5,0-2.8-0.4-4.1-1.1c-1.3-0.8-2.3-1.8-3.1-3.2c-0.8-1.4-1.2-2.8-1.2-4.3
				c0-1.5,0.4-2.8,1.2-4.1c0.8-1.3,1.8-2.3,3.1-3C341.7,406.3,343.1,405.9,344.6,405.9z M340.6,413.1c-0.2,1,0,2,0.6,3.2
				c0.6,1.1,1.4,1.8,2.4,2.2s1.9,0.2,2.9-0.4c1-0.6,1.6-1.3,1.8-2.3c0.2-1,0-2-0.6-3.1c-0.6-1.1-1.4-1.9-2.4-2.2
				c-0.9-0.3-1.9-0.2-2.9,0.4C341.4,411.3,340.8,412.1,340.6,413.1z"/>
		</g>
		<g>
			<path d="M359.1,396.1c1.5-0.2,2.8,0.1,4.2,0.7c1.3,0.6,2.5,1.6,3.4,2.9c0.9,1.3,1.5,2.7,1.6,4.2c0.1,1.5-0.1,2.9-0.7,4.2
				c-0.6,1.3-1.5,2.4-2.8,3.3c-1.2,0.9-2.6,1.4-4,1.6c-1.5,0.2-2.9-0.1-4.2-0.7c-1.3-0.6-2.5-1.6-3.4-2.9c-0.9-1.3-1.5-2.7-1.6-4.2
				c-0.1-1.5,0.1-2.9,0.7-4.2c0.6-1.3,1.5-2.4,2.8-3.3C356.3,396.8,357.7,396.2,359.1,396.1z M356,403.6c-0.1,1,0.2,2,1,3.1
				c0.7,1,1.6,1.7,2.6,1.9c1,0.2,1.9,0,2.9-0.7c0.9-0.7,1.4-1.5,1.5-2.5c0.1-1-0.2-2-1-3c-0.8-1.1-1.6-1.7-2.6-1.9
				c-1-0.2-1.9,0-2.9,0.7C356.6,401.8,356.1,402.6,356,403.6z"/>
		</g>
		<g>
			<path d="M373.6,397.2l3.6,4.1l-3.4,3L363,392l5.1-4.5c1.5-1.3,2.9-1.9,4.4-1.9c1.4,0.1,2.7,0.7,3.8,1.9c0.7,0.8,1.1,1.6,1.3,2.5
				c0.2,0.9,0.1,1.9-0.3,2.8c-0.4,1-1,1.9-2,2.7L373.6,397.2z M372.8,390.7c-0.8-0.9-1.7-0.9-2.7,0l-1.3,1.1l2.4,2.7l1.3-1.1
				C373.6,392.5,373.6,391.6,372.8,390.7z"/>
		</g>
		<g>
			<path d="M384.8,388l3.1,3.1l-3.2,3.3l-3.1-3.1L384.8,388z"/>
		</g>
		<g>
			<path d="M388.2,366.1l2.8,2.3l-2.8,3.4l9.8,8.2l-2.9,3.5l-9.8-8.2l-2.8,3.4l-2.8-2.3L388.2,366.1z"/>
		</g>
		<g>
			<path d="M406.9,367.8l-6.8-0.7l-0.3,0.4l5,3.4l-2.6,3.7l-13.5-9.3l4.1-5.9c0.7-1.1,1.6-1.9,2.5-2.4c0.9-0.5,1.8-0.7,2.7-0.6
				c0.9,0.1,1.8,0.4,2.6,1c0.9,0.6,1.6,1.5,1.9,2.5c0.3,1,0.3,2.1-0.1,3.2l7.3,0.6L406.9,367.8z M397.3,365.7l1.3-1.8
				c0.7-1,0.6-1.9-0.3-2.5c-0.4-0.3-0.9-0.4-1.3-0.3c-0.4,0.1-0.8,0.4-1.2,0.9l-1.3,1.8L397.3,365.7z"/>
		</g>
		<g>
			<path d="M413.8,351L411,356l1.9,2.1l-2.3,4.2l-11.4-13.1l2.5-4.6l17.1,2.7l-2.3,4.2L413.8,351z M410.3,350.3l-5.5-1l3.8,4.1
				L410.3,350.3z"/>
		</g>
		<g>
			<path d="M418.5,330.7c0.9-0.2,1.8-0.2,2.6,0.2c1.3,0.6,2.1,1.4,2.5,2.6c0.3,1.2,0.2,2.6-0.5,4.2l-3.2,7.4l-15-6.4l3.1-7.3
				c0.6-1.5,1.5-2.6,2.5-3.1c1-0.6,2.2-0.6,3.4,0c0.9,0.4,1.5,0.9,1.9,1.7c0.4,0.7,0.5,1.5,0.4,2.4
				C416.9,331.4,417.6,330.9,418.5,330.7z M412.7,337.1l0.9-2.1c0.4-1,0.2-1.8-0.6-2.1c-0.9-0.4-1.6-0.1-2,1l-0.9,2.1L412.7,337.1z
				 M418.7,334.9c-0.9-0.4-1.6-0.1-2.1,1l-1,2.4l2.8,1.2l1-2.4C419.9,336,419.6,335.3,418.7,334.9z"/>
		</g>
		<g>
			<path d="M423.3,324.9l4.2,1.5l-1.6,4.3l-4.2-1.5L423.3,324.9z"/>
		</g>
		<g>
			<path d="M427.4,314.5l1.3-4.9l3.3,0.9l-2.5,9.3l-15.8-4.2l1.2-4.4L427.4,314.5z"/>
		</g>
		<g>
			<path d="M418.8,292.9l3.6,0.7l-0.8,4.3l12.5,2.3l-0.8,4.5l-12.5-2.3l-0.8,4.3l-3.6-0.7L418.8,292.9z"/>
		</g>
		<g>
			<path d="M432.5,279.3c1.2,0.8,2.1,1.9,2.6,3.2c0.6,1.3,0.8,2.9,0.7,4.6l-0.6,6.5l-16.3-1.5l0.6-6.5c0.2-1.7,0.6-3.2,1.4-4.4
				c0.8-1.2,1.8-2.1,3.1-2.7c1.3-0.6,2.7-0.8,4.3-0.6C430,278,431.3,278.5,432.5,279.3z M430.9,283.8c-0.7-0.8-1.6-1.3-3-1.4
				c-1.3-0.1-2.4,0.2-3.2,0.9c-0.8,0.7-1.3,1.7-1.4,3.1l-0.1,1.5l8.3,0.7l0.1-1.5C431.8,285.8,431.6,284.7,430.9,283.8z"/>
		</g>
		<g>
			<path d="M433.8,265.2l0.1,5.8l2.7,0.9l0.1,4.8l-16.4-5.7l-0.1-5.2l16.2-6.2l0.1,4.8L433.8,265.2z M430.4,266.3l-5.3,1.8l5.3,1.7
				L430.4,266.3z"/>
		</g>
		<g>
			<path d="M431.3,253.8l4.4-0.4l0.4,4.6l-4.4,0.4L431.3,253.8z"/>
		</g>
	</g>
	<g>
		<g>
			<path class="st7" d="M271.7,347.4c-2.1,0-4.1,0.3-6,0.9l0,0c-1.9-0.6-3.9-0.9-6-0.9c-9.1,0-16.4,5.8-16.4,12.9
				c0,7.1,7.4,12.9,16.4,12.9c2.1,0,4.1-0.3,6-0.9c1.9,0.6,3.9,0.9,6,0.9c9.1,0,16.4-5.8,16.4-12.9
				C288.1,353.2,280.8,347.4,271.7,347.4z"/>
		</g>
		<g>
			<g>
				<path d="M231.8,359c1.8-1.8,2.7-3.5,2.7-5c0-1.4-0.6-2.2-1.7-2.2c-0.7,0-1.1,0.3-1.4,0.8c-0.3,0.5-0.5,1.3-0.5,2.5h-6.3
					c0.1-2.9,1-5.1,2.6-6.5c1.6-1.4,3.6-2.1,6.1-2.1c2.6,0,4.6,0.7,5.9,2c1.3,1.3,1.9,3,1.9,5c0,2.2-0.8,4.2-2.3,6.2
					c-1.5,2-3.4,3.7-5.7,5.1h8.3v5.2h-16.8V365C227.7,362.8,230,360.8,231.8,359z"/>
			</g>
			<g>
				<path d="M291.4,366.2v-5.4l10.2-14.2h7v14h2.6v5.6h-2.6v3.9h-6.5v-3.9H291.4z M302.6,354l-4.6,6.7h4.6V354z"/>
			</g>
		</g>
		<g>
			<g>
				<path d="M259.7,374.3c-9.7,0-17.6-6.3-17.6-14c0-7.7,7.9-14,17.6-14c9.7,0,17.6,6.3,17.6,14c0,2.1-0.6,4.2-1.7,6.1l-0.1,0.2
					l-1.9-1.2l0.1-0.2c0.9-1.5,1.4-3.2,1.4-4.9c0-6.5-6.9-11.8-15.3-11.8c-8.5,0-15.3,5.3-15.3,11.8c0,6.5,6.9,11.8,15.3,11.8
					c2.2,0,4.3-0.3,6.3-1l0.7,2.1C264.5,373.9,262.1,374.3,259.7,374.3z"/>
			</g>
			<g>
				<path d="M256.2,367.1c-3.4-1.1-5.6-3.8-5.6-6.8c0-4.1,4.1-7.4,9.1-7.4s9.1,3.3,9.1,7.4c0,2-0.9,3.8-2.6,5.2l-1.4-1.7
					c1.2-1,1.8-2.2,1.8-3.5c0-2.8-3.1-5.2-6.9-5.2c-3.8,0-6.9,2.3-6.9,5.2c0,2,1.6,3.9,4.1,4.7L256.2,367.1z"/>
			</g>
			<g>
				<path d="M271.7,374.3c-9.7,0-17.6-6.3-17.6-14c0-2.3,0.7-4.5,2-6.5l1.9,1.2c-1.1,1.7-1.7,3.5-1.7,5.3c0,6.5,6.9,11.8,15.3,11.8
					c8.5,0,15.3-5.3,15.3-11.8c0-6.5-6.9-11.8-15.3-11.8c-2,0-3.9,0.3-5.7,0.8l-0.7-2.1c2-0.6,4.1-0.9,6.3-0.9
					c9.7,0,17.6,6.3,17.6,14C289.2,368,281.4,374.3,271.7,374.3z"/>
			</g>
			<g>
				<path d="M271.7,367.7c-5,0-9.1-3.3-9.1-7.4c0-1.9,0.8-3.6,2.4-5l1.5,1.7c-1,0.9-1.6,2.1-1.6,3.3c0,2.8,3.1,5.2,6.9,5.2
					c3.8,0,6.9-2.3,6.9-5.2c0-2.2-1.8-4.1-4.6-4.9l0.6-2.1c3.7,1,6.2,3.8,6.2,7C280.8,364.4,276.7,367.7,271.7,367.7z"/>
			</g>
		</g>
	</g>
</g>
</svg>
