<?xml version="1.0" encoding="UTF-8" standalone="no"?>
<svg
   xmlns:dc="http://purl.org/dc/elements/1.1/"
   xmlns:cc="http://creativecommons.org/ns#"
   xmlns:rdf="http://www.w3.org/1999/02/22-rdf-syntax-ns#"
   xmlns:svg="http://www.w3.org/2000/svg"
   xmlns="http://www.w3.org/2000/svg"
   xmlns:sodipodi="http://sodipodi.sourceforge.net/DTD/sodipodi-0.dtd"
   xmlns:inkscape="http://www.inkscape.org/namespaces/inkscape"
   inkscape:version="1.0 (4035a4fb49, 2020-05-01)"
   height="67.5"
   width="85"
   sodipodi:docname="elem-menu-02.svg"
   xml:space="preserve"
   viewBox="0 0 85 67.5"
   y="0px"
   x="0px"
   id="Camada_1"
   version="1.1"><metadata
   id="metadata23"><rdf:RDF><cc:Work
       rdf:about=""><dc:format>image/svg+xml</dc:format><dc:type
         rdf:resource="http://purl.org/dc/dcmitype/StillImage" /><dc:title></dc:title></cc:Work></rdf:RDF></metadata><defs
   id="defs21" /><sodipodi:namedview
   inkscape:current-layer="Camada_1"
   inkscape:window-maximized="0"
   inkscape:window-y="0"
   inkscape:window-x="0"
   inkscape:cy="28.032198"
   inkscape:cx="83.518389"
   inkscape:zoom="4.3473972"
   showgrid="false"
   id="namedview19"
   inkscape:window-height="913"
   inkscape:window-width="1695"
   inkscape:pageshadow="2"
   inkscape:pageopacity="0"
   guidetolerance="10"
   gridtolerance="10"
   objecttolerance="10"
   borderopacity="1"
   bordercolor="#666666"
   pagecolor="#ffffff" />
<style
   id="style2"
   type="text/css">
	.st0{fill:#EFCC3E;}
	.st1{fill:#83C8E8;}
	.st2{fill:#E94941;}
	.st3{fill:#F1EEE9;}
</style>
<g
   transform="translate(-689.97576,-612.17552)"
   id="Grupo_372">
	<g
   transform="translate(-24,-19)"
   id="Grupo_371">
		<path
   d="m 776.3,631.5 c 0,6.1 -3.1,10.5 -3.8,16.6 -0.6,4.9 -1.3,13.3 -4.1,17.2 -9,-7.6 -15.1,-15.6 -22.3,-24.7 4.9,-2.5 10.1,-4.1 15.5,-4.9 5.2,-0.7 14.7,-4.2 14.7,-4.2 z"
   class="st0"
   id="Caminho_479" />
		<path
   d="m 795.8,690 c -2.6,-1.9 -4.5,-4.4 -6.8,-6.5 -2.7,-2.4 -2,-1.9 -4.7,-4.3 -3,-2.7 -6.1,-4.4 -8.8,-7.5 -1.8,-2 -5.2,-5.9 -7.3,-7.5 0.6,7.6 -0.8,11.2 -1.6,19.1 -0.4,4.7 -0.5,9.4 -0.4,14.1 0.1,0 20,-4.3 29.6,-7.4 z"
   class="st1"
   id="Caminho_480" />
		<path
   d="m 769.1,664.4 c 2.6,1.9 4.4,4.4 6.7,6.5 2.7,2.4 2,1.9 4.7,4.3 3,2.7 6,4.5 8.7,7.6 1.7,2 5.1,6 7.2,7.6 -0.6,-7.6 0.9,-11.2 1.8,-19.1 0.4,-4.7 0.6,-9.4 0.5,-14.1 0,0.1 -19.9,4.3 -29.6,7.2 z"
   class="st2"
   id="Caminho_481" />
	</g>
	<g
   transform="rotate(90,58.8725,178.5505)"
   id="Grupo_370">
		<path
   d="m 530,-482 c 3.2,-3.1 6,-6.4 8.4,-10.1 0.9,-1.5 4.8,-9.3 0.3,-6.4 -3.7,2.4 -6.5,6.6 -8.3,10.7 -0.7,1.2 -1.2,2.4 -1.7,3.7 -0.4,1.5 0.5,2.8 2,1.4"
   class="st3"
   id="Caminho_281" />
		<path
   d="m 520.7,-469.2 c -3.3,2.9 -6.4,6 -9.1,9.5 -1,1.4 -5.5,8.9 -0.8,6.3 3.8,-2.2 6.9,-6.2 9,-10.1 0.8,-1.1 1.4,-2.3 2,-3.5 0.5,-1.5 -0.3,-2.8 -1.9,-1.5"
   class="st3"
   id="Caminho_282" />
		<path
   d="m 555,-480.7 c -4.3,0.7 -8.6,1.9 -12.7,3.5 -1.6,0.7 -9.3,4.8 -3.9,4.9 4.4,0.1 9.2,-1.8 12.9,-4 1.2,-0.6 2.4,-1.3 3.5,-2 1.2,-1 1.2,-2.5 -0.8,-2.3"
   class="st3"
   id="Caminho_283" />
		<path
   d="m 560,-467.7 c -4.2,-1.2 -8.6,-2 -12.9,-2.4 -1.8,-0.1 -10.5,0.3 -5.7,2.7 3.9,2 9,2.4 13.4,2 1.4,0 2.7,-0.1 4,-0.3 1.5,-0.4 2.2,-1.8 0.3,-2.4"
   class="st3"
   id="Caminho_284" />
		<path
   d="m 533.6,-478.5 c 4,-2.8 8.6,-4.3 12.5,-7.4 1,-0.8 7,-5.7 2.6,-5.1 -2,0.3 -4.8,2.5 -6.6,3.6 -1.8,1.2 -3.6,2.5 -5.2,3.9 -0.9,0.8 -1.7,1.5 -2.6,2.3 -0.5,0.5 -2.4,2.6 -0.4,2.1"
   class="st3"
   id="Caminho_285" />
		<path
   d="m 506.4,-492.4 c 1.5,1.4 5,2.2 7,3.1 2,0.9 4.1,1.7 6.2,2.5 1.6,0.6 6.4,1.8 3.4,-1 -3.3,-3.1 -7.9,-4.7 -12.3,-5.4 -1,-0.2 -2,-0.4 -3.1,-0.5 -2.2,-0.1 -1.2,0.8 0.1,2"
   class="st3"
   id="Caminho_286" />
		<path
   d="m 539.8,-461.7 c 1.1,1.6 4.3,2.8 6,4 1.7,1.2 3.5,2.3 5.3,3.3 1.4,0.8 5.6,2.6 3.4,-0.4 -2.5,-3.4 -6.5,-5.7 -10.4,-7 -0.9,-0.4 -1.8,-0.7 -2.8,-1 -2.1,-0.4 -1.3,0.7 -0.3,2"
   class="st3"
   id="Caminho_287" />
		<path
   d="m 507,-476.6 c 4.7,-1.2 9.6,-1.8 14.2,-3.4 1.1,-0.3 2.2,-0.8 3.1,-1.5 1.1,-0.9 0.9,-1.1 -0.2,-1.3 -4.5,-0.9 -11.2,1.7 -15.5,3.5 -0.9,0.3 -1.7,0.7 -2.5,1.3 -0.8,0.8 -0.5,1.4 0.9,1.1"
   class="st3"
   id="Caminho_288" />
	</g>
</g>
</svg>
