<?xml version="1.0" encoding="UTF-8" standalone="no"?>
<svg
   xmlns:dc="http://purl.org/dc/elements/1.1/"
   xmlns:cc="http://creativecommons.org/ns#"
   xmlns:rdf="http://www.w3.org/1999/02/22-rdf-syntax-ns#"
   xmlns:svg="http://www.w3.org/2000/svg"
   xmlns="http://www.w3.org/2000/svg"
   xmlns:sodipodi="http://sodipodi.sourceforge.net/DTD/sodipodi-0.dtd"
   xmlns:inkscape="http://www.inkscape.org/namespaces/inkscape"
   inkscape:version="1.0 (4035a4fb49, 2020-05-01)"
   height="117"
   width="84"
   sodipodi:docname="elem-menu-01.svg"
   xml:space="preserve"
   viewBox="0 0 84 117"
   y="0px"
   x="0px"
   id="Camada_1"
   version="1.1"><metadata
   id="metadata22"><rdf:RDF><cc:Work
       rdf:about=""><dc:format>image/svg+xml</dc:format><dc:type
         rdf:resource="http://purl.org/dc/dcmitype/StillImage" /><dc:title></dc:title></cc:Work></rdf:RDF></metadata><defs
   id="defs20" /><sodipodi:namedview
   inkscape:current-layer="Camada_1"
   inkscape:window-maximized="0"
   inkscape:window-y="0"
   inkscape:window-x="0"
   inkscape:cy="316.27257"
   inkscape:cx="439.44404"
   inkscape:zoom="0.76851852"
   showgrid="false"
   id="namedview18"
   inkscape:window-height="793"
   inkscape:window-width="1651"
   inkscape:pageshadow="2"
   inkscape:pageopacity="0"
   guidetolerance="10"
   gridtolerance="10"
   objecttolerance="10"
   borderopacity="1"
   bordercolor="#666666"
   pagecolor="#ffffff" />
<style
   id="style2"
   type="text/css">
	.st0{fill:#B25AA7;}
	.st1{fill:#F49725;}
	.st2{fill:#83C8E8;}
	.st3{fill:#F1EEE9;}
</style>
<g
   transform="translate(-539.51504,-918.17678)"
   id="Grupo_373">
	<path
   d="m 548,947.9 c -1.5,-1.6 -2.8,-3.4 -3.8,-5.3 -0.8,-1.6 -2.4,-5.4 -2.5,-5.6 0,-0.2 0,-0.4 0,-0.5 0.7,-3.6 2.7,-11.4 2.8,-11.6 0.2,-0.2 0.4,-0.4 0.6,-0.6 3,-2.3 10.6,-6.3 10.6,-6.3 0.3,0 0.6,0 0.9,0.1 2.3,0.4 4.5,1 6.7,1.7 l 5,1.6 0.8,0.8 c 2.3,3.3 3.5,6.2 5.3,9.9 0.2,0.3 0.2,0.6 0.1,0.9 l -2.4,9.1 c -0.5,1 -0.8,2.1 -1,3.2 l -0.4,0.3 c -3.8,2.1 -6.4,3.8 -10.2,5.9 -1,-0.2 -1.9,-0.4 -2.9,-0.8 -0.9,-0.4 -1.8,-0.7 -2.7,-0.9 -2.3,-0.7 -6.9,-1.9 -6.9,-1.9 z"
   class="st0"
   id="Caminho_476" />
	<path
   d="m 568.4,1009.1 c 3,0 6.1,0.4 9.2,0.4 2.4,0 10.2,1 12.1,-0.8 2.8,-2.7 0.7,-18.3 1.5,-22.6 -6.8,-2.7 -15.4,0.9 -22.4,1 -1.1,7.4 -0.1,15.1 -0.4,22.4"
   class="st1"
   id="Caminho_477" />
	<path
   d="m 589.9,1033.6 c 3,0 6.1,0.4 9.2,0.4 2.4,0 10.2,1 12.1,-0.8 2.8,-2.7 0.7,-18.3 1.5,-22.6 -6.8,-2.7 -15.4,0.9 -22.4,1 -1.1,7.4 -0.1,15.1 -0.4,22.4"
   class="st2"
   id="Caminho_478" />
	<g
   transform="rotate(65,641.57529,527.42694)"
   id="Grupo_367">
		<path
   d="m 1037.9,778.5 c -3.5,-3.5 -6.6,-6.7 -10.8,-9.5 -1.6,-1.1 -10,-5.5 -6.9,-0.5 2.5,4.1 7.1,7.3 11.4,9.4 1.3,0.8 2.6,1.4 4,1.9 1.7,0.4 3.1,-0.5 1.6,-2.2"
   class="st3"
   id="Caminho_180" />
		<path
   d="m 1027.2,760.7 c -1.4,-4.7 -2.6,-9 -4.9,-13.4 -0.9,-1.7 -6.1,-9.6 -5.7,-3.8 0.3,4.8 2.7,9.8 5.5,13.7 0.7,1.3 1.6,2.5 2.5,3.6 1.2,1.2 2.9,1.1 2.4,-1.1"
   class="st3"
   id="Caminho_181" />
		<path
   d="m 1027.8,736.7 c -0.3,4 -0.7,7.7 0,11.7 0.2,1.5 2.4,9 4,4.3 1.3,-3.8 0.8,-8.3 -0.4,-12 -0.2,-1.2 -0.6,-2.3 -1.1,-3.4 -0.7,-1.2 -2.3,-1.5 -2.6,0.3"
   class="st3"
   id="Caminho_182" />
		<path
   d="m 994.7,768.2 c -3.7,1.7 -7.3,3.7 -10.7,6 -1.3,1 -7.4,6.3 -2.7,5.1 3.9,-1 7.8,-3.7 10.8,-6.5 1,-0.8 1.9,-1.6 2.8,-2.6 0.9,-1.1 0.6,-2.4 -1.1,-1.7"
   class="st3"
   id="Caminho_183" />
		<path
   d="m 1039.7,750.1 c 0.6,-4.4 2.6,-8.4 2.8,-12.9 0.1,-1.1 0.3,-8.2 -2.3,-4.9 -1.2,1.5 -1.4,4.7 -1.7,6.6 -0.4,1.9 -0.5,3.9 -0.5,5.9 0,1.1 0,2.1 0.1,3.1 0.1,0.6 0.4,3.2 1.5,1.6"
   class="st3"
   id="Caminho_184" />
		<path
   d="m 991.5,781.8 c -0.6,2.2 0.5,6 0.7,8.3 0.2,2.4 0.5,4.8 0.8,7.2 0.2,1.9 1.6,7 2.7,2.8 1.2,-4.7 0.4,-10 -1.2,-14.6 -0.3,-1.1 -0.6,-2.2 -1.1,-3.2 -1.1,-2.2 -1.4,-0.7 -1.9,1.1"
   class="st3"
   id="Caminho_185" />
		<path
   d="m 1002.2,781.5 c 1.8,-1.2 3.2,-4.6 4.5,-6.4 1.3,-1.8 2.5,-3.8 3.8,-5.7 0.9,-1.5 3,-6 -0.4,-3.7 -3.8,2.6 -6.3,6.9 -7.9,11.2 -0.4,1 -0.8,2 -1.1,3 -0.5,2.2 0.7,1.4 2.1,0.4"
   class="st3"
   id="Caminho_186" />
		<path
   d="m 1014.6,768.7 c 0.1,5.3 -0.5,10.6 0.2,15.9 0.1,1.3 0.4,2.5 0.8,3.7 0.7,1.3 0.9,1.2 1.4,0.1 2.1,-4.6 1,-12.3 0,-17.3 -0.1,-1 -0.4,-2 -0.7,-3 -0.6,-1.1 -1.4,-0.8 -1.4,0.7"
   class="st3"
   id="Caminho_187" />
	</g>
</g>
</svg>
