<?xml version="1.0" encoding="UTF-8" standalone="no"?>
<svg
   xmlns:dc="http://purl.org/dc/elements/1.1/"
   xmlns:cc="http://creativecommons.org/ns#"
   xmlns:rdf="http://www.w3.org/1999/02/22-rdf-syntax-ns#"
   xmlns:svg="http://www.w3.org/2000/svg"
   xmlns="http://www.w3.org/2000/svg"
   xmlns:sodipodi="http://sodipodi.sourceforge.net/DTD/sodipodi-0.dtd"
   xmlns:inkscape="http://www.inkscape.org/namespaces/inkscape"
   inkscape:version="1.0 (4035a4fb49, 2020-05-01)"
   height="434"
   width="360"
   sodipodi:docname="fondo-amarillo_360x740.svg"
   xml:space="preserve"
   viewBox="0 0 360 434"
   y="0px"
   x="0px"
   id="Camada_1"
   version="1.1"><metadata
   id="metadata448"><rdf:RDF><cc:Work
       rdf:about=""><dc:format>image/svg+xml</dc:format><dc:type
         rdf:resource="http://purl.org/dc/dcmitype/StillImage" /><dc:title></dc:title></cc:Work></rdf:RDF></metadata><defs
   id="defs446" /><sodipodi:namedview
   inkscape:current-layer="Camada_1"
   inkscape:window-maximized="0"
   inkscape:window-y="0"
   inkscape:window-x="0"
   inkscape:cy="370"
   inkscape:cx="180"
   inkscape:zoom="1.1216216"
   showgrid="false"
   id="namedview444"
   inkscape:window-height="480"
   inkscape:window-width="1609"
   inkscape:pageshadow="2"
   inkscape:pageopacity="0"
   guidetolerance="10"
   gridtolerance="10"
   objecttolerance="10"
   borderopacity="1"
   bordercolor="#666666"
   pagecolor="#ffffff" />
<style
   id="style394"
   type="text/css">
	.st0{fill:#EFCC3E;}
	.st1{fill:#83C8E8;}
	.st2{fill:#F1EEE9;}
	.st3{fill:#F49725;}
	.st4{fill:#B25AA7;}
	.st5{fill:#4B8ED2;}
	.st6{fill:#E94941;}
	.st7{fill:#50A545;}
	.st8{fill:#E4E4E4;}
</style>
<path
   id="path396"
   d="m 0,0 v 429 c 67.5,-2.5 123,5.1 186.3,5 56.7,-0.1 117.1,-4.4 173.7,-2.7 V 0 Z"
   class="st0" />
<g
   id="Grupo_288_1_">
	<path
   d="m 60.4,95 c -2.7,-0.4 -5.4,-1.1 -8,-2.2 -2,-1 -6.6,-3.3 -6.8,-3.5 -0.2,-0.2 -0.3,-0.4 -0.4,-0.6 -2.2,-4.1 -6.3,-13.2 -6.4,-13.5 0,-0.3 0,-0.7 0.1,-1 1.1,-4.7 5.4,-14.5 5.4,-14.5 0.3,-0.2 0.6,-0.5 1,-0.7 2.5,-1.4 5.2,-2.6 7.9,-3.6 l 6.2,-2.4 1.4,0.1 c 4.9,1.4 8.4,3.3 13,5.5 0.4,0.1 0.7,0.4 0.8,0.8 l 4.8,10.8 c 0.5,1.2 0.7,2.8 1.5,4 l -0.1,0.6 c -2,5.1 -3.3,8.7 -5.3,13.8 -1.1,0.6 -2.2,1.1 -3.4,1.5 -1.2,0.3 -2.3,0.7 -3.4,1.2 -2.9,1.3 -8.3,3.7 -8.3,3.7 z"
   class="st1"
   id="Caminho_256_1_" />
	<g
   id="Grupo_245_1_">
		<path
   d="m 47.2,318.1 c 0,2.2 -0.3,4.4 -0.3,6.6 0,1.8 -0.7,7.4 0.6,8.7 2,2 13.2,0.5 16.3,1.1 1.9,-4.9 -0.6,-11.1 -0.7,-16.2 -5.3,-0.8 -10.9,-0.1 -16.2,-0.3"
   class="st2"
   id="Caminho_128_1_" />
		<path
   d="m 80.4,318.1 c 0,2.2 -0.3,4.4 -0.3,6.6 0,1.8 -0.7,7.4 0.6,8.7 2,2 13.2,0.5 16.3,1.1 1.9,-4.9 -0.6,-11.1 -0.7,-16.2 C 91,317.5 85.4,318.2 80.1,318"
   class="st0"
   id="Caminho_129_1_" />
		<path
   d="m 29.8,334.8 c 0,2.2 -0.3,4.4 -0.3,6.6 0,1.8 -0.7,7.4 0.6,8.7 2,2 13.2,0.5 16.3,1.1 1.9,-4.9 -0.6,-11.1 -0.7,-16.2 -5.3,-0.8 -10.9,-0.1 -16.2,-0.3"
   class="st3"
   id="Caminho_130_1_" />
		<path
   d="m 80.4,334.8 c 0,2.2 -0.3,4.4 -0.3,6.6 0,1.8 -0.7,7.4 0.6,8.7 2,2 13.2,0.5 16.3,1.1 1.9,-4.9 -0.6,-11.1 -0.7,-16.2 -5.3,-0.8 -10.9,-0.1 -16.2,-0.3"
   class="st4"
   id="Caminho_131_1_" />
		<path
   d="m 64.2,301.5 c 0,2.2 -0.3,4.4 -0.3,6.6 0,1.8 -0.7,7.4 0.6,8.7 2,2 13.2,0.5 16.3,1.1 1.9,-4.9 -0.6,-11.1 -0.7,-16.2 -5.3,-0.8 -10.9,-0.1 -16.2,-0.3"
   class="st3"
   id="Caminho_132_1_" />
		<path
   d="m 81.2,317.9 c -2.2,0 -4.4,-0.3 -6.6,-0.3 -1.8,0 -7.4,-0.7 -8.7,0.6 -2,2 -0.5,13.2 -1.1,16.3 4.9,1.9 11.1,-0.6 16.1,-0.7 0.8,-5.3 0.1,-10.9 0.3,-16.2"
   class="st5"
   id="Caminho_133_1_" />
		<path
   d="m 62.5,351.6 c -2.2,0 -4.4,-0.3 -6.6,-0.3 -1.8,0 -7.4,-0.7 -8.7,0.6 -2,2 -0.5,13.2 -1.1,16.3 4.9,1.9 11.1,-0.6 16.1,-0.7 0.8,-5.3 0.1,-10.9 0.3,-16.2"
   class="st6"
   id="Caminho_134_1_" />
		<path
   d="m 47.1,351.5 c 2.2,-0.1 4.4,0.2 6.6,0.1 1.8,0 7.4,0.5 8.7,-0.8 2,-2 0.2,-13.2 0.7,-16.3 -5,-1.8 -11.1,0.9 -16.1,1.1 -0.7,5.3 0.2,10.9 0.1,16.2"
   class="st7"
   id="Caminho_135_1_" />
	</g>
	<g
   id="Grupo_248_1_">
		<path
   d="m 50.6,138.6 c -4.6,2.3 -6.8,6.3 -11.2,9.1 -3.5,2.3 -9.6,6 -11.5,9.5 9.2,4 17.6,5.6 27.2,7.7 0.1,-4.6 -0.7,-9.2 -2.1,-13.6 -1.5,-4.1 -2.4,-12.7 -2.4,-12.7 z"
   class="st2"
   id="Caminho_114_1_" />
		<path
   d="m 0,149.7 c 4.7,2.2 8.7,3 13.7,4.7 4,1.4 10.6,3.9 14.6,3.2 -2.5,-9.7 -7,-19.3 -11.3,-28.2 -3.4,2.5 -6.7,7.6 -10,10.8 -3,3 -4.9,4.1 -7,6.7 v 2.8"
   class="st7"
   id="Caminho_115_1_" />
		<path
   d="m 13,198.7 c 4,2 7.6,1.4 11.9,2.9 3.4,1.2 9.7,4.1 14,4.6 -2.2,-8.4 -6.1,-16.7 -9.8,-24.4 -3,2.1 -5.9,6.5 -8.7,9.4 -2.6,2.6 -5.9,5.4 -7.7,7.7"
   class="st7"
   id="Caminho_116_1_" />
		<path
   d="m 13.3,199.1 c -0.1,1.7 0.5,3.7 0.7,5.5 0.3,2.3 0.9,4.6 1.6,6.8 0.6,2 1.1,4 1.8,5.9 0.7,1.9 1,4.2 1.9,6 2.1,-1.1 3.7,-3.6 5.7,-5 1.8,-1.2 3.3,-2.9 5,-4.2 3.3,-2.3 6.3,-4.9 9,-7.8 -8.5,-2.9 -17.5,-5.3 -26,-7.9 0,0.2 0.1,0.1 0.2,0"
   class="st4"
   id="Caminho_117_1_" />
		<path
   d="m 28.3,182.5 c 1.5,1.4 3.8,2.4 5.5,3.5 2.3,1.5 4.8,2.7 7.4,3.7 2.2,1 4.5,2 6.7,2.9 2.2,0.9 4.6,2.3 6.8,2.8 0.6,-2.8 -0.5,-6 -0.2,-8.9 0.3,-2.6 -0.1,-5.1 0.1,-7.7 0.3,-4.6 0.5,-9.5 -0.2,-14 -9.1,5.5 -18,11.7 -26.8,17.4 0.2,0.2 0.1,0 0.2,-0.2"
   class="st3"
   id="Caminho_118_1_" />
		<path
   d="m 0,176 c 2,-0.9 4.9,-3.9 7,-5.3 2.3,-1.5 4.4,-3.3 6.8,-4.8 2.2,-1.3 4.5,-2.6 6.7,-3.9 2.1,-1.2 4.3,-3.3 6.5,-4 0,-0.1 0,-0.3 0,-0.4 -2.7,-0.9 -5.5,-0.7 -8.3,-1.6 -2.6,-0.9 -5.3,-1.6 -7.9,-2.6 -3.7,-1.3 -7.9,-2.1 -10.9,-3.7 0.1,0 0.2,22 0.1,26.3 z"
   class="st1"
   id="Caminho_120_1_" />
		<path
   d="m 0,176 c 4.4,-2.6 8.4,-7.5 12.8,-10.3 4.8,-3 10.2,-5.2 15,-8.3 0.2,4.4 0.9,10 1.4,14.5 0.4,3.6 0.1,7.2 0.2,10.8 -2.4,0.4 -6.5,-1.4 -8.9,-2.1 -3,-0.9 -6,-1.8 -9,-2.5 C 7.7,177.2 0,176 0,176 Z"
   class="st6"
   id="Caminho_122_1_" />
		<path
   d="m 0,176 c 0.6,0.2 1.2,0.2 1.9,0.3 4,0.7 8.7,0.4 12.5,1.5 4.8,1.4 9.4,3.6 14.3,4.9 -2.9,2.7 -6.1,6.5 -8.8,9.4 -2.2,2.3 -4.7,4.3 -7,6.5 C 11.2,197.3 10,193.5 9.1,191.5 8,189 6.8,186.5 5.5,184.2 3.7,181.3 0,176 0,176 Z"
   class="st3"
   id="Caminho_123_1_" />
		<path
   d="m 28.7,183.2 c 2,-1.8 4.4,-2.9 6.6,-4.5 2.5,-1.8 1.9,-1.3 4.4,-3.1 2.8,-2 4.8,-4.2 7.8,-5.9 2,-1.1 5.8,-3.2 7.5,-4.7 -6.4,-0.8 -9.1,-2.7 -15.5,-4.8 -3.8,-1.2 -7.7,-2.1 -11.6,-2.8 0.1,0 0.1,17.2 0.8,25.8 z"
   class="st5"
   id="Caminho_125_1_" />
	</g>
	<g
   id="Grupo_249_1_">
		<path
   d="m 248.6,46 c 1.3,5.2 3.1,8.5 5,13.6 1.5,4.1 2.3,10.4 5.2,14.6 6.1,-8.4 13.5,-16.9 17.8,-26.3 -4.2,-1.1 -10.5,-0.4 -15.3,-0.9 -4.4,-0.4 -9.4,-1.4 -13,-1.3"
   class="st4"
   id="Caminho_156_1_" />
		<path
   d="m 285.7,82.4 c -1.4,-2.8 -0.8,-4.1 -1.9,-7 -1.2,-3.3 -1.2,-3.5 -2.4,-6.8 -1.4,-3.7 -1.7,-5.8 -2.7,-9.7 -0.6,-2.5 -1.8,-7.4 -2.8,-9.7 -3,6.4 -6,8.5 -10.3,14.3 -2.5,3.5 -4.9,7.2 -6.9,11 -0.1,0 17.2,5.3 27,7.9 z"
   class="st7"
   id="Caminho_157_1_" />
	</g>
	<g
   id="Grupo_250_1_">
		<path
   d="m 318.9,205.9 c 2.1,0 4.3,0.3 6.5,0.3 1.7,0 7.2,0.7 8.5,-0.6 2,-1.9 0.5,-12.9 1.1,-15.9 -4.8,-1.9 -10.9,0.6 -15.8,0.7 -0.8,5.2 -0.1,10.7 -0.3,15.8"
   class="st7"
   id="Caminho_167_1_" />
		<path
   d="m 318.2,237.1 c 2.1,0 4.3,0.3 6.5,0.3 1.7,0 7.2,0.7 8.5,-0.6 2,-1.9 0.5,-12.9 1.1,-15.9 -4.8,-1.9 -10.9,0.6 -15.8,0.7 -0.8,5.2 -0.1,10.7 -0.3,15.8"
   class="st8"
   id="Caminho_168_1_" />
		<path
   d="m 334.5,285.3 c 2.1,0 4.3,0.3 6.5,0.3 1.7,0 7.2,0.7 8.5,-0.6 2,-1.9 0.5,-12.9 1.1,-15.9 -4.8,-1.9 -10.9,0.6 -15.8,0.7 -0.8,5.2 -0.1,10.7 -0.3,15.8"
   class="st3"
   id="Caminho_169_1_" />
		<path
   d="m 334.5,237.1 c 2.1,0 4.3,0.3 6.5,0.3 1.7,0 7.2,0.7 8.5,-0.6 2,-1.9 0.5,-12.9 1.1,-15.9 -4.8,-1.9 -10.9,0.6 -15.8,0.7 -0.8,5.2 -0.1,10.7 -0.3,15.8"
   class="st4"
   id="Caminho_170_1_" />
		<path
   d="m 301.1,236.7 c 0,2.1 -0.3,4.3 -0.3,6.5 0,1.7 -0.7,7.2 0.6,8.5 1.9,2 12.9,0.5 15.9,1.1 1.9,-4.8 -0.6,-10.9 -0.7,-15.8 -5.2,-0.8 -10.7,-0.1 -15.8,-0.3"
   class="st3"
   id="Caminho_172_1_" />
		<path
   d="m 350.6,237 c 0,2.1 -0.3,4.3 -0.3,6.5 0,1.7 -0.7,7.2 0.6,8.5 1.1,1.1 9.2,1 9.2,1 v -16.1 c 0,0 -6.6,0.2 -9.8,0.1"
   class="st5"
   id="Caminho_174_1_" />
		<path
   d="m 350.9,253.2 c 0,2.1 -0.3,4.3 -0.3,6.5 0,1.7 -0.7,7.2 0.6,8.5 1.1,1.1 4.9,1.1 8.8,1 0,-4.6 0,-13.9 0,-16.1 -3,0 -6.5,0.2 -9.4,0.1"
   class="st6"
   id="Caminho_175_1_" />
		<path
   d="m 283.8,251.9 c 0,2.1 -0.3,4.3 -0.3,6.5 0,1.7 -0.7,7.2 0.6,8.5 1.9,2 12.9,0.5 15.9,1.1 1.9,-4.8 -0.6,-10.9 -0.7,-15.8 -5.2,-0.8 -10.7,-0.1 -15.8,-0.3"
   class="st6"
   id="Caminho_176_1_" />
		<path
   d="m 350.9,268.3 c -0.1,-2.1 0.2,-4.3 0.1,-6.5 0,-1.7 0.5,-7.2 -0.8,-8.5 -2,-1.9 -12.9,-0.2 -16,-0.7 -1.8,4.9 0.9,10.9 1.1,15.7 5.2,0.6 10.7,-0.2 15.8,-0.1"
   class="st7"
   id="Caminho_177_1_" />
		<path
   d="m 334.7,221.2 c 5.1,0 10.9,1.3 15.8,0.5 0.2,-5.6 0.6,-11.5 0.4,-17.1 -1.9,1.6 -6.7,1.5 -9.1,1.7 -1.3,0.1 -5.6,-0.6 -6.6,0.2 -0.9,0.8 -0.4,6.5 -0.4,8.1 0,1.1 -0.3,2.1 -0.4,3.1 0,1.1 0.5,2.1 0.4,3.3"
   class="st5"
   id="Caminho_178_1_" />
	</g>
	<path
   d="m 308.6,393.2 c 2.1,-0.7 4.1,-1.6 5.9,-2.8 1.5,-1 4.7,-3.5 4.8,-3.7 0.1,-0.2 0.2,-0.3 0.2,-0.5 1.1,-3.5 3.1,-11.2 3.1,-11.4 0,-0.3 -0.1,-0.5 -0.2,-0.8 -1.5,-3.5 -6.2,-10.6 -6.2,-10.6 -0.3,-0.2 -0.5,-0.3 -0.8,-0.4 -2.2,-0.7 -4.4,-1.3 -6.6,-1.7 l -5.1,-1 -1.1,0.3 c -3.6,1.8 -6.1,3.7 -9.4,6.1 -0.3,0.2 -0.5,0.4 -0.5,0.7 l -2.3,9.1 c -0.2,1 -0.2,2.3 -0.6,3.3 l 0.2,0.5 c 2.3,3.7 3.8,6.4 6,10.1 0.9,0.3 1.9,0.6 2.9,0.7 1,0 1.9,0.2 2.9,0.5 2.2,0.4 6.8,1.6 6.8,1.6 z"
   class="st3"
   id="Caminho_257_1_" />
	<g
   id="Grupo_252_1_">
		<path
   d="m 313.2,85.9 c -3.1,-3.1 -5.9,-6 -9.6,-8.5 -1.4,-0.9 -8.9,-4.9 -6.2,-0.5 2.3,3.6 6.3,6.5 10.2,8.4 1.1,0.6 2.3,1.4 3.5,1.7 1.5,0.4 2.7,-0.4 1.4,-1.9"
   class="st2"
   id="Caminho_196_1_" />
		<path
   d="m 303.7,70.1 c -1.2,-4.2 -2.3,-8.1 -4.4,-12 -0.8,-1.5 -5.4,-8.6 -5.1,-3.4 0.3,4.2 2.4,8.7 4.9,12.2 0.7,1 1.4,2.4 2.3,3.2 1.1,1.1 2.6,1 2.1,-1"
   class="st2"
   id="Caminho_197_1_" />
		<path
   d="m 304.2,48.6 c -0.3,3.6 -0.6,6.9 0,10.4 0.2,1.4 2.1,8 3.6,3.9 1.2,-3.4 0.7,-7.4 -0.4,-10.7 -0.3,-1 -0.5,-2.2 -1,-3.1 -0.7,-1.1 -2,-1.4 -2.3,0.3"
   class="st2"
   id="Caminho_198_1_" />
		<path
   d="m 274.7,76.7 c -3.4,1.7 -6.4,3.1 -9.5,5.4 -1.2,0.9 -6.6,5.7 -2.4,4.6 3.5,-0.9 7,-3.3 9.6,-5.8 0.9,-0.7 1.7,-1.5 2.5,-2.3 0.8,-1 0.6,-2.2 -1,-1.5"
   class="st2"
   id="Caminho_199_1_" />
		<path
   d="m 314.9,60.6 c 0.5,-3.9 2.3,-7.5 2.5,-11.5 0,-1 0.3,-7.4 -2,-4.4 -1.1,1.4 -1.3,4.2 -1.5,5.9 -0.3,1.7 -0.5,3.5 -0.5,5.3 0,1 0,1.9 0.1,2.8 0,0.6 0.4,2.9 1.3,1.5"
   class="st2"
   id="Caminho_200_1_" />
		<path
   d="m 271.8,88.9 c -0.5,1.9 0.4,5.3 0.6,7.5 0.1,2.2 0.4,4.3 0.7,6.5 0.2,1.7 1.4,6.3 2.4,2.5 1.1,-4.2 0.4,-8.9 -1.1,-13 -0.3,-1 -0.6,-1.9 -1,-2.9 -1,-1.9 -1.3,-0.6 -1.7,1"
   class="st2"
   id="Caminho_201_1_" />
		<path
   d="m 281.3,88.7 c 1.6,-1 2.9,-4.1 4,-5.7 1.1,-1.6 2.3,-3.4 3.4,-5.1 0.8,-1.4 2.7,-5.4 -0.4,-3.3 -3.4,2.3 -5.7,6.2 -7.1,10 -0.4,0.9 -0.7,1.8 -1,2.7 -0.4,2 0.6,1.2 1.9,0.4"
   class="st2"
   id="Caminho_202_1_" />
		<path
   d="m 292.5,77.2 c 0.1,4.8 -0.4,9.5 0.1,14.2 0.1,1.1 0.3,2.3 0.7,3.3 0.6,1.2 0.8,1.1 1.3,0.1 1.8,-4.1 0.9,-11 0,-15.4 -0.1,-0.9 -0.3,-1.8 -0.7,-2.7 -0.6,-1 -1.2,-0.7 -1.3,0.6"
   class="st2"
   id="Caminho_203_1_" />
	</g>
</g>
</svg>
