<?xml version="1.0" encoding="UTF-8" standalone="no"?>
<svg
   xmlns:dc="http://purl.org/dc/elements/1.1/"
   xmlns:cc="http://creativecommons.org/ns#"
   xmlns:rdf="http://www.w3.org/1999/02/22-rdf-syntax-ns#"
   xmlns:svg="http://www.w3.org/2000/svg"
   xmlns="http://www.w3.org/2000/svg"
   xmlns:sodipodi="http://sodipodi.sourceforge.net/DTD/sodipodi-0.dtd"
   xmlns:inkscape="http://www.inkscape.org/namespaces/inkscape"
   inkscape:version="1.0 (4035a4fb49, 2020-05-01)"
   height="480.89999"
   width="1280"
   sodipodi:docname="fondo-amarillo_1280x800.svg"
   xml:space="preserve"
   viewBox="0 0 1280 480.89999"
   y="0px"
   x="0px"
   id="Camada_1"
   version="1.1"><metadata
   id="metadata776"><rdf:RDF><cc:Work
       rdf:about=""><dc:format>image/svg+xml</dc:format><dc:type
         rdf:resource="http://purl.org/dc/dcmitype/StillImage" /><dc:title></dc:title></cc:Work></rdf:RDF></metadata><defs
   id="defs774" /><sodipodi:namedview
   inkscape:current-layer="Camada_1"
   inkscape:window-maximized="0"
   inkscape:window-y="0"
   inkscape:window-x="0"
   inkscape:cy="400"
   inkscape:cx="640"
   inkscape:zoom="0.94375"
   showgrid="false"
   id="namedview772"
   inkscape:window-height="500"
   inkscape:window-width="1184"
   inkscape:pageshadow="2"
   inkscape:pageopacity="0"
   guidetolerance="10"
   gridtolerance="10"
   objecttolerance="10"
   borderopacity="1"
   bordercolor="#666666"
   pagecolor="#ffffff" />
<style
   id="style696"
   type="text/css">
	.st0{fill:#EFCC3E;}
	.st1{fill:#F1EEE9;}
	.st2{fill:#83C8E8;}
	.st3{fill:#F49725;}
	.st4{fill:#B25AA7;}
	.st5{fill:#4B8ED2;}
	.st6{fill:#E94941;}
	.st7{fill:#50A545;}
	.st8{fill:#E4E4E4;}
</style>
<path
   style="stroke-width:0.999997"
   d="M 1280,473.9 V -0.4 H 0 v 477.8 c 0,0 9.4,-0.3 42.8,-1.4 39.8,-0.5 82.3,3.2 125.8,3.2 70.69999,-2.8 140.6,-10 211.49999,-9.9 91.8,0.1 183.30001,2.9 274.70001,2.8 100.6,-0.1 200.6,8.4 301.2,8.4 41.89999,0 82.6,-4.9 124,-7.1 44.1,-2.4 74.7,8 116.5,5.4 41.5,-2.3 83.5,-4.9 83.5,-4.9 z"
   class="st0"
   id="Caminho_214" />
<g
   id="Grupo_288">
	<path
   d="m 1011.4,383 c -3.5,0.4 -7,0.4 -10.5,0 -2.8,-0.5 -9.2,-1.9 -9.5,-2.1 -0.3,-0.2 -0.5,-0.3 -0.7,-0.6 -4,-4.4 -12.1,-14.1 -12.3,-14.5 -0.1,-0.4 -0.2,-0.8 -0.2,-1.3 -0.2,-6.1 1.8,-19.6 1.8,-19.6 0.3,-0.4 0.6,-0.8 0.9,-1.2 2.7,-2.5 5.5,-4.9 8.5,-7 l 6.8,-5 1.8,-0.3 c 6.5,0.1 11.4,1.3 17.8,2.5 0.5,0 1,0.3 1.2,0.8 l 9.4,11.7 c 1,1.2 1.8,3.2 3.2,4.4 v 0.8 c -0.8,6.9 -1.1,11.8 -1.9,18.7 -1.1,1.1 -2.4,2.1 -3.8,2.9 -1.4,0.7 -2.7,1.6 -3.8,2.7 -2.7,2.3 -8.7,7.1 -8.7,7.1 z"
   class="st1"
   id="Caminho_255" />
	<path
   d="m 237.1,146.7 c -3.7,-0.5 -7.3,-1.5 -10.7,-2.9 -2.7,-1.3 -8.9,-4.5 -9.2,-4.7 -0.2,-0.2 -0.4,-0.5 -0.5,-0.8 -2.9,-5.6 -8.5,-17.8 -8.6,-18.2 0,-0.5 0,-0.9 0.2,-1.4 1.4,-6.3 7.2,-19.6 7.2,-19.6 0.4,-0.3 0.8,-0.6 1.3,-0.9 3.4,-1.9 7,-3.5 10.6,-4.8 l 8.3,-3.3 1.9,0.2 c 6.6,1.8 11.3,4.5 17.5,7.4 0.5,0.2 0.9,0.6 1.1,1.1 l 6.4,14.5 c 0.7,1.6 1,3.8 2,5.3 l -0.2,0.9 c -2.7,6.9 -4.4,11.8 -7.1,18.6 -1.5,0.8 -3,1.5 -4.6,2 -1.6,0.4 -3.1,0.9 -4.6,1.7 -3.6,1.6 -11,4.9 -11,4.9 z"
   class="st2"
   id="Caminho_256" />
	<g
   id="Grupo_245">
		<path
   d="m 435.3,92.8 c 0,2.2 -0.3,4.5 -0.3,6.8 0,1.8 -0.7,7.5 0.6,8.9 2,2.1 13.5,0.5 16.6,1.1 2,-5 -0.7,-11.3 -0.7,-16.5 C 446.1,92.3 440.4,93 435,92.8"
   class="st1"
   id="Caminho_128" />
		<path
   d="m 469.1,92.8 c 0,2.2 -0.3,4.5 -0.3,6.8 0,1.8 -0.7,7.5 0.6,8.9 2,2.1 13.5,0.5 16.6,1.1 2,-5 -0.7,-11.3 -0.7,-16.5 -5.4,-0.8 -11.1,-0.1 -16.5,-0.3"
   class="st0"
   id="Caminho_129" />
		<path
   d="m 417.5,109.8 c 0,2.2 -0.3,4.5 -0.3,6.8 0,1.8 -0.7,7.5 0.6,8.9 2,2.1 13.5,0.5 16.6,1.1 2,-5 -0.7,-11.3 -0.7,-16.5 -5.4,-0.8 -11.1,-0.1 -16.5,-0.3"
   class="st3"
   id="Caminho_130" />
		<path
   d="m 469.1,109.8 c 0,2.2 -0.3,4.5 -0.3,6.8 0,1.8 -0.7,7.5 0.6,8.9 2,2.1 13.5,0.5 16.6,1.1 2,-5 -0.7,-11.3 -0.7,-16.5 -5.4,-0.8 -11.1,-0.1 -16.5,-0.3"
   class="st4"
   id="Caminho_131" />
		<path
   d="m 452.6,75.9 c 0,2.2 -0.3,4.5 -0.3,6.8 0,1.8 -0.7,7.5 0.6,8.9 2,2.1 13.5,0.5 16.6,1.1 2,-5 -0.7,-11.3 -0.7,-16.5 -5.4,-0.8 -11.1,-0.1 -16.5,-0.3"
   class="st3"
   id="Caminho_132" />
		<path
   d="m 470,92.6 c -2.2,0 -4.5,-0.3 -6.8,-0.3 -1.8,0 -7.5,-0.7 -8.9,0.6 -2.1,2 -0.5,13.5 -1.1,16.6 5,2 11.3,-0.7 16.4,-0.7 0.8,-5.4 0.1,-11.1 0.3,-16.5"
   class="st5"
   id="Caminho_133" />
		<path
   d="m 450.9,126.9 c -2.2,0 -4.5,-0.3 -6.8,-0.3 -1.8,0 -7.5,-0.7 -8.9,0.6 -2.1,2 -0.5,13.5 -1.1,16.6 5,2 11.3,-0.7 16.4,-0.7 0.8,-5.4 0.1,-11.1 0.3,-16.5"
   class="st6"
   id="Caminho_134" />
		<path
   d="m 435.1,126.8 c 2.2,-0.1 4.5,0.2 6.8,0.1 1.8,0 7.5,0.5 8.8,-0.8 2,-2.1 0.2,-13.5 0.7,-16.6 -5.1,-1.8 -11.3,0.9 -16.4,1.2 -0.7,5.4 0.2,11.1 0.1,16.5"
   class="st7"
   id="Caminho_135" />
	</g>
	<g
   id="Grupo_246">
		<path
   d="m 82.1,367.6 c 0,2.4 -0.3,4.8 -0.3,7.2 0,1.9 -0.8,8 0.7,9.5 2.1,2.2 14.4,0.6 17.7,1.2 2.1,-5.4 -0.7,-12.1 -0.8,-17.5 -5.8,-0.9 -11.9,-0.1 -17.6,-0.3"
   class="st4"
   id="Caminho_128-2" />
		<path
   d="m 137.5,366.1 c 0,2.4 -0.3,4.8 -0.3,7.2 0,1.9 -0.8,8 0.7,9.5 2.1,2.2 14.4,0.6 17.7,1.2 2.1,-5.4 -0.7,-12.1 -0.8,-17.6 -5.8,-0.9 -11.9,-0.1 -17.6,-0.3"
   class="st1"
   id="Caminho_129-2" />
		<path
   d="m 118.3,401.1 c 0,2.4 -0.3,4.8 -0.3,7.2 0,1.9 -0.8,8 0.7,9.5 2.1,2.2 14.4,0.6 17.7,1.2 2.1,-5.4 -0.7,-12.1 -0.8,-17.5 -5.8,-0.9 -11.9,-0.1 -17.6,-0.3"
   class="st4"
   id="Caminho_131-2" />
		<path
   d="m 119.9,348 c 0,2.4 -0.3,4.8 -0.3,7.2 0,1.9 -0.8,8 0.7,9.5 2.2,2.2 14.4,0.6 17.7,1.2 2.1,-5.4 -0.7,-12.1 -0.8,-17.5 -5.8,-0.9 -11.9,-0.1 -17.6,-0.3"
   class="st3"
   id="Caminho_132-2" />
		<path
   d="m 101.2,402.4 c 2.4,-0.1 4.8,0.2 7.2,0.1 1.9,0 8,0.6 9.4,-0.9 2.1,-2.2 0.2,-14.4 0.7,-17.8 -5.4,-2 -12.1,1 -17.5,1.2 -0.7,5.8 0.2,11.9 0.1,17.6"
   class="st7"
   id="Caminho_135-2" />
	</g>
	<g
   id="Grupo_247">
		<path
   d="m 945.3,333.1 c -4.2,-5 -9.9,-9.5 -14.7,-14.1 -3.8,-3.6 -10.2,-9.9 -15.1,-11.2 -2.1,12.4 -1.8,25.8 -1.5,38.2 5.2,-1.1 11.6,-5.2 17.1,-7.3 5,-1.9 11,-3.7 14.8,-5.6"
   class="st0"
   id="Caminho_136" />
		<path
   d="m 890.3,286.8 c 1.2,2 3.5,3.7 5,5.5 2.1,2.3 4.5,4.3 7,6.2 2.2,1.7 4.3,3.5 6.5,5.1 2.2,1.6 4.4,3.8 6.7,5 1.4,-2.9 1.2,-6.8 2.4,-9.9 1,-2.7 1.4,-5.7 2.3,-8.4 1.8,-5 3.1,-10.2 3.8,-15.5 -11.6,3.4 -23.2,7.7 -34.5,11.4 0.1,0.2 0.2,0 0.3,-0.1"
   class="st3"
   id="Caminho_137" />
		<path
   d="m 890.9,286.7 c -0.2,3.4 -1.3,6.5 -1.7,9.8 -0.6,3.8 -0.5,2.9 -1.1,6.7 -0.6,4.3 -0.4,8 -1.5,12.2 -0.7,2.7 -2.2,8.1 -2.4,10.9 6.4,-5 10.5,-5.8 17.9,-9.8 4.4,-2.4 8.6,-5 12.7,-7.9 0,0 -15.6,-15.1 -23.9,-21.9 z"
   class="st5"
   id="Caminho_138" />
	</g>
	<g
   id="Grupo_248">
		<path
   d="m 310.2,217 c -6.1,3.9 -12.1,9.4 -17.9,14.1 -4.6,3.7 -12.6,9.8 -14.8,15 13.4,4.2 28.2,6.1 42,7.7 -0.4,-5.9 -3.9,-13.7 -5.4,-20 -1.3,-5.8 -2.3,-12.7 -3.8,-17.2"
   class="st0"
   id="Caminho_113" />
		<path
   d="m 392.6,239.4 c -6.5,3.2 -9.6,8.8 -15.8,12.8 -5,3.2 -13.5,8.4 -16.2,13.4 12.9,5.6 24.7,7.9 38.2,10.9 0.1,-6.5 -0.9,-13 -3,-19.1 -1.9,-6 -3.2,-18 -3.2,-18 z"
   class="st1"
   id="Caminho_114" />
		<path
   d="m 319.4,254.1 c 6.5,3.1 14.4,5.2 21.4,7.6 5.6,1.9 15,5.5 20.5,4.5 -3.5,-13.6 -9.9,-27.1 -15.8,-39.6 -4.8,3.4 -9.5,10.6 -14.1,15.2 -4.2,4.2 -9.5,8.7 -12.5,12.4"
   class="st7"
   id="Caminho_115" />
		<path
   d="m 339.8,323.9 c 5.7,2.7 10.6,2 16.7,4.1 4.8,1.7 13.7,5.8 19.6,6.4 -3.1,-11.8 -8.5,-23.5 -13.7,-34.3 -4.2,3 -8.2,9.2 -12.2,13.2 -3.7,3.6 -8.2,7.5 -10.9,10.8"
   class="st7"
   id="Caminho_116" />
		<path
   d="m 340.2,324.3 c -0.1,2.5 0.7,5.2 1,7.7 0.5,3.2 1.2,6.4 2.3,9.5 0.8,2.7 1.6,5.6 2.5,8.3 1,2.7 1.4,6 2.7,8.4 3,-1.6 5.1,-5.1 8,-7 2.5,-1.7 4.6,-4 7.1,-5.8 4.6,-3.2 8.8,-6.9 12.6,-11 -12,-4.1 -24.5,-7.5 -36.5,-11.1 0,0.3 0.1,0.1 0.3,0.1"
   class="st4"
   id="Caminho_117" />
		<path
   d="m 361.2,301 c 2.1,2 5.3,3.3 7.7,4.9 3.3,2 6.7,3.8 10.3,5.2 3.1,1.3 6.3,2.9 9.4,4.1 3.1,1.2 6.4,3.2 9.6,3.9 0.8,-3.9 -0.7,-8.5 -0.2,-12.5 0.4,-3.6 -0.1,-7.2 0.1,-10.8 0.4,-6.4 0.7,-13.4 -0.3,-19.7 -12.8,7.7 -25.3,16.4 -37.7,24.4 0.2,0.2 0.2,-0.1 0.3,-0.3"
   class="st3"
   id="Caminho_118" />
		<path
   d="m 250.4,270.6 c 2.4,-1.1 4.6,-3.3 6.8,-4.7 2.9,-2 5.5,-4.3 8,-6.8 2.2,-2.1 4.6,-4.2 6.7,-6.4 2.1,-2.2 4.9,-4.2 6.6,-6.6 -3,-2 -7.3,-2.4 -10.5,-4.2 -2.9,-1.6 -6.1,-2.4 -9,-3.8 -5.2,-2.6 -10.9,-5.2 -16.5,-6.7 1.9,13.4 4.8,26.9 7.1,40 0.3,-0.1 0,-0.2 -0.1,-0.4"
   class="st3"
   id="Caminho_119" />
		<path
   d="m 319.7,255.1 c 1.6,5.3 0.9,13.2 1.2,19.3 0.2,5.9 0.2,11.6 0.6,17.5 2.8,-1.3 7,-5.5 9.9,-7.4 3.3,-2.1 6.2,-4.7 9.6,-6.7 3.1,-1.8 6.3,-3.7 9.4,-5.5 2.9,-1.7 6.1,-4.7 9.2,-5.7 0.1,-0.2 0.1,-0.4 0,-0.6 -3.7,-1.3 -7.8,-0.9 -11.6,-2.2 -3.7,-1.2 -7.4,-2.3 -11.1,-3.6 -5.2,-1.8 -12.7,-2.7 -16.9,-6.4"
   class="st2"
   id="Caminho_120" />
		<path
   d="m 265.4,306.6 c 0.2,-5.3 -3.8,-11.5 -5.5,-16.5 -1.2,-3.5 -2.7,-6.9 -4,-10.4 -1.4,-3.7 -4.1,-6.4 -5.4,-10 0.1,-0.2 0.3,-0.3 0.5,-0.3 2.6,1.7 6.9,2.2 9.9,3.3 3.3,1.2 6.6,2.4 9.9,3.6 3.6,1.3 7.3,1.8 11,3 3.2,1 8.2,4.3 11.7,2.7 -4.3,3.9 -8.6,7.4 -12.9,11.2 -4.5,3.9 -15,13.4 -15,13.4 z"
   class="st2"
   id="Caminho_121" />
		<path
   d="m 321.6,291.9 c 6.1,-3.7 11.7,-10.6 17.9,-14.5 6.8,-4.2 14.3,-7.3 21.1,-11.7 0.2,6.2 1.3,14.1 1.9,20.3 0.5,5 0.1,10.1 0.3,15.1 -3.4,0.5 -9.2,-1.9 -12.5,-2.9 -4.2,-1.2 -8.4,-2.6 -12.6,-3.5 -5.4,-1.1 -16.1,-2.8 -16.1,-2.8 z"
   class="st6"
   id="Caminho_122" />
		<path
   d="m 321.6,291.3 c 6.1,1.8 13.9,1.4 20.2,3.1 6.8,1.9 13.3,5 20.2,6.8 -4,3.8 -8.6,9.2 -12.4,13.3 -3,3.3 -6.7,6 -9.9,9.2 -2.4,-1.9 -4.1,-7.1 -5.4,-9.9 -1.6,-3.4 -3.2,-7 -5.1,-10.3 -2.5,-4.1 -7.6,-12.2 -7.6,-12.2 z"
   class="st6"
   id="Caminho_123" />
		<path
   d="m 265.4,306.9 c -0.8,-4.8 -3.6,-14.3 -5.9,-18.8 -2.8,-5.6 -6.7,-12.5 -9.2,-18.2 -4.7,6.5 -8.8,10.3 -14.7,15.9 -5.3,5 -9,8.1 -13.4,13.8 0.1,0 40.2,9 43.2,7.3 z"
   class="st6"
   id="Caminho_124" />
		<path
   d="m 361.9,302 c 2.8,-2.5 6.2,-4.1 9.2,-6.3 3.5,-2.5 2.7,-1.8 6.2,-4.4 3.9,-2.8 6.7,-5.9 10.9,-8.3 2.7,-1.5 8.2,-4.5 10.6,-6.5 -9,-1.2 -12.8,-3.8 -21.8,-6.7 -5.3,-1.7 -10.8,-3 -16.3,-4 0.1,0 0.1,24.2 1.2,36.2 z"
   class="st5"
   id="Caminho_125" />
		<path
   d="m 250.4,269.9 c 3.7,0.7 7,2.4 10.6,3.5 4.1,1.2 3.1,1 7.2,2.2 4.7,1.4 8.8,1.7 13.3,3.6 2.9,1.2 8.6,3.7 11.6,4.4 -4.6,-7.9 -4.8,-12.5 -8,-21.3 -1.9,-5.2 -4.2,-10.3 -6.8,-15.3 0.1,-0.1 -19.1,14.7 -27.9,22.9 z"
   class="st5"
   id="Caminho_126" />
	</g>
	<g
   id="Grupo_249">
		<path
   d="m 773.5,65.5 c 1.6,6.4 3.8,10.5 6.2,16.9 1.8,5.1 2.9,12.8 6.4,18.1 7.5,-10.4 16.7,-21 22,-32.5 -5.2,-1.4 -13,-0.5 -18.9,-1.1 -5.4,-0.5 -11.7,-1.7 -16.1,-1.6"
   class="st4"
   id="Caminho_156" />
		<path
   d="m 819.5,110.5 c -1.7,-3.5 -1,-5.1 -2.4,-8.7 -1.5,-4.1 -1.4,-4.3 -3,-8.5 -1.7,-4.6 -2.1,-7.2 -3.3,-12 -0.8,-3 -2.2,-9.1 -3.5,-12 -3.7,7.9 -7.4,10.5 -12.8,17.7 -3.1,4.3 -6,8.9 -8.6,13.6 0,0.1 21.4,6.7 33.6,9.9 z"
   class="st7"
   id="Caminho_157" />
	</g>
	<g
   id="Grupo_250">
		<path
   d="m 1084.9,179.5 c -2.7,0 -5.6,-0.4 -8.4,-0.4 -2.2,0 -9.4,-0.9 -11.1,0.8 -2.6,2.5 -0.7,16.8 -1.4,20.7 6.3,2.5 14.2,-0.8 20.5,-0.9 1,-6.8 0.1,-13.9 0.4,-20.6"
   class="st7"
   id="Caminho_167" />
		<path
   d="m 1085.8,139 c -2.7,0 -5.6,-0.4 -8.4,-0.4 -2.2,0 -9.4,-0.9 -11.1,0.8 -2.6,2.5 -0.7,16.8 -1.4,20.7 6.3,2.5 14.2,-0.8 20.5,-0.9 1,-6.8 0.1,-13.9 0.4,-20.6"
   class="st8"
   id="Caminho_168" />
		<path
   d="m 1064.7,76.3 c -2.8,0 -5.6,-0.4 -8.4,-0.4 -2.2,0 -9.4,-0.9 -11.1,0.8 -2.6,2.5 -0.7,16.8 -1.4,20.7 6.3,2.5 14.2,-0.8 20.5,-0.9 1,-6.8 0.1,-13.9 0.4,-20.6"
   class="st3"
   id="Caminho_169" />
		<path
   d="m 1064.7,139 c -2.8,0 -5.6,-0.4 -8.4,-0.4 -2.2,0 -9.4,-0.9 -11.1,0.8 -2.6,2.5 -0.7,16.8 -1.4,20.7 6.3,2.5 14.2,-0.8 20.5,-0.9 1,-6.8 0.1,-13.9 0.4,-20.6"
   class="st4"
   id="Caminho_170" />
		<path
   d="m 999.5,182.3 c -2.7,0 -5.6,-0.4 -8.4,-0.4 -2.2,0 -9.4,-0.9 -11,0.8 -2.6,2.5 -0.7,16.8 -1.4,20.7 6.3,2.5 14.2,-0.8 20.5,-0.9 1,-6.8 0.1,-13.9 0.4,-20.6"
   class="st4"
   id="Caminho_171" />
		<path
   d="m 1108.1,139.5 c 0,-2.8 0.4,-5.6 0.4,-8.4 0,-2.2 0.9,-9.4 -0.8,-11.1 -2.5,-2.6 -16.8,-0.7 -20.7,-1.4 -2.5,6.3 0.8,14.2 0.9,20.5 6.8,1 13.9,0.1 20.6,0.4"
   class="st3"
   id="Caminho_172" />
		<path
   d="m 1020.5,160.7 c -2.7,0 -5.6,-0.4 -8.4,-0.4 -2.2,0 -9.4,-0.9 -11.1,0.8 -2.6,2.5 -0.7,16.8 -1.4,20.7 6.3,2.5 14.2,-0.8 20.5,-0.9 1,-6.8 0.1,-13.9 0.4,-20.6"
   class="st3"
   id="Caminho_173" />
		<path
   d="m 1043.8,139.1 c 0,-2.7 0.4,-5.6 0.4,-8.4 0,-2.2 0.9,-9.4 -0.8,-11.1 -2.5,-2.6 -16.8,-0.7 -20.7,-1.4 -2.5,6.3 0.8,14.2 0.9,20.5 6.8,1 13.9,0.1 20.6,0.4"
   class="st5"
   id="Caminho_174" />
		<path
   d="m 1043.3,118 c 0,-2.8 0.4,-5.6 0.4,-8.4 0,-2.2 0.9,-9.4 -0.8,-11.1 -2.5,-2.6 -16.8,-0.7 -20.7,-1.4 -2.5,6.3 0.8,14.2 0.9,20.5 6.8,1 13.9,0.1 20.6,0.4"
   class="st6"
   id="Caminho_175" />
		<path
   d="m 1130.5,119.8 c 0,-2.8 0.4,-5.6 0.4,-8.4 0,-2.2 0.9,-9.4 -0.8,-11 -2.5,-2.6 -16.8,-0.7 -20.7,-1.4 -2.5,6.3 0.8,14.2 0.9,20.5 6.8,1 13.9,0.1 20.6,0.4"
   class="st6"
   id="Caminho_176" />
		<path
   d="m 1043.4,98.3 c 0.1,2.7 -0.2,5.6 -0.2,8.4 0.1,2.2 -0.7,9.4 1.1,11 2.6,2.5 16.8,0.2 20.8,0.9 2.3,-6.3 -1.2,-14.1 -1.5,-20.5 -6.8,-0.8 -13.9,0.3 -20.6,0.1"
   class="st7"
   id="Caminho_177" />
		<path
   d="m 1064.3,159.7 c -6.6,0 -14.2,-1.7 -20.6,-0.7 -0.3,7.3 -0.8,14.9 -0.5,22.3 2.4,-2.1 8.7,-1.9 11.8,-2.2 1.6,-0.1 7.3,0.7 8.5,-0.3 1.2,-1 0.5,-8.4 0.6,-10.5 0,-1.4 0.4,-2.7 0.5,-4.1 0,-1.5 -0.7,-2.7 -0.5,-4.2"
   class="st5"
   id="Caminho_178" />
	</g>
	<g
   id="Grupo_251">
		<path
   d="m 139.9,250.4 c 2.1,-5.6 4,-10.6 4.9,-16.5 0.3,-2.3 0.9,-13.7 -3,-7.8 -3.2,4.8 -4.4,11.4 -4.4,17.2 0,1.7 -0.4,3.7 -0.1,5.3 0.3,2 2.1,3.1 3.2,0.7"
   class="st7"
   id="Caminho_180" />
		<path
   d="m 153.8,229.8 c 4.5,-3.9 8.5,-7.4 12.2,-12.2 1.4,-1.8 7.4,-11.5 1.3,-8.2 -5,2.7 -9.3,7.9 -12.1,12.9 -0.8,1.5 -2.1,3 -2.7,4.6 -0.7,1.9 0.3,3.7 2.4,2.1"
   class="st7"
   id="Caminho_181" />
		<path
   d="m 180.3,218.2 c -4.6,1.7 -8.7,3.2 -12.8,5.9 -1.6,1.1 -8.6,7.2 -2.7,6.6 4.8,-0.5 9.5,-3.3 12.8,-6.6 1,-0.9 2.4,-1.8 3.2,-2.9 1,-1.4 0.5,-3.3 -1.6,-2.7"
   class="st7"
   id="Caminho_182" />
		<path
   d="m 129.2,198.1 c -3.9,-3.2 -7.5,-6.1 -12,-8.6 -1.7,-0.9 -10.7,-4.9 -6.9,-0.3 3.1,3.7 8,6.6 12.6,8.5 1.4,0.7 2.8,1.3 4.2,1.7 1.7,0.4 3,-0.5 1.3,-2.1"
   class="st7"
   id="Caminho_183" />
		<path
   d="m 171.8,238 c 5.1,-1.6 10.5,-1.4 15.5,-3.5 1.2,-0.5 9.2,-3.8 4.2,-5 -2.3,-0.5 -5.9,0.9 -8.1,1.5 -2.3,0.6 -4.5,1.4 -6.7,2.4 -1.1,0.6 -2.3,1.1 -3.4,1.7 -0.7,0.4 -3.3,2.1 -1,2.4"
   class="st7"
   id="Caminho_184" />
		<path
   d="m 112.7,201.6 c -2.6,0.5 -6.2,3.6 -8.8,5 -2.5,1.4 -5,3 -7.5,4.6 -1.9,1.2 -6.8,5.3 -1.7,4.4 5.8,-1.1 11.1,-4.6 15.3,-8.7 1,-0.9 2,-1.8 3,-2.8 1.8,-2.3 0,-1.9 -2.2,-1.5"
   class="st7"
   id="Caminho_185" />
		<path
   d="m 118.4,213 c 2.2,1.3 6.6,1.2 9.3,1.7 2.6,0.5 5.4,0.9 8.1,1.2 2.1,0.3 8.1,0.2 3.8,-2.3 -4.8,-2.8 -10.7,-3.4 -16.2,-2.9 -1.3,0 -2.6,0.1 -3.8,0.3 -2.7,0.6 -1.2,1.4 0.7,2.5"
   class="st7"
   id="Caminho_186" />
		<path
   d="m 138.7,220.1 c -5.8,2.8 -11.8,4.9 -17.3,8.2 -1.3,0.7 -2.6,1.7 -3.6,2.7 -1.1,1.4 -0.9,1.6 0.7,1.6 6,-0.1 13.9,-5.2 18.9,-8.7 1.1,-0.6 2,-1.4 2.9,-2.3 0.9,-1.2 0.2,-1.9 -1.5,-1.2"
   class="st7"
   id="Caminho_187" />
	</g>
	<path
   d="m 1179.5,302 c 2.8,-0.9 5.5,-2.2 8,-3.8 2,-1.4 6.3,-4.7 6.5,-5 0.1,-0.2 0.2,-0.4 0.3,-0.7 1.5,-4.7 4.2,-15 4.2,-15.4 0,-0.4 -0.2,-0.7 -0.3,-1 -2,-4.7 -8.3,-14.3 -8.3,-14.3 -0.4,-0.2 -0.7,-0.4 -1.1,-0.5 -2.9,-1 -5.9,-1.7 -8.9,-2.3 l -6.9,-1.4 -1.4,0.4 c -4.9,2.4 -8.2,5 -12.6,8.2 -0.4,0.2 -0.6,0.6 -0.7,1 l -3,12.2 c -0.3,1.3 -0.2,3.1 -0.9,4.5 l 0.3,0.6 c 3.1,5 5.1,8.6 8.1,13.6 1.3,0.5 2.6,0.8 3.9,0.9 1.3,0.1 2.6,0.3 3.8,0.7 2.8,0.7 9,2.3 9,2.3 z"
   class="st3"
   id="Caminho_257" />
	<g
   id="Grupo_252">
		<path
   d="m 887.5,162.4 c -4.2,-4.2 -7.9,-8.1 -12.9,-11.4 -1.9,-1.3 -12,-6.6 -8.3,-0.6 3,4.9 8.5,8.8 13.7,11.3 1.5,0.7 3.1,1.9 4.8,2.3 2,0.5 3.7,-0.6 2,-2.6"
   class="st1"
   id="Caminho_196" />
		<path
   d="m 874.6,141 c -1.7,-5.7 -3.1,-10.9 -5.9,-16.2 -1.1,-2.1 -7.3,-11.6 -6.9,-4.6 0.4,5.7 3.3,11.8 6.6,16.5 1,1.4 1.8,3.2 3,4.4 1.5,1.4 3.4,1.3 2.9,-1.3"
   class="st1"
   id="Caminho_197" />
		<path
   d="m 875.3,112.2 c -0.4,4.9 -0.8,9.2 0,14.1 0.3,1.8 2.9,10.8 4.8,5.2 1.6,-4.6 1,-10 -0.5,-14.4 -0.4,-1.3 -0.6,-2.9 -1.3,-4.1 -0.9,-1.5 -2.7,-1.8 -3.1,0.3"
   class="st1"
   id="Caminho_198" />
		<path
   d="m 835.6,150 c -4.6,2.2 -8.7,4.2 -12.8,7.2 -1.6,1.2 -8.9,7.6 -3.2,6.1 4.7,-1.2 9.4,-4.5 13,-7.8 1.2,-0.9 2.3,-2 3.3,-3.1 1.1,-1.4 0.8,-2.9 -1.3,-2"
   class="st1"
   id="Caminho_199" />
		<path
   d="m 889.7,128.3 c 0.7,-5.3 3.1,-10.1 3.4,-15.5 0.1,-1.4 0.4,-9.9 -2.7,-5.9 -1.4,1.8 -1.7,5.7 -2.1,8 -0.4,2.3 -0.6,4.7 -0.6,7.1 0,1.3 0,2.5 0.1,3.8 0.1,0.7 0.5,3.9 1.7,2"
   class="st1"
   id="Caminho_200" />
		<path
   d="m 831.7,166.4 c -0.7,2.6 0.6,7.2 0.8,10.1 0.2,2.9 0.6,5.8 1,8.7 0.3,2.3 1.9,8.4 3.2,3.4 1.5,-5.7 0.5,-12 -1.4,-17.5 -0.4,-1.3 -0.8,-2.6 -1.3,-3.9 -1.3,-2.6 -1.7,-0.8 -2.3,1.3"
   class="st1"
   id="Caminho_201" />
		<path
   d="m 844.5,166.1 c 2.1,-1.4 3.9,-5.5 5.4,-7.7 1.6,-2.2 3.1,-4.6 4.5,-6.9 1.1,-1.8 3.6,-7.2 -0.5,-4.4 -4.6,3.2 -7.6,8.3 -9.5,13.4 -0.5,1.2 -1,2.4 -1.3,3.6 -0.6,2.7 0.8,1.7 2.6,0.5"
   class="st1"
   id="Caminho_202" />
		<path
   d="m 859.6,150.7 c 0.1,6.4 -0.6,12.7 0.2,19.2 0.1,1.5 0.4,3 1,4.5 0.8,1.6 1.1,1.5 1.7,0.1 2.5,-5.5 1.2,-14.8 0,-20.8 -0.2,-1.2 -0.5,-2.4 -0.9,-3.6 -0.8,-1.3 -1.6,-1 -1.7,0.8"
   class="st1"
   id="Caminho_203" />
	</g>
</g>
</svg>
