<?xml version="1.0" encoding="UTF-8" standalone="no"?>
<svg
   xmlns:dc="http://purl.org/dc/elements/1.1/"
   xmlns:cc="http://creativecommons.org/ns#"
   xmlns:rdf="http://www.w3.org/1999/02/22-rdf-syntax-ns#"
   xmlns:svg="http://www.w3.org/2000/svg"
   xmlns="http://www.w3.org/2000/svg"
   xmlns:sodipodi="http://sodipodi.sourceforge.net/DTD/sodipodi-0.dtd"
   xmlns:inkscape="http://www.inkscape.org/namespaces/inkscape"
   inkscape:version="1.0 (4035a4fb49, 2020-05-01)"
   height="365.10001"
   width="1024"
   sodipodi:docname="fondo-verde_1024x768.svg"
   xml:space="preserve"
   viewBox="0 0 1024 365.10001"
   y="0px"
   x="0px"
   id="Camada_1"
   version="1.1"><metadata
   id="metadata246"><rdf:RDF><cc:Work
       rdf:about=""><dc:format>image/svg+xml</dc:format><dc:type
         rdf:resource="http://purl.org/dc/dcmitype/StillImage" /><dc:title></dc:title></cc:Work></rdf:RDF></metadata><defs
   id="defs244" /><sodipodi:namedview
   inkscape:current-layer="Camada_1"
   inkscape:window-maximized="0"
   inkscape:window-y="0"
   inkscape:window-x="0"
   inkscape:cy="384"
   inkscape:cx="512"
   inkscape:zoom="1.0807292"
   showgrid="false"
   id="namedview242"
   inkscape:window-height="618"
   inkscape:window-width="1583"
   inkscape:pageshadow="2"
   inkscape:pageopacity="0"
   guidetolerance="10"
   gridtolerance="10"
   objecttolerance="10"
   borderopacity="1"
   bordercolor="#666666"
   pagecolor="#ffffff" />
<style
   id="style181"
   type="text/css">
	.st0{fill:#50A545;}
	.st1{fill:#F49725;}
	.st2{fill:#B25AA7;}
	.st3{fill:#F1EEE9;}
	.st4{fill:#EFCC3E;}
	.st5{fill:#83C8E8;}
	.st6{fill:#E94941;}
	.st7{fill:#4B8ED2;}
</style>
<path
   style="stroke-width:1"
   d="M 1024,359.8 V 0 H 0 v 362.6 c 0,0 7.4999999,-0.2 34.199999,-1.1 C 66,361 100.1,364 134.79999,364 191.4,361.7 247.3,356 304,356.1 c 73.4,0.1 146.6,2.3 219.7,2.3 80.5,-0.1 160.5,6.7 240.9,6.7 33.6,0 66.1,-3.9 99.2,-5.6 35.3,-1.9 59.79999,6.40001 93.2,4.3 33.4,-2 67,-4 67,-4 z"
   class="st0"
   id="Caminho_214" />
<g
   id="g239">
	<path
   d="m 98.7,148.8 c -2.3,-0.8 -4.5,-1.8 -6.6,-3.1 -1.6,-1.2 -5.3,-3.9 -5.4,-4.1 -0.1,-0.2 -0.2,-0.4 -0.2,-0.6 -1.3,-3.9 -3.5,-12.5 -3.5,-12.8 0,-0.3 0.1,-0.6 0.3,-0.9 1.6,-3.9 6.9,-11.9 6.9,-11.9 0.3,-0.2 0.6,-0.3 0.9,-0.5 2.4,-0.8 4.9,-1.5 7.4,-1.9 l 5.8,-1.2 1.2,0.3 c 4.1,2 6.8,4.2 10.5,6.8 0.3,0.2 0.5,0.5 0.6,0.8 L 119,130 c 0.3,1.1 0.2,2.6 0.7,3.7 l -0.2,0.5 c -2.5,4.1 -4.2,7.1 -6.8,11.3 -1.1,0.4 -2.1,0.6 -3.2,0.7 -1.1,0 -2.2,0.2 -3.2,0.6 -2.4,0.7 -7.6,2 -7.6,2 z"
   class="st1"
   id="Caminho_232" />
	<path
   d="m 388,306.5 c -1.7,-1.8 -3.1,-3.8 -4.3,-5.9 -0.9,-1.8 -2.7,-6 -2.7,-6.3 0,-0.2 0,-0.4 0.1,-0.6 0.8,-4.1 3,-12.7 3.2,-12.9 0.2,-0.2 0.4,-0.5 0.6,-0.6 3.3,-2.6 11.8,-7 11.8,-7 0.4,0 0.7,0 1.1,0.1 2.5,0.5 5,1.1 7.4,1.9 l 5.6,1.8 0.9,0.9 c 2.6,3.7 3.9,7 5.9,11 0.2,0.3 0.2,0.7 0.1,1 L 415,300 c -0.3,1.1 -1.1,2.4 -1.2,3.6 l -0.5,0.4 c -4.2,2.4 -7.1,4.2 -11.4,6.6 -1.1,-0.2 -2.2,-0.5 -3.2,-0.9 -1,-0.5 -2,-0.8 -3.1,-1.1 -2.5,-0.7 -7.6,-2.1 -7.6,-2.1 z"
   class="st2"
   id="Caminho_234" />
	<g
   id="Grupo_230">
		<path
   d="m 201.5,246.5 c -2.1,4.5 -4,8.5 -5.2,13.4 -0.4,1.9 -1.7,11.3 1.9,6.7 2.9,-3.8 4.4,-9.2 4.9,-13.9 0.1,-1.4 0.6,-3 0.5,-4.4 -0.1,-1.7 -1.5,-2.7 -2.6,-0.8"
   class="st3"
   id="Caminho_188" />
		<path
   d="m 188.1,298 c 2.4,-4.3 4.6,-8.2 6,-13 0.6,-1.8 2.5,-11.1 -1.3,-6.8 -3.2,3.6 -5,8.9 -5.8,13.6 -0.2,1.4 -0.8,2.9 -0.8,4.4 0,1.7 1.3,2.8 2.4,0.9"
   class="st3"
   id="Caminho_189" />
		<path
   d="m 169.9,294.8 c 4.1,-2.9 7.7,-5.4 11.2,-9 1.3,-1.4 7.2,-8.9 1.8,-6.7 -4.4,1.8 -8.4,5.7 -11.2,9.6 -0.8,1.1 -2,2.3 -2.6,3.6 -0.7,1.5 -0.1,3.1 1.8,1.9"
   class="st3"
   id="Caminho_190" />
		<path
   d="m 159.1,283.9 c 4.9,-0.8 9.3,-1.5 14,-3.3 1.8,-0.7 10.3,-4.9 4.5,-5.2 -4.8,-0.3 -10.1,1.5 -14.3,3.8 -1.2,0.7 -2.8,1.2 -3.9,2.1 -1.3,1.1 -1.4,2.7 0.8,2.5"
   class="st3"
   id="Caminho_191" />
		<path
   d="m 177.4,254.5 c 3.9,3.6 6.7,8.1 10.9,11.5 1.1,0.8 7.8,6.1 6,1.5 -0.8,-2.1 -3.8,-4.5 -5.5,-6.1 -1.7,-1.7 -3.5,-3.2 -5.4,-4.6 -1,-0.7 -2,-1.5 -3.1,-2.1 -0.6,-0.4 -3.4,-1.9 -2.4,0.1"
   class="st3"
   id="Caminho_192" />
		<path
   d="m 218.1,274.8 c -2,-0.9 -6,-0.5 -8.4,-0.7 -2.4,-0.2 -4.9,-0.3 -7.3,-0.4 -1.9,-0.1 -7.2,0.4 -3.2,2.2 4.5,2 9.8,2.1 14.6,1.2 1.1,-0.1 2.3,-0.3 3.4,-0.5 2.3,-0.7 0.9,-1.3 -0.8,-2.1"
   class="st3"
   id="Caminho_193" />
		<path
   d="m 176.8,269.1 c -1.8,-1.1 -5.5,-1 -7.7,-1.4 -2.2,-0.4 -4.5,-0.7 -6.8,-1 -1.8,-0.2 -6.7,-0.2 -3.2,1.9 4,2.4 8.9,2.9 13.5,2.5 1.1,0 2.1,-0.1 3.2,-0.2 2.2,-0.5 1,-1.2 -0.5,-2.1"
   class="st3"
   id="Caminho_194" />
		<path
   d="m 219.6,256.4 c -4.5,2.9 -9.3,5.2 -13.5,8.5 -1,0.7 -2,1.6 -2.7,2.7 -0.8,1.3 -0.5,1.4 0.7,1.3 5,-0.7 11,-5.6 14.8,-9.1 0.8,-0.6 1.5,-1.4 2.1,-2.2 0.6,-1.1 0,-1.6 -1.3,-0.8"
   class="st3"
   id="Caminho_195" />
	</g>
	<path
   d="m 770.4,117.5 c 0.8,-4.2 1.7,-8.4 3.6,-12.2 1.5,-3.1 5.3,-10.1 5.6,-10.4 0.3,-0.2 0.6,-0.4 0.9,-0.6 6.4,-3.2 20.5,-9.4 21,-9.5 0.5,0 1,0.1 1.5,0.2 7.1,1.8 22.2,8.7 22.2,8.7 0.4,0.5 0.7,1 1,1.5 2.1,3.9 3.8,8 5.3,12.2 l 3.6,9.6 -0.2,2.2 c -2.3,7.5 -5.3,12.8 -8.8,19.8 -0.2,0.6 -0.7,1 -1.3,1.1 l -16.7,7.1 c -1.8,0.7 -4.4,1 -6.2,2.2 l -1,-0.2 c -7.8,-3.2 -13.4,-5.3 -21.2,-8.5 0,0 -1.9,-3.5 -2.2,-5.4 -0.4,-1.8 -1,-3.6 -1.8,-5.3 -1.7,-4 -5.3,-12.5 -5.3,-12.5 z"
   class="st4"
   id="Caminho_233" />
	<g
   id="Grupo_141">
		<path
   d="m 840.8,198.6 c -2.8,5 -4.7,11.2 -7,16.6 -1.8,4.3 -5,11.6 -4.5,16.1 10.9,-2.2 21.9,-6.6 32.1,-10.8 -2.5,-4 -8,-8 -11.4,-11.8 -3.1,-3.5 -6.5,-7.9 -9.3,-10.5"
   class="st4"
   id="Caminho_113" />
		<path
   d="m 906.6,182.4 c -3.3,4.7 -3.3,9.8 -6,15 -2.2,4.1 -6.1,11 -6.1,15.5 11.1,-1.1 20.1,-4 30.7,-7.2 -2.4,-4.5 -5.6,-8.6 -9.4,-12.1 -3.7,-3.4 -9.2,-11.2 -9.2,-11.2 z"
   class="st4"
   id="Caminho_114" />
		<path
   d="m 902.4,261.3 c 5,-0.3 8.1,-2.7 13.1,-3.6 4,-0.7 11.7,-1.2 16.1,-3.1 -6.6,-7 -14.9,-13 -22.7,-18.5 -1.7,3.7 -2.2,9.5 -3.4,13.8 -1.1,3.9 -2.8,8.4 -3.4,11.6"
   class="st3"
   id="Caminho_116" />
		<path
   d="m 902.8,261.5 c 0.9,1.7 2.5,3.4 3.7,5 1.6,2.1 3.3,4 5.3,5.7 1.6,1.6 3.3,3.3 5,4.8 1.7,1.5 3.3,3.6 5.1,4.8 1.5,-2.2 1.6,-5.5 2.9,-7.9 1.1,-2.2 1.6,-4.6 2.6,-6.8 1.9,-4 3.5,-8.2 4.6,-12.5 -9.9,1.7 -19.9,4.2 -29.6,6.3 0.1,0.2 0.1,0 0.3,-0.1"
   class="st2"
   id="Caminho_117" />
		<path
   d="m 908.5,237.2 c 2.2,0.6 4.9,0.3 7.2,0.5 3.1,0.2 6.1,0 9.2,-0.4 2.7,-0.3 5.5,-0.4 8.1,-0.8 2.6,-0.4 5.7,-0.2 8.2,-1 -0.9,-3 -3.7,-5.6 -5,-8.6 -1.1,-2.6 -2.9,-4.9 -4.1,-7.5 -2.2,-4.6 -4.7,-9.5 -7.8,-13.6 -5.9,10.3 -11.3,21.1 -16.8,31.4 0.2,0.1 0.1,-0.1 0.1,-0.3"
   class="st1"
   id="Caminho_118" />
		<path
   d="m 819.8,258.8 c 1.2,-1.7 2,-4 2.9,-5.9 1.2,-2.5 2.2,-5.1 2.9,-7.8 0.7,-2.3 1.6,-4.7 2.2,-7 0.6,-2.3 1.8,-4.8 2.1,-7.1 -2.8,-0.3 -6,1.1 -8.9,1.2 -2.6,0 -5.1,0.7 -7.7,0.8 -4.7,0.1 -9.4,0.7 -14,1.7 6.5,8.6 13.7,16.8 20.3,25 0.1,-0.2 -0.1,-0.1 -0.2,-0.2"
   class="st1"
   id="Caminho_119" />
		<path
   d="m 862,221.3 c 3.2,3 5.7,8.8 8.3,13 2.4,4 4.6,7.9 7.1,11.9 1.5,-2 2.7,-6.5 4,-8.9 1.5,-2.7 2.5,-5.6 4.1,-8.3 1.5,-2.4 2.9,-5 4.4,-7.4 1.4,-2.3 2.4,-5.6 4.2,-7.5 0,-0.2 -0.1,-0.3 -0.2,-0.4 -3.1,0.6 -5.7,2.3 -8.9,2.9 -3,0.6 -6,1.3 -9.1,1.8 -4.3,0.7 -9.9,3 -14.2,2.1"
   class="st5"
   id="Caminho_120" />
		<path
   d="m 844.2,277.9 c -1.9,-3.8 -7,-6.5 -10.2,-9.3 -2.2,-2 -4.6,-3.8 -6.8,-5.7 -2.2,-1.9 -5.3,-2.9 -7.6,-4.8 0,-0.2 0.1,-0.3 0.2,-0.4 2.5,0.2 5.6,-1.1 8.2,-1.5 2.7,-0.4 5.5,-0.9 8.2,-1.3 3,-0.5 5.8,-1.5 8.8,-2.1 2.6,-0.5 7.3,-0.2 9.2,-2.6 -1.5,4.3 -3.1,8.5 -4.6,12.8 -1.7,4.3 -5.4,14.9 -5.4,14.9 z"
   class="st5"
   id="Caminho_121" />
		<path
   d="m 877.5,246.2 c 2.8,-4.9 4.1,-11.9 6.9,-17 3.1,-5.5 7.1,-10.6 10.1,-16.2 2.5,4.2 6.3,9.3 9.1,13.4 2.3,3.3 3.9,7 6,10.4 -2.2,1.7 -7.1,2.2 -9.8,2.8 -3.4,0.7 -6.8,1.5 -10.1,2.4 -4.1,1.2 -12.2,4.2 -12.2,4.2 z"
   class="st6"
   id="Caminho_122" />
		<path
   d="m 844.2,278.2 c -2.4,-3 -8,-8.5 -11.3,-10.7 -4.1,-2.8 -9.5,-6.1 -13.4,-9.1 -0.7,6.3 -2.1,10.5 -4.1,16.7 -1.8,5.5 -3.1,9.1 -4,14.7 0.1,-0.1 31.4,-9.3 32.8,-11.6 z"
   class="st6"
   id="Caminho_124" />
		<path
   d="m 819.6,258.2 c 2.8,-0.9 5.8,-1 8.7,-1.6 3.3,-0.7 2.5,-0.5 5.9,-1.2 3.8,-0.8 6.7,-2.2 10.6,-2.6 2.5,-0.3 7.4,-0.7 9.8,-1.4 -6.2,-3.7 -8.1,-6.8 -13.7,-11.7 -3.4,-2.9 -6.9,-5.6 -10.6,-8.1 -0.2,-0.1 -7.8,17.6 -10.7,26.6 z"
   class="st7"
   id="Caminho_126" />
	</g>
	<g
   id="Grupo_231">
		<path
   d="m 254.6,152.2 c 0,-3.2 0.5,-6.4 0.5,-9.7 0,-2.6 1,-10.7 -0.9,-12.6 -2.9,-2.9 -19.2,-0.7 -23.7,-1.6 -2.8,7.2 0.9,16.2 1,23.4 7.7,1.2 15.9,0.1 23.5,0.5"
   class="st3"
   id="Caminho_167" />
		<path
   d="m 301,153.3 c 0,-3.2 0.5,-6.4 0.5,-9.7 0,-2.5 1,-10.7 -0.9,-12.6 -2.9,-2.9 -19.2,-0.7 -23.7,-1.6 -2.8,7.2 0.9,16.2 1,23.4 7.7,1.2 15.9,0.1 23.5,0.5"
   class="st4"
   id="Caminho_168" />
		<path
   d="m 372.7,129.1 c 0,-3.2 0.5,-6.4 0.5,-9.7 0,-2.5 1,-10.7 -0.9,-12.6 -2.9,-2.9 -19.2,-0.7 -23.7,-1.6 -2.8,7.2 0.9,16.2 1,23.4 7.7,1.2 15.9,0.1 23.5,0.5"
   class="st1"
   id="Caminho_169" />
		<path
   d="m 301,129.1 c 0,-3.2 0.5,-6.4 0.5,-9.7 0,-2.5 1,-10.7 -0.9,-12.6 -2.9,-2.9 -19.2,-0.7 -23.7,-1.6 -2.8,7.2 0.9,16.2 1,23.4 7.7,1.2 15.9,0.1 23.5,0.5"
   class="st2"
   id="Caminho_170" />
		<path
   d="m 300.4,178.8 c 3.2,0 6.4,0.5 9.7,0.5 2.5,0 10.7,1 12.6,-0.9 2.9,-2.9 0.7,-19.2 1.6,-23.7 -7.2,-2.8 -16.2,0.9 -23.4,1 -1.2,7.7 -0.1,15.9 -0.5,23.5"
   class="st1"
   id="Caminho_172" />
		<path
   d="m 276.1,78.6 c 0,-3.2 0.5,-6.4 0.5,-9.7 0,-2.5 1,-10.7 -0.9,-12.6 -2.9,-2.9 -19.2,-0.7 -23.7,-1.6 -2.8,7.2 0.9,16.2 1,23.4 7.7,1.2 15.9,0.1 23.5,0.5"
   class="st4"
   id="Caminho_173" />
		<path
   d="m 300.8,105.2 c 3.2,0 6.4,0.5 9.7,0.5 2.5,0 10.7,1 12.6,-0.9 2.9,-2.9 0.7,-19.2 1.6,-23.7 -7.2,-2.8 -16.2,0.9 -23.4,1 -1.2,7.7 -0.1,15.9 -0.5,23.5"
   class="st7"
   id="Caminho_174" />
		<path
   d="m 325,104.6 c 3.2,0 6.4,0.5 9.7,0.5 2.5,0 10.7,1 12.6,-0.9 2.9,-2.9 0.7,-19.2 1.6,-23.7 -7.2,-2.8 -16.2,0.9 -23.4,1 -1.2,7.7 -0.1,15.9 -0.5,23.5"
   class="st6"
   id="Caminho_175" />
		<path
   d="m 322.9,204.5 c 3.2,0 6.4,0.5 9.7,0.5 2.5,0 10.7,1 12.6,-0.9 2.9,-2.9 0.7,-19.2 1.6,-23.7 -7.2,-2.8 -16.2,0.9 -23.4,1 -1.2,7.7 -0.1,15.9 -0.5,23.5"
   class="st5"
   id="Caminho_176" />
		<path
   d="m 347.5,104.8 c -3.2,0.1 -6.4,-0.3 -9.7,-0.2 -2.6,0.1 -10.7,-0.7 -12.6,1.2 -2.9,2.9 -0.2,19.2 -1,23.7 7.2,2.6 16.1,-1.4 23.4,-1.7 1,-7.8 -0.3,-15.9 -0.2,-23.5"
   class="st3"
   id="Caminho_177" />
		<path
   d="m 277.3,128.7 c 0,-7.5 2,-16.2 0.8,-23.6 -8.4,-0.4 -17.1,-0.9 -25.5,-0.6 2.4,2.8 2.2,9.9 2.5,13.5 0.2,1.9 -0.8,8.4 0.3,9.7 1.3,1.5 9.6,0.6 12,0.7 1.6,0 3.2,0.5 4.7,0.5 1.7,0 3.2,-0.7 4.9,-0.5"
   class="st7"
   id="Caminho_178" />
	</g>
	<g
   id="Grupo_232">
		<path
   d="m 740.2,135.4 c 1.7,-4.7 3.3,-8.8 4,-13.8 0.3,-1.9 0.7,-11.4 -2.5,-6.5 -2.6,4 -3.7,9.5 -3.7,14.3 0,1.4 -0.3,3 -0.1,4.4 0.3,1.7 1.7,2.6 2.7,0.6"
   class="st3"
   id="Caminho_180" />
		<path
   d="m 751.8,118.1 c 3.7,-3.3 7.1,-6.2 10.1,-10.2 1.2,-1.5 6.2,-9.6 1.1,-6.8 -4.2,2.3 -7.7,6.6 -10.1,10.8 -0.7,1.2 -1.8,2.5 -2.2,3.8 -0.6,1.6 0.2,3.1 2,1.7"
   class="st3"
   id="Caminho_181" />
		<path
   d="m 773.9,108.5 c -3.8,1.4 -7.3,2.6 -10.6,4.9 -1.3,0.9 -7.1,6 -2.2,5.5 4,-0.4 7.9,-2.8 10.7,-5.5 0.8,-0.8 2,-1.5 2.6,-2.5 0.8,-1.2 0.4,-2.7 -1.4,-2.2"
   class="st3"
   id="Caminho_182" />
		<path
   d="m 731.3,91.8 c -3.3,-2.7 -6.2,-5.1 -10,-7.1 -1.5,-0.8 -8.9,-4.1 -5.8,-0.3 2.6,3.1 6.7,5.5 10.5,7.1 1.1,0.6 2.3,1 3.5,1.4 1.4,0.3 2.5,-0.4 1.1,-1.7"
   class="st3"
   id="Caminho_183" />
		<path
   d="m 766.8,125 c 4.2,-1.3 8.7,-1.2 12.9,-2.9 1,-0.4 7.6,-3.2 3.5,-4.2 -1.9,-0.4 -4.9,0.7 -6.7,1.2 -1.9,0.5 -3.8,1.2 -5.5,2 -1,0.5 -1.9,0.9 -2.8,1.4 -0.5,0.3 -2.8,1.7 -0.9,2"
   class="st3"
   id="Caminho_184" />
		<path
   d="m 717.6,94.7 c -2.2,0.4 -5.2,3 -7.3,4.1 -2.1,1.2 -4.2,2.5 -6.2,3.8 -1.6,1 -5.7,4.4 -1.4,3.6 4.8,-0.9 9.2,-3.9 12.7,-7.2 0.9,-0.7 1.7,-1.5 2.5,-2.3 1.5,-1.9 0,-1.6 -1.8,-1.3"
   class="st3"
   id="Caminho_185" />
		<path
   d="m 722.3,104.3 c 1.8,1.1 5.5,1 7.7,1.4 2.2,0.4 4.5,0.7 6.8,1 1.8,0.2 6.7,0.2 3.2,-1.9 -4,-2.4 -9,-2.8 -13.5,-2.4 -1.1,0 -2.1,0.1 -3.2,0.2 -2.2,0.5 -1,1.2 0.5,2.1"
   class="st3"
   id="Caminho_186" />
		<path
   d="m 739.2,110.1 c -4.8,2.3 -9.8,4.1 -14.4,6.9 -1.1,0.6 -2.1,1.4 -3,2.3 -0.9,1.2 -0.7,1.4 0.5,1.3 5,-0.1 11.6,-4.3 15.7,-7.3 0.9,-0.5 1.7,-1.2 2.4,-1.9 0.7,-1 0.2,-1.6 -1.2,-1"
   class="st3"
   id="Caminho_187" />
	</g>
	<g
   id="Grupo_233">
		<path
   d="m 585.1,240.3 c 0,2.4 -0.3,4.8 -0.4,7.3 0,1.9 -0.8,8.1 0.7,9.5 2.2,2.2 14.5,0.6 17.9,1.2 2.1,-5.4 -0.7,-12.2 -0.7,-17.7 -5.9,-0.9 -12,-0.1 -17.7,-0.3"
   class="st2"
   id="Caminho_128" />
		<path
   d="m 640.9,238.7 c 0,2.4 -0.3,4.8 -0.3,7.3 0,1.9 -0.8,8.1 0.7,9.5 2.2,2.2 14.5,0.6 17.9,1.2 2.1,-5.4 -0.7,-12.2 -0.8,-17.7 -5.8,-0.9 -12,-0.1 -17.7,-0.4"
   class="st4"
   id="Caminho_129" />
		<path
   d="m 621.5,274 c 0,2.4 -0.3,4.8 -0.4,7.3 0,1.9 -0.8,8.1 0.7,9.5 2.2,2.2 14.5,0.6 17.9,1.2 2.1,-5.4 -0.7,-12.2 -0.8,-17.7 -5.8,-0.9 -12,-0.1 -17.7,-0.4"
   class="st5"
   id="Caminho_131" />
		<path
   d="m 623.1,220.5 c 0,2.4 -0.3,4.8 -0.4,7.3 0,1.9 -0.8,8.1 0.7,9.5 2.2,2.2 14.5,0.6 17.8,1.2 2.1,-5.4 -0.7,-12.2 -0.7,-17.7 -5.9,-0.9 -12,-0.1 -17.7,-0.3"
   class="st1"
   id="Caminho_132" />
		<path
   d="m 604.3,275.3 c 2.4,-0.1 4.8,0.2 7.3,0.2 1.9,0 8.1,0.6 9.5,-0.9 2.2,-2.2 0.2,-14.5 0.7,-17.9 -5.5,-2 -12.2,1 -17.6,1.2 -0.7,5.9 0.2,12 0.1,17.7"
   class="st3"
   id="Caminho_135" />
	</g>
	<g
   id="Grupo_234">
		<path
   d="m 599.3,63.3 c -4.2,3.4 -8.1,8.1 -11.9,12.1 -3.1,3.2 -8.4,8.4 -9.5,12.5 10.3,1.9 21.4,1.9 31.8,1.8 -0.8,-4.3 -4.2,-9.8 -5.8,-14.3 -1.5,-4.2 -2.9,-9.2 -4.4,-12.4"
   class="st4"
   id="Caminho_136" />
		<path
   d="m 559.9,108.5 c 1.7,-1 3.1,-2.8 4.6,-4.1 1.9,-1.8 3.7,-3.7 5.2,-5.8 1.5,-1.8 3,-3.6 4.4,-5.4 1.3,-1.8 3.3,-3.6 4.3,-5.5 -2.4,-1.2 -5.6,-1.1 -8.2,-2.1 -2.3,-0.9 -4.7,-1.2 -7,-2 -4.2,-1.6 -8.5,-2.7 -12.9,-3.4 2.6,9.7 6.1,19.5 9,28.9 0.2,-0.1 0,-0.1 -0.1,-0.3"
   class="st1"
   id="Caminho_137" />
		<path
   d="m 559.8,107.9 c 2.8,0.2 5.4,1.2 8.2,1.6 3.2,0.5 2.4,0.4 5.6,1 3.6,0.6 6.7,0.4 10.1,1.4 2.2,0.6 6.7,2 9,2.2 -4.1,-5.4 -4.7,-8.8 -7.9,-15 -1.9,-3.7 -4.1,-7.3 -6.4,-10.7 0,0 -12.8,12.7 -18.6,19.5 z"
   class="st3"
   id="Caminho_138" />
	</g>
</g>
</svg>
