<?xml version="1.0" encoding="UTF-8" standalone="no"?>
<svg
   xmlns:dc="http://purl.org/dc/elements/1.1/"
   xmlns:cc="http://creativecommons.org/ns#"
   xmlns:rdf="http://www.w3.org/1999/02/22-rdf-syntax-ns#"
   xmlns:svg="http://www.w3.org/2000/svg"
   xmlns="http://www.w3.org/2000/svg"
   xmlns:sodipodi="http://sodipodi.sourceforge.net/DTD/sodipodi-0.dtd"
   xmlns:inkscape="http://www.inkscape.org/namespaces/inkscape"
   inkscape:version="1.0 (4035a4fb49, 2020-05-01)"
   height="342.405"
   width="360"
   sodipodi:docname="fondo-celeste_360x740.svg"
   xml:space="preserve"
   viewBox="0 0 360 342.405"
   y="0px"
   x="0px"
   id="Camada_1"
   version="1.1"><metadata
   id="metadata878"><rdf:RDF><cc:Work
       rdf:about=""><dc:format>image/svg+xml</dc:format><dc:type
         rdf:resource="http://purl.org/dc/dcmitype/StillImage" /><dc:title></dc:title></cc:Work></rdf:RDF></metadata><defs
   id="defs876" /><sodipodi:namedview
   inkscape:current-layer="Camada_1"
   inkscape:window-maximized="0"
   inkscape:window-y="0"
   inkscape:window-x="0"
   inkscape:cy="370"
   inkscape:cx="180"
   inkscape:zoom="1.1216216"
   showgrid="false"
   id="namedview874"
   inkscape:window-height="480"
   inkscape:window-width="1355"
   inkscape:pageshadow="2"
   inkscape:pageopacity="0"
   guidetolerance="10"
   gridtolerance="10"
   objecttolerance="10"
   borderopacity="1"
   bordercolor="#666666"
   pagecolor="#ffffff" />
<style
   id="style829"
   type="text/css">
	.st0{fill:#83C8E8;}
	.st1{fill:#B25AA7;}
	.st2{fill:#F1EEE9;}
	.st3{fill:#EFCC3E;}
	.st4{fill:#F49725;}
	.st5{fill:#50A545;}
	.st6{fill:#E94941;}
	.st7{fill:#4B8ED2;}
</style>
<path
   id="path831"
   d="m 0,0 v 340.2 c 64.8,0.9 129.8,2.3 194.7,2.2 55.2,-0.1 110.2,-5.5 165.3,-3.2 V 0 Z"
   class="st0" />
<path
   d="m 321,296.8 c 1.7,-1.8 3.1,-3.8 4.2,-5.9 0.9,-1.8 2.7,-5.9 2.7,-6.2 0,-0.2 0,-0.4 -0.1,-0.6 -0.8,-4 -3,-12.6 -3.1,-12.8 -0.2,-0.2 -0.4,-0.5 -0.6,-0.6 -3.3,-2.6 -11.8,-7 -11.8,-7 -0.3,0 -0.7,0 -1,0.1 -2.5,0.5 -5,1.1 -7.4,1.9 l -5.6,1.8 -0.9,0.9 c -2.6,3.7 -3.9,6.9 -5.9,11 -0.2,0.3 -0.2,0.7 -0.1,1 l 2.7,10 c 0.3,1.1 1.1,2.3 1.2,3.6 l 0.4,0.4 c 4.2,2.4 7.1,4.2 11.3,6.6 1.1,-0.2 2.2,-0.5 3.2,-0.9 1,-0.5 2,-0.8 3,-1.1 2.7,-0.8 7.8,-2.2 7.8,-2.2 z"
   class="st1"
   id="Caminho_234" />
<g
   id="Grupo_230">
	<path
   d="m 243.8,49.7 c 2.1,4.5 4,8.5 5.1,13.3 0.4,1.9 1.7,11.2 -1.9,6.6 -2.9,-3.8 -4.4,-9.1 -4.9,-13.9 -0.1,-1.4 -0.6,-3 -0.5,-4.4 0.1,-1.7 1.5,-2.7 2.6,-0.8"
   class="st2"
   id="Caminho_188" />
	<path
   d="m 257.2,100.9 c -2.4,-4.3 -4.5,-8.2 -6,-12.9 -0.6,-1.8 -2.5,-11.1 1.3,-6.7 3.1,3.6 5,8.8 5.8,13.5 0.2,1.4 0.8,2.9 0.8,4.3 0,1.7 -1.3,2.8 -2.4,0.9"
   class="st2"
   id="Caminho_189" />
	<path
   d="m 275.3,97.6 c -4,-2.8 -7.7,-5.3 -11.1,-8.9 -1.3,-1.4 -7.1,-8.8 -1.8,-6.6 4.4,1.8 8.3,5.7 11.1,9.6 0.8,1.1 2,2.3 2.6,3.5 0.7,1.5 0.1,3 -1.8,1.9"
   class="st2"
   id="Caminho_190" />
	<path
   d="m 286,86.8 c -4.9,-0.8 -9.2,-1.5 -13.9,-3.2 -1.8,-0.7 -10.3,-4.9 -4.5,-5.2 4.7,-0.3 10,1.5 14.2,3.8 1.2,0.7 2.8,1.2 3.9,2.1 1.3,1.1 1.4,2.7 -0.8,2.5"
   class="st2"
   id="Caminho_191" />
	<path
   d="m 267.8,57.6 c -3.9,3.6 -6.7,8.1 -10.9,11.4 -1,0.8 -7.8,6 -6,1.5 0.8,-2.1 3.8,-4.5 5.4,-6.1 1.7,-1.7 3.5,-3.2 5.4,-4.5 1,-0.7 2,-1.5 3.1,-2.1 0.6,-0.4 3.4,-1.9 2.4,0.1"
   class="st2"
   id="Caminho_192" />
	<path
   d="m 227.4,77.8 c 2,-0.9 5.9,-0.5 8.3,-0.7 2.4,-0.2 4.8,-0.3 7.2,-0.4 1.9,-0.1 7.1,0.4 3.2,2.2 -4.5,2 -9.7,2 -14.5,1.2 -1.1,-0.1 -2.2,-0.3 -3.3,-0.5 -2.3,-0.7 -0.9,-1.3 0.7,-2.1"
   class="st2"
   id="Caminho_193" />
	<path
   d="m 268.4,72.2 c 1.8,-1.1 5.5,-1 7.7,-1.4 2.2,-0.4 4.5,-0.7 6.7,-1 1.7,-0.2 6.7,-0.2 3.2,1.9 -4,2.4 -8.9,2.9 -13.4,2.4 -1.1,0 -2.1,-0.1 -3.2,-0.2 -2.2,-0.5 -1,-1.2 0.5,-2.1"
   class="st2"
   id="Caminho_194" />
	<path
   d="m 225.9,59.5 c 4.5,2.9 9.2,5.1 13.4,8.5 1,0.7 1.9,1.6 2.7,2.6 0.8,1.3 0.5,1.4 -0.7,1.3 -5,-0.7 -10.9,-5.6 -14.7,-9 -0.8,-0.6 -1.5,-1.4 -2.1,-2.2 -0.6,-1.1 0,-1.6 1.3,-0.8"
   class="st2"
   id="Caminho_195" />
</g>
<g
   id="Grupo_141">
	<path
   d="m 53.2,130.3 c 2.8,-5 4.7,-11.1 6.9,-16.5 1.8,-4.3 5,-11.5 4.5,-16 -10.8,2.2 -21.8,6.6 -31.9,10.7 2.5,3.9 7.9,7.9 11.4,11.8 3.1,3.5 6.4,7.9 9.2,10.4"
   class="st3"
   id="Caminho_113" />
	<path
   d="m 74.1,70.5 c -1.2,1.6 -1.9,4 -2.9,5.9 -1.2,2.5 -2.2,5.1 -2.9,7.7 -0.7,2.3 -1.6,4.7 -2.1,7 -0.6,2.3 -1.8,4.8 -2,7.1 2.8,0.3 5.9,-1.1 8.9,-1.1 2.6,0 5.1,-0.7 7.7,-0.7 4.7,-0.1 9.4,-0.7 13.9,-1.7 C 88.3,86.2 81.1,78 74.5,69.9 c -0.1,0.2 0.1,0.1 0.2,0.2"
   class="st4"
   id="Caminho_119" />
	<path
   d="M 32.2,107.7 C 29,104.7 26.5,98.9 24,94.8 21.6,90.9 19.4,86.9 16.9,83 c -1.5,2 -2.7,6.5 -4,8.9 -1.5,2.7 -2.5,5.6 -4.1,8.3 -1.5,2.4 -2.9,4.9 -4.4,7.4 -1.4,2.3 -2.4,5.5 -4.2,7.4 0,0.2 0.1,0.3 0.2,0.4 3.1,-0.6 5.7,-2.3 8.8,-2.9 3,-0.6 6,-1.3 9,-1.8 4.3,-0.7 9.8,-2.9 14.1,-2.1"
   class="st5"
   id="Caminho_120" />
	<path
   d="m 49.9,51.4 c 1.9,3.8 7,6.5 10.1,9.3 2.2,1.9 4.5,3.8 6.8,5.7 2.3,1.9 5.3,2.9 7.6,4.8 0,0.2 -0.1,0.3 -0.2,0.4 -2.5,-0.2 -5.6,1.1 -8.1,1.5 -2.7,0.4 -5.5,0.9 -8.2,1.3 -3,0.5 -5.8,1.5 -8.7,2.1 -2.6,0.5 -7.3,0.2 -9.1,2.6 1.5,-4.3 3.1,-8.4 4.6,-12.7 1.5,-4.4 5.2,-15 5.2,-15 z"
   class="st5"
   id="Caminho_121" />
	<path
   d="m 49.8,51.2 c 2.4,3 7.9,8.5 11.2,10.7 4.1,2.8 9.4,6.1 13.3,9.1 0.7,-6.3 2.1,-10.4 4.1,-16.6 1.7,-5.5 3.1,-9.1 4,-14.7 -0.1,0 -31.2,9.1 -32.6,11.5 z"
   class="st6"
   id="Caminho_124" />
	<path
   d="m 74.3,71 c -2.8,0.9 -5.8,1 -8.6,1.6 -3.3,0.7 -2.5,0.5 -5.9,1.2 -3.7,0.8 -6.7,2.2 -10.5,2.6 -2.5,0.3 -7.3,0.7 -9.7,1.4 6.2,3.7 8.1,6.8 13.7,11.6 3.3,2.9 6.9,5.5 10.5,8 0,0.1 7.6,-17.4 10.5,-26.4 z"
   class="st7"
   id="Caminho_126" />
</g>
<path
   d="m 299.4,165.7 c 0,-3.2 -0.4,-6.3 -0.5,-9.6 0,-2.5 -1.1,-11.2 0.8,-13.2 2.9,-2.9 19.7,-0.4 24.2,-1.3 0.9,8.5 -0.2,16.2 -0.3,23.4 -7.7,1.2 -16.9,0.3 -24.5,0.7"
   class="st4"
   id="Caminho_169" />
<path
   d="m 346.8,141.3 c -3.2,0 -9.6,0.5 -9.6,0.5 l -13.4,-0.2 c 0,0 0.1,-19.8 -0.8,-24.3 7.1,-2.8 16.1,0.9 23.3,1 1.2,7.7 0.5,23 0.5,23 z"
   class="st6"
   id="Caminho_175_2_" />
<path
   d="m 348.8,240.6 c -3.2,0 -6.3,0.4 -9.6,0.5 -2.5,0 -10.6,1 -12.6,-0.9 -2.9,-2.9 -0.7,-19.1 -1.6,-23.6 7.1,-2.8 16.1,0.9 23.3,1 1.2,7.7 0.1,15.8 0.5,23.4"
   class="st5"
   id="Caminho_176" />
<path
   d="m 324.4,141.5 c 3.2,0.1 6.3,-0.3 9.6,-0.2 2.5,0.1 11.2,-0.6 12.4,0.6 2.8,2.9 0.3,19.7 1.1,24.2 -3.4,0.7 -7,-0.3 -10.7,-0.5 -4.3,-0.3 -8.7,0.1 -12.6,-0.1 -1,-7.7 0.2,-24 0.2,-24 z"
   class="st2"
   id="Caminho_177_2_" />
<g
   id="Grupo_233">
	<path
   d="m 111.3,219.8 c 0,2.8 0.4,5.7 0.4,8.5 0,2.3 0.8,9.5 -0.8,11.3 -2.5,2.6 -17.1,0.7 -21,1.4 -2.5,-6.4 0.8,-14.4 0.9,-20.9 6.9,-1.1 14.1,-0.1 20.9,-0.4"
   class="st1"
   id="Caminho_128" />
	<path
   d="m 45.4,218 c 0,2.8 0.4,5.7 0.4,8.5 0,2.3 0.9,9.5 -0.7,11.3 -2.6,2.6 -17.1,0.7 -21,1.4 -2.5,-6.4 0.8,-14.4 0.8,-20.9 6.9,-1.1 14.1,-0.1 20.9,-0.4"
   class="st3"
   id="Caminho_129" />
	<path
   d="m 68.3,259.6 c 0,2.8 0.4,5.7 0.4,8.5 0,2.3 0.9,9.5 -0.8,11.3 -2.5,2.6 -17.1,0.7 -21,1.4 -2.5,-6.4 0.8,-14.4 0.9,-20.9 6.9,-1.1 14.1,-0.1 20.9,-0.4"
   class="st6"
   id="Caminho_131" />
	<path
   d="m 66.3,196.5 c 0,2.8 0.4,5.7 0.4,8.5 0,2.3 0.9,9.5 -0.8,11.3 -2.5,2.6 -17.1,0.7 -21,1.4 -2.5,-6.4 0.8,-14.4 0.9,-20.9 6.9,-1.1 14.1,-0.1 20.9,-0.4"
   class="st4"
   id="Caminho_132" />
	<path
   d="m 88.6,261.1 c -2.8,-0.1 -5.7,0.2 -8.5,0.2 -2.3,0 -9.6,0.6 -11.2,-1.1 -2.5,-2.6 -0.2,-17.1 -0.8,-21.1 6.4,-2.4 14.4,1.2 20.8,1.4 0.8,6.9 -0.2,14.1 -0.1,20.9"
   class="st2"
   id="Caminho_135" />
</g>
<g
   id="Grupo_232">
	<path
   d="m 57,272.5 c 0.1,4.9 0.1,9.4 1.3,14.2 0.4,1.9 3.5,10.8 4.6,5.2 1,-4.7 -0.1,-10.1 -1.7,-14.6 -0.5,-1.3 -0.8,-2.9 -1.5,-4.1 -0.9,-1.5 -2.5,-1.8 -2.6,0.5"
   class="st5"
   id="Caminho_180" />
	<path
   d="m 52.6,292.6 c -2.2,4.4 -4.3,8.2 -5.7,13.1 -0.6,1.8 -2.2,11.1 1.5,6.7 3.1,-3.7 4.8,-9 5.4,-13.6 0.2,-1.4 0.7,-2.9 0.7,-4.3 0,-1.7 -1.3,-2.7 -2.5,-0.9"
   class="st5"
   id="Caminho_181" />
	<path
   d="m 35.7,309.6 c 3,-2.7 5.8,-5.1 8.1,-8.4 0.9,-1.3 4.5,-8.1 0,-5.9 -3.6,1.8 -6.2,5.5 -8,8.9 -0.5,1 -1.3,2.1 -1.5,3.2 -0.3,1.4 0.6,2.7 2.1,1.5"
   class="st5"
   id="Caminho_182" />
	<path
   d="m 81,309.6 c 4,1.2 7.6,2.4 11.8,3 1.7,0.2 9.7,0.5 5.4,-1.8 -3.5,-2 -8.2,-2.7 -12.2,-2.7 -1.2,-0.2 -2.5,-0.1 -3.8,0 -1.4,0.2 -2.2,1.3 -0.4,2"
   class="st5"
   id="Caminho_183" />
	<path
   d="m 36.2,291.7 c -3.4,2.7 -7.7,4.3 -10.9,7.4 -0.8,0.7 -5.9,5.8 -1.8,5.1 1.9,-0.3 4.3,-2.4 5.8,-3.6 1.6,-1.2 3.1,-2.5 4.4,-3.9 0.7,-0.8 1.4,-1.5 2.1,-2.3 0.4,-0.5 1.9,-2.6 0.1,-2.2"
   class="st5"
   id="Caminho_184" />
	<path
   d="m 92.7,301.9 c 1.9,-1.2 3.8,-4.6 5.3,-6.5 1.5,-1.9 3,-3.9 4.4,-5.8 1.1,-1.5 3.6,-6.1 0,-3.9 -4.1,2.6 -7.2,6.9 -9.2,11.3 -0.6,1 -1,2 -1.5,3.1 -0.7,2.3 0.6,1.5 2.2,0.6"
   class="st5"
   id="Caminho_185" />
	<path
   d="m 84.9,294.8 c -2.1,-0.4 -5.5,1.1 -7.7,1.5 -2.2,0.4 -4.4,1 -6.6,1.5 -1.7,0.4 -6.3,2.3 -2.3,2.9 4.6,0.7 9.3,-0.6 13.4,-2.7 1,-0.4 1.9,-0.9 2.9,-1.4 1.9,-1.3 0.5,-1.5 -1.2,-1.8"
   class="st5"
   id="Caminho_186" />
	<path
   d="m 67.1,295.5 c 3.6,-3.9 7.7,-7.3 10.8,-11.6 0.8,-1 1.4,-2.1 2,-3.2 0.4,-1.4 0.2,-1.5 -0.9,-1 -4.6,1.9 -9.1,8.2 -11.9,12.4 -0.7,0.8 -1.1,1.7 -1.5,2.6 -0.3,1.2 0.4,1.6 1.5,0.5"
   class="st5"
   id="Caminho_187" />
</g>
<path
   id="path869"
   d="m 347.4,191 c 0.9,4.5 -1.3,20.7 1.6,23.6 1.7,1.6 7.7,1.1 11,1 v -25 c -4.4,-0.8 -8.8,-1.2 -12.6,0.4 z"
   class="st3" />
<path
   id="path871"
   d="m 347,117.9 c 0.9,4.5 -1.3,20.7 1.6,23.6 1.7,1.7 8.2,1.1 11.4,0.9 v -24.9 c -4.5,-0.7 -9.1,0.1 -13,0.4 z"
   class="st7" />
</svg>
