<?xml version="1.0" encoding="UTF-8" standalone="no"?>
<svg
   xmlns:dc="http://purl.org/dc/elements/1.1/"
   xmlns:cc="http://creativecommons.org/ns#"
   xmlns:rdf="http://www.w3.org/1999/02/22-rdf-syntax-ns#"
   xmlns:svg="http://www.w3.org/2000/svg"
   xmlns="http://www.w3.org/2000/svg"
   xmlns:sodipodi="http://sodipodi.sourceforge.net/DTD/sodipodi-0.dtd"
   xmlns:inkscape="http://www.inkscape.org/namespaces/inkscape"
   inkscape:version="1.0 (4035a4fb49, 2020-05-01)"
   height="342.405"
   width="360"
   sodipodi:docname="fondo-verde_360x740.svg"
   xml:space="preserve"
   viewBox="0 0 360 342.405"
   y="0px"
   x="0px"
   id="Camada_1"
   version="1.1"><metadata
   id="metadata336"><rdf:RDF><cc:Work
       rdf:about=""><dc:format>image/svg+xml</dc:format><dc:type
         rdf:resource="http://purl.org/dc/dcmitype/StillImage" /><dc:title></dc:title></cc:Work></rdf:RDF></metadata><defs
   id="defs334" /><sodipodi:namedview
   inkscape:current-layer="Camada_1"
   inkscape:window-maximized="0"
   inkscape:window-y="0"
   inkscape:window-x="0"
   inkscape:cy="370"
   inkscape:cx="180"
   inkscape:zoom="1.1216216"
   showgrid="false"
   id="namedview332"
   inkscape:window-height="768"
   inkscape:window-width="1769"
   inkscape:pageshadow="2"
   inkscape:pageopacity="0"
   guidetolerance="10"
   gridtolerance="10"
   objecttolerance="10"
   borderopacity="1"
   bordercolor="#666666"
   pagecolor="#ffffff" />
<style
   id="style293"
   type="text/css">
	.st0{fill:#50A545;}
	.st1{fill:#B25AA7;}
	.st2{fill:#F1EEE9;}
	.st3{fill:#EFCC3E;}
	.st4{fill:#F49725;}
	.st5{fill:#83C8E8;}
	.st6{fill:#E94941;}
	.st7{fill:#4B8ED2;}
</style>
<path
   id="path295"
   d="m 0,0 v 340.2 c 64.8,0.9 129.8,2.3 194.7,2.2 55.2,-0.1 110.2,-5.5 165.3,-3.2 V 0 Z"
   class="st0" />
<g
   id="g320">
	<path
   d="m 45,300.1 c -2.1,-2.2 -3.9,-4.7 -5.4,-7.4 -1.1,-2.3 -3.4,-7.5 -3.4,-7.8 0,-0.3 0,-0.5 0.1,-0.8 1,-5.1 3.8,-15.8 4,-16.1 0.2,-0.3 0.5,-0.6 0.8,-0.8 4.2,-3.3 14.8,-8.8 14.8,-8.8 0.4,0 0.9,0 1.3,0.1 3.2,0.6 6.3,1.4 9.3,2.4 l 7,2.2 1.1,1.1 c 3.3,4.6 4.9,8.7 7.3,13.8 0.2,0.4 0.3,0.8 0.1,1.2 l -3.4,12.6 c -0.4,1.4 -1.3,2.9 -1.5,4.5 l -0.6,0.4 c -5.3,3 -8.9,5.3 -14.2,8.2 -1.4,-0.2 -2.7,-0.6 -4,-1.2 -1.2,-0.6 -2.5,-1 -3.8,-1.3 -3.1,-0.6 -9.5,-2.3 -9.5,-2.3 z"
   class="st1"
   id="Caminho_234" />
	<g
   id="Grupo_230">
		<path
   d="m 122.8,247.7 c -2.6,5.6 -5,10.6 -6.5,16.7 -0.6,2.3 -2.1,14.1 2.4,8.4 3.7,-4.7 5.6,-11.4 6.1,-17.4 0.2,-1.8 0.7,-3.7 0.6,-5.5 -0.2,-2.1 -1.9,-3.4 -3.2,-1"
   class="st2"
   id="Caminho_188" />
		<path
   d="m 106.1,312 c 3,-5.4 5.7,-10.3 7.6,-16.3 0.7,-2.3 3.1,-13.9 -1.6,-8.5 -3.9,4.5 -6.2,11.1 -7.3,17 -0.3,1.7 -1,3.7 -1,5.4 0,2.1 1.6,3.5 3.1,1.2"
   class="st2"
   id="Caminho_189" />
		<path
   d="m 83.3,308 c 5.1,-3.6 9.7,-6.7 14,-11.2 1.7,-1.7 9,-11.1 2.3,-8.3 -5.5,2.3 -10.5,7.2 -14,12 -1,1.4 -2.5,2.9 -3.3,4.4 -0.9,1.9 -0.1,3.8 2.2,2.4"
   class="st2"
   id="Caminho_190" />
		<path
   d="m 69.8,294.4 c 6.1,-1 11.6,-1.8 17.5,-4.1 2.3,-0.9 12.9,-6.1 5.6,-6.5 -6,-0.3 -12.6,1.9 -17.8,4.8 -1.6,0.8 -3.5,1.5 -4.9,2.6 -1.7,1.3 -1.8,3.4 1,3.1"
   class="st2"
   id="Caminho_191" />
		<path
   d="m 92.6,257.6 c 4.9,4.5 8.4,10.1 13.7,14.3 1.3,1 9.8,7.6 7.5,1.9 -1,-2.6 -4.7,-5.6 -6.8,-7.6 -2.1,-2.1 -4.4,-4 -6.8,-5.7 -1.3,-0.9 -2.5,-1.8 -3.9,-2.7 -0.8,-0.5 -4.2,-2.4 -3,0.1"
   class="st2"
   id="Caminho_192" />
		<path
   d="m 143.5,283 c -2.5,-1.2 -7.5,-0.6 -10.5,-0.9 -3,-0.3 -6.1,-0.4 -9.2,-0.5 -2.4,-0.1 -9,0.5 -4,2.7 5.6,2.5 12.2,2.6 18.3,1.6 1.4,-0.1 2.8,-0.3 4.2,-0.7 2.9,-0.9 1.2,-1.6 -1,-2.6"
   class="st2"
   id="Caminho_193" />
		<path
   d="m 92,275.9 c -2.3,-1.4 -6.9,-1.2 -9.7,-1.8 -2.8,-0.5 -5.6,-0.9 -8.4,-1.3 -2.2,-0.3 -8.4,-0.2 -4,2.4 5,3 11.2,3.6 16.9,3.1 1.3,0 2.7,-0.1 4,-0.3 2.7,-0.6 1.2,-1.5 -0.7,-2.6"
   class="st2"
   id="Caminho_194" />
		<path
   d="m 145.4,260 c -5.6,3.6 -11.6,6.5 -16.9,10.7 -1.3,0.9 -2.4,2.1 -3.4,3.3 -1,1.6 -0.7,1.8 0.9,1.6 6.2,-0.8 13.7,-7 18.5,-11.3 1,-0.8 1.9,-1.7 2.7,-2.7 0.7,-1.4 0,-2 -1.7,-1"
   class="st2"
   id="Caminho_195" />
	</g>
	<g
   id="Grupo_141">
		<path
   d="m 339.2,206.2 c -2.8,5.1 -4.8,11.3 -7,16.7 -1.8,4.3 -5,11.7 -4.5,16.1 11,-2.2 22,-6.6 32.3,-10.9 -2.5,-4 -8,-8 -11.5,-11.9 -3.1,-3.5 -6.5,-8 -9.3,-10.5"
   class="st3"
   id="Caminho_113" />
		<path
   d="m 318.1,266.7 c 1.3,-1.7 2,-4.1 2.9,-5.9 1.2,-2.5 2.2,-5.1 2.9,-7.8 0.7,-2.3 1.6,-4.7 2.2,-7.1 0.6,-2.3 1.8,-4.9 2.1,-7.2 -2.8,-0.3 -6,1.1 -9,1.2 -2.6,0 -5.2,0.7 -7.7,0.8 -4.8,0.1 -9.5,0.7 -14.1,1.7 6.5,8.6 13.8,16.9 20.4,25.1 0.1,-0.2 -0.1,-0.1 -0.2,-0.2"
   class="st4"
   id="Caminho_119" />
		<path
   d="m 342.6,285.9 c -1.9,-3.8 -7.1,-6.6 -10.2,-9.4 -2.2,-2 -4.6,-3.8 -6.9,-5.7 -2.3,-1.9 -5.3,-2.9 -7.6,-4.9 0,-0.2 0.1,-0.3 0.2,-0.4 2.5,0.2 5.6,-1.1 8.2,-1.5 2.7,-0.4 5.5,-0.9 8.3,-1.3 3,-0.5 5.8,-1.5 8.8,-2.2 2.6,-0.5 7.4,-0.2 9.2,-2.6 -1.5,4.4 -3.1,8.5 -4.7,12.8 -1.6,4.5 -5.3,15.2 -5.3,15.2 z"
   class="st5"
   id="Caminho_121" />
		<path
   d="m 342.6,286.2 c -2.4,-3 -8,-8.6 -11.4,-10.8 -4.2,-2.8 -9.5,-6.2 -13.4,-9.2 -0.7,6.4 -2.1,10.6 -4.1,16.8 -1.8,5.6 -3.1,9.2 -4,14.8 0,0 31.5,-9.3 32.9,-11.6 z"
   class="st6"
   id="Caminho_124" />
		<path
   d="m 317.8,266.2 c 2.9,-0.9 5.8,-1 8.7,-1.7 3.4,-0.7 2.5,-0.5 5.9,-1.3 3.8,-0.8 6.8,-2.2 10.6,-2.6 2.5,-0.3 7.4,-0.7 9.8,-1.4 -6.2,-3.7 -8.2,-6.8 -13.8,-11.8 -3.4,-2.9 -6.9,-5.6 -10.6,-8.1 0.1,0 -7.6,17.8 -10.6,26.9 z"
   class="st7"
   id="Caminho_126" />
	</g>
	<g
   id="Grupo_231">
		<path
   d="m 289.2,93.8 c 0,-4 0.6,-8 0.6,-12.1 0,-3.2 1.3,-13.4 -1.1,-15.8 -3.6,-3.7 -24,-0.9 -29.6,-2 -3.5,9 1.2,20.2 1.3,29.3 9.7,1.5 19.8,0.1 29.4,0.6"
   class="st1"
   id="Caminho_167" />
		<path
   d="m 46.9,118.3 c 0,-4 0.6,-8 0.6,-12.1 0,-3.2 1.3,-13.4 -1.1,-15.8 -3.6,-3.7 -24,-0.9 -29.6,-2 -3.5,9 1.2,20.2 1.3,29.3 9.7,1.5 19.9,0.1 29.4,0.6"
   class="st4"
   id="Caminho_169" />
		<path
   d="m 317.3,67.2 c 0,-4 0.6,-8 0.6,-12.1 0,-3.2 1.3,-13.4 -1.1,-15.8 -3.6,-3.7 -24,-0.9 -29.6,-2 -3.5,9 1.2,20.2 1.3,29.3 9.7,1.5 19.9,0.1 29.4,0.6"
   class="st3"
   id="Caminho_173" />
		<path
   d="m 0,87.7 c 3.2,0 12.9,1.9 15.3,-0.5 3.7,-3.6 0.9,-24 2,-29.6 C 12,55.5 5.9,56.3 0,57.3 v 30.2"
   class="st6"
   id="Caminho_175_2_" />
		<path
   d="m 17,212.5 c 0,0 7.6,0.6 11.6,0.6 3.2,0 13.4,1.3 15.8,-1.1 3.7,-3.6 0.9,-24 2,-29.6 -9,-3.5 -29.3,1.3 -29.3,1.3 z"
   class="st5"
   id="Caminho_176_2_" />
		<path
   d="M 15.4,87.9 C 11.4,88 7.4,87.6 3.3,87.6 2.4,87.6 0,87.5 0,87.5 v 31.7 c 0,0 10.8,-2.4 15.6,-2.6 1.2,-9.7 -0.4,-19.8 -0.2,-29.4"
   class="st2"
   id="Caminho_177" />
	</g>
</g>
<g
   id="Grupo_232">
	<path
   d="m 324.8,126.8 c 2.1,-5.8 4.1,-11 5.1,-17.2 0.4,-2.4 0.9,-14.3 -3.1,-8.1 -3.3,5 -4.6,11.9 -4.6,17.9 0,1.8 -0.4,3.8 -0.1,5.5 0.4,2.1 2.2,3.2 3.3,0.7"
   class="st2"
   id="Caminho_180" />
	<path
   d="m 339.3,105.3 c 4.6,-4.1 8.9,-7.7 12.7,-12.7 1.5,-1.9 7.7,-12 1.3,-8.5 -5.2,2.9 -9.7,8.2 -12.6,13.5 -0.9,1.5 -2.2,3.1 -2.7,4.8 -0.7,2 0.3,3.8 2.5,2.1"
   class="st2"
   id="Caminho_181" />
	<path
   d="m 360,96 c -2.2,0.9 -4.3,2 -6.4,3.4 -1.6,1.1 -8.9,7.5 -2.7,6.9 3.2,-0.3 6.3,-1.7 9.1,-3.5 z"
   class="st2"
   id="Caminho_182_1_" />
	<path
   d="m 313.7,72.4 c -4.1,-3.3 -7.8,-6.3 -12.5,-8.9 -1.8,-1 -11.1,-5.1 -7.2,-0.3 3.2,3.9 8.3,6.9 13.1,8.8 1.4,0.7 2.9,1.3 4.4,1.8 1.8,0.4 3.1,-0.5 1.4,-2.1"
   class="st2"
   id="Caminho_183" />
	<path
   d="m 360,110.7 c -0.1,0.1 -0.2,0.1 -0.3,0.2 -0.7,0.4 -3.5,2.2 -1.1,2.5 0,0 0.7,0.1 1.4,0 z"
   class="st2"
   id="Caminho_184_2_" />
	<path
   d="m 296.5,76 c -2.7,0.5 -6.5,3.7 -9.2,5.2 -2.7,1.4 -5.2,3.1 -7.8,4.8 -2,1.3 -7.1,5.5 -1.7,4.5 6,-1.1 11.5,-4.8 15.9,-9.1 1.1,-0.9 2.1,-1.9 3.1,-2.9 1.9,-2.4 0,-2 -2.3,-1.6"
   class="st2"
   id="Caminho_185" />
	<path
   d="m 302.4,88 c 2.3,1.4 6.9,1.2 9.7,1.8 2.8,0.5 5.6,0.9 8.5,1.2 2.2,0.3 8.4,0.2 4,-2.4 -5,-2.9 -11.2,-3.6 -16.9,-3 -1.3,0 -2.7,0.1 -4,0.3 -2.7,0.6 -1.2,1.5 0.7,2.6"
   class="st2"
   id="Caminho_186" />
	<path
   d="m 323.6,95.3 c -6,2.9 -12.3,5.1 -18,8.6 -1.4,0.8 -2.7,1.7 -3.8,2.9 -1.2,1.5 -0.9,1.7 0.7,1.7 6.3,-0.1 14.5,-5.4 19.7,-9.1 1.1,-0.7 2.1,-1.5 3,-2.4 0.9,-1.3 0.2,-2 -1.5,-1.2"
   class="st2"
   id="Caminho_187" />
</g>
</svg>
