<?xml version="1.0" encoding="UTF-8" standalone="no"?>
<svg
   xmlns:dc="http://purl.org/dc/elements/1.1/"
   xmlns:cc="http://creativecommons.org/ns#"
   xmlns:rdf="http://www.w3.org/1999/02/22-rdf-syntax-ns#"
   xmlns:svg="http://www.w3.org/2000/svg"
   xmlns="http://www.w3.org/2000/svg"
   xmlns:sodipodi="http://sodipodi.sourceforge.net/DTD/sodipodi-0.dtd"
   xmlns:inkscape="http://www.inkscape.org/namespaces/inkscape"
   inkscape:version="1.0 (4035a4fb49, 2020-05-01)"
   height="310"
   width="1280"
   sodipodi:docname="fondo-celeste.svg"
   xml:space="preserve"
   viewBox="0 0 1280 310.00001"
   y="0px"
   x="0px"
   id="Camada_1"
   version="1.1"><metadata
   id="metadata248"><rdf:RDF><cc:Work
       rdf:about=""><dc:format>image/svg+xml</dc:format><dc:type
         rdf:resource="http://purl.org/dc/dcmitype/StillImage" /><dc:title></dc:title></cc:Work></rdf:RDF></metadata><defs
   id="defs246" /><sodipodi:namedview
   inkscape:current-layer="Camada_1"
   inkscape:window-maximized="0"
   inkscape:window-y="175"
   inkscape:window-x="170"
   inkscape:cy="249.39999"
   inkscape:cx="698.75"
   inkscape:zoom="0.86440072"
   showgrid="false"
   id="namedview244"
   inkscape:window-height="721"
   inkscape:window-width="1633"
   inkscape:pageshadow="2"
   inkscape:pageopacity="0"
   guidetolerance="10"
   gridtolerance="10"
   objecttolerance="10"
   borderopacity="1"
   bordercolor="#666666"
   pagecolor="#ffffff" />
<style
   id="style240"
   type="text/css">
	.st0{fill:#83C8E8;}
</style>
<path
   style="stroke-width:0.754806"
   d="M 1280,308.83887 V 0 H 0 c 0,0 0,301.68551 0,308.90108 20.883005,-0.62204 29.217889,0.37322 37.552773,0.1244 8.334884,-0.24881 26.286941,0 39.384615,0 30.408582,0 61.183542,0.80864 91.592132,0 70.70912,-1.9283 144.53238,-0.0622 215.51628,0 91.77531,0.0622 179.33738,-4.72744 270.65474,-4.78964 100.56815,-0.0622 200.58676,5.72269 301.15492,5.72269 41.94919,0 95.89694,0.37322 137.20504,-1.11966 44.1474,-1.61728 80.5094,0.80865 103.2243,0 22.7148,-0.80864 83.7152,0 83.7152,0 z"
   class="st0"
   id="Caminho_213" />
</svg>
