<?xml version="1.0" encoding="UTF-8" standalone="no"?>
<svg
   xmlns:dc="http://purl.org/dc/elements/1.1/"
   xmlns:cc="http://creativecommons.org/ns#"
   xmlns:rdf="http://www.w3.org/1999/02/22-rdf-syntax-ns#"
   xmlns:svg="http://www.w3.org/2000/svg"
   xmlns="http://www.w3.org/2000/svg"
   xmlns:sodipodi="http://sodipodi.sourceforge.net/DTD/sodipodi-0.dtd"
   xmlns:inkscape="http://www.inkscape.org/namespaces/inkscape"
   inkscape:version="1.0 (4035a4fb49, 2020-05-01)"
   height="453.29999"
   width="1280"
   sodipodi:docname="fondo-verde_1280x800.svg"
   xml:space="preserve"
   viewBox="0 0 1280 453.29999"
   y="0px"
   x="0px"
   id="Camada_1"
   version="1.1"><metadata
   id="metadata67"><rdf:RDF><cc:Work
       rdf:about=""><dc:format>image/svg+xml</dc:format><dc:type
         rdf:resource="http://purl.org/dc/dcmitype/StillImage" /><dc:title></dc:title></cc:Work></rdf:RDF></metadata><defs
   id="defs65" /><sodipodi:namedview
   inkscape:current-layer="Camada_1"
   inkscape:window-maximized="0"
   inkscape:window-y="0"
   inkscape:window-x="0"
   inkscape:cy="527.15232"
   inkscape:cx="381.45695"
   inkscape:zoom="0.94375"
   showgrid="false"
   id="namedview63"
   inkscape:window-height="812"
   inkscape:window-width="1842"
   inkscape:pageshadow="2"
   inkscape:pageopacity="0"
   guidetolerance="10"
   gridtolerance="10"
   objecttolerance="10"
   borderopacity="1"
   bordercolor="#666666"
   pagecolor="#ffffff" />
<style
   id="style2"
   type="text/css">
	.st0{fill:#50A545;}
	.st1{fill:#F49725;}
	.st2{fill:#B25AA7;}
	.st3{fill:#F1EEE9;}
	.st4{fill:#EFCC3E;}
	.st5{fill:#83C8E8;}
	.st6{fill:#E94941;}
	.st7{fill:#4B8ED2;}
</style>
<path
   d="M 1280,449.6 V -0.1 H 0 v 453.2 c 0,0 9.4,-0.3 42.8,-1.4 39.8,-0.5 82.3,3.2 125.8,3.2 70.7,-2.8 140.6,-10 211.5,-9.9 91.8,0.1 183.3,2.9 274.7,2.8 100.6,-0.1 200.6,8.4 301.2,8.4 41.9,0 82.6,-4.9 124,-7.1 44.1,-2.4 74.7,8 116.5,5.4 41.5,-2.4 83.5,-4.9 83.5,-4.9 z"
   class="st0"
   id="Caminho_214" />
<g
   id="g60">
	<path
   d="m 123.3,185.9 c -2.9,-1 -5.7,-2.3 -8.2,-3.9 -2.1,-1.4 -6.6,-4.9 -6.8,-5.2 -0.1,-0.2 -0.2,-0.5 -0.3,-0.7 -1.6,-4.9 -4.4,-15.7 -4.4,-16 0,-0.4 0.2,-0.7 0.3,-1.1 2.1,-4.9 8.7,-14.8 8.7,-14.8 0.4,-0.2 0.8,-0.4 1.2,-0.6 3,-1 6.1,-1.8 9.3,-2.4 l 7.2,-1.5 1.5,0.4 c 5.1,2.5 8.5,5.2 13.1,8.5 0.4,0.2 0.6,0.6 0.7,1.1 l 3.2,12.7 c 0.3,1.4 0.2,3.2 0.9,4.6 l -0.3,0.7 c -3.2,5.2 -5.3,8.9 -8.4,14.1 -1.3,0.5 -2.7,0.8 -4.1,0.9 -1.4,0.1 -2.7,0.3 -4,0.7 -3.1,0.9 -9.6,2.5 -9.6,2.5 z"
   class="st1"
   id="Caminho_232" />
	<path
   d="m 485,383 c -2.1,-2.2 -3.9,-4.7 -5.4,-7.4 -1.1,-2.3 -3.4,-7.5 -3.4,-7.8 0,-0.3 0,-0.5 0.1,-0.8 1,-5.1 3.8,-15.8 4,-16.1 0.2,-0.3 0.5,-0.6 0.8,-0.8 4.2,-3.3 14.8,-8.8 14.8,-8.8 0.4,0 0.9,0 1.3,0.1 3.2,0.6 6.3,1.4 9.3,2.4 l 7,2.2 1.1,1.1 c 3.3,4.6 4.9,8.7 7.3,13.8 0.2,0.4 0.3,0.8 0.1,1.2 l -3.4,12.6 c -0.4,1.4 -1.3,2.9 -1.5,4.5 l -0.6,0.4 c -5.3,3 -8.9,5.3 -14.2,8.2 -1.4,-0.2 -2.7,-0.6 -4,-1.2 -1.2,-0.6 -2.5,-1 -3.8,-1.3 -3.1,-0.6 -9.5,-2.3 -9.5,-2.3 z"
   class="st2"
   id="Caminho_234" />
	<g
   id="Grupo_230">
		<path
   d="m 251.9,308 c -2.6,5.6 -5,10.6 -6.5,16.7 -0.6,2.3 -2.1,14.1 2.4,8.4 3.7,-4.7 5.6,-11.4 6.1,-17.4 0.2,-1.8 0.7,-3.7 0.6,-5.5 -0.2,-2.1 -1.9,-3.4 -3.2,-1"
   class="st3"
   id="Caminho_188" />
		<path
   d="m 235.1,372.4 c 3,-5.4 5.7,-10.3 7.6,-16.3 0.7,-2.3 3.1,-13.9 -1.6,-8.5 -3.9,4.5 -6.2,11.1 -7.3,17 -0.3,1.7 -1,3.7 -1,5.4 0,2.1 1.6,3.5 3.1,1.2"
   class="st3"
   id="Caminho_189" />
		<path
   d="m 212.3,368.3 c 5.1,-3.6 9.7,-6.7 14,-11.2 1.7,-1.7 9,-11.1 2.3,-8.3 -5.5,2.3 -10.5,7.2 -14,12 -1,1.4 -2.5,2.9 -3.3,4.4 -0.9,1.9 -0.1,3.8 2.2,2.4"
   class="st3"
   id="Caminho_190" />
		<path
   d="m 198.9,354.7 c 6.1,-1 11.6,-1.8 17.5,-4.1 2.3,-0.9 12.9,-6.1 5.6,-6.5 -6,-0.3 -12.6,1.9 -17.8,4.8 -1.6,0.8 -3.5,1.5 -4.9,2.6 -1.7,1.3 -1.8,3.4 1,3.1"
   class="st3"
   id="Caminho_191" />
		<path
   d="m 221.7,317.9 c 4.9,4.5 8.4,10.1 13.7,14.3 1.3,1 9.8,7.6 7.5,1.9 -1,-2.6 -4.7,-5.6 -6.8,-7.6 -2.1,-2.1 -4.4,-4 -6.8,-5.7 -1.3,-0.9 -2.5,-1.8 -3.9,-2.7 -0.8,-0.5 -4.2,-2.4 -3,0.1"
   class="st3"
   id="Caminho_192" />
		<path
   d="m 272.6,343.3 c -2.5,-1.2 -7.5,-0.6 -10.5,-0.9 -3,-0.3 -6.1,-0.4 -9.2,-0.5 -2.4,-0.1 -9,0.5 -4,2.7 5.6,2.5 12.2,2.6 18.3,1.6 1.4,-0.1 2.8,-0.3 4.2,-0.7 2.9,-0.9 1.2,-1.6 -1,-2.6"
   class="st3"
   id="Caminho_193" />
		<path
   d="m 221,336.2 c -2.3,-1.4 -6.9,-1.2 -9.7,-1.8 -2.8,-0.5 -5.6,-0.9 -8.4,-1.3 -2.2,-0.3 -8.4,-0.2 -4,2.4 5,3 11.2,3.6 16.9,3.1 1.3,0 2.7,-0.1 4,-0.3 2.7,-0.6 1.2,-1.5 -0.7,-2.6"
   class="st3"
   id="Caminho_194" />
		<path
   d="m 274.5,320.4 c -5.6,3.6 -11.6,6.5 -16.9,10.7 -1.3,0.9 -2.4,2.1 -3.4,3.3 -1,1.6 -0.7,1.8 0.9,1.6 6.2,-0.8 13.7,-7 18.5,-11.3 1,-0.8 1.9,-1.7 2.7,-2.7 0.7,-1.4 0,-2 -1.7,-1"
   class="st3"
   id="Caminho_195" />
	</g>
	<path
   d="m 963,146.7 c 1.1,-5.2 2.1,-10.5 4.4,-15.3 1.9,-3.9 6.6,-12.6 7,-13 0.3,-0.3 0.7,-0.5 1.1,-0.7 8,-4 25.6,-11.8 26.3,-11.8 0.7,0 1.3,0.1 1.9,0.3 8.9,2.2 27.8,10.8 27.8,10.8 0.5,0.6 0.9,1.2 1.3,1.9 2.6,4.9 4.8,10 6.6,15.3 l 4.5,12 -0.3,2.7 c -2.8,9.4 -6.7,16 -11,24.8 -0.3,0.7 -0.9,1.2 -1.6,1.4 l -20.9,8.9 c -2.2,0.9 -5.5,1.3 -7.7,2.8 l -1.2,-0.3 c -9.7,-4 -16.7,-6.6 -26.5,-10.6 0,0 -2.3,-4.4 -2.7,-6.7 -0.5,-2.3 -1.2,-4.5 -2.3,-6.6 -2.2,-5.3 -6.7,-15.9 -6.7,-15.9 z"
   class="st4"
   id="Caminho_233" />
	<g
   id="Grupo_141">
		<path
   d="m 1051,248.1 c -3.5,6.3 -5.9,14 -8.7,20.8 -2.2,5.4 -6.2,14.5 -5.6,20.1 13.6,-2.7 27.4,-8.2 40.1,-13.5 -3.2,-4.9 -10,-10 -14.3,-14.8 -3.9,-4.4 -8.1,-9.9 -11.6,-13.1"
   class="st4"
   id="Caminho_113" />
		<path
   d="m 1133.2,227.9 c -4.1,5.9 -4.1,12.2 -7.5,18.7 -2.7,5.2 -7.7,13.8 -7.6,19.4 13.8,-1.4 25.2,-5 38.3,-8.9 -3,-5.7 -7,-10.8 -11.7,-15.1 -4.6,-4.4 -11.5,-14.1 -11.5,-14.1 z"
   class="st4"
   id="Caminho_114" />
		<path
   d="m 1127.9,326.5 c 6.2,-0.4 10.1,-3.4 16.4,-4.5 5,-0.9 14.7,-1.5 20.2,-3.9 -8.3,-8.7 -18.7,-16.3 -28.4,-23.2 -2.2,4.6 -2.7,11.9 -4.3,17.3 -1.4,4.9 -3.5,10.5 -4.2,14.5"
   class="st3"
   id="Caminho_116" />
		<path
   d="m 1128.5,326.8 c 1.1,2.2 3.2,4.2 4.6,6.2 2,2.6 4.2,5 6.6,7.2 2.1,2 4.1,4.1 6.2,6 2.1,1.9 4.1,4.5 6.4,6 1.8,-2.8 2,-6.9 3.6,-9.9 1.4,-2.7 2,-5.7 3.3,-8.5 2.4,-5 4.3,-10.2 5.7,-15.6 -12.4,2.2 -24.9,5.3 -37,7.9 0.1,0.2 0.2,0 0.3,-0.1"
   class="st2"
   id="Caminho_117" />
		<path
   d="m 1135.6,296.4 c 2.7,0.7 6.2,0.3 9,0.6 3.8,0.2 7.6,0 11.4,-0.5 3.4,-0.3 6.8,-0.5 10.1,-1 3.3,-0.5 7.1,-0.3 10.2,-1.2 -1.2,-3.7 -4.6,-7 -6.2,-10.7 -1.4,-3.3 -3.6,-6.2 -5.1,-9.4 -2.7,-5.7 -5.8,-11.9 -9.7,-17 -7.4,12.8 -14.1,26.4 -21,39.3 0.3,0.1 0.1,-0.1 0.1,-0.4"
   class="st1"
   id="Caminho_118" />
		<path
   d="m 1024.8,323.3 c 1.6,-2.1 2.5,-5 3.7,-7.3 1.5,-3.1 2.7,-6.4 3.6,-9.7 0.9,-2.9 2,-5.9 2.7,-8.8 0.8,-2.9 2.3,-6.1 2.6,-8.9 -3.5,-0.3 -7.5,1.4 -11.1,1.4 -3.2,0 -6.4,0.8 -9.6,1 -5.9,0.1 -11.8,0.8 -17.5,2.2 8.1,10.7 17.1,21 25.4,31.3 0.2,-0.2 -0.1,-0.2 -0.3,-0.3"
   class="st1"
   id="Caminho_119" />
		<path
   d="m 1077.5,276.5 c 4,3.8 7.2,11 10.3,16.2 3,5 5.8,9.9 8.9,14.9 1.8,-2.5 3.4,-8.1 5,-11.2 1.8,-3.4 3.1,-7.1 5.1,-10.4 1.8,-3.1 3.7,-6.2 5.5,-9.3 1.7,-2.9 3,-7 5.2,-9.3 0,-0.2 -0.1,-0.4 -0.3,-0.5 -3.9,0.7 -7.2,2.9 -11.1,3.7 -3.8,0.7 -7.6,1.6 -11.3,2.2 -5.4,0.9 -12.4,3.7 -17.7,2.6"
   class="st5"
   id="Caminho_120" />
		<path
   d="m 1055.2,347.2 c -2.4,-4.7 -8.8,-8.2 -12.7,-11.7 -2.7,-2.4 -5.7,-4.7 -8.5,-7.1 -2.8,-2.4 -6.6,-3.6 -9.5,-6 0,-0.2 0.1,-0.4 0.2,-0.5 3.1,0.2 7,-1.4 10.2,-1.9 3.4,-0.5 6.9,-1.1 10.3,-1.7 3.8,-0.6 7.3,-1.9 11,-2.7 3.3,-0.7 9.2,-0.2 11.4,-3.2 -1.8,5.4 -3.9,10.6 -5.8,15.9 -1.9,5.7 -6.5,18.9 -6.6,18.9 z"
   class="st5"
   id="Caminho_121" />
		<path
   d="m 1096.9,307.6 c 3.6,-6.2 5.1,-14.8 8.6,-21.2 3.8,-6.9 8.9,-13.2 12.6,-20.3 3.2,5.3 7.9,11.6 11.4,16.7 2.8,4.1 4.9,8.7 7.5,13 -2.7,2.1 -8.9,2.7 -12.3,3.5 -4.2,0.9 -8.5,1.8 -12.6,3.1 -5.1,1.5 -15.2,5.2 -15.2,5.2 z"
   class="st6"
   id="Caminho_122" />
		<path
   d="m 1055.3,347.6 c -3,-3.8 -10,-10.7 -14.1,-13.4 -5.2,-3.5 -11.8,-7.6 -16.7,-11.4 -0.9,7.9 -2.7,13.1 -5.1,20.8 -2.2,6.9 -3.9,11.4 -5,18.4 0,0 39.1,-11.5 40.9,-14.4 z"
   class="st6"
   id="Caminho_124" />
		<path
   d="m 1024.5,322.7 c 3.6,-1.2 7.2,-1.3 10.9,-2.1 4.2,-0.9 3.2,-0.6 7.3,-1.6 4.7,-1 8.4,-2.7 13.2,-3.3 3.1,-0.3 9.2,-0.9 12.2,-1.8 -7.7,-4.6 -10.2,-8.5 -17.2,-14.7 -4.2,-3.6 -8.6,-7 -13.2,-10.1 0,0.1 -9.5,22.2 -13.2,33.6 z"
   class="st7"
   id="Caminho_126" />
	</g>
	<g
   id="Grupo_231">
		<path
   d="m 318.3,190.1 c 0,-4 0.6,-8 0.6,-12.1 0,-3.2 1.3,-13.4 -1.1,-15.8 -3.6,-3.7 -24,-0.9 -29.6,-2 -3.5,9 1.2,20.2 1.3,29.3 9.7,1.5 19.8,0.1 29.4,0.6"
   class="st3"
   id="Caminho_167" />
		<path
   d="m 376.2,191.4 c 0,-4 0.6,-8 0.6,-12.1 0,-3.2 1.3,-13.4 -1.1,-15.8 -3.6,-3.7 -24,-0.9 -29.6,-2 -3.5,9 1.2,20.2 1.3,29.3 9.7,1.5 19.8,0.1 29.4,0.6"
   class="st4"
   id="Caminho_168" />
		<path
   d="m 465.8,161.2 c 0,-4 0.6,-8 0.6,-12.1 0,-3.2 1.3,-13.4 -1.1,-15.8 -3.6,-3.7 -24,-0.9 -29.6,-2 -3.5,9 1.2,20.2 1.3,29.3 9.7,1.5 19.9,0.1 29.4,0.6"
   class="st1"
   id="Caminho_169" />
		<path
   d="m 376.2,161.2 c 0,-4 0.6,-8 0.6,-12.1 0,-3.2 1.3,-13.4 -1.1,-15.8 -3.6,-3.7 -24,-0.9 -29.6,-2 -3.5,9 1.2,20.2 1.3,29.3 9.7,1.5 19.8,0.1 29.4,0.6"
   class="st2"
   id="Caminho_170" />
		<path
   d="m 375.5,223.3 c 4,0 8,0.6 12.1,0.6 3.2,0 13.4,1.3 15.8,-1.1 3.7,-3.6 0.9,-24 2,-29.6 -9,-3.5 -20.2,1.2 -29.3,1.3 -1.5,9.7 -0.1,19.9 -0.6,29.4"
   class="st1"
   id="Caminho_172" />
		<path
   d="m 345.2,98.1 c 0,-4 0.6,-8 0.6,-12.1 0,-3.2 1.3,-13.4 -1.1,-15.8 -3.6,-3.7 -24,-0.9 -29.6,-2 -3.5,9 1.2,20.2 1.3,29.3 9.7,1.5 19.9,0.1 29.4,0.6"
   class="st4"
   id="Caminho_173" />
		<path
   d="m 376,131.3 c 4,0 8,0.6 12.1,0.6 3.2,0 13.4,1.3 15.8,-1.1 3.7,-3.6 0.9,-24 2,-29.6 -9,-3.5 -20.2,1.2 -29.3,1.3 -1.5,9.7 -0.1,19.9 -0.6,29.4"
   class="st7"
   id="Caminho_174" />
		<path
   d="m 406.2,130.6 c 4,0 8,0.6 12.1,0.6 3.2,0 13.4,1.3 15.8,-1.1 3.7,-3.6 0.9,-24 2,-29.6 -9,-3.5 -20.2,1.2 -29.3,1.3 -1.5,9.7 -0.1,19.8 -0.6,29.4"
   class="st6"
   id="Caminho_175" />
		<path
   d="m 403.7,255.4 c 4,0 8,0.6 12.1,0.6 3.2,0 13.4,1.3 15.8,-1.1 3.7,-3.6 0.9,-24 2,-29.6 -9,-3.5 -20.2,1.2 -29.3,1.3 -1.5,9.7 -0.1,19.9 -0.6,29.4"
   class="st5"
   id="Caminho_176" />
		<path
   d="m 434.3,130.8 c -4,0.1 -8,-0.3 -12.1,-0.3 -3.2,0.1 -13.4,-0.9 -15.8,1.5 -3.6,3.7 -0.3,24.1 -1.2,29.7 9,3.3 20.2,-1.7 29.3,-2.1 1.2,-9.7 -0.4,-19.8 -0.2,-29.4"
   class="st3"
   id="Caminho_177" />
		<path
   d="m 346.6,160.8 c 0,-9.4 2.5,-20.3 1,-29.5 -10.5,-0.5 -21.4,-1.1 -31.9,-0.8 3,3.5 2.7,12.4 3.2,16.9 0.2,2.3 -1.1,10.5 0.4,12.2 1.6,1.8 12,0.8 15,0.8 2,0 4,0.6 5.9,0.7 2.1,0 4,-0.9 6.1,-0.7"
   class="st7"
   id="Caminho_178" />
	</g>
	<g
   id="Grupo_232">
		<path
   d="m 925.3,169.1 c 2.1,-5.8 4.1,-11 5.1,-17.2 0.4,-2.4 0.9,-14.3 -3.1,-8.1 -3.3,5 -4.6,11.9 -4.6,17.9 0,1.8 -0.4,3.8 -0.1,5.5 0.4,2.1 2.2,3.2 3.3,0.7"
   class="st3"
   id="Caminho_180" />
		<path
   d="m 939.8,147.5 c 4.6,-4.1 8.9,-7.7 12.7,-12.7 1.5,-1.9 7.7,-12 1.3,-8.5 -5.2,2.9 -9.7,8.2 -12.6,13.5 -0.9,1.5 -2.2,3.1 -2.7,4.8 -0.7,2 0.3,3.8 2.5,2.1"
   class="st3"
   id="Caminho_181" />
		<path
   d="m 967.3,135.5 c -4.8,1.8 -9.1,3.3 -13.3,6.1 -1.6,1.1 -8.9,7.5 -2.7,6.9 5,-0.5 9.8,-3.5 13.4,-6.8 1,-1 2.5,-1.8 3.3,-3.1 1,-1.5 0.5,-3.4 -1.7,-2.8"
   class="st3"
   id="Caminho_182" />
		<path
   d="m 914.2,114.6 c -4.1,-3.3 -7.8,-6.3 -12.5,-8.9 -1.8,-1 -11.1,-5.1 -7.2,-0.3 3.2,3.9 8.3,6.9 13.1,8.8 1.4,0.7 2.9,1.3 4.4,1.8 1.8,0.4 3.1,-0.5 1.4,-2.1"
   class="st3"
   id="Caminho_183" />
		<path
   d="m 958.4,156.1 c 5.3,-1.6 10.9,-1.5 16.1,-3.6 1.3,-0.5 9.5,-4 4.4,-5.2 -2.4,-0.5 -6.1,0.9 -8.4,1.5 -2.4,0.6 -4.7,1.5 -6.9,2.5 -1.2,0.6 -2.4,1.1 -3.5,1.8 -0.7,0.4 -3.5,2.2 -1.1,2.5"
   class="st3"
   id="Caminho_184" />
		<path
   d="m 896.9,118.2 c -2.7,0.5 -6.5,3.7 -9.2,5.2 -2.7,1.4 -5.2,3.1 -7.8,4.8 -2,1.3 -7.1,5.5 -1.7,4.5 6,-1.1 11.5,-4.8 15.9,-9.1 1.1,-0.9 2.1,-1.9 3.1,-2.9 1.9,-2.4 0,-2 -2.3,-1.6"
   class="st3"
   id="Caminho_185" />
		<path
   d="m 902.9,130.2 c 2.3,1.4 6.9,1.2 9.7,1.8 2.8,0.6 5.6,0.9 8.5,1.2 2.2,0.3 8.4,0.2 4,-2.4 -5,-2.9 -11.2,-3.6 -16.9,-3 -1.3,0 -2.7,0.1 -4,0.3 -2.7,0.6 -1.2,1.5 0.7,2.6"
   class="st3"
   id="Caminho_186" />
		<path
   d="m 924,137.5 c -6,2.9 -12.3,5.1 -18,8.6 -1.4,0.8 -2.7,1.7 -3.8,2.9 -1.2,1.5 -0.9,1.7 0.7,1.7 6.3,-0.1 14.5,-5.4 19.7,-9.1 1.1,-0.7 2.1,-1.5 3,-2.4 0.9,-1.3 0.2,-2 -1.5,-1.2"
   class="st3"
   id="Caminho_187" />
	</g>
	<g
   id="Grupo_233">
		<path
   d="m 731.4,300.2 c 0,3 -0.4,6 -0.4,9.1 0,2.4 -1,10.1 0.8,11.9 2.7,2.7 18.1,0.7 22.3,1.5 2.7,-6.8 -0.9,-15.2 -0.9,-22.1 -7.3,-1.1 -15,-0.1 -22.2,-0.4"
   class="st2"
   id="Caminho_128" />
		<path
   d="m 801.1,298.3 c 0,3 -0.4,6 -0.4,9.1 0,2.4 -1,10.1 0.8,11.9 2.7,2.7 18.1,0.7 22.3,1.5 2.7,-6.8 -0.9,-15.2 -1,-22.1 -7.3,-1.1 -15,-0.1 -22.2,-0.4"
   class="st4"
   id="Caminho_129" />
		<path
   d="m 776.9,342.4 c 0,3 -0.4,6 -0.4,9.1 0,2.4 -1,10.1 0.8,11.9 2.7,2.7 18.1,0.7 22.3,1.5 2.7,-6.8 -0.9,-15.2 -1,-22.1 -7.3,-1.1 -15,-0.1 -22.2,-0.4"
   class="st5"
   id="Caminho_131" />
		<path
   d="m 778.9,275.5 c 0,3 -0.4,6 -0.4,9.1 0,2.4 -1,10.1 0.8,11.9 2.7,2.7 18.1,0.7 22.3,1.5 2.7,-6.8 -0.9,-15.2 -0.9,-22.1 -7.3,-1.1 -15,-0.1 -22.2,-0.4"
   class="st1"
   id="Caminho_132" />
		<path
   d="m 755.4,344 c 3,-0.1 6,0.3 9.1,0.2 2.4,-0.1 10.1,0.7 11.9,-1.1 2.7,-2.7 0.2,-18.1 0.9,-22.3 -6.8,-2.5 -15.2,1.3 -22.1,1.6 -0.9,7.3 0.3,15 0.2,22.2"
   class="st3"
   id="Caminho_135" />
	</g>
	<g
   id="Grupo_234">
		<path
   d="m 749.1,79 c -5.2,4.3 -10.1,10.1 -14.9,15.1 -3.8,3.9 -10.5,10.5 -11.9,15.6 12.8,2.4 26.8,2.4 39.7,2.3 -1,-5.4 -5.2,-12.2 -7.3,-17.9 -1.8,-5.2 -3.6,-11.5 -5.5,-15.5"
   class="st4"
   id="Caminho_136" />
		<path
   d="m 699.9,135.4 c 2.1,-1.3 3.9,-3.5 5.8,-5.1 2.4,-2.2 4.6,-4.6 6.5,-7.2 1.8,-2.2 3.8,-4.4 5.4,-6.7 1.7,-2.3 4.1,-4.5 5.4,-6.9 -3,-1.5 -7,-1.4 -10.2,-2.7 -2.8,-1.1 -5.9,-1.5 -8.7,-2.5 -5.2,-2 -10.6,-3.4 -16.1,-4.3 3.3,12.2 7.6,24.3 11.2,36.2 0.2,-0.1 0,-0.2 -0.1,-0.3"
   class="st1"
   id="Caminho_137" />
		<path
   d="m 699.8,134.7 c 3.5,0.2 6.8,1.4 10.2,2 4,0.7 3,0.6 7,1.2 4.5,0.7 8.3,0.5 12.7,1.8 2.8,0.8 8.4,2.4 11.3,2.7 -5.1,-6.8 -5.9,-11 -9.8,-18.8 -2.4,-4.6 -5.1,-9.1 -8,-13.4 -0.2,0.1 -16.2,16 -23.4,24.5 z"
   class="st3"
   id="Caminho_138" />
	</g>
</g>
</svg>
