<?xml version="1.0" encoding="UTF-8" standalone="no"?>
<svg
   xmlns:dc="http://purl.org/dc/elements/1.1/"
   xmlns:cc="http://creativecommons.org/ns#"
   xmlns:rdf="http://www.w3.org/1999/02/22-rdf-syntax-ns#"
   xmlns:svg="http://www.w3.org/2000/svg"
   xmlns="http://www.w3.org/2000/svg"
   xmlns:sodipodi="http://sodipodi.sourceforge.net/DTD/sodipodi-0.dtd"
   xmlns:inkscape="http://www.inkscape.org/namespaces/inkscape"
   inkscape:version="1.0 (4035a4fb49, 2020-05-01)"
   height="456.452"
   width="1280"
   sodipodi:docname="fondo-celeste_1280x800.svg"
   xml:space="preserve"
   viewBox="0 0 1280 456.452"
   y="0px"
   x="0px"
   id="Camada_1"
   version="1.1"><metadata
   id="metadata1146"><rdf:RDF><cc:Work
       rdf:about=""><dc:format>image/svg+xml</dc:format><dc:type
         rdf:resource="http://purl.org/dc/dcmitype/StillImage" /><dc:title></dc:title></cc:Work></rdf:RDF></metadata><defs
   id="defs1144" /><sodipodi:namedview
   inkscape:current-layer="Camada_1"
   inkscape:window-maximized="0"
   inkscape:window-y="0"
   inkscape:window-x="0"
   inkscape:cy="400"
   inkscape:cx="640"
   inkscape:zoom="0.94375"
   showgrid="false"
   id="namedview1142"
   inkscape:window-height="662"
   inkscape:window-width="1384"
   inkscape:pageshadow="2"
   inkscape:pageopacity="0"
   guidetolerance="10"
   gridtolerance="10"
   objecttolerance="10"
   borderopacity="1"
   bordercolor="#666666"
   pagecolor="#ffffff" />
<style
   id="style1081"
   type="text/css">
	.st0{fill:#83C8E8;}
	.st1{fill:#F49725;}
	.st2{fill:#B25AA7;}
	.st3{fill:#F1EEE9;}
	.st4{fill:#EFCC3E;}
	.st5{fill:#50A545;}
	.st6{fill:#E94941;}
	.st7{fill:#4B8ED2;}
</style>
<path
   d="M 1280,454.7 V 0 H 0 c 0,0 0,444.2 0,454.9 20.9,-0.9 29.2,0.5 37.5,0.1 8.2,-0.4 26.2,0 39.4,0 30.4,0 61.1,1.2 91.6,0 70.8,-2.9 144.5,-0.1 215.5,0 91.8,0.1 179.4,-7 270.6,-7 100.6,-0.1 200.6,8.4 301.1,8.4 42,0 95.9,0.5 137.2,-1.6 44.1,-2.4 80.5,1.2 103.2,0 22.9,-1.2 83.9,-0.1 83.9,-0.1 z"
   class="st0"
   id="Caminho_213" />
<g
   id="g1139">
	<path
   d="m 1173.5,151.2 c 2.9,-1 5.6,-2.2 8.2,-3.9 2,-1.4 6.5,-4.9 6.8,-5.1 0.1,-0.2 0.2,-0.5 0.2,-0.8 1.5,-4.9 4.4,-15.6 4.4,-15.9 0,-0.4 -0.1,-0.7 -0.4,-1.1 -2,-4.9 -8.6,-14.8 -8.6,-14.8 -0.4,-0.2 -0.8,-0.4 -1.1,-0.6 -3,-1 -6.1,-1.8 -9.3,-2.4 l -7.1,-1.5 -1.5,0.4 c -5.1,2.5 -8.5,5.2 -13,8.5 -0.4,0.2 -0.6,0.6 -0.8,1 l -3.1,12.6 c -0.4,1.4 -0.2,3.2 -0.9,4.6 l 0.2,0.6 c 3.1,5.1 5.2,8.9 8.4,14 1.2,0.5 2.6,0.8 4,0.9 1.4,0.1 2.6,0.2 4,0.6 3.1,1.3 9.6,2.9 9.6,2.9 z"
   class="st1"
   id="Caminho_232" />
	<path
   d="m 813.8,402 c 2.1,-2.2 3.9,-4.7 5.2,-7.4 1.1,-2.2 3.4,-7.4 3.4,-7.8 0,-0.2 0,-0.5 -0.1,-0.8 -1,-5 -3.8,-15.8 -3.9,-16 -0.3,-0.2 -0.5,-0.6 -0.8,-0.8 -4.1,-3.2 -14.8,-8.8 -14.8,-8.8 -0.4,0 -0.9,0 -1.2,0.1 -3.1,0.6 -6.2,1.4 -9.2,2.4 l -7,2.2 -1.1,1.1 c -3.2,4.6 -4.9,8.6 -7.4,13.8 -0.2,0.4 -0.2,0.9 -0.1,1.2 l 3.4,12.5 c 0.4,1.4 1.4,2.9 1.5,4.5 l 0.5,0.5 c 5.2,3 8.9,5.3 14.1,8.3 1.4,-0.3 2.8,-0.6 4,-1.1 1.2,-0.6 2.5,-1 3.8,-1.4 3.3,-0.7 9.7,-2.5 9.7,-2.5 z"
   class="st2"
   id="Caminho_234" />
	<g
   id="Grupo_230">
		<path
   d="m 888.6,113.6 c 2.6,5.6 5,10.6 6.4,16.6 0.5,2.4 2.1,14 -2.4,8.2 -3.6,-4.8 -5.5,-11.4 -6.1,-17.4 -0.1,-1.8 -0.7,-3.8 -0.6,-5.5 0.1,-2.1 1.9,-3.4 3.2,-1"
   class="st3"
   id="Caminho_188" />
		<path
   d="m 905.4,177.6 c -3,-5.4 -5.6,-10.2 -7.5,-16.1 -0.8,-2.2 -3.1,-13.9 1.6,-8.4 3.9,4.5 6.2,11 7.2,16.9 0.3,1.8 1,3.6 1,5.4 0,2.1 -1.6,3.5 -3,1.1"
   class="st3"
   id="Caminho_189" />
		<path
   d="m 928,173.5 c -5,-3.5 -9.6,-6.6 -13.9,-11.1 -1.6,-1.8 -8.9,-11 -2.2,-8.2 5.5,2.2 10.4,7.1 13.9,12 1,1.4 2.5,2.9 3.2,4.4 0.9,1.9 0.1,3.8 -2.2,2.4"
   class="st3"
   id="Caminho_190" />
		<path
   d="m 941.4,160 c -6.1,-1 -11.5,-1.9 -17.4,-4 -2.2,-0.9 -12.9,-6.1 -5.6,-6.5 5.9,-0.4 12.5,1.9 17.8,4.8 1.5,0.9 3.5,1.5 4.9,2.6 1.6,1.4 1.8,3.4 -1,3.1"
   class="st3"
   id="Caminho_191" />
		<path
   d="m 918.6,123.5 c -4.9,4.5 -8.4,10.1 -13.6,14.2 -1.2,1 -9.8,7.5 -7.5,1.9 1,-2.6 4.8,-5.6 6.8,-7.6 2.1,-2.1 4.4,-4 6.8,-5.6 1.2,-0.9 2.5,-1.9 3.9,-2.6 0.7,-0.5 4.2,-2.4 3,0.1"
   class="st3"
   id="Caminho_192" />
		<path
   d="m 868.1,148.8 c 2.5,-1.1 7.4,-0.6 10.4,-0.9 3,-0.2 6,-0.4 9,-0.5 2.4,-0.1 8.9,0.5 4,2.8 -5.6,2.5 -12.1,2.5 -18.1,1.5 -1.4,-0.1 -2.8,-0.4 -4.1,-0.6 -2.9,-0.9 -1.1,-1.6 0.9,-2.6"
   class="st3"
   id="Caminho_193" />
		<path
   d="m 919.4,141.8 c 2.2,-1.4 6.9,-1.2 9.6,-1.8 2.8,-0.5 5.6,-0.9 8.4,-1.2 2.1,-0.2 8.4,-0.2 4,2.4 -5,3 -11.1,3.6 -16.8,3 -1.4,0 -2.6,-0.1 -4,-0.2 -2.8,-0.6 -1.2,-1.5 0.6,-2.6"
   class="st3"
   id="Caminho_194" />
		<path
   d="m 866.3,125.9 c 5.6,3.6 11.5,6.4 16.8,10.6 1.2,0.9 2.4,2 3.4,3.2 1,1.6 0.6,1.8 -0.9,1.6 -6.2,-0.9 -13.6,-7 -18.4,-11.2 -1,-0.8 -1.9,-1.8 -2.6,-2.8 -0.8,-1.4 0,-2 1.6,-1"
   class="st3"
   id="Caminho_195" />
	</g>
	<path
   d="m 299,305 c -1,5.1 -2.1,10.4 -4.4,15.1 -1.9,3.9 -6.5,12.5 -7,13 -0.4,0.2 -0.8,0.5 -1.1,0.8 -8,4 -25.5,11.8 -26.1,11.8 -0.6,0 -1.2,-0.1 -1.9,-0.2 -8.9,-2.2 -27.6,-10.8 -27.6,-10.8 -0.5,-0.6 -0.9,-1.2 -1.2,-1.9 -2.5,-4.9 -4.8,-10 -6.5,-15.2 l -4.5,-11.9 0.2,-2.7 c 2.8,-9.4 6.6,-15.9 10.9,-24.6 0.2,-0.8 0.9,-1.2 1.6,-1.5 l 20.8,-8.8 c 2.3,-0.9 5.4,-1.2 7.6,-2.8 l 1.2,0.2 c 9.6,4 16.6,6.5 26.4,10.5 0,0 2.2,4.4 2.6,6.6 0.5,2.2 1.2,4.5 2.3,6.6 2.3,5.2 6.7,15.8 6.7,15.8 z"
   class="st4"
   id="Caminho_233" />
	<g
   id="Grupo_141">
		<path
   d="m 191.5,223.5 c 3.5,-6.2 5.9,-13.9 8.6,-20.6 2.2,-5.4 6.2,-14.4 5.6,-20 -13.5,2.8 -27.3,8.3 -39.9,13.4 3.1,4.9 9.9,9.9 14.2,14.8 3.9,4.4 8,9.9 11.5,13"
   class="st4"
   id="Caminho_113" />
		<path
   d="m 109.9,243.5 c 4,-5.9 4,-12.1 7.5,-18.6 2.8,-5.1 7.6,-13.8 7.6,-19.2 -13.8,1.4 -25,5 -38.1,8.9 3,5.6 7,10.8 11.8,15.1 4.3,4.2 11.2,13.8 11.2,13.8 z"
   class="st4"
   id="Caminho_114" />
		<path
   d="m 115.1,145.5 c -6.1,0.4 -10.1,3.4 -16.4,4.5 -5,0.9 -14.5,1.5 -20,3.9 8.2,8.6 18.6,16.1 28.2,23 2.1,-4.6 2.7,-11.9 4.2,-17.1 1.4,-4.9 3.5,-10.4 4.2,-14.5"
   class="st3"
   id="Caminho_116" />
		<path
   d="m 114.5,145.2 c -1,-2.1 -3.1,-4.1 -4.6,-6.1 -2,-2.6 -4.1,-5 -6.5,-7.1 -2,-2 -4,-4.1 -6.1,-6 -2.1,-1.9 -4.1,-4.5 -6.4,-5.9 -1.9,2.7 -2,6.9 -3.5,9.9 -1.4,2.8 -2,5.6 -3.2,8.4 -2.4,5 -4.4,10.1 -5.6,15.5 12.3,-2.1 24.8,-5.2 36.8,-7.9 -0.1,-0.2 -0.1,0 -0.4,0.1"
   class="st2"
   id="Caminho_117" />
		<path
   d="m 107.5,175.5 c -2.8,-0.8 -6.1,-0.4 -9,-0.6 -3.8,-0.2 -7.6,0 -11.4,0.5 -3.4,0.4 -6.8,0.5 -10.1,1 -3.2,0.5 -7.1,0.2 -10.1,1.2 1.1,3.8 4.6,7 6.1,10.6 1.4,3.3 3.6,6.1 5.1,9.4 2.6,5.8 5.8,11.9 9.6,16.9 7.4,-12.7 14,-26.2 20.9,-39 -0.2,-0.1 -0.1,0.1 -0.1,0.4"
   class="st1"
   id="Caminho_118" />
		<path
   d="m 217.6,148.8 c -1.5,2 -2.4,5 -3.6,7.4 -1.5,3.1 -2.7,6.4 -3.6,9.6 -0.9,2.9 -2,5.9 -2.6,8.8 -0.8,2.9 -2.2,6 -2.5,8.9 3.5,0.4 7.4,-1.4 11.1,-1.4 3.2,0 6.4,-0.9 9.6,-0.9 5.9,-0.1 11.7,-0.9 17.4,-2.1 -8,-10.6 -17,-20.9 -25.2,-31 -0.1,0.2 0.1,0.1 0.2,0.2"
   class="st1"
   id="Caminho_119" />
		<path
   d="m 165.2,195.2 c -4,-3.8 -7.1,-11 -10.2,-16.1 -3,-4.9 -5.8,-9.9 -8.9,-14.8 -1.9,2.5 -3.4,8.1 -5,11.1 -1.9,3.4 -3.1,7 -5.1,10.4 -1.9,3 -3.6,6.1 -5.5,9.2 -1.8,2.9 -3,6.9 -5.2,9.2 0,0.2 0.1,0.4 0.2,0.5 3.9,-0.8 7.1,-2.9 11,-3.6 3.8,-0.8 7.5,-1.6 11.2,-2.3 5.4,-0.9 12.2,-3.6 17.6,-2.6"
   class="st5"
   id="Caminho_120" />
		<path
   d="m 187.4,124.9 c 2.4,4.8 8.8,8.1 12.6,11.6 2.8,2.4 5.6,4.8 8.5,7.1 2.9,2.4 6.6,3.6 9.5,6 0,0.2 -0.1,0.4 -0.2,0.5 -3.1,-0.2 -7,1.4 -10.1,1.9 -3.4,0.5 -6.9,1.1 -10.2,1.6 -3.8,0.6 -7.2,1.9 -10.9,2.6 -3.2,0.6 -9.1,0.2 -11.4,3.2 1.9,-5.4 3.9,-10.5 5.8,-15.9 1.7,-5.4 6.4,-18.6 6.4,-18.6 z"
   class="st5"
   id="Caminho_121" />
		<path
   d="m 146,164.4 c -3.5,6.1 -5,14.8 -8.5,21.1 -3.8,6.9 -8.9,13.1 -12.5,20.1 -3.1,-5.2 -7.9,-11.5 -11.4,-16.6 -2.9,-4 -4.9,-8.6 -7.5,-12.9 2.6,-2.1 8.8,-2.8 12.3,-3.5 4.1,-0.9 8.5,-1.9 12.5,-3 5,-1.6 15.1,-5.2 15.1,-5.2 z"
   class="st6"
   id="Caminho_122" />
		<path
   d="m 187.2,124.6 c 3,3.8 9.9,10.6 14,13.4 5.1,3.5 11.8,7.6 16.6,11.4 0.9,-7.9 2.6,-13 5.1,-20.7 2.1,-6.9 3.9,-11.4 5,-18.4 0,-0.1 -38.9,11.3 -40.7,14.3 z"
   class="st6"
   id="Caminho_124" />
		<path
   d="m 217.9,149.4 c -3.5,1.1 -7.3,1.2 -10.8,2 -4.1,0.9 -3.1,0.6 -7.4,1.5 -4.6,1 -8.4,2.7 -13.1,3.2 -3.1,0.4 -9.1,0.9 -12.1,1.8 7.8,4.6 10.1,8.5 17.1,14.5 4.1,3.6 8.6,6.9 13.1,10 0,0.1 9.5,-21.8 13.2,-33 z"
   class="st7"
   id="Caminho_126" />
	</g>
	<g
   id="Grupo_231">
		<path
   d="m 1079,307.6 c 0,-4 -0.6,-7.9 -0.6,-12 0,-3.1 -1.2,-13.2 1.1,-15.8 3.6,-3.6 23.9,-0.9 29.5,-2 3.5,8.9 -1.1,20.1 -1.2,29.1 -9.6,1.5 -19.8,0.1 -29.2,0.6"
   class="st5"
   id="Caminho_167" />
		<path
   d="m 1021.4,309 c 0,-4 -0.6,-7.9 -0.6,-12 0,-3.1 -1.2,-13.3 1.1,-15.8 3.6,-3.6 23.9,-0.9 29.5,-2 3.5,8.9 -1.1,20.1 -1.2,29.1 -9.6,1.5 -19.8,0.1 -29.3,0.6"
   class="st4"
   id="Caminho_168" />
		<path
   d="m 932.4,279 c 0,-4 -0.5,-7.9 -0.6,-12 0,-3.1 -1.2,-13.3 1.1,-15.8 3.6,-3.6 23.9,-0.9 29.5,-2 3.5,8.9 -1.1,20.1 -1.2,29.1 -9.6,1.5 -19.8,0.1 -29.3,0.6"
   class="st1"
   id="Caminho_169" />
		<path
   d="m 1021.4,279 c 0,-4 -0.6,-7.9 -0.6,-12 0,-3.1 -1.2,-13.3 1.1,-15.8 3.6,-3.6 23.9,-0.9 29.5,-2 3.5,8.9 -1.1,20.1 -1.2,29.1 -9.6,1.5 -19.8,0.1 -29.3,0.6"
   class="st2"
   id="Caminho_170" />
		<path
   d="m 1022.1,340.6 c -4,0 -7.9,0.5 -12,0.6 -3.1,0 -13.2,1.2 -15.8,-1.1 -3.6,-3.6 -0.9,-23.9 -2,-29.5 8.9,-3.5 20.1,1.1 29.1,1.2 1.5,9.6 0.1,19.8 0.6,29.2"
   class="st1"
   id="Caminho_172" />
		<path
   d="m 1052.3,216.2 c 0,-4 -0.5,-7.9 -0.6,-12 0,-3.1 -1.2,-13.3 1.1,-15.8 3.6,-3.6 23.9,-0.9 29.5,-2 3.5,8.9 -1.1,20.1 -1.2,29.1 -9.6,1.5 -19.8,0.1 -29.2,0.6"
   class="st4"
   id="Caminho_173" />
		<path
   d="m 1021.6,249.2 c -4,0 -7.9,0.5 -12,0.6 -3.1,0 -13.2,1.2 -15.7,-1.1 -3.6,-3.6 -0.9,-23.9 -2,-29.5 8.9,-3.5 20.1,1.1 29.1,1.2 1.5,9.6 0.1,19.8 0.6,29.2"
   class="st7"
   id="Caminho_174" />
		<path
   d="m 991.6,248.5 c -4,0 -7.9,0.6 -12,0.6 -3.1,0 -13.2,1.2 -15.7,-1.1 -3.6,-3.6 -0.9,-23.9 -2,-29.5 8.9,-3.5 20.1,1.1 29.1,1.2 1.5,9.6 0.1,19.8 0.6,29.2"
   class="st6"
   id="Caminho_175" />
		<path
   d="m 994.1,372.6 c -4,0 -7.9,0.5 -12,0.6 -3.1,0 -13.2,1.2 -15.7,-1.1 -3.6,-3.6 -0.9,-23.9 -2,-29.5 8.9,-3.5 20.1,1.1 29.1,1.2 1.5,9.6 0.1,19.8 0.6,29.2"
   class="st3"
   id="Caminho_176" />
		<path
   d="m 963.6,248.8 c 4,0.1 7.9,-0.4 12,-0.2 3.1,0.1 13.4,-0.9 15.6,1.5 3.5,3.6 0.2,23.9 1.2,29.5 -9,3.2 -20.1,-1.6 -29.1,-2 -1.2,-9.6 0.4,-19.8 0.3,-29.2"
   class="st3"
   id="Caminho_177" />
		<path
   d="m 1050.8,278.5 c 0,-9.4 -2.5,-20.1 -1,-29.2 10.5,-0.5 21.2,-1.1 31.6,-0.8 -3,3.5 -2.8,12.4 -3.1,16.8 -0.2,2.4 1,10.4 -0.4,12.1 -1.5,1.8 -11.9,0.8 -14.9,0.9 -2,0 -4,0.6 -5.9,0.6 -2.1,0 -4,-0.9 -6,-0.6"
   class="st7"
   id="Caminho_178" />
	</g>
	<g
   id="Grupo_232">
		<path
   d="m 336.5,282.8 c -2.1,5.8 -4.1,11 -5,17.1 -0.4,2.4 -0.9,14.1 3,8.1 3.2,-5 4.5,-11.8 4.6,-17.8 0,-1.8 0.4,-3.8 0.1,-5.5 -0.4,-2.1 -2.1,-3.2 -3.2,-0.6"
   class="st5"
   id="Caminho_180" />
		<path
   d="m 322.1,304.1 c -4.6,4.1 -8.8,7.6 -12.6,12.6 -1.5,1.9 -7.6,11.9 -1.4,8.5 5.2,-2.9 9.6,-8.2 12.5,-13.4 0.9,-1.5 2.1,-3.1 2.8,-4.8 0.8,-2 -0.2,-3.8 -2.5,-2.1"
   class="st5"
   id="Caminho_181" />
		<path
   d="m 294.7,316.1 c 4.8,-1.8 9,-3.2 13.2,-6.1 1.6,-1.1 8.9,-7.4 2.8,-6.9 -5,0.5 -9.7,3.5 -13.4,6.8 -1,1 -2.5,1.9 -3.2,3 -1,1.5 -0.5,3.4 1.8,2.7"
   class="st5"
   id="Caminho_182" />
		<path
   d="m 347.5,336.9 c 4.1,3.2 7.8,6.2 12.4,8.9 1.9,1 11,5 7.1,0.4 -3.1,-3.9 -8.2,-6.9 -13,-8.8 -1.4,-0.8 -2.9,-1.2 -4.4,-1.8 -1.7,-0.4 -3.1,0.5 -1.4,2.1"
   class="st5"
   id="Caminho_183" />
		<path
   d="m 303.5,295.5 c -5.2,1.6 -10.9,1.5 -16,3.6 -1.2,0.5 -9.5,4 -4.4,5.1 2.4,0.5 6.1,-0.9 8.4,-1.5 2.4,-0.6 4.8,-1.5 6.9,-2.5 1.2,-0.6 2.4,-1.1 3.5,-1.8 0.6,-0.4 3.4,-2.1 1.1,-2.5"
   class="st5"
   id="Caminho_184" />
		<path
   d="m 364.6,333.2 c 2.8,-0.5 6.5,-3.6 9.1,-5.1 2.6,-1.5 5.2,-3.1 7.8,-4.8 2,-1.2 7,-5.5 1.8,-4.5 -6,1.1 -11.5,4.8 -15.9,9 -1.1,0.9 -2.1,1.9 -3.1,2.9 -1.9,2.4 0,2 2.2,1.6"
   class="st5"
   id="Caminho_185" />
		<path
   d="m 358.7,321.4 c -2.2,-1.4 -6.9,-1.2 -9.6,-1.8 -2.8,-0.5 -5.6,-0.9 -8.4,-1.2 -2.1,-0.2 -8.4,-0.2 -4,2.4 5,2.9 11.1,3.5 16.8,3 1.4,0 2.6,-0.1 4,-0.2 2.8,-0.6 1.2,-1.5 -0.6,-2.6"
   class="st5"
   id="Caminho_186" />
		<path
   d="m 337.7,314.1 c 6,-2.9 12.2,-5 17.9,-8.6 1.4,-0.8 2.6,-1.7 3.8,-2.9 1.1,-1.5 0.9,-1.6 -0.6,-1.6 -6.2,0.1 -14.4,5.4 -19.5,9 -1.1,0.6 -2.1,1.5 -3,2.4 -0.9,1.2 -0.3,2 1.5,1.2"
   class="st5"
   id="Caminho_187" />
	</g>
	<g
   id="Grupo_233">
		<path
   d="m 529.2,299.5 c 0,3 0.4,6 0.4,9 0,2.4 0.9,10 -0.9,11.9 -2.6,2.8 -18,0.8 -22.1,1.5 -2.6,-6.8 0.9,-15.1 1,-22 7.2,-1.1 14.9,-0.1 22,-0.4"
   class="st2"
   id="Caminho_128" />
		<path
   d="m 459.9,297.6 c 0,3 0.4,6 0.4,9 0,2.4 1,10 -0.8,11.9 -2.8,2.8 -18,0.8 -22.1,1.5 -2.6,-6.8 0.9,-15.1 0.9,-22 7.2,-1.1 14.9,-0.1 22,-0.4"
   class="st4"
   id="Caminho_129" />
		<path
   d="m 484,341.4 c 0,3 0.4,6 0.4,9 0,2.4 1,10 -0.9,11.9 -2.6,2.8 -18,0.8 -22.1,1.5 -2.6,-6.7 0.9,-15.1 1,-22 7.2,-1.1 14.9,-0.1 22,-0.4"
   class="st6"
   id="Caminho_131" />
		<path
   d="m 481.9,275 c 0,3 0.4,6 0.4,9 0,2.4 1,10 -0.9,11.9 -2.6,2.8 -18,0.8 -22.1,1.5 -2.6,-6.8 0.9,-15.1 1,-22 7.2,-1.1 14.9,-0.1 22,-0.4"
   class="st1"
   id="Caminho_132" />
		<path
   d="m 505.4,343 c -3,-0.1 -6,0.2 -9,0.2 -2.4,0 -10.1,0.6 -11.8,-1.1 -2.6,-2.8 -0.2,-18 -0.9,-22.2 6.7,-2.5 15.1,1.3 21.9,1.5 0.9,7.2 -0.3,14.9 -0.1,22"
   class="st3"
   id="Caminho_135" />
	</g>
	<g
   id="Grupo_234">
		<path
   d="m 531.6,59.9 c 5.2,4.3 10,10.1 14.8,15 3.8,3.9 10.5,10.4 11.9,15.5 -12.9,2.4 -26.6,2.4 -39.5,2.2 1,-5.4 5.3,-12.1 7.2,-17.7 1.9,-5.1 3.6,-11.4 5.5,-15.4"
   class="st4"
   id="Caminho_136" />
		<path
   d="m 580.5,116 c -2.1,-1.2 -3.9,-3.5 -5.8,-5.1 -2.4,-2.1 -4.6,-4.6 -6.5,-7.1 -1.8,-2.3 -3.8,-4.4 -5.4,-6.6 -1.6,-2.2 -4,-4.5 -5.4,-6.9 3,-1.5 7,-1.4 10.1,-2.6 2.8,-1.1 5.9,-1.5 8.6,-2.5 5.1,-2 10.5,-3.4 16,-4.2 -3.2,12.1 -7.5,24.1 -11.1,36 -0.2,-0.1 0,-0.1 0.1,-0.4"
   class="st1"
   id="Caminho_137" />
		<path
   d="m 580.6,115.2 c -3.5,0.2 -6.8,1.4 -10.1,2 -4,0.6 -3,0.5 -6.9,1.2 -4.4,0.7 -8.2,0.5 -12.6,1.8 -2.8,0.8 -8.4,2.4 -11.2,2.7 5.1,-6.8 5.9,-10.9 9.8,-18.6 2.4,-4.6 5,-9 8,-13.2 -0.1,-0.1 15.8,15.6 23,24.1 z"
   class="st3"
   id="Caminho_138" />
	</g>
</g>
</svg>
