<?xml version="1.0" encoding="UTF-8" standalone="no"?>
<svg
   xmlns:dc="http://purl.org/dc/elements/1.1/"
   xmlns:cc="http://creativecommons.org/ns#"
   xmlns:rdf="http://www.w3.org/1999/02/22-rdf-syntax-ns#"
   xmlns:svg="http://www.w3.org/2000/svg"
   xmlns="http://www.w3.org/2000/svg"
   xmlns:sodipodi="http://sodipodi.sourceforge.net/DTD/sodipodi-0.dtd"
   xmlns:inkscape="http://www.inkscape.org/namespaces/inkscape"
   inkscape:version="1.0 (4035a4fb49, 2020-05-01)"
   height="310"
   width="375"
   sodipodi:docname="fondo-celeste-mobile.svg"
   xml:space="preserve"
   viewBox="0 0 375 310.00001"
   y="0px"
   x="0px"
   id="Camada_1"
   version="1.1"><metadata
   id="metadata248"><rdf:RDF><cc:Work
       rdf:about=""><dc:format>image/svg+xml</dc:format><dc:type
         rdf:resource="http://purl.org/dc/dcmitype/StillImage" /><dc:title></dc:title></cc:Work></rdf:RDF></metadata><defs
   id="defs246" /><sodipodi:namedview
   inkscape:current-layer="Camada_1"
   inkscape:window-maximized="0"
   inkscape:window-y="140"
   inkscape:window-x="366"
   inkscape:cy="249.39999"
   inkscape:cx="698.75"
   inkscape:zoom="0.86440072"
   showgrid="false"
   id="namedview244"
   inkscape:window-height="721"
   inkscape:window-width="1633"
   inkscape:pageshadow="2"
   inkscape:pageopacity="0"
   guidetolerance="10"
   gridtolerance="10"
   objecttolerance="10"
   borderopacity="1"
   bordercolor="#666666"
   pagecolor="#ffffff" />
<style
   id="style240"
   type="text/css">
	.st0{fill:#83C8E8;}
</style>
<path
   style="stroke-width:0.408551"
   d="M 375,308.83887 V 0 H 0 c 0,0 0,301.68551 0,308.90108 6.1180678,-0.62204 8.5599286,0.37322 11.001789,0.1244 2.441861,-0.24881 7.701252,0 11.538462,0 8.908764,0 17.924866,0.80864 26.833631,0 20.715565,-1.92829 42.343473,-0.0622 63.139538,0 26.8873,0.0621 52.54025,-4.72744 79.29338,-4.78964 29.46332,-0.0621 58.76565,5.72269 88.22898,5.72269 12.2898,0 28.09481,0.37323 40.19679,-1.11966 12.93379,-1.61727 23.58673,0.80865 30.24151,0 6.65471,-0.80864 24.52592,0 24.52592,0 z"
   class="st0"
   id="Caminho_213" />
</svg>
