<?xml version="1.0" encoding="UTF-8" standalone="no"?>
<svg
   xmlns:dc="http://purl.org/dc/elements/1.1/"
   xmlns:cc="http://creativecommons.org/ns#"
   xmlns:rdf="http://www.w3.org/1999/02/22-rdf-syntax-ns#"
   xmlns:svg="http://www.w3.org/2000/svg"
   xmlns="http://www.w3.org/2000/svg"
   xmlns:sodipodi="http://sodipodi.sourceforge.net/DTD/sodipodi-0.dtd"
   xmlns:inkscape="http://www.inkscape.org/namespaces/inkscape"
   inkscape:version="1.0 (4035a4fb49, 2020-05-01)"
   height="365.14099"
   width="1024"
   sodipodi:docname="fondo-celeste_1024x768.svg"
   xml:space="preserve"
   viewBox="0 0 1024 365.14099"
   y="0px"
   x="0px"
   id="Camada_1"
   version="1.1"><metadata
   id="metadata1012"><rdf:RDF><cc:Work
       rdf:about=""><dc:format>image/svg+xml</dc:format><dc:type
         rdf:resource="http://purl.org/dc/dcmitype/StillImage" /><dc:title></dc:title></cc:Work></rdf:RDF></metadata><defs
   id="defs1010" /><sodipodi:namedview
   inkscape:current-layer="Camada_1"
   inkscape:window-maximized="0"
   inkscape:window-y="0"
   inkscape:window-x="0"
   inkscape:cy="384"
   inkscape:cx="512"
   inkscape:zoom="1.0807292"
   showgrid="false"
   id="namedview1008"
   inkscape:window-height="480"
   inkscape:window-width="1453"
   inkscape:pageshadow="2"
   inkscape:pageopacity="0"
   guidetolerance="10"
   gridtolerance="10"
   objecttolerance="10"
   borderopacity="1"
   bordercolor="#666666"
   pagecolor="#ffffff" />
<style
   id="style947"
   type="text/css">
	.st0{fill:#83C8E8;}
	.st1{fill:#F49725;}
	.st2{fill:#B25AA7;}
	.st3{fill:#F1EEE9;}
	.st4{fill:#EFCC3E;}
	.st5{fill:#50A545;}
	.st6{fill:#E94941;}
	.st7{fill:#4B8ED2;}
</style>
<path
   style="stroke-width:1"
   d="M 1024,363.8 V 0 H 0 c 0,0 0,355.4 0,363.9 16.7,-0.7 23.400001,0.4 30,0.1 6.599999,-0.3 20.999999,0 31.5,0 24.300001,0 48.9,1 73.29999,0 C 191.4,361.7 250.4,363.9 307.2,364 c 73.4,0.1 143.5,-5.6 216.5,-5.6 80.5,-0.1 160.5,6.7 240.9,6.7 33.6,0 76.7,0.4 109.8,-1.3 35.3,-1.9 64.39999,1 82.6,0 18.2,-0.9 67,0 67,0 z"
   class="st0"
   id="Caminho_213" />
<g
   id="g1005">
	<path
   d="m 932.8,121 c 2.3,-0.8 4.5,-1.8 6.6,-3.1 1.6,-1.1 5.2,-3.9 5.4,-4.1 0.1,-0.2 0.2,-0.4 0.2,-0.6 1.2,-3.9 3.5,-12.5 3.5,-12.7 0,-0.3 -0.1,-0.6 -0.3,-0.9 -1.6,-3.9 -6.9,-11.8 -6.9,-11.8 -0.3,-0.2 -0.6,-0.3 -0.9,-0.5 -2.4,-0.8 -4.9,-1.4 -7.4,-1.9 l -5.7,-1.2 -1.2,0.3 c -4.1,2 -6.8,4.2 -10.4,6.8 -0.3,0.2 -0.5,0.5 -0.6,0.8 l -2.5,10.1 c -0.3,1.1 -0.2,2.6 -0.7,3.7 l 0.2,0.5 c 2.5,4.1 4.2,7.1 6.7,11.2 1,0.4 2.1,0.6 3.2,0.7 1.1,0.1 2.1,0.2 3.2,0.5 2.4,0.9 7.6,2.2 7.6,2.2 z"
   class="st1"
   id="Caminho_232" />
	<path
   d="m 653,317.6 c 1.7,-1.8 3.1,-3.8 4.2,-5.9 0.9,-1.8 2.7,-5.9 2.7,-6.2 0,-0.2 0,-0.4 -0.1,-0.6 -0.8,-4 -3,-12.6 -3.1,-12.8 -0.2,-0.2 -0.4,-0.5 -0.6,-0.6 -3.3,-2.6 -11.8,-7 -11.8,-7 -0.3,0 -0.7,0 -1,0.1 -2.5,0.5 -5,1.1 -7.4,1.9 l -5.6,1.8 -0.9,0.9 c -2.6,3.7 -3.9,6.9 -5.9,11 -0.2,0.3 -0.2,0.7 -0.1,1 l 2.7,10 c 0.3,1.1 1.1,2.3 1.2,3.6 l 0.4,0.4 c 4.2,2.4 7.1,4.2 11.3,6.6 1.1,-0.2 2.2,-0.5 3.2,-0.9 1,-0.5 2,-0.8 3,-1.1 2.7,-0.8 7.8,-2.2 7.8,-2.2 z"
   class="st2"
   id="Caminho_234" />
	<g
   id="Grupo_230">
		<path
   d="m 694.9,90.9 c 2.1,4.5 4,8.5 5.1,13.3 0.4,1.9 1.7,11.2 -1.9,6.6 -2.9,-3.8 -4.4,-9.1 -4.9,-13.9 -0.1,-1.4 -0.6,-3 -0.5,-4.4 0.1,-1.7 1.5,-2.7 2.6,-0.8"
   class="st3"
   id="Caminho_188" />
		<path
   d="m 708.3,142.1 c -2.4,-4.3 -4.5,-8.2 -6,-12.9 -0.6,-1.8 -2.5,-11.1 1.3,-6.7 3.1,3.6 5,8.8 5.8,13.5 0.2,1.4 0.8,2.9 0.8,4.3 0,1.7 -1.3,2.8 -2.4,0.9"
   class="st3"
   id="Caminho_189" />
		<path
   d="m 726.4,138.8 c -4,-2.8 -7.7,-5.3 -11.1,-8.9 -1.3,-1.4 -7.1,-8.8 -1.8,-6.6 4.4,1.8 8.3,5.7 11.1,9.6 0.8,1.1 2,2.3 2.6,3.5 0.7,1.5 0.1,3 -1.8,1.9"
   class="st3"
   id="Caminho_190" />
		<path
   d="m 737.1,128 c -4.9,-0.8 -9.2,-1.5 -13.9,-3.2 -1.8,-0.7 -10.3,-4.9 -4.5,-5.2 4.7,-0.3 10,1.5 14.2,3.8 1.2,0.7 2.8,1.2 3.9,2.1 1.3,1.1 1.4,2.7 -0.8,2.5"
   class="st3"
   id="Caminho_191" />
		<path
   d="m 718.9,98.8 c -3.9,3.6 -6.7,8.1 -10.9,11.4 -1,0.8 -7.8,6 -6,1.5 0.8,-2.1 3.8,-4.5 5.4,-6.1 1.7,-1.7 3.5,-3.2 5.4,-4.5 1,-0.7 2,-1.5 3.1,-2.1 0.6,-0.4 3.4,-1.9 2.4,0.1"
   class="st3"
   id="Caminho_192" />
		<path
   d="m 678.5,119 c 2,-0.9 5.9,-0.5 8.3,-0.7 2.4,-0.2 4.8,-0.3 7.2,-0.4 1.9,-0.1 7.1,0.4 3.2,2.2 -4.5,2 -9.7,2 -14.5,1.2 -1.1,-0.1 -2.2,-0.3 -3.3,-0.5 -2.3,-0.7 -0.9,-1.3 0.7,-2.1"
   class="st3"
   id="Caminho_193" />
		<path
   d="m 719.5,113.4 c 1.8,-1.1 5.5,-1 7.7,-1.4 2.2,-0.4 4.5,-0.7 6.7,-1 1.7,-0.2 6.7,-0.2 3.2,1.9 -4,2.4 -8.9,2.9 -13.4,2.4 -1.1,0 -2.1,-0.1 -3.2,-0.2 -2.2,-0.5 -1,-1.2 0.5,-2.1"
   class="st3"
   id="Caminho_194" />
		<path
   d="m 677,100.7 c 4.5,2.9 9.2,5.1 13.4,8.5 1,0.7 1.9,1.6 2.7,2.6 0.8,1.3 0.5,1.4 -0.7,1.3 -5,-0.7 -10.9,-5.6 -14.7,-9 -0.8,-0.6 -1.5,-1.4 -2.1,-2.2 -0.6,-1.1 0,-1.6 1.3,-0.8"
   class="st3"
   id="Caminho_195" />
	</g>
	<path
   d="m 235.2,244 c -0.8,4.1 -1.7,8.3 -3.5,12.1 -1.5,3.1 -5.2,10 -5.6,10.4 -0.3,0.2 -0.6,0.4 -0.9,0.6 -6.4,3.2 -20.4,9.4 -20.9,9.4 -0.5,0 -1,-0.1 -1.5,-0.2 -7.1,-1.8 -22.1,-8.6 -22.1,-8.6 -0.4,-0.5 -0.7,-1 -1,-1.5 -2,-3.9 -3.8,-8 -5.2,-12.2 l -3.6,-9.5 0.2,-2.2 c 2.2,-7.5 5.3,-12.7 8.7,-19.7 0.2,-0.6 0.7,-1 1.3,-1.2 l 16.6,-7 c 1.8,-0.7 4.3,-1 6.1,-2.2 l 1,0.2 c 7.7,3.2 13.3,5.2 21.1,8.4 0,0 1.8,3.5 2.1,5.3 0.4,1.8 1,3.6 1.8,5.3 1.9,4.1 5.4,12.6 5.4,12.6 z"
   class="st4"
   id="Caminho_233" />
	<g
   id="Grupo_141">
		<path
   d="m 165.2,178.8 c 2.8,-5 4.7,-11.1 6.9,-16.5 1.8,-4.3 5,-11.5 4.5,-16 -10.8,2.2 -21.8,6.6 -31.9,10.7 2.5,3.9 7.9,7.9 11.4,11.8 3.1,3.5 6.4,7.9 9.2,10.4"
   class="st4"
   id="Caminho_113" />
		<path
   d="m 99.9,194.8 c 3.2,-4.7 3.2,-9.7 6,-14.9 2.2,-4.1 6.1,-11 6.1,-15.4 -11,1.1 -20,4 -30.5,7.1 2.4,4.5 5.6,8.6 9.4,12.1 3.5,3.4 9,11.1 9,11.1 z"
   class="st4"
   id="Caminho_114" />
		<path
   d="m 104.1,116.4 c -4.9,0.3 -8.1,2.7 -13.1,3.6 -4,0.7 -11.6,1.2 -16,3.1 6.6,6.9 14.9,12.9 22.6,18.4 1.7,-3.7 2.2,-9.5 3.4,-13.7 1.1,-3.9 2.8,-8.3 3.4,-11.6"
   class="st3"
   id="Caminho_116" />
		<path
   d="m 103.6,116.2 c -0.8,-1.7 -2.5,-3.3 -3.7,-4.9 -1.6,-2.1 -3.3,-4 -5.2,-5.7 -1.6,-1.6 -3.2,-3.3 -4.9,-4.8 -1.7,-1.5 -3.3,-3.6 -5.1,-4.7 -1.5,2.2 -1.6,5.5 -2.8,7.9 -1.1,2.2 -1.6,4.5 -2.6,6.7 -1.9,4 -3.5,8.1 -4.5,12.4 9.8,-1.7 19.8,-4.2 29.4,-6.3 -0.1,-0.2 -0.1,0 -0.3,0.1"
   class="st2"
   id="Caminho_117" />
		<path
   d="m 98,140.4 c -2.2,-0.6 -4.9,-0.3 -7.2,-0.5 -3,-0.2 -6.1,0 -9.1,0.4 -2.7,0.3 -5.4,0.4 -8.1,0.8 -2.6,0.4 -5.7,0.2 -8.1,1 0.9,3 3.7,5.6 4.9,8.5 1.1,2.6 2.9,4.9 4.1,7.5 2.1,4.6 4.6,9.5 7.7,13.5 5.9,-10.2 11.2,-21 16.7,-31.2 -0.2,-0.1 -0.1,0.1 -0.1,0.3"
   class="st1"
   id="Caminho_118" />
		<path
   d="m 186.1,119 c -1.2,1.6 -1.9,4 -2.9,5.9 -1.2,2.5 -2.2,5.1 -2.9,7.7 -0.7,2.3 -1.6,4.7 -2.1,7 -0.6,2.3 -1.8,4.8 -2,7.1 2.8,0.3 5.9,-1.1 8.9,-1.1 2.6,0 5.1,-0.7 7.7,-0.7 4.7,-0.1 9.4,-0.7 13.9,-1.7 -6.4,-8.5 -13.6,-16.7 -20.2,-24.8 -0.1,0.2 0.1,0.1 0.2,0.2"
   class="st1"
   id="Caminho_119" />
		<path
   d="m 144.2,156.2 c -3.2,-3 -5.7,-8.8 -8.2,-12.9 -2.4,-3.9 -4.6,-7.9 -7.1,-11.8 -1.5,2 -2.7,6.5 -4,8.9 -1.5,2.7 -2.5,5.6 -4.1,8.3 -1.5,2.4 -2.9,4.9 -4.4,7.4 -1.4,2.3 -2.4,5.5 -4.2,7.4 0,0.2 0.1,0.3 0.2,0.4 3.1,-0.6 5.7,-2.3 8.8,-2.9 3,-0.6 6,-1.3 9,-1.8 4.3,-0.7 9.8,-2.9 14.1,-2.1"
   class="st5"
   id="Caminho_120" />
		<path
   d="m 161.9,99.9 c 1.9,3.8 7,6.5 10.1,9.3 2.2,1.9 4.5,3.8 6.8,5.7 2.3,1.9 5.3,2.9 7.6,4.8 0,0.2 -0.1,0.3 -0.2,0.4 -2.5,-0.2 -5.6,1.1 -8.1,1.5 -2.7,0.4 -5.5,0.9 -8.2,1.3 -3,0.5 -5.8,1.5 -8.7,2.1 -2.6,0.5 -7.3,0.2 -9.1,2.6 1.5,-4.3 3.1,-8.4 4.6,-12.7 1.5,-4.4 5.2,-15 5.2,-15 z"
   class="st5"
   id="Caminho_121" />
		<path
   d="m 128.8,131.5 c -2.8,4.9 -4,11.8 -6.8,16.9 -3,5.5 -7.1,10.5 -10,16.1 -2.5,-4.2 -6.3,-9.2 -9.1,-13.3 -2.3,-3.2 -3.9,-6.9 -6,-10.3 2.1,-1.7 7,-2.2 9.8,-2.8 3.3,-0.7 6.8,-1.5 10,-2.4 4,-1.3 12.1,-4.2 12.1,-4.2 z"
   class="st6"
   id="Caminho_122" />
		<path
   d="m 161.8,99.7 c 2.4,3 7.9,8.5 11.2,10.7 4.1,2.8 9.4,6.1 13.3,9.1 0.7,-6.3 2.1,-10.4 4.1,-16.6 1.7,-5.5 3.1,-9.1 4,-14.7 -0.1,0 -31.2,9.1 -32.6,11.5 z"
   class="st6"
   id="Caminho_124" />
		<path
   d="m 186.3,119.5 c -2.8,0.9 -5.8,1 -8.6,1.6 -3.3,0.7 -2.5,0.5 -5.9,1.2 -3.7,0.8 -6.7,2.2 -10.5,2.6 -2.5,0.3 -7.3,0.7 -9.7,1.4 6.2,3.7 8.1,6.8 13.7,11.6 3.3,2.9 6.9,5.5 10.5,8 0,0.1 7.6,-17.4 10.5,-26.4 z"
   class="st7"
   id="Caminho_126" />
	</g>
	<g
   id="Grupo_231">
		<path
   d="m 847.2,246.1 c 0,-3.2 -0.5,-6.3 -0.5,-9.6 0,-2.5 -1,-10.6 0.9,-12.6 2.9,-2.9 19.1,-0.7 23.6,-1.6 2.8,7.1 -0.9,16.1 -1,23.3 -7.7,1.2 -15.8,0.1 -23.4,0.5"
   class="st5"
   id="Caminho_167" />
		<path
   d="m 801.1,247.2 c 0,-3.2 -0.5,-6.3 -0.5,-9.6 0,-2.5 -1,-10.6 0.9,-12.6 2.9,-2.9 19.1,-0.7 23.6,-1.6 2.8,7.1 -0.9,16.1 -1,23.3 -7.7,1.2 -15.8,0.1 -23.4,0.5"
   class="st4"
   id="Caminho_168" />
		<path
   d="m 729.9,223.2 c 0,-3.2 -0.4,-6.3 -0.5,-9.6 0,-2.5 -1,-10.6 0.9,-12.6 2.9,-2.9 19.1,-0.7 23.6,-1.6 2.8,7.1 -0.9,16.1 -1,23.3 -7.7,1.2 -15.8,0.1 -23.4,0.5"
   class="st1"
   id="Caminho_169" />
		<path
   d="m 801.1,223.2 c 0,-3.2 -0.5,-6.3 -0.5,-9.6 0,-2.5 -1,-10.6 0.9,-12.6 2.9,-2.9 19.1,-0.7 23.6,-1.6 2.8,7.1 -0.9,16.1 -1,23.3 -7.7,1.2 -15.8,0.1 -23.4,0.5"
   class="st2"
   id="Caminho_170" />
		<path
   d="m 801.7,272.5 c -3.2,0 -6.3,0.4 -9.6,0.5 -2.5,0 -10.6,1 -12.6,-0.9 -2.9,-2.9 -0.7,-19.1 -1.6,-23.6 7.1,-2.8 16.1,0.9 23.3,1 1.2,7.7 0.1,15.8 0.5,23.4"
   class="st1"
   id="Caminho_172" />
		<path
   d="m 825.8,173 c 0,-3.2 -0.4,-6.3 -0.5,-9.6 0,-2.5 -1,-10.6 0.9,-12.6 2.9,-2.9 19.1,-0.7 23.6,-1.6 2.8,7.1 -0.9,16.1 -1,23.3 -7.7,1.2 -15.8,0.1 -23.4,0.5"
   class="st4"
   id="Caminho_173" />
		<path
   d="m 801.3,199.4 c -3.2,0 -6.3,0.4 -9.6,0.5 -2.5,0 -10.6,1 -12.6,-0.9 -2.9,-2.9 -0.7,-19.1 -1.6,-23.6 7.1,-2.8 16.1,0.9 23.3,1 1.2,7.7 0.1,15.8 0.5,23.4"
   class="st7"
   id="Caminho_174" />
		<path
   d="m 777.3,198.8 c -3.2,0 -6.3,0.5 -9.6,0.5 -2.5,0 -10.6,1 -12.6,-0.9 -2.9,-2.9 -0.7,-19.1 -1.6,-23.6 7.1,-2.8 16.1,0.9 23.3,1 1.2,7.7 0.1,15.8 0.5,23.4"
   class="st6"
   id="Caminho_175" />
		<path
   d="m 779.3,298.1 c -3.2,0 -6.3,0.4 -9.6,0.5 -2.5,0 -10.6,1 -12.6,-0.9 -2.9,-2.9 -0.7,-19.1 -1.6,-23.6 7.1,-2.8 16.1,0.9 23.3,1 1.2,7.7 0.1,15.8 0.5,23.4"
   class="st3"
   id="Caminho_176" />
		<path
   d="m 754.9,199 c 3.2,0.1 6.3,-0.3 9.6,-0.2 2.5,0.1 10.7,-0.7 12.5,1.2 2.8,2.9 0.2,19.1 1,23.6 -7.2,2.6 -16.1,-1.3 -23.3,-1.6 -1,-7.7 0.3,-15.8 0.2,-23.4"
   class="st3"
   id="Caminho_177" />
		<path
   d="m 824.6,222.8 c 0,-7.5 -2,-16.1 -0.8,-23.4 8.4,-0.4 17,-0.9 25.3,-0.6 -2.4,2.8 -2.2,9.9 -2.5,13.4 -0.2,1.9 0.8,8.3 -0.3,9.7 -1.2,1.4 -9.5,0.6 -11.9,0.7 -1.6,0 -3.2,0.5 -4.7,0.5 -1.7,0 -3.2,-0.7 -4.8,-0.5"
   class="st7"
   id="Caminho_178" />
	</g>
	<g
   id="Grupo_232">
		<path
   d="m 265.2,226.2 c -1.7,4.6 -3.3,8.8 -4,13.7 -0.3,1.9 -0.7,11.3 2.4,6.5 2.6,-4 3.6,-9.4 3.7,-14.2 0,-1.4 0.3,-3 0.1,-4.4 -0.3,-1.7 -1.7,-2.6 -2.6,-0.5"
   class="st5"
   id="Caminho_180" />
		<path
   d="m 253.7,243.3 c -3.7,3.3 -7,6.1 -10.1,10.1 -1.2,1.5 -6.1,9.5 -1.1,6.8 4.2,-2.3 7.7,-6.6 10,-10.7 0.7,-1.2 1.7,-2.5 2.2,-3.8 0.6,-1.6 -0.2,-3 -2,-1.7"
   class="st5"
   id="Caminho_181" />
		<path
   d="m 231.8,252.9 c 3.8,-1.4 7.2,-2.6 10.6,-4.9 1.3,-0.9 7.1,-5.9 2.2,-5.5 -4,0.4 -7.8,2.8 -10.7,5.4 -0.8,0.8 -2,1.5 -2.6,2.4 -0.8,1.2 -0.4,2.7 1.4,2.2"
   class="st5"
   id="Caminho_182" />
		<path
   d="m 274,269.5 c 3.3,2.6 6.2,5 9.9,7.1 1.5,0.8 8.8,4 5.7,0.3 -2.5,-3.1 -6.6,-5.5 -10.4,-7 -1.1,-0.6 -2.3,-1 -3.5,-1.4 -1.4,-0.3 -2.5,0.4 -1.1,1.7"
   class="st5"
   id="Caminho_183" />
		<path
   d="m 238.8,236.4 c -4.2,1.3 -8.7,1.2 -12.8,2.9 -1,0.4 -7.6,3.2 -3.5,4.1 1.9,0.4 4.9,-0.7 6.7,-1.2 1.9,-0.5 3.8,-1.2 5.5,-2 1,-0.5 1.9,-0.9 2.8,-1.4 0.5,-0.3 2.7,-1.7 0.9,-2"
   class="st5"
   id="Caminho_184" />
		<path
   d="m 287.7,266.6 c 2.2,-0.4 5.2,-2.9 7.3,-4.1 2.1,-1.2 4.2,-2.5 6.2,-3.8 1.6,-1 5.6,-4.4 1.4,-3.6 -4.8,0.9 -9.2,3.8 -12.7,7.2 -0.9,0.7 -1.7,1.5 -2.5,2.3 -1.5,1.9 0,1.6 1.8,1.3"
   class="st5"
   id="Caminho_185" />
		<path
   d="m 283,257.1 c -1.8,-1.1 -5.5,-1 -7.7,-1.4 -2.2,-0.4 -4.5,-0.7 -6.7,-1 -1.7,-0.2 -6.7,-0.2 -3.2,1.9 4,2.3 8.9,2.8 13.4,2.4 1.1,0 2.1,-0.1 3.2,-0.2 2.2,-0.5 1,-1.2 -0.5,-2.1"
   class="st5"
   id="Caminho_186" />
		<path
   d="m 266.2,251.3 c 4.8,-2.3 9.8,-4 14.3,-6.9 1.1,-0.6 2.1,-1.4 3,-2.3 0.9,-1.2 0.7,-1.3 -0.5,-1.3 -5,0.1 -11.5,4.3 -15.6,7.2 -0.9,0.5 -1.7,1.2 -2.4,1.9 -0.7,1 -0.2,1.6 1.2,1"
   class="st5"
   id="Caminho_187" />
	</g>
	<g
   id="Grupo_233">
		<path
   d="m 429.4,239.6 c 0,2.4 0.3,4.8 0.3,7.2 0,1.9 0.7,8 -0.7,9.5 -2.1,2.2 -14.4,0.6 -17.7,1.2 -2.1,-5.4 0.7,-12.1 0.8,-17.6 5.8,-0.9 11.9,-0.1 17.6,-0.3"
   class="st2"
   id="Caminho_128" />
		<path
   d="m 373.9,238.1 c 0,2.4 0.3,4.8 0.3,7.2 0,1.9 0.8,8 -0.6,9.5 -2.2,2.2 -14.4,0.6 -17.7,1.2 -2.1,-5.4 0.7,-12.1 0.7,-17.6 5.8,-0.9 11.9,-0.1 17.6,-0.3"
   class="st4"
   id="Caminho_129" />
		<path
   d="m 393.2,273.1 c 0,2.4 0.3,4.8 0.3,7.2 0,1.9 0.8,8 -0.7,9.5 -2.1,2.2 -14.4,0.6 -17.7,1.2 -2.1,-5.4 0.7,-12.1 0.8,-17.6 5.8,-0.9 11.9,-0.1 17.6,-0.3"
   class="st6"
   id="Caminho_131" />
		<path
   d="m 391.5,220 c 0,2.4 0.3,4.8 0.3,7.2 0,1.9 0.8,8 -0.7,9.5 -2.1,2.2 -14.4,0.6 -17.7,1.2 -2.1,-5.4 0.7,-12.1 0.8,-17.6 5.8,-0.9 11.9,-0.1 17.6,-0.3"
   class="st1"
   id="Caminho_132" />
		<path
   d="m 410.3,274.4 c -2.4,-0.1 -4.8,0.2 -7.2,0.2 -1.9,0 -8.1,0.5 -9.4,-0.9 -2.1,-2.2 -0.2,-14.4 -0.7,-17.8 5.4,-2 12.1,1 17.5,1.2 0.7,5.8 -0.2,11.9 -0.1,17.6"
   class="st3"
   id="Caminho_135" />
	</g>
	<g
   id="Grupo_234">
		<path
   d="m 425.3,63.9 c 4.2,3.4 8,8.1 11.8,12 3,3.1 8.4,8.3 9.5,12.4 -10.3,1.9 -21.3,1.9 -31.6,1.8 0.8,-4.3 4.2,-9.7 5.8,-14.2 1.5,-4.1 2.9,-9.1 4.4,-12.3"
   class="st4"
   id="Caminho_136" />
		<path
   d="m 464.4,108.8 c -1.7,-1 -3.1,-2.8 -4.6,-4.1 -1.9,-1.7 -3.7,-3.7 -5.2,-5.7 -1.4,-1.8 -3,-3.5 -4.3,-5.3 -1.3,-1.8 -3.2,-3.6 -4.3,-5.5 2.4,-1.2 5.6,-1.1 8.1,-2.1 2.2,-0.9 4.7,-1.2 6.9,-2 4.1,-1.6 8.4,-2.7 12.8,-3.4 -2.6,9.7 -6,19.3 -8.9,28.8 -0.2,-0.1 0,-0.1 0.1,-0.3"
   class="st1"
   id="Caminho_137" />
		<path
   d="m 464.5,108.2 c -2.8,0.2 -5.4,1.1 -8.1,1.6 -3.2,0.5 -2.4,0.4 -5.5,1 -3.5,0.6 -6.6,0.4 -10.1,1.4 -2.2,0.6 -6.7,1.9 -9,2.2 4.1,-5.4 4.7,-8.7 7.8,-14.9 1.9,-3.7 4,-7.2 6.4,-10.6 0,-0.1 12.7,12.5 18.5,19.3 z"
   class="st3"
   id="Caminho_138" />
	</g>
</g>
</svg>
