<?xml version="1.0" encoding="UTF-8" standalone="no"?>
<svg
   xmlns:dc="http://purl.org/dc/elements/1.1/"
   xmlns:cc="http://creativecommons.org/ns#"
   xmlns:rdf="http://www.w3.org/1999/02/22-rdf-syntax-ns#"
   xmlns:svg="http://www.w3.org/2000/svg"
   xmlns="http://www.w3.org/2000/svg"
   xmlns:sodipodi="http://sodipodi.sourceforge.net/DTD/sodipodi-0.dtd"
   xmlns:inkscape="http://www.inkscape.org/namespaces/inkscape"
   inkscape:version="1.0 (4035a4fb49, 2020-05-01)"
   height="1025.2"
   width="1024"
   sodipodi:docname="fondo-amarillo_1024x768.svg"
   xml:space="preserve"
   viewBox="0 0 1024 1025.2"
   y="0px"
   x="0px"
   id="Camada_1"
   version="1.1"><metadata
   id="metadata612"><rdf:RDF><cc:Work
       rdf:about=""><dc:format>image/svg+xml</dc:format><dc:type
         rdf:resource="http://purl.org/dc/dcmitype/StillImage" /><dc:title></dc:title></cc:Work></rdf:RDF></metadata><defs
   id="defs610" /><sodipodi:namedview
   inkscape:current-layer="Camada_1"
   inkscape:window-maximized="0"
   inkscape:window-y="0"
   inkscape:window-x="0"
   inkscape:cy="384"
   inkscape:cx="512"
   inkscape:zoom="1.0807292"
   showgrid="false"
   id="namedview608"
   inkscape:window-height="852"
   inkscape:window-width="1018"
   inkscape:pageshadow="2"
   inkscape:pageopacity="0"
   guidetolerance="10"
   gridtolerance="10"
   objecttolerance="10"
   borderopacity="1"
   bordercolor="#666666"
   pagecolor="#ffffff" />
<style
   id="style532"
   type="text/css">
	.st0{fill:#EFCC3E;}
	.st1{fill:#F1EEE9;}
	.st2{fill:#83C8E8;}
	.st3{fill:#F49725;}
	.st4{fill:#B25AA7;}
	.st5{fill:#4B8ED2;}
	.st6{fill:#E94941;}
	.st7{fill:#50A545;}
	.st8{fill:#E4E4E4;}
</style>
<path
   d="M 1024,379.9 V 0 H -1.2 v 382.7 c 0,0 7.6,-0.2 34.3,-1.1 31.8,-0.4 66,2.6 100.7,2.6 56.6,-2.3 112.6,-8 169.4,-7.9 73.5,0.1 146.8,2.3 220,2.3 80.6,-0.1 160.7,6.7 241.2,6.7 33.6,0 66.2,-3.9 99.3,-5.6 35.4,-1.9 59.9,6.4 93.3,4.3 33.3,-2 67,-4.1 67,-4.1 z"
   class="st0"
   id="Caminho_214_1_" />
<g
   id="Grupo_288_1_">
	<path
   d="m 808.9,307.1 c -2.8,0.3 -5.6,0.3 -8.4,0 -2.3,-0.4 -7.3,-1.5 -7.6,-1.7 -0.2,-0.1 -0.4,-0.3 -0.5,-0.5 -3.2,-3.5 -9.7,-11.3 -9.8,-11.6 -0.1,-0.3 -0.2,-0.7 -0.2,-1 -0.2,-4.9 1.5,-15.7 1.5,-15.7 0.2,-0.3 0.5,-0.6 0.7,-0.9 2.1,-2 4.4,-3.9 6.8,-5.6 l 5.4,-4 1.4,-0.2 c 5.2,0.1 9.1,1.1 14.2,2 0.4,0 0.8,0.3 1,0.6 l 7.5,9.3 c 0.8,1 1.5,2.6 2.5,3.5 v 0.7 c -0.6,5.5 -0.9,9.5 -1.5,15 -0.9,0.9 -1.9,1.7 -3,2.3 -1.1,0.6 -2.1,1.3 -3,2.1 -2.3,1.9 -7,5.7 -7,5.7 z"
   class="st1"
   id="Caminho_255_1_" />
	<path
   d="m 188.7,117.8 c -2.9,-0.4 -5.8,-1.2 -8.6,-2.3 -2.2,-1 -7.1,-3.6 -7.3,-3.8 -0.2,-0.2 -0.3,-0.4 -0.4,-0.6 -2.3,-4.5 -6.8,-14.2 -6.9,-14.6 0,-0.4 0,-0.7 0.1,-1.1 1.1,-5 5.8,-15.7 5.8,-15.7 0.3,-0.3 0.7,-0.5 1,-0.7 2.7,-1.5 5.6,-2.8 8.5,-3.8 l 6.7,-2.6 1.5,0.1 c 5.3,1.5 9,3.6 14,5.9 0.4,0.1 0.7,0.5 0.8,0.9 l 5.1,11.6 c 0.6,1.2 0.8,3 1.6,4.3 l -0.2,0.7 c -2.2,5.5 -3.5,9.4 -5.7,14.9 -1.2,0.7 -2.4,1.2 -3.7,1.6 -1.3,0.3 -2.5,0.7 -3.7,1.3 -2.7,1.3 -8.6,3.9 -8.6,3.9 z"
   class="st2"
   id="Caminho_256_1_" />
	<g
   id="Grupo_245_1_">
		<path
   d="m 347.4,74.7 c 0,1.8 -0.3,3.6 -0.3,5.4 0,1.4 -0.6,6 0.5,7.1 1.6,1.7 10.8,0.4 13.3,0.9 1.6,-4 -0.5,-9.1 -0.6,-13.2 -4.3,-0.7 -8.9,-0.1 -13.2,-0.3"
   class="st1"
   id="Caminho_128_1_" />
		<path
   d="m 374.5,74.7 c 0,1.8 -0.3,3.6 -0.3,5.4 0,1.4 -0.6,6 0.5,7.1 1.6,1.7 10.8,0.4 13.3,0.9 1.6,-4 -0.5,-9.1 -0.6,-13.2 -4.3,-0.7 -8.9,-0.1 -13.2,-0.3"
   class="st0"
   id="Caminho_129_1_" />
		<path
   d="m 333.1,88.3 c 0,1.8 -0.3,3.6 -0.3,5.4 0,1.4 -0.6,6 0.5,7.1 1.6,1.7 10.8,0.4 13.3,0.9 1.6,-4 -0.5,-9.1 -0.6,-13.2 -4.3,-0.7 -8.9,-0.1 -13.2,-0.3"
   class="st3"
   id="Caminho_130_1_" />
		<path
   d="m 374.5,88.3 c 0,1.8 -0.3,3.6 -0.3,5.4 0,1.4 -0.6,6 0.5,7.1 1.6,1.7 10.8,0.4 13.3,0.9 1.6,-4 -0.5,-9.1 -0.6,-13.2 -4.3,-0.7 -8.9,-0.1 -13.2,-0.3"
   class="st4"
   id="Caminho_131_1_" />
		<path
   d="m 361.3,61.1 c 0,1.8 -0.2,3.6 -0.3,5.4 0,1.5 -0.6,6 0.5,7.1 1.6,1.7 10.8,0.4 13.3,0.9 1.6,-4 -0.5,-9.1 -0.6,-13.2 -4.3,-0.7 -8.9,-0.1 -13.2,-0.3"
   class="st3"
   id="Caminho_132_1_" />
		<path
   d="m 375.2,74.5 c -1.8,0 -3.6,-0.3 -5.4,-0.3 -1.4,0 -6,-0.6 -7.1,0.5 -1.6,1.6 -0.4,10.8 -0.9,13.3 4,1.6 9.1,-0.5 13.2,-0.6 0.7,-4.3 0.1,-8.9 0.3,-13.2"
   class="st5"
   id="Caminho_133_1_" />
		<path
   d="m 359.9,102 c -1.8,0 -3.6,-0.2 -5.4,-0.3 -1.5,0 -6,-0.6 -7.1,0.5 -1.7,1.6 -0.4,10.8 -0.9,13.3 4,1.6 9.1,-0.5 13.2,-0.6 0.7,-4.3 0.1,-8.9 0.3,-13.2"
   class="st6"
   id="Caminho_134_1_" />
		<path
   d="m 347.3,101.9 c 1.8,-0.1 3.6,0.2 5.4,0.1 1.4,0 6,0.4 7.1,-0.7 1.6,-1.7 0.1,-10.8 0.6,-13.3 -4.1,-1.5 -9.1,0.7 -13.1,0.9 -0.5,4.4 0.2,8.9 0.1,13.2"
   class="st7"
   id="Caminho_135_1_" />
	</g>
	<g
   id="Grupo_246_1_">
		<path
   d="m 64.5,294.8 c 0,1.9 -0.3,3.8 -0.3,5.8 0,1.5 -0.6,6.4 0.5,7.6 1.7,1.8 11.5,0.5 14.2,1 1.7,-4.3 -0.6,-9.7 -0.6,-14.1 -4.6,-0.7 -9.5,-0.1 -14.1,-0.3"
   class="st4"
   id="Caminho_128-2_1_" />
		<path
   d="m 108.9,293.6 c 0,1.9 -0.3,3.8 -0.3,5.8 0,1.5 -0.6,6.4 0.5,7.6 1.7,1.8 11.5,0.5 14.2,1 1.7,-4.3 -0.6,-9.7 -0.6,-14.1 -4.6,-0.7 -9.5,-0.1 -14.1,-0.3"
   class="st1"
   id="Caminho_129-2_1_" />
		<path
   d="m 93.5,321.6 c 0,1.9 -0.3,3.8 -0.3,5.8 0,1.5 -0.6,6.4 0.5,7.6 1.7,1.8 11.5,0.5 14.2,1 1.7,-4.3 -0.6,-9.7 -0.6,-14.1 -4.6,-0.7 -9.5,-0.1 -14.1,-0.3"
   class="st4"
   id="Caminho_131-2_1_" />
		<path
   d="m 94.8,279.1 c 0,1.9 -0.3,3.8 -0.3,5.8 0,1.5 -0.6,6.4 0.5,7.6 1.7,1.8 11.5,0.5 14.2,1 1.7,-4.3 -0.6,-9.7 -0.6,-14.1 -4.6,-0.7 -9.5,-0.1 -14.1,-0.3"
   class="st3"
   id="Caminho_132-2_1_" />
		<path
   d="m 79.8,322.6 c 1.9,-0.1 3.8,0.2 5.8,0.1 1.5,0 6.4,0.4 7.6,-0.7 1.7,-1.8 0.1,-11.5 0.6,-14.2 -4.3,-1.6 -9.7,0.8 -14,1 -0.6,4.7 0.2,9.5 0.1,14.1"
   class="st7"
   id="Caminho_135-2_1_" />
	</g>
	<g
   id="Grupo_247_1_">
		<path
   d="m 755.9,267.2 c -3.4,-4 -7.9,-7.6 -11.8,-11.3 -3.1,-2.9 -8.2,-8 -12.1,-9 -1.7,9.9 -1.5,20.6 -1.2,30.6 4.2,-0.9 9.3,-4.2 13.7,-5.8 4,-1.5 8.8,-2.9 11.8,-4.5"
   class="st0"
   id="Caminho_136_1_" />
		<path
   d="m 711.8,230 c 1,1.6 2.8,2.9 4,4.4 1.7,1.8 3.6,3.5 5.6,4.9 1.7,1.4 3.5,2.8 5.2,4.1 1.8,1.3 3.5,3.1 5.4,4 1.1,-2.3 1,-5.4 1.9,-7.9 0.8,-2.2 1.1,-4.5 1.8,-6.8 1.5,-4 2.5,-8.2 3.1,-12.4 -9.3,2.7 -18.6,6.1 -27.7,9.1 0.1,0.2 0.1,0 0.2,-0.1"
   class="st3"
   id="Caminho_137_1_" />
		<path
   d="m 712.4,230 c -0.1,2.7 -1,5.2 -1.4,7.9 -0.5,3.1 -0.4,2.3 -0.8,5.4 -0.5,3.4 -0.3,6.4 -1.2,9.8 -0.6,2.2 -1.8,6.5 -1.9,8.7 5.1,-4 8.4,-4.7 14.3,-7.8 3.5,-1.9 6.9,-4 10.2,-6.3 -0.1,-0.2 -12.6,-12.3 -19.2,-17.7 z"
   class="st5"
   id="Caminho_138_1_" />
	</g>
	<g
   id="Grupo_248_1_">
		<path
   d="m 247.3,174.2 c -4.9,3.1 -9.7,7.6 -14.3,11.3 -3.7,2.9 -10.1,7.8 -11.8,12 10.7,3.4 22.6,4.9 33.6,6.2 -0.3,-4.7 -3.2,-11 -4.3,-16 -1,-4.6 -1.8,-10.2 -3.1,-13.8"
   class="st0"
   id="Caminho_113_1_" />
		<path
   d="m 313.3,192.1 c -5.2,2.6 -7.7,7 -12.7,10.3 -4,2.6 -10.8,6.7 -13,10.7 10.3,4.5 19.8,6.3 30.6,8.7 0.1,-5.2 -0.7,-10.4 -2.4,-15.3 -1.5,-4.8 -2.5,-14.4 -2.5,-14.4 z"
   class="st1"
   id="Caminho_114_1_" />
		<path
   d="m 254.6,203.8 c 5.2,2.5 11.6,4.2 17.2,6.1 4.5,1.5 12,4.4 16.4,3.6 -2.8,-10.9 -7.9,-21.7 -12.7,-31.7 -3.8,2.8 -7.6,8.5 -11.3,12.2 -3.4,3.3 -7.6,7 -10,9.9"
   class="st7"
   id="Caminho_115_1_" />
		<path
   d="m 270.9,259.7 c 4.5,2.2 8.5,1.6 13.4,3.3 3.9,1.3 10.9,4.7 15.7,5.1 -2.5,-9.4 -6.8,-18.8 -11,-27.5 -3.3,2.4 -6.6,7.3 -9.8,10.5 -2.9,2.9 -6.6,6 -8.7,8.6"
   class="st7"
   id="Caminho_116_1_" />
		<path
   d="m 271.2,260.1 c -0.1,2 0.6,4.2 0.8,6.2 0.4,2.6 1,5.2 1.8,7.6 0.7,2.2 1.3,4.5 2,6.7 0.8,2.1 1.1,4.8 2.2,6.7 2.4,-1.3 4.1,-4.1 6.4,-5.6 2,-1.4 3.7,-3.2 5.6,-4.7 3.7,-2.6 7.1,-5.5 10.1,-8.8 -9.6,-3.3 -19.7,-6 -29.2,-8.9 0,0.2 0.1,0.1 0.3,0"
   class="st4"
   id="Caminho_117_1_" />
		<path
   d="m 288.1,241.4 c 1.7,1.6 4.2,2.7 6.2,4 2.6,1.6 5.4,3 8.3,4.1 2.5,1.1 5,2.3 7.5,3.2 2.5,0.9 5.1,2.6 7.7,3.1 0.6,-3.1 -0.5,-6.8 -0.2,-10 0.3,-2.9 -0.1,-5.8 0.1,-8.6 0.3,-5.1 0.5,-10.7 -0.2,-15.8 -10.3,6.1 -20.3,13.2 -30.2,19.5 0.2,0.2 0.1,-0.1 0.3,-0.2"
   class="st3"
   id="Caminho_118_1_" />
		<path
   d="m 199.3,217.1 c 1.9,-0.9 3.7,-2.6 5.5,-3.8 2.3,-1.6 4.4,-3.5 6.4,-5.5 1.8,-1.7 3.7,-3.4 5.3,-5.1 1.7,-1.7 4,-3.4 5.3,-5.3 -2.4,-1.6 -5.9,-1.9 -8.4,-3.4 -2.3,-1.3 -4.8,-1.9 -7.2,-3.1 -4.1,-2.1 -8.7,-4.2 -13.2,-5.3 1.5,10.7 3.9,21.5 5.7,32 0.2,-0.1 0,-0.1 -0.1,-0.3"
   class="st3"
   id="Caminho_119_1_" />
		<path
   d="m 254.9,204.7 c 1.3,4.2 0.7,10.6 1,15.5 0.2,4.7 0.2,9.3 0.5,14 2.3,-1 5.6,-4.4 7.9,-5.9 2.6,-1.7 5,-3.8 7.7,-5.4 2.5,-1.5 5,-2.9 7.5,-4.4 2.3,-1.3 4.8,-3.7 7.3,-4.5 0,-0.2 0,-0.3 0,-0.5 -3,-1 -6.2,-0.7 -9.3,-1.8 -2.9,-1 -6,-1.8 -8.9,-2.9 -4.1,-1.5 -10.2,-2.2 -13.5,-5.1"
   class="st2"
   id="Caminho_120_1_" />
		<path
   d="m 211.4,245.9 c 0.2,-4.3 -3,-9.2 -4.4,-13.2 -1,-2.8 -2.2,-5.6 -3.2,-8.4 -1.1,-2.9 -3.3,-5.1 -4.4,-8 0.1,-0.1 0.2,-0.2 0.4,-0.3 2.1,1.4 5.5,1.8 7.9,2.7 2.6,0.9 5.3,1.9 7.9,2.8 2.9,1 5.9,1.5 8.8,2.4 2.6,0.8 6.6,3.4 9.4,2.2 -3.4,3.1 -6.9,6 -10.3,9 -3.6,3.3 -12,10.8 -12.1,10.8 z"
   class="st2"
   id="Caminho_121_1_" />
		<path
   d="m 256.4,234.2 c 4.9,-2.9 9.4,-8.5 14.4,-11.6 5.4,-3.4 11.5,-5.9 16.9,-9.4 0.2,5 1,11.3 1.5,16.3 0.4,4 0.1,8.1 0.2,12.1 -2.7,0.4 -7.3,-1.6 -10,-2.4 -3.3,-1 -6.7,-2.1 -10.1,-2.8 -4.3,-0.9 -12.9,-2.2 -12.9,-2.2 z"
   class="st6"
   id="Caminho_122_1_" />
		<path
   d="m 256.4,233.7 c 4.9,1.5 11.2,1.1 16.1,2.5 5.4,1.5 10.6,4 16.1,5.5 -3.2,3.1 -6.9,7.3 -9.9,10.6 -2.4,2.6 -5.3,4.8 -7.9,7.3 -1.9,-1.5 -3.2,-5.7 -4.3,-7.9 -1.3,-2.8 -2.6,-5.6 -4.1,-8.3 -1.9,-3.3 -6,-9.7 -6,-9.7 z"
   class="st6"
   id="Caminho_123_1_" />
		<path
   d="m 211.3,246.2 c -0.7,-3.9 -2.9,-11.4 -4.7,-15 -2.3,-4.5 -5.3,-10 -7.3,-14.6 -3.7,5.2 -7,8.2 -11.7,12.7 -4.3,4 -7.2,6.5 -10.7,11.1 -0.1,-0.1 32,7.2 34.4,5.8 z"
   class="st6"
   id="Caminho_124_1_" />
		<path
   d="m 288.7,242.2 c 2.3,-2 5,-3.3 7.4,-5 2.8,-2 2.1,-1.5 4.9,-3.5 3.1,-2.3 5.4,-4.7 8.8,-6.7 2.2,-1.2 6.6,-3.6 8.5,-5.2 -7.2,-0.9 -10.3,-3 -17.4,-5.3 -4.3,-1.3 -8.6,-2.4 -13,-3.2 -0.1,-0.1 -0.1,19.3 0.8,28.9 z"
   class="st5"
   id="Caminho_125_1_" />
		<path
   d="m 199.3,216.5 c 3,0.6 5.6,1.9 8.5,2.8 3.3,1 2.5,0.8 5.8,1.8 3.7,1.1 7,1.3 10.6,2.9 2.3,1 6.9,3 9.3,3.5 -3.7,-6.3 -3.9,-10 -6.4,-17.1 -1.6,-4.2 -3.4,-8.3 -5.4,-12.3 0,0 -15.3,11.9 -22.4,18.4 z"
   class="st5"
   id="Caminho_126_1_" />
	</g>
	<g
   id="Grupo_249_1_">
		<path
   d="m 618.3,52.8 c 1.3,5.1 3.1,8.4 4.9,13.5 1.5,4 2.3,10.3 5.1,14.5 6,-8.3 13.3,-16.8 17.6,-26 -4.2,-1.1 -10.4,-0.4 -15.2,-0.9 -4.3,-0.4 -9.4,-1.3 -12.9,-1.3"
   class="st4"
   id="Caminho_156_1_" />
		<path
   d="m 655.1,88.8 c -1.4,-2.8 -0.8,-4.1 -1.9,-6.9 -1.2,-3.3 -1.2,-3.5 -2.4,-6.8 -1.4,-3.7 -1.7,-5.8 -2.7,-9.6 -0.6,-2.4 -1.8,-7.3 -2.8,-9.6 -2.9,6.3 -5.9,8.4 -10.2,14.2 -2.5,3.5 -4.8,7.1 -6.9,10.9 0.1,0 17.2,5.3 26.9,7.8 z"
   class="st7"
   id="Caminho_157_1_" />
	</g>
	<g
   id="Grupo_250_1_">
		<path
   d="m 867.7,144.1 c -2.2,0 -4.5,-0.3 -6.8,-0.3 -1.8,0 -7.5,-0.7 -8.9,0.6 -2.1,2 -0.5,13.5 -1.1,16.6 5,2 11.3,-0.6 16.4,-0.7 0.8,-5.4 0.1,-11.1 0.3,-16.5"
   class="st7"
   id="Caminho_167_1_" />
		<path
   d="m 868.4,111.6 c -2.2,0 -4.5,-0.3 -6.8,-0.3 -1.8,0 -7.5,-0.7 -8.9,0.6 -2.1,2 -0.5,13.5 -1.1,16.6 5,2 11.3,-0.6 16.4,-0.7 0.8,-5.4 0.1,-11.1 0.3,-16.5"
   class="st8"
   id="Caminho_168_1_" />
		<path
   d="m 851.5,61.5 c -2.2,0 -4.5,-0.3 -6.8,-0.3 -1.8,0 -7.5,-0.7 -8.9,0.6 -2.1,2 -0.5,13.5 -1.1,16.6 5,2 11.3,-0.6 16.4,-0.7 0.8,-5.4 0.1,-11.1 0.3,-16.5"
   class="st3"
   id="Caminho_169_1_" />
		<path
   d="m 851.5,111.6 c -2.2,0 -4.5,-0.3 -6.8,-0.3 -1.8,0 -7.5,-0.7 -8.9,0.6 -2.1,2 -0.5,13.5 -1.1,16.6 5,2 11.3,-0.6 16.4,-0.7 0.8,-5.4 0.1,-11.1 0.3,-16.5"
   class="st4"
   id="Caminho_170_1_" />
		<path
   d="m 799.3,146.3 c -2.2,0 -4.5,-0.3 -6.8,-0.3 -1.8,0 -7.5,-0.7 -8.8,0.6 -2.1,2 -0.5,13.5 -1.1,16.6 5,2 11.3,-0.6 16.4,-0.7 0.8,-5.4 0.1,-11.1 0.3,-16.5"
   class="st4"
   id="Caminho_171_1_" />
		<path
   d="m 886.3,112 c 0,-2.2 0.3,-4.5 0.3,-6.8 0,-1.8 0.7,-7.5 -0.6,-8.9 -2,-2.1 -13.5,-0.5 -16.6,-1.1 -2,5 0.6,11.3 0.7,16.4 5.4,0.8 11.1,0.1 16.5,0.3"
   class="st3"
   id="Caminho_172_1_" />
		<path
   d="m 816.2,129 c -2.2,0 -4.5,-0.3 -6.8,-0.3 -1.8,0 -7.5,-0.7 -8.9,0.6 -2.1,2 -0.5,13.5 -1.1,16.6 5,2 11.3,-0.6 16.4,-0.7 0.8,-5.4 0.1,-11.1 0.3,-16.5"
   class="st3"
   id="Caminho_173_1_" />
		<path
   d="m 834.8,111.7 c 0,-2.2 0.3,-4.5 0.3,-6.8 0,-1.8 0.7,-7.5 -0.6,-8.9 -2,-2.1 -13.5,-0.5 -16.6,-1.1 -2,5 0.6,11.3 0.7,16.4 5.4,0.8 11.1,0.1 16.5,0.3"
   class="st5"
   id="Caminho_174_1_" />
		<path
   d="m 834.4,94.9 c 0,-2.2 0.3,-4.5 0.3,-6.8 0,-1.8 0.7,-7.5 -0.6,-8.9 -2,-2.1 -13.5,-0.5 -16.6,-1.1 -2,5 0.6,11.3 0.7,16.4 5.4,0.8 11.1,0.1 16.5,0.3"
   class="st6"
   id="Caminho_175_1_" />
		<path
   d="m 904.3,96.3 c 0,-2.2 0.3,-4.5 0.3,-6.8 0,-1.8 0.7,-7.5 -0.6,-8.8 -2,-2.1 -13.5,-0.5 -16.6,-1.1 -2,5 0.7,11.3 0.7,16.4 5.4,0.8 11.1,0.1 16.5,0.3"
   class="st6"
   id="Caminho_176_1_" />
		<path
   d="m 834.5,79.1 c 0.1,2.2 -0.2,4.5 -0.1,6.8 0,1.8 -0.5,7.5 0.8,8.8 2.1,2 13.5,0.2 16.6,0.7 1.8,-5.1 -1,-11.3 -1.2,-16.4 -5.4,-0.7 -11.1,0.2 -16.5,0.1"
   class="st7"
   id="Caminho_177_1_" />
		<path
   d="m 851.3,128.2 c -5.3,0 -11.4,-1.4 -16.5,-0.6 -0.3,5.9 -0.6,12 -0.4,17.9 1.9,-1.7 7,-1.6 9.4,-1.8 1.3,-0.1 5.9,0.6 6.8,-0.2 0.9,-0.8 0.4,-6.7 0.5,-8.4 0,-1.1 0.4,-2.2 0.4,-3.3 0,-1.2 -0.5,-2.2 -0.4,-3.4"
   class="st5"
   id="Caminho_178_1_" />
	</g>
	<g
   id="Grupo_251_1_">
		<path
   d="m 110.9,200.9 c 1.6,-4.5 3.2,-8.5 3.9,-13.2 0.3,-1.8 0.7,-11 -2.4,-6.3 -2.5,3.9 -3.5,9.1 -3.6,13.8 0,1.4 -0.3,2.9 -0.1,4.2 0.3,1.6 1.7,2.5 2.6,0.5"
   class="st7"
   id="Caminho_180_1_" />
		<path
   d="m 122,184.4 c 3.6,-3.1 6.8,-5.9 9.7,-9.8 1.1,-1.5 5.9,-9.3 1,-6.6 -4,2.2 -7.4,6.4 -9.7,10.4 -0.7,1.2 -1.7,2.4 -2.1,3.7 -0.6,1.5 0.2,2.9 1.9,1.6"
   class="st7"
   id="Caminho_181_1_" />
		<path
   d="m 143.2,175.1 c -3.7,1.4 -7,2.5 -10.2,4.7 -1.3,0.8 -6.9,5.7 -2.1,5.3 3.9,-0.4 7.6,-2.7 10.3,-5.3 0.8,-0.7 1.9,-1.4 2.5,-2.4 0.8,-1.1 0.4,-2.6 -1.3,-2.2"
   class="st7"
   id="Caminho_182_1_" />
		<path
   d="m 102.3,159 c -3.2,-2.6 -6,-4.9 -9.6,-6.9 -1.4,-0.7 -8.6,-3.9 -5.6,-0.3 2.5,3 6.4,5.3 10.1,6.8 1.1,0.5 2.2,1 3.4,1.4 1.4,0.3 2.4,-0.4 1,-1.6"
   class="st7"
   id="Caminho_183_1_" />
		<path
   d="m 136.4,191 c 4.1,-1.3 8.4,-1.1 12.4,-2.8 1,-0.4 7.3,-3.1 3.4,-4 -1.8,-0.4 -4.7,0.7 -6.5,1.2 -1.8,0.5 -3.6,1.1 -5.3,1.9 -0.9,0.5 -1.8,0.9 -2.7,1.4 -0.5,0.3 -2.7,1.7 -0.8,1.9"
   class="st7"
   id="Caminho_184_1_" />
		<path
   d="m 89,161.8 c -2.1,0.4 -5,2.9 -7,4 -2,1.1 -4,2.4 -6,3.7 -1.5,1 -5.5,4.2 -1.3,3.5 4.6,-0.9 8.9,-3.7 12.3,-7 0.8,-0.7 1.6,-1.5 2.4,-2.2 1.5,-1.8 0,-1.5 -1.7,-1.2"
   class="st7"
   id="Caminho_185_1_" />
		<path
   d="m 93.6,171 c 1.7,1.1 5.3,0.9 7.4,1.4 2.1,0.4 4.3,0.7 6.5,1 1.7,0.2 6.5,0.2 3.1,-1.8 -3.9,-2.3 -8.6,-2.7 -13,-2.3 -1,0 -2,0.1 -3.1,0.2 -2.1,0.5 -0.9,1.2 0.5,2"
   class="st7"
   id="Caminho_186_1_" />
		<path
   d="m 109.9,176.6 c -4.6,2.3 -9.4,3.9 -13.8,6.6 -1.1,0.6 -2,1.3 -2.9,2.2 -0.9,1.1 -0.7,1.3 0.5,1.3 4.8,-0.1 11.1,-4.1 15.1,-7 0.8,-0.5 1.6,-1.1 2.3,-1.8 0.7,-1 0.2,-1.5 -1.2,-0.9"
   class="st7"
   id="Caminho_187_1_" />
	</g>
	<path
   d="m 943.5,242.2 c 2.2,-0.7 4.4,-1.7 6.4,-3 1.6,-1.1 5.1,-3.8 5.2,-4 0.1,-0.2 0.2,-0.3 0.2,-0.5 1.2,-3.8 3.4,-12 3.4,-12.3 0,-0.3 -0.1,-0.6 -0.2,-0.8 -1.6,-3.8 -6.7,-11.4 -6.7,-11.4 -0.3,-0.2 -0.6,-0.3 -0.9,-0.4 -2.3,-0.8 -4.7,-1.4 -7.2,-1.8 l -5.6,-1.1 -1.1,0.1 c -3.9,1.9 -6.5,4 -10.1,6.5 -0.3,0.2 -0.5,0.5 -0.5,0.8 l -2.4,9.8 c -0.3,1 -0.2,2.5 -0.7,3.6 l 0.2,0.5 c 2.5,4 4,6.9 6.5,10.9 1,0.4 2.1,0.6 3.1,0.7 1,0.1 2.1,0.2 3.1,0.5 2.3,0.7 7.3,1.9 7.3,1.9 z"
   class="st3"
   id="Caminho_257_1_" />
	<g
   id="Grupo_252_1_">
		<path
   d="m 709.6,130.4 c -3.4,-3.4 -6.3,-6.5 -10.4,-9.1 -1.5,-1 -9.6,-5.3 -6.7,-0.5 2.4,3.9 6.8,7 11,9 1.2,0.6 2.5,1.5 3.8,1.9 1.6,0.4 2.9,-0.5 1.6,-2.1"
   class="st1"
   id="Caminho_196_1_" />
		<path
   d="m 699.3,113.3 c -1.3,-4.6 -2.5,-8.7 -4.7,-13 -0.9,-1.6 -5.9,-9.3 -5.5,-3.7 0.3,4.6 2.6,9.4 5.3,13.2 0.8,1.1 1.5,2.5 2.4,3.5 1.2,1.2 2.8,1 2.3,-1"
   class="st1"
   id="Caminho_197_1_" />
		<path
   d="m 699.9,90.2 c -0.3,3.9 -0.6,7.4 0,11.3 0.2,1.5 2.3,8.6 3.9,4.2 1.3,-3.7 0.8,-8 -0.4,-11.6 -0.4,-1.1 -0.5,-2.3 -1.1,-3.3 -0.7,-1.2 -2.2,-1.5 -2.5,0.3"
   class="st1"
   id="Caminho_198_1_" />
		<path
   d="m 668.1,120.5 c -3.7,1.8 -6.9,3.4 -10.3,5.8 -1.3,0.9 -7.1,6.1 -2.6,4.9 3.7,-1 7.5,-3.6 10.4,-6.3 1,-0.8 1.8,-1.6 2.7,-2.5 0.9,-1.1 0.6,-2.3 -1,-1.6"
   class="st1"
   id="Caminho_199_1_" />
		<path
   d="m 711.4,103.1 c 0.6,-4.2 2.5,-8.1 2.7,-12.4 0.1,-1.1 0.3,-7.9 -2.2,-4.8 -1.2,1.5 -1.4,4.5 -1.7,6.4 -0.4,1.9 -0.5,3.8 -0.5,5.7 0,1 0,2 0.1,3 0.1,0.6 0.4,3.1 1.4,1.6"
   class="st1"
   id="Caminho_200_1_" />
		<path
   d="m 665,133.6 c -0.6,2.1 0.5,5.7 0.6,8.1 0.2,2.3 0.5,4.7 0.8,7 0.2,1.8 1.5,6.7 2.6,2.7 1.2,-4.6 0.4,-9.6 -1.1,-14.1 -0.3,-1.1 -0.6,-2.1 -1,-3.1 -1,-2.1 -1.4,-0.7 -1.8,1.1"
   class="st1"
   id="Caminho_201_1_" />
		<path
   d="m 675.2,133.4 c 1.7,-1.1 3.1,-4.4 4.4,-6.2 1.3,-1.8 2.5,-3.7 3.6,-5.5 0.9,-1.5 2.9,-5.8 -0.4,-3.5 -3.7,2.5 -6.1,6.6 -7.6,10.8 -0.4,0.9 -0.8,1.9 -1.1,2.9 -0.5,2.1 0.7,1.3 2.1,0.4"
   class="st1"
   id="Caminho_202_1_" />
		<path
   d="m 687.2,121 c 0.1,5.1 -0.5,10.2 0.2,15.3 0.1,1.2 0.4,2.4 0.8,3.6 0.6,1.3 0.9,1.2 1.4,0.1 2,-4.4 0.9,-11.8 0,-16.7 -0.1,-1 -0.4,-1.9 -0.7,-2.9 -0.6,-1 -1.3,-0.8 -1.4,0.7"
   class="st1"
   id="Caminho_203_1_" />
	</g>
</g>
</svg>
