<svg id="Camada_1" data-name="Camada 1" xmlns="http://www.w3.org/2000/svg" viewBox="0 0 1280 558"><defs><style>.cls-1{fill:#f49725;}.cls-2{fill:#b25aa7;}.cls-3{fill:#f1eee9;}.cls-4{fill:#efcc3e;}.cls-5{fill:#83c8e8;}.cls-6{fill:#e94941;}.cls-7{fill:#4b8ed2;}</style></defs><path id="Caminho_232" data-name="Caminho 232" class="cls-1" d="M75.94,233.81a40.45,40.45,0,0,1-9-4.26c-2.25-1.57-7.19-5.34-7.41-5.64a2.52,2.52,0,0,1-.34-.77c-1.72-5.38-4.79-17.1-4.76-17.5a3.74,3.74,0,0,1,.35-1.18c2.25-5.33,9.48-16.21,9.48-16.21a11,11,0,0,1,1.29-.63A71.37,71.37,0,0,1,75.66,185l7.88-1.61,1.66.45c5.57,2.68,9.28,5.73,14.34,9.28a1.5,1.5,0,0,1,.76,1.15l3.44,13.86c.37,1.49.27,3.53,1,5.06l-.3.73c-3.48,5.66-5.75,9.75-9.22,15.41a21.09,21.09,0,0,1-4.43,1,17.33,17.33,0,0,0-4.35.76C83,232.07,75.94,233.81,75.94,233.81Z"/><path id="Caminho_234" data-name="Caminho 234" class="cls-2" d="M470.77,449a40.66,40.66,0,0,1-5.85-8.12c-1.2-2.46-3.7-8.16-3.75-8.53a2.57,2.57,0,0,1,.07-.83c1.11-5.54,4.1-17.28,4.32-17.62a3.82,3.82,0,0,1,.88-.87c4.55-3.57,16.15-9.58,16.15-9.58a11.58,11.58,0,0,1,1.44.08,71.45,71.45,0,0,1,10.15,2.65l7.67,2.42,1.23,1.19c3.57,5,5.34,9.51,8,15.08a1.46,1.46,0,0,1,.11,1.36L507.52,440c-.39,1.49-1.47,3.22-1.59,4.91l-.62.48c-5.78,3.27-9.75,5.75-15.54,9a20.72,20.72,0,0,1-4.36-1.26,17.24,17.24,0,0,0-4.18-1.44C477.78,450.89,470.77,449,470.77,449Z"/><g id="Grupo_230" data-name="Grupo 230"><path id="Caminho_188" data-name="Caminho 188" class="cls-3" d="M216.32,367.16c-2.86,6.13-5.51,11.61-7.1,18.27-.61,2.55-2.33,15.42,2.59,9.12,4-5.16,6.07-12.5,6.69-19,.18-1.92.8-4.08.63-6-.19-2.33-2.07-3.71-3.54-1.06"/><path id="Caminho_189" data-name="Caminho 189" class="cls-3" d="M198,437.45c3.24-5.93,6.21-11.24,8.25-17.77.79-2.51,3.43-15.21-1.8-9.23-4.3,4.9-6.82,12.09-7.92,18.54-.32,1.9-1.08,4-1.07,5.94,0,2.33,1.72,3.81,3.34,1.26"/><path id="Caminho_190" data-name="Caminho 190" class="cls-3" d="M173.1,433c5.54-3.89,10.55-7.33,15.27-12.28,1.82-1.9,9.81-12.12,2.47-9.08-6,2.49-11.46,7.82-15.3,13.13-1.14,1.56-2.75,3.12-3.59,4.85-1,2.09-.15,4.18,2.44,2.61"/><path id="Caminho_191" data-name="Caminho 191" class="cls-3" d="M158.46,418.17c6.67-1.11,12.68-2,19.08-4.45,2.46-.93,14.09-6.68,6.16-7.12-6.51-.36-13.72,2.09-19.48,5.2-1.7.92-3.83,1.62-5.34,2.82-1.83,1.45-1.94,3.71,1.07,3.41"/><path id="Caminho_192" data-name="Caminho 192" class="cls-3" d="M183.33,378c5.36,4.91,9.16,11.08,14.92,15.64,1.45,1.14,10.67,8.29,8.22,2.08-1.12-2.85-5.18-6.16-7.46-8.35a57.87,57.87,0,0,0-7.39-6.23c-1.43-1-2.76-2-4.22-2.93-.86-.53-4.6-2.63-3.25.12"/><path id="Caminho_193" data-name="Caminho 193" class="cls-3" d="M238.9,405.71c-2.78-1.28-8.15-.68-11.41-1s-6.65-.43-10-.55c-2.58-.1-9.8.56-4.37,3,6.12,2.73,13.37,2.8,19.93,1.7a37.42,37.42,0,0,0,4.59-.71c3.18-.95,1.26-1.75-1.05-2.81"/><path id="Caminho_194" data-name="Caminho 194" class="cls-3" d="M182.61,398c-2.48-1.51-7.53-1.35-10.54-1.94s-6.15-1-9.22-1.38c-2.4-.31-9.18-.25-4.34,2.61,5.46,3.23,12.21,3.91,18.42,3.36a34.76,34.76,0,0,0,4.33-.33c3-.68,1.33-1.64-.73-2.89"/><path id="Caminho_195" data-name="Caminho 195" class="cls-3" d="M241,380.68c-6.12,3.94-12.67,7.05-18.41,11.63a17.31,17.31,0,0,0-3.72,3.63c-1.08,1.74-.75,1.95,1,1.73,6.8-.89,15-7.67,20.16-12.37a16.87,16.87,0,0,0,2.93-3c.81-1.52,0-2.17-1.82-1.14"/></g><path id="Caminho_233" data-name="Caminho 233" class="cls-4" d="M992.63,191.05c1.15-5.68,2.33-11.44,4.85-16.66,2.07-4.28,7.2-13.77,7.64-14.23a4.26,4.26,0,0,1,1.22-.79c8.75-4.4,28-12.86,28.7-12.92a6.55,6.55,0,0,1,2.11.28c9.74,2.4,30.35,11.83,30.35,11.83a20.35,20.35,0,0,1,1.43,2.05,123.45,123.45,0,0,1,7.21,16.71l4.9,13.06-.32,3c-3.08,10.27-7.29,17.46-12,27.09A2.59,2.59,0,0,1,1067,222l-22.82,9.67c-2.45,1-6,1.42-8.4,3.06l-1.33-.32c-10.64-4.42-18.27-7.19-28.91-11.61,0,0-2.54-4.83-3-7.31a30.48,30.48,0,0,0-2.49-7.25C997.54,202.66,992.63,191.05,992.63,191.05Z"/><g id="Grupo_141" data-name="Grupo 141"><path id="Caminho_113" data-name="Caminho 113" class="cls-4" d="M1088.74,301.72c-3.78,6.88-6.47,15.28-9.52,22.71-2.42,5.9-6.81,15.84-6.12,21.92,14.89-3,29.91-9,43.79-14.75-3.44-5.4-10.91-10.89-15.59-16.16-4.26-4.79-8.83-10.81-12.67-14.3"/><path id="Caminho_114" data-name="Caminho 114" class="cls-4" d="M1178.5,279.65c-4.46,6.46-4.45,13.35-8.24,20.43-3,5.63-8.39,15.07-8.32,21.19,15.12-1.49,27.49-5.49,41.87-9.77A63.24,63.24,0,0,0,1191,295C1186,290.33,1178.5,279.65,1178.5,279.65Z"/><path id="Caminho_116" data-name="Caminho 116" class="cls-3" d="M1172.75,387.37c6.78-.4,11.08-3.7,17.93-4.89,5.44-1,16-1.66,22-4.21-9.07-9.52-20.4-17.76-31-25.29-2.37,5-3,13-4.65,18.86-1.56,5.34-3.86,11.46-4.64,15.88"/><path id="Caminho_117" data-name="Caminho 117" class="cls-2" d="M1173.39,387.63c1.17,2.38,3.45,4.58,5,6.76a57.88,57.88,0,0,0,7.17,7.83c2.24,2.18,4.45,4.53,6.76,6.57s4.47,4.88,6.94,6.51c2-3.07,2.21-7.49,3.9-10.83,1.5-3,2.23-6.23,3.61-9.23a87.18,87.18,0,0,0,6.23-17c-13.52,2.38-27.16,5.8-40.38,8.59.13.27.17,0,.37-.13"/><path id="Caminho_118" data-name="Caminho 118" class="cls-1" d="M1181.11,354.45c3,.76,6.74.37,9.88.63a67.74,67.74,0,0,0,12.49-.52c3.66-.36,7.45-.57,11-1.1s7.79-.33,11.13-1.32c-1.28-4.09-5.07-7.67-6.79-11.73-1.53-3.59-3.92-6.73-5.58-10.26-2.94-6.27-6.37-13-10.6-18.51-8.12,14-15.38,28.86-22.9,42.88.34.09.13-.16.16-.43"/><path id="Caminho_119" data-name="Caminho 119" class="cls-1" d="M1060.13,383.86c1.7-2.27,2.68-5.5,4-8a60.93,60.93,0,0,0,3.94-10.61c1-3.18,2.14-6.42,3-9.6s2.46-6.61,2.8-9.75c-3.86-.36-8.17,1.55-12.16,1.57-3.54,0-7,.91-10.52,1.05a93,93,0,0,0-19.16,2.37c8.83,11.67,18.7,22.94,27.76,34.13.19-.26-.09-.17-.3-.29"/><path id="Caminho_120" data-name="Caminho 120" class="cls-5" d="M1117.68,332.79c4.34,4.15,7.84,12,11.28,17.68,3.29,5.42,6.3,10.84,9.73,16.23,2-2.69,3.69-8.89,5.47-12.19,2-3.75,3.39-7.7,5.57-11.39,2-3.34,4-6.79,6-10.12,1.87-3.12,3.28-7.61,5.72-10.17a1.22,1.22,0,0,0-.29-.59c-4.21.77-7.83,3.19-12.15,4-4.13.78-8.25,1.74-12.36,2.4-5.88.94-13.52,4.08-19.37,2.83"/><path id="Caminho_121" data-name="Caminho 121" class="cls-5" d="M1093.33,410c-2.6-5.16-9.6-8.92-13.86-12.74-3-2.67-6.21-5.15-9.3-7.76s-7.25-3.93-10.38-6.6a1.28,1.28,0,0,1,.27-.59c3.41.23,7.65-1.51,11.13-2.06,3.72-.59,7.53-1.22,11.25-1.83,4.1-.67,7.92-2.1,12-2.93,3.57-.73,10-.26,12.5-3.51-2,5.93-4.25,11.56-6.33,17.41-2.18,6.1-7.19,20.54-7.19,20.54Z"/><path id="Caminho_122" data-name="Caminho 122" class="cls-6" d="M1138.81,366.68c3.88-6.74,5.54-16.2,9.36-23.15,4.18-7.57,9.74-14.42,13.8-22.11,3.48,5.77,8.6,12.65,12.48,18.23,3.11,4.46,5.38,9.5,8.24,14.16-2.94,2.31-9.67,3-13.42,3.79-4.59,1-9.31,2-13.8,3.34C1149.85,362.64,1138.81,366.68,1138.81,366.68Z"/><path id="Caminho_124" data-name="Caminho 124" class="cls-6" d="M1093.43,410.35c-3.31-4.12-10.9-11.63-15.41-14.67-5.64-3.79-12.9-8.35-18.23-12.48-1,8.64-2.91,14.35-5.57,22.74-2.39,7.56-4.26,12.44-5.45,20.12C1048.77,426.06,1091.53,413.56,1093.43,410.35Z"/><path id="Caminho_126" data-name="Caminho 126" class="cls-7" d="M1059.78,383.16c3.88-1.27,7.91-1.38,11.85-2.25,4.56-1,3.45-.69,8-1.7,5.13-1.14,9.19-3,14.44-3.58,3.37-.35,10.08-1,13.31-1.95-8.46-5.05-11.12-9.29-18.75-16a152,152,0,0,0-14.45-11S1063.83,370.81,1059.78,383.16Z"/></g><g id="Grupo_231" data-name="Grupo 231"><path id="Caminho_167" data-name="Caminho 167" class="cls-3" d="M288.75,238.48c0-4.35.62-8.68.63-13.17,0-3.49,1.4-14.61-1.18-17.26-3.92-4-26.25-1-32.35-2.21-3.84,9.79,1.26,22.09,1.41,32,10.55,1.59,21.67.15,32.12.63"/><path id="Caminho_168" data-name="Caminho 168" class="cls-4" d="M352,239.89c0-4.36.62-8.69.63-13.18,0-3.48,1.4-14.61-1.18-17.25-3.92-4-26.25-1-32.35-2.21-3.84,9.79,1.26,22.09,1.41,32,10.55,1.6,21.67.15,32.12.64"/><path id="Caminho_169" data-name="Caminho 169" class="cls-1" d="M449.85,206.91c0-4.36.62-8.68.64-13.18,0-3.48,1.4-14.6-1.19-17.25-3.92-4-26.25-1-32.35-2.21-3.84,9.79,1.27,22.09,1.41,32,10.55,1.6,21.68.16,32.13.64"/><path id="Caminho_170" data-name="Caminho 170" class="cls-2" d="M352,206.91c0-4.36.62-8.68.63-13.18,0-3.48,1.4-14.6-1.18-17.25-3.92-4-26.25-1-32.35-2.21-3.84,9.79,1.26,22.09,1.41,32,10.55,1.6,21.67.16,32.12.64"/><path id="Caminho_172" data-name="Caminho 172" class="cls-1" d="M351.26,274.68c4.36,0,8.69.62,13.18.64,3.48,0,14.61,1.4,17.25-1.19,4-3.92,1-26.24,2.21-32.35-9.79-3.84-22.09,1.27-32,1.41-1.6,10.55-.15,21.68-.64,32.13"/><path id="Caminho_173" data-name="Caminho 173" class="cls-4" d="M318.14,138c0-4.36.62-8.68.64-13.18,0-3.48,1.4-14.6-1.19-17.25-3.91-4-26.25-1-32.34-2.21-3.85,9.79,1.26,22.09,1.4,32,10.55,1.6,21.68.16,32.13.64"/><path id="Caminho_174" data-name="Caminho 174" class="cls-7" d="M351.82,174.27c4.36,0,8.69.62,13.18.64,3.48,0,14.61,1.4,17.25-1.19,4-3.91,1-26.24,2.21-32.34-9.79-3.85-22.09,1.26-32,1.4-1.6,10.55-.15,21.68-.64,32.13"/><path id="Caminho_175" data-name="Caminho 175" class="cls-6" d="M384.81,173.5c4.36,0,8.69.62,13.18.63,3.48,0,14.61,1.4,17.25-1.18,4-3.92,1-26.24,2.21-32.35-9.79-3.84-22.09,1.26-32,1.41-1.6,10.55-.16,21.67-.64,32.12"/><path id="Caminho_176" data-name="Caminho 176" class="cls-5" d="M382,309.77c4.36,0,8.69.62,13.18.63,3.48,0,14.61,1.4,17.25-1.18,4-3.92,1-26.25,2.21-32.35-9.79-3.85-22.09,1.26-32,1.4-1.6,10.56-.16,21.68-.64,32.13"/><path id="Caminho_177" data-name="Caminho 177" class="cls-3" d="M415.48,173.69c-4.36.13-8.7-.38-13.19-.28-3.49.09-14.65-1-17.22,1.65-3.9,4-.34,26.26-1.34,32.4,9.88,3.58,22-1.86,32-2.27,1.31-10.59-.42-21.67-.23-32.13"/><path id="Caminho_178" data-name="Caminho 178" class="cls-7" d="M319.72,206.42c0-10.26,2.7-22.14,1.08-32.17-11.51-.51-23.33-1.24-34.82-.83,3.3,3.8,3,13.57,3.46,18.4.23,2.56-1.15,11.44.47,13.29,1.76,2,13.11.83,16.37.9,2.19.05,4.34.7,6.39.73,2.3,0,4.37-1,6.64-.73"/></g><g id="Grupo_232" data-name="Grupo 232"><path id="Caminho_180" data-name="Caminho 180" class="cls-3" d="M951.51,215.46c2.33-6.35,4.5-12.05,5.52-18.81.39-2.6,1-15.57-3.36-8.87-3.58,5.49-5,13-5,19.53,0,1.93-.45,4.13-.12,6,.39,2.31,2.38,3.52,3.62.76"/><path id="Caminho_181" data-name="Caminho 181" class="cls-3" d="M967.32,191.92c5.07-4.46,9.67-8.43,13.83-13.87,1.59-2.08,8.42-13.12,1.46-9.29-5.72,3.13-10.54,9-13.78,14.71-1,1.68-2.39,3.41-3,5.22-.78,2.19.31,4.17,2.71,2.33"/><path id="Caminho_182" data-name="Caminho 182" class="cls-3" d="M997.39,178.82c-5.2,1.93-9.91,3.6-14.51,6.71-1.77,1.2-9.75,8.14-3,7.48,5.49-.53,10.75-3.79,14.63-7.47,1.14-1.08,2.7-2,3.61-3.35,1.1-1.6.54-3.73-1.86-3.05"/><path id="Caminho_183" data-name="Caminho 183" class="cls-3" d="M939.34,156c-4.49-3.62-8.49-6.92-13.62-9.73-2-1.08-12.14-5.54-7.88-.37,3.5,4.24,9.11,7.55,14.31,9.63a34.6,34.6,0,0,0,4.77,1.95c1.94.43,3.39-.6,1.48-2.33"/><path id="Caminho_184" data-name="Caminho 184" class="cls-3" d="M987.69,201.36c5.8-1.78,11.91-1.6,17.59-3.92,1.43-.58,10.41-4.37,4.8-5.69-2.59-.6-6.66,1-9.2,1.68a40.56,40.56,0,0,0-7.57,2.76c-1.31.66-2.6,1.2-3.86,1.93-.74.42-3.78,2.38-1.19,2.74"/><path id="Caminho_185" data-name="Caminho 185" class="cls-3" d="M920.55,159.93c-3,.52-7.1,4.06-10,5.64s-5.72,3.42-8.52,5.19c-2.18,1.39-7.75,6-1.91,4.94,6.59-1.22,12.61-5.27,17.39-9.89a39.13,39.13,0,0,0,3.38-3.19c2.08-2.58,0-2.16-2.46-1.72"/><path id="Caminho_186" data-name="Caminho 186" class="cls-3" d="M927.05,173c2.48,1.51,7.53,1.34,10.54,1.93s6.16,1,9.23,1.36c2.4.3,9.18.23,4.33-2.62-5.47-3.22-12.22-3.88-18.42-3.32a35.07,35.07,0,0,0-4.34.33c-3,.69-1.32,1.65.74,2.89"/><path id="Caminho_187" data-name="Caminho 187" class="cls-3" d="M950.14,181c-6.53,3.2-13.4,5.53-19.63,9.41a17,17,0,0,0-4.12,3.17c-1.27,1.6-1,1.85.75,1.83,6.86-.1,15.78-5.87,21.46-9.94a16.86,16.86,0,0,0,3.26-2.63c1-1.41.25-2.15-1.68-1.34"/></g><g id="Grupo_233" data-name="Grupo 233"><path id="Caminho_128" data-name="Caminho 128" class="cls-2" d="M739.77,358.66c0,3.28-.47,6.54-.48,9.93,0,2.62-1.06,11,.89,13,3,3,19.78.78,24.37,1.66,2.9-7.37-.95-16.64-1-24.12-8-1.2-16.34-.11-24.21-.47"/><path id="Caminho_129" data-name="Caminho 129" class="cls-4" d="M815.91,356.54c0,3.28-.46,6.55-.47,9.93,0,2.62-1.06,11,.89,13,2.95,3,19.77.78,24.37,1.66,2.9-7.37-1-16.64-1.06-24.11-7.95-1.21-16.33-.12-24.2-.48"/><path id="Caminho_131" data-name="Caminho 131" class="cls-5" d="M789.46,404.67c0,3.28-.47,6.55-.48,9.93,0,2.62-1.06,11,.89,13,3,3,19.77.78,24.37,1.66,2.9-7.37-1-16.64-1.06-24.11-7.95-1.21-16.33-.12-24.2-.48"/><path id="Caminho_132" data-name="Caminho 132" class="cls-1" d="M791.71,331.7c0,3.28-.47,6.54-.48,9.93,0,2.62-1.06,11,.9,13,3,3,19.77.78,24.36,1.66,2.9-7.37-1-16.64-1-24.12-8-1.2-16.34-.11-24.21-.47"/><path id="Caminho_135" data-name="Caminho 135" class="cls-3" d="M766,406.41c3.28-.09,6.55.3,9.94.21,2.62-.06,11,.76,13-1.24,2.94-3,.25-19.78,1-24.4-7.45-2.7-16.62,1.39-24.08,1.7-1,8,.32,16.33.17,24.21"/></g><g id="Grupo_234" data-name="Grupo 234"><path id="Caminho_136" data-name="Caminho 136" class="cls-4" d="M759.12,117.15c-5.71,4.66-11,11-16.26,16.46-4.18,4.3-11.49,11.43-13,17,14,2.59,29.25,2.61,43.36,2.48-1.11-5.91-5.71-13.31-7.94-19.55-2-5.67-3.91-12.52-6-16.91"/><path id="Caminho_137" data-name="Caminho 137" class="cls-1" d="M705.39,178.76c2.28-1.38,4.26-3.86,6.29-5.6a58,58,0,0,0,7.15-7.87c2-2.43,4.11-4.85,5.94-7.34s4.46-4.9,5.86-7.52c-3.25-1.67-7.68-1.52-11.16-2.9-3.09-1.23-6.42-1.65-9.54-2.76a86.6,86.6,0,0,0-17.54-4.65c3.61,13.27,8.27,26.56,12.25,39.48.26-.15,0-.17-.16-.35"/><path id="Caminho_138" data-name="Caminho 138" class="cls-3" d="M705.32,178c3.84.25,7.38,1.57,11.13,2.19,4.33.71,3.25.61,7.6,1.32,4.87.81,9.08.6,13.84,1.95,3.06.87,9.14,2.67,12.3,3-5.61-7.37-6.45-12-10.75-20.52a145.93,145.93,0,0,0-8.75-14.62S713.18,168.67,705.32,178Z"/></g></svg>