<svg id="Camada_1" data-name="Camada 1" xmlns="http://www.w3.org/2000/svg" viewBox="0 0 1280 558"><defs><style>.cls-1{fill:#f1eee9;}.cls-2{fill:#83c8e8;}.cls-3{fill:#efcc3e;}.cls-4{fill:#f49725;}.cls-5{fill:#b25aa7;}.cls-6{fill:#4b8ed2;}.cls-7{fill:#e94941;}.cls-8{fill:#50a545;}.cls-9{fill:#e4e4e4;}</style></defs><g id="Grupo_288" data-name="Grupo 288"><path id="Caminho_255" data-name="Caminho 255" class="cls-1" d="M1045.81,432.29a45.7,45.7,0,0,1-11.45-.05c-3.1-.53-10-2.06-10.42-2.26a2.94,2.94,0,0,1-.73-.63c-4.38-4.75-13.25-15.43-13.41-15.86a4.68,4.68,0,0,1-.21-1.39c-.24-6.62,2-21.41,2-21.41a14.17,14.17,0,0,1,1-1.28,81.74,81.74,0,0,1,9.29-7.61l7.4-5.48,1.93-.34c7.08.09,12.4,1.46,19.38,2.7a1.71,1.71,0,0,1,1.34.82l10.29,12.72c1.1,1.36,2,3.53,3.46,4.78l0,.9c-.87,7.55-1.24,12.9-2.11,20.45a23.51,23.51,0,0,1-4.11,3.2,20.21,20.21,0,0,0-4.15,2.9C1052.28,427.07,1045.81,432.29,1045.81,432.29Z"/><path id="Caminho_256" data-name="Caminho 256" class="cls-2" d="M200.37,174.29a49.13,49.13,0,0,1-11.7-3.19c-3-1.4-9.71-4.87-10-5.18a2.84,2.84,0,0,1-.57-.84c-3.18-6.07-9.32-19.41-9.37-19.9a4.44,4.44,0,0,1,.17-1.49c1.56-6.84,7.91-21.35,7.91-21.35a14,14,0,0,1,1.41-1,86.32,86.32,0,0,1,11.6-5.24l9.07-3.58,2.07.19c7.22,2,12.29,4.89,19.08,8.07a1.85,1.85,0,0,1,1.15,1.21l7,15.83c.75,1.7,1.06,4.15,2.23,5.84l-.21.93c-3,7.49-4.8,12.86-7.77,20.35a24.56,24.56,0,0,1-5.07,2.14,21.57,21.57,0,0,0-5,1.83C208.43,170.72,200.37,174.29,200.37,174.29Z"/><g id="Grupo_245" data-name="Grupo 245"><path id="Caminho_128" data-name="Caminho 128" class="cls-1" d="M416.76,115.48c0,2.44-.35,4.87-.36,7.39,0,1.95-.78,8.19.67,9.67,2.2,2.25,14.71.58,18.14,1.24,2.15-5.49-.72-12.39-.79-18-5.92-.89-12.16-.08-18-.35"/><path id="Caminho_129" data-name="Caminho 129" class="cls-3" d="M453.74,115.48c0,2.44-.35,4.87-.35,7.39,0,1.95-.79,8.19.66,9.67,2.2,2.25,14.72.58,18.14,1.24,2.15-5.49-.71-12.39-.79-18-5.92-.89-12.16-.08-18-.35"/><path id="Caminho_130" data-name="Caminho 130" class="cls-4" d="M397.32,134c0,2.44-.35,4.87-.35,7.39,0,1.95-.79,8.19.66,9.67,2.2,2.25,14.72.59,18.14,1.24,2.15-5.49-.71-12.38-.79-18-5.92-.89-12.16-.08-18-.35"/><path id="Caminho_131" data-name="Caminho 131" class="cls-5" d="M453.74,134c0,2.44-.35,4.87-.35,7.39,0,1.95-.79,8.19.66,9.67,2.2,2.25,14.72.59,18.14,1.24,2.15-5.49-.71-12.38-.79-18-5.92-.89-12.16-.08-18-.35"/><path id="Caminho_132" data-name="Caminho 132" class="cls-4" d="M435.72,97c0,2.44-.34,4.87-.35,7.39,0,2-.79,8.19.66,9.67,2.2,2.25,14.72.58,18.14,1.24,2.16-5.49-.71-12.39-.79-18-5.91-.89-12.15-.08-18-.35"/><path id="Caminho_133" data-name="Caminho 133" class="cls-6" d="M454.65,115.25c-2.45,0-4.87-.35-7.39-.36-1.95,0-8.19-.78-9.68.67-2.24,2.2-.58,14.71-1.23,18.13,5.49,2.16,12.38-.71,17.95-.78.89-5.92.08-12.16.35-18"/><path id="Caminho_134" data-name="Caminho 134" class="cls-7" d="M433.79,152.7c-2.44,0-4.87-.34-7.39-.35-2,0-8.2-.78-9.68.66-2.25,2.2-.58,14.72-1.24,18.14,5.49,2.16,12.39-.71,17.95-.79.9-5.91.09-12.15.36-18"/><path id="Caminho_135" data-name="Caminho 135" class="cls-8" d="M416.59,152.59c2.44-.07,4.88.22,7.4.16,1.95-.05,8.21.57,9.66-.92,2.18-2.26.18-14.73.75-18.17-5.55-2-12.37,1-17.92,1.27-.74,5.94.24,12.16.12,18"/></g><g id="Grupo_246" data-name="Grupo 246"><path id="Caminho_128-2" data-name="Caminho 128-2" class="cls-5" d="M31.17,415.53c0,2.61-.37,5.2-.37,7.89,0,2.08-.84,8.74.71,10.32,2.34,2.4,15.71.63,19.36,1.33,2.3-5.86-.76-13.22-.84-19.16-6.32-1-13-.09-19.23-.38"/><path id="Caminho_129-2" data-name="Caminho 129-2" class="cls-1" d="M91.67,413.85c0,2.61-.37,5.2-.37,7.89,0,2.08-.84,8.74.71,10.32,2.34,2.4,15.7.63,19.36,1.33,2.3-5.86-.76-13.23-.84-19.17-6.32-1-13-.09-19.23-.37"/><path id="Caminho_131-2" data-name="Caminho 131-2" class="cls-5" d="M70.65,452.08c0,2.61-.37,5.2-.38,7.89,0,2.09-.83,8.74.72,10.33,2.34,2.4,15.7.62,19.36,1.32,2.3-5.86-.76-13.22-.84-19.16-6.32-.95-13-.09-19.23-.38"/><path id="Caminho_132-2" data-name="Caminho 132-2" class="cls-4" d="M72.44,394.11c0,2.61-.37,5.2-.38,7.89,0,2.08-.83,8.74.71,10.33,2.35,2.39,15.71.62,19.37,1.32,2.3-5.86-.76-13.22-.85-19.16-6.31-1-13-.09-19.22-.38"/><path id="Caminho_135-2" data-name="Caminho 135-2" class="cls-8" d="M52,453.47c2.61-.08,5.21.23,7.9.16,2.08-.05,8.76.61,10.3-1,2.34-2.41.2-15.72.8-19.39-5.91-2.14-13.19,1.11-19.13,1.35-.78,6.34.26,13,.14,19.24"/></g><g id="Grupo_247" data-name="Grupo 247"><path id="Caminho_136" data-name="Caminho 136" class="cls-3" d="M973.56,377.87c-4.58-5.41-10.8-10.38-16.08-15.34-4.2-3.95-11.17-10.85-16.51-12.23-2.25,13.53-2,28.13-1.67,41.67,5.66-1.16,12.69-5.69,18.64-7.93,5.42-2.05,12-4,16.14-6.09"/><path id="Caminho_137" data-name="Caminho 137" class="cls-4" d="M913.52,327.28c1.36,2.16,3.77,4,5.48,6a55.25,55.25,0,0,0,7.67,6.74c2.37,1.85,4.72,3.86,7.14,5.58s4.79,4.2,7.32,5.5c1.55-3.14,1.33-7.39,2.6-10.76,1.13-3,1.49-6.19,2.5-9.21a83.3,83.3,0,0,0,4.18-16.91c-12.68,3.68-25.37,8.37-37.72,12.41.16.24.17,0,.34-.16"/><path id="Caminho_138" data-name="Caminho 138" class="cls-6" d="M914.22,327.2c-.17,3.69-1.38,7.12-1.91,10.73-.62,4.17-.54,3.12-1.15,7.32-.69,4.69-.42,8.72-1.64,13.31-.79,3-2.42,8.82-2.65,11.86,7-5.5,11.42-6.38,19.53-10.66a137,137,0,0,0,13.89-8.64S923.33,334.6,914.22,327.2Z"/></g><g id="Grupo_248" data-name="Grupo 248"><path id="Caminho_113" data-name="Caminho 113" class="cls-3" d="M280.25,251.13c-6.7,4.22-13.18,10.31-19.49,15.37-5,4-13.76,10.65-16.12,16.35,14.61,4.61,30.8,6.65,45.83,8.39-.39-6.44-4.3-14.94-5.85-21.87-1.41-6.31-2.5-13.85-4.19-18.81"/><path id="Caminho_114" data-name="Caminho 114" class="cls-1" d="M370.21,275.54c-7.09,3.51-10.45,9.6-17.25,14-5.41,3.49-14.76,9.19-17.7,14.62,14.07,6.07,26.93,8.6,41.71,11.85a63.58,63.58,0,0,0-3.25-20.88C371.64,288.64,370.21,275.54,370.21,275.54Z"/><path id="Caminho_115" data-name="Caminho 115" class="cls-8" d="M290.22,291.55c7.14,3.43,15.75,5.67,23.4,8.32,6.08,2.11,16.33,6,22.41,4.94-3.87-14.82-10.76-29.61-17.3-43.26-5.24,3.76-10.35,11.59-15.39,16.59-4.59,4.56-10.4,9.49-13.69,13.56"/><path id="Caminho_116" data-name="Caminho 116" class="cls-8" d="M312.48,367.74c6.17,3,11.58,2.15,18.2,4.45,5.27,1.82,14.92,6.35,21.45,7-3.35-12.83-9.31-25.64-15-37.46-4.54,3.26-9,10-13.33,14.37-4,3.94-9,8.22-11.85,11.74"/><path id="Caminho_117" data-name="Caminho 117" class="cls-5" d="M312.93,368.28c-.14,2.68.8,5.73,1.1,8.41a58.25,58.25,0,0,0,2.5,10.41c.91,3,1.71,6.16,2.75,9.09s1.56,6.5,2.94,9.14c3.23-1.75,5.61-5.53,8.74-7.65,2.77-1.87,5-4.4,7.7-6.38a87.31,87.31,0,0,0,13.8-12c-13.09-4.51-26.79-8.16-39.81-12.16,0,.3.15.08.38.06"/><path id="Caminho_118" data-name="Caminho 118" class="cls-4" d="M335.94,342.78c2.31,2.16,5.78,3.63,8.41,5.39a67.94,67.94,0,0,0,11.28,5.65c3.4,1.47,6.85,3.14,10.27,4.43s7,3.52,10.46,4.28c.88-4.24-.72-9.25-.26-13.67.42-3.92-.16-7.85.1-11.77.47-7,.73-14.58-.3-21.51-14,8.36-27.67,17.94-41.16,26.62.26.25.19-.07.35-.29"/><path id="Caminho_119" data-name="Caminho 119" class="cls-4" d="M214.87,309.6c2.61-1.17,5-3.55,7.44-5.13A62.65,62.65,0,0,0,231,297c2.42-2.33,5-4.62,7.29-7s5.4-4.63,7.24-7.23c-3.23-2.21-8-2.63-11.5-4.57-3.12-1.71-6.61-2.61-9.79-4.2-5.65-2.83-11.91-5.71-18.05-7.28,2.07,14.61,5.28,29.37,7.8,43.67.3-.13,0-.19-.12-.4"/><path id="Caminho_120" data-name="Caminho 120" class="cls-2" d="M290.6,292.68c1.79,5.78,1,14.44,1.3,21.11.25,6.39.27,12.64.65,19.07,3.1-1.39,7.59-6,10.78-8.09,3.6-2.31,6.75-5.13,10.48-7.32,3.37-2,6.84-4,10.22-6,3.17-1.84,6.61-5.11,10-6.17a1.18,1.18,0,0,0,0-.67c-4.09-1.37-8.47-1-12.67-2.41-4-1.33-8.13-2.49-12.08-3.93-5.64-2-13.92-3-18.46-7"/><path id="Caminho_121" data-name="Caminho 121" class="cls-2" d="M231.35,348.92c.23-5.82-4.11-12.56-6-18-1.33-3.82-3-7.58-4.4-11.39-1.51-4-4.47-7-5.93-10.9a1.18,1.18,0,0,1,.53-.38c2.89,1.86,7.48,2.4,10.82,3.62,3.57,1.29,7.25,2.6,10.83,3.88,3.94,1.42,8,2,12,3.27,3.51,1.1,9,4.66,12.75,3-4.65,4.26-9.4,8.13-14.1,12.27-4.9,4.31-16.38,14.6-16.38,14.6Z"/><path id="Caminho_122" data-name="Caminho 122" class="cls-7" d="M292.67,332.9c6.71-4,12.8-11.59,19.57-15.84,7.38-4.64,15.64-8,23-12.76.25,6.79,1.41,15.36,2.1,22.18.56,5.45.1,11,.34,16.52-3.71.59-10-2.12-13.69-3.22-4.54-1.34-9.18-2.8-13.8-3.8C304.38,334.74,292.67,332.9,292.67,332.9Z"/><path id="Caminho_123" data-name="Caminho 123" class="cls-7" d="M292.64,332.23c6.63,2,15.22,1.51,22,3.42,7.42,2.08,14.47,5.51,22,7.46-4.38,4.18-9.42,10-13.55,14.48-3.3,3.58-7.27,6.56-10.81,10-2.57-2.07-4.43-7.76-5.88-10.83-1.76-3.76-3.51-7.65-5.55-11.26C298.28,341,292.64,332.23,292.64,332.23Z"/><path id="Caminho_124" data-name="Caminho 124" class="cls-7" d="M231.29,349.24c-.9-5.26-3.93-15.59-6.43-20.48-3.11-6.1-7.29-13.67-10-19.92-5.1,7.13-9.58,11.23-16,17.34-5.81,5.5-9.84,8.89-14.64,15.08C184.22,341.27,228,351.14,231.29,349.24Z"/><path id="Caminho_125" data-name="Caminho 125" class="cls-6" d="M336.68,343.86c3.09-2.74,6.78-4.45,10.08-6.84,3.81-2.76,2.91-2,6.74-4.79,4.29-3.11,7.3-6.47,11.93-9.09,3-1.68,8.94-4.95,11.54-7.14-9.85-1.28-14-4.14-23.75-7.29a154.89,154.89,0,0,0-17.76-4.36S335.49,330.8,336.68,343.86Z"/><path id="Caminho_126" data-name="Caminho 126" class="cls-6" d="M214.89,308.81c4.06.77,7.66,2.65,11.57,3.8,4.51,1.34,3.37,1.08,7.91,2.42,5.08,1.5,9.58,1.84,14.48,3.91,3.15,1.33,9.37,4.06,12.7,4.78-5-8.59-5.27-13.63-8.73-23.27a154.58,154.58,0,0,0-7.38-16.72S224.5,299.9,214.89,308.81Z"/></g><g id="Grupo_249" data-name="Grupo 249"><path id="Caminho_156" data-name="Caminho 156" class="cls-5" d="M786.08,85.67c1.73,7,4.17,11.49,6.73,18.44,2,5.52,3.15,14,7,19.77C808,112.54,818,101,823.85,88.4c-5.7-1.52-14.21-.58-20.67-1.24-5.89-.6-12.75-1.84-17.54-1.8"/><path id="Caminho_157" data-name="Caminho 157" class="cls-8" d="M836.22,134.75c-1.85-3.79-1.14-5.6-2.59-9.46-1.67-4.47-1.57-4.74-3.26-9.23-1.88-5-2.33-7.9-3.63-13.07-.83-3.32-2.41-9.94-3.85-13.09-4,8.62-8.07,11.47-13.95,19.35a136,136,0,0,0-9.35,14.84S822.9,131.33,836.22,134.75Z"/></g><g id="Grupo_250" data-name="Grupo 250"><path id="Caminho_167" data-name="Caminho 167" class="cls-8" d="M1126,210.15c-3,0-6.07-.43-9.21-.44-2.44,0-10.22-1-12.07.83-2.8,2.74-.73,18.35-1.54,22.62,6.84,2.69,15.45-.88,22.38-1,1.12-7.38.1-15.16.44-22.47"/><path id="Caminho_168" data-name="Caminho 168" class="cls-9" d="M1127,165.89c-3,0-6.07-.43-9.21-.44-2.44,0-10.22-1-12.07.83-2.8,2.74-.72,18.35-1.54,22.62,6.84,2.69,15.45-.88,22.38-1,1.12-7.38.11-15.16.44-22.47"/><path id="Caminho_169" data-name="Caminho 169" class="cls-4" d="M1103.92,97.49c-3.05,0-6.07-.43-9.21-.44-2.44,0-10.22-1-12.07.83-2.8,2.74-.73,18.35-1.54,22.62,6.84,2.69,15.45-.88,22.38-1,1.12-7.38.1-15.16.44-22.47"/><path id="Caminho_170" data-name="Caminho 170" class="cls-5" d="M1103.92,165.89c-3.05,0-6.07-.43-9.21-.44-2.44,0-10.22-1-12.07.83-2.8,2.74-.73,18.35-1.54,22.62,6.84,2.69,15.45-.88,22.38-1,1.12-7.38.1-15.16.44-22.47"/><path id="Caminho_171" data-name="Caminho 171" class="cls-5" d="M1032.8,213.17c-3,0-6.08-.43-9.22-.44-2.44,0-10.21-1-12.06.83-2.81,2.75-.73,18.35-1.55,22.62,6.85,2.69,15.45-.88,22.39-1,1.12-7.38.1-15.16.44-22.47"/><path id="Caminho_172" data-name="Caminho 172" class="cls-4" d="M1151.32,166.43c0-3.05.43-6.07.44-9.21,0-2.44,1-10.22-.83-12.07-2.75-2.8-18.35-.73-22.62-1.54-2.69,6.84.88,15.45,1,22.38,7.38,1.12,15.16.1,22.47.44"/><path id="Caminho_173" data-name="Caminho 173" class="cls-4" d="M1055.73,189.6c-3,0-6.07-.44-9.21-.45-2.44,0-10.22-1-12.07.83-2.8,2.75-.72,18.36-1.54,22.62,6.84,2.69,15.45-.88,22.38-1,1.12-7.38.11-15.16.44-22.46"/><path id="Caminho_174" data-name="Caminho 174" class="cls-6" d="M1081.1,166c0-3,.43-6.07.44-9.21,0-2.44,1-10.22-.83-12.07-2.74-2.8-18.35-.73-22.62-1.54-2.69,6.84.88,15.45,1,22.38,7.38,1.12,15.16.1,22.47.44"/><path id="Caminho_175" data-name="Caminho 175" class="cls-7" d="M1080.56,143c0-3.05.43-6.07.44-9.21,0-2.44,1-10.22-.83-12.07-2.74-2.8-18.35-.73-22.62-1.54-2.69,6.84.88,15.45,1,22.38,7.38,1.12,15.16.11,22.47.44"/><path id="Caminho_176" data-name="Caminho 176" class="cls-7" d="M1175.85,144.94c0-3.05.43-6.08.44-9.22,0-2.44,1-10.22-.83-12.06-2.74-2.81-18.35-.73-22.62-1.55-2.68,6.85.89,15.45,1,22.39,7.38,1.12,15.16.1,22.46.44"/><path id="Caminho_177" data-name="Caminho 177" class="cls-8" d="M1080.69,121.53c.09,3-.27,6.08-.19,9.22.06,2.44-.71,10.24,1.15,12,2.82,2.73,18.37.24,22.66.94,2.5-6.91-1.3-15.42-1.59-22.35-7.4-.92-15.15.3-22.46.16"/><path id="Caminho_178" data-name="Caminho 178" class="cls-6" d="M1103.58,188.5c-7.18,0-15.49-1.9-22.5-.76-.35,8-.86,16.31-.57,24.34,2.65-2.3,9.49-2.12,12.86-2.41,1.8-.16,8,.8,9.3-.33s.57-9.17.63-11.45c0-1.53.49-3,.51-4.47,0-1.61-.71-3-.51-4.64"/></g><g id="Grupo_251" data-name="Grupo 251"><path id="Caminho_180" data-name="Caminho 180" class="cls-8" d="M94.31,287.56c2.24-6.1,4.32-11.56,5.3-18.06.38-2.5,1-14.95-3.23-8.52-3.44,5.27-4.78,12.46-4.84,18.76,0,1.85-.43,4-.12,5.79.38,2.22,2.29,3.38,3.48.73"/><path id="Caminho_181" data-name="Caminho 181" class="cls-8" d="M109.49,265c4.87-4.29,9.3-8.1,13.28-13.32,1.53-2,8.1-12.61,1.41-8.93-5.49,3-10.12,8.67-13.24,14.13-.92,1.62-2.29,3.27-2.91,5-.76,2.11.3,4,2.6,2.24"/><path id="Caminho_182" data-name="Caminho 182" class="cls-8" d="M138.38,252.37c-5,1.85-9.52,3.46-13.94,6.45-1.71,1.15-9.37,7.81-2.93,7.19,5.27-.52,10.33-3.64,14-7.18,1.1-1,2.6-1.95,3.47-3.21,1.05-1.54.52-3.59-1.79-2.94"/><path id="Caminho_183" data-name="Caminho 183" class="cls-8" d="M82.62,230.48c-4.31-3.48-8.15-6.65-13.08-9.35-1.9-1-11.67-5.32-7.57-.35,3.36,4.07,8.75,7.25,13.74,9.24a32.75,32.75,0,0,0,4.59,1.88c1.85.41,3.25-.58,1.42-2.24"/><path id="Caminho_184" data-name="Caminho 184" class="cls-8" d="M129.06,274c5.56-1.72,11.44-1.55,16.9-3.77,1.36-.56,10-4.19,4.6-5.46-2.48-.59-6.4.93-8.83,1.61a39.13,39.13,0,0,0-7.28,2.65c-1.25.63-2.49,1.16-3.7,1.85-.71.4-3.63,2.29-1.14,2.64"/><path id="Caminho_185" data-name="Caminho 185" class="cls-8" d="M64.57,234.23c-2.89.5-6.82,3.9-9.56,5.42s-5.5,3.28-8.19,5c-2.09,1.33-7.45,5.79-1.83,4.75,6.32-1.17,12.11-5.06,16.7-9.5a39.06,39.06,0,0,0,3.24-3.06c2-2.48,0-2.08-2.36-1.66"/><path id="Caminho_186" data-name="Caminho 186" class="cls-8" d="M70.82,246.75c2.38,1.44,7.23,1.29,10.12,1.85s5.91.93,8.86,1.3c2.3.3,8.82.23,4.16-2.51-5.25-3.09-11.73-3.73-17.69-3.19a34.27,34.27,0,0,0-4.17.32c-2.91.66-1.27,1.58.71,2.77"/><path id="Caminho_187" data-name="Caminho 187" class="cls-8" d="M93,254.48c-6.28,3.07-12.88,5.31-18.87,9a16.66,16.66,0,0,0-3.95,3c-1.22,1.54-.93,1.78.72,1.76,6.58-.1,15.16-5.64,20.61-9.55a16.23,16.23,0,0,0,3.14-2.52c.93-1.36.24-2.07-1.62-1.29"/></g><path id="Caminho_257" data-name="Caminho 257" class="cls-4" d="M1229.29,343.83a38.59,38.59,0,0,0,8.69-4.1c2.16-1.51,6.91-5.13,7.12-5.42a2.36,2.36,0,0,0,.33-.74c1.64-5.16,4.6-16.42,4.57-16.81a3.51,3.51,0,0,0-.34-1.13c-2.16-5.12-9.11-15.57-9.11-15.57a10,10,0,0,0-1.23-.6,70,70,0,0,0-9.77-2.5l-7.57-1.54-1.58.43c-5.36,2.58-8.92,5.51-13.78,8.92a1.47,1.47,0,0,0-.73,1.1l-3.31,13.32c-.35,1.43-.25,3.38-.94,4.86l.29.7c3.34,5.43,5.52,9.36,8.86,14.8a19.4,19.4,0,0,0,4.25,1,17.44,17.44,0,0,1,4.19.73C1222.52,342.15,1229.29,343.83,1229.29,343.83Z"/><g id="Grupo_252" data-name="Grupo 252"><path id="Caminho_196" data-name="Caminho 196" class="cls-1" d="M910.51,191.46c-4.58-4.61-8.65-8.8-14.13-12.44-2.1-1.39-13.14-7.2-9.08-.67,3.32,5.34,9.27,9.59,15,12.31,1.67.81,3.42,2.07,5.2,2.56,2.17.59,4-.65,2.13-2.85"/><path id="Caminho_197" data-name="Caminho 197" class="cls-1" d="M896.44,168.15c-1.83-6.23-3.41-11.85-6.46-17.67-1.17-2.24-8-12.66-7.5-5,.42,6.24,3.59,12.83,7.22,18,1.07,1.52,2,3.47,3.31,4.76,1.59,1.58,3.76,1.43,3.13-1.41"/><path id="Caminho_198" data-name="Caminho 198" class="cls-1" d="M897.24,136.65c-.43,5.31-.88,10.09,0,15.36.32,2,3.12,11.79,5.27,5.69,1.76-5,1.07-10.9-.56-15.77-.48-1.44-.67-3.18-1.45-4.5-1-1.6-3-2-3.42.38"/><path id="Caminho_199" data-name="Caminho 199" class="cls-1" d="M853.84,177.93c-5,2.44-9.47,4.58-14,7.91-1.74,1.28-9.74,8.32-3.51,6.71,5.11-1.33,10.27-4.87,14.18-8.55a33.18,33.18,0,0,0,3.64-3.37c1.16-1.5.85-3.19-1.43-2.23"/><path id="Caminho_200" data-name="Caminho 200" class="cls-1" d="M912.93,154.24c.8-5.76,3.43-11,3.73-16.9.07-1.48.42-10.83-3-6.48-1.57,2-1.85,6.19-2.27,8.68a39.22,39.22,0,0,0-.67,7.72c0,1.4,0,2.74.11,4.14.07.81.54,4.25,1.91,2.14"/><path id="Caminho_201" data-name="Caminho 201" class="cls-1" d="M849.61,195.87c-.77,2.84.65,7.83.87,11s.65,6.37,1.06,9.52c.32,2.47,2.09,9.2,3.52,3.68,1.62-6.23.53-13.12-1.55-19.16a37.4,37.4,0,0,0-1.4-4.23c-1.41-2.86-1.87-.92-2.5,1.44"/><path id="Caminho_202" data-name="Caminho 202" class="cls-1" d="M863.59,195.5c2.32-1.54,4.23-6,5.95-8.39s3.35-5,4.94-7.48c1.24-2,3.93-7.89-.52-4.83-5,3.45-8.34,9.06-10.37,14.68a32.3,32.3,0,0,0-1.47,3.91c-.64,2.93.89,1.82,2.81.54"/><path id="Caminho_203" data-name="Caminho 203" class="cls-1" d="M880,178.67c.13,7-.63,13.91.22,20.91a17,17,0,0,0,1.09,4.88c.88,1.75,1.22,1.59,1.9.08,2.69-6,1.29-16.12.05-22.71a16.42,16.42,0,0,0-1-3.91c-.84-1.42-1.78-1.09-1.86.92"/></g></g></svg>