<svg id="Camada_1" data-name="Camada 1" xmlns="http://www.w3.org/2000/svg" viewBox="0 0 1280 558"><defs><style>.cls-1{fill:#f49725;}.cls-2{fill:#b25aa7;}.cls-3{fill:#f1eee9;}.cls-4{fill:#efcc3e;}.cls-5{fill:#50a545;}.cls-6{fill:#e94941;}.cls-7{fill:#4b8ed2;}.cls-8{fill:#83c8e8;}</style></defs><path id="Caminho_232" data-name="Caminho 232" class="cls-1" d="M1200.57,194.93a39.54,39.54,0,0,0,9-4.24c2.24-1.55,7.15-5.3,7.37-5.6a2.36,2.36,0,0,0,.34-.76c1.7-5.35,4.76-17,4.73-17.4a3.68,3.68,0,0,0-.35-1.17c-2.24-5.3-9.42-16.11-9.42-16.11q-.63-.35-1.29-.63a71.52,71.52,0,0,0-10.1-2.57l-7.83-1.6-1.64.44c-5.54,2.67-9.23,5.7-14.25,9.23a1.5,1.5,0,0,0-.76,1.14l-3.42,13.78c-.37,1.48-.27,3.5-1,5l.31.72c3.45,5.62,5.7,9.7,9.16,15.32a20.8,20.8,0,0,0,4.4,1,17.62,17.62,0,0,1,4.33.75C1193.57,193.2,1200.57,194.93,1200.57,194.93Z"/><path id="Caminho_234" data-name="Caminho 234" class="cls-2" d="M818.82,436.06a40.1,40.1,0,0,0,5.8-8.07c1.2-2.44,3.68-8.1,3.73-8.47a2.32,2.32,0,0,0-.07-.83c-1.1-5.5-4.07-17.18-4.29-17.52a3.74,3.74,0,0,0-.88-.85c-4.52-3.55-16.05-9.53-16.05-9.53a13.37,13.37,0,0,0-1.42.08,71.26,71.26,0,0,0-10.09,2.64l-7.63,2.4-1.22,1.19c-3.55,5-5.31,9.45-8,15a1.46,1.46,0,0,0-.11,1.36l3.68,13.71c.4,1.47,1.47,3.19,1.59,4.87l.61.49c5.75,3.24,9.7,5.71,15.44,9a21,21,0,0,0,4.34-1.25,17.55,17.55,0,0,1,4.16-1.45C811.84,437.94,818.82,436.06,818.82,436.06Z"/><g id="Grupo_230" data-name="Grupo 230"><path id="Caminho_188" data-name="Caminho 188" class="cls-3" d="M889.61,153.9c2.84,6.09,5.47,11.54,7,18.15.61,2.55,2.32,15.33-2.57,9.07-4-5.13-6-12.42-6.65-18.91-.18-1.91-.79-4.05-.62-6,.19-2.32,2-3.69,3.51-1.06"/><path id="Caminho_189" data-name="Caminho 189" class="cls-3" d="M907.86,223.75c-3.21-5.89-6.17-11.16-8.19-17.65-.79-2.5-3.41-15.12,1.79-9.18,4.26,4.87,6.77,12,7.86,18.43.33,1.89,1.08,4,1.07,5.9,0,2.32-1.71,3.79-3.33,1.26"/><path id="Caminho_190" data-name="Caminho 190" class="cls-3" d="M932.55,219.3c-5.5-3.86-10.48-7.28-15.17-12.2-1.8-1.9-9.75-12-2.45-9,6,2.48,11.39,7.78,15.21,13.05,1.12,1.55,2.73,3.1,3.56,4.82,1,2.08.15,4.16-2.42,2.6"/><path id="Caminho_191" data-name="Caminho 191" class="cls-3" d="M947.11,204.59c-6.63-1.1-12.6-2-19-4.42-2.45-.92-14-6.63-6.12-7.07,6.47-.36,13.63,2.07,19.36,5.16,1.69.92,3.8,1.62,5.3,2.8,1.82,1.44,1.93,3.69-1.06,3.4"/><path id="Caminho_192" data-name="Caminho 192" class="cls-3" d="M922.39,164.71c-5.33,4.88-9.1,11-14.83,15.54-1.43,1.14-10.6,8.24-8.17,2.07,1.12-2.83,5.16-6.12,7.42-8.29a57.88,57.88,0,0,1,7.34-6.2c1.43-1,2.74-2,4.2-2.91.86-.53,4.58-2.61,3.23.12"/><path id="Caminho_193" data-name="Caminho 193" class="cls-3" d="M867.17,192.22c2.77-1.28,8.1-.68,11.34-1s6.61-.43,9.89-.56c2.57-.09,9.74.56,4.35,3-6.08,2.71-13.29,2.79-19.81,1.7a41.17,41.17,0,0,1-4.56-.71c-3.16-.94-1.25-1.75,1-2.8"/><path id="Caminho_194" data-name="Caminho 194" class="cls-3" d="M923.11,184.55c2.46-1.5,7.48-1.35,10.47-1.93s6.12-1,9.17-1.37c2.38-.31,9.12-.25,4.31,2.59-5.43,3.22-12.13,3.89-18.3,3.34a36.28,36.28,0,0,1-4.31-.32c-3-.68-1.32-1.64.72-2.87"/><path id="Caminho_195" data-name="Caminho 195" class="cls-3" d="M865.13,167.33c6.08,3.92,12.59,7,18.3,11.57a17.54,17.54,0,0,1,3.7,3.6c1.06,1.73.74,1.94-1,1.72-6.76-.89-14.9-7.62-20-12.29a17.1,17.1,0,0,1-2.92-3c-.8-1.51,0-2.16,1.81-1.13"/></g><path id="Caminho_233" data-name="Caminho 233" class="cls-4" d="M289.55,362.78c-1.15,5.65-2.32,11.36-4.83,16.55-2.05,4.25-7.15,13.69-7.59,14.14a4.35,4.35,0,0,1-1.21.79c-8.7,4.37-27.82,12.78-28.52,12.84a6.49,6.49,0,0,1-2.1-.28c-9.69-2.39-30.17-11.76-30.17-11.76a23.8,23.8,0,0,1-1.42-2,125.62,125.62,0,0,1-7.16-16.61l-4.86-13,.31-2.94c3.07-10.21,7.25-17.35,11.94-26.92a2.57,2.57,0,0,1,1.74-1.61l22.67-9.61c2.44-1,5.93-1.4,8.36-3l1.32.32c10.57,4.39,18.16,7.14,28.73,11.53,0,0,2.52,4.8,2.93,7.27a30.73,30.73,0,0,0,2.47,7.21C284.67,351.24,289.55,362.78,289.55,362.78Z"/><g id="Grupo_141" data-name="Grupo 141"><path id="Caminho_113" data-name="Caminho 113" class="cls-4" d="M194,273.82c3.76-6.83,6.43-15.18,9.46-22.56,2.41-5.87,6.77-15.75,6.08-21.79-14.79,3-29.72,9-43.51,14.66,3.41,5.37,10.84,10.82,15.49,16.06,4.23,4.76,8.77,10.74,12.6,14.21"/><path id="Caminho_114" data-name="Caminho 114" class="cls-4" d="M104.83,295.76c4.43-6.42,4.42-13.27,8.18-20.3,3-5.6,8.34-15,8.27-21.06-15,1.48-27.31,5.45-41.61,9.7a62.51,62.51,0,0,0,12.78,16.45C97.33,285.15,104.83,295.76,104.83,295.76Z"/><path id="Caminho_116" data-name="Caminho 116" class="cls-3" d="M110.54,188.7c-6.74.4-11,3.68-17.82,4.87-5.41.94-15.89,1.65-21.84,4.18,9,9.46,20.27,17.64,30.79,25.13,2.36-5,2.94-12.93,4.63-18.75,1.54-5.3,3.83-11.38,4.61-15.78"/><path id="Caminho_117" data-name="Caminho 117" class="cls-2" d="M109.9,188.45c-1.15-2.37-3.42-4.56-5-6.73a58.39,58.39,0,0,0-7.13-7.78c-2.23-2.16-4.42-4.5-6.71-6.52s-4.45-4.86-6.9-6.48c-2,3.06-2.2,7.45-3.88,10.77-1.49,2.94-2.22,6.19-3.59,9.18a86.21,86.21,0,0,0-6.19,16.9c13.44-2.36,27-5.76,40.13-8.53-.13-.27-.17,0-.36.13"/><path id="Caminho_118" data-name="Caminho 118" class="cls-1" d="M102.24,221.42c-3-.76-6.71-.37-9.82-.62a67.86,67.86,0,0,0-12.42.51c-3.63.37-7.4.57-11,1.1s-7.75.32-11.07,1.31c1.27,4.07,5,7.62,6.75,11.65,1.52,3.58,3.9,6.69,5.54,10.2,2.93,6.23,6.34,12.9,10.54,18.39,8.06-13.89,15.28-28.68,22.76-42.61-.34-.09-.13.15-.17.42"/><path id="Caminho_119" data-name="Caminho 119" class="cls-1" d="M222.47,192.2c-1.7,2.25-2.66,5.46-4,8a61.27,61.27,0,0,0-3.92,10.54c-1,3.17-2.12,6.38-2.93,9.54s-2.44,6.57-2.78,9.69c3.84.36,8.12-1.54,12.09-1.56,3.51,0,6.94-.9,10.45-1a91.83,91.83,0,0,0,19-2.35c-8.77-11.59-18.58-22.8-27.59-33.91-.19.25.09.16.3.28"/><path id="Caminho_120" data-name="Caminho 120" class="cls-5" d="M165.26,243c-4.31-4.13-7.79-12-11.2-17.58-3.28-5.38-6.27-10.76-9.68-16.12-2,2.67-3.66,8.83-5.43,12.12-2,3.72-3.37,7.65-5.53,11.31-2,3.33-4,6.75-5.95,10.06-1.85,3.1-3.26,7.56-5.68,10.11a1.18,1.18,0,0,0,.29.58c4.18-.77,7.79-3.17,12.07-4,4.11-.78,8.2-1.73,12.29-2.39,5.84-.93,13.43-4,19.24-2.81"/><path id="Caminho_121" data-name="Caminho 121" class="cls-5" d="M189.46,166.18c2.59,5.12,9.54,8.86,13.79,12.65,3,2.66,6.16,5.13,9.24,7.72s7.2,3.91,10.31,6.56a1.19,1.19,0,0,1-.27.58c-3.38-.23-7.6,1.5-11.06,2.05-3.69.58-7.48,1.22-11.18,1.82-4.07.66-7.87,2.09-11.88,2.91-3.55.72-10,.26-12.43,3.49,2-5.89,4.22-11.49,6.3-17.3,2.16-6.06,7.14-20.41,7.14-20.41Z"/><path id="Caminho_122" data-name="Caminho 122" class="cls-6" d="M144.27,209.27c-3.86,6.69-5.5,16.1-9.31,23-4.14,7.52-9.67,14.33-13.71,22-3.46-5.74-8.55-12.58-12.41-18.12-3.08-4.43-5.34-9.44-8.18-14.08,2.92-2.29,9.61-2.94,13.34-3.76,4.55-1,9.25-2,13.71-3.32C133.29,213.28,144.27,209.27,144.27,209.27Z"/><path id="Caminho_124" data-name="Caminho 124" class="cls-6" d="M189.37,165.87c3.29,4.09,10.83,11.56,15.31,14.57,5.61,3.77,12.83,8.31,18.13,12.41,1-8.59,2.89-14.26,5.53-22.6,2.38-7.51,4.24-12.36,5.41-20C233.75,150.26,191.26,162.68,189.37,165.87Z"/><path id="Caminho_126" data-name="Caminho 126" class="cls-7" d="M222.82,192.88c-3.86,1.27-7.87,1.38-11.78,2.25-4.53,1-3.43.68-8,1.69-5.1,1.13-9.14,3-14.35,3.55-3.35.35-10,1-13.23,1.94,8.41,5,11.05,9.23,18.64,15.89a152.14,152.14,0,0,0,14.35,10.9S218.79,205.16,222.82,192.88Z"/></g><g id="Grupo_231" data-name="Grupo 231"><path id="Caminho_167" data-name="Caminho 167" class="cls-5" d="M1097.42,365.76c0-4.33-.62-8.63-.63-13.09,0-3.46-1.39-14.52,1.17-17.15,3.9-4,26.09-1,32.15-2.2,3.82,9.73-1.25,22-1.39,31.82-10.49,1.58-21.55.15-31.93.63"/><path id="Caminho_168" data-name="Caminho 168" class="cls-4" d="M1034.52,367.16c0-4.33-.62-8.63-.63-13.1,0-3.46-1.39-14.51,1.18-17.14,3.89-4,26.08-1,32.15-2.2,3.82,9.73-1.26,21.95-1.4,31.81-10.49,1.59-21.54.15-31.93.63"/><path id="Caminho_169" data-name="Caminho 169" class="cls-1" d="M937.31,334.39c0-4.34-.61-8.64-.63-13.1,0-3.46-1.39-14.52,1.18-17.15,3.9-4,26.08-1,32.15-2.19,3.82,9.72-1.25,21.95-1.4,31.81-10.48,1.59-21.54.15-31.93.63"/><path id="Caminho_170" data-name="Caminho 170" class="cls-2" d="M1034.52,334.39c0-4.34-.62-8.64-.63-13.1,0-3.46-1.39-14.52,1.18-17.15,3.89-4,26.08-1,32.15-2.19,3.82,9.72-1.26,21.95-1.4,31.81-10.49,1.59-21.54.15-31.93.63"/><path id="Caminho_172" data-name="Caminho 172" class="cls-1" d="M1035.29,401.74c-4.33,0-8.63.61-13.1.63-3.46,0-14.51,1.39-17.14-1.18-4-3.89-1-26.08-2.2-32.15,9.73-3.82,21.95,1.25,31.81,1.39,1.59,10.49.15,21.55.63,31.93"/><path id="Caminho_173" data-name="Caminho 173" class="cls-4" d="M1068.2,265.9c0-4.33-.61-8.63-.63-13.09,0-3.47-1.39-14.52,1.18-17.15,3.9-4,26.09-1,32.15-2.2,3.82,9.73-1.25,22-1.39,31.82-10.49,1.58-21.55.15-31.93.63"/><path id="Caminho_174" data-name="Caminho 174" class="cls-7" d="M1034.73,302c-4.33,0-8.63.61-13.09.63-3.47,0-14.52,1.39-17.15-1.18-4-3.89-1-26.08-2.19-32.15,9.72-3.82,22,1.25,31.81,1.4,1.58,10.48.15,21.54.63,31.93"/><path id="Caminho_175" data-name="Caminho 175" class="cls-6" d="M1002,301.18c-4.34,0-8.64.62-13.1.63-3.46,0-14.52,1.39-17.14-1.18-4-3.89-1-26.08-2.2-32.15,9.72-3.82,22,1.26,31.81,1.4,1.59,10.49.15,21.54.63,31.93"/><path id="Caminho_176" data-name="Caminho 176" class="cls-8" d="M1004.74,436.61c-4.33,0-8.63.61-13.1.63-3.46,0-14.52,1.39-17.14-1.18-4-3.9-1-26.08-2.2-32.15,9.73-3.82,22,1.25,31.81,1.4,1.59,10.48.16,21.54.64,31.92"/><path id="Caminho_177" data-name="Caminho 177" class="cls-3" d="M971.47,301.38c4.33.12,8.65-.39,13.11-.28,3.46.08,14.56-1,17.11,1.63,3.88,4,.33,26.1,1.34,32.2-9.83,3.56-21.91-1.84-31.77-2.25-1.31-10.53.42-21.54.23-31.93"/><path id="Caminho_178" data-name="Caminho 178" class="cls-7" d="M1066.64,333.9c0-10.2-2.69-22-1.07-32,11.44-.5,23.18-1.22,34.59-.81-3.27,3.78-3,13.48-3.43,18.28-.23,2.55,1.14,11.36-.47,13.21s-13,.82-16.27.89c-2.17.06-4.31.7-6.35.73-2.29,0-4.34-1-6.59-.73"/></g><g id="Grupo_232" data-name="Grupo 232"><path id="Caminho_180" data-name="Caminho 180" class="cls-5" d="M330.41,338.52c-2.32,6.31-4.47,12-5.48,18.69-.39,2.58-1,15.47,3.33,8.81,3.56-5.45,4.95-12.89,5-19.4,0-1.92.45-4.11.12-6-.39-2.29-2.36-3.5-3.6-.75"/><path id="Caminho_181" data-name="Caminho 181" class="cls-5" d="M314.7,361.9c-5,4.44-9.61,8.39-13.74,13.79-1.59,2.08-8.38,13-1.45,9.24,5.68-3.12,10.47-9,13.69-14.63.95-1.67,2.38-3.38,3-5.18.78-2.18-.31-4.15-2.69-2.32"/><path id="Caminho_182" data-name="Caminho 182" class="cls-5" d="M284.81,374.93c5.17-1.92,9.85-3.58,14.43-6.67,1.76-1.2,9.69-8.09,3-7.44-5.45.53-10.68,3.77-14.54,7.42-1.13,1.08-2.68,2-3.58,3.33-1.09,1.59-.54,3.71,1.85,3"/><path id="Caminho_183" data-name="Caminho 183" class="cls-5" d="M342.51,397.58c4.46,3.6,8.43,6.88,13.54,9.68,2,1.07,12.06,5.5,7.83.36-3.48-4.21-9.06-7.5-14.22-9.56a33.85,33.85,0,0,0-4.75-1.95c-1.92-.42-3.36.6-1.47,2.33"/><path id="Caminho_184" data-name="Caminho 184" class="cls-5" d="M294.45,352.52c-5.75,1.78-11.83,1.6-17.48,3.9-1.41.58-10.33,4.34-4.76,5.65,2.57.61,6.62-1,9.13-1.67a40.47,40.47,0,0,0,7.54-2.74c1.3-.65,2.57-1.19,3.83-1.91.73-.42,3.75-2.37,1.18-2.73"/><path id="Caminho_185" data-name="Caminho 185" class="cls-5" d="M361.18,393.7c3-.52,7.06-4,9.9-5.61s5.69-3.39,8.46-5.15c2.17-1.38,7.71-6,1.91-4.91-6.55,1.21-12.53,5.23-17.29,9.83A40.12,40.12,0,0,0,360.8,391c-2.06,2.57,0,2.15,2.45,1.72"/><path id="Caminho_186" data-name="Caminho 186" class="cls-5" d="M354.72,380.75c-2.46-1.5-7.48-1.34-10.47-1.92s-6.12-1-9.17-1.34c-2.38-.31-9.12-.24-4.31,2.6,5.44,3.2,12.14,3.85,18.31,3.3a34.59,34.59,0,0,0,4.31-.33c3-.69,1.32-1.64-.73-2.88"/><path id="Caminho_187" data-name="Caminho 187" class="cls-5" d="M331.77,372.75c6.5-3.18,13.32-5.49,19.52-9.35a17.18,17.18,0,0,0,4.09-3.15c1.27-1.59,1-1.84-.74-1.81-6.82.09-15.69,5.83-21.33,9.87a16.34,16.34,0,0,0-3.24,2.61c-1,1.4-.25,2.14,1.67,1.33"/></g><g id="Grupo_233" data-name="Grupo 233"><path id="Caminho_128" data-name="Caminho 128" class="cls-2" d="M540.85,356.87c0,3.26.46,6.5.47,9.87,0,2.6,1,10.94-.89,12.92-2.93,3-19.65.78-24.22,1.65-2.87-7.33.95-16.54,1.06-24,7.9-1.19,16.23-.11,24.05-.47"/><path id="Caminho_129" data-name="Caminho 129" class="cls-4" d="M465.17,354.77c0,3.26.46,6.5.47,9.86,0,2.61,1.05,10.94-.88,12.92-2.94,3-19.65.78-24.22,1.66-2.88-7.33.94-16.54,1-24,7.9-1.2,16.23-.11,24.05-.47"/><path id="Caminho_131" data-name="Caminho 131" class="cls-6" d="M491.47,402.6c0,3.26.46,6.5.47,9.87,0,2.6,1.05,10.93-.89,12.91-2.93,3-19.65.78-24.22,1.66-2.88-7.33.95-16.54,1.05-24,7.9-1.2,16.24-.11,24.06-.47"/><path id="Caminho_132" data-name="Caminho 132" class="cls-1" d="M489.23,330.08c0,3.26.46,6.5.47,9.86,0,2.61,1.05,10.94-.89,12.92-2.93,3-19.65.78-24.22,1.66-2.87-7.33,1-16.54,1.06-24,7.9-1.2,16.23-.12,24.05-.47"/><path id="Caminho_135" data-name="Caminho 135" class="cls-3" d="M514.77,404.33c-3.26-.1-6.51.29-9.87.21-2.61-.06-11,.75-12.89-1.23-2.92-3-.26-19.67-1-24.26,7.4-2.68,16.52,1.39,23.93,1.7,1,7.93-.31,16.22-.17,24.06"/></g><g id="Grupo_234" data-name="Grupo 234"><path id="Caminho_136" data-name="Caminho 136" class="cls-4" d="M521.61,117.08c5.67,4.64,10.93,11,16.16,16.36,4.15,4.27,11.42,11.36,12.94,16.87-14,2.57-29.07,2.59-43.09,2.46,1.09-5.88,5.67-13.23,7.88-19.43,2-5.64,3.89-12.44,6-16.81"/><path id="Caminho_137" data-name="Caminho 137" class="cls-1" d="M575,178.31c-2.27-1.38-4.23-3.84-6.25-5.57a58,58,0,0,1-7.12-7.82c-1.95-2.42-4.08-4.82-5.89-7.29s-4.43-4.88-5.83-7.48c3.23-1.66,7.63-1.5,11.1-2.88,3.06-1.22,6.37-1.64,9.48-2.74a86,86,0,0,1,17.43-4.62c-3.59,13.18-8.22,26.39-12.18,39.24-.26-.16,0-.17.16-.36"/><path id="Caminho_138" data-name="Caminho 138" class="cls-3" d="M575.08,177.58c-3.82.24-7.34,1.56-11.07,2.17-4.3.71-3.22.6-7.55,1.32-4.84.79-9,.58-13.75,1.93-3.05.86-9.09,2.65-12.22,2.94,5.57-7.32,6.4-11.92,10.68-20.39a142.33,142.33,0,0,1,8.7-14.53S567.26,168.29,575.08,177.58Z"/></g></svg>