<svg xmlns="http://www.w3.org/2000/svg" xmlns:xlink="http://www.w3.org/1999/xlink" width="40" height="40" viewBox="0 0 40 40">
  <defs>
    <clipPath id="clip-path">
      <path id="Caminho_7" data-name="Caminho 7" d="M0,3.026H16v-16H0Z" transform="translate(0 12.974)" fill="#fff"/>
    </clipPath>
  </defs>
  <g id="Grupo_180" data-name="Grupo 180" transform="translate(-253 -2048)">
    <circle id="Elipse_4" data-name="Elipse 4" cx="20" cy="20" r="20" transform="translate(253 2048)" fill="#50a545"/>
    <g id="Grupo_19" data-name="Grupo 19" transform="translate(265 2072.974)">
      <g id="Grupo_18" data-name="Grupo 18" transform="translate(0 -12.974)" clip-path="url(#clip-path)">
        <g id="Grupo_15" data-name="Grupo 15" transform="translate(0 0)">
          <path id="Caminho_4" data-name="Caminho 4" d="M1.513.273C3.65.273,3.9.28,4.747.32A4.456,4.456,0,0,1,6.233.593a2.493,2.493,0,0,1,.919.6,2.471,2.471,0,0,1,.6.92A4.405,4.405,0,0,1,8.026,3.6c.038.845.047,1.1.047,3.234s-.009,2.389-.047,3.234a4.438,4.438,0,0,1-.276,1.486,2.65,2.65,0,0,1-1.517,1.517,4.471,4.471,0,0,1-1.486.276c-.845.038-1.1.046-3.234.046s-2.389-.007-3.232-.046A4.439,4.439,0,0,1-3.2,13.067a2.476,2.476,0,0,1-.921-.6,2.478,2.478,0,0,1-.6-.919A4.375,4.375,0,0,1-5,10.065c-.039-.845-.047-1.1-.047-3.234S-5.038,4.442-5,3.6a4.342,4.342,0,0,1,.276-1.484,2.453,2.453,0,0,1,.6-.92A2.482,2.482,0,0,1-3.2.593,4.425,4.425,0,0,1-1.719.32C-.876.28-.623.273,1.513.273m0-1.442c-2.172,0-2.444.009-3.3.047a5.877,5.877,0,0,0-1.942.374A3.924,3.924,0,0,0-5.144.174,3.934,3.934,0,0,0-6.066,1.59a5.914,5.914,0,0,0-.372,1.944c-.038.853-.048,1.125-.048,3.3s.01,2.446.048,3.3a5.892,5.892,0,0,0,.372,1.942,3.907,3.907,0,0,0,.922,1.417,3.908,3.908,0,0,0,1.416.922,5.877,5.877,0,0,0,1.942.374c.855.039,1.127.047,3.3.047s2.446-.007,3.3-.047a5.877,5.877,0,0,0,1.942-.374,4.088,4.088,0,0,0,2.339-2.339,5.864,5.864,0,0,0,.371-1.942c.038-.852.048-1.125.048-3.3s-.01-2.444-.048-3.3A5.886,5.886,0,0,0,9.094,1.59,3.951,3.951,0,0,0,8.171.174,3.928,3.928,0,0,0,6.754-.748a5.877,5.877,0,0,0-1.942-.374c-.853-.038-1.127-.047-3.3-.047" transform="translate(6.487 1.169)" fill="#fff"/>
        </g>
        <g id="Grupo_16" data-name="Grupo 16" transform="translate(3.891 3.892)">
          <path id="Caminho_5" data-name="Caminho 5" d="M.777,0A4.109,4.109,0,1,0,4.886,4.108,4.108,4.108,0,0,0,.777,0m0,6.774A2.666,2.666,0,1,1,3.445,4.108,2.666,2.666,0,0,1,.777,6.774" transform="translate(3.332)" fill="#fff"/>
        </g>
        <g id="Grupo_17" data-name="Grupo 17" transform="translate(11.311 2.77)">
          <path id="Caminho_6" data-name="Caminho 6" d="M.363.181A.961.961,0,0,1-.6,1.141.961.961,0,0,1-1.557.181.961.961,0,0,1-.6-.778.961.961,0,0,1,.363.181" transform="translate(1.557 0.778)" fill="#fff"/>
        </g>
      </g>
    </g>
  </g>
</svg>
