<svg id="Camada_1" data-name="Camada 1" xmlns="http://www.w3.org/2000/svg" xmlns:xlink="http://www.w3.org/1999/xlink" viewBox="0 0 1280 1280"><defs><style>.cls-1{fill:none;}.cls-2{fill:#50a545;}.cls-3{clip-path:url(#clip-path);}.cls-4{fill:#f49725;}.cls-5{fill:#e94941;}.cls-6{fill:#efcc3e;}.cls-7{fill:#83c8e8;}.cls-8{fill:#4b8ed2;}.cls-9{fill:#b25aa7;}.cls-10{fill:#f1eee9;}</style><clipPath id="clip-path"><path class="cls-1" d="M1043.22,640H965.47a53.34,53.34,0,0,0-106.68,0H640V858.8a53.34,53.34,0,1,1,0,106.67v77.75c222.7,0,403.23-180.53,403.23-403.22Z"/></clipPath></defs><g id="Grupo_202" data-name="Grupo 202"><g id="Grupo_113" data-name="Grupo 113"><g id="Grupo_25" data-name="Grupo 25"><path id="Caminho_8" data-name="Caminho 8" class="cls-2" d="M640,236.78v77.75a53.34,53.34,0,1,0-.09,106.67H640V640H858.79a53.34,53.34,0,0,1,106.68,0h77.75C1043.22,417.31,862.69,236.78,640,236.78Z"/></g><g id="Grupo_26" data-name="Grupo 26"><path id="Caminho_9" data-name="Caminho 9" class="cls-2" d="M640.59,1042.61V964.87a53.34,53.34,0,0,0,0-106.68h0V639.39H421.8a53.34,53.34,0,0,1-106.68,0H237.37C237.37,862.09,417.9,1042.61,640.59,1042.61Z"/></g><g id="Grupo_27" data-name="Grupo 27"><path id="Caminho_10" data-name="Caminho 10" d="M640,1157c-285.53,0-517-231.47-517-517S354.47,123,640,123s517,231.47,517,517a517,517,0,0,1-517,517Zm0-1018.23c-276.82,0-501.22,224.41-501.22,501.23S363.18,1141.22,640,1141.22,1141.23,916.82,1141.23,640A501.21,501.21,0,0,0,640,138.78Z"/></g><g id="Grupo_28" data-name="Grupo 28"><path id="Caminho_11" data-name="Caminho 11" d="M1051.09,647.88H957.58V640a45.46,45.46,0,1,0-90.91,0v7.88H632.11V428.57a61.22,61.22,0,0,1,0-121.42V228.9H640c226.93.26,410.83,184.16,411.09,411.1Zm-78.25-15.76h62.42c-4.48-212.06-175.33-382.9-387.39-387.38v77.67H640a45.46,45.46,0,0,0,0,90.92h7.87V632.12H851.45a61.22,61.22,0,0,1,121.42,0Z"/></g><g id="Grupo_29" data-name="Grupo 29"><path id="Caminho_12" data-name="Caminho 12" d="M367.86,701.21a61.31,61.31,0,0,1-60.71-53.34H228.9V640c.26-226.93,184.16-410.84,411.09-411.1h7.88V322.4H640a45.46,45.46,0,0,0,0,90.92h7.88V647.87H428.57A61.31,61.31,0,0,1,367.86,701.21ZM244.73,632.12H322.4V640a45.46,45.46,0,1,0,90.91,0v-7.88h218.8V428.54a61.22,61.22,0,0,1,0-121.42V244.75c-212.06,4.48-382.89,175.32-387.38,387.37Z"/></g><g id="Grupo_30" data-name="Grupo 30"><path id="Caminho_13" data-name="Caminho 13" d="M647.87,1051.1H640C413.06,1050.85,229.16,866.94,228.9,640v-7.89h93.51V640a45.46,45.46,0,1,0,90.91,0v-7.89H647.88v219.3a61.22,61.22,0,0,1,0,121.42ZM244.73,647.9c4.49,212.06,175.33,382.9,387.39,387.38V957.6H640a45.46,45.46,0,0,0,0-90.92h-7.88V647.9H428.54a61.22,61.22,0,0,1-121.42,0Z"/></g><path id="Caminho_14" data-name="Caminho 14" d="M640.57,473.33V460H372v-43.8h237V402.82H562.91V359.34h30.38V346H498.67V302.24H640V288.91H562.92V247.86H549.61v41.05H429.08v13.33h56.31v43.81H358.17v13.33h57.57v43.44H307.25v13.33h51.48V460H283v7.28h-.61V516.8H257.56v13.36h101.2V574H241.82v13.33h40.6v43.65h-40.6v13.33H358.76v48.51h13.35V644.27H640.57V630.94H429.05V587.29H640.57V574H372.08v-43.8H640.57V516.83H562.92V473.35ZM429.05,359.38H549.61v43.44H429.08ZM415.71,630.91h-120V587.27h120Zm-120-157.58h120V516.8h-120ZM549.58,516.8H429.05V473.33H549.61Z"/><g id="Grupo_40" data-name="Grupo 40"><g class="cls-3"><g id="Grupo_39" data-name="Grupo 39"><g id="Grupo_38" data-name="Grupo 38"><g id="Grupo_31" data-name="Grupo 31"><rect id="Retângulo_18" data-name="Retângulo 18" class="cls-4" x="632.11" y="688.25" width="417.71" height="59.25"/></g><g id="Grupo_32" data-name="Grupo 32"><rect id="Retângulo_19" data-name="Retângulo 19" class="cls-5" x="632.61" y="571.51" width="417.71" height="117.43"/></g><g id="Grupo_33" data-name="Grupo 33"><rect id="Retângulo_20" data-name="Retângulo 20" class="cls-6" x="632.61" y="746.81" width="417.71" height="59.25"/></g><g id="Grupo_34" data-name="Grupo 34"><rect id="Retângulo_21" data-name="Retângulo 21" class="cls-2" x="632.61" y="806.06" width="417.71" height="59.25"/></g><g id="Grupo_35" data-name="Grupo 35"><rect id="Retângulo_22" data-name="Retângulo 22" class="cls-7" x="632.61" y="865.3" width="417.71" height="59.25"/></g><g id="Grupo_36" data-name="Grupo 36"><rect id="Retângulo_23" data-name="Retângulo 23" class="cls-8" x="632.61" y="924.56" width="417.71" height="59.25"/></g><g id="Grupo_37" data-name="Grupo 37"><rect id="Retângulo_24" data-name="Retângulo 24" class="cls-9" x="632.61" y="983.8" width="417.71" height="59.25"/></g></g></g></g></g><g id="Grupo_41" data-name="Grupo 41"><path id="Caminho_16" data-name="Caminho 16" d="M640,1051.1h-7.88V957.59H640a45.46,45.46,0,0,0,0-90.92h-7.88V632.12h219.3a61.22,61.22,0,0,1,121.42,0h78.25V640C1050.83,866.94,866.94,1050.84,640,1051.1Zm7.88-78.25v62.42c212.06-4.48,382.9-175.32,387.38-387.38H957.59V640a45.45,45.45,0,1,0-90.9-.41v8.29H647.89V851.47a61.22,61.22,0,0,1,0,121.42Z"/></g><g id="Grupo_45" data-name="Grupo 45"><g id="Grupo_42" data-name="Grupo 42"><path id="Caminho_17" data-name="Caminho 17" class="cls-10" d="M852.54,377s-187.28-43.41-248,188.51c0,0-36.45-21.66-21.08-96.74,11.16-54.57-42.17-78.13-78.13-60.77a51.22,51.22,0,0,1-59.53-9.93S490.41,444,478,493.61c-11.53,46.12-38.44,157.51,32.24,223.25s137.88,40.19,172.4,29.76c24.67-7.46,41.78-11,59.53-2.48,31,14.89,13.64,45.92,45.91,85.58A322,322,0,0,1,900.94,683.37S872.35,663.14,798,679.66c-55.81,12.39-71.91-12.41-89.92-36C708.06,643.67,886,571.74,852.54,377Z"/></g><g id="Grupo_43" data-name="Grupo 43"><path id="Caminho_18" data-name="Caminho 18" d="M781.79,834.78a121.31,121.31,0,0,1-24.47-53.15c-3.64-15-5.84-24.09-18.65-30.24-14.46-6.93-28.84-4.58-53.71,2.93l-5.5,1.74c-36.38,11.26-104.21,32.26-174.7-33.28-74.93-69.67-45.61-186.94-34.58-231.1,10.48-41.92-24.84-82.1-29.66-87.35l-.72-.76,11.73-11.05.42.44a43,43,0,0,0,49.82,7.8,67.15,67.15,0,0,1,69.07,7.05A60.68,60.68,0,0,1,591.3,470.4c-9.19,44.92.87,68.72,9.08,79.87,19.55-65.77,60.94-144.48,148.37-173.62a211.43,211.43,0,0,1,105.6-7.49l6.13,6.48c17.87,103.89-23.74,173.31-61.8,213.27a287.51,287.51,0,0,1-78.13,57.86c15.22,19.63,31,34.91,75.66,25,76.92-17.1,108.06,4.1,109.35,5v13.16A315.83,315.83,0,0,0,795.71,832.2ZM720.05,731.11a57.94,57.94,0,0,1,25.61,5.75c19.69,9.45,23.39,24.76,27.34,41a116.59,116.59,0,0,0,13,35,333.58,333.58,0,0,1,98.7-127.49c-13.86-4-41-7.6-85,2.18-58.66,13-78.49-13.11-96-36.17l-2.11-2.77L705,636.2a266.35,266.35,0,0,0,82.4-58.82c50.1-52.85,69.63-117.92,58-193.43a202.84,202.84,0,0,0-92.32,8.25C684,415.53,636.63,474.5,612.25,567.59l-11.91,4.89c-1.73-1-41.19-25.48-24.86-105.29a44.6,44.6,0,0,0-14.58-46.64,51.39,51.39,0,0,0-52.15-5.26,59,59,0,0,1-36.68,5.43c.5.87,1,1.77,1.5,2.69a100.06,100.06,0,0,1,12.21,72.15c-10.39,41.58-38,152.19,29.91,215.38,63.66,59.19,123.31,40.71,159,29.67l5.6-1.73A140.76,140.76,0,0,1,720.05,731.11Z"/></g><g id="Grupo_44" data-name="Grupo 44"><circle id="Elipse_13" data-name="Elipse 13" cx="530.7" cy="438.42" r="13.02"/><path id="Caminho_19" data-name="Caminho 19" d="M530.71,452.05a13.65,13.65,0,1,1,13.65-13.64h0A13.67,13.67,0,0,1,530.71,452.05Zm0-26a12.38,12.38,0,1,1,0,.05Z"/></g></g><g id="Grupo_62" data-name="Grupo 62"><g id="Grupo_46" data-name="Grupo 46"><path id="Caminho_20" data-name="Caminho 20" d="M340.11,266.9,368.88,302l-9.76,8L330.35,274.9Z"/></g><g id="Grupo_47" data-name="Grupo 47"><path id="Caminho_21" data-name="Caminho 21" d="M407.81,273.91l-10.39,7.22-28.15-11.26,14.49,20.79-10.4,7.23-25.94-37.16,10.4-7.22L386.16,265l-14.68-21,10.4-7.23Z"/></g><g id="Grupo_48" data-name="Grupo 48"><path id="Caminho_22" data-name="Caminho 22" d="M437.78,249.92a13.22,13.22,0,0,1-2.54,7,20.39,20.39,0,0,1-6.93,5.92,21.24,21.24,0,0,1-13.18,3A13.8,13.8,0,0,1,405,259.18l11.69-6.54a5.09,5.09,0,0,0,3,2.36,4.53,4.53,0,0,0,3.3-.53,3.79,3.79,0,0,0,1.87-2,3,3,0,0,0-.35-2.53,3.55,3.55,0,0,0-3.17-1.86,31.46,31.46,0,0,0-6.35.73,56.87,56.87,0,0,1-7.58.94,13.33,13.33,0,0,1-6.27-1.34,12.79,12.79,0,0,1-4-19.67,22.16,22.16,0,0,1,6.73-5.56,19.5,19.5,0,0,1,12.68-2.87,13.71,13.71,0,0,1,9.53,6.55l-11.81,6.6a5.12,5.12,0,0,0-2.67-2.11,3.86,3.86,0,0,0-2.93.47,3.29,3.29,0,0,0-1.64,1.8,3,3,0,0,0,.4,2.42,3.35,3.35,0,0,0,3.07,1.73,32.22,32.22,0,0,0,6.19-.67,58.27,58.27,0,0,1,7.67-.87,14.19,14.19,0,0,1,6.35,1.37,12.1,12.1,0,0,1,5.36,5.37A12.67,12.67,0,0,1,437.78,249.92Z"/></g><g id="Grupo_49" data-name="Grupo 49"><path id="Caminho_23" data-name="Caminho 23" d="M459.1,197l4.13,9.18-11.16,5,14.5,32.19-11.45,5.2-14.51-32.19-11.05,5-4.13-9.18Z"/></g><g id="Grupo_50" data-name="Grupo 50"><path id="Caminho_24" data-name="Caminho 24" d="M477.09,190.49,492.87,233,481,237.43l-15.77-42.55Z"/></g><g id="Grupo_51" data-name="Grupo 51"><path id="Caminho_25" data-name="Caminho 25" d="M518.22,177.33l2.94,9.63-11.71,3.56,10.28,33.78-12,3.66-10.28-33.79-11.58,3.53-2.93-9.62Z"/></g><g id="Grupo_52" data-name="Grupo 52"><path id="Caminho_26" data-name="Caminho 26" d="M537.44,173l5.19,25.37a9.12,9.12,0,0,0,2.86,5.46,6.28,6.28,0,0,0,5.48,1,6.41,6.41,0,0,0,4.69-3.12,9,9,0,0,0,.55-6.14L551,170.23l12.31-2.52,5.2,25.36a21.5,21.5,0,0,1-.36,11.2,16.89,16.89,0,0,1-5.59,8,22.08,22.08,0,0,1-9.47,4.26,21.37,21.37,0,0,1-10.21-.2,15.89,15.89,0,0,1-8-5.2,22.65,22.65,0,0,1-4.58-10.25l-5.2-25.36Z"/></g><g id="Grupo_53" data-name="Grupo 53"><path id="Caminho_27" data-name="Caminho 27" d="M607.12,162.71l1.08,10L596.08,174l3.78,35.11-12.49,1.35-3.78-35.11-12.05,1.3-1.08-10Z"/></g><g id="Grupo_54" data-name="Grupo 54"><path id="Caminho_28" data-name="Caminho 28" d="M648.29,164.14a21.85,21.85,0,0,1,8.39,8.24,25,25,0,0,1,.14,24,22,22,0,0,1-8.31,8.36,24.26,24.26,0,0,1-23.29.16,21.82,21.82,0,0,1-8.46-8.24,24.89,24.89,0,0,1-.16-24,22,22,0,0,1,8.34-8.36,24.4,24.4,0,0,1,23.39-.16Zm-19.18,11.93a14.32,14.32,0,0,0,.11,16.89,10.62,10.62,0,0,0,15,0l0-.06a12.31,12.31,0,0,0,2.7-8.41,12.48,12.48,0,0,0-2.79-8.48,10.72,10.72,0,0,0-15.08.1Z"/></g><g id="Grupo_55" data-name="Grupo 55"><path id="Caminho_29" data-name="Caminho 29" d="M715.39,167.57l-1.2,10-12.13-1.47-4.21,35.06-12.48-1.5,4.23-35.05-12-1.45,1.2-10Z"/></g><g id="Grupo_56" data-name="Grupo 56"><path id="Caminho_30" data-name="Caminho 30" d="M732.61,181.27l-1.51,7.34,14.38,2.95-1.92,9.35L729.18,198l-1.65,8,16.26,3.32-2,9.86-28.59-5.86,9.1-44.45,28.59,5.86-2,9.86ZM747,166.11l-17,3,1.74-8.29,17.14-3.88Z"/></g><g id="Grupo_57" data-name="Grupo 57"><path id="Caminho_31" data-name="Caminho 31" d="M789.16,187.43a19.22,19.22,0,0,1,5.37,8,22.53,22.53,0,0,1,1.08,9.88l-12.69-3.86a8.78,8.78,0,0,0-2-5,9.63,9.63,0,0,0-4.66-3,8.26,8.26,0,0,0-7.33,1,12.55,12.55,0,0,0-4.87,7.19,12.78,12.78,0,0,0,0,8.71,8.23,8.23,0,0,0,5.52,5,9.27,9.27,0,0,0,5.54.08,9,9,0,0,0,4.48-3.06l12.7,3.86a21,21,0,0,1-10.64,10,22.12,22.12,0,0,1-15.26.28A23,23,0,0,1,756,220.3a19.72,19.72,0,0,1-5.05-10.07,27.74,27.74,0,0,1,7-22.93,19.83,19.83,0,0,1,9.8-5.57,23.14,23.14,0,0,1,12.13.64A24.41,24.41,0,0,1,789.16,187.43Z"/></g><g id="Grupo_58" data-name="Grupo 58"><path id="Caminho_32" data-name="Caminho 32" d="M830.07,250.59l-11.61-5-5.38-29.82-9.94,23.27-11.61-5,17.79-41.67,11.61,5,5.26,30.12L836.26,204l11.61,5Z"/></g><g id="Grupo_59" data-name="Grupo 59"><path id="Caminho_33" data-name="Caminho 33" d="M867.58,219.32l-21,40.25-11.19-5.83,21-40.25Z"/></g><g id="Grupo_60" data-name="Grupo 60"><path id="Caminho_34" data-name="Caminho 34" d="M901.92,241.58a19.08,19.08,0,0,1,3.13,9.11,22.73,22.73,0,0,1-1.5,9.82l-11.26-7a8.89,8.89,0,0,0-.67-5.36,9.57,9.57,0,0,0-3.73-4.09,8.31,8.31,0,0,0-7.36-.91,14.79,14.79,0,0,0-8.78,14.13,8.26,8.26,0,0,0,4.07,6.22,9.31,9.31,0,0,0,5.33,1.5,9,9,0,0,0,5.12-1.8l11.26,7a20.89,20.89,0,0,1-12.85,6.93,22.12,22.12,0,0,1-14.81-3.66,23,23,0,0,1-8.45-8.66,19.7,19.7,0,0,1-2.28-11,27.74,27.74,0,0,1,12.65-20.35,19.71,19.71,0,0,1,10.9-2.85,23.06,23.06,0,0,1,11.53,3.72A24.26,24.26,0,0,1,901.92,241.58Z"/></g><g id="Grupo_61" data-name="Grupo 61"><path id="Caminho_35" data-name="Caminho 35" d="M945.2,274.11a21.71,21.71,0,0,1,1.42,11.68,25,25,0,0,1-14.85,18.82A22,22,0,0,1,920.06,306a24.26,24.26,0,0,1-18.31-14.41,21.82,21.82,0,0,1-1.46-11.71A24.87,24.87,0,0,1,915.1,261a21.87,21.87,0,0,1,11.73-1.33,24.38,24.38,0,0,1,18.35,14.44Zm-22.43-2.59a14.3,14.3,0,0,0-10.43,13.27,10.59,10.59,0,0,0,11.74,9.32h.1a12.22,12.22,0,0,0,7.35-4.89,12.38,12.38,0,0,0,3.1-8.36,9.49,9.49,0,0,0-4-7.11,9.59,9.59,0,0,0-7.85-2.26Z"/></g></g><g id="Grupo_102" data-name="Grupo 102"><g id="Grupo_63" data-name="Grupo 63"><path id="Caminho_36" data-name="Caminho 36" d="M210.08,575.18l-44.18-9.53,2.6-12.21,25.06,5.39-23.29-13.6,2.28-10.59,26.85-2.81-25.06-5.4L177,514.09l44.18,9.52-3.25,15.1-31,4.73,26.42,16.77Z"/></g><g id="Grupo_64" data-name="Grupo 64"><path id="Caminho_37" data-name="Caminho 37" d="M169.59,605.24l1.47-16L163.75,586,165,572.83l43.47,20.65L207.11,608l-46.5,12.34L161.82,607Zm9.74-2.27,15.13-3.46-14.23-6.26Z"/></g><g id="Grupo_65" data-name="Grupo 65"><path id="Caminho_38" data-name="Caminho 38" d="M196.11,639.25h-7.49v14.68h-9.53V639.25h-8.21v16.6h-10V626.62l45.37,0V655.8H196.11Z"/></g><g id="Grupo_66" data-name="Grupo 66"><path id="Caminho_39" data-name="Caminho 39" d="M170,695.3a13.22,13.22,0,0,1-5.32-5.19,20.21,20.21,0,0,1-2.53-8.74,21.18,21.18,0,0,1,2.68-13.24,13.78,13.78,0,0,1,10.27-6.42l1.12,13.35a5.11,5.11,0,0,0-3.39,1.73,4.53,4.53,0,0,0-.87,3.22,3.76,3.76,0,0,0,1,2.52,3,3,0,0,0,2.44.73,3.51,3.51,0,0,0,3-2.11,31.42,31.42,0,0,0,2-6.07,56.61,56.61,0,0,1,2.28-7.3,13.27,13.27,0,0,1,3.81-5.14,12.83,12.83,0,0,1,19.57,4.51,22.13,22.13,0,0,1,2.27,8.43,19.47,19.47,0,0,1-2.59,12.72,13.76,13.76,0,0,1-9.89,6l-1.13-13.48a5.13,5.13,0,0,0,3-1.57,3.87,3.87,0,0,0,.79-2.86,3.33,3.33,0,0,0-1-2.24,3,3,0,0,0-2.36-.63,3.37,3.37,0,0,0-2.85,2.07,32.57,32.57,0,0,0-2,5.92,57.92,57.92,0,0,1-2.41,7.35,14,14,0,0,1-3.87,5.19,12.06,12.06,0,0,1-7.11,2.65A12.63,12.63,0,0,1,170,695.3Z"/></g><g id="Grupo_67" data-name="Grupo 67"><path id="Caminho_40" data-name="Caminho 40" d="M215.51,731.59l-9.92,1.73-2.06-12.06-34.81,6-2.12-12.38,34.8-6-2-11.94,9.92-1.73Z"/></g><g id="Grupo_68" data-name="Grupo 68"><path id="Caminho_41" data-name="Caminho 41" d="M178.1,768,192,754.91l-.32-1.24-16.17,4.27-3.22-12.21,43.88-11.56,5.08,19.28a20.75,20.75,0,0,1,.53,9.43,13.19,13.19,0,0,1-3.59,6.88,14.68,14.68,0,0,1-6.77,3.77,13.33,13.33,0,0,1-8.66-.44,13.91,13.91,0,0,1-6.67-6.07l-14.41,14.47Zm21.66-16.52,1.58,6q1.35,5.09,5.93,3.87a4.69,4.69,0,0,0,3.07-2.17,5.41,5.41,0,0,0,.24-4.14l-1.58-6Z"/></g><g id="Grupo_69" data-name="Grupo 69"><path id="Caminho_42" data-name="Caminho 42" d="M236,805.18a21.74,21.74,0,0,1-4.84,10.72,25,25,0,0,1-22.45,8.39A22,22,0,0,1,198,819.38a24.24,24.24,0,0,1-8.19-21.8,21.89,21.89,0,0,1,4.81-10.78,24.88,24.88,0,0,1,22.45-8.43,21.9,21.9,0,0,1,10.71,4.94A24.36,24.36,0,0,1,236,805.17Zm-17.81-13.86a14.31,14.31,0,0,0-15.81,5.94,10.59,10.59,0,0,0,5.18,14l.11.05a12.29,12.29,0,0,0,8.83-.37,12.46,12.46,0,0,0,7-5.54,10.72,10.72,0,0,0-5.31-14.13Z"/></g><g id="Grupo_70" data-name="Grupo 70"><path id="Caminho_43" data-name="Caminho 43" d="M228.92,872l-7.64-14.16-7.84,1.39-6.29-11.68,47.65-6.83,6.93,12.81-31.92,36-6.33-11.74Zm6.86-7.26,10.66-11.26-15.32,2.65Z"/></g><g id="Grupo_71" data-name="Grupo 71"><path id="Caminho_44" data-name="Caminho 44" d="M248.32,899.85l7.8,11.82-8,5.26-14.73-22.36,37.89-25,6.93,10.54Z"/></g><g id="Grupo_72" data-name="Grupo 72"><path id="Caminho_45" data-name="Caminho 45" d="M306.87,919.15l-8,6.16-11.13-14.4-6.39,4.94,8.3,10.75-7.5,5.81-8.31-10.76-14.05,10.86-7.71-10L288,894.8Z"/></g><g id="Grupo_73" data-name="Grupo 73"><path id="Caminho_46" data-name="Caminho 46" d="M291.5,969.73l6.06-18.08-.87-.94-12.3,11.34-8.56-9.29L309.19,922l13.51,14.66a20.61,20.61,0,0,1,4.88,8.09,13.21,13.21,0,0,1,.05,7.8,14.79,14.79,0,0,1-4.21,6.49,13.33,13.33,0,0,1-7.8,3.65,13.87,13.87,0,0,1-8.72-2.23l-6,19.53ZM302.93,945l4.21,4.57a4.45,4.45,0,0,0,6.11,1.44,4.75,4.75,0,0,0,.94-.79,4.69,4.69,0,0,0,1.73-3.35,5.42,5.42,0,0,0-1.73-3.77L310,938.5Z"/></g><g id="Grupo_74" data-name="Grupo 74"><path id="Caminho_47" data-name="Caminho 47" d="M339.39,967.33l-5.05,5.53,10.83,9.89-6.43,7.06-10.84-9.9L322.37,986l12.25,11.19-6.78,7.43-21.58-19.71,30.6-33.5,21.58,19.7-6.79,7.44Z"/></g><g id="Grupo_75" data-name="Grupo 75"><path id="Caminho_48" data-name="Caminho 48" d="M371.71,1024.79a20.64,20.64,0,0,1-11.43,1.5,25.29,25.29,0,0,1-11.74-5.19l-14.4-10.92L361.54,974l14.4,10.92a26.07,26.07,0,0,1,8.26,9.84,19.77,19.77,0,0,1,1.73,11.31,25.44,25.44,0,0,1-14.22,18.7Zm-8.46-10.48a12.9,12.9,0,0,0,10.28-13.55,12.25,12.25,0,0,0-5.2-7.73l-3.47-2.6-13.93,18.39,3.47,2.6a12.3,12.3,0,0,0,8.85,2.88Z"/></g><g id="Grupo_76" data-name="Grupo 76"><path id="Caminho_49" data-name="Caminho 49" d="M425.47,1020.53a21.83,21.83,0,0,1,2.87,11.41A25,25,0,0,1,416,1052.47a22,22,0,0,1-11.44,2.81,24.27,24.27,0,0,1-20-12,21.93,21.93,0,0,1-2.92-11.44A24.88,24.88,0,0,1,394,1011.31a21.78,21.78,0,0,1,11.47-2.79,24.4,24.4,0,0,1,20,12Zm-22.59.2a14.34,14.34,0,0,0-8.66,14.48A10.6,10.6,0,0,0,407,1043l.12,0a12.25,12.25,0,0,0,6.69-5.77,12.49,12.49,0,0,0,2-8.67,10.71,10.71,0,0,0-12.94-7.79Z"/></g><g id="Grupo_77" data-name="Grupo 77"><path id="Caminho_50" data-name="Caminho 50" d="M471.85,1069.1a12.18,12.18,0,0,1-7.92,14.13,17.1,17.1,0,0,1-11.56-1.54l-20.54-9L450,1031.1l20.07,8.8a17.08,17.08,0,0,1,8.66,7.07,10.41,10.41,0,0,1,.06,9.53,10.73,10.73,0,0,1-4.66,5.35,9.75,9.75,0,0,1-6.53,1A11,11,0,0,1,471.85,1069.1Zm-11.72.46c1.15-2.58.22-4.54-2.82-5.85l-6.51-2.86-3.34,7.63,6.51,2.86c3,1.32,5.06.73,6.16-1.78Zm-5.81-16.75,5.81,2.55q4.33,1.91,5.94-1.74c1.08-2.42.16-4.32-2.75-5.68l-5.76-2.52Z"/></g><g id="Grupo_78" data-name="Grupo 78"><path id="Caminho_51" data-name="Caminho 51" d="M495.58,1097.78,492.11,1079l-1.22-.39-5.25,15.87-12-4,14.25-43.08,18.93,6.25a20.56,20.56,0,0,1,8.19,4.7,13.18,13.18,0,0,1,3.81,6.76,14.83,14.83,0,0,1-.53,7.73,13.33,13.33,0,0,1-5.08,7,13.88,13.88,0,0,1-8.72,2.28l4.26,20Zm-2-27.19,5.9,2q5,1.65,6.48-2.85a4.77,4.77,0,0,0-.14-3.76,5.48,5.48,0,0,0-3.34-2.46l-5.9-2Z"/></g><g id="Grupo_79" data-name="Grupo 79"><path id="Caminho_52" data-name="Caminho 52" d="M545.81,1103.06l-15.69-3.46-4.08,6.83-13-2.87,26-40.5,14.2,3.16,6.33,47.69-13-2.89Zm-1-9.93-1.55-15.45-8,13.32Z"/></g><g id="Grupo_80" data-name="Grupo 80"><path id="Caminho_53" data-name="Caminho 53" d="M581.52,1070.89l6.55,33.62,13.78-31.34,13.31,1.49L594.69,1118l-16.11-1.81-10.36-46.78Z"/></g><g id="Grupo_81" data-name="Grupo 81"><path id="Caminho_54" data-name="Caminho 54" d="M650.53,1077a21.8,21.8,0,0,1,8.31,8.33,25,25,0,0,1-.09,24,22,22,0,0,1-8.39,8.28,24.26,24.26,0,0,1-23.29-.06,22,22,0,0,1-8.38-8.33,24.89,24.89,0,0,1,.06-24,22,22,0,0,1,8.42-8.28,24.4,24.4,0,0,1,23.39.06Zm-19.3,11.75a14.32,14.32,0,0,0,0,16.88,10.6,10.6,0,0,0,15,.08l.08-.08a12.26,12.26,0,0,0,2.77-8.38,12.39,12.39,0,0,0-2.7-8.5,10.69,10.69,0,0,0-15.12,0Z"/></g><g id="Grupo_82" data-name="Grupo 82"><path id="Caminho_55" data-name="Caminho 55" d="M705.72,1088l1.25,10.39-28.83,3.47-1.25-10.4Z"/></g><g id="Grupo_83" data-name="Grupo 83"><path id="Caminho_56" data-name="Caminho 56" d="M753.49,1061.52a19.08,19.08,0,0,1,8.66,4.15,22.66,22.66,0,0,1,6,7.95l-12.89,3.13a8.81,8.81,0,0,0-4.33-3.27,9.56,9.56,0,0,0-5.53-.21,8.3,8.3,0,0,0-5.8,4.61,12.6,12.6,0,0,0-.54,8.66,12.77,12.77,0,0,0,4.46,7.5,8.27,8.27,0,0,0,7.28,1.46,9.39,9.39,0,0,0,4.81-2.75,9,9,0,0,0,2.29-4.92l12.89-3.13a20.93,20.93,0,0,1-4.07,14,22.11,22.11,0,0,1-13,8,23,23,0,0,1-12.12,0,19.8,19.8,0,0,1-9.47-6.11,27.71,27.71,0,0,1-5.66-23.29,19.73,19.73,0,0,1,5.61-9.77,23.07,23.07,0,0,1,10.73-5.61A24.25,24.25,0,0,1,753.49,1061.52Z"/></g><g id="Grupo_84" data-name="Grupo 84"><path id="Caminho_57" data-name="Caminho 57" d="M800.06,1046.79a21.78,21.78,0,0,1,10.65,5,25,25,0,0,1,8.13,22.53,22,22,0,0,1-5,10.64,23.15,23.15,0,0,1-9.92,6.76,23.41,23.41,0,0,1-12,1.17,21.91,21.91,0,0,1-10.72-4.95,24.88,24.88,0,0,1-8.16-22.52,21.82,21.82,0,0,1,5.07-10.66,24.38,24.38,0,0,1,22-8ZM786,1064.44a14.3,14.3,0,0,0,5.76,15.87,10.6,10.6,0,0,0,14.12-5l0-.07a12.26,12.26,0,0,0-.27-8.84,12.42,12.42,0,0,0-5.45-7,10.69,10.69,0,0,0-14.18,5.14Z"/></g><g id="Grupo_85" data-name="Grupo 85"><path id="Caminho_58" data-name="Caminho 58" d="M844.5,1026.42a21.82,21.82,0,0,1,11.14,3.75,25,25,0,0,1,10.58,21.51,21.87,21.87,0,0,1-3.82,11.14,24.23,24.23,0,0,1-20.88,10.32,21.87,21.87,0,0,1-11.2-3.72,24.9,24.9,0,0,1-10.62-21.49,22,22,0,0,1,3.84-11.16,24.43,24.43,0,0,1,21-10.35Zm-12,19.11a14.31,14.31,0,0,0,7.47,15.14,10.61,10.61,0,0,0,13.48-6.58l0-.09a12.24,12.24,0,0,0-1.25-8.75,12.39,12.39,0,0,0-6.2-6.41,10.62,10.62,0,0,0-13.49,6.69Z"/></g><g id="Grupo_86" data-name="Grupo 86"><path id="Caminho_59" data-name="Caminho 59" d="M883.7,1036l8.06,12.87-10.7,6.7L857,1017.14l16-10a17.41,17.41,0,0,1,12.81-3.15,14.55,14.55,0,0,1,9.53,7.06,15.3,15.3,0,0,1,2.46,7.54,13.42,13.42,0,0,1-2,7.58,19.92,19.92,0,0,1-6.75,6.54Zm.78-18.19a4.66,4.66,0,0,0-6.27-2,4.49,4.49,0,0,0-1.05.73l-4.07,2.56,5.34,8.52,4.07-2.55a4.7,4.7,0,0,0,2-7.21Z"/></g><g id="Grupo_87" data-name="Grupo 87"><path id="Caminho_60" data-name="Caminho 60" d="M918.47,1016l7.18,10-10.39,7.44-7.18-10Z"/></g><g id="Grupo_88" data-name="Grupo 88"><path id="Caminho_61" data-name="Caminho 61" d="M937.65,957.52l6.57,7.62-9.27,8,23,26.76-9.53,8.19-23-26.76-9.18,7.9-6.56-7.62Z"/></g><g id="Grupo_89" data-name="Grupo 89"><path id="Caminho_62" data-name="Caminho 62" d="M988.17,970.71l-18.38-5.07-.87.92,12,11.65-8.79,9.06-32.57-31.61,13.86-14.3a20.8,20.8,0,0,1,7.8-5.32,13.12,13.12,0,0,1,7.74-.48,14.81,14.81,0,0,1,6.73,3.84,13.36,13.36,0,0,1,4.08,7.63,13.85,13.85,0,0,1-1.74,8.84l19.83,4.87Zm-25.35-10,4.34-4.46a4.43,4.43,0,0,0,1.09-6.16,4.54,4.54,0,0,0-.84-.91,4.68,4.68,0,0,0-3.47-1.51,5.42,5.42,0,0,0-3.66,1.94L956,954Z"/></g><g id="Grupo_90" data-name="Grupo 90"><path id="Caminho_63" data-name="Caminho 63" d="M1014.85,927.84l-10,12.6,4.37,6.66L1001,957.49l-25.12-41.07,9-11.4,45.68,15.1-8.29,10.45Zm-9.39-3.47L990.88,919l8.49,13Z"/></g><g id="Grupo_91" data-name="Grupo 91"><path id="Caminho_64" data-name="Caminho 64" d="M1036.85,874.5a12.18,12.18,0,0,1,12.72,10,17.13,17.13,0,0,1-3.31,11.19l-12.13,18.89-38.22-24.46,11.81-18.46a17.11,17.11,0,0,1,8.33-7.42,10.38,10.38,0,0,1,9.42,1.43,10.71,10.71,0,0,1,4.56,5.43,9.77,9.77,0,0,1,0,6.62A11,11,0,0,1,1036.85,874.5ZM1018,889.28l3.42-5.34q2.56-4-.79-6.14c-2.22-1.42-4.25-.81-6.06,1.84l-3.38,5.29Zm17.46-3.13q-3.57-2.28-6.22,1.88l-3.84,6,7,4.49,3.84-6c1.78-2.76,1.51-4.89-.79-6.36Z"/></g><g id="Grupo_92" data-name="Grupo 92"><path id="Caminho_65" data-name="Caminho 65" d="M1052.3,861l10.69,6.06-6.31,11.08L1046,872.09Z"/></g><g id="Grupo_93" data-name="Grupo 93"><path id="Caminho_66" data-name="Caminho 66" d="M1045,823.6l6.83,3.07,6-13.38,8.71,3.92-6,13.38,7.48,3.37,6.81-15.13L1084,823l-12,26.66L1030.66,831l12-26.65,9.17,4.13Z"/></g><g id="Grupo_94" data-name="Grupo 94"><path id="Caminho_67" data-name="Caminho 67" d="M1100.91,775.57l-4.09,11.95-29.35,7.56,24,8.21-4.08,11.94-42.87-14.67,4.09-11.95,29.65-7.46L1054,772.84,1058,760.9Z"/></g><g id="Grupo_95" data-name="Grupo 95"><path id="Caminho_68" data-name="Caminho 68" d="M1104.67,733.65a13.15,13.15,0,0,1,3.46,6.61,20.33,20.33,0,0,1-.3,9.08,21.31,21.31,0,0,1-6.66,11.77,13.82,13.82,0,0,1-11.76,2.92l3.08-13a5.12,5.12,0,0,0,3.78-.63,4.57,4.57,0,0,0,1.84-2.79,3.77,3.77,0,0,0-.22-2.72,3,3,0,0,0-2.1-1.44,3.52,3.52,0,0,0-3.51,1.08,32.16,32.16,0,0,0-3.76,5.2,55.25,55.25,0,0,1-4.43,6.22,13.16,13.16,0,0,1-5.19,3.71,12.8,12.8,0,0,1-17.23-10.32,22.48,22.48,0,0,1,.45-8.72,19.5,19.5,0,0,1,6.44-11.26,13.74,13.74,0,0,1,11.26-2.6l-3.1,13.16a5.1,5.1,0,0,0-3.36.56,3.93,3.93,0,0,0-1.64,2.48,3.36,3.36,0,0,0,.22,2.43,3,3,0,0,0,2.06,1.34,3.36,3.36,0,0,0,3.35-1.08,33,33,0,0,0,3.69-5,57.93,57.93,0,0,1,4.56-6.24,14.1,14.1,0,0,1,5.3-3.75,12.2,12.2,0,0,1,7.58-.32A12.79,12.79,0,0,1,1104.67,733.65Z"/></g><g id="Grupo_96" data-name="Grupo 96"><path id="Caminho_69" data-name="Caminho 69" d="M1102,713l12.13,2.07-2.15,12.57-12.13-2.07Z"/></g><g id="Grupo_97" data-name="Grupo 97"><path id="Caminho_70" data-name="Caminho 70" d="M1108.44,682.33l1.26-14.11,9.53.87-2.39,26.68-45.19-4,1.12-12.57Z"/></g><g id="Grupo_98" data-name="Grupo 98"><path id="Caminho_71" data-name="Caminho 71" d="M1074.63,627.49l10.06.11-.14,12.24,35.31.4-.14,12.56-35.31-.4-.14,12.13-10-.11Z"/></g><g id="Grupo_99" data-name="Grupo 99"><path id="Caminho_72" data-name="Caminho 72" d="M1105.58,583.44a20.7,20.7,0,0,1,8.76,7.5,25.39,25.39,0,0,1,4,12.21l1.51,18-45.22,3.78-1.51-18a26.23,26.23,0,0,1,1.8-12.72,19.88,19.88,0,0,1,7.26-8.85,25.51,25.51,0,0,1,23.39-1.92Zm-2.13,13.3a12.91,12.91,0,0,0-17,1.42,12.21,12.21,0,0,0-2.3,9l.36,4.28,23-1.93-.36-4.28a12.31,12.31,0,0,0-3.73-8.49Z"/></g><g id="Grupo_100" data-name="Grupo 100"><path id="Caminho_73" data-name="Caminho 73" d="M1102.32,544.37l3,15.8,7.89,1,2.49,13-47.49-7.8-2.73-14.29,41.27-24.72,2.5,13.1Zm-8.73,4.87L1080,556.79l15.41,2.08Z"/></g><g id="Grupo_101" data-name="Grupo 101"><path id="Caminho_74" data-name="Caminho 74" d="M1090.12,514.46,1102,511.3l3.27,12.32-11.88,3.16Z"/></g></g><g id="Grupo_112" data-name="Grupo 112"><g id="Grupo_103" data-name="Grupo 103"><path id="Caminho_75" data-name="Caminho 75" class="cls-10" d="M662.42,847a55.64,55.64,0,0,0-16.36,2.42h0A55.64,55.64,0,0,0,629.7,847c-24.76,0-44.84,15.74-44.84,35.15s20.08,35.16,44.84,35.16a56.49,56.49,0,0,1,32.73,0c24.77,0,44.85-15.74,44.85-35.16S687.19,847,662.42,847Z"/></g><g id="Grupo_106" data-name="Grupo 106"><g id="Grupo_104" data-name="Grupo 104"><path id="Caminho_76" data-name="Caminho 76" d="M553.72,878.47a21.1,21.1,0,0,0,7.34-13.64q0-5.91-4.74-5.91a4.17,4.17,0,0,0-3.89,2.06,14.73,14.73,0,0,0-1.3,6.8H534a22.33,22.33,0,0,1,21-23.63,23,23,0,0,1,2.75,0,21.34,21.34,0,0,1,16,5.37,18.81,18.81,0,0,1,5.2,13.6,27.4,27.4,0,0,1-6.31,17A58.36,58.36,0,0,1,557.14,894h22.73v14.24H534.14V895.08A159.17,159.17,0,0,0,553.72,878.47Z"/></g><g id="Grupo_105" data-name="Grupo 105"><path id="Caminho_77" data-name="Caminho 77" d="M716.31,898.29V883.62L744,844.78h19v38.3h7v15.21h-7V909H745.29V898.29Zm30.32-33.38L734,883.1h12.61Z"/></g></g><g id="Grupo_111" data-name="Grupo 111"><g id="Grupo_107" data-name="Grupo 107"><path id="Caminho_78" data-name="Caminho 78" d="M629.68,920.31c-26.39,0-47.87-17.12-47.87-38.18s21.48-38.19,47.87-38.19,47.89,17.13,47.89,38.19a31.72,31.72,0,0,1-4.73,16.58l-.38.62-5.1-3.27.29-.48a25.69,25.69,0,0,0,3.86-13.45c0-17.71-18.76-32.13-41.82-32.13s-41.82,14.42-41.82,32.13,18.77,32.12,41.82,32.12a52.3,52.3,0,0,0,17.09-2.81l2,5.73A58.41,58.41,0,0,1,629.68,920.31Z"/></g><g id="Grupo_108" data-name="Grupo 108"><path id="Caminho_79" data-name="Caminho 79" d="M620.25,900.8a20.51,20.51,0,0,1-15.41-18.63,25.41,25.41,0,0,1,49.71,0,18.29,18.29,0,0,1-7.23,14.22l-3.82-4.7a12.38,12.38,0,0,0,5-9.53c0-7.8-8.42-14.07-18.78-14.07s-18.79,6.32-18.79,14.07A14.61,14.61,0,0,0,622.17,895Z"/></g><g id="Grupo_109" data-name="Grupo 109"><path id="Caminho_80" data-name="Caminho 80" d="M662.42,920.31c-26.4,0-47.89-17.12-47.89-38.18a32.35,32.35,0,0,1,5.54-17.87l5,3.36a25.81,25.81,0,0,0-4.53,14.51c0,17.71,18.76,32.12,41.82,32.12s41.83-14.42,41.83-32.12S685.47,850,662.41,850a53,53,0,0,0-15.47,2.28l-1.77-5.79a58.25,58.25,0,0,1,17.24-2.55c26.41,0,47.88,17.13,47.88,38.19S688.82,920.31,662.42,920.31Z"/></g><g id="Grupo_110" data-name="Grupo 110"><path id="Caminho_81" data-name="Caminho 81" d="M662.42,902.24a22.88,22.88,0,0,1-24.84-20.13A18.19,18.19,0,0,1,644,868.53l4,4.53a12.25,12.25,0,0,0-4.44,9.05c0,7.8,8.43,14.07,18.79,14.07s18.78-6.32,18.78-14.07a15,15,0,0,0-12.48-13.26l1.57-5.84a20.94,20.94,0,0,1,17,19.1A22.88,22.88,0,0,1,662.42,902.24Z"/></g></g></g></g></g></svg>