<svg id="Camada_1" data-name="Camada 1" xmlns="http://www.w3.org/2000/svg" viewBox="0 0 388 388"><defs><style>.cls-1{fill:#f1eee9;}.cls-2{fill:#f49725;}.cls-3{fill:#e94941;}.cls-4{fill:#efcc3e;}.cls-5{fill:#50a545;}.cls-6{fill:#83c8e8;}.cls-7{fill:#4b8ed2;}.cls-8{fill:#8c4b84;}</style></defs><circle class="cls-1" cx="194" cy="194" r="192.54"/><path class="cls-2" d="M200,240.08H345.93a149.91,149.91,0,0,0,4.26-21.71H200Z" transform="translate(-6 -6)"/><path class="cls-3" d="M351.31,200H322.13a20,20,0,0,0-40,0H200v18.11H350.22A152.49,152.49,0,0,0,351.31,200Z" transform="translate(-6 -6)"/><path class="cls-4" d="M200,262.31H337.92a150,150,0,0,0,7.94-22H200Z" transform="translate(-6 -6)"/><path class="cls-5" d="M200,282.1a19.85,19.85,0,0,1,9.58,2.45H325.5a151.32,151.32,0,0,0,12.42-22.24H200Z" transform="translate(-6 -6)"/><path class="cls-6" d="M220,302.12a20.5,20.5,0,0,1-.56,4.66H307.2a153.1,153.1,0,0,0,18.3-22.23H209.58A20,20,0,0,1,220,302.12Z" transform="translate(-6 -6)"/><path class="cls-7" d="M200,322.13V329h79.08a152.06,152.06,0,0,0,28.12-22.23H219.45A20,20,0,0,1,200,322.13Z" transform="translate(-6 -6)"/><path class="cls-8" d="M200,329v22.23h4.28A150.46,150.46,0,0,0,279.08,329Z" transform="translate(-6 -6)"/><path class="cls-5" d="M200,48.69V77.87a20,20,0,0,0,0,40V200h82.1a20,20,0,0,1,40,0h29.18A151.32,151.32,0,0,0,200,48.69Z" transform="translate(-6 -6)"/><path class="cls-5" d="M200.23,351.08V321.9a20,20,0,1,0,0-40V199.77H118.12a20,20,0,1,1-40,0H48.92A151.31,151.31,0,0,0,200.23,351.08Z" transform="translate(-6 -6)"/><path d="M200,394A194,194,0,0,1,62.82,62.82,194,194,0,0,1,337.18,337.18,192.73,192.73,0,0,1,200,394Zm0-382.09A188.09,188.09,0,0,0,67,333,188.09,188.09,0,0,0,333,67,186.89,186.89,0,0,0,200,11.91Z" transform="translate(-6 -6)"/><path d="M354.26,203H319.17v-3a17.06,17.06,0,1,0-34.11,0v3H197v-82.3a23,23,0,0,1,0-45.56V45.74h3c85.06,0,154.26,69.2,154.26,154.26ZM324.9,197h23.42C346.76,117.59,282.41,53.24,203,51.68V80.83h-3a17.06,17.06,0,1,0,0,34.11h3V197h76.38a23,23,0,0,1,45.56,0Z" transform="translate(-6 -6)"/><path d="M97.88,223A23,23,0,0,1,75.1,203H45.74v-3c0-85.06,69.2-154.26,154.26-154.26h3V80.83h-3a17.06,17.06,0,1,0,0,34.11h3v88h-82.3A23,23,0,0,1,97.88,223ZM51.68,197H80.83v3a17.06,17.06,0,1,0,34.11,0v-3H197V120.66a23,23,0,0,1,0-45.56V51.68C117.59,53.24,53.24,117.59,51.68,197Z" transform="translate(-6 -6)"/><path d="M203,354.26h-3c-85.06,0-154.26-69.2-154.26-154.26v-3H80.83v3a17.06,17.06,0,1,0,34.11,0v-3h88v82.3a23,23,0,0,1,0,45.56ZM51.68,203c1.56,79.45,65.91,143.8,145.36,145.36V319.17h3a17.06,17.06,0,1,0,0-34.11h-3V203H120.66a23,23,0,0,1-45.56,0Z" transform="translate(-6 -6)"/><rect x="114.85" y="62.25" width="79.15" height="5"/><rect x="88.24" y="83.7" width="88.24" height="5"/><rect x="69.14" y="105.01" width="113.26" height="5"/><rect x="60.04" y="126.45" width="134.18" height="5"/><rect x="50.49" y="147.77" width="143.74" height="5"/><rect x="44.58" y="169.21" width="149.65" height="5"/><rect x="44.58" y="190.59" width="149.65" height="5"/><rect x="160.08" y="46.85" width="5" height="17.9"/><rect x="160.08" y="86.42" width="5" height="20.92"/><rect x="109.85" y="86.42" width="5" height="20.92"/><rect x="160.08" y="129.18" width="5" height="20.92"/><rect x="109.85" y="129.18" width="5" height="20.92"/><rect x="59.81" y="129.18" width="5" height="20.92"/><rect x="109.85" y="171.48" width="5" height="20.92"/><rect x="59.81" y="171.48" width="5" height="20.92"/><rect x="135.98" y="64.59" width="5" height="21.83"/><rect x="88.46" y="108.92" width="5" height="20.92"/><rect x="88.47" y="150.56" width="5" height="20.92"/><rect x="88.47" y="193.32" width="5" height="20.47"/><path d="M200,354.26h-3V319.17h3a17.06,17.06,0,1,0,0-34.11h-3V197h82.3a23,23,0,0,1,45.56,0h29.36v3C354.26,285.06,285.06,354.26,200,354.26Zm3-29.36v23.42c79.45-1.56,143.8-65.91,145.36-145.36H319.17v-3a17.06,17.06,0,1,0-34.11,0v3H203v76.38a23,23,0,0,1,0,45.56Z" transform="translate(-6 -6)"/><path class="cls-1" d="M279.76,101.32S209.48,85,186.68,172.06c0,0-13.68-8.12-7.91-36.3C183,115.28,163,106.44,149.45,113c-13.15,6.35-22.34-3.73-22.34-3.73s16.75,17.22,12.1,35.84c-4.33,17.3-14.43,59.1,12.1,83.77S203.05,243.92,216,240c9.26-2.8,15.68-4.13,22.34-.94,11.63,5.59,5.12,17.22,17.22,32.12,0,0,10.7-32.58,42.35-54.92,0,0-10.74-7.59-38.63-1.39-20.94,4.65-27-4.66-33.74-13.5C225.54,201.38,292.32,174.39,279.76,101.32Z" transform="translate(-6 -6)"/><path d="M253.21,273.09c-6.19-7.62-7.85-14.45-9.18-19.94-1.37-5.64-2.2-9-7-11.35-5.43-2.6-10.83-1.72-20.16,1.1l-2.06.64c-13.67,4.23-39.11,12.11-65.56-12.49-28.12-26.14-17.11-70.15-13-86.72,3.93-15.73-9.33-30.81-11.14-32.77-.09-.1-.18-.19-.26-.29l4.4-4.15.16.17a16.1,16.1,0,0,0,18.69,2.94,25.2,25.2,0,0,1,25.92,2.65c6.85,5.32,9.65,13.89,7.68,23.49-3.44,16.84.33,25.77,3.41,30,7.34-24.68,22.87-54.21,55.67-65.14a79.25,79.25,0,0,1,39.63-2.81l2.3,2.43c6.7,39-8.91,65-23.19,80a108.09,108.09,0,0,1-29.32,21.71c5.71,7.36,11.62,13.1,28.39,9.37,28.87-6.41,40.55,1.54,41,1.88v4.94c-30.4,21.46-41.12,53.08-41.22,53.39ZM230,234.19a21.76,21.76,0,0,1,9.61,2.16c7.39,3.54,8.78,9.29,10.26,15.37a43.77,43.77,0,0,0,4.88,13.13,125.2,125.2,0,0,1,37-47.84c-5.21-1.48-15.37-2.86-31.89.82-22,4.89-29.45-4.92-36-13.58l-.79-1,1.28-4.64a100,100,0,0,0,30.92-22.07c18.79-19.84,26.12-44.25,21.78-72.58A75.94,75.94,0,0,0,242.47,107c-25.93,8.76-43.71,30.9-52.86,65.82l-4.47,1.83c-.64-.38-15.46-9.56-9.34-39.51,1.51-7.37-.43-13.58-5.46-17.5a19.3,19.3,0,0,0-19.58-2,22.12,22.12,0,0,1-13.76,2c.19.34.38.67.56,1,5.09,9.36,6.68,18.72,4.59,27.08-3.91,15.62-14.28,57.11,11.22,80.82,23.89,22.21,46.28,15.28,59.65,11.14l2.1-.65C220.5,235.49,225.34,234.19,230,234.19Z" transform="translate(-6 -6)"/><circle cx="152.99" cy="118.36" r="4.89"/><path d="M159,129.48a5.12,5.12,0,1,1,5.12-5.12A5.13,5.13,0,0,1,159,129.48Zm0-9.78a4.66,4.66,0,1,0,4.65,4.66A4.66,4.66,0,0,0,159,119.7Z" transform="translate(-6 -6)"/><path d="M87.47,60,98.26,73.18l-3.66,3L83.81,63Z" transform="translate(-6 -6)"/><path d="M112.87,62.61,109,65.32,98.42,61.11l5.44,7.79L100,71.61,90.25,57.67,94.13,55l10.63,4.31-5.5-7.89,3.88-2.71Z" transform="translate(-6 -6)"/><path d="M124.12,53.62a5,5,0,0,1-1,2.63,7.46,7.46,0,0,1-2.59,2.22,8,8,0,0,1-4.94,1.14,5.17,5.17,0,0,1-3.79-2.51l4.39-2.45a1.94,1.94,0,0,0,1.13.88,1.67,1.67,0,0,0,1.24-.2,1.44,1.44,0,0,0,.7-.75,1.15,1.15,0,0,0-.13-.94,1.34,1.34,0,0,0-1.19-.7,11.59,11.59,0,0,0-2.39.27,21.23,21.23,0,0,1-2.85.35,4.83,4.83,0,0,1-2.34-.5,5.1,5.1,0,0,1-2.61-4.78,5,5,0,0,1,1.11-2.61,8.21,8.21,0,0,1,2.52-2.08,7.28,7.28,0,0,1,4.76-1.08A5.16,5.16,0,0,1,119.74,45l-4.43,2.47a1.94,1.94,0,0,0-1-.79,1.47,1.47,0,0,0-1.1.18,1.24,1.24,0,0,0-.62.67,1.11,1.11,0,0,0,.15.91,1.26,1.26,0,0,0,1.15.65,12.19,12.19,0,0,0,2.33-.25,22.48,22.48,0,0,1,2.88-.32,5.26,5.26,0,0,1,2.38.52,4.55,4.55,0,0,1,2,2A4.79,4.79,0,0,1,124.12,53.62Z" transform="translate(-6 -6)"/><path d="M132.12,33.78l1.55,3.44-4.19,1.89,5.44,12.08-4.29,1.93L125.18,41,121,42.91l-1.55-3.44Z" transform="translate(-6 -6)"/><path d="M138.87,31.32l5.92,16-4.44,1.65-5.92-16Z" transform="translate(-6 -6)"/><path d="M154.3,26.39,155.4,30,151,31.34,154.87,44l-4.51,1.37L146.5,32.71,142.15,34l-1.1-3.61Z" transform="translate(-6 -6)"/><path d="M161.51,24.76l2,9.52a3.41,3.41,0,0,0,1.07,2,2.31,2.31,0,0,0,2.05.38,2.37,2.37,0,0,0,1.76-1.17,3.33,3.33,0,0,0,.21-2.3l-2-9.52,4.62-.94,1.95,9.52a8.06,8.06,0,0,1-.14,4.2,6.39,6.39,0,0,1-2.09,3,8.3,8.3,0,0,1-3.55,1.59,8,8,0,0,1-3.84-.07,6,6,0,0,1-3-2,8.57,8.57,0,0,1-1.72-3.84l-2-9.52Z" transform="translate(-6 -6)"/><path d="M187.66,20.9l.41,3.75-4.57.49,1.42,13.18-4.69.5-1.42-13.17-4.52.48-.4-3.75Z" transform="translate(-6 -6)"/><path d="M203.11,21.43a8.16,8.16,0,0,1,3.15,3.1A8.86,8.86,0,0,1,207.43,29a8.72,8.72,0,0,1-1.12,4.5,8.25,8.25,0,0,1-3.12,3.14,9.08,9.08,0,0,1-8.74.06,8.32,8.32,0,0,1-3.17-3.09,8.82,8.82,0,0,1-1.18-4.49,8.76,8.76,0,0,1,1.12-4.51,8.18,8.18,0,0,1,3.13-3.13,8.72,8.72,0,0,1,4.37-1.15A8.85,8.85,0,0,1,203.11,21.43Zm-7.19,4.48a4.65,4.65,0,0,0-1,3.19A4.64,4.64,0,0,0,196,32.25a3.62,3.62,0,0,0,2.85,1.16,3.55,3.55,0,0,0,2.8-1.2,4.58,4.58,0,0,0,1-3.16,4.6,4.6,0,0,0-1-3.18,4,4,0,0,0-5.66,0Z" transform="translate(-6 -6)"/><path d="M228.29,22.72l-.45,3.75-4.56-.55-1.59,13.16L217,38.51l1.59-13.15-4.51-.54.45-3.75Z" transform="translate(-6 -6)"/><path d="M234.75,27.86l-.56,2.76,5.39,1.1-.72,3.51-5.39-1.1-.62,3,6.1,1.25-.76,3.7-10.74-2.2,3.42-16.68,10.74,2.2-.76,3.7Zm5.38-5.68-6.36,1.12.63-3.11,6.44-1.45Z" transform="translate(-6 -6)"/><path d="M256,30.18a7.2,7.2,0,0,1,2,3,8.46,8.46,0,0,1,.4,3.71l-4.76-1.45a3.29,3.29,0,0,0-.76-1.88,3.54,3.54,0,0,0-1.74-1.12,3.12,3.12,0,0,0-2.76.38,4.77,4.77,0,0,0-1.83,2.7,4.8,4.8,0,0,0,0,3.27,3.07,3.07,0,0,0,2.07,1.86,3.52,3.52,0,0,0,2.08,0,3.38,3.38,0,0,0,1.68-1.15L257.15,41a7.88,7.88,0,0,1-4,3.75,8.31,8.31,0,0,1-5.73.11,8.66,8.66,0,0,1-3.9-2.33,7.39,7.39,0,0,1-1.89-3.78,10.44,10.44,0,0,1,2.61-8.61A7.4,7.4,0,0,1,247.93,28a8.55,8.55,0,0,1,4.54.23A9.17,9.17,0,0,1,256,30.18Z" transform="translate(-6 -6)"/><path d="M271.33,53.87,267,52l-2-11.19-3.73,8.74-4.36-1.86,6.68-15.64,4.36,1.86,2,11.3,3.78-8.84L278,38.24Z" transform="translate(-6 -6)"/><path d="M285.4,42.14l-7.87,15.1-4.2-2.19L281.19,40Z" transform="translate(-6 -6)"/><path d="M298.29,50.49a7.18,7.18,0,0,1,1.17,3.42,8.53,8.53,0,0,1-.56,3.69L294.67,55a3.36,3.36,0,0,0-.25-2,3.54,3.54,0,0,0-1.4-1.53,3.08,3.08,0,0,0-2.76-.34,4.76,4.76,0,0,0-2.46,2.13,4.84,4.84,0,0,0-.83,3.17,3.12,3.12,0,0,0,1.52,2.33,3.44,3.44,0,0,0,2,.56,3.36,3.36,0,0,0,1.92-.67l4.23,2.62a7.87,7.87,0,0,1-4.82,2.6,8.35,8.35,0,0,1-5.56-1.37,8.76,8.76,0,0,1-3.18-3.26,7.5,7.5,0,0,1-.85-4.14,9.65,9.65,0,0,1,1.5-4.36A9.54,9.54,0,0,1,287,47.42a7.32,7.32,0,0,1,4.09-1.07,8.58,8.58,0,0,1,4.32,1.4A9.11,9.11,0,0,1,298.29,50.49Z" transform="translate(-6 -6)"/><path d="M314.53,62.7a8.2,8.2,0,0,1,.53,4.38,9.36,9.36,0,0,1-5.57,7.07,8.16,8.16,0,0,1-4.39.5A8.6,8.6,0,0,1,301,72.83a8.71,8.71,0,0,1-2.75-3.58,8.16,8.16,0,0,1-.55-4.4,9.36,9.36,0,0,1,5.56-7.07,8.27,8.27,0,0,1,4.4-.5,9.17,9.17,0,0,1,6.89,5.42Zm-8.42-1a5.4,5.4,0,0,0-3.92,5,4,4,0,0,0,4.45,3.5,5.39,5.39,0,0,0,3.92-5,3.54,3.54,0,0,0-1.5-2.67A3.62,3.62,0,0,0,306.11,61.71Z" transform="translate(-6 -6)"/><path d="M38.68,175.68,22.1,172.11l1-4.58,9.4,2-8.74-5.1.85-4,10.07-1.05-9.4-2,1-4.63,16.58,3.57L41.62,162,30,163.77l9.91,6.29Z" transform="translate(-6 -6)"/><path d="M23.48,187l.55-6-2.74-1.19.46-5,16.31,7.75-.5,5.44-17.45,4.63.46-5Zm3.65-.84,5.68-1.32-5.34-2.35Z" transform="translate(-6 -6)"/><path d="M33.43,199.72H30.62v5.51H27v-5.5H24V206H20.19V195l17,0,0,11H33.44Z" transform="translate(-6 -6)"/><path d="M23.63,220.74a4.92,4.92,0,0,1-2-2,7.62,7.62,0,0,1-.95-3.28,7.9,7.9,0,0,1,1-5,5.17,5.17,0,0,1,3.85-2.41l.42,5a1.92,1.92,0,0,0-1.27.66,1.7,1.7,0,0,0-.34,1.21,1.39,1.39,0,0,0,.4.94,1.11,1.11,0,0,0,.91.28,1.32,1.32,0,0,0,1.13-.8,11.43,11.43,0,0,0,.74-2.28,22.85,22.85,0,0,1,.85-2.74,5.18,5.18,0,0,1,1.44-1.93,5.09,5.09,0,0,1,5.43-.39,5.08,5.08,0,0,1,1.91,2.08,8.37,8.37,0,0,1,.86,3.17,7.33,7.33,0,0,1-1,4.77,5.13,5.13,0,0,1-3.71,2.23l-.42-5.06a1.83,1.83,0,0,0,1.13-.59,1.42,1.42,0,0,0,.29-1.07,1.22,1.22,0,0,0-.36-.84,1.11,1.11,0,0,0-.88-.24,1.26,1.26,0,0,0-1.07.78,11.63,11.63,0,0,0-.73,2.22,22.88,22.88,0,0,1-.91,2.76,5.3,5.3,0,0,1-1.45,1.95,4.6,4.6,0,0,1-2.67,1A4.69,4.69,0,0,1,23.63,220.74Z" transform="translate(-6 -6)"/><path d="M40.71,234.37,37,235l-.77-4.52-13.07,2.23-.79-4.65,13.06-2.23-.76-4.48,3.72-.63Z" transform="translate(-6 -6)"/><path d="M26.68,248l5.19-4.92-.12-.46-6.07,1.59-1.21-4.58,16.47-4.33,1.9,7.23a7.65,7.65,0,0,1,.2,3.54,4.88,4.88,0,0,1-1.35,2.58,5.45,5.45,0,0,1-2.53,1.41,5,5,0,0,1-3.24-.16,5.16,5.16,0,0,1-2.5-2.28L28,253.09Zm8.14-6.19.59,2.25c.34,1.27,1.08,1.76,2.23,1.46a1.8,1.8,0,0,0,1.15-.82,2,2,0,0,0,.09-1.55l-.6-2.26Z" transform="translate(-6 -6)"/><path d="M48.42,262a8.2,8.2,0,0,1-1.82,4,8.87,8.87,0,0,1-3.81,2.65,8.72,8.72,0,0,1-4.62.5,8.17,8.17,0,0,1-4-1.84,8.7,8.7,0,0,1-2.59-3.69,8.89,8.89,0,0,1-.49-4.49,8.29,8.29,0,0,1,1.81-4,9.33,9.33,0,0,1,8.42-3.16,8.1,8.1,0,0,1,4,1.86,8.73,8.73,0,0,1,2.59,3.7A8.85,8.85,0,0,1,48.42,262Zm-6.69-5.21a4.64,4.64,0,0,0-3.34.15A4.62,4.62,0,0,0,35.8,259a4,4,0,0,0,2,5.29,4.61,4.61,0,0,0,3.31-.14,4.62,4.62,0,0,0,2.62-2.08,4,4,0,0,0-2-5.3Z" transform="translate(-6 -6)"/><path d="M45.74,287l-2.86-5.31-2.94.52-2.37-4.38,17.88-2.57L58,280.11l-12,13.5-2.37-4.4Zm2.58-2.73,4-4.23-5.75,1Z" transform="translate(-6 -6)"/><path d="M53,297.51,56,301.94l-3,2-5.53-8.39,14.21-9.37,2.61,4Z" transform="translate(-6 -6)"/><path d="M75,304.75l-3,2.31-4.18-5.4-2.39,1.85,3.11,4-2.81,2.18-3.12-4-5.27,4.08L54.45,306,67.92,295.6Z" transform="translate(-6 -6)"/><path d="M69.23,323.73,71.51,317l-.32-.36-4.62,4.26-3.21-3.49,12.52-11.54,5.07,5.5a7.75,7.75,0,0,1,1.83,3,4.9,4.9,0,0,1,0,2.91,5.63,5.63,0,0,1-1.58,2.44,4.94,4.94,0,0,1-2.94,1.36,5.26,5.26,0,0,1-3.28-.83l-2.24,7.33Zm4.29-9.29,1.58,1.72c.89,1,1.77,1,2.65.24a1.75,1.75,0,0,0,.63-1.26,2,2,0,0,0-.65-1.41L76.15,312Z" transform="translate(-6 -6)"/><path d="M87.2,322.84l-1.9,2.08,4.07,3.71L87,331.28l-4.06-3.71-2.08,2.27,4.6,4.2-2.55,2.79-8.1-7.4,11.49-12.57,8.09,7.4L91.8,327Z" transform="translate(-6 -6)"/><path d="M99.33,344.39A7.75,7.75,0,0,1,95,345,9.4,9.4,0,0,1,90.63,343l-5.4-4.09,10.28-13.57,5.41,4.09a9.94,9.94,0,0,1,3.1,3.7,7.43,7.43,0,0,1,.64,4.24,9.52,9.52,0,0,1-5.33,7Zm-3.18-3.93a4.86,4.86,0,0,0,3.86-5.09,4.6,4.6,0,0,0-1.94-2.9l-1.28-1-5.23,6.9,1.28,1A4.67,4.67,0,0,0,96.15,340.46Z" transform="translate(-6 -6)"/><path d="M119.5,342.79a8.19,8.19,0,0,1,1.08,4.28,9.4,9.4,0,0,1-4.64,7.71,8.33,8.33,0,0,1-4.3,1.05,9.12,9.12,0,0,1-7.49-4.5,8.22,8.22,0,0,1-1.1-4.29,9.36,9.36,0,0,1,4.63-7.71,8.34,8.34,0,0,1,4.31-1.05,8.81,8.81,0,0,1,4.32,1.3A8.69,8.69,0,0,1,119.5,342.79Zm-8.47.08a4.6,4.6,0,0,0-2.53,2.2,4.55,4.55,0,0,0-.73,3.23,4,4,0,0,0,4.84,2.91,5.39,5.39,0,0,0,3.27-5.43,4,4,0,0,0-4.85-2.91Z" transform="translate(-6 -6)"/><path d="M136.9,361a4.57,4.57,0,0,1-3,5.3,6.39,6.39,0,0,1-4.34-.58l-7.71-3.38,6.84-15.59,7.53,3.3a6.47,6.47,0,0,1,3.24,2.66,3.92,3.92,0,0,1,0,3.58,4,4,0,0,1-1.75,2,3.64,3.64,0,0,1-2.45.38A4.11,4.11,0,0,1,136.9,361Zm-4.39.17c.42-1,.07-1.7-1.06-2.19L129,357.92l-1.25,2.87,2.44,1.07C131.32,362.35,132.09,362.13,132.51,361.19Zm-2.18-6.28,2.18.95c1.08.48,1.82.26,2.22-.65s.07-1.65-1-2.13l-2.16-.95Z" transform="translate(-6 -6)"/><path d="M145.81,371.78l-1.29-7-.46-.15-2,6-4.5-1.49,5.35-16.17,7.1,2.35a7.72,7.72,0,0,1,3.07,1.77,4.88,4.88,0,0,1,1.43,2.53,5.45,5.45,0,0,1-.2,2.9,5,5,0,0,1-1.9,2.63,5.18,5.18,0,0,1-3.27.85l1.59,7.5Zm-.75-10.21,2.21.74c1.25.41,2.06.05,2.43-1.07a1.75,1.75,0,0,0,0-1.41,2,2,0,0,0-1.25-.92l-2.22-.74Z" transform="translate(-6 -6)"/><path d="M164.66,373.77l-5.89-1.31L157.24,375,152.38,374l9.76-15.2,5.33,1.19,2.37,17.89L165,376.75Zm-.38-3.73-.58-5.79-3,5Z" transform="translate(-6 -6)"/><path d="M178.06,361.69l2.45,12.62,5.17-11.76,5,.56L183,379.38l-6-.68-3.89-17.57Z" transform="translate(-6 -6)"/><path d="M204,364a8.09,8.09,0,0,1,3.12,3.13,9.4,9.4,0,0,1,0,9,8.25,8.25,0,0,1-3.15,3.11,9.12,9.12,0,0,1-8.74,0,8,8,0,0,1-3.14-3.12,8.71,8.71,0,0,1-1.14-4.5,8.81,8.81,0,0,1,1.16-4.49,8.21,8.21,0,0,1,3.16-3.11,9.12,9.12,0,0,1,8.76,0Zm-7.23,4.41a4.68,4.68,0,0,0-1.05,3.18,4.62,4.62,0,0,0,1,3.16,3.56,3.56,0,0,0,2.84,1.18,3.5,3.5,0,0,0,2.81-1.17,4.58,4.58,0,0,0,1-3.15,4.65,4.65,0,0,0-1-3.19,3.58,3.58,0,0,0-2.82-1.17A3.61,3.61,0,0,0,196.72,368.4Z" transform="translate(-6 -6)"/><path d="M224.66,368.12l.47,3.89-10.82,1.3-.47-3.9Z" transform="translate(-6 -6)"/><path d="M242.59,358.17a7.18,7.18,0,0,1,3.26,1.56,8.5,8.5,0,0,1,2.23,3l-4.83,1.18a3.34,3.34,0,0,0-1.61-1.23,3.57,3.57,0,0,0-2.08-.08,3.15,3.15,0,0,0-2.18,1.73,5.58,5.58,0,0,0,1.48,6.07,3.13,3.13,0,0,0,2.73.55,3.54,3.54,0,0,0,1.8-1,3.4,3.4,0,0,0,.87-1.84l4.83-1.18a7.79,7.79,0,0,1-1.53,5.26,8.26,8.26,0,0,1-4.87,3,8.65,8.65,0,0,1-4.55,0,7.44,7.44,0,0,1-3.55-2.29,9.63,9.63,0,0,1-2.05-4.13,9.49,9.49,0,0,1-.07-4.61,7.41,7.41,0,0,1,2.1-3.67,8.61,8.61,0,0,1,4-2.11A9.21,9.21,0,0,1,242.59,358.17Z" transform="translate(-6 -6)"/><path d="M260.07,352.65a8.2,8.2,0,0,1,4,1.86,9,9,0,0,1,2.6,3.84,8.8,8.8,0,0,1,.45,4.62,8.22,8.22,0,0,1-1.89,4,8.73,8.73,0,0,1-3.73,2.54A8.87,8.87,0,0,1,257,370a8.26,8.26,0,0,1-4-1.86,8.89,8.89,0,0,1-2.61-3.84,8.78,8.78,0,0,1-.45-4.62,8.32,8.32,0,0,1,1.9-4,9.16,9.16,0,0,1,8.25-3Zm-5.29,6.62a4.59,4.59,0,0,0,.11,3.35,4.64,4.64,0,0,0,2.05,2.61,3.57,3.57,0,0,0,3.06.14,3.53,3.53,0,0,0,2.25-2.07,4.59,4.59,0,0,0-.1-3.31,4.66,4.66,0,0,0-2-2.65,4,4,0,0,0-5.32,1.93Z" transform="translate(-6 -6)"/><path d="M276.74,345a8.07,8.07,0,0,1,4.18,1.41,9.4,9.4,0,0,1,4,8.07,8.2,8.2,0,0,1-1.44,4.18,9,9,0,0,1-7.83,3.87,8.25,8.25,0,0,1-4.21-1.39,9.36,9.36,0,0,1-4-8.07,8.2,8.2,0,0,1,1.44-4.18,8.94,8.94,0,0,1,3.43-2.95A8.83,8.83,0,0,1,276.74,345Zm-4.52,7.17a4.66,4.66,0,0,0,.49,3.32,4.6,4.6,0,0,0,2.32,2.36,3.59,3.59,0,0,0,3.07-.2,3.54,3.54,0,0,0,2-2.3,4.61,4.61,0,0,0-.47-3.28,4.69,4.69,0,0,0-2.33-2.41,4,4,0,0,0-5.08,2.51Z" transform="translate(-6 -6)"/><path d="M291.45,348.61l3,4.83-4,2.51-9-14.42,6-3.76a6.55,6.55,0,0,1,4.81-1.18,5.47,5.47,0,0,1,3.58,2.65,5.81,5.81,0,0,1,.92,2.83,5,5,0,0,1-.76,2.84,7.56,7.56,0,0,1-2.53,2.46Zm.29-6.83c-.66-1.06-1.58-1.22-2.75-.49l-1.53,1,2,3.2,1.53-1A1.76,1.76,0,0,0,291.74,341.78Z" transform="translate(-6 -6)"/><path d="M304.5,341.11l2.69,3.75-3.88,2.79-2.7-3.74Z" transform="translate(-6 -6)"/><path d="M311.69,319.15l2.47,2.86-3.48,3,8.64,10-3.57,3.07-8.65-10-3.44,3-2.46-2.86Z" transform="translate(-6 -6)"/><path d="M330.65,324.1l-6.9-1.9-.33.34,4.5,4.37-3.3,3.4L312.4,318.46l5.21-5.37a7.72,7.72,0,0,1,2.93-2,4.84,4.84,0,0,1,2.9-.18,5.44,5.44,0,0,1,2.53,1.44,5,5,0,0,1,1.53,2.86,5.19,5.19,0,0,1-.66,3.32l7.44,1.83Zm-9.51-3.77,1.62-1.67c.92-1,.95-1.83.1-2.66a1.73,1.73,0,0,0-1.29-.56,2,2,0,0,0-1.38.72l-1.62,1.68Z" transform="translate(-6 -6)"/><path d="M340.66,308l-3.75,4.73,1.64,2.5-3.09,3.9L326,303.73l3.39-4.28,17.14,5.67L343.46,309Zm-3.53-1.29-5.47-2,3.19,4.89Z" transform="translate(-6 -6)"/><path d="M348.92,288a4.55,4.55,0,0,1,4.77,3.75,6.43,6.43,0,0,1-1.24,4.2L347.91,303l-14.34-9.18,4.43-6.92a6.43,6.43,0,0,1,3.13-2.79,3.89,3.89,0,0,1,3.54.54,4,4,0,0,1,1.71,2,3.7,3.7,0,0,1,0,2.48A4.12,4.12,0,0,1,348.92,288Zm-7.06,5.54,1.28-2q1-1.5-.3-2.31c-.86-.55-1.62-.32-2.27.69l-1.27,2Zm6.55-1.17c-.9-.57-1.67-.34-2.34.7l-1.44,2.25,2.63,1.68,1.44-2.24C349.37,293.72,349.27,292.92,348.41,292.37Z" transform="translate(-6 -6)"/><path d="M354.71,282.93l4,2.29-2.37,4.15-4-2.28Z" transform="translate(-6 -6)"/><path d="M352,268.89l2.57,1.16,2.26-5,3.26,1.47-2.25,5,2.8,1.26,2.56-5.68,3.44,1.55-4.5,10-15.53-7,4.5-10,3.45,1.55Z" transform="translate(-6 -6)"/><path d="M373,250.87l-1.53,4.48-11,2.84,9,3.08-1.53,4.48-16.09-5.5,1.53-4.49,11.13-2.8-9.1-3.11,1.53-4.48Z" transform="translate(-6 -6)"/><path d="M374.37,235.14a4.93,4.93,0,0,1,1.29,2.48,7.51,7.51,0,0,1-.11,3.41,7.93,7.93,0,0,1-2.5,4.41,5.16,5.16,0,0,1-4.41,1.1l1.16-4.89a1.88,1.88,0,0,0,1.41-.24,1.7,1.7,0,0,0,.69-1,1.38,1.38,0,0,0-.08-1,1.12,1.12,0,0,0-.79-.55,1.31,1.31,0,0,0-1.31.41,11.68,11.68,0,0,0-1.41,1.94,21.41,21.41,0,0,1-1.67,2.34,5,5,0,0,1-1.95,1.39,5.12,5.12,0,0,1-5.29-1.31,5,5,0,0,1-1.17-2.57,8.39,8.39,0,0,1,.16-3.28,7.34,7.34,0,0,1,2.42-4.23,5.15,5.15,0,0,1,4.22-1l-1.17,4.94a1.88,1.88,0,0,0-1.25.21,1.42,1.42,0,0,0-.62.93,1.25,1.25,0,0,0,.08.91,1.16,1.16,0,0,0,.77.5,1.27,1.27,0,0,0,1.26-.41,12.22,12.22,0,0,0,1.38-1.88,22.4,22.4,0,0,1,1.72-2.34,5.22,5.22,0,0,1,2-1.41,4.53,4.53,0,0,1,2.85-.12A4.75,4.75,0,0,1,374.37,235.14Z" transform="translate(-6 -6)"/><path d="M373.35,227.39l4.55.78-.81,4.72-4.55-.78Z" transform="translate(-6 -6)"/><path d="M375.78,215.89l.48-5.29,3.57.32-.9,10-17-1.51.42-4.72Z" transform="translate(-6 -6)"/><path d="M363.09,195.3l3.78,0-.05,4.59,13.25.15L380,204.8l-13.25-.15-.05,4.55-3.77,0Z" transform="translate(-6 -6)"/><path d="M374.71,178.77a7.8,7.8,0,0,1,3.29,2.82,9.56,9.56,0,0,1,1.49,4.58l.57,6.76-17,1.42-.57-6.76a9.88,9.88,0,0,1,.68-4.78,7.45,7.45,0,0,1,2.73-3.31,8.87,8.87,0,0,1,4.29-1.44A9,9,0,0,1,374.71,178.77Zm-.8,5a4.83,4.83,0,0,0-6.36.54,4.58,4.58,0,0,0-.87,3.38l.14,1.6,8.62-.72-.13-1.61A4.63,4.63,0,0,0,373.91,183.76Z" transform="translate(-6 -6)"/><path d="M373.49,164.12l1.13,5.93,3,.38.93,4.89-17.82-2.93-1-5.36,15.49-9.28.94,4.91Zm-3.27,1.82-5.09,2.84,5.78.78Z" transform="translate(-6 -6)"/><path d="M368.91,152.89l4.46-1.19,1.23,4.63-4.46,1.19Z" transform="translate(-6 -6)"/><path class="cls-1" d="M208.42,277.67a21.16,21.16,0,0,0-6.15.9h0a20.71,20.71,0,0,0-6.14-.91c-9.29,0-16.83,5.9-16.83,13.19s7.54,13.19,16.83,13.19a20.83,20.83,0,0,0,6.15-.91,20.71,20.71,0,0,0,6.14.91c9.29,0,16.83-5.91,16.83-13.19S217.71,277.67,208.42,277.67Z" transform="translate(-6 -6)"/><path d="M167.63,289.49c1.83-1.9,2.75-3.6,2.75-5.12s-.59-2.22-1.78-2.22a1.57,1.57,0,0,0-1.46.77,5.54,5.54,0,0,0-.49,2.55h-6.41c.13-3,1-5.2,2.68-6.66a9,9,0,0,1,6.22-2.2q4.06,0,6,2a7.06,7.06,0,0,1,1.95,5.11,10.3,10.3,0,0,1-2.37,6.38,22,22,0,0,1-5.83,5.2h8.53v5.34H160.27v-4.93A61,61,0,0,0,167.63,289.49Z" transform="translate(-6 -6)"/><path d="M228.64,296.92v-5.5l10.41-14.58h7.11v14.38h2.62v5.7h-2.62v4h-6.64v-4ZM240,284.4l-4.74,6.82H240Z" transform="translate(-6 -6)"/><path d="M196.13,305.19c-9.9,0-18-6.43-18-14.33s8.06-14.33,18-14.33,18,6.43,18,14.33a11.93,11.93,0,0,1-1.77,6.22l-.14.23-1.92-1.22.11-.17a9.73,9.73,0,0,0,1.45-5.06c0-6.65-7-12.05-15.7-12.05s-15.69,5.4-15.69,12.05,7,12.05,15.69,12.05a19.55,19.55,0,0,0,6.42-1.05l.74,2.15A21.9,21.9,0,0,1,196.13,305.19Z" transform="translate(-6 -6)"/><path d="M192.59,297.85c-3.51-1.16-5.78-3.91-5.78-7,0-4.17,4.18-7.56,9.32-7.56s9.33,3.39,9.33,7.56a6.88,6.88,0,0,1-2.71,5.34l-1.44-1.77a4.62,4.62,0,0,0,1.87-3.57c0-2.91-3.16-5.28-7.05-5.28s-7,2.37-7,5.28c0,2.09,1.66,4,4.22,4.83Z" transform="translate(-6 -6)"/><path d="M208.41,305.19c-9.9,0-18-6.43-18-14.33a12.15,12.15,0,0,1,2.07-6.7l1.9,1.25a9.71,9.71,0,0,0-1.7,5.45c0,6.65,7,12.05,15.69,12.05s15.7-5.4,15.7-12.05-7-12.05-15.7-12.05a19.62,19.62,0,0,0-5.8.85l-.67-2.17a21.79,21.79,0,0,1,6.47-1c9.91,0,18,6.43,18,14.33S218.32,305.19,208.41,305.19Z" transform="translate(-6 -6)"/><path d="M208.41,298.41c-5.14,0-9.32-3.39-9.32-7.55a6.8,6.8,0,0,1,2.43-5.09l1.51,1.7a4.57,4.57,0,0,0-1.67,3.39c0,2.91,3.17,5.28,7,5.28s7.06-2.37,7.06-5.28c0-2.22-1.89-4.22-4.69-5l.59-2.2c3.81,1,6.37,3.91,6.37,7.17C217.74,295,213.56,298.41,208.41,298.41Z" transform="translate(-6 -6)"/></svg>