<?xml version="1.0" encoding="utf-8"?>
<!-- Generator: Adobe Illustrator 24.2.0, SVG Export Plug-In . SVG Version: 6.00 Build 0)  -->
<svg version="1.1" id="Camada_1" xmlns="http://www.w3.org/2000/svg" xmlns:xlink="http://www.w3.org/1999/xlink" x="0px" y="0px"
	 viewBox="0 0 1280 1280" style="enable-background:new 0 0 1280 1280;" xml:space="preserve">
<style type="text/css">
	.st0{fill:#F1EEE9;}
	.st1{fill:#50A545;}
	.st2{clip-path:url(#SVGID_2_);}
	.st3{fill:#F49725;}
	.st4{fill:#E94941;}
	.st5{fill:#EFCC3E;}
	.st6{fill:#83C8E8;}
	.st7{fill:#4B8ED2;}
	.st8{fill:#B25AA7;}
</style>
<g>
	<circle class="st0" cx="641.7" cy="640.6" r="607.8"/>
	<g>
		<path class="st1" d="M640,152.4v94c-35.6,0-64.5,28.9-64.5,64.5s28.9,64.5,64.5,64.5V640h264.6c0-35.6,28.9-64.5,64.5-64.5
			s64.5,28.9,64.5,64.5h94C1127.6,370.7,909.3,152.4,640,152.4z"/>
	</g>
	<g>
		<path class="st1" d="M640.7,1126.9v-94c35.6,0,64.5-28.9,64.5-64.5c0-35.6-28.9-64.5-64.5-64.5V639.3H376.2
			c0,35.6-28.9,64.5-64.5,64.5s-64.5-28.9-64.5-64.5h-94C153.1,908.6,371.4,1126.9,640.7,1126.9z"/>
	</g>
	<g>
		<path d="M640,1259.3c-341.5,0-619.3-277.8-619.3-619.3S298.5,20.7,640,20.7c341.5,0,619.3,277.8,619.3,619.3
			S981.5,1259.3,640,1259.3z M640,39.7C309,39.7,39.7,309,39.7,640S309,1240.3,640,1240.3S1240.2,971,1240.2,640S971,39.7,640,39.7z
			"/>
	</g>
	<g>
		<path d="M1137.1,649.5H1024V640c0-30.3-24.7-55-55-55c-30.3,0-55,24.7-55,55v9.5H630.5V384.3c-36.3-4.7-64.5-35.8-64.5-73.4
			s28.2-68.7,64.5-73.4v-94.6h9.5c274.1,0,497.1,223,497.1,497.1V649.5z M1042.5,630.5h75.5c-5-256-212.4-463.4-468.4-468.4V256H640
			c-30.3,0-55,24.7-55,55c0,30.3,24.7,55,55,55h9.5v264.6h246.1c4.7-36.3,35.8-64.5,73.4-64.5C1006.7,566,1037.8,594.1,1042.5,630.5
			z"/>
	</g>
	<g>
		<path d="M310.9,714c-37.6,0-68.7-28.2-73.4-64.5h-94.6V640c0-274.1,223-497.1,497.1-497.1h9.5V256H640c-30.3,0-55,24.7-55,55
			c0,30.3,24.7,55,55,55h9.5v283.6H384.3C379.6,685.9,348.5,714,310.9,714z M162,630.5H256v9.5c0,30.3,24.7,55,55,55
			c30.3,0,55-24.7,55-55v-9.5h264.6V384.3c-36.3-4.7-64.5-35.8-64.5-73.4s28.2-68.7,64.5-73.4V162
			C374.4,167.1,167.1,374.4,162,630.5z"/>
	</g>
	<g>
		<path d="M649.5,1137.1H640c-274.1,0-497.1-223-497.1-497.1v-9.5H256v9.5c0,30.3,24.7,55,55,55c30.3,0,55-24.7,55-55v-9.5h283.6
			v265.2c36.3,4.7,64.5,35.8,64.5,73.4c0,37.6-28.2,68.7-64.5,73.4V1137.1z M162,649.5c5,256,212.4,463.4,468.4,468.4V1024h9.5
			c30.3,0,55-24.7,55-55c0-30.3-24.7-55-55-55h-9.5V649.5H384.3c-4.7,36.3-35.8,64.5-73.4,64.5s-68.7-28.2-73.4-64.5H162z"/>
	</g>
	<g>
		<g>
			<g>
				<rect x="384.9" y="215.4" width="255.1" height="16.1"/>
			</g>
			<g>
				<rect x="299.2" y="284.5" width="284.4" height="16.1"/>
			</g>
		</g>
		<g>
			<g>
				<rect x="237.6" y="353.2" width="365" height="16.1"/>
			</g>
			<g>
				<rect x="208.3" y="422.3" width="432.4" height="16.1"/>
			</g>
		</g>
		<g>
			<g>
				<rect x="177.5" y="491" width="463.2" height="16.1"/>
			</g>
			<g>
				<rect x="158.5" y="560.1" width="482.3" height="16.1"/>
			</g>
		</g>
		<g>
			<g>
				<rect x="158.5" y="629" width="482.3" height="16.1"/>
			</g>
		</g>
		<g>
			<rect x="530.7" y="165.8" width="16.1" height="57.7"/>
		</g>
		<g>
			<rect x="530.7" y="293.3" width="16.1" height="67.4"/>
		</g>
		<g>
			<rect x="368.8" y="293.3" width="16.1" height="67.4"/>
		</g>
		<g>
			<rect x="530.7" y="431.1" width="16.1" height="67.4"/>
		</g>
		<g>
			<rect x="368.8" y="431.1" width="16.1" height="67.4"/>
		</g>
		<g>
			<rect x="207.6" y="431.1" width="16.1" height="67.4"/>
		</g>
		<g>
			<rect x="368.8" y="567.4" width="16.1" height="67.4"/>
		</g>
		<g>
			<rect x="207.6" y="567.4" width="16.1" height="67.4"/>
		</g>
		<g>
			<rect x="453" y="223" width="16.1" height="70.4"/>
		</g>
		<g>
			<g>
				<rect x="299.9" y="365.8" width="16.1" height="67.4"/>
			</g>
		</g>
		<g>
			<g>
				<rect x="299.9" y="500" width="16.1" height="67.4"/>
			</g>
		</g>
		<g>
			<g>
				<rect x="299.9" y="637.8" width="16.1" height="66"/>
			</g>
		</g>
	</g>
	<g>
		<defs>
			<path id="SVGID_1_" d="M1127.6,640h-94c0-35.6-28.9-64.5-64.5-64.5s-64.5,28.9-64.5,64.5H640v264.6c35.6,0,64.5,28.9,64.5,64.5
				c0,35.6-28.9,64.5-64.5,64.5v94C909.3,1127.6,1127.6,909.3,1127.6,640z"/>
		</defs>
		<clipPath id="SVGID_2_">
			<use xlink:href="#SVGID_1_"  style="overflow:visible;"/>
		</clipPath>
		<g class="st2">
			<g>
				<rect x="630.5" y="698.4" class="st3" width="505.1" height="71.6"/>
			</g>
			<g>
				<rect x="631.1" y="557.2" class="st4" width="505.1" height="142"/>
			</g>
			<g>
				<rect x="631.1" y="769.2" class="st5" width="505.1" height="71.6"/>
			</g>
			<g>
				<rect x="631.1" y="840.8" class="st1" width="505.1" height="71.6"/>
			</g>
			<g>
				<rect x="631.1" y="912.5" class="st6" width="505.1" height="71.6"/>
			</g>
			<g>
				<rect x="631.1" y="984.1" class="st7" width="505.1" height="71.6"/>
			</g>
			<g>
				<rect x="631.1" y="1055.7" class="st8" width="505.1" height="71.6"/>
			</g>
		</g>
	</g>
	<g>
		<path d="M640,1137.1h-9.5V1024h9.5c30.3,0,55-24.7,55-55c0-30.3-24.7-55-55-55h-9.5V630.5h265.2c4.7-36.3,35.8-64.5,73.4-64.5
			c37.6,0,68.7,28.2,73.4,64.5h94.6v9.5C1137.1,914.1,914.1,1137.1,640,1137.1z M649.5,1042.5v75.5c256-5,463.4-212.4,468.4-468.4
			H1024V640c0-30.3-24.7-55-55-55c-30.3,0-55,24.7-55,55v9.5H649.5v246.1c36.3,4.7,64.5,35.8,64.5,73.4
			C714,1006.7,685.9,1037.8,649.5,1042.5z"/>
	</g>
	<g>
		<g>
			<path class="st0" d="M897,316.1c0,0-226.5-52.5-299.9,228c0,0-44.1-26.2-25.5-117c13.5-66-51-94.5-94.5-73.5
				c-42.4,20.5-72-12-72-12s54,55.5,39,115.5c-13.9,55.8-46.5,190.5,39,269.9s166.7,48.6,208.5,36c29.8-9,50.5-13.3,72-3
				c37.5,18,16.5,55.5,55.5,103.5c0,0,34.5-105,136.5-177c0,0-34.6-24.5-124.5-4.5c-67.5,15-87-15-108.7-43.5
				C722.3,638.6,937.5,551.6,897,316.1z"/>
			<path d="M819.3,865.1l-0.9-1.1c-18.7-23-23.7-43.9-27.8-60.7c-4.5-18.6-8.1-33.3-27.4-42.6c-22-10.6-43.5-5.4-71.4,3
				c-2.1,0.6-4.4,1.3-6.7,2.1c-21.9,6.8-51.9,16.1-87,14.3c-41.4-2.1-80.3-19.8-115.5-52.5c-86.7-80.6-52.2-218.7-39.2-270.7
				c7.7-30.8-3.3-60.3-13.8-79.7c-10.7-19.6-23.1-33.1-24.8-34.9c-0.1-0.1-0.2-0.2-0.2-0.2l1.1-1c0,0,0.1,0.1,0.2,0.2
				c2.7,2.7,31.3,30.7,70.9,11.6c23.8-11.5,53.6-8.5,74.1,7.5c19.5,15.2,27.2,38.9,21.5,66.8c-5.3,25.7-8.6,62.6,5.7,92
				c7.1,14.7,15.9,21.7,18.6,23.7c16.8-63.6,43-115.2,77.8-153.2c28-30.6,61.7-52.6,100-65.4c65.2-21.7,122.3-9,122.8-8.8l0.5,0.1
				l0.1,0.5c9.3,53.8,5.8,104.3-10.3,150.1c-12.8,36.6-33.7,70.3-62.1,100.1c-44.9,47.1-94.6,69.6-101.9,72.7l2,2.6
				c21.1,27.8,41.1,54.2,105.4,39.8c89.2-19.8,124.7,4.4,125.1,4.6l0.9,0.6l-0.9,0.6c-100.6,71-135.9,175.5-136.2,176.6L819.3,865.1
				z M736.7,753.3c9.2,0,18.1,1.8,27.2,6.1c20,9.6,23.6,24.6,28.2,43.6c4,16.4,8.9,36.8,26.7,59.1c4.4-12.2,41.1-108.4,135.4-175.4
				c-6.1-3.5-42.4-21.7-123-3.8c-65.3,14.5-86.5-13.4-106.9-40.4l-3.2-4.2l0.9-0.4c0.5-0.2,54.3-22.3,102.3-72.8
				c28.2-29.6,49-63.1,61.8-99.5c15.9-45.4,19.4-95.4,10.3-148.8c-5.7-1.2-59.9-11.7-121.6,8.9c-38.1,12.7-71.5,34.6-99.3,65
				c-34.8,38.1-60.9,89.8-77.7,153.6l-0.3,1l-0.9-0.5c-0.5-0.3-11.3-6.9-20-24.8c-8-16.4-15.5-45.9-5.8-93
				c5.6-27.3-1.8-50.5-20.9-65.3c-20.1-15.6-49.2-18.6-72.5-7.4c-29.9,14.4-53.8,2.6-65.3-5.7c5,6.2,12.2,15.9,18.8,27.9
				c10.7,19.6,21.7,49.6,13.9,80.8c-12.9,51.7-47.3,189.2,38.8,269.2c80.8,75.1,159,50.9,201,37.9c2.3-0.7,4.6-1.4,6.7-2.1
				C708.3,757.2,722.9,753.3,736.7,753.3z"/>
		</g>
		<g>
			<path d="M811.5,869.7c-20-24.6-25.3-46.6-29.6-64.3c-4.4-18.2-7.1-29.1-22.5-36.6c-17.5-8.4-34.9-5.5-64.9,3.5
				c-2.1,0.6-4.3,1.3-6.6,2c-44,13.6-126,39-211.3-40.2c-90.6-84.3-55.2-226.1-41.8-279.5c12.7-50.7-30.1-99.3-35.9-105.6
				c-0.3-0.3-0.6-0.6-0.9-0.9l14.2-13.4c0.1,0.1,0.3,0.3,0.6,0.6c3.2,3.3,27,25.5,60.2,9.4c26.8-12.9,60.4-9.5,83.5,8.5
				c22,17.2,31.1,44.7,24.7,75.7c-11.1,54.3,1.1,83.1,11,96.6c23.6-79.5,73.7-174.7,179.4-209.9c67.6-22.5,125.3-9.6,127.7-9.1
				l7.4,7.8c21.6,125.6-28.7,209.6-74.7,257.9c-36.6,38.4-75.6,60.6-94.5,70c18.4,23.7,37.5,42.2,91.5,30.2
				c93-20.7,130.7,5,132.2,6.1l0,15.9c-98,69.2-132.5,171-132.8,172L811.5,869.7z M736.8,744.3c10.4,0,20.6,2,31,6.9
				c23.8,11.4,28.3,29.9,33.1,49.5c3.1,12.8,6.5,26.9,15.8,42.3c13.6-31.5,49.1-99.5,119.4-154.2c-16.8-4.8-49.5-9.2-102.8,2.6
				c-70.9,15.8-94.9-15.8-116-43.7l-2.6-3.4l4.1-14.9c0.5-0.2,52.9-21.9,99.6-71.1c60.6-63.9,84.2-142.6,70.2-233.9
				c-16.2-2.5-61.5-7-111.6,10C693.3,362.7,636,434,606.5,546.6l-14.4,5.9c-2-1.2-49.8-30.8-30.1-127.3c4.9-23.7-1.4-43.8-17.6-56.4
				c-17.2-13.4-43.1-16-63.1-6.4c-16.1,7.8-31.3,8.9-44.3,6.6c13.2,23.2,25.1,55.9,16.5,90.5c-12.6,50.3-46,184,36.2,260.4
				c77,71.6,149.1,49.2,192.2,35.9c2.4-0.7,4.6-1.4,6.8-2.1C706.1,748.5,721.7,744.3,736.8,744.3z"/>
		</g>
		<g>
			<circle cx="507.8" cy="390.4" r="15.7"/>
			<path d="M507.8,406.9c-9.1,0-16.5-7.4-16.5-16.5c0-9.1,7.4-16.5,16.5-16.5c9.1,0,16.5,7.4,16.5,16.5
				C524.3,399.5,516.9,406.9,507.8,406.9z M507.8,375.4c-8.3,0-15,6.7-15,15c0,8.3,6.7,15,15,15c8.3,0,15-6.7,15-15
				C522.8,382.1,516.1,375.4,507.8,375.4z"/>
		</g>
	</g>
	<g>
		<g>
			<path d="M276.4,199l34.9,41.2l-11.5,9.7l-34.9-41.2L276.4,199z"/>
		</g>
		<g>
			<path d="M357,206l-12.2,8.8L311.1,202l17.6,24.4l-12.2,8.8L285,191.5l12.2-8.8l33.9,13.1l-17.8-24.7l12.2-8.8L357,206z"/>
		</g>
		<g>
			<path d="M392.2,176.9c-0.1,2.9-1.1,5.7-2.9,8.4c-1.8,2.7-4.5,5.1-8.1,7.2c-5.4,3.1-10.6,4.4-15.6,3.9c-5-0.6-9-3.2-12.1-7.8
				l13.8-8c1.1,1.5,2.3,2.5,3.6,2.7c1.3,0.3,2.6,0.1,3.9-0.7c1.1-0.7,1.9-1.5,2.2-2.4c0.3-0.9,0.2-1.9-0.5-3
				c-0.8-1.4-2.1-2.1-3.8-2.2c-1.7,0-4.2,0.3-7.5,1c-3.5,0.7-6.5,1.1-9,1.3c-2.5,0.1-5-0.3-7.5-1.5c-2.5-1.1-4.6-3.2-6.4-6.2
				c-1.7-2.9-2.4-5.8-2.1-8.8c0.3-3,1.4-5.7,3.4-8.3c2-2.6,4.6-4.8,7.9-6.7c5.4-3.1,10.4-4.3,15-3.7c4.7,0.7,8.5,3.2,11.4,7.6
				l-13.9,8.1c-1-1.3-2.1-2.2-3.2-2.4c-1.1-0.3-2.3-0.1-3.5,0.6c-1,0.6-1.6,1.3-1.9,2.2c-0.3,0.9-0.1,1.8,0.5,2.9c0.8,1.3,2,2,3.7,2
				c1.7,0,4.1-0.3,7.4-0.9c3.6-0.7,6.6-1,9.1-1.1c2.5-0.1,5,0.4,7.6,1.5c2.5,1.1,4.7,3.2,6.5,6.3
				C391.6,171.3,392.3,174.1,392.2,176.9z"/>
		</g>
		<g>
			<path d="M416.7,113.6l5.1,10.8l-13.2,6.2l17.8,38l-13.5,6.3L395,137l-13,6.1l-5.1-10.8L416.7,113.6z"/>
		</g>
		<g>
			<path d="M437.9,105.5l19.6,50.3l-14,5.4l-19.6-50.3L437.9,105.5z"/>
		</g>
		<g>
			<path d="M486.6,89.1l3.7,11.4l-13.9,4.5l12.9,40l-14.2,4.6l-12.9-40l-13.7,4.4l-3.7-11.4L486.6,89.1z"/>
		</g>
		<g>
			<path d="M509.3,83.6l6.6,30.1c0.7,3,1.8,5.1,3.5,6.4c1.7,1.3,3.8,1.7,6.5,1.1s4.5-1.9,5.5-3.8c1-1.9,1.2-4.4,0.5-7.3l-6.6-30.1
				l14.6-3.2l6.6,30.1c1.1,5,1,9.4-0.2,13.3c-1.2,3.9-3.4,7.1-6.5,9.7c-3.1,2.5-6.8,4.3-11.2,5.2c-4.4,1-8.4,0.9-12.1-0.1
				c-3.7-1-6.9-3-9.6-6.1c-2.7-3.1-4.5-7.1-5.6-12.1l-6.6-30.1L509.3,83.6z"/>
		</g>
		<g>
			<path d="M592.1,70l1.5,11.9l-14.5,1.8l5.1,41.7l-14.8,1.8l-5.1-41.7L550,87.3l-1.5-11.9L592.1,70z"/>
		</g>
		<g>
			<path d="M641.1,71c4.2,2.3,7.6,5.5,10.1,9.6c2.5,4.2,3.8,8.9,3.9,14.2c0.1,5.3-1,10.1-3.3,14.3c-2.3,4.3-5.6,7.6-9.7,10.1
				c-4.1,2.5-8.7,3.7-13.8,3.9c-5,0.1-9.7-1-13.9-3.2c-4.3-2.3-7.7-5.5-10.2-9.6c-2.5-4.2-3.9-8.9-4-14.2c-0.1-5.3,1-10.1,3.3-14.3
				c2.3-4.3,5.6-7.6,9.8-10.1c4.2-2.5,8.8-3.7,13.8-3.9C632.2,67.7,636.8,68.7,641.1,71z M618.5,85.5c-2.1,2.5-3.1,5.9-3,10.2
				c0.1,4.2,1.3,7.5,3.5,9.9c2.2,2.4,5.3,3.6,9.1,3.5c3.8-0.1,6.7-1.4,8.8-3.9c2.1-2.5,3.1-5.9,3-10.1c-0.1-4.3-1.2-7.6-3.5-10
				c-2.2-2.4-5.2-3.6-9-3.5C623.6,81.7,620.6,83,618.5,85.5z"/>
		</g>
		<g>
			<path d="M721,73.9l-1.2,11.9l-14.5-1.5l-4.4,41.8l-14.9-1.6l4.4-41.8l-14.3-1.5l1.2-11.9L721,73.9z"/>
		</g>
		<g>
			<path d="M741.7,89.8l-1.7,8.8l17.2,3.2l-2.1,11.2l-17.2-3.2l-1.8,9.6l19.4,3.7l-2.2,11.8l-34.2-6.4l10-53l34.2,6.5l-2.2,11.8
				L741.7,89.8z M758.4,70.1L738.3,74l1.9-9.9l20.3-4.9L758.4,70.1z"/>
		</g>
		<g>
			<path d="M809,96.1c3,2.6,5.2,5.8,6.5,9.4c1.3,3.6,1.8,7.5,1.5,11.7l-15.2-4.4c-0.2-2.3-1.1-4.3-2.5-5.9c-1.4-1.6-3.3-2.8-5.6-3.5
				c-3.2-0.9-6.1-0.5-8.7,1.3c-2.6,1.8-4.5,4.7-5.7,8.6c-1.1,4-1.1,7.4,0.2,10.4c1.3,3,3.5,4.9,6.7,5.8c2.3,0.7,4.5,0.7,6.6,0
				c2.1-0.7,3.9-1.9,5.3-3.7l15.2,4.4c-2.9,5.7-7.1,9.7-12.5,12.1c-5.4,2.3-11.5,2.5-18.1,0.6c-5.1-1.5-9.3-3.9-12.5-7.2
				c-3.2-3.3-5.3-7.3-6.2-11.9c-0.9-4.6-0.7-9.5,0.8-14.6c1.5-5.1,3.8-9.4,7.1-12.8c3.2-3.4,7.1-5.7,11.5-6.8
				c4.5-1.1,9.3-0.9,14.4,0.5C802.3,91.5,806,93.5,809,96.1z"/>
		</g>
		<g>
			<path d="M858.9,170.5l-13.9-5.7l-6.9-35.4l-11.4,27.9l-13.9-5.7l20.4-49.9l13.9,5.7l6.8,35.7l11.5-28.2l13.9,5.7L858.9,170.5z"/>
		</g>
		<g>
			<path d="M902.9,132.6l-24.2,48.2l-13.4-6.7l24.2-48.2L902.9,132.6z"/>
		</g>
		<g>
			<path d="M944.2,158.5c2.2,3.3,3.5,6.9,3.9,10.8c0.4,3.9-0.2,7.8-1.6,11.7l-13.5-8.1c0.4-2.3,0.1-4.4-0.9-6.4
				c-1-2-2.5-3.6-4.5-4.8c-2.8-1.7-5.8-2-8.8-1c-3,1.1-5.6,3.4-7.7,6.9c-2.1,3.5-2.9,6.9-2.5,10.1c0.5,3.2,2.1,5.6,4.9,7.3
				c2.1,1.2,4.2,1.8,6.4,1.7c2.2-0.1,4.2-0.9,6.1-2.2l13.5,8.1c-4.3,4.8-9.3,7.6-15.2,8.5c-5.8,0.9-11.7-0.5-17.7-4.1
				c-4.6-2.7-8-6.1-10.2-10.2c-2.2-4-3.2-8.4-2.9-13.1c0.3-4.7,1.8-9.3,4.6-13.9c2.7-4.6,6.1-8.1,10.1-10.6c4-2.5,8.3-3.7,12.9-3.6
				c4.6,0.1,9.2,1.5,13.8,4.2C938.8,152.3,941.9,155.1,944.2,158.5z"/>
		</g>
		<g>
			<path d="M996.3,196.4c1.9,4.4,2.5,9,1.9,13.9c-0.6,4.8-2.6,9.3-5.8,13.5c-3.2,4.2-7.1,7.2-11.6,9.1c-4.5,1.9-9.1,2.5-13.9,1.8
				c-4.8-0.7-9.1-2.5-13.1-5.6c-4-3.1-7-6.8-8.9-11.2c-1.9-4.4-2.6-9.1-2-13.9c0.6-4.8,2.5-9.4,5.7-13.6c3.2-4.2,7.1-7.2,11.5-9.1
				c4.5-1.9,9.1-2.5,13.9-1.8c4.8,0.7,9.2,2.5,13.2,5.6C991.4,188.2,994.4,192,996.3,196.4z M969.6,193.7c-3.2,0.6-6.1,2.6-8.7,6
				c-2.5,3.3-3.7,6.6-3.4,9.9c0.2,3.3,1.9,6.1,4.9,8.4c3,2.3,6.1,3.1,9.4,2.4c3.2-0.7,6.1-2.6,8.7-6c2.6-3.4,3.8-6.7,3.5-10
				c-0.2-3.3-1.9-6.1-4.9-8.4C975.9,193.9,972.8,193,969.6,193.7z"/>
		</g>
	</g>
	<g>
		<g>
			<path d="M123.1,648.8l-53.7-2.4l0.7-14.8l30.5,1.4l-30-11.4l0.6-12.9l30.9-8.6l-30.5-1.4l0.7-15l53.7,2.4l-0.8,18.3l-35.5,11.7
				l34.3,14.4L123.1,648.8z"/>
		</g>
		<g>
			<path d="M81.5,692l-1.4-19.1l-9.2-2.3l-1.2-15.7l55.1,15.6l1.3,17.3L74,711.5l-1.2-15.8L81.5,692z M92.5,687.4l17-7.1l-17.9-4.5
				L92.5,687.4z"/>
		</g>
		<g>
			<path d="M119.3,726.6l-8.8,1.5l2.9,17.2l-11.2,1.9L99.3,730l-9.6,1.6l3.3,19.5l-11.8,2l-5.8-34.3l53.2-9l5.8,34.3l-11.8,2
				L119.3,726.6z"/>
		</g>
		<g>
			<path d="M99.7,797.5c-2.7-0.9-5.2-2.6-7.3-5.1c-2.1-2.5-3.7-5.8-4.7-9.7c-1.5-6.1-1.4-11.4,0.5-16.1c1.9-4.7,5.5-7.8,10.8-9.6
				l3.9,15.4c-1.8,0.6-3,1.5-3.6,2.7c-0.6,1.2-0.8,2.5-0.4,4c0.3,1.3,0.9,2.2,1.7,2.7c0.8,0.5,1.8,0.7,3,0.4
				c1.6-0.4,2.6-1.4,3.1-3.1c0.5-1.6,0.9-4.2,1.1-7.5c0.3-3.6,0.7-6.6,1.2-9c0.5-2.4,1.7-4.7,3.5-6.8c1.8-2.1,4.3-3.6,7.7-4.5
				c3.3-0.8,6.3-0.7,9,0.4c2.8,1.1,5.1,2.9,7.1,5.5c1.9,2.6,3.4,5.7,4.3,9.4c1.5,6,1.3,11.2-0.6,15.4c-1.9,4.3-5.4,7.3-10.4,8.9
				l-4-15.6c1.6-0.6,2.7-1.4,3.2-2.4c0.6-1,0.7-2.2,0.4-3.5c-0.3-1.1-0.8-1.9-1.6-2.4c-0.8-0.5-1.7-0.6-2.9-0.3
				c-1.5,0.4-2.5,1.4-2.9,3c-0.5,1.6-0.9,4.1-1.1,7.3c-0.3,3.6-0.8,6.6-1.4,9.1c-0.6,2.5-1.7,4.7-3.5,6.9c-1.8,2.1-4.4,3.6-7.8,4.5
				C105.3,798.4,102.4,798.4,99.7,797.5z"/>
		</g>
		<g>
			<path d="M160.2,831l-11.3,3.9l-4.8-13.7l-39.7,13.8L99.6,821l39.7-13.8l-4.7-13.6l11.3-3.9L160.2,831z"/>
		</g>
		<g>
			<path d="M123.5,881.1l13.7-18.1l-0.6-1.4l-18.1,8.2l-6.2-13.7l49.2-22.2l9.7,21.6c1.8,3.9,2.6,7.6,2.5,11
				c-0.1,3.4-1.1,6.3-2.9,8.8c-1.8,2.5-4.2,4.4-7.2,5.8c-3.4,1.5-6.8,1.9-10.2,1.2c-3.4-0.8-6.4-2.7-9-5.8l-14.1,19.8L123.5,881.1z
				 M145.7,857.5l3,6.7c1.7,3.8,4.3,4.9,7.7,3.4c1.6-0.7,2.7-1.8,3.2-3.2c0.5-1.4,0.3-3-0.5-4.9l-3-6.7L145.7,857.5z"/>
		</g>
		<g>
			<path d="M198.8,913.3c0.1,4.8-1.1,9.3-3.6,13.5c-2.4,4.2-5.9,7.6-10.5,10.3c-4.6,2.6-9.3,4-14.2,4c-4.9,0-9.4-1.2-13.5-3.7
				c-4.1-2.4-7.5-5.8-10-10.2c-2.5-4.3-3.8-8.9-3.9-13.8c-0.1-4.8,1.1-9.4,3.5-13.6c2.4-4.2,5.9-7.7,10.5-10.3c4.6-2.6,9.3-4,14.2-4
				c4.9,0,9.4,1.2,13.5,3.7c4.2,2.5,7.5,5.9,10,10.2C197.4,903.9,198.7,908.5,198.8,913.3z M175.2,900.5c-3.2-0.7-6.7,0.1-10.4,2.2
				c-3.6,2.1-5.9,4.7-7,7.8c-1.1,3.1-0.6,6.4,1.3,9.7c1.9,3.3,4.5,5.2,7.7,5.8c3.2,0.6,6.7-0.1,10.3-2.2c3.7-2.1,6.1-4.8,7.1-7.9
				c1-3.1,0.6-6.3-1.3-9.6C181,903.1,178.4,901.2,175.2,900.5z"/>
		</g>
		<g>
			<path d="M203.5,992.9l-11.7-15.1l-8.9,3.2l-9.7-12.5l54.5-17.4l10.6,13.7l-30.4,48.5l-9.7-12.5L203.5,992.9z M210.1,983.1
				l10.3-15.3l-17.4,6.1L210.1,983.1z"/>
		</g>
		<g>
			<path d="M231.7,1021.8l11.5,12.3l-8.3,7.7l-21.7-23.3l39.5-36.7l10.2,11L231.7,1021.8z"/>
		</g>
		<g>
			<path d="M304.2,1033l-8.1,8.8l-15.9-14.7l-6.5,7l11.9,11l-7.7,8.3l-11.9-11l-14.3,15.5l-11-10.2l36.7-39.6L304.2,1033z"/>
		</g>
		<g>
			<path d="M296.1,1095.3l3.6-22.4l-1.2-0.9l-12.2,15.7l-11.9-9.2l33.1-42.6l18.7,14.5c3.4,2.6,5.9,5.5,7.3,8.5c1.5,3,2,6.1,1.6,9.1
				c-0.4,3-1.6,5.8-3.7,8.4c-2.3,3-5.1,4.9-8.5,5.8c-3.3,0.9-6.9,0.6-10.7-0.9l-3.2,24.1L296.1,1095.3z M304.6,1064l5.8,4.5
				c3.3,2.6,6.1,2.3,8.4-0.6c1.1-1.4,1.5-2.8,1.3-4.3c-0.2-1.4-1.1-2.8-2.8-4.1l-5.8-4.5L304.6,1064z"/>
		</g>
		<g>
			<path d="M351.8,1083.1l-4.8,7.5l14.7,9.5l-6.2,9.5l-14.7-9.5l-5.3,8.2L352,1119l-6.5,10l-29.2-18.9l29.3-45.3l29.2,18.9l-6.5,10
				L351.8,1083.1z"/>
		</g>
		<g>
			<path d="M401,1144.1c-3.9,2.6-8.3,3.9-13.1,4c-4.8,0.1-9.8-1.2-14.8-3.8l-19-10l25-47.8l19,10c5,2.6,8.9,5.9,11.6,9.9
				c2.7,4,4.1,8.3,4.2,12.9c0.1,4.7-1,9.3-3.5,13.9C408.1,1137.9,404.9,1141.5,401,1144.1z M389,1133.5c3.4-0.9,6-3.3,8.1-7.2
				c2-3.8,2.4-7.4,1.3-10.7c-1.1-3.3-3.7-6-7.6-8.1l-4.5-2.4l-12.7,24.3l4.5,2.4C382,1133.8,385.6,1134.4,389,1133.5z"/>
		</g>
		<g>
			<path d="M463.2,1128.5c3,3.7,4.9,8,5.6,12.8c0.7,4.8,0.1,9.7-1.9,14.6c-1.9,4.9-4.8,8.9-8.6,11.9c-3.8,3-8.1,4.9-12.9,5.5
				c-4.8,0.7-9.5,0.1-14.2-1.8c-4.7-1.8-8.6-4.6-11.6-8.4c-3.1-3.7-4.9-8-5.7-12.8c-0.7-4.8-0.1-9.7,1.8-14.6
				c1.9-4.9,4.8-8.9,8.6-11.9c3.8-3,8.1-4.9,12.9-5.5c4.8-0.7,9.5-0.1,14.2,1.8C456.2,1122,460.1,1124.8,463.2,1128.5z
				 M436.7,1133.2c-2.9,1.5-5.2,4.2-6.7,8.2c-1.5,3.9-1.7,7.4-0.6,10.5c1.1,3.1,3.5,5.4,7,6.8c3.5,1.4,6.7,1.3,9.7-0.2
				c2.9-1.5,5.2-4.2,6.7-8.1c1.6-4,1.8-7.5,0.7-10.6c-1.1-3.1-3.4-5.3-7-6.7C442.9,1131.6,439.6,1131.7,436.7,1133.2z"/>
		</g>
		<g>
			<path d="M527,1176.4c1.2,2.8,1.4,5.7,0.7,8.7c-1.1,4.5-3.5,7.7-7.2,9.4c-3.6,1.7-8.3,1.9-13.9,0.5l-25.9-6.5l13.2-52.3l25.3,6.4
				c5.3,1.3,9.1,3.5,11.5,6.6c2.4,3.1,3,6.8,1.9,11.2c-0.8,3.1-2.3,5.5-4.4,7.2c-2.2,1.7-4.6,2.5-7.5,2.5
				C523.7,1171.5,525.8,1173.6,527,1176.4z M513.4,1179.2c0.8-3.3-0.7-5.4-4.5-6.3l-8.2-2.1l-2.4,9.6l8.2,2.1
				C510.3,1183.5,512.6,1182.4,513.4,1179.2z M503.3,1160.7l7.3,1.8c3.6,0.9,5.9-0.1,6.6-3.2c0.8-3.2-0.7-5.2-4.3-6.1l-7.2-1.8
				L503.3,1160.7z"/>
		</g>
		<g>
			<path d="M560.5,1205.4l-7.7-21.3l-1.5-0.2l-3,19.7l-14.8-2.3l8.3-53.3l23.4,3.6c4.3,0.7,7.8,2,10.5,3.9c2.8,1.9,4.7,4.3,5.8,7.2
				c1.1,2.8,1.4,5.9,0.9,9.2c-0.6,3.7-2.1,6.8-4.6,9.2c-2.5,2.4-5.7,3.9-9.8,4.4l8.9,22.6L560.5,1205.4z M552.8,1173.8l7.3,1.1
				c4.1,0.6,6.5-0.9,7-4.6c0.3-1.8,0-3.2-0.9-4.4c-0.9-1.2-2.3-1.9-4.4-2.2l-7.3-1.1L552.8,1173.8z"/>
		</g>
		<g>
			<path d="M620.4,1201.7l-19.1-1l-3.4,8.8l-15.8-0.8l22.6-52.6l17.3,0.9l16.8,54.7l-15.8-0.8L620.4,1201.7z M617.3,1190.3
				l-4.8-17.8l-6.8,17.2L617.3,1190.3z"/>
		</g>
		<g>
			<path d="M655.9,1157l14.3,38.2l10-39.5l15.9-0.9l-15.5,54.9l-19.3,1l-21.3-52.9L655.9,1157z"/>
		</g>
		<g>
			<path d="M738.1,1150.6c4.5,1.6,8.3,4.4,11.4,8.1c3.1,3.8,5,8.3,5.9,13.5c0.9,5.2,0.4,10.1-1.3,14.7c-1.7,4.6-4.5,8.3-8.2,11.4
				c-3.7,3-8.1,4.9-13.1,5.7c-5,0.8-9.7,0.4-14.3-1.2s-8.4-4.4-11.5-8.1c-3.1-3.8-5.1-8.3-5.9-13.5c-0.9-5.2-0.4-10.1,1.3-14.7
				c1.7-4.6,4.5-8.3,8.3-11.4c3.8-3,8.1-4.9,13.1-5.7C728.8,1148.6,733.6,1149,738.1,1150.6z M717.8,1168.2
				c-1.8,2.8-2.3,6.3-1.6,10.5c0.7,4.1,2.3,7.2,4.9,9.3c2.6,2.1,5.7,2.8,9.5,2.2c3.7-0.6,6.4-2.3,8.2-5.1c1.8-2.8,2.3-6.3,1.6-10.4
				c-0.7-4.2-2.3-7.4-4.8-9.4c-2.5-2.1-5.7-2.8-9.4-2.2C722.3,1163.7,719.5,1165.4,717.8,1168.2z"/>
		</g>
		<g>
			<path d="M804.9,1152.7l3.5,11.9l-33.1,9.7l-3.5-11.9L804.9,1152.7z"/>
		</g>
		<g>
			<path d="M855.7,1112.3c4,0.1,7.7,1.2,11,3.2c3.3,2,6.2,4.7,8.5,8.2l-14.5,6.2c-1.6-1.6-3.5-2.6-5.7-3c-2.2-0.4-4.3-0.1-6.5,0.8
				c-3,1.3-5,3.5-5.9,6.5c-0.9,3.1-0.5,6.5,1.1,10.3c1.6,3.8,3.9,6.4,6.7,7.9c2.8,1.5,5.8,1.6,8.8,0.3c2.2-0.9,3.9-2.3,5.1-4.2
				c1.2-1.8,1.8-3.9,1.7-6.2l14.5-6.2c1.4,6.3,0.7,12-2,17.2c-2.7,5.2-7.3,9.2-13.7,11.9c-4.9,2.1-9.6,2.9-14.2,2.3
				c-4.6-0.6-8.7-2.3-12.3-5.3c-3.6-3-6.5-6.9-8.6-11.8c-2.1-4.9-3-9.7-2.6-14.4c0.3-4.7,1.9-8.9,4.7-12.6c2.8-3.7,6.6-6.6,11.5-8.7
				C847.6,1113,851.7,1112.2,855.7,1112.3z"/>
		</g>
		<g>
			<path d="M907.5,1085.9c4.8,0,9.3,1.2,13.5,3.7c4.2,2.5,7.6,6,10.2,10.6c2.6,4.6,3.9,9.3,3.8,14.2c-0.1,4.9-1.3,9.4-3.8,13.5
				c-2.5,4.1-5.9,7.4-10.3,9.9c-4.4,2.5-9,3.7-13.8,3.7c-4.8,0-9.4-1.2-13.5-3.7c-4.2-2.5-7.6-6-10.2-10.6
				c-2.6-4.6-3.9-9.3-3.8-14.2c0.1-4.9,1.3-9.4,3.9-13.5c2.5-4.1,6-7.4,10.3-9.9C898,1087.2,902.7,1085.9,907.5,1085.9z
				 M894.4,1109.4c-0.7,3.2,0,6.7,2.1,10.4c2,3.6,4.6,6,7.8,7.1c3.1,1.1,6.3,0.7,9.7-1.2c3.3-1.8,5.3-4.4,5.9-7.6
				c0.7-3.2,0-6.7-2-10.3c-2.1-3.7-4.7-6.1-7.8-7.2c-3.1-1.1-6.3-0.7-9.6,1.2C897.1,1103.6,895.1,1106.2,894.4,1109.4z"/>
		</g>
		<g>
			<path d="M955.6,1053.4c4.8-0.5,9.4,0.2,13.8,2.2c4.4,2,8.2,5.2,11.3,9.5s4.9,8.9,5.4,13.7c0.5,4.9-0.3,9.5-2.3,13.8
				c-2,4.4-5.1,8-9.2,11c-4.1,2.9-8.5,4.7-13.3,5.2c-4.8,0.5-9.4-0.2-13.9-2.2c-4.4-2-8.2-5.1-11.3-9.4c-3.1-4.3-4.9-8.9-5.4-13.7
				c-0.5-4.8,0.3-9.5,2.3-13.8c2-4.4,5.1-8,9.2-11C946.3,1055.7,950.8,1053.9,955.6,1053.4z M945.2,1078.1
				c-0.3,3.3,0.8,6.7,3.2,10.1c2.4,3.4,5.3,5.4,8.5,6.2c3.2,0.7,6.4,0,9.5-2.2c3-2.2,4.7-4.9,5.1-8.2c0.3-3.3-0.7-6.6-3.2-10
				c-2.5-3.5-5.3-5.6-8.5-6.3c-3.2-0.7-6.3,0-9.4,2.2C947.2,1072.1,945.5,1074.9,945.2,1078.1z"/>
		</g>
		<g>
			<path d="M1003.4,1057l12,13.5l-11.2,10l-35.8-40.4l16.8-14.9c4.9-4.3,9.7-6.4,14.4-6.2c4.7,0.2,8.9,2.3,12.6,6.4
				c2.3,2.5,3.7,5.3,4.4,8.4c0.6,3,0.3,6.1-0.9,9.3c-1.2,3.2-3.5,6.2-6.6,9L1003.4,1057z M1000.8,1035.5c-2.6-3-5.6-3-8.9-0.1
				l-4.3,3.8l7.9,9l4.3-3.8C1003.1,1041.5,1003.4,1038.5,1000.8,1035.5z"/>
		</g>
		<g>
			<path d="M1040.3,1026.8l10.4,10.3l-10.7,10.8l-10.4-10.3L1040.3,1026.8z"/>
		</g>
		<g>
			<path d="M1051.3,954.4l9.2,7.7l-9.3,11.2l32.3,26.9l-9.6,11.5l-32.3-26.9l-9.2,11.1l-9.2-7.7L1051.3,954.4z"/>
		</g>
		<g>
			<path d="M1113.2,960l-22.6-2.4l-0.9,1.3l16.4,11.3l-8.6,12.3l-44.4-30.7l13.5-19.5c2.5-3.6,5.2-6.1,8.1-7.8c3-1.6,5.9-2.3,9-2.1
				c3,0.3,5.9,1.3,8.6,3.2c3.1,2.1,5.2,4.9,6.3,8.1c1.1,3.3,1,6.9-0.3,10.7l24.2,1.8L1113.2,960z M1081.5,953.2l4.2-6.1
				c2.4-3.4,2-6.2-1.1-8.3c-1.5-1-2.9-1.4-4.3-1.1c-1.4,0.3-2.7,1.3-3.9,3l-4.2,6.1L1081.5,953.2z"/>
		</g>
		<g>
			<path d="M1136,904.6l-9.3,16.7l6.4,7l-7.6,13.8l-37.5-43.3l8.4-15.1l56.5,8.8l-7.7,13.9L1136,904.6z M1124.4,902.4l-18.1-3.4
				l12.5,13.6L1124.4,902.4z"/>
		</g>
		<g>
			<path d="M1151.5,837.7c2.9-0.8,5.8-0.5,8.7,0.7c4.3,1.8,7,4.7,8.2,8.5c1.1,3.9,0.6,8.5-1.7,13.8l-10.5,24.5l-49.6-21.2l10.3-24
				c2.1-5,4.9-8.4,8.3-10.3c3.4-1.9,7.2-1.9,11.3-0.2c2.9,1.3,5.1,3.1,6.4,5.5c1.3,2.4,1.8,5,1.3,7.8
				C1146.1,840.2,1148.5,838.5,1151.5,837.7z M1132.3,858.7l3-6.9c1.5-3.5,0.8-5.8-2.1-7c-3-1.3-5.2-0.2-6.7,3.3l-2.9,6.9
				L1132.3,858.7z M1152.1,851.7c-3.1-1.3-5.4-0.2-6.9,3.4l-3.3,7.8l9.1,3.9l3.3-7.8C1155.8,855.4,1155.1,852.9,1152.1,851.7z"/>
		</g>
		<g>
			<path d="M1167.1,818.5l13.7,5l-5.2,14.2l-13.7-5L1167.1,818.5z"/>
		</g>
		<g>
			<path d="M1180.7,784.3l4.4-16.3l11,2.9l-8.2,30.8l-52.1-14l3.9-14.5L1180.7,784.3z"/>
		</g>
		<g>
			<path d="M1152.3,713.2l11.8,2.2l-2.7,14.3l41.3,7.7l-2.7,14.7l-41.3-7.7l-2.6,14.2l-11.8-2.2L1152.3,713.2z"/>
		</g>
		<g>
			<path d="M1197.6,668c3.9,2.6,6.8,6.2,8.7,10.6c2,4.4,2.7,9.4,2.2,15.1l-1.9,21.4l-53.7-4.8l1.9-21.4c0.5-5.7,2.1-10.5,4.7-14.5
				c2.6-4,6.1-7,10.3-8.9c4.2-1.9,9-2.6,14.2-2.1C1189.1,663.8,1193.7,665.4,1197.6,668z M1192.3,683.2c-2.1-2.7-5.4-4.3-9.8-4.7
				c-4.3-0.4-7.8,0.6-10.4,2.9c-2.6,2.3-4.1,5.7-4.5,10.1l-0.5,5.1l27.3,2.5l0.5-5.1C1195.4,689.5,1194.5,685.9,1192.3,683.2z"/>
		</g>
		<g>
			<path d="M1201.7,621.5l0.3,19.1l9,2.8l0.3,15.8l-54.1-18.8l-0.3-17.3l53.4-20.6l0.3,15.9L1201.7,621.5z M1190.5,625.5l-17.4,6.1
				l17.6,5.6L1190.5,625.5z"/>
		</g>
		<g>
			<path d="M1193.4,584.1l14.6-1.3l1.4,15.1l-14.6,1.3L1193.4,584.1z"/>
		</g>
	</g>
	<g>
		<g>
			<path class="st0" d="M667.1,892.9c-7,0-13.7,1-19.8,2.9l0,0c-6.1-1.9-12.8-2.9-19.8-2.9c-30,0-54.2,19-54.2,42.5
				c0,23.5,24.3,42.5,54.2,42.5c7,0,13.7-1,19.8-2.9c6.1,1.9,12.8,2.9,19.8,2.9c30,0,54.2-19,54.2-42.5
				C721.4,911.9,697.1,892.9,667.1,892.9z"/>
		</g>
		<g>
			<g>
				<path d="M535.7,930.9c5.9-6.1,8.9-11.6,8.9-16.5c0-4.8-1.9-7.1-5.7-7.1c-2.2,0-3.7,0.8-4.7,2.5c-1,1.7-1.5,4.4-1.6,8.2h-20.7
					c0.4-9.6,3.3-16.8,8.7-21.5c5.3-4.7,12-7.1,20-7.1c8.7,0,15.2,2.2,19.4,6.5c4.2,4.3,6.3,9.8,6.3,16.4c0,7.1-2.5,14-7.6,20.6
					s-11.3,12.2-18.8,16.8h27.5v17.2H512V951C521.9,943.7,529.8,937,535.7,930.9z"/>
			</g>
			<g>
				<path d="M732.3,954.9v-17.7l33.5-47h22.9v46.3h8.4v18.4h-8.4v13h-21.4v-13H732.3z M769,914.5l-15.3,22H769V914.5z"/>
			</g>
		</g>
		<g>
			<g>
				<path d="M627.5,981.5c-31.9,0-57.9-20.7-57.9-46.2s26-46.2,57.9-46.2s57.9,20.7,57.9,46.2c0,7-1.9,13.8-5.7,20.1l-0.4,0.7
					l-6.2-3.9l0.4-0.6c3.1-5.1,4.6-10.6,4.6-16.3c0-21.4-22.7-38.8-50.6-38.8c-27.9,0-50.6,17.4-50.6,38.8s22.7,38.8,50.6,38.8
					c7.2,0,14.2-1.1,20.7-3.4l2.4,6.9C643.3,980.3,635.6,981.5,627.5,981.5z"/>
			</g>
			<g>
				<path d="M616.1,957.9c-11.3-3.8-18.6-12.6-18.6-22.5c0-13.4,13.5-24.3,30.1-24.3s30.1,10.9,30.1,24.3c0,6.5-3.1,12.6-8.7,17.2
					l-4.6-5.7c3.9-3.2,6-7.3,6-11.5c0-9.4-10.2-17-22.7-17s-22.7,7.6-22.7,17c0,6.7,5.3,12.8,13.6,15.6L616.1,957.9z"/>
			</g>
			<g>
				<path d="M667.1,981.5c-31.9,0-57.9-20.7-57.9-46.2c0-7.5,2.3-15,6.7-21.6l6.1,4.1c-3.6,5.5-5.5,11.4-5.5,17.6
					c0,21.4,22.7,38.8,50.6,38.8c27.9,0,50.6-17.4,50.6-38.8s-22.7-38.8-50.6-38.8c-6.5,0-12.8,0.9-18.7,2.8l-2.2-7
					c6.7-2,13.7-3.1,20.9-3.1c31.9,0,57.9,20.7,57.9,46.2S699,981.5,667.1,981.5z"/>
			</g>
			<g>
				<path d="M667.1,959.7c-16.6,0-30.1-10.9-30.1-24.3c0-6.1,2.8-11.9,7.8-16.4l4.9,5.5c-3.5,3.1-5.4,7-5.4,10.9
					c0,9.4,10.2,17,22.7,17c12.5,0,22.7-7.6,22.7-17c0-7.2-6.1-13.6-15.1-16l1.9-7.1c12.3,3.3,20.5,12.6,20.5,23.1
					C697.2,948.8,683.7,959.7,667.1,959.7z"/>
			</g>
		</g>
	</g>
</g>
</svg>
