<?xml version="1.0" encoding="utf-8"?>
<!-- Generator: Adobe Illustrator 24.2.0, SVG Export Plug-In . SVG Version: 6.00 Build 0)  -->
<svg version="1.1" id="Camada_1" xmlns="http://www.w3.org/2000/svg" xmlns:xlink="http://www.w3.org/1999/xlink" x="0px" y="0px"
	 viewBox="0 0 1280 1280" style="enable-background:new 0 0 1280 1280;" xml:space="preserve">
<style type="text/css">
	.st0{fill:#F4B41C;}
	.st1{fill:#2EA05D;}
	.st2{fill:#63BB8F;}
	.st3{fill:#FFFFFF;}
	.st4{opacity:0.2;fill:url(#SVGID_1_);enable-background:new    ;}
	.st5{fill:#6D7071;}
</style>
<path class="st0" d="M354,233.1h572.4c24.3,0,44,19.8,44,44v460.5c0,24.3-19.8,44-44,44H354c-24.3,0-44-19.8-44-44V277.1
	C310.4,252.9,329.7,233.1,354,233.1z"/>
<rect x="375.1" y="287" class="st1" width="530.2" height="440.3"/>
<g>
	<g>
		<circle class="st2" cx="523.4" cy="487.9" r="34.1"/>
		<path class="st2" d="M523.4,542.2c-62.9,0-79.5,33.2-79.5,46.3c0,13,0,19.8,0,19.8h79.5h79.5c0,0,0-6.7,0-19.8
			C602.9,575.5,586.3,542.2,523.4,542.2z"/>
	</g>
	<g>
		<circle class="st2" cx="757" cy="487.9" r="34.1"/>
		<path class="st2" d="M757,542.2c-62.9,0-79.5,33.2-79.5,46.3c0,13,0,19.8,0,19.8H757h79.5c0,0,0-6.7,0-19.8
			C836.5,575.5,819.9,542.2,757,542.2z"/>
	</g>
</g>
<g>
	<circle class="st3" cx="640.2" cy="448.8" r="44.9"/>
	<path class="st3" d="M640.2,520.7c-83.1,0-105.1,44-105.1,61.1c0,17.5,0,26.5,0,26.5h105.1h105.1c0,0,0-9,0-26.5
		C745.3,564.7,723.3,520.7,640.2,520.7z"/>
</g>
<rect x="698.6" y="695.9" class="st3" width="139.3" height="31.5"/>
<linearGradient id="SVGID_1_" gradientUnits="userSpaceOnUse" x1="793.4748" y1="500.9172" x2="797.118" y2="553.7432" gradientTransform="matrix(1 0 0 -1 0 1280)">
	<stop  offset="0" style="stop-color:#FFFFFF"/>
	<stop  offset="0.11" style="stop-color:#FAFAFA"/>
	<stop  offset="0.2339" style="stop-color:#EDEDED"/>
	<stop  offset="0.3646" style="stop-color:#D6D6D6"/>
	<stop  offset="0.5" style="stop-color:#B7B7B7"/>
	<stop  offset="0.6391" style="stop-color:#8E8E8E"/>
	<stop  offset="0.7813" style="stop-color:#5C5C5C"/>
	<stop  offset="0.9233" style="stop-color:#222222"/>
	<stop  offset="1" style="stop-color:#000000"/>
</linearGradient>
<polygon class="st4" points="752.5,781.3 891.8,781.3 837.9,727.3 698.6,727.3 "/>
<g>
	<g>
		<path class="st5" d="M166.2,939c6.7,4.9,10.8,11.7,13,20.2h-17.5c-1.8-3.6-4-6.7-7.6-9c-3.6-2.2-7.6-3.1-12.6-3.1
			c-4.9,0-9,0.9-12.6,3.1c-3.6,2.2-6.7,5.4-8.5,9.4c-2.2,4-3.1,9-3.1,14.4c0,8.5,2.2,15.3,7.2,20.2c4.5,4.9,11.2,7.2,18.9,7.2
			c5.8,0,11.2-1.8,15.3-5.4c4.5-3.6,7.2-8.5,8.1-14.8h-28.3v-11.7h41.8v16.2c-1.3,5.4-3.6,10.3-6.7,15.3c-3.6,4.5-8.1,8.5-13.5,11.2
			c-5.4,2.7-11.7,4-18.9,4c-8.1,0-15.3-1.8-21.6-5.4c-6.3-3.6-11.2-8.5-14.4-14.8c-3.6-6.3-4.9-13.5-4.9-22s1.8-15.7,4.9-22
			c3.6-6.3,8.1-11.2,14.4-14.8s13.5-5.4,21.6-5.4C151.3,931.3,159.9,934,166.2,939z"/>
		<path class="st5" d="M240.3,953.3c4.9,2.7,9,6.7,12.1,11.7c3.1,4.9,4.5,10.8,4.5,18c0,6.7-1.3,12.6-4.5,18
			c-2.7,4.9-6.7,9-12.1,11.7c-4.9,2.7-10.8,4-17.1,4c-6.3,0-12.1-1.3-17.1-4c-4.9-2.7-9-6.7-12.1-11.7c-2.7-4.9-4.5-10.8-4.5-18
			c0-6.7,1.3-12.6,4.5-18c3.1-5.4,6.7-9,12.1-11.7c5.4-2.7,10.8-4,17.1-4S235.4,950.6,240.3,953.3z M211.5,968.6
			c-3.1,3.1-4.9,8.1-4.9,14.4s1.8,10.8,4.9,14.4c3.1,3.1,7.2,4.9,11.7,4.9s8.5-1.8,11.7-4.9c3.1-3.1,4.9-8.1,4.9-14.4
			s-1.8-10.8-4.9-14.4c-3.1-3.1-7.2-4.9-11.7-4.9S214.7,965,211.5,968.6z"/>
		<path class="st5" d="M315.3,953.3c4.9,2.7,9,6.7,12.1,11.7s4.5,10.8,4.5,18c0,6.7-1.3,12.6-4.5,18c-2.7,4.9-6.7,9-12.1,11.7
			c-4.9,2.7-10.8,4-17.1,4c-6.3,0-12.1-1.3-17.1-4c-4.9-2.7-9-6.7-12.1-11.7c-2.7-4.9-4.5-10.8-4.5-18c0-6.7,1.3-12.6,4.5-18
			c3.1-5.4,6.7-9,12.1-11.7c5.4-2.7,10.8-4,17.1-4C304.5,949.3,310.4,950.6,315.3,953.3z M286.6,968.6c-3.1,3.1-4.9,8.1-4.9,14.4
			s1.8,10.8,4.9,14.4c3.1,3.1,7.2,4.9,11.7,4.9c4.5,0,8.5-1.8,11.7-4.9c3.1-3.1,4.9-8.1,4.9-14.4s-1.8-10.8-4.9-14.4
			c-3.1-3.1-7.2-4.9-11.7-4.9C293.8,963.7,289.7,965,286.6,968.6z"/>
		<path class="st5" d="M383.2,953.3c4,2.7,6.7,6.3,8.5,10.3v-13.5h16.6v65.1c0,5.8-1.3,11.2-3.6,16.2c-2.2,4.9-5.8,8.5-10.8,11.2
			c-4.9,2.7-10.3,4-17.1,4c-9.4,0-17.1-2.2-22.9-6.7s-9.4-10.3-10.8-18.4h16.2c0.9,3.1,2.7,5.8,5.4,7.6c2.7,1.8,6.3,2.7,10.3,2.7
			c4.9,0,9-1.3,11.7-4.5c3.1-2.7,4.5-7.2,4.5-13v-13.9c-1.8,4.5-4.5,8.1-8.5,10.3c-4,2.7-8.5,4-13.9,4c-5.4,0-10.3-1.3-14.8-4
			c-4.5-2.7-7.6-6.7-10.3-11.7c-2.2-4.9-3.6-10.8-3.6-18c0-6.7,1.3-12.6,3.6-18c2.2-4.9,5.8-9,10.3-11.7c4.5-2.7,9.4-4,14.8-4
			C374.6,949.3,379.1,950.6,383.2,953.3z M361.6,968.6c-3.1,3.6-4.5,8.1-4.5,13.9s1.3,10.3,4.5,13.9c3.1,3.1,7.2,4.9,12.6,4.9
			c4.9,0,9-1.8,12.6-4.9c3.1-3.6,4.9-8.1,4.9-13.5c0-5.8-1.8-10.3-4.9-13.9c-3.1-3.6-7.2-4.9-12.6-4.9
			C368.8,963.7,364.8,965.5,361.6,968.6z"/>
		<path class="st5" d="M439.3,928.2v87.2h-16.6v-87.2H439.3z"/>
		<path class="st5" d="M515.3,985.7h-47.6c0.4,5.8,1.8,9.9,4.5,13c2.7,2.7,6.3,4,10.8,4c4,0,7.2-0.9,9.4-2.7c2.7-1.8,4-4.5,4.9-7.6
			h17.5c-0.9,4.5-2.7,8.5-5.4,12.1c-2.7,3.6-6.3,6.3-10.8,8.5c-4.5,2.2-9.4,3.1-14.8,3.1c-6.3,0-12.1-1.3-17.1-4
			c-4.9-2.7-9-6.7-11.7-11.7c-2.7-4.9-4-10.8-4-18c0-6.7,1.3-12.6,4-18c2.7-5.4,6.7-9,11.7-11.7c4.9-2.7,10.8-4,17.1-4
			c6.3,0,12.1,1.3,17.1,4c4.9,2.7,8.5,6.3,11.2,10.8c2.7,4.5,4,9.9,4,15.7C515.7,981.6,515.7,983.9,515.3,985.7z M495,966.4
			c-3.1-2.7-6.7-4-11.2-4c-4.5,0-8.1,1.3-11.2,4c-3.1,2.7-4.9,6.7-4.9,12.1h31.5C499.1,973.1,497.7,969.1,495,966.4z"/>
		<path class="st5" d="M615.9,939c6.7,5.4,11.2,12.1,13.5,21.1H615c-1.8-4.9-4.9-9-9.4-12.1c-4.5-3.1-9.4-4.5-15.7-4.5
			c-4.9,0-9.4,1.3-13,3.6c-4,2.2-6.7,5.8-9,10.3c-2.2,4.5-3.1,9.9-3.1,15.7s0.9,11.2,3.1,15.7c2.2,4.5,5.4,8.1,9,10.3
			c4,2.2,8.1,3.6,13,3.6c6.3,0,11.2-1.3,15.7-4.5c4.5-3.1,7.2-6.7,9.4-11.7h14.4c-2.2,9-6.7,15.7-13.5,21.1
			c-6.7,4.9-15.3,7.6-25.2,7.6c-7.6,0-14.8-1.8-20.7-5.4s-10.8-8.5-13.9-14.8c-3.1-6.3-4.9-13.5-4.9-22s1.8-15.7,4.9-22
			c3.1-6.3,8.1-11.2,13.9-14.8s13-5.4,20.7-5.4C601.1,931.3,609.2,934,615.9,939z"/>
		<path class="st5" d="M656.3,928.2v87.2h-13.5v-87.2H656.3z"/>
		<path class="st5" d="M713.9,953.8c4,2.7,7.2,6.7,9,11.7v-15.3h13.5v64.7h-13.5v-14.8c-1.8,4.9-4.5,8.5-9,11.7
			c-4,2.7-9,4.5-14.8,4.5s-10.8-1.3-15.3-4c-4.5-2.7-8.1-6.3-10.3-11.7c-2.7-4.9-3.6-10.8-3.6-17.5c0-6.7,1.3-12.6,3.6-17.5
			c2.7-4.9,5.8-9,10.3-11.7c4.5-2.7,9.4-4,15.3-4C704.4,949.7,709.4,951.1,713.9,953.8z M688.7,967.3c-3.6,3.6-5.4,9-5.4,15.7
			c0,6.7,1.8,11.7,5.4,15.7s8.5,5.8,14.4,5.8c3.6,0,7.2-0.9,9.9-2.7c3.1-1.8,5.4-4,7.2-7.6c1.8-3.1,2.7-7.2,2.7-11.2
			s-0.9-8.1-2.7-11.2c-1.8-3.1-4-5.8-7.2-7.6c-3.1-1.8-6.3-2.7-9.9-2.7C696.8,961.4,692.3,963.2,688.7,967.3z"/>
		<path class="st5" d="M791.6,955.6c4.5,4,7.2,9,8.5,15.7h-12.6c-0.4-3.6-2.2-6.3-4.5-8.5c-2.2-2.2-5.8-3.1-9.9-3.1
			c-3.6,0-5.8,0.9-7.6,2.2c-1.8,1.3-2.7,3.6-2.7,6.7c0,2.2,0.4,3.6,1.8,4.9c1.3,1.3,3.1,2.2,4.9,3.1c1.8,0.9,4.9,1.3,8.5,2.2
			c4.9,0.9,9,2.2,11.7,3.6c3.1,1.3,5.4,3.1,7.6,5.4c2.2,2.7,3.1,5.8,3.1,10.3c0,5.4-2.2,9.9-6.3,13c-4,3.1-9.4,4.9-16.6,4.9
			c-8.1,0-14.4-1.8-19.8-5.8c-4.9-3.6-8.1-9-9-15.7h13c0.4,3.6,1.8,6.3,4.5,8.5c2.7,2.2,6.3,3.1,10.8,3.1c3.1,0,5.8-0.9,7.6-2.7
			c1.8-1.8,2.7-3.6,2.7-6.3c0-2.2-0.9-4-2.2-5.4c-1.3-1.3-3.1-2.2-5.4-3.1c-2.2-0.9-4.9-1.3-8.5-2.2c-4.5-0.9-8.5-2.2-11.2-3.1
			c-2.7-0.9-5.4-2.7-7.6-5.4c-2.2-2.2-3.1-5.8-3.1-9.9c0-5.4,2.2-9.9,6.3-13.5s9.9-4.9,17.1-4.9
			C780.8,949.7,787.1,951.5,791.6,955.6z"/>
		<path class="st5" d="M853.6,955.6c4.5,4,7.2,9,8.5,15.7h-12.6c-0.4-3.6-2.2-6.3-4.5-8.5s-5.8-3.1-9.9-3.1c-3.6,0-5.8,0.9-7.6,2.2
			c-1.8,1.3-2.7,3.6-2.7,6.7c0,2.2,0.4,3.6,1.8,4.9c1.3,1.3,3.1,2.2,4.9,3.1c1.8,0.9,4.9,1.3,8.5,2.2c4.9,0.9,9,2.2,11.7,3.6
			c3.1,1.3,5.4,3.1,7.6,5.4c2.2,2.7,3.1,5.8,3.1,10.3c0,5.4-2.2,9.9-6.3,13c-4,3.1-9.4,4.9-16.6,4.9c-8.1,0-14.4-1.8-19.8-5.8
			c-4.9-3.6-8.1-9-9-15.7h13c0.4,3.6,1.8,6.3,4.5,8.5c2.7,2.2,6.3,3.1,10.8,3.1c3.1,0,5.8-0.9,7.6-2.7c1.8-1.8,2.7-3.6,2.7-6.3
			c0-2.2-0.9-4-2.2-5.4c-1.3-1.3-3.1-2.2-5.4-3.1c-2.2-0.9-4.9-1.3-8.5-2.2c-4.5-0.9-8.5-2.2-11.2-3.1c-2.7-0.9-5.4-2.7-7.6-5.4
			c-2.2-2.2-3.1-5.8-3.1-9.9c0-5.4,2.2-9.9,6.3-13.5s9.9-4.9,17.1-4.9C842.8,949.7,849.1,951.5,853.6,955.6z"/>
		<path class="st5" d="M899,952.9c4-2.2,9-3.6,13.9-3.6v14.4h-4c-5.8,0-10.8,1.3-14.4,4.5c-3.6,3.1-5.4,7.6-5.4,14.4v32.8h-13.5
			v-65.1h13.5v12.6C891.8,958.7,894.9,955.6,899,952.9z"/>
		<path class="st5" d="M969.5,953.8c4.9,2.7,9,6.3,11.7,11.7c2.7,4.9,4,10.8,4,17.5c0,6.7-1.3,12.6-4,17.5c-2.7,4.9-6.7,9-11.7,11.7
			c-4.9,2.7-10.8,4-17.1,4c-6.3,0-11.7-1.3-17.1-4c-4.9-2.7-9-6.7-11.7-11.7c-2.7-4.9-4.5-10.8-4.5-17.5c0-6.7,1.3-12.6,4.5-17.5
			c2.7-4.9,6.7-9,11.7-11.7c4.9-2.7,10.8-4,17.1-4C958.7,949.7,964.6,951.1,969.5,953.8z M943,963.7c-2.7,1.3-5.4,4-7.2,7.2
			c-1.8,3.1-2.7,7.2-2.7,12.1c0,4.9,0.9,9,2.7,12.1c1.8,3.1,4,5.4,7.2,7.2c3.1,1.8,6.3,2.2,9.4,2.2c3.6,0,6.7-0.9,9.4-2.2
			c2.7-1.3,5.4-4,7.2-7.2c1.8-3.1,2.7-7.2,2.7-12.1c0-4.5-0.9-8.5-2.7-12.1c-1.8-3.1-4-5.8-7.2-7.2c-2.7-1.3-6.3-2.2-9.4-2.2
			C949.3,961.4,946.1,961.9,943,963.7z"/>
		<path class="st5" d="M1045,953.8c4.9,2.7,9,6.3,11.7,11.7c2.7,4.9,4,10.8,4,17.5c0,6.7-1.3,12.6-4,17.5c-2.7,4.9-6.7,9-11.7,11.7
			c-4.9,2.7-10.8,4-17.1,4c-6.3,0-11.7-1.3-17.1-4c-4.9-2.7-9-6.7-11.7-11.7c-2.7-4.9-4.5-10.8-4.5-17.5c0-6.7,1.3-12.6,4.5-17.5
			c2.7-4.9,6.7-9,11.7-11.7c4.9-2.7,10.8-4,17.1-4C1034.2,949.7,1040.1,951.1,1045,953.8z M1018.5,963.7c-2.7,1.3-5.4,4-7.2,7.2
			c-1.8,3.1-2.7,7.2-2.7,12.1c0,4.9,0.9,9,2.7,12.1c1.8,3.1,4,5.4,7.2,7.2c3.1,1.8,6.3,2.2,9.4,2.2c3.6,0,6.7-0.9,9.4-2.2
			c2.7-1.3,5.4-4,7.2-7.2c1.8-3.1,2.7-7.2,2.7-12.1c0-4.5-0.9-8.5-2.7-12.1c-1.8-3.1-4-5.8-7.2-7.2c-2.7-1.3-6.3-2.2-9.4-2.2
			C1024.8,961.4,1021.6,961.9,1018.5,963.7z"/>
		<path class="st5" d="M1173,956.5c4.5,4.9,6.7,11.7,6.7,20.7v37.7h-13.5v-36.4c0-5.8-1.3-9.9-4-13c-2.7-3.1-6.7-4.5-11.7-4.5
			c-5.4,0-9.4,1.8-12.6,4.9c-3.1,3.1-4.5,8.1-4.5,14.8v34.6H1120v-36.4c0-5.8-1.3-9.9-4-13c-2.7-3.1-6.7-4.5-11.7-4.5
			c-5.4,0-9.4,1.8-12.6,4.9c-3.1,3.1-4.5,8.1-4.5,14.8v34.6h-13.5v-65.6h13.5v13.5c1.8-4.5,4.5-8.1,8.1-10.8c4-2.7,8.5-3.6,13.5-3.6
			c5.4,0,9.9,1.3,13.9,4c4,2.7,6.7,6.3,8.5,11.7c1.8-4.9,4.9-8.5,9-11.2c4-2.7,9-4,13.9-4C1162.7,949.3,1168.6,952,1173,956.5z"/>
	</g>
</g>
</svg>
